<svg width="6" height="8" viewBox="0 0 6 8" fill="none" xmlns="http://www.w3.org/2000/svg">
    <path d="M5.27529 3.5196L1.52514 0.394468C1.39765 0.289015 1.23357 0.238378 1.06883 0.253647C0.904086 0.268916 0.752108 0.348846 0.646174 0.475934C0.540241 0.603021 0.488986 0.766909 0.503633 0.931708C0.518281 1.09651 0.597637 1.24879 0.724324 1.3552L3.89828 3.99999L0.724324 6.64478C0.597149 6.75104 0.517354 6.90344 0.502468 7.0685C0.487583 7.23356 0.538824 7.39777 0.644935 7.52508C0.751047 7.65238 0.90335 7.73236 1.06839 7.74744C1.23343 7.76252 1.39771 7.71148 1.52514 7.60552L5.27529 4.48033C5.34561 4.42158 5.40217 4.34811 5.44099 4.26511C5.4798 4.18211 5.49992 4.0916 5.49992 3.99997C5.49992 3.90834 5.4798 3.81783 5.44099 3.73482C5.40217 3.65182 5.34561 3.57835 5.27529 3.5196Z" fill="#0072EF" stroke="#0072EF" stroke-width="0.3"/>
</svg>
