<svg width="1370" height="525" viewBox="0 0 1370 525" fill="none" xmlns="http://www.w3.org/2000/svg">
<rect width="1370" height="525" rx="24" fill="#EBF3FA"/>
<path d="M172.38 183H164.775V146.34H142.22V183H134.615V139.645H172.38V183ZM198.293 183.78C194.133 183.78 190.774 182.068 188.218 178.645V194.96H181.393V151.605H188.218V155.895C190.731 152.515 194.089 150.825 198.293 150.825C202.409 150.825 205.746 152.298 208.303 155.245C210.903 158.192 212.203 162.2 212.203 167.27C212.203 172.34 210.903 176.37 208.303 179.36C205.746 182.307 202.409 183.78 198.293 183.78ZM196.278 177.735C198.964 177.735 201.109 176.76 202.713 174.81C204.316 172.86 205.118 170.347 205.118 167.27C205.118 164.193 204.316 161.702 202.713 159.795C201.109 157.845 198.964 156.87 196.278 156.87C194.718 156.87 193.179 157.282 191.663 158.105C190.146 158.928 188.998 159.925 188.218 161.095V173.51C188.998 174.68 190.146 175.677 191.663 176.5C193.179 177.323 194.718 177.735 196.278 177.735ZM233.141 183.78C228.287 183.78 224.387 182.198 221.441 179.035C218.494 175.828 217.021 171.907 217.021 167.27C217.021 162.633 218.494 158.733 221.441 155.57C224.387 152.407 228.287 150.825 233.141 150.825C238.037 150.825 241.959 152.407 244.906 155.57C247.852 158.733 249.326 162.633 249.326 167.27C249.326 171.95 247.852 175.872 244.906 179.035C241.959 182.198 238.037 183.78 233.141 183.78ZM233.141 177.735C235.957 177.735 238.167 176.738 239.771 174.745C241.417 172.708 242.241 170.217 242.241 167.27C242.241 164.367 241.417 161.918 239.771 159.925C238.167 157.888 235.957 156.87 233.141 156.87C230.367 156.87 228.157 157.888 226.511 159.925C224.907 161.918 224.106 164.367 224.106 167.27C224.106 170.217 224.907 172.708 226.511 174.745C228.157 176.738 230.367 177.735 233.141 177.735ZM280.022 151.605V157.585H263.057V183H256.232V151.605H280.022ZM302.521 183.78C298.361 183.78 295.003 182.068 292.446 178.645V194.96H285.621V151.605H292.446V155.895C294.96 152.515 298.318 150.825 302.521 150.825C306.638 150.825 309.975 152.298 312.531 155.245C315.131 158.192 316.431 162.2 316.431 167.27C316.431 172.34 315.131 176.37 312.531 179.36C309.975 182.307 306.638 183.78 302.521 183.78ZM300.506 177.735C303.193 177.735 305.338 176.76 306.941 174.81C308.545 172.86 309.346 170.347 309.346 167.27C309.346 164.193 308.545 161.702 306.941 159.795C305.338 157.845 303.193 156.87 300.506 156.87C298.946 156.87 297.408 157.282 295.891 158.105C294.375 158.928 293.226 159.925 292.446 161.095V173.51C293.226 174.68 294.375 175.677 295.891 176.5C297.408 177.323 298.946 177.735 300.506 177.735ZM349.199 183H342.374V179.62C339.948 182.393 336.568 183.78 332.234 183.78C329.374 183.78 326.839 182.87 324.629 181.05C322.419 179.187 321.314 176.63 321.314 173.38C321.314 170.043 322.398 167.508 324.564 165.775C326.774 164.042 329.331 163.175 332.234 163.175C336.698 163.175 340.078 164.518 342.374 167.205V162.525C342.374 160.705 341.703 159.275 340.359 158.235C339.016 157.195 337.239 156.675 335.029 156.675C331.519 156.675 328.421 157.997 325.734 160.64L322.939 155.895C326.493 152.515 330.891 150.825 336.134 150.825C339.991 150.825 343.133 151.735 345.559 153.555C347.986 155.375 349.199 158.257 349.199 162.2V183ZM334.899 179.1C338.323 179.1 340.814 178.017 342.374 175.85V171.105C340.814 168.938 338.323 167.855 334.899 167.855C332.949 167.855 331.346 168.375 330.089 169.415C328.833 170.455 328.204 171.82 328.204 173.51C328.204 175.2 328.833 176.565 330.089 177.605C331.346 178.602 332.949 179.1 334.899 179.1ZM393.213 183H386.388V161.16L377.028 183H374.298L364.873 161.16V183H358.048V151.605H366.953L375.663 171.885L384.243 151.605H393.213V183ZM437.202 183H430.377V161.16L421.017 183H418.287L408.862 161.16V183H402.037V151.605H410.942L419.652 171.885L428.232 151.605H437.202V183ZM446.026 151.605H452.851V162.98H463.966C467.303 162.98 469.86 163.933 471.636 165.84C473.456 167.747 474.366 170.13 474.366 172.99C474.366 175.807 473.435 178.19 471.571 180.14C469.751 182.047 467.216 183 463.966 183H446.026V151.605ZM463.121 168.96H452.851V177.02H463.121C464.465 177.02 465.505 176.652 466.241 175.915C467.021 175.178 467.411 174.203 467.411 172.99C467.411 171.777 467.021 170.802 466.241 170.065C465.505 169.328 464.465 168.96 463.121 168.96ZM485.936 183H479.111V151.605H485.936V183ZM131.82 258.995V245.02C133.553 244.847 134.897 244.413 135.85 243.72C136.803 243.027 137.67 241.597 138.45 239.43C139.273 237.263 139.923 234.1 140.4 229.94L142.935 207.645H172.38V244.305H176.41V258.995H168.805V251H139.425V258.995H131.82ZM147.94 230.46C147.203 236.873 145.297 241.488 142.22 244.305H164.775V214.34H149.76L147.94 230.46ZM219.987 251H212.382V214.34H189.827V251H182.222V207.645H219.987V251ZM265.335 245.475C261.175 249.678 255.867 251.78 249.41 251.78C242.953 251.78 237.645 249.678 233.485 245.475C229.325 241.228 227.245 235.855 227.245 229.355C227.245 222.855 229.325 217.503 233.485 213.3C237.645 209.053 242.953 206.93 249.41 206.93C255.867 206.93 261.175 209.053 265.335 213.3C269.495 217.503 271.575 222.855 271.575 229.355C271.575 235.855 269.495 241.228 265.335 245.475ZM249.41 245.02C253.7 245.02 257.167 243.547 259.81 240.6C262.453 237.61 263.775 233.862 263.775 229.355C263.775 224.805 262.453 221.057 259.81 218.11C257.167 215.163 253.7 213.69 249.41 213.69C245.077 213.69 241.588 215.163 238.945 218.11C236.345 221.057 235.045 224.805 235.045 229.355C235.045 233.905 236.345 237.653 238.945 240.6C241.588 243.547 245.077 245.02 249.41 245.02Z" fill="black"/>
<path d="M146.484 323H144.326V307.582H134.186V323H132.028V305.658H146.484V323ZM160.444 321.414C159.317 322.679 157.818 323.312 155.946 323.312C154.074 323.312 152.566 322.679 151.422 321.414C150.295 320.149 149.732 318.58 149.732 316.708C149.732 314.836 150.295 313.276 151.422 312.028C152.566 310.763 154.074 310.13 155.946 310.13C157.818 310.13 159.317 310.763 160.444 312.028C161.588 313.276 162.16 314.836 162.16 316.708C162.16 318.58 161.588 320.149 160.444 321.414ZM152.878 320.166C153.64 321.102 154.663 321.57 155.946 321.57C157.228 321.57 158.242 321.102 158.988 320.166C159.733 319.213 160.106 318.06 160.106 316.708C160.106 315.356 159.733 314.212 158.988 313.276C158.242 312.34 157.228 311.872 155.946 311.872C154.663 311.872 153.64 312.349 152.878 313.302C152.132 314.238 151.76 315.373 151.76 316.708C151.76 318.06 152.132 319.213 152.878 320.166ZM163.857 323.312V321.7C164.446 321.7 164.931 321.31 165.313 320.53C165.694 319.75 166.006 318.45 166.249 316.63L167.055 310.442H175.791V323H173.841V312.158H168.771L168.199 316.864C167.921 319.169 167.436 320.825 166.743 321.83C166.049 322.818 165.087 323.312 163.857 323.312ZM178.982 327.914L179.294 326.146C179.606 326.285 179.962 326.354 180.36 326.354C180.811 326.354 181.184 326.259 181.478 326.068C181.773 325.877 182.024 325.531 182.232 325.028L183.064 323.13L177.812 310.442H179.918L184.104 320.738L188.264 310.442H190.396L184.104 325.548C183.411 327.212 182.18 328.061 180.412 328.096C179.892 328.096 179.416 328.035 178.982 327.914ZM192.17 310.442H194.12V313.978C194.12 315.105 194.38 315.885 194.9 316.318C195.42 316.751 196.226 316.968 197.318 316.968C198.67 316.968 199.78 316.743 200.646 316.292V310.442H202.596V323H200.646V317.878C199.537 318.433 198.263 318.71 196.824 318.71C195.195 318.71 194.008 318.381 193.262 317.722C192.534 317.063 192.17 316.015 192.17 314.576V310.442ZM216.299 323H214.349V321.57C213.292 322.731 211.905 323.312 210.189 323.312C209.028 323.312 208.005 322.939 207.121 322.194C206.237 321.449 205.795 320.435 205.795 319.152C205.795 317.835 206.228 316.821 207.095 316.11C207.979 315.382 209.01 315.018 210.189 315.018C211.974 315.018 213.361 315.59 214.349 316.734V314.472C214.349 313.64 214.054 312.99 213.465 312.522C212.876 312.054 212.113 311.82 211.177 311.82C209.704 311.82 208.421 312.401 207.329 313.562L206.419 312.21C207.754 310.823 209.426 310.13 211.437 310.13C212.876 310.13 214.046 310.477 214.947 311.17C215.848 311.863 216.299 312.929 216.299 314.368V323ZM210.891 321.908C212.451 321.908 213.604 321.388 214.349 320.348V317.982C213.604 316.942 212.451 316.422 210.891 316.422C209.99 316.422 209.244 316.682 208.655 317.202C208.083 317.705 207.797 318.363 207.797 319.178C207.797 319.975 208.083 320.634 208.655 321.154C209.244 321.657 209.99 321.908 210.891 321.908ZM222.08 323H220.208V310.442H222.158V320.036L228.736 310.442H230.66V323H228.71V313.224L222.08 323ZM229.984 306.724C228.857 308.249 227.34 309.012 225.434 309.012C223.544 309.012 222.019 308.249 220.858 306.724L221.82 305.892C222.721 307.14 223.926 307.764 225.434 307.764C226.959 307.764 228.155 307.14 229.022 305.892L229.984 306.724ZM248.303 323H241.257V310.442H248.173C249.265 310.442 250.123 310.737 250.747 311.326C251.388 311.915 251.709 312.695 251.709 313.666C251.709 314.377 251.509 314.992 251.111 315.512C250.729 316.015 250.253 316.353 249.681 316.526C250.322 316.682 250.859 317.055 251.293 317.644C251.743 318.233 251.969 318.883 251.969 319.594C251.969 320.617 251.639 321.44 250.981 322.064C250.339 322.688 249.447 323 248.303 323ZM247.913 321.284C248.537 321.284 249.031 321.111 249.395 320.764C249.759 320.417 249.941 319.949 249.941 319.36C249.941 318.823 249.759 318.363 249.395 317.982C249.031 317.601 248.537 317.41 247.913 317.41H243.207V321.284H247.913ZM247.835 315.694C248.424 315.694 248.883 315.538 249.213 315.226C249.542 314.897 249.707 314.472 249.707 313.952C249.707 313.397 249.542 312.964 249.213 312.652C248.883 312.323 248.424 312.158 247.835 312.158H243.207V315.694H247.835ZM265.637 321.414C264.51 322.679 263.011 323.312 261.139 323.312C259.267 323.312 257.759 322.679 256.615 321.414C255.488 320.149 254.925 318.58 254.925 316.708C254.925 314.836 255.488 313.276 256.615 312.028C257.759 310.763 259.267 310.13 261.139 310.13C263.011 310.13 264.51 310.763 265.637 312.028C266.781 313.276 267.353 314.836 267.353 316.708C267.353 318.58 266.781 320.149 265.637 321.414ZM258.071 320.166C258.834 321.102 259.856 321.57 261.139 321.57C262.422 321.57 263.436 321.102 264.181 320.166C264.926 319.213 265.299 318.06 265.299 316.708C265.299 315.356 264.926 314.212 264.181 313.276C263.436 312.34 262.422 311.872 261.139 311.872C259.856 311.872 258.834 312.349 258.071 313.302C257.326 314.238 256.953 315.373 256.953 316.708C256.953 318.06 257.326 319.213 258.071 320.166ZM276.07 323.312C274.215 323.312 272.707 322.688 271.546 321.44C270.385 320.175 269.804 318.597 269.804 316.708C269.804 314.819 270.385 313.25 271.546 312.002C272.707 310.754 274.215 310.13 276.07 310.13C278.011 310.13 279.545 310.858 280.672 312.314L279.372 313.51C278.575 312.418 277.509 311.872 276.174 311.872C274.857 311.872 273.799 312.323 273.002 313.224C272.222 314.125 271.832 315.287 271.832 316.708C271.832 318.129 272.222 319.299 273.002 320.218C273.799 321.119 274.857 321.57 276.174 321.57C277.491 321.57 278.557 321.024 279.372 319.932L280.672 321.128C279.545 322.584 278.011 323.312 276.07 323.312ZM287.643 323H285.693V312.158H282.053V310.442H291.309V312.158H287.643V323ZM300.054 323.312C298.286 323.312 296.873 322.575 295.816 321.102V327.784H293.866V310.442H295.816V312.314C296.284 311.655 296.891 311.127 297.636 310.728C298.381 310.329 299.187 310.13 300.054 310.13C301.718 310.13 303.061 310.728 304.084 311.924C305.124 313.103 305.644 314.697 305.644 316.708C305.644 318.719 305.124 320.322 304.084 321.518C303.061 322.714 301.718 323.312 300.054 323.312ZM299.56 321.57C300.791 321.57 301.77 321.119 302.498 320.218C303.226 319.299 303.59 318.129 303.59 316.708C303.59 315.287 303.226 314.125 302.498 313.224C301.77 312.323 300.791 311.872 299.56 311.872C298.815 311.872 298.087 312.071 297.376 312.47C296.683 312.851 296.163 313.319 295.816 313.874V319.542C296.163 320.114 296.683 320.599 297.376 320.998C298.087 321.379 298.815 321.57 299.56 321.57ZM314.413 323.312C312.541 323.312 311.007 322.705 309.811 321.492C308.615 320.261 308.017 318.667 308.017 316.708C308.017 314.871 308.606 313.319 309.785 312.054C310.964 310.771 312.437 310.13 314.205 310.13C316.06 310.13 317.524 310.771 318.599 312.054C319.691 313.319 320.237 314.923 320.237 316.864V317.358H310.071C310.158 318.589 310.608 319.62 311.423 320.452C312.238 321.284 313.295 321.7 314.595 321.7C316.155 321.7 317.446 321.171 318.469 320.114L319.405 321.388C318.122 322.671 316.458 323.312 314.413 323.312ZM318.313 315.928C318.296 314.853 317.932 313.891 317.221 313.042C316.51 312.175 315.496 311.742 314.179 311.742C312.931 311.742 311.943 312.167 311.215 313.016C310.504 313.865 310.123 314.836 310.071 315.928H318.313ZM325.813 320.166C326.576 321.102 327.599 321.57 328.881 321.57C330.164 321.57 331.178 321.102 331.923 320.166C332.669 319.213 333.041 318.051 333.041 316.682C333.041 315.347 332.669 314.212 331.923 313.276C331.178 312.34 330.164 311.872 328.881 311.872C327.599 311.872 326.576 312.34 325.813 313.276C325.068 314.212 324.695 315.347 324.695 316.682C324.695 318.051 325.068 319.213 325.813 320.166ZM328.881 323.312C326.992 323.312 325.484 322.645 324.357 321.31C323.231 319.975 322.667 318.251 322.667 316.136C322.667 313.155 323.205 310.953 324.279 309.532C325.354 308.093 327.009 307.227 329.245 306.932C330.58 306.724 331.499 306.525 332.001 306.334C332.521 306.143 332.781 305.918 332.781 305.658H334.679C334.679 306.143 334.532 306.568 334.237 306.932C333.943 307.279 333.518 307.556 332.963 307.764C332.426 307.972 331.915 308.137 331.429 308.258C330.961 308.362 330.398 308.457 329.739 308.544C328.006 308.787 326.749 309.263 325.969 309.974C325.207 310.685 324.704 311.629 324.461 312.808C325.605 311.023 327.183 310.13 329.193 310.13C330.927 310.13 332.339 310.763 333.431 312.028C334.523 313.293 335.069 314.845 335.069 316.682C335.069 318.554 334.506 320.131 333.379 321.414C332.253 322.679 330.753 323.312 328.881 323.312ZM348.385 321.414C347.259 322.679 345.759 323.312 343.887 323.312C342.015 323.312 340.507 322.679 339.363 321.414C338.237 320.149 337.673 318.58 337.673 316.708C337.673 314.836 338.237 313.276 339.363 312.028C340.507 310.763 342.015 310.13 343.887 310.13C345.759 310.13 347.259 310.763 348.385 312.028C349.529 313.276 350.101 314.836 350.101 316.708C350.101 318.58 349.529 320.149 348.385 321.414ZM340.819 320.166C341.582 321.102 342.605 321.57 343.887 321.57C345.17 321.57 346.184 321.102 346.929 320.166C347.675 319.213 348.047 318.06 348.047 316.708C348.047 315.356 347.675 314.212 346.929 313.276C346.184 312.34 345.17 311.872 343.887 311.872C342.605 311.872 341.582 312.349 340.819 313.302C340.074 314.238 339.701 315.373 339.701 316.708C339.701 318.06 340.074 319.213 340.819 320.166ZM360.326 323H353.28V310.442H360.196C361.288 310.442 362.146 310.737 362.77 311.326C363.411 311.915 363.732 312.695 363.732 313.666C363.732 314.377 363.533 314.992 363.134 315.512C362.753 316.015 362.276 316.353 361.704 316.526C362.345 316.682 362.883 317.055 363.316 317.644C363.767 318.233 363.992 318.883 363.992 319.594C363.992 320.617 363.663 321.44 363.004 322.064C362.363 322.688 361.47 323 360.326 323ZM359.936 321.284C360.56 321.284 361.054 321.111 361.418 320.764C361.782 320.417 361.964 319.949 361.964 319.36C361.964 318.823 361.782 318.363 361.418 317.982C361.054 317.601 360.56 317.41 359.936 317.41H355.23V321.284H359.936ZM359.858 315.694C360.447 315.694 360.907 315.538 361.236 315.226C361.565 314.897 361.73 314.472 361.73 313.952C361.73 313.397 361.565 312.964 361.236 312.652C360.907 312.323 360.447 312.158 359.858 312.158H355.23V315.694H359.858ZM377.479 323H375.529V321.57C374.471 322.731 373.085 323.312 371.369 323.312C370.207 323.312 369.185 322.939 368.301 322.194C367.417 321.449 366.975 320.435 366.975 319.152C366.975 317.835 367.408 316.821 368.275 316.11C369.159 315.382 370.19 315.018 371.369 315.018C373.154 315.018 374.541 315.59 375.529 316.734V314.472C375.529 313.64 375.234 312.99 374.645 312.522C374.055 312.054 373.293 311.82 372.357 311.82C370.883 311.82 369.601 312.401 368.509 313.562L367.599 312.21C368.933 310.823 370.606 310.13 372.617 310.13C374.055 310.13 375.225 310.477 376.127 311.17C377.028 311.863 377.479 312.929 377.479 314.368V323ZM372.071 321.908C373.631 321.908 374.783 321.388 375.529 320.348V317.982C374.783 316.942 373.631 316.422 372.071 316.422C371.169 316.422 370.424 316.682 369.835 317.202C369.263 317.705 368.977 318.363 368.977 319.178C368.977 319.975 369.263 320.634 369.835 321.154C370.424 321.657 371.169 321.908 372.071 321.908ZM383.338 323H381.388V310.442H383.338V315.668H389.89V310.442H391.84V323H389.89V317.384H383.338V323ZM397.683 323H395.733V310.442H397.683V315.668H404.235V310.442H406.185V323H404.235V317.384H397.683V323ZM410.079 310.442H412.029V315.304H416.735C417.983 315.304 418.954 315.677 419.647 316.422C420.34 317.15 420.687 318.06 420.687 319.152C420.687 320.244 420.332 321.163 419.621 321.908C418.928 322.636 417.966 323 416.735 323H410.079V310.442ZM416.527 317.02H412.029V321.284H416.527C417.22 321.284 417.749 321.093 418.113 320.712C418.494 320.313 418.685 319.793 418.685 319.152C418.685 318.511 418.494 317.999 418.113 317.618C417.749 317.219 417.22 317.02 416.527 317.02ZM424.691 323H422.741V310.442H424.691V323ZM434.257 323.312C432.385 323.312 430.851 322.705 429.655 321.492C428.459 320.261 427.861 318.667 427.861 316.708C427.861 314.871 428.45 313.319 429.629 312.054C430.807 310.771 432.281 310.13 434.049 310.13C435.903 310.13 437.368 310.771 438.443 312.054C439.535 313.319 440.081 314.923 440.081 316.864V317.358H429.915C430.001 318.589 430.452 319.62 431.267 320.452C432.081 321.284 433.139 321.7 434.439 321.7C435.999 321.7 437.29 321.171 438.313 320.114L439.249 321.388C437.966 322.671 436.302 323.312 434.257 323.312ZM438.157 315.928C438.139 314.853 437.775 313.891 437.065 313.042C436.354 312.175 435.34 311.742 434.023 311.742C432.775 311.742 431.787 312.167 431.059 313.016C430.348 313.865 429.967 314.836 429.915 315.928H438.157ZM136.396 355.312C133.987 355.312 132.097 354.627 130.728 353.258L131.69 352.01C132.869 353.137 134.437 353.7 136.396 353.7C137.523 353.7 138.415 353.501 139.074 353.102C139.75 352.703 140.088 352.175 140.088 351.516C140.088 350.129 138.771 349.436 136.136 349.436H133.328V347.85H136.136C137.228 347.85 138.121 347.677 138.814 347.33C139.507 346.966 139.854 346.437 139.854 345.744C139.854 345.155 139.507 344.678 138.814 344.314C138.121 343.933 137.245 343.742 136.188 343.742C134.437 343.742 133.033 344.279 131.976 345.354L130.962 344.158C132.262 342.823 133.978 342.156 136.11 342.156C137.826 342.139 139.213 342.433 140.27 343.04C141.345 343.629 141.882 344.453 141.882 345.51C141.882 346.377 141.527 347.079 140.816 347.616C140.123 348.153 139.351 348.474 138.502 348.578C139.386 348.647 140.209 348.942 140.972 349.462C141.752 349.982 142.142 350.71 142.142 351.646C142.142 352.721 141.622 353.605 140.582 354.298C139.559 354.974 138.164 355.312 136.396 355.312ZM147.255 355H145.305V342.442H147.255V347.668H153.807V342.442H155.757V355H153.807V349.384H147.255V355ZM169.453 355H167.503V353.57C166.446 354.731 165.059 355.312 163.343 355.312C162.182 355.312 161.159 354.939 160.275 354.194C159.391 353.449 158.949 352.435 158.949 351.152C158.949 349.835 159.383 348.821 160.249 348.11C161.133 347.382 162.165 347.018 163.343 347.018C165.129 347.018 166.515 347.59 167.503 348.734V346.472C167.503 345.64 167.209 344.99 166.619 344.522C166.03 344.054 165.267 343.82 164.331 343.82C162.858 343.82 161.575 344.401 160.483 345.562L159.573 344.21C160.908 342.823 162.581 342.13 164.591 342.13C166.03 342.13 167.2 342.477 168.101 343.17C169.003 343.863 169.453 344.929 169.453 346.368V355ZM164.045 353.908C165.605 353.908 166.758 353.388 167.503 352.348V349.982C166.758 348.942 165.605 348.422 164.045 348.422C163.144 348.422 162.399 348.682 161.809 349.202C161.237 349.705 160.951 350.363 160.951 351.178C160.951 351.975 161.237 352.634 161.809 353.154C162.399 353.657 163.144 353.908 164.045 353.908ZM175.312 355H173.362V342.442H175.312V347.668H181.864V342.442H183.814V355H181.864V349.384H175.312V355ZM189.58 355H187.708V342.442H189.658V352.036L196.236 342.442H198.16V355H196.21V345.224L189.58 355ZM203.926 355H201.638L204.992 350.06C204.038 349.939 203.258 349.54 202.652 348.864C202.062 348.188 201.768 347.33 201.768 346.29C201.768 345.181 202.123 344.262 202.834 343.534C203.544 342.806 204.515 342.442 205.746 342.442H212.376V355H210.426V350.138H206.994L203.926 355ZM205.954 348.422H210.426V344.158H205.954C205.278 344.158 204.74 344.357 204.342 344.756C203.96 345.137 203.77 345.649 203.77 346.29C203.77 346.931 203.96 347.451 204.342 347.85C204.723 348.231 205.26 348.422 205.954 348.422ZM224.847 355H222.975V342.442H224.925V352.036L231.503 342.442H233.427V355H231.477V345.224L224.847 355ZM245.974 355H244.024V342.442H245.974V347.668H252.526V342.442H254.476V355H252.526V349.384H245.974V355ZM268.172 355H266.222V353.57C265.165 354.731 263.778 355.312 262.062 355.312C260.901 355.312 259.878 354.939 258.994 354.194C258.11 353.449 257.668 352.435 257.668 351.152C257.668 349.835 258.101 348.821 258.968 348.11C259.852 347.382 260.883 347.018 262.062 347.018C263.847 347.018 265.234 347.59 266.222 348.734V346.472C266.222 345.64 265.927 344.99 265.338 344.522C264.749 344.054 263.986 343.82 263.05 343.82C261.577 343.82 260.294 344.401 259.202 345.562L258.292 344.21C259.627 342.823 261.299 342.13 263.31 342.13C264.749 342.13 265.919 342.477 266.82 343.17C267.721 343.863 268.172 344.929 268.172 346.368V355ZM262.764 353.908C264.324 353.908 265.477 353.388 266.222 352.348V349.982C265.477 348.942 264.324 348.422 262.764 348.422C261.863 348.422 261.117 348.682 260.528 349.202C259.956 349.705 259.67 350.363 259.67 351.178C259.67 351.975 259.956 352.634 260.528 353.154C261.117 353.657 261.863 353.908 262.764 353.908ZM279.127 355H272.081V342.442H278.997C280.089 342.442 280.947 342.737 281.571 343.326C282.212 343.915 282.533 344.695 282.533 345.666C282.533 346.377 282.334 346.992 281.935 347.512C281.554 348.015 281.077 348.353 280.505 348.526C281.146 348.682 281.684 349.055 282.117 349.644C282.568 350.233 282.793 350.883 282.793 351.594C282.793 352.617 282.464 353.44 281.805 354.064C281.164 354.688 280.271 355 279.127 355ZM278.737 353.284C279.361 353.284 279.855 353.111 280.219 352.764C280.583 352.417 280.765 351.949 280.765 351.36C280.765 350.823 280.583 350.363 280.219 349.982C279.855 349.601 279.361 349.41 278.737 349.41H274.031V353.284H278.737ZM278.659 347.694C279.248 347.694 279.708 347.538 280.037 347.226C280.366 346.897 280.531 346.472 280.531 345.952C280.531 345.397 280.366 344.964 280.037 344.652C279.708 344.323 279.248 344.158 278.659 344.158H274.031V347.694H278.659ZM286.477 342.442H288.427V347.304H293.133C294.381 347.304 295.352 347.677 296.045 348.422C296.739 349.15 297.085 350.06 297.085 351.152C297.085 352.244 296.73 353.163 296.019 353.908C295.326 354.636 294.364 355 293.133 355H286.477V342.442ZM292.925 349.02H288.427V353.284H292.925C293.619 353.284 294.147 353.093 294.511 352.712C294.893 352.313 295.083 351.793 295.083 351.152C295.083 350.511 294.893 349.999 294.511 349.618C294.147 349.219 293.619 349.02 292.925 349.02ZM301.089 355H299.139V342.442H301.089V355ZM316.037 355H313.541L309.017 349.358L306.937 351.412V355H304.987V342.442H306.937V349.124L313.541 342.442H316.011L310.447 348.136L316.037 355ZM320.215 355H318.343V342.442H320.293V352.036L326.871 342.442H328.795V355H326.845V345.224L320.215 355ZM341.341 355H339.391V342.442H341.341V347.668H347.893V342.442H349.843V355H347.893V349.384H341.341V355ZM363.539 355H361.589V353.57C360.532 354.731 359.145 355.312 357.429 355.312C356.268 355.312 355.245 354.939 354.361 354.194C353.477 353.449 353.035 352.435 353.035 351.152C353.035 349.835 353.468 348.821 354.335 348.11C355.219 347.382 356.25 347.018 357.429 347.018C359.214 347.018 360.601 347.59 361.589 348.734V346.472C361.589 345.64 361.294 344.99 360.705 344.522C360.116 344.054 359.353 343.82 358.417 343.82C356.944 343.82 355.661 344.401 354.569 345.562L353.659 344.21C354.994 342.823 356.666 342.13 358.677 342.13C360.116 342.13 361.286 342.477 362.187 343.17C363.088 343.863 363.539 344.929 363.539 346.368V355ZM358.131 353.908C359.691 353.908 360.844 353.388 361.589 352.348V349.982C360.844 348.942 359.691 348.422 358.131 348.422C357.23 348.422 356.484 348.682 355.895 349.202C355.323 349.705 355.037 350.363 355.037 351.178C355.037 351.975 355.323 352.634 355.895 353.154C356.484 353.657 357.23 353.908 358.131 353.908ZM384.603 355H382.653V344.158H376.101V355H374.151V342.442H384.603V355ZM394.685 355.312C392.917 355.312 391.504 354.575 390.447 353.102V359.784H388.497V342.442H390.447V344.314C390.915 343.655 391.522 343.127 392.267 342.728C393.012 342.329 393.818 342.13 394.685 342.13C396.349 342.13 397.692 342.728 398.715 343.924C399.755 345.103 400.275 346.697 400.275 348.708C400.275 350.719 399.755 352.322 398.715 353.518C397.692 354.714 396.349 355.312 394.685 355.312ZM394.191 353.57C395.422 353.57 396.401 353.119 397.129 352.218C397.857 351.299 398.221 350.129 398.221 348.708C398.221 347.287 397.857 346.125 397.129 345.224C396.401 344.323 395.422 343.872 394.191 343.872C393.446 343.872 392.718 344.071 392.007 344.47C391.314 344.851 390.794 345.319 390.447 345.874V351.542C390.794 352.114 391.314 352.599 392.007 352.998C392.718 353.379 393.446 353.57 394.191 353.57ZM413.36 353.414C412.233 354.679 410.734 355.312 408.862 355.312C406.99 355.312 405.482 354.679 404.338 353.414C403.211 352.149 402.648 350.58 402.648 348.708C402.648 346.836 403.211 345.276 404.338 344.028C405.482 342.763 406.99 342.13 408.862 342.13C410.734 342.13 412.233 342.763 413.36 344.028C414.504 345.276 415.076 346.836 415.076 348.708C415.076 350.58 414.504 352.149 413.36 353.414ZM405.794 352.166C406.556 353.102 407.579 353.57 408.862 353.57C410.144 353.57 411.158 353.102 411.904 352.166C412.649 351.213 413.022 350.06 413.022 348.708C413.022 347.356 412.649 346.212 411.904 345.276C411.158 344.34 410.144 343.872 408.862 343.872C407.579 343.872 406.556 344.349 405.794 345.302C405.048 346.238 404.676 347.373 404.676 348.708C404.676 350.06 405.048 351.213 405.794 352.166ZM427.043 342.442V344.158H420.205V355H418.255V342.442H427.043ZM435.767 355.312C433.999 355.312 432.586 354.575 431.529 353.102V359.784H429.579V342.442H431.529V344.314C431.997 343.655 432.604 343.127 433.349 342.728C434.094 342.329 434.9 342.13 435.767 342.13C437.431 342.13 438.774 342.728 439.797 343.924C440.837 345.103 441.357 346.697 441.357 348.708C441.357 350.719 440.837 352.322 439.797 353.518C438.774 354.714 437.431 355.312 435.767 355.312ZM435.273 353.57C436.504 353.57 437.483 353.119 438.211 352.218C438.939 351.299 439.303 350.129 439.303 348.708C439.303 347.287 438.939 346.125 438.211 345.224C437.483 344.323 436.504 343.872 435.273 343.872C434.528 343.872 433.8 344.071 433.089 344.47C432.396 344.851 431.876 345.319 431.529 345.874V351.542C431.876 352.114 432.396 352.599 433.089 352.998C433.8 353.379 434.528 353.57 435.273 353.57ZM454.26 355H452.31V353.57C451.252 354.731 449.866 355.312 448.15 355.312C446.988 355.312 445.966 354.939 445.082 354.194C444.198 353.449 443.756 352.435 443.756 351.152C443.756 349.835 444.189 348.821 445.056 348.11C445.94 347.382 446.971 347.018 448.15 347.018C449.935 347.018 451.322 347.59 452.31 348.734V346.472C452.31 345.64 452.015 344.99 451.426 344.522C450.836 344.054 450.074 343.82 449.138 343.82C447.664 343.82 446.382 344.401 445.29 345.562L444.38 344.21C445.714 342.823 447.387 342.13 449.398 342.13C450.836 342.13 452.006 342.477 452.908 343.17C453.809 343.863 454.26 344.929 454.26 346.368V355ZM448.852 353.908C450.412 353.908 451.564 353.388 452.31 352.348V349.982C451.564 348.942 450.412 348.422 448.852 348.422C447.95 348.422 447.205 348.682 446.616 349.202C446.044 349.705 445.758 350.363 445.758 351.178C445.758 351.975 446.044 352.634 446.616 353.154C447.205 353.657 447.95 353.908 448.852 353.908ZM470.987 355H469.037V345.146L464.955 355H464.227L460.119 345.146V355H458.169V342.442H460.743L464.591 351.75L468.387 342.442H470.987V355ZM487.694 355H485.744V345.146L481.662 355H480.934L476.826 345.146V355H474.876V342.442H477.45L481.298 351.75L485.094 342.442H487.694V355ZM501.385 355H499.435V353.57C498.377 354.731 496.991 355.312 495.275 355.312C494.113 355.312 493.091 354.939 492.207 354.194C491.323 353.449 490.881 352.435 490.881 351.152C490.881 349.835 491.314 348.821 492.181 348.11C493.065 347.382 494.096 347.018 495.275 347.018C497.06 347.018 498.447 347.59 499.435 348.734V346.472C499.435 345.64 499.14 344.99 498.551 344.522C497.961 344.054 497.199 343.82 496.263 343.82C494.789 343.82 493.507 344.401 492.415 345.562L491.505 344.21C492.839 342.823 494.512 342.13 496.523 342.13C497.961 342.13 499.131 342.477 500.033 343.17C500.934 343.863 501.385 344.929 501.385 346.368V355ZM495.977 353.908C497.537 353.908 498.689 353.388 499.435 352.348V349.982C498.689 348.942 497.537 348.422 495.977 348.422C495.075 348.422 494.33 348.682 493.741 349.202C493.169 349.705 492.883 350.363 492.883 351.178C492.883 351.975 493.169 352.634 493.741 353.154C494.33 353.657 495.075 353.908 495.977 353.908ZM515.694 355H513.432L509.662 349.852L505.892 355H503.656L508.466 348.552L503.916 342.442H506.178L509.662 347.226L513.146 342.442H515.408L510.858 348.552L515.694 355ZM523.523 358.198V353.258C524.286 353.206 524.893 353.024 525.343 352.712C525.794 352.4 526.201 351.741 526.565 350.736C526.947 349.731 527.259 348.275 527.501 346.368L528.567 337.658H539.175V353.076H540.761V358.198H538.603V355H525.681V358.198H523.523ZM529.633 346.524C529.235 349.869 528.351 352.053 526.981 353.076H537.017V339.582H530.491L529.633 346.524ZM557.964 355H555.806V339.582H545.666V355H543.508V337.658H557.964V355ZM569.922 355.312C567.374 355.312 565.303 354.463 563.708 352.764C562.114 351.065 561.316 348.925 561.316 346.342C561.316 343.759 562.114 341.619 563.708 339.92C565.303 338.221 567.374 337.372 569.922 337.372C572.453 337.372 574.516 338.221 576.11 339.92C577.722 341.619 578.528 343.759 578.528 346.342C578.528 348.925 577.722 351.065 576.11 352.764C574.516 354.463 572.453 355.312 569.922 355.312ZM569.922 353.388C571.829 353.388 573.363 352.729 574.524 351.412C575.703 350.077 576.292 348.387 576.292 346.342C576.292 344.279 575.703 342.589 574.524 341.272C573.363 339.955 571.829 339.296 569.922 339.296C567.998 339.296 566.456 339.955 565.294 341.272C564.133 342.589 563.552 344.279 563.552 346.342C563.552 348.387 564.133 350.077 565.294 351.412C566.456 352.729 567.998 353.388 569.922 353.388ZM130.468 390.198V385.388C131.109 385.267 131.612 384.885 131.976 384.244C132.34 383.585 132.635 382.381 132.86 380.63L133.666 374.442H142.402V385.284H143.858V390.198H141.908V387H132.418V390.198H130.468ZM135.382 376.158L134.81 380.864C134.515 383.065 133.909 384.539 132.99 385.284H140.452V376.158H135.382ZM145.042 387.312V385.7C145.632 385.7 146.117 385.31 146.498 384.53C146.88 383.75 147.192 382.45 147.434 380.63L148.24 374.442H156.976V387H155.026V376.158H149.956L149.384 380.864C149.107 383.169 148.622 384.825 147.928 385.83C147.235 386.818 146.273 387.312 145.042 387.312ZM162.742 387H160.454L163.808 382.06C162.855 381.939 162.075 381.54 161.468 380.864C160.879 380.188 160.584 379.33 160.584 378.29C160.584 377.181 160.939 376.262 161.65 375.534C162.361 374.806 163.331 374.442 164.562 374.442H171.192V387H169.242V382.138H165.81L162.742 387ZM164.77 380.422H169.242V376.158H164.77C164.094 376.158 163.557 376.357 163.158 376.756C162.777 377.137 162.586 377.649 162.586 378.29C162.586 378.931 162.777 379.451 163.158 379.85C163.539 380.231 164.077 380.422 164.77 380.422ZM187.98 387.312C186.212 387.312 184.799 386.575 183.742 385.102V391.784H181.792V374.442H183.742V376.314C184.21 375.655 184.816 375.127 185.562 374.728C186.307 374.329 187.113 374.13 187.98 374.13C189.644 374.13 190.987 374.728 192.01 375.924C193.05 377.103 193.57 378.697 193.57 380.708C193.57 382.719 193.05 384.322 192.01 385.518C190.987 386.714 189.644 387.312 187.98 387.312ZM187.486 385.57C188.716 385.57 189.696 385.119 190.424 384.218C191.152 383.299 191.516 382.129 191.516 380.708C191.516 379.287 191.152 378.125 190.424 377.224C189.696 376.323 188.716 375.872 187.486 375.872C186.74 375.872 186.012 376.071 185.302 376.47C184.608 376.851 184.088 377.319 183.742 377.874V383.542C184.088 384.114 184.608 384.599 185.302 384.998C186.012 385.379 186.74 385.57 187.486 385.57ZM206.473 387H204.523V385.57C203.465 386.731 202.079 387.312 200.363 387.312C199.201 387.312 198.179 386.939 197.295 386.194C196.411 385.449 195.969 384.435 195.969 383.152C195.969 381.835 196.402 380.821 197.269 380.11C198.153 379.382 199.184 379.018 200.363 379.018C202.148 379.018 203.535 379.59 204.523 380.734V378.472C204.523 377.64 204.228 376.99 203.639 376.522C203.049 376.054 202.287 375.82 201.351 375.82C199.877 375.82 198.595 376.401 197.503 377.562L196.593 376.21C197.927 374.823 199.6 374.13 201.611 374.13C203.049 374.13 204.219 374.477 205.121 375.17C206.022 375.863 206.473 376.929 206.473 378.368V387ZM201.065 385.908C202.625 385.908 203.777 385.388 204.523 384.348V381.982C203.777 380.942 202.625 380.422 201.065 380.422C200.163 380.422 199.418 380.682 198.829 381.202C198.257 381.705 197.971 382.363 197.971 383.178C197.971 383.975 198.257 384.634 198.829 385.154C199.418 385.657 200.163 385.908 201.065 385.908ZM214.828 387.312C212.418 387.312 210.529 386.627 209.16 385.258L210.122 384.01C211.3 385.137 212.869 385.7 214.828 385.7C215.954 385.7 216.847 385.501 217.506 385.102C218.182 384.703 218.52 384.175 218.52 383.516C218.52 382.129 217.202 381.436 214.568 381.436H211.76V379.85H214.568C215.66 379.85 216.552 379.677 217.246 379.33C217.939 378.966 218.286 378.437 218.286 377.744C218.286 377.155 217.939 376.678 217.246 376.314C216.552 375.933 215.677 375.742 214.62 375.742C212.869 375.742 211.465 376.279 210.408 377.354L209.394 376.158C210.694 374.823 212.41 374.156 214.542 374.156C216.258 374.139 217.644 374.433 218.702 375.04C219.776 375.629 220.314 376.453 220.314 377.51C220.314 378.377 219.958 379.079 219.248 379.616C218.554 380.153 217.783 380.474 216.934 380.578C217.818 380.647 218.641 380.942 219.404 381.462C220.184 381.982 220.574 382.71 220.574 383.646C220.574 384.721 220.054 385.605 219.014 386.298C217.991 386.974 216.596 387.312 214.828 387.312ZM230.783 387H223.737V374.442H230.653C231.745 374.442 232.603 374.737 233.227 375.326C233.868 375.915 234.189 376.695 234.189 377.666C234.189 378.377 233.99 378.992 233.591 379.512C233.21 380.015 232.733 380.353 232.161 380.526C232.802 380.682 233.34 381.055 233.773 381.644C234.224 382.233 234.449 382.883 234.449 383.594C234.449 384.617 234.12 385.44 233.461 386.064C232.82 386.688 231.927 387 230.783 387ZM230.393 385.284C231.017 385.284 231.511 385.111 231.875 384.764C232.239 384.417 232.421 383.949 232.421 383.36C232.421 382.823 232.239 382.363 231.875 381.982C231.511 381.601 231.017 381.41 230.393 381.41H225.687V385.284H230.393ZM230.315 379.694C230.904 379.694 231.364 379.538 231.693 379.226C232.022 378.897 232.187 378.472 232.187 377.952C232.187 377.397 232.022 376.964 231.693 376.652C231.364 376.323 230.904 376.158 230.315 376.158H225.687V379.694H230.315ZM240.006 387H238.134V374.442H240.084V384.036L246.662 374.442H248.586V387H246.636V377.224L240.006 387ZM256.717 387H254.767V376.158H251.127V374.442H260.383V376.158H256.717V387ZM264.812 387H262.94V374.442H264.89V384.036L271.468 374.442H273.392V387H271.442V377.224L264.812 387ZM279.158 387H276.87L280.224 382.06C279.271 381.939 278.491 381.54 277.884 380.864C277.295 380.188 277 379.33 277 378.29C277 377.181 277.355 376.262 278.066 375.534C278.777 374.806 279.747 374.442 280.978 374.442H287.608V387H285.658V382.138H282.226L279.158 387ZM281.186 380.422H285.658V376.158H281.186C280.51 376.158 279.973 376.357 279.574 376.756C279.193 377.137 279.002 377.649 279.002 378.29C279.002 378.931 279.193 379.451 279.574 379.85C279.955 380.231 280.493 380.422 281.186 380.422ZM303.746 387.312C301.891 387.312 300.383 386.688 299.222 385.44C298.06 384.175 297.48 382.597 297.48 380.708C297.48 378.819 298.06 377.25 299.222 376.002C300.383 374.754 301.891 374.13 303.746 374.13C305.687 374.13 307.221 374.858 308.348 376.314L307.048 377.51C306.25 376.418 305.184 375.872 303.85 375.872C302.532 375.872 301.475 376.323 300.678 377.224C299.898 378.125 299.508 379.287 299.508 380.708C299.508 382.129 299.898 383.299 300.678 384.218C301.475 385.119 302.532 385.57 303.85 385.57C305.167 385.57 306.233 385.024 307.048 383.932L308.348 385.128C307.221 386.584 305.687 387.312 303.746 387.312ZM318.127 387H311.081V374.442H317.997C319.089 374.442 319.947 374.737 320.571 375.326C321.212 375.915 321.533 376.695 321.533 377.666C321.533 378.377 321.334 378.992 320.935 379.512C320.554 380.015 320.077 380.353 319.505 380.526C320.146 380.682 320.684 381.055 321.117 381.644C321.568 382.233 321.793 382.883 321.793 383.594C321.793 384.617 321.464 385.44 320.805 386.064C320.164 386.688 319.271 387 318.127 387ZM317.737 385.284C318.361 385.284 318.855 385.111 319.219 384.764C319.583 384.417 319.765 383.949 319.765 383.36C319.765 382.823 319.583 382.363 319.219 381.982C318.855 381.601 318.361 381.41 317.737 381.41H313.031V385.284H317.737ZM317.659 379.694C318.248 379.694 318.708 379.538 319.037 379.226C319.366 378.897 319.531 378.472 319.531 377.952C319.531 377.397 319.366 376.964 319.037 376.652C318.708 376.323 318.248 376.158 317.659 376.158H313.031V379.694H317.659ZM335.461 385.414C334.335 386.679 332.835 387.312 330.963 387.312C329.091 387.312 327.583 386.679 326.439 385.414C325.313 384.149 324.749 382.58 324.749 380.708C324.749 378.836 325.313 377.276 326.439 376.028C327.583 374.763 329.091 374.13 330.963 374.13C332.835 374.13 334.335 374.763 335.461 376.028C336.605 377.276 337.177 378.836 337.177 380.708C337.177 382.58 336.605 384.149 335.461 385.414ZM327.895 384.166C328.658 385.102 329.681 385.57 330.963 385.57C332.246 385.57 333.26 385.102 334.005 384.166C334.751 383.213 335.123 382.06 335.123 380.708C335.123 379.356 334.751 378.212 334.005 377.276C333.26 376.34 332.246 375.872 330.963 375.872C329.681 375.872 328.658 376.349 327.895 377.302C327.15 378.238 326.777 379.373 326.777 380.708C326.777 382.06 327.15 383.213 327.895 384.166ZM346.024 387.312C344.152 387.312 342.618 386.705 341.422 385.492C340.226 384.261 339.628 382.667 339.628 380.708C339.628 378.871 340.218 377.319 341.396 376.054C342.575 374.771 344.048 374.13 345.816 374.13C347.671 374.13 349.136 374.771 350.21 376.054C351.302 377.319 351.848 378.923 351.848 380.864V381.358H341.682C341.769 382.589 342.22 383.62 343.034 384.452C343.849 385.284 344.906 385.7 346.206 385.7C347.766 385.7 349.058 385.171 350.08 384.114L351.016 385.388C349.734 386.671 348.07 387.312 346.024 387.312ZM349.924 379.928C349.907 378.853 349.543 377.891 348.832 377.042C348.122 376.175 347.108 375.742 345.79 375.742C344.542 375.742 343.554 376.167 342.826 377.016C342.116 377.865 341.734 378.836 341.682 379.928H349.924ZM356.879 387H355.007V374.442H356.957V384.036L363.535 374.442H365.459V387H363.509V377.224L356.879 387ZM364.783 370.724C363.656 372.249 362.139 373.012 360.233 373.012C358.343 373.012 356.818 372.249 355.657 370.724L356.619 369.892C357.52 371.14 358.725 371.764 360.233 371.764C361.758 371.764 362.954 371.14 363.821 369.892L364.783 370.724ZM387.105 387H384.609L380.085 381.358L378.005 383.412V387H376.055V374.442H378.005V381.124L384.609 374.442H387.079L381.515 380.136L387.105 387ZM399.213 387H397.263V385.57C396.206 386.731 394.819 387.312 393.103 387.312C391.942 387.312 390.919 386.939 390.035 386.194C389.151 385.449 388.709 384.435 388.709 383.152C388.709 381.835 389.142 380.821 390.009 380.11C390.893 379.382 391.924 379.018 393.103 379.018C394.888 379.018 396.275 379.59 397.263 380.734V378.472C397.263 377.64 396.968 376.99 396.379 376.522C395.79 376.054 395.027 375.82 394.091 375.82C392.618 375.82 391.335 376.401 390.243 377.562L389.333 376.21C390.668 374.823 392.34 374.13 394.351 374.13C395.79 374.13 396.96 374.477 397.861 375.17C398.762 375.863 399.213 376.929 399.213 378.368V387ZM393.805 385.908C395.365 385.908 396.518 385.388 397.263 384.348V381.982C396.518 380.942 395.365 380.422 393.805 380.422C392.904 380.422 392.158 380.682 391.569 381.202C390.997 381.705 390.711 382.363 390.711 383.178C390.711 383.975 390.997 384.634 391.569 385.154C392.158 385.657 392.904 385.908 393.805 385.908ZM409.31 387.312C407.542 387.312 406.129 386.575 405.072 385.102V391.784H403.122V374.442H405.072V376.314C405.54 375.655 406.147 375.127 406.892 374.728C407.637 374.329 408.443 374.13 409.31 374.13C410.974 374.13 412.317 374.728 413.34 375.924C414.38 377.103 414.9 378.697 414.9 380.708C414.9 382.719 414.38 384.322 413.34 385.518C412.317 386.714 410.974 387.312 409.31 387.312ZM408.816 385.57C410.047 385.57 411.026 385.119 411.754 384.218C412.482 383.299 412.846 382.129 412.846 380.708C412.846 379.287 412.482 378.125 411.754 377.224C411.026 376.323 410.047 375.872 408.816 375.872C408.071 375.872 407.343 376.071 406.632 376.47C405.939 376.851 405.419 377.319 405.072 377.874V383.542C405.419 384.114 405.939 384.599 406.632 384.998C407.343 385.379 408.071 385.57 408.816 385.57ZM418.001 374.442H419.951V379.304H424.657C425.905 379.304 426.875 379.677 427.569 380.422C428.262 381.15 428.609 382.06 428.609 383.152C428.609 384.244 428.253 385.163 427.543 385.908C426.849 386.636 425.887 387 424.657 387H418.001V374.442ZM424.449 381.02H419.951V385.284H424.449C425.142 385.284 425.671 385.093 426.035 384.712C426.416 384.313 426.607 383.793 426.607 383.152C426.607 382.511 426.416 381.999 426.035 381.618C425.671 381.219 425.142 381.02 424.449 381.02ZM437.253 387.312C435.381 387.312 433.847 386.705 432.651 385.492C431.455 384.261 430.857 382.667 430.857 380.708C430.857 378.871 431.446 377.319 432.625 376.054C433.803 374.771 435.277 374.13 437.045 374.13C438.899 374.13 440.364 374.771 441.439 376.054C442.531 377.319 443.077 378.923 443.077 380.864V381.358H432.911C432.997 382.589 433.448 383.62 434.263 384.452C435.077 385.284 436.135 385.7 437.435 385.7C438.995 385.7 440.286 385.171 441.309 384.114L442.245 385.388C440.962 386.671 439.298 387.312 437.253 387.312ZM441.153 379.928C441.135 378.853 440.771 377.891 440.061 377.042C439.35 376.175 438.336 375.742 437.019 375.742C435.771 375.742 434.783 376.167 434.055 377.016C433.344 377.865 432.963 378.836 432.911 379.928H441.153ZM452.423 387.312C450.655 387.312 449.242 386.575 448.185 385.102V391.784H446.235V374.442H448.185V376.314C448.653 375.655 449.26 375.127 450.005 374.728C450.75 374.329 451.556 374.13 452.423 374.13C454.087 374.13 455.43 374.728 456.453 375.924C457.493 377.103 458.013 378.697 458.013 380.708C458.013 382.719 457.493 384.322 456.453 385.518C455.43 386.714 454.087 387.312 452.423 387.312ZM451.929 385.57C453.16 385.57 454.139 385.119 454.867 384.218C455.595 383.299 455.959 382.129 455.959 380.708C455.959 379.287 455.595 378.125 454.867 377.224C454.139 376.323 453.16 375.872 451.929 375.872C451.184 375.872 450.456 376.071 449.745 376.47C449.052 376.851 448.532 377.319 448.185 377.874V383.542C448.532 384.114 449.052 384.599 449.745 384.998C450.456 385.379 451.184 385.57 451.929 385.57ZM461.114 374.442H463.064V379.304H467.77C469.018 379.304 469.989 379.677 470.682 380.422C471.375 381.15 471.722 382.06 471.722 383.152C471.722 384.244 471.367 385.163 470.656 385.908C469.963 386.636 469.001 387 467.77 387H461.114V374.442ZM467.562 381.02H463.064V385.284H467.562C468.255 385.284 468.784 385.093 469.148 384.712C469.529 384.313 469.72 383.793 469.72 383.152C469.72 382.511 469.529 381.999 469.148 381.618C468.784 381.219 468.255 381.02 467.562 381.02ZM475.726 387H473.776V374.442H475.726V387Z" fill="black"/>
<path d="M1016.14 302.123V405.938L1106.05 457.832V354.045L1016.14 302.123Z" fill="#64B2FF" stroke="black" stroke-linecap="round" stroke-linejoin="round"/>
<path d="M1106.05 354.045V457.832L1195.95 405.938V302.123L1106.05 354.045Z" fill="#F25F74" stroke="black" stroke-linecap="round" stroke-linejoin="round"/>
<path d="M1016.14 302.123L1106.05 354.045L1195.95 302.123L1106.05 250.229L1016.14 302.123Z" fill="white" stroke="black" stroke-linecap="round" stroke-linejoin="round"/>
<path d="M1110.42 261.567V264.416C1110.42 266.002 1108.46 267.265 1106.05 267.265C1103.64 267.265 1101.68 265.983 1101.68 264.416V261.567H1110.42Z" fill="white" stroke="black" stroke-linecap="round" stroke-linejoin="round"/>
<path d="M1106.05 264.435C1108.46 264.435 1110.42 263.151 1110.42 261.567C1110.42 259.984 1108.46 258.7 1106.05 258.7C1103.64 258.7 1101.68 259.984 1101.68 261.567C1101.68 263.151 1103.64 264.435 1106.05 264.435Z" fill="white" stroke="black" stroke-linecap="round" stroke-linejoin="round"/>
<path d="M1110.42 339.83V342.679C1110.42 344.255 1108.46 345.527 1106.05 345.527C1103.64 345.527 1101.68 344.236 1101.68 342.679V339.83H1110.42Z" fill="white" stroke="black" stroke-linecap="round" stroke-linejoin="round"/>
<path d="M1106.05 342.697C1108.46 342.697 1110.42 341.414 1110.42 339.83C1110.42 338.246 1108.46 336.962 1106.05 336.962C1103.64 336.962 1101.68 338.246 1101.68 339.83C1101.68 341.414 1103.64 342.697 1106.05 342.697Z" fill="white" stroke="black" stroke-linecap="round" stroke-linejoin="round"/>
<path d="M1041.83 300.689V303.538C1041.83 305.124 1039.87 306.386 1037.45 306.386C1035.03 306.386 1033.08 305.105 1033.08 303.538V300.689H1041.83Z" fill="white" stroke="black" stroke-linecap="round" stroke-linejoin="round"/>
<path d="M1037.45 303.557C1039.87 303.557 1041.82 302.273 1041.82 300.689C1041.82 299.105 1039.87 297.822 1037.45 297.822C1035.04 297.822 1033.08 299.105 1033.08 300.689C1033.08 302.273 1035.04 303.557 1037.45 303.557Z" fill="white" stroke="black" stroke-linecap="round" stroke-linejoin="round"/>
<path d="M1179.01 300.689V303.538C1179.01 305.124 1177.06 306.386 1174.64 306.386C1172.23 306.386 1170.27 305.105 1170.27 303.538V300.689H1179.01Z" fill="white" stroke="black" stroke-linecap="round" stroke-linejoin="round"/>
<path d="M1174.65 303.557C1177.06 303.557 1179.01 302.273 1179.01 300.689C1179.01 299.105 1177.06 297.822 1174.65 297.822C1172.23 297.822 1170.28 299.105 1170.28 300.689C1170.28 302.273 1172.23 303.557 1174.65 303.557Z" fill="white" stroke="black" stroke-linecap="round" stroke-linejoin="round"/>
<path d="M836.345 302.123V405.938L926.25 457.832V354.045L836.345 302.123Z" fill="#64B2FF" stroke="black" stroke-linecap="round" stroke-linejoin="round"/>
<path d="M926.25 354.045V457.832L1016.14 405.938V302.123L926.25 354.045Z" fill="#F25F74" stroke="black" stroke-linecap="round" stroke-linejoin="round"/>
<path d="M836.345 302.123L926.25 354.045L1016.14 302.123L926.25 250.229L836.345 302.123Z" fill="white" stroke="black" stroke-linecap="round" stroke-linejoin="round"/>
<path d="M930.618 261.567V264.416C930.618 266.002 928.662 267.265 926.25 267.265C923.838 267.265 921.872 265.983 921.872 264.416V261.567H930.618Z" fill="white" stroke="black" stroke-linecap="round" stroke-linejoin="round"/>
<path d="M926.25 264.435C928.662 264.435 930.618 263.151 930.618 261.567C930.618 259.984 928.662 258.7 926.25 258.7C923.837 258.7 921.882 259.984 921.882 261.567C921.882 263.151 923.837 264.435 926.25 264.435Z" fill="white" stroke="black" stroke-linecap="round" stroke-linejoin="round"/>
<path d="M930.618 339.83V342.679C930.618 344.255 928.662 345.527 926.25 345.527C923.838 345.527 921.872 344.236 921.872 342.679V339.83H930.618Z" fill="white" stroke="black" stroke-linecap="round" stroke-linejoin="round"/>
<path d="M926.25 342.697C928.662 342.697 930.618 341.414 930.618 339.83C930.618 338.246 928.662 336.962 926.25 336.962C923.837 336.962 921.882 338.246 921.882 339.83C921.882 341.414 923.837 342.697 926.25 342.697Z" fill="white" stroke="black" stroke-linecap="round" stroke-linejoin="round"/>
<path d="M861.993 300.689V303.538C861.993 305.124 860.037 306.386 857.625 306.386C855.213 306.386 853.257 305.105 853.257 303.538V300.689H861.993Z" fill="white" stroke="black" stroke-linecap="round" stroke-linejoin="round"/>
<path d="M857.654 303.557C860.066 303.557 862.022 302.273 862.022 300.689C862.022 299.105 860.066 297.822 857.654 297.822C855.241 297.822 853.286 299.105 853.286 300.689C853.286 302.273 855.241 303.557 857.654 303.557Z" fill="white" stroke="black" stroke-linecap="round" stroke-linejoin="round"/>
<path d="M999.204 300.689V303.538C999.204 305.124 997.248 306.386 994.836 306.386C992.424 306.386 990.468 305.105 990.468 303.538V300.689H999.204Z" fill="white" stroke="black" stroke-linecap="round" stroke-linejoin="round"/>
<path d="M994.836 303.557C997.249 303.557 999.204 302.273 999.204 300.689C999.204 299.105 997.249 297.822 994.836 297.822C992.424 297.822 990.468 299.105 990.468 300.689C990.468 302.273 992.424 303.557 994.836 303.557Z" fill="white" stroke="black" stroke-linecap="round" stroke-linejoin="round"/>
<path d="M926.25 146.414V250.23L1016.14 302.123V198.336L926.25 146.414Z" fill="#FFDB7C" stroke="black" stroke-linecap="round" stroke-linejoin="round"/>
<path d="M1016.14 198.336V302.123L1106.05 250.23V146.414L1016.14 198.336Z" fill="#64B2FF" stroke="black" stroke-linecap="round" stroke-linejoin="round"/>
<path d="M926.25 146.414L1016.14 198.336L1106.05 146.414L1016.14 94.5209L926.25 146.414Z" fill="white" stroke="black" stroke-linecap="round" stroke-linejoin="round"/>
<path d="M1020.57 105.859V108.707C1020.57 110.293 1018.61 111.556 1016.19 111.556C1013.77 111.556 1011.82 110.274 1011.82 108.707V105.859H1020.57Z" fill="white" stroke="black" stroke-linecap="round" stroke-linejoin="round"/>
<path d="M1016.14 108.726C1018.56 108.726 1020.51 107.442 1020.51 105.859C1020.51 104.275 1018.56 102.991 1016.14 102.991C1013.73 102.991 1011.78 104.275 1011.78 105.859C1011.78 107.442 1013.73 108.726 1016.14 108.726Z" fill="white" stroke="black" stroke-linecap="round" stroke-linejoin="round"/>
<path d="M1020.57 184.131V186.979C1020.57 188.556 1018.61 189.828 1016.19 189.828C1013.77 189.828 1011.82 188.537 1011.82 186.979V184.131H1020.57Z" fill="white" stroke="black" stroke-linecap="round" stroke-linejoin="round"/>
<path d="M1016.14 186.998C1018.56 186.998 1020.51 185.714 1020.51 184.131C1020.51 182.547 1018.56 181.263 1016.14 181.263C1013.73 181.263 1011.78 182.547 1011.78 184.131C1011.78 185.714 1013.73 186.998 1016.14 186.998Z" fill="white" stroke="black" stroke-linecap="round" stroke-linejoin="round"/>
<path d="M951.926 144.98V147.829C951.926 149.415 949.97 150.678 947.558 150.678C945.146 150.678 943.18 149.396 943.18 147.829V144.98H951.926Z" fill="white" stroke="black" stroke-linecap="round" stroke-linejoin="round"/>
<path d="M947.558 147.848C949.97 147.848 951.926 146.564 951.926 144.98C951.926 143.397 949.97 142.113 947.558 142.113C945.145 142.113 943.19 143.397 943.19 144.98C943.19 146.564 945.145 147.848 947.558 147.848Z" fill="white" stroke="black" stroke-linecap="round" stroke-linejoin="round"/>
<path d="M1089.11 144.98V147.829C1089.11 149.415 1087.15 150.678 1084.74 150.678C1082.33 150.678 1080.36 149.396 1080.36 147.829V144.98H1089.11Z" fill="white" stroke="black" stroke-linecap="round" stroke-linejoin="round"/>
<path d="M1084.74 147.848C1087.15 147.848 1089.11 146.564 1089.11 144.98C1089.11 143.397 1087.15 142.113 1084.74 142.113C1082.33 142.113 1080.37 143.397 1080.37 144.98C1080.37 146.564 1082.33 147.848 1084.74 147.848Z" fill="white" stroke="black" stroke-linecap="round" stroke-linejoin="round"/>
<path d="M816.671 211.07C816.671 211.193 816.671 211.317 816.671 211.44C816.728 213.662 818.57 214.403 820.83 213.092L894.468 170.581C896.728 169.27 898.618 166.374 898.627 164.105C898.627 155.502 892.237 152.083 883.937 155.739C883.558 143.775 873.616 139.853 861.404 146.861C850.959 152.919 842.1 165.168 839.564 176.297C837.936 176.463 836.397 177.126 835.159 178.196C832.31 180.446 830.126 184.235 830.002 187.255C829.975 187.821 830.035 188.388 830.183 188.936C822.662 193.712 816.671 203.407 816.671 211.07Z" fill="white" stroke="black" stroke-linecap="round" stroke-linejoin="round"/>
<path d="M1146.8 114.215C1146.81 114.287 1146.81 114.36 1146.8 114.433C1146.8 115.753 1145.67 116.19 1144.33 115.383L1100.57 90.1813C1099.89 89.7796 1099.32 89.2282 1098.89 88.5696C1098.47 87.9111 1098.19 87.163 1098.1 86.3831C1098.1 81.2649 1101.9 79.2424 1106.83 81.4074C1107.06 74.3427 1112.97 71.9878 1120.23 76.1753C1126.64 80.1268 1131.29 86.3978 1133.2 93.6852C1134.16 93.786 1135.07 94.1804 1135.81 94.8152C1136.65 95.463 1137.35 96.2718 1137.88 97.1944C1138.41 98.1171 1138.75 99.1352 1138.87 100.19C1138.89 100.525 1138.85 100.861 1138.77 101.187C1143.24 103.95 1146.8 109.704 1146.8 114.215Z" fill="white" stroke="black" stroke-linecap="round" stroke-linejoin="round"/>
<path opacity="0.2" d="M965.799 137.526L1012.33 164.37C1013.5 165.046 1014.82 165.402 1016.17 165.402C1017.52 165.402 1018.85 165.046 1020.02 164.37L1066.55 137.526C1067.13 137.188 1067.61 136.703 1067.95 136.12C1068.28 135.536 1068.46 134.876 1068.46 134.203C1068.46 133.53 1068.28 132.869 1067.95 132.286C1067.61 131.703 1067.13 131.218 1066.55 130.879L1020.02 104.035C1018.85 103.359 1017.52 103.003 1016.17 103.003C1014.82 103.003 1013.5 103.359 1012.33 104.035L965.799 130.879C965.217 131.218 964.735 131.703 964.4 132.286C964.065 132.869 963.888 133.53 963.888 134.203C963.888 134.876 964.065 135.536 964.4 136.12C964.735 136.703 965.217 137.188 965.799 137.526Z" fill="black"/>
<path d="M1037.59 162.139L1050.82 146.861V169.783L1037.59 162.139Z" fill="#FFDB7C" stroke="black" stroke-linecap="round" stroke-linejoin="round"/>
<path d="M1064.07 162.139L1050.82 146.861V169.783L1064.07 162.139Z" fill="#FFDB7C" stroke="black" stroke-linecap="round" stroke-linejoin="round"/>
<path d="M971.354 103.684V131.468C971.357 132.298 971.578 133.113 971.995 133.831C972.411 134.549 973.009 135.146 973.728 135.561L1011.51 157.401C1012.95 158.241 1014.59 158.683 1016.26 158.683C1017.93 158.683 1019.56 158.241 1021.01 157.401L1058.79 135.561C1059.51 135.144 1060.1 134.548 1060.52 133.83C1060.93 133.112 1061.15 132.297 1061.15 131.468V103.684C1061.15 102.198 1060.56 100.773 1059.51 99.7226C1058.46 98.6719 1057.04 98.0817 1055.55 98.0817H976.966C975.479 98.0817 974.053 98.6716 973.001 99.722C971.949 100.772 971.356 102.197 971.354 103.684Z" fill="#64B2FF" stroke="black" stroke-linecap="round" stroke-linejoin="round"/>
<path style="mix-blend-mode:multiply" d="M1061.13 103.684V131.468C1061.12 132.297 1060.9 133.112 1060.49 133.83C1060.07 134.548 1059.48 135.144 1058.76 135.561L1023.85 155.701C1023.07 156.144 1022.2 156.376 1021.31 156.375C1020.42 156.373 1019.55 156.138 1018.78 155.693C1018.01 155.247 1017.37 154.607 1016.93 153.837C1016.48 153.067 1016.25 152.194 1016.25 151.304V98.0721H1055.52C1056.26 98.0721 1056.99 98.2174 1057.67 98.4995C1058.35 98.7816 1058.97 99.1952 1059.49 99.7164C1060.01 100.238 1060.42 100.856 1060.7 101.537C1060.98 102.218 1061.13 102.948 1061.13 103.684Z" fill="url(#paint0_linear_652_2381)"/>
<path d="M1077.33 94.9292L1020.97 62.3973C1019.52 61.5639 1017.89 61.1251 1016.22 61.1251C1014.55 61.1251 1012.92 61.5639 1011.47 62.3973L955.154 94.9292H951.964V99.5061C951.959 100.337 952.176 101.153 952.592 101.873C953.007 102.592 953.606 103.188 954.328 103.599L1011.51 136.615C1012.95 137.448 1014.59 137.887 1016.26 137.887C1017.93 137.887 1019.56 137.448 1021.01 136.615L1078.18 103.599C1078.9 103.188 1079.5 102.592 1079.92 101.873C1080.33 101.153 1080.55 100.337 1080.54 99.5061V94.9292H1077.33Z" fill="white" stroke="black" stroke-linecap="round" stroke-linejoin="round"/>
<path d="M954.328 99.0218L1011.51 132.038C1012.95 132.871 1014.59 133.31 1016.26 133.31C1017.93 133.31 1019.56 132.871 1021.01 132.038L1078.15 99.0218C1078.87 98.6032 1079.46 98.0047 1079.87 97.2859C1080.28 96.5671 1080.5 95.753 1080.5 94.9244C1080.5 94.0958 1080.28 93.2817 1079.87 92.5629C1079.46 91.8441 1078.87 91.2457 1078.15 90.8271L1020.97 57.8204C1019.52 56.987 1017.89 56.5482 1016.22 56.5482C1014.55 56.5482 1012.92 56.987 1011.47 57.8204L954.328 90.8271C953.613 91.2457 953.02 91.8441 952.608 92.5629C952.196 93.2817 951.979 94.0958 951.979 94.9244C951.979 95.753 952.196 96.5671 952.608 97.2859C953.02 98.0047 953.613 98.6032 954.328 99.0218Z" fill="#64B2FF" stroke="black" stroke-linecap="round" stroke-linejoin="round"/>
<path d="M1080.52 94.9292V99.5061C1080.53 100.336 1080.32 101.152 1079.9 101.872C1079.49 102.591 1078.89 103.187 1078.17 103.599L1020.97 136.615C1020.39 136.953 1019.77 137.227 1019.14 137.431C1018.8 137.529 1018.46 137.548 1018.12 137.487C1017.78 137.426 1017.46 137.287 1017.18 137.08C1016.9 136.874 1016.68 136.606 1016.52 136.298C1016.37 135.989 1016.29 135.649 1016.29 135.304C1016.28 134.797 1016.45 134.303 1016.77 133.908C1017.09 133.513 1017.54 133.241 1018.03 133.139C1019.08 132.942 1020.08 132.573 1021.01 132.047L1078.16 99.0218C1078.88 98.6115 1079.48 98.0159 1079.9 97.2966C1080.31 96.5772 1080.53 95.76 1080.52 94.9292Z" fill="url(#paint1_linear_652_2381)"/>
<path d="M954.328 99.0218L1011.51 132.038C1012.95 132.871 1014.59 133.31 1016.26 133.31C1017.93 133.31 1019.56 132.871 1021.01 132.038L1078.15 99.0218C1078.87 98.6032 1079.46 98.0047 1079.87 97.2859C1080.28 96.5671 1080.5 95.753 1080.5 94.9244C1080.5 94.0958 1080.28 93.2817 1079.87 92.5629C1079.46 91.8441 1078.87 91.2457 1078.15 90.8271L1020.97 57.8204C1019.52 56.987 1017.89 56.5482 1016.22 56.5482C1014.55 56.5482 1012.92 56.987 1011.47 57.8204L954.328 90.8271C953.613 91.2457 953.02 91.8441 952.608 92.5629C952.196 93.2817 951.979 94.0958 951.979 94.9244C951.979 95.753 952.196 96.5671 952.608 97.2859C953.02 98.0047 953.613 98.6032 954.328 99.0218Z" fill="#64B2FF" stroke="black" stroke-linecap="round" stroke-linejoin="round"/>
<path d="M1080.52 94.9292V99.5061C1080.51 100.335 1080.29 101.149 1079.88 101.868C1079.46 102.586 1078.87 103.182 1078.15 103.599L1020.97 136.615C1019.52 137.448 1017.89 137.887 1016.22 137.887C1014.55 137.887 1012.92 137.448 1011.47 136.615L954.328 103.599C953.606 103.188 953.007 102.592 952.592 101.873C952.176 101.153 951.959 100.337 951.964 99.5061V94.9292C951.96 95.7584 952.177 96.5736 952.593 97.2912C953.008 98.0087 953.607 98.6028 954.328 99.0123L1011.51 132.047C1012.95 132.881 1014.59 133.32 1016.26 133.32C1017.93 133.32 1019.56 132.881 1021.01 132.047L1078.15 99.0218C1078.87 98.61 1079.47 98.0141 1079.89 97.2951C1080.3 96.576 1080.52 95.7596 1080.52 94.9292Z" stroke="black" stroke-linecap="round" stroke-linejoin="round"/>
<path d="M1050.82 150.497C1050.32 150.497 1049.84 150.297 1049.48 149.941C1049.12 149.585 1048.92 149.102 1048.92 148.598V118.412C1048.93 117.642 1048.73 116.886 1048.34 116.219C1047.96 115.552 1047.41 114.998 1046.74 114.614L1015.45 96.5719C1015.04 96.3091 1014.74 95.8968 1014.63 95.421C1014.51 94.9452 1014.58 94.4429 1014.83 94.0188C1015.07 93.5947 1015.47 93.2818 1015.94 93.1453C1016.41 93.0088 1016.92 93.0594 1017.35 93.2864L1048.64 111.328C1049.87 112.047 1050.9 113.077 1051.61 114.314C1052.32 115.552 1052.7 116.955 1052.7 118.383V148.579C1052.71 148.829 1052.66 149.076 1052.57 149.307C1052.47 149.539 1052.33 149.75 1052.16 149.928C1051.99 150.106 1051.78 150.248 1051.55 150.346C1051.32 150.443 1051.07 150.495 1050.82 150.497Z" fill="white" stroke="black" stroke-linecap="round" stroke-linejoin="round"/>
<path d="M1050.82 151.466C1052.66 151.466 1054.15 150.161 1054.15 148.551C1054.15 146.941 1052.66 145.636 1050.82 145.636C1048.99 145.636 1047.5 146.941 1047.5 148.551C1047.5 150.161 1048.99 151.466 1050.82 151.466Z" fill="white" stroke="black" stroke-linecap="round" stroke-linejoin="round"/>
<path opacity="0.2" d="M1132.71 294.678C1132.71 302.389 1120.84 308.637 1106.2 308.637C1091.56 308.637 1079.68 302.389 1079.68 294.678C1079.67 294.561 1079.67 294.444 1079.68 294.327C1079.73 293.26 1080 292.214 1080.46 291.25C1083.37 285.202 1093.75 280.729 1106.18 280.729C1119.07 280.729 1129.82 285.563 1132.2 291.991C1132.48 292.727 1132.64 293.503 1132.67 294.289C1132.71 294.441 1132.71 294.564 1132.71 294.678Z" fill="black"/>
<path d="M1106.05 234.647C1121.68 234.647 1134.35 227.463 1134.35 218.6C1134.35 209.737 1121.68 202.552 1106.05 202.552C1090.42 202.552 1077.75 209.737 1077.75 218.6C1077.75 227.463 1090.42 234.647 1106.05 234.647Z" fill="#FF7B22" stroke="black" stroke-linecap="round" stroke-linejoin="round"/>
<path d="M1106.05 234.647C1121.68 234.647 1134.35 227.463 1134.35 218.6C1134.35 209.737 1121.68 202.552 1106.05 202.552C1090.42 202.552 1077.75 209.737 1077.75 218.6C1077.75 227.463 1090.42 234.647 1106.05 234.647Z" fill="url(#paint2_linear_652_2381)" stroke="black" stroke-linecap="round" stroke-linejoin="round"/>
<path d="M1106.05 234.647C1121.68 234.647 1134.35 227.463 1134.35 218.6C1134.35 209.737 1121.68 202.552 1106.05 202.552C1090.42 202.552 1077.75 209.737 1077.75 218.6C1077.75 227.463 1090.42 234.647 1106.05 234.647Z" fill="url(#paint3_linear_652_2381)"/>
<path d="M1124.35 289.978L1124.4 290.102L1124.35 289.969L1123.94 289.105V289.057L1122.4 285.724C1120.93 281.28 1114.24 277.938 1106.26 277.938C1098.55 277.938 1092.08 281.033 1090.27 285.221L1088.48 289.171L1088.37 289.408L1088.11 289.969C1087.8 290.75 1087.63 291.585 1087.63 292.428C1087.63 298.439 1095.97 303.319 1106.26 303.319C1116.54 303.319 1124.88 298.439 1124.88 292.428C1124.86 291.585 1124.68 290.754 1124.35 289.978Z" fill="url(#paint4_linear_652_2381)" stroke="black" stroke-linecap="round" stroke-linejoin="round"/>
<path d="M1087.99 290.111L1088.05 289.95L1088.3 289.399L1087.99 290.111Z" fill="#FFDB7C" stroke="black" stroke-linecap="round" stroke-linejoin="round"/>
<path d="M1121.7 285.553C1121.7 289.779 1114.76 293.197 1106.2 293.197C1097.64 293.197 1090.69 289.779 1090.69 285.553C1090.69 285.487 1090.69 285.42 1090.69 285.354C1090.72 284.767 1090.88 284.194 1091.15 283.673C1092.86 280.359 1098.95 277.909 1106.19 277.909C1113.72 277.909 1120.01 280.558 1121.38 284.081C1121.55 284.48 1121.64 284.904 1121.66 285.335C1121.68 285.406 1121.69 285.479 1121.7 285.553Z" fill="url(#paint5_linear_652_2381)" stroke="black" stroke-linecap="round" stroke-linejoin="round"/>
<path d="M1099.13 256.43V282.287C1099.13 284.575 1102.29 286.427 1106.19 286.427C1110.09 286.427 1113.27 284.528 1113.27 282.287V256.43H1099.13Z" fill="url(#paint6_linear_652_2381)" stroke="black" stroke-linecap="round" stroke-linejoin="round"/>
<path d="M1117.27 267.597C1117.27 264.017 1112.31 261.112 1106.19 261.112C1100.08 261.112 1095.12 264.017 1095.12 267.597V271.139C1095.12 274.719 1100.08 277.624 1106.19 277.624C1112.31 277.624 1117.27 274.719 1117.27 271.139V267.597Z" fill="url(#paint7_linear_652_2381)" stroke="black" stroke-linecap="round" stroke-linejoin="round"/>
<path d="M1138.18 224.677C1138.18 224.525 1138.27 224.373 1138.3 224.221C1138.32 224.069 1138.3 223.993 1138.37 223.879C1138.49 223.329 1138.57 222.768 1138.65 222.199C1138.65 222.009 1138.7 221.828 1138.72 221.638C1138.8 220.993 1138.86 220.347 1138.87 219.673C1138.87 219.34 1138.87 218.97 1138.87 218.609C1138.87 213.244 1135.72 208.411 1130.47 204.803C1124.53 200.71 1115.91 198.156 1106.15 198.156C1092.97 198.156 1081.83 202.79 1076.62 209.655C1074.6 212.199 1073.48 215.342 1073.44 218.59V218.799C1073.44 219.084 1073.44 219.378 1073.44 219.654C1073.51 221.317 1073.73 222.971 1074.12 224.591C1071.82 225.138 1069.69 226.217 1067.89 227.74C1066.09 229.263 1064.67 231.189 1063.75 233.361C1062.83 235.533 1062.44 237.89 1062.6 240.243C1062.76 242.597 1063.47 244.879 1064.67 246.906C1065.88 248.934 1067.54 250.65 1069.53 251.915C1071.52 253.181 1073.78 253.96 1076.13 254.192C1078.48 254.423 1080.84 254.098 1083.04 253.245C1085.24 252.392 1087.21 251.034 1088.79 249.28C1089.07 250.078 1089.32 250.885 1089.53 251.701C1089.96 253.411 1090.25 255.155 1090.39 256.914L1091.02 264.919C1091.8 266.821 1093.23 268.382 1095.05 269.325C1095.45 269.563 1095.88 269.8 1096.33 270.009C1097.2 270.425 1098.12 270.768 1099.05 271.034C1099.78 271.268 1100.53 271.452 1101.28 271.585L1101.59 271.642H1101.68L1102.01 271.699H1102.16L1102.78 271.775L1103.27 271.842H1103.65C1103.94 271.842 1104.24 271.899 1104.53 271.918H1104.79H1105.14H1106.09H1106.2C1106.62 271.918 1107.03 271.918 1107.44 271.918H1107.66H1107.97L1108.57 271.861H1108.94L1109.45 271.794L1110.06 271.718H1110.22L1110.55 271.661H1110.63C1110.73 271.648 1110.83 271.629 1110.93 271.604C1111.69 271.463 1112.43 271.279 1113.17 271.053C1114.57 270.655 1115.91 270.08 1117.17 269.344C1117.43 269.192 1117.68 269.031 1117.92 268.869L1118.04 268.774C1118.24 268.642 1118.43 268.499 1118.62 268.357L1118.71 268.281C1118.9 268.119 1119.09 267.967 1119.26 267.796C1119.61 267.465 1119.92 267.103 1120.21 266.714L1120.39 266.458L1120.59 266.163C1120.68 266.011 1120.77 265.85 1120.85 265.688L1120.91 265.574C1121 265.375 1121.09 265.166 1121.17 264.957L1121.78 256.952C1121.98 254.432 1122.49 251.947 1123.31 249.555C1124.91 251.247 1126.88 252.545 1129.07 253.345C1131.26 254.146 1133.6 254.427 1135.91 254.168C1138.23 253.909 1140.45 253.116 1142.41 251.851C1144.36 250.586 1146 248.885 1147.18 246.881C1148.37 244.876 1149.07 242.624 1149.24 240.301C1149.41 237.978 1149.03 235.648 1148.15 233.495C1147.26 231.341 1145.89 229.423 1144.13 227.891C1142.38 226.359 1140.29 225.256 1138.04 224.667L1138.18 224.677ZM1132.71 218.6C1132.71 226.32 1120.57 232.843 1106.19 232.843C1101.35 232.873 1096.53 232.093 1091.95 230.536C1085.22 228.181 1080.49 224.25 1079.76 219.806C1079.7 219.407 1079.66 219.004 1079.66 218.6C1079.66 214.707 1082.77 211.108 1087.69 208.506C1088.22 208.231 1088.76 207.965 1089.33 207.708L1089.52 207.623C1090.13 207.357 1090.77 207.091 1091.42 206.854H1091.5C1092.19 206.597 1092.9 206.36 1093.63 206.151C1096.85 205.193 1100.17 204.613 1103.52 204.423C1104.41 204.366 1105.3 204.347 1106.19 204.347C1117.42 204.347 1127.3 208.335 1131.08 213.748C1132.11 215.157 1132.68 216.852 1132.71 218.6ZM1077.72 248.349C1075.42 248.366 1073.2 247.513 1071.51 245.962C1069.81 244.412 1068.76 242.277 1068.57 239.986C1068.38 237.695 1069.07 235.418 1070.49 233.609C1071.9 231.8 1073.95 230.594 1076.22 230.232C1077.66 233.061 1079.52 235.652 1081.75 237.914C1083.12 239.309 1084.36 240.832 1085.44 242.462L1085.93 243.222C1085.18 244.759 1084.01 246.054 1082.56 246.961C1081.11 247.867 1079.43 248.349 1077.72 248.349ZM1134.38 248.349C1132.72 248.35 1131.09 247.897 1129.67 247.038C1128.25 246.18 1127.09 244.949 1126.31 243.478C1127.54 241.466 1128.99 239.599 1130.64 237.914C1131.67 236.85 1132.62 235.717 1133.49 234.524L1133.58 234.41C1133.84 234.04 1134.11 233.66 1134.36 233.27C1134.46 233.128 1134.55 232.986 1134.64 232.843C1134.89 232.444 1135.14 232.036 1135.38 231.618C1135.45 231.514 1135.51 231.406 1135.56 231.295C1135.75 230.963 1135.93 230.631 1136.1 230.279C1138.29 230.754 1140.22 232.015 1141.54 233.823C1142.86 235.631 1143.47 237.86 1143.25 240.086C1143.03 242.313 1142 244.382 1140.36 245.9C1138.72 247.418 1136.57 248.28 1134.34 248.321L1134.38 248.349Z" fill="url(#paint8_linear_652_2381)" stroke="black" stroke-linecap="round" stroke-linejoin="round"/>
<path d="M1128.19 418.339V433.599L1177.49 405.112V351.348C1177.49 341.188 1171.36 336.013 1162.58 337.314C1163.36 339.47 1163.74 341.752 1163.71 344.046V397.839L1128.19 418.339Z" fill="white" stroke="black" stroke-linecap="round" stroke-linejoin="round"/>
<path d="M1128.19 379.806V418.339L1163.71 397.839V344.008C1163.74 341.714 1163.36 339.432 1162.58 337.276C1159.14 337.859 1155.84 339.086 1152.85 340.893C1145.77 345.232 1139.82 351.179 1135.47 358.251C1130.96 365.25 1128.19 373.008 1128.19 379.806Z" fill="#FFDB7C" stroke="black" stroke-linecap="round" stroke-linejoin="round"/>
<path d="M1177.49 405.141L1163.71 397.839" stroke="black" stroke-linecap="round" stroke-linejoin="round"/>
<path d="M1226.33 224.515C1226.33 224.658 1226.33 224.8 1226.33 224.943C1226.26 227.507 1224.14 228.361 1221.53 226.842L1136.5 177.75C1133.89 176.24 1131.75 172.897 1131.71 170.286V170.239C1131.71 160.306 1139.08 156.356 1148.66 160.582C1149.11 146.851 1160.59 142.274 1174.68 150.412C1186.8 157.401 1196.98 171.549 1199.89 184.435C1201.77 184.621 1203.55 185.384 1204.98 186.619C1208.32 189.22 1210.79 193.598 1210.93 197.064C1210.97 197.704 1210.89 198.346 1210.72 198.963C1219.42 204.508 1226.33 215.704 1226.33 224.515Z" fill="white" stroke="black" stroke-linecap="round" stroke-linejoin="round"/>
<path d="M897.45 405.644V425.518L914 435.773V415.899L897.45 405.644Z" fill="#64B2FF" stroke="black" stroke-linecap="round" stroke-linejoin="round"/>
<path d="M911.522 432.004C911.758 432.004 911.949 431.706 911.949 431.339C911.949 430.972 911.758 430.674 911.522 430.674C911.286 430.674 911.095 430.972 911.095 431.339C911.095 431.706 911.286 432.004 911.522 432.004Z" fill="black"/>
<path d="M911.522 418.548C911.758 418.548 911.949 418.251 911.949 417.884C911.949 417.517 911.758 417.219 911.522 417.219C911.286 417.219 911.095 417.517 911.095 417.884C911.095 418.251 911.286 418.548 911.522 418.548Z" fill="black"/>
<path d="M899.918 424.901C900.259 424.901 900.536 424.472 900.536 423.942C900.536 423.412 900.259 422.983 899.918 422.983C899.578 422.983 899.301 423.412 899.301 423.942C899.301 424.472 899.578 424.901 899.918 424.901Z" fill="black"/>
<path d="M899.918 411.446C900.259 411.446 900.536 411.016 900.536 410.487C900.536 409.957 900.259 409.528 899.918 409.528C899.578 409.528 899.301 409.957 899.301 410.487C899.301 411.016 899.578 411.446 899.918 411.446Z" fill="black"/>
<path d="M911.522 432.27C911.863 432.27 912.139 431.84 912.139 431.311C912.139 430.781 911.863 430.351 911.522 430.351C911.181 430.351 910.905 430.781 910.905 431.311C910.905 431.84 911.181 432.27 911.522 432.27Z" fill="black"/>
<path d="M911.522 418.814C911.863 418.814 912.139 418.385 912.139 417.855C912.139 417.326 911.863 416.896 911.522 416.896C911.181 416.896 910.905 417.326 910.905 417.855C910.905 418.385 911.181 418.814 911.522 418.814Z" fill="black"/>
<path d="M1078.35 383.016V402.9L1094.91 413.145V393.281L1078.35 383.016Z" fill="#64B2FF" stroke="black" stroke-linecap="round" stroke-linejoin="round"/>
<path d="M1092.42 409.376C1092.66 409.376 1092.85 409.078 1092.85 408.711C1092.85 408.344 1092.66 408.046 1092.42 408.046C1092.19 408.046 1092 408.344 1092 408.711C1092 409.078 1092.19 409.376 1092.42 409.376Z" fill="black"/>
<path d="M1092.42 395.92C1092.66 395.92 1092.85 395.623 1092.85 395.256C1092.85 394.889 1092.66 394.591 1092.42 394.591C1092.19 394.591 1092 394.889 1092 395.256C1092 395.623 1092.19 395.92 1092.42 395.92Z" fill="black"/>
<path d="M1080.82 402.282C1081.16 402.282 1081.44 401.853 1081.44 401.323C1081.44 400.794 1081.16 400.364 1080.82 400.364C1080.48 400.364 1080.2 400.794 1080.2 401.323C1080.2 401.853 1080.48 402.282 1080.82 402.282Z" fill="black"/>
<path d="M1080.82 388.827C1081.16 388.827 1081.44 388.398 1081.44 387.868C1081.44 387.339 1081.16 386.909 1080.82 386.909C1080.48 386.909 1080.2 387.339 1080.2 387.868C1080.2 388.398 1080.48 388.827 1080.82 388.827Z" fill="black"/>
<path d="M1092.42 409.651C1092.76 409.651 1093.04 409.222 1093.04 408.692C1093.04 408.162 1092.76 407.733 1092.42 407.733C1092.08 407.733 1091.81 408.162 1091.81 408.692C1091.81 409.222 1092.08 409.651 1092.42 409.651Z" fill="black"/>
<path d="M1092.42 396.186C1092.76 396.186 1093.04 395.757 1093.04 395.227C1093.04 394.698 1092.76 394.268 1092.42 394.268C1092.08 394.268 1091.81 394.698 1091.81 395.227C1091.81 395.757 1092.08 396.186 1092.42 396.186Z" fill="black"/>
<path d="M864.006 343.609V363.483L880.557 373.739V353.864L864.006 343.609Z" fill="#FFDB7C" stroke="black" stroke-linecap="round" stroke-linejoin="round"/>
<path d="M878.079 369.969C878.315 369.969 878.506 369.671 878.506 369.304C878.506 368.937 878.315 368.64 878.079 368.64C877.843 368.64 877.651 368.937 877.651 369.304C877.651 369.671 877.843 369.969 878.079 369.969Z" fill="black"/>
<path d="M878.079 356.514C878.315 356.514 878.506 356.216 878.506 355.849C878.506 355.482 878.315 355.184 878.079 355.184C877.843 355.184 877.651 355.482 877.651 355.849C877.651 356.216 877.843 356.514 878.079 356.514Z" fill="black"/>
<path d="M866.475 362.572C866.711 362.572 866.902 362.274 866.902 361.907C866.902 361.54 866.711 361.242 866.475 361.242C866.239 361.242 866.048 361.54 866.048 361.907C866.048 362.274 866.239 362.572 866.475 362.572Z" fill="black"/>
<path d="M866.475 349.117C866.711 349.117 866.902 348.819 866.902 348.452C866.902 348.085 866.711 347.787 866.475 347.787C866.239 347.787 866.048 348.085 866.048 348.452C866.048 348.819 866.239 349.117 866.475 349.117Z" fill="black"/>
<path d="M846.753 346.809V366.693L872.277 382.437V362.572L846.753 346.809Z" fill="white" stroke="black" stroke-linecap="round" stroke-linejoin="round"/>
<path d="M869.798 378.667C870.034 378.667 870.226 378.369 870.226 378.002C870.226 377.635 870.034 377.338 869.798 377.338C869.562 377.338 869.371 377.635 869.371 378.002C869.371 378.369 869.562 378.667 869.798 378.667Z" fill="black"/>
<path d="M869.798 365.212C870.034 365.212 870.226 364.914 870.226 364.547C870.226 364.18 870.034 363.882 869.798 363.882C869.562 363.882 869.371 364.18 869.371 364.547C869.371 364.914 869.562 365.212 869.798 365.212Z" fill="black"/>
<path d="M849.221 366.076C849.562 366.076 849.839 365.646 849.839 365.117C849.839 364.587 849.562 364.158 849.221 364.158C848.881 364.158 848.604 364.587 848.604 365.117C848.604 365.646 848.881 366.076 849.221 366.076Z" fill="black"/>
<path d="M849.221 352.611C849.562 352.611 849.839 352.182 849.839 351.652C849.839 351.122 849.562 350.693 849.221 350.693C848.881 350.693 848.604 351.122 848.604 351.652C848.604 352.182 848.881 352.611 849.221 352.611Z" fill="black"/>
<path d="M869.798 378.933C870.139 378.933 870.416 378.503 870.416 377.974C870.416 377.444 870.139 377.015 869.798 377.015C869.458 377.015 869.181 377.444 869.181 377.974C869.181 378.503 869.458 378.933 869.798 378.933Z" fill="black"/>
<path d="M869.798 365.477C870.139 365.477 870.416 365.048 870.416 364.518C870.416 363.989 870.139 363.559 869.798 363.559C869.458 363.559 869.181 363.989 869.181 364.518C869.181 365.048 869.458 365.477 869.798 365.477Z" fill="black"/>
<path d="M1060.9 362.439V382.323L1086.43 398.066V378.192L1060.9 362.439Z" fill="white" stroke="black" stroke-linecap="round" stroke-linejoin="round"/>
<path d="M1083.95 394.297C1084.19 394.297 1084.38 393.999 1084.38 393.632C1084.38 393.265 1084.19 392.967 1083.95 392.967C1083.72 392.967 1083.53 393.265 1083.53 393.632C1083.53 393.999 1083.72 394.297 1083.95 394.297Z" fill="black"/>
<path d="M1083.95 380.841C1084.19 380.841 1084.38 380.544 1084.38 380.177C1084.38 379.81 1084.19 379.512 1083.95 379.512C1083.72 379.512 1083.53 379.81 1083.53 380.177C1083.53 380.544 1083.72 380.841 1083.95 380.841Z" fill="black"/>
<path d="M1063.37 381.696C1063.71 381.696 1063.98 381.267 1063.98 380.737C1063.98 380.207 1063.71 379.778 1063.37 379.778C1063.03 379.778 1062.75 380.207 1062.75 380.737C1062.75 381.267 1063.03 381.696 1063.37 381.696Z" fill="black"/>
<path d="M1063.37 368.241C1063.71 368.241 1063.98 367.811 1063.98 367.282C1063.98 366.752 1063.71 366.323 1063.37 366.323C1063.03 366.323 1062.75 366.752 1062.75 367.282C1062.75 367.811 1063.03 368.241 1063.37 368.241Z" fill="black"/>
<path d="M1083.95 394.562C1084.29 394.562 1084.57 394.133 1084.57 393.603C1084.57 393.074 1084.29 392.644 1083.95 392.644C1083.61 392.644 1083.34 393.074 1083.34 393.603C1083.34 394.133 1083.61 394.562 1083.95 394.562Z" fill="black"/>
<path d="M1083.95 381.107C1084.29 381.107 1084.57 380.678 1084.57 380.148C1084.57 379.619 1084.29 379.189 1083.95 379.189C1083.61 379.189 1083.34 379.619 1083.34 380.148C1083.34 380.678 1083.61 381.107 1083.95 381.107Z" fill="black"/>
<path opacity="0.2" d="M924.094 326.147L876.417 300.509C876.15 300.365 875.925 300.154 875.765 299.897C875.605 299.639 875.516 299.344 875.506 299.041C875.497 298.737 875.567 298.437 875.71 298.17C875.853 297.903 876.064 297.678 876.322 297.518L922.385 269.031C922.902 268.714 923.493 268.538 924.099 268.52C924.706 268.501 925.306 268.642 925.841 268.926L973.528 294.564C973.795 294.709 974.019 294.92 974.178 295.179C974.337 295.437 974.425 295.732 974.434 296.035C974.443 296.338 974.371 296.638 974.227 296.905C974.083 297.172 973.872 297.396 973.614 297.556L927.541 326.042C927.027 326.364 926.438 326.543 925.832 326.561C925.226 326.579 924.626 326.436 924.094 326.147Z" fill="black"/>
<path d="M921.008 306.026L868.573 277.833C868.278 277.675 868.03 277.443 867.854 277.158C867.678 276.874 867.58 276.548 867.571 276.213C867.561 275.879 867.64 275.548 867.799 275.254C867.959 274.96 868.193 274.713 868.478 274.538L919.128 243.203C919.695 242.852 920.345 242.657 921.012 242.637C921.679 242.617 922.339 242.773 922.926 243.089L975.37 271.319C975.663 271.478 975.909 271.71 976.084 271.994C976.258 272.277 976.355 272.602 976.365 272.935C976.374 273.267 976.296 273.597 976.139 273.89C975.981 274.183 975.748 274.43 975.465 274.605L924.797 305.94C924.228 306.285 923.579 306.474 922.914 306.489C922.249 306.504 921.592 306.344 921.008 306.026Z" fill="white" stroke="black" stroke-linecap="round" stroke-linejoin="round"/>
<path d="M921.008 288.658L868.573 260.447C868.281 260.288 868.035 260.056 867.86 259.772C867.686 259.489 867.589 259.164 867.579 258.831C867.569 258.499 867.647 258.169 867.805 257.876C867.963 257.583 868.195 257.336 868.478 257.161L919.128 225.826C919.695 225.475 920.345 225.28 921.012 225.26C921.679 225.24 922.339 225.396 922.926 225.712L975.37 253.933C975.665 254.091 975.913 254.323 976.09 254.608C976.266 254.892 976.363 255.218 976.373 255.553C976.383 255.887 976.304 256.218 976.144 256.512C975.985 256.806 975.751 257.053 975.465 257.228L924.797 288.563C924.229 288.909 923.58 289.1 922.915 289.117C922.25 289.134 921.593 288.975 921.008 288.658Z" fill="white" stroke="black" stroke-linecap="round" stroke-linejoin="round"/>
<path d="M921.008 271.272L868.573 243.051C868.281 242.892 868.035 242.66 867.86 242.376C867.686 242.093 867.589 241.768 867.579 241.436C867.569 241.103 867.647 240.773 867.805 240.48C867.963 240.187 868.195 239.941 868.478 239.765L919.128 208.43C919.695 208.079 920.345 207.884 921.012 207.864C921.679 207.844 922.339 208 922.926 208.316L975.37 236.537C975.665 236.695 975.913 236.928 976.09 237.212C976.266 237.497 976.363 237.822 976.373 238.157C976.383 238.491 976.304 238.822 976.144 239.116C975.985 239.411 975.751 239.657 975.465 239.832L924.797 271.167C924.23 271.515 923.581 271.708 922.916 271.726C922.252 271.744 921.593 271.588 921.008 271.272Z" fill="white" stroke="black" stroke-linecap="round" stroke-linejoin="round"/>
<path d="M921.008 253.885L868.573 225.664C868.281 225.506 868.035 225.273 867.86 224.99C867.686 224.706 867.589 224.382 867.579 224.049C867.569 223.716 867.647 223.387 867.805 223.094C867.963 222.801 868.195 222.554 868.478 222.379L919.128 191.044C919.695 190.693 920.345 190.497 921.012 190.477C921.679 190.457 922.339 190.613 922.926 190.93L975.37 219.15C975.663 219.309 975.909 219.542 976.084 219.825C976.258 220.109 976.355 220.433 976.365 220.766C976.374 221.099 976.296 221.428 976.139 221.721C975.981 222.014 975.748 222.261 975.465 222.436L924.797 253.771C924.231 254.121 923.583 254.315 922.918 254.335C922.253 254.355 921.594 254.2 921.008 253.885Z" fill="white" stroke="black" stroke-linecap="round" stroke-linejoin="round"/>
<path d="M923.56 233.794C931.97 231.943 937.667 225.353 936.286 219.073C934.904 212.794 926.966 209.204 918.556 211.055C910.146 212.905 904.449 219.496 905.831 225.775C907.212 232.054 915.15 235.644 923.56 233.794Z" fill="#FFDB7C" stroke="black" stroke-linecap="round" stroke-linejoin="round"/>
<path d="M915.406 228.162C917.612 229.256 920.135 229.535 922.527 228.95C927.351 227.877 930.608 224.088 929.801 220.489C929.582 219.662 929.183 218.893 928.633 218.236C928.084 217.58 927.396 217.052 926.62 216.691" fill="#FFDB7C"/>
<path d="M915.406 228.162C917.612 229.256 920.135 229.535 922.527 228.95C927.351 227.877 930.608 224.088 929.801 220.489C929.582 219.662 929.183 218.893 928.633 218.236C928.084 217.58 927.396 217.052 926.62 216.691" stroke="black" stroke-linecap="round" stroke-linejoin="round"/>
<path d="M916.7 224.113C916.917 223.55 916.546 222.883 915.87 222.622C915.195 222.362 914.472 222.607 914.255 223.17C914.038 223.732 914.409 224.4 915.085 224.66C915.76 224.92 916.483 224.675 916.7 224.113Z" fill="black"/>
<path d="M922.281 218.14C922.498 217.578 922.126 216.91 921.451 216.65C920.776 216.39 920.053 216.635 919.836 217.197C919.619 217.76 919.99 218.427 920.665 218.688C921.341 218.948 922.064 218.703 922.281 218.14Z" fill="black"/>
<path d="M1118.26 227.412L1119.48 231.941C1119.74 232.937 1120.25 233.853 1120.94 234.611C1121.64 235.37 1122.51 235.949 1123.48 236.3L1126.08 237.249L1123.48 238.199C1122.51 238.551 1121.64 239.132 1120.94 239.892C1120.25 240.653 1119.74 241.57 1119.48 242.567L1118.26 247.086L1117.05 242.567C1116.79 241.57 1116.28 240.653 1115.58 239.892C1114.89 239.132 1114.02 238.551 1113.05 238.199L1110.45 237.249L1113.05 236.3C1114.02 235.949 1114.89 235.37 1115.58 234.611C1116.28 233.853 1116.79 232.937 1117.05 231.941L1118.26 227.412Z" fill="white" stroke="black" stroke-linecap="round" stroke-linejoin="round"/>
<path d="M1137.22 201.574L1139.51 210.12C1140.02 212.004 1140.98 213.737 1142.3 215.172C1143.62 216.607 1145.27 217.702 1147.11 218.362L1152.02 220.138L1147.11 221.914C1145.27 222.571 1143.62 223.665 1142.3 225.1C1140.97 226.536 1140.02 228.27 1139.51 230.156L1137.22 238.702L1134.94 230.156C1134.44 228.27 1133.48 226.536 1132.16 225.1C1130.84 223.665 1129.19 222.571 1127.35 221.914L1122.43 220.138L1127.35 218.362C1129.18 217.702 1130.83 216.607 1132.16 215.172C1133.48 213.737 1134.43 212.004 1134.94 210.12L1137.22 201.574Z" fill="white" stroke="black" stroke-linecap="round" stroke-linejoin="round"/>
<path opacity="0.2" d="M1020.5 450.644L981.448 426.06V322.168L973.851 326.565V343.59L963.833 350.028V334.342C963.831 333.729 963.682 333.127 963.396 332.585L956.237 336.725V438.147C956.236 438.865 956.444 439.568 956.835 440.17C957.128 440.647 957.528 441.05 958.003 441.347L999.537 467.707C1000.14 468.099 1000.85 468.307 1001.57 468.305C1002.39 468.308 1003.19 468.042 1003.85 467.549C1004.51 467.055 1005 466.361 1005.23 465.57C1005.46 464.779 1005.42 463.934 1005.13 463.164C1004.84 462.393 1004.31 461.738 1003.61 461.298L963.9 436.115H963.833V422.878L973.851 416.45V428.158C973.85 428.801 974.013 429.434 974.324 429.997C974.634 430.56 975.083 431.035 975.627 431.377L1016.46 457.072C1017.06 457.452 1017.77 457.653 1018.48 457.651C1019.3 457.649 1020.1 457.381 1020.76 456.886C1021.41 456.391 1021.89 455.696 1022.12 454.906C1022.35 454.116 1022.31 453.274 1022.02 452.505C1021.73 451.737 1021.2 451.083 1020.5 450.644ZM973.851 407.42L963.833 413.858V401.76L973.851 395.284V407.42ZM973.851 386.292L963.833 392.73V380.633L973.851 374.195V386.292ZM973.851 365.164L963.833 371.602V359.049L973.851 352.611V365.164Z" fill="black"/>
<path d="M1025 453.483L983.423 315.341C983.29 314.895 983.065 314.482 982.763 314.128C982.46 313.775 982.086 313.489 981.666 313.29L977.782 311.106C977.557 310.962 977.315 310.847 977.061 310.764L976.842 310.707C976.588 310.642 976.326 310.61 976.064 310.612C975.247 310.613 974.459 310.913 973.848 311.456C973.238 311.998 972.847 312.745 972.75 313.556C972.702 314.008 972.741 314.466 972.864 314.904L979.226 336.022L971.192 340.533L966.558 325.017C966.429 324.585 966.213 324.184 965.922 323.839C965.631 323.494 965.272 323.213 964.868 323.013L961.07 320.905L960.424 320.544C960.248 320.458 960.064 320.391 959.874 320.345C959.621 320.288 959.363 320.26 959.104 320.26C958.783 320.259 958.462 320.307 958.155 320.402C957.536 320.583 956.984 320.942 956.565 321.432C956.147 321.923 955.881 322.525 955.8 323.165C955.742 323.63 955.781 324.102 955.914 324.552L997.315 462.095C997.525 462.799 997.962 463.413 998.559 463.842H998.606L999.128 464.137L1002.99 466.321L1003.07 466.368C1003.27 466.487 1003.49 466.586 1003.71 466.663L1003.95 466.729C1004.22 466.796 1004.49 466.831 1004.76 466.833C1005.08 466.833 1005.4 466.785 1005.71 466.691C1006.55 466.432 1007.26 465.851 1007.67 465.074C1008.09 464.297 1008.18 463.386 1007.93 462.541L992.738 412.082L1000.66 407.534L1014.33 452.96C1014.54 453.664 1014.97 454.277 1015.57 454.698L1016.23 455.068L1020.03 457.252C1020.23 457.371 1020.44 457.47 1020.66 457.547C1021.01 457.667 1021.37 457.728 1021.74 457.727C1022.06 457.724 1022.38 457.676 1022.69 457.585C1023.12 457.481 1023.52 457.292 1023.87 457.029C1024.23 456.767 1024.52 456.436 1024.75 456.056C1024.96 455.667 1025.1 455.238 1025.14 454.796C1025.19 454.353 1025.14 453.906 1025 453.483ZM997.467 396.889L989.547 401.447L986.699 391.828L994.608 387.27L997.467 396.889ZM991.361 376.587L983.442 381.145L980.545 371.545L988.465 366.987L991.361 376.587ZM985.246 356.286L977.336 360.834L974.44 351.215L982.35 346.657L985.246 356.286Z" fill="#FFDB7C" stroke="black" stroke-linecap="round" stroke-linejoin="round"/>
<path d="M1004.76 466.881C1004.49 466.879 1004.22 466.844 1003.95 466.777L1003.71 466.71C1003.21 466.54 1002.75 466.252 1002.38 465.868C1002.01 465.485 1001.73 465.018 1001.58 464.507L960.177 326.963C960.04 326.512 960.001 326.036 960.063 325.568C960.146 324.93 960.412 324.33 960.828 323.839C961.244 323.349 961.793 322.99 962.409 322.804C962.718 322.715 963.037 322.667 963.358 322.662C963.618 322.665 963.876 322.697 964.128 322.757C964.695 322.892 965.217 323.174 965.642 323.574C966.067 323.974 966.379 324.478 966.549 325.036L972.455 344.663L983.385 338.368L977.032 317.259C976.902 316.822 976.86 316.364 976.909 315.911C976.98 315.258 977.241 314.64 977.659 314.134C978.078 313.627 978.636 313.255 979.264 313.062C979.572 312.973 979.892 312.925 980.213 312.919C980.472 312.922 980.73 312.954 980.982 313.014L981.201 313.071H981.248C981.756 313.24 982.216 313.528 982.59 313.911C982.963 314.295 983.239 314.762 983.394 315.274L1024.98 453.426C1025.23 454.272 1025.13 455.183 1024.72 455.961C1024.3 456.738 1023.59 457.318 1022.74 457.575C1022.44 457.667 1022.12 457.715 1021.79 457.718C1021.43 457.719 1021.07 457.658 1020.72 457.537C1020.22 457.364 1019.76 457.074 1019.39 456.691C1019.02 456.308 1018.75 455.843 1018.59 455.334L1003.69 405.786L992.747 412.072L1007.94 462.532C1008.19 463.377 1008.1 464.287 1007.68 465.064C1007.27 465.841 1006.56 466.423 1005.72 466.682C1005.41 466.796 1005.09 466.863 1004.76 466.881ZM990.791 405.577L1001.73 399.282L997.59 385.532L986.661 391.828L990.791 405.577ZM984.686 385.276L995.615 378.98L991.484 365.231L980.545 371.545L984.686 385.276ZM978.57 364.965L989.509 358.669L985.369 344.958L974.44 351.253L978.57 364.965Z" fill="#FFDB7C" stroke="black" stroke-linecap="round" stroke-linejoin="round"/>
<path d="M983.394 338.368L979.14 335.984" stroke="black" stroke-linecap="round" stroke-linejoin="round"/>
<path d="M989.509 358.669L985.246 356.286" stroke="black" stroke-linecap="round" stroke-linejoin="round"/>
<path d="M995.615 378.98L991.361 376.587" stroke="black" stroke-linecap="round" stroke-linejoin="round"/>
<path d="M1001.73 399.282L997.467 396.889" stroke="black" stroke-linecap="round" stroke-linejoin="round"/>
<path d="M864.006 343.609V363.483L880.557 373.739V353.864L864.006 343.609Z" fill="#FFDB7C" stroke="black" stroke-linecap="round" stroke-linejoin="round"/>
<path d="M878.079 369.969C878.315 369.969 878.506 369.671 878.506 369.304C878.506 368.937 878.315 368.64 878.079 368.64C877.843 368.64 877.651 368.937 877.651 369.304C877.651 369.671 877.843 369.969 878.079 369.969Z" fill="black"/>
<path d="M878.079 356.514C878.315 356.514 878.506 356.216 878.506 355.849C878.506 355.482 878.315 355.184 878.079 355.184C877.843 355.184 877.651 355.482 877.651 355.849C877.651 356.216 877.843 356.514 878.079 356.514Z" fill="black"/>
<path d="M866.475 362.866C866.816 362.866 867.092 362.437 867.092 361.907C867.092 361.378 866.816 360.948 866.475 360.948C866.134 360.948 865.858 361.378 865.858 361.907C865.858 362.437 866.134 362.866 866.475 362.866Z" fill="black"/>
<path d="M866.475 349.411C866.816 349.411 867.092 348.982 867.092 348.452C867.092 347.922 866.816 347.493 866.475 347.493C866.134 347.493 865.858 347.922 865.858 348.452C865.858 348.982 866.134 349.411 866.475 349.411Z" fill="black"/>
<path d="M878.079 370.235C878.42 370.235 878.696 369.805 878.696 369.276C878.696 368.746 878.42 368.317 878.079 368.317C877.738 368.317 877.461 368.746 877.461 369.276C877.461 369.805 877.738 370.235 878.079 370.235Z" fill="black"/>
<path d="M878.079 356.78C878.42 356.78 878.696 356.35 878.696 355.821C878.696 355.291 878.42 354.861 878.079 354.861C877.738 354.861 877.461 355.291 877.461 355.821C877.461 356.35 877.738 356.78 878.079 356.78Z" fill="black"/>
<defs>
<linearGradient id="paint0_linear_652_2381" x1="1058.71" y1="126.208" x2="1017.16" y2="127.271" gradientUnits="userSpaceOnUse">
<stop stop-color="#A1ABB3"/>
<stop offset="0.13" stop-color="#ADB5BB"/>
<stop offset="0.45" stop-color="#C5C9CC"/>
<stop offset="0.75" stop-color="#D4D5D6"/>
<stop offset="1" stop-color="#D9D9D9"/>
</linearGradient>
<linearGradient id="paint1_linear_652_2381" x1="18911.1" y1="1980.07" x2="15766.2" y2="4806.6" gradientUnits="userSpaceOnUse">
<stop stop-color="#A1ABB3"/>
<stop offset="0.13" stop-color="#ADB5BB"/>
<stop offset="0.45" stop-color="#C5C9CC"/>
<stop offset="0.75" stop-color="#D4D5D6"/>
<stop offset="1" stop-color="#D9D9D9"/>
</linearGradient>
<linearGradient id="paint2_linear_652_2381" x1="1106.05" y1="248.416" x2="1106.05" y2="199.761" gradientUnits="userSpaceOnUse">
<stop stop-color="#FF862B"/>
<stop offset="0.31" stop-color="#FF9F43"/>
<stop offset="0.93" stop-color="#FFDB7C"/>
</linearGradient>
<linearGradient id="paint3_linear_652_2381" x1="1099.95" y1="242.367" x2="1111.72" y2="196.542" gradientUnits="userSpaceOnUse">
<stop offset="0.13" stop-color="#FFDB7C"/>
<stop offset="0.6" stop-color="#FFF1CD"/>
<stop offset="0.91" stop-color="white"/>
</linearGradient>
<linearGradient id="paint4_linear_652_2381" x1="1142.96" y1="277.33" x2="1109.14" y2="289.646" gradientUnits="userSpaceOnUse">
<stop stop-color="#FF862B"/>
<stop offset="0.18" stop-color="#FF8E33"/>
<stop offset="0.48" stop-color="#FFA549"/>
<stop offset="0.84" stop-color="#FFCA6C"/>
<stop offset="0.98" stop-color="#FFDB7C"/>
</linearGradient>
<linearGradient id="paint5_linear_652_2381" x1="11657.1" y1="3963.83" x2="9989.16" y2="3996.52" gradientUnits="userSpaceOnUse">
<stop stop-color="#FF862B"/>
<stop offset="0.18" stop-color="#FF8E33"/>
<stop offset="0.48" stop-color="#FFA549"/>
<stop offset="0.84" stop-color="#FFCA6C"/>
<stop offset="0.98" stop-color="#FFDB7C"/>
</linearGradient>
<linearGradient id="paint6_linear_652_2381" x1="5731.89" y1="7024.26" x2="5285.33" y2="7032.06" gradientUnits="userSpaceOnUse">
<stop stop-color="#FF862B"/>
<stop offset="0.31" stop-color="#FF9F43"/>
<stop offset="0.93" stop-color="#FFDB7C"/>
</linearGradient>
<linearGradient id="paint7_linear_652_2381" x1="8137.16" y1="4124.45" x2="7886.6" y2="3871.54" gradientUnits="userSpaceOnUse">
<stop stop-color="#FF862B"/>
<stop offset="0.31" stop-color="#FF9F43"/>
<stop offset="0.93" stop-color="#FFDB7C"/>
</linearGradient>
<linearGradient id="paint8_linear_652_2381" x1="1137.47" y1="275.668" x2="1108.24" y2="238.541" gradientUnits="userSpaceOnUse">
<stop stop-color="#FF862B"/>
<stop offset="0.65" stop-color="#FFC062"/>
<stop offset="1" stop-color="#FFDB7C"/>
</linearGradient>
</defs>
</svg>
