<svg xmlns="http://www.w3.org/2000/svg" viewBox="0 0 295.26 68.43"><defs><style>.cls-1,.cls-2{fill:#fff;}.cls-2{fill-rule:evenodd;}</style></defs><g id="Layer_2" data-name="Layer 2"><g id="Layer_1-2" data-name="Layer 1"><path class="cls-1" d="M105.22,29.53h-3.14V14.23h3.12l4.44,6.34,4.44-6.34h3.1v15.3h-3.11V19.06L110.55,24H108.8l-3.58-4.92Z"/><path class="cls-1" d="M131.33,21.88A5.66,5.66,0,0,0,130.07,20a6.5,6.5,0,0,0-8.7,0,5.45,5.45,0,0,0-1.28,1.84,5.24,5.24,0,0,0-.42,2.21,5.3,5.3,0,0,0,.42,2.23,5.46,5.46,0,0,0,1.28,1.89,6.62,6.62,0,0,0,8.7,0,5.7,5.7,0,0,0,1.26-1.88,5.86,5.86,0,0,0,.44-2.22A5.68,5.68,0,0,0,131.33,21.88Zm-2.8,3.36a3.22,3.22,0,0,1-.65,1,3.12,3.12,0,0,1-4.32,0,3.06,3.06,0,0,1-.65-1,3,3,0,0,1-.21-1.18,2.91,2.91,0,0,1,.21-1.16,2.71,2.71,0,0,1,.65-1,3.09,3.09,0,0,1,4.32,0,2.71,2.71,0,0,1,.65,1,2.91,2.91,0,0,1,.21,1.16A3.37,3.37,0,0,1,128.53,25.24Z"/><path class="cls-1" d="M142.73,14.86a1.52,1.52,0,0,0-.36-.52,1.7,1.7,0,0,0-.52-.35,1.77,1.77,0,0,0-.61-.1,1.68,1.68,0,0,0-.63.12,1.39,1.39,0,0,0-.53.33,1.76,1.76,0,0,0-.35.52,1.51,1.51,0,0,0-.11.62,1.43,1.43,0,0,0,.11.62,1.73,1.73,0,0,0,.35.54,1.42,1.42,0,0,0,.53.34,1.5,1.5,0,0,0,.63.11,1.41,1.41,0,0,0,.61-.11,1.38,1.38,0,0,0,.52-.34,1.6,1.6,0,0,0,.36-.54,1.56,1.56,0,0,0,.12-.62A1.32,1.32,0,0,0,142.73,14.86Zm-4.8,0a1.52,1.52,0,0,0-.36-.52,1.59,1.59,0,0,0-1.14-.45,1.62,1.62,0,0,0-1.14.46,1.9,1.9,0,0,0-.36.51,1.71,1.71,0,0,0-.12.62,1.58,1.58,0,0,0,.48,1.15,1.46,1.46,0,0,0,.52.34,1.49,1.49,0,0,0,.62.12,1.67,1.67,0,0,0,.62-.12,1.38,1.38,0,0,0,.52-.34,1.63,1.63,0,0,0,.35-.53,1.3,1.3,0,0,0,.12-.62A1.48,1.48,0,0,0,137.93,14.86Zm6.28,9.25A6.17,6.17,0,0,0,142.78,20a4.74,4.74,0,0,0-1.69-1.29,4.84,4.84,0,0,0-2.09-.4A5.34,5.34,0,0,0,134.9,20a5.61,5.61,0,0,0-1.58,4,5.36,5.36,0,0,0,1.75,4.18,6.24,6.24,0,0,0,4.31,1.57,6.71,6.71,0,0,0,4.15-1.1V26.23a7.06,7.06,0,0,1-3.5,1,4.59,4.59,0,0,1-2.43-.6,2.41,2.41,0,0,1-.79-.7,2.72,2.72,0,0,1-.43-1h7.83ZM136.38,23a2.46,2.46,0,0,1,.79-1.6,2.51,2.51,0,0,1,1.71-.59,2,2,0,0,1,.87.15,2.05,2.05,0,0,1,.75.48,2.19,2.19,0,0,1,.67,1.56Z"/><path class="cls-1" d="M163.1,21.88A5.66,5.66,0,0,0,161.84,20a6.5,6.5,0,0,0-8.7,0,5.39,5.39,0,0,0-1.7,4,5.3,5.3,0,0,0,.42,2.23,5.46,5.46,0,0,0,1.28,1.89,6.62,6.62,0,0,0,8.7,0,5.84,5.84,0,0,0,1.71-4.1A5.52,5.52,0,0,0,163.1,21.88Zm-2.8,3.36a2.88,2.88,0,0,1-2.81,1.89,3.16,3.16,0,0,1-2.16-.87,3.22,3.22,0,0,1-.65-1,3,3,0,0,1-.2-1.18,2.73,2.73,0,0,1,.2-1.16,3,3,0,0,1,.65-1,3.1,3.1,0,0,1,4.33,0,3,3,0,0,1,.65,1,3.08,3.08,0,0,1,.2,1.16A3,3,0,0,1,160.3,25.24Z"/><path class="cls-1" d="M176.54,22.29a4.83,4.83,0,0,0-1-1.63A4.8,4.8,0,0,0,172,19.32a4.85,4.85,0,0,0-2.25.45A4.64,4.64,0,0,0,168,21.19a3.46,3.46,0,0,1,1-2.41,4.68,4.68,0,0,1,1.42-.92,15.24,15.24,0,0,1,1.86-.55l1-.22,1.14-.19,1.15-.19V13.84a28.73,28.73,0,0,0-4.65,1.07,11.3,11.3,0,0,0-3.19,1.62,5.65,5.65,0,0,0-2,2.48,9.92,9.92,0,0,0-.61,3.7,8.13,8.13,0,0,0,1.55,5.18,5.41,5.41,0,0,0,2,1.49,5.15,5.15,0,0,0,2.45.42,5.46,5.46,0,0,0,2.19-.36,5.41,5.41,0,0,0,3.51-5.24A4.77,4.77,0,0,0,176.54,22.29Zm-2.9,3.2a3,3,0,0,1-.58.94,2.65,2.65,0,0,1-.88.6,2.87,2.87,0,0,1-1.05.19,2.57,2.57,0,0,1-1.19-.24,2.62,2.62,0,0,1-1-.72,4.27,4.27,0,0,1-.8-2.72,3.74,3.74,0,0,1,3.06-1.66,2.44,2.44,0,0,1,1,.16,2.71,2.71,0,0,1,.86.52,2.35,2.35,0,0,1,.55.86,2.4,2.4,0,0,1,.17,1A2.77,2.77,0,0,1,173.64,25.49Z"/><path class="cls-1" d="M189.46,20a4.55,4.55,0,0,0-1.64-1.25,4.6,4.6,0,0,0-2-.42,4.13,4.13,0,0,0-2,.37A4.05,4.05,0,0,0,182.21,20V18.63h-3.08V33.9h3.08V28.2a4.26,4.26,0,0,0,3.58,1.61,4.65,4.65,0,0,0,2-.4,4.56,4.56,0,0,0,1.65-1.23,6,6,0,0,0,1.47-4.1A5.84,5.84,0,0,0,189.46,20ZM187,26.26a2.83,2.83,0,0,1-1,.66,3,3,0,0,1-1.15.21,3.08,3.08,0,0,1-2.71-1.62V22.67a3.25,3.25,0,0,1,1.11-1.19,3.09,3.09,0,0,1,1.6-.45,2.82,2.82,0,0,1,1.15.2,2.75,2.75,0,0,1,1,.68,3.28,3.28,0,0,1,.83,2.16A3.31,3.31,0,0,1,187,26.26Z"/><path class="cls-1" d="M203.58,27.15c-.51,0-.77-.29-.77-.84V22.63a3.78,3.78,0,0,0-.34-1.75,3.73,3.73,0,0,0-1.1-1.41,5.93,5.93,0,0,0-3.76-1.13,8.57,8.57,0,0,0-4,.88v2.57a6.38,6.38,0,0,1,3.3-.91c1.92,0,2.88.67,2.88,2.05v.33a6.67,6.67,0,0,0-3.14-.69,5.14,5.14,0,0,0-3,.92,3.15,3.15,0,0,0-1.27,2.68,3.17,3.17,0,0,0,.27,1.43,3.29,3.29,0,0,0,.85,1.2,4.2,4.2,0,0,0,2.9,1,5.24,5.24,0,0,0,2-.34,5,5,0,0,0,1.72-1.15,2.41,2.41,0,0,0,2.47,1.4,2.71,2.71,0,0,0,1.66-.45V27A1.37,1.37,0,0,1,203.58,27.15Zm-3.83-.84a2.89,2.89,0,0,1-1.09.87,3,3,0,0,1-1.37.26,2.5,2.5,0,0,1-1.43-.38,1.06,1.06,0,0,1-.4-.46,1.14,1.14,0,0,1-.12-.58,1.07,1.07,0,0,1,.15-.61,1,1,0,0,1,.43-.44,2.85,2.85,0,0,1,1.56-.38,4,4,0,0,1,2.27.63Z"/><path class="cls-1" d="M210.18,29.81a9.51,9.51,0,0,1-4.24-.83V26.49a8.1,8.1,0,0,0,3.8.88,4.55,4.55,0,0,0,1.93-.33,1.13,1.13,0,0,0,.5-.36,1,1,0,0,0,.19-.58c0-.71-.64-1.07-1.92-1.07H208.3V22.8h2.14c1.05,0,1.57-.32,1.57-1s-.74-1.05-2.23-1.05a7.89,7.89,0,0,0-3.54.75V19.13a9.88,9.88,0,0,1,4.22-.79,6.21,6.21,0,0,1,3.34.85,2.45,2.45,0,0,1,1,.89,2.42,2.42,0,0,1,.39,1.25,2.23,2.23,0,0,1-1.57,2.34,3.07,3.07,0,0,1,1.45.95,2.49,2.49,0,0,1,.56,1.65,3,3,0,0,1-1.51,2.56A6.9,6.9,0,0,1,210.18,29.81Z"/><path class="cls-1" d="M228.92,21.88A5.66,5.66,0,0,0,227.66,20a6.5,6.5,0,0,0-8.7,0,5.45,5.45,0,0,0-1.28,1.84,5.24,5.24,0,0,0-.42,2.21,5.3,5.3,0,0,0,.42,2.23A5.46,5.46,0,0,0,219,28.18a6.62,6.62,0,0,0,8.7,0,5.7,5.7,0,0,0,1.26-1.88,5.86,5.86,0,0,0,.44-2.22A5.68,5.68,0,0,0,228.92,21.88Zm-2.8,3.36a3.22,3.22,0,0,1-.65,1,3.12,3.12,0,0,1-4.32,0,2.91,2.91,0,0,1-.65-1,3,3,0,0,1-.21-1.18,2.91,2.91,0,0,1,.21-1.16,2.71,2.71,0,0,1,.65-1,3.09,3.09,0,0,1,4.32,0,2.71,2.71,0,0,1,.65,1,2.91,2.91,0,0,1,.21,1.16A3.37,3.37,0,0,1,226.12,25.24Z"/><path class="cls-1" d="M241.5,24.77a2.84,2.84,0,0,0-1.54-1,2.32,2.32,0,0,0,1-.94,2.35,2.35,0,0,0,.31-1.36,2.59,2.59,0,0,0-.22-1.13,2.64,2.64,0,0,0-.7-.9,3.77,3.77,0,0,0-2.57-.77h-6.17v10.9h6.43a4.84,4.84,0,0,0,2.93-.81,2.51,2.51,0,0,0,.79-.95,2.78,2.78,0,0,0,.26-1.23A2.85,2.85,0,0,0,241.5,24.77Zm-6.83-4h2.14q1.47,0,1.47,1.11c0,.75-.49,1.12-1.47,1.12h-2.14Zm2.62,6.62h-2.62V24.92h2.62c1.07,0,1.6.4,1.6,1.22S238.36,27.36,237.29,27.36Z"/><path class="cls-1" d="M254.8,27.15c-.51,0-.77-.29-.77-.84V22.63a3.78,3.78,0,0,0-.34-1.75,3.63,3.63,0,0,0-1.1-1.41,5.93,5.93,0,0,0-3.76-1.13,8.57,8.57,0,0,0-4,.88v2.57a6.38,6.38,0,0,1,3.3-.91c1.92,0,2.88.67,2.88,2.05v.33a6.67,6.67,0,0,0-3.14-.69,5.14,5.14,0,0,0-3,.92,3.15,3.15,0,0,0-1.27,2.68,3.17,3.17,0,0,0,.27,1.43,3.29,3.29,0,0,0,.85,1.2,4.2,4.2,0,0,0,2.9,1,5.24,5.24,0,0,0,2-.34,5,5,0,0,0,1.72-1.15,2.41,2.41,0,0,0,2.47,1.4,2.71,2.71,0,0,0,1.66-.45V27A1.37,1.37,0,0,1,254.8,27.15ZM251,26.31a2.89,2.89,0,0,1-1.09.87,3,3,0,0,1-1.38.26,2.49,2.49,0,0,1-1.42-.38,1.13,1.13,0,0,1-.4-.46,1.14,1.14,0,0,1-.12-.58,1.07,1.07,0,0,1,.15-.61,1,1,0,0,1,.43-.44,2.83,2.83,0,0,1,1.56-.38,4,4,0,0,1,2.27.63Z"/><path class="cls-1" d="M260.65,29.53h-3.08V18.62h3.08v4.05h4.48V18.62h3.09V29.53h-3.09V25.24h-4.48Z"/><path class="cls-1" d="M274.12,29.53h-2.89V18.62h3v6.43l4.94-6.42h2.88v10.9h-3V23.1Z"/><path class="cls-1" d="M295.26,24.11A6.11,6.11,0,0,0,293.84,20a4.74,4.74,0,0,0-1.69-1.29,4.84,4.84,0,0,0-2.09-.4,5.5,5.5,0,0,0-2.23.39A5.66,5.66,0,0,0,286,20a5.73,5.73,0,0,0-1.19,1.87,5.6,5.6,0,0,0-.38,2.18,5.34,5.34,0,0,0,.41,2.28,5.22,5.22,0,0,0,1.34,1.9,6.24,6.24,0,0,0,4.31,1.57,6.72,6.72,0,0,0,4.15-1.1V26.23a7.09,7.09,0,0,1-3.5,1,4.65,4.65,0,0,1-2.44-.6,2.28,2.28,0,0,1-.78-.7,2.56,2.56,0,0,1-.43-1h7.82ZM287.44,23a2.46,2.46,0,0,1,.79-1.6,2.5,2.5,0,0,1,1.7-.59,2.24,2.24,0,0,1,1.63.63,2.19,2.19,0,0,1,.67,1.56Z"/><path class="cls-1" d="M107.66,46.29a2.61,2.61,0,0,0-.58-.86,3.27,3.27,0,0,0-2.31-.8v-.57h-.66v.57a3.2,3.2,0,0,0-2.31.81,2.41,2.41,0,0,0-.59.86,2.58,2.58,0,0,0-.2,1,2.48,2.48,0,0,0,.2,1,2.44,2.44,0,0,0,.59.87,3.24,3.24,0,0,0,2.31.78v.64h.66V50a3.22,3.22,0,0,0,2.31-.79,2.38,2.38,0,0,0,.58-.87,2.48,2.48,0,0,0,.21-1A2.54,2.54,0,0,0,107.66,46.29Zm-3.55,3.11a2.45,2.45,0,0,1-1-.13,2.69,2.69,0,0,1-.86-.48,2.15,2.15,0,0,1,0-3,3.25,3.25,0,0,1,.85-.49,3,3,0,0,1,1-.12Zm3-1.33a1.84,1.84,0,0,1-.41.65,1.92,1.92,0,0,1-.76.49,3.56,3.56,0,0,1-1.12.19V45.22a2.87,2.87,0,0,1,1,.12,2.71,2.71,0,0,1,.86.49,2.11,2.11,0,0,1,.45.69,1.94,1.94,0,0,1,.14.79A2.17,2.17,0,0,1,107.06,48.07Z"/><path class="cls-1" d="M113.4,48.28a2.46,2.46,0,0,0-.12-.76,2.66,2.66,0,0,0-.35-.72,1.61,1.61,0,0,0-.62-.54,2,2,0,0,0-.92-.22,2,2,0,0,0-.86.17,1.82,1.82,0,0,0-.71.49,2.27,2.27,0,0,0,.07,3.23,2.43,2.43,0,0,0,1.69.61,2.34,2.34,0,0,0,1.5-.39v-.58a2.58,2.58,0,0,1-1.38.4,2,2,0,0,1-1.28-.41,1.57,1.57,0,0,1-.55-1.1h3.53Zm-3.52-.35a1.4,1.4,0,0,1,.43-.91,1.38,1.38,0,0,1,.49-.3,1.2,1.2,0,0,1,.56-.09,1.08,1.08,0,0,1,.56.08,1.32,1.32,0,0,1,.46.32,1.48,1.48,0,0,1,.37.9Z"/><path class="cls-1" d="M118.78,49.89V46.15h-3.19v.61a5.39,5.39,0,0,1-.73,3.13h-.54v1.83h.61V50.45h4v1.27h.62V49.89Zm-.64,0h-2.58a5.53,5.53,0,0,0,.62-2.92v-.25h2Z"/><path class="cls-1" d="M124.77,48.28a2.46,2.46,0,0,0-.12-.76,3,3,0,0,0-.34-.72,1.72,1.72,0,0,0-.63-.54,2,2,0,0,0-.92-.22,1.93,1.93,0,0,0-.85.17,1.78,1.78,0,0,0-.72.49,2.28,2.28,0,0,0-.61,1.6,2.19,2.19,0,0,0,.68,1.63,2.43,2.43,0,0,0,1.69.61,2.34,2.34,0,0,0,1.5-.39v-.58a2.58,2.58,0,0,1-1.38.4,2,2,0,0,1-1.28-.41,1.57,1.57,0,0,1-.55-1.1h3.53Zm-3.52-.35a1.36,1.36,0,0,1,.44-.91,1.34,1.34,0,0,1,.48-.3,1.22,1.22,0,0,1,.57-.09,1,1,0,0,1,.55.08,1.23,1.23,0,0,1,.46.32,1.42,1.42,0,0,1,.37.9Z"/><path class="cls-1" d="M130.1,46.71a1.74,1.74,0,0,0-.71-.5,1.93,1.93,0,0,0-.85-.17,2.12,2.12,0,0,0-.93.19,2,2,0,0,0-.73.6v-.68h-.64v6.07h.64V49.76a1.82,1.82,0,0,0,.73.59,1.88,1.88,0,0,0,.93.19,2.06,2.06,0,0,0,.85-.14,2.36,2.36,0,0,0,.71-3.69Zm-.17,2.23a1.54,1.54,0,0,1-.36.55,1.32,1.32,0,0,1-.54.36,1.55,1.55,0,0,1-.64.12,1.72,1.72,0,0,1-.91-.26,1.7,1.7,0,0,1-.6-.7V47.58a1.72,1.72,0,0,1,.62-.69,1.63,1.63,0,0,1,.89-.26,1.54,1.54,0,0,1,.64.1,1.58,1.58,0,0,1,.54.37,1.64,1.64,0,0,1,.36.55,1.54,1.54,0,0,1,.11.64A1.59,1.59,0,0,1,129.93,48.94Z"/><path class="cls-1" d="M136.15,49.94a.41.41,0,0,1-.16,0,.41.41,0,0,1-.14-.12.65.65,0,0,1-.11-.38V47.64a1.38,1.38,0,0,0-.12-.66,1.28,1.28,0,0,0-.4-.52,2.25,2.25,0,0,0-1.4-.42,3,3,0,0,0-1.54.4v.61a2.46,2.46,0,0,1,1.41-.42c.94,0,1.41.34,1.41,1.07v.43a2.9,2.9,0,0,0-1.54-.42,2,2,0,0,0-1.27.37,1.26,1.26,0,0,0-.37.46,1.2,1.2,0,0,0-.12.59,1.3,1.3,0,0,0,.11.58,1.35,1.35,0,0,0,.36.47,1.73,1.73,0,0,0,1.16.36,2.09,2.09,0,0,0,1-.16,2.37,2.37,0,0,0,.78-.59.76.76,0,0,0,.27.51.75.75,0,0,0,.54.17.76.76,0,0,0,.42-.08v-.5A.53.53,0,0,1,136.15,49.94Zm-1.05-.68a1.92,1.92,0,0,1-.65.51,1.76,1.76,0,0,1-.84.2,1.36,1.36,0,0,1-.85-.24.63.63,0,0,1-.24-.27.71.71,0,0,1-.08-.38.7.7,0,0,1,.08-.36.63.63,0,0,1,.26-.25,1.6,1.6,0,0,1,.93-.24,2.48,2.48,0,0,1,1.39.43Z"/><path class="cls-1" d="M137.14,50.44v-.58h.17c.37,0,.63-.24.76-.72a6.88,6.88,0,0,0,.22-1.63l0-1.37h3.21v4.29h-.64V46.71h-2l0,.83c0,.32,0,.55,0,.69a4.29,4.29,0,0,1-.26,1.28,1.63,1.63,0,0,1-.49.7,1.09,1.09,0,0,1-.8.24Z"/><path class="cls-1" d="M147,48.45a1.36,1.36,0,0,0-.34-.48,1.81,1.81,0,0,0-1.19-.39H144V46.15h-.64v4.3h2.17a1.74,1.74,0,0,0,1.18-.4,1.37,1.37,0,0,0,.33-.48,1.45,1.45,0,0,0,.1-.55A1.35,1.35,0,0,0,147,48.45Zm-.61.93a.83.83,0,0,1-.22.28,1.38,1.38,0,0,1-.79.23H144V48.15h1.41a1.31,1.31,0,0,1,.79.23.7.7,0,0,1,.22.29.86.86,0,0,1,.07.36A.84.84,0,0,1,146.37,49.38Z"/><path class="cls-1" d="M149.2,50.44h-.65V46.15h.65V48h2.64v-1.8h.64v4.29h-.64V48.53H149.2Z"/><path class="cls-1" d="M158.52,46.15v4.3h.64v-4.3Zm-.81,2.3a1.5,1.5,0,0,0-.34-.48,1.86,1.86,0,0,0-1.2-.39h-1.28V46.15h-.64v4.3h1.95a1.74,1.74,0,0,0,1.18-.4,1.15,1.15,0,0,0,.33-.48,1.28,1.28,0,0,0,.1-.55A1.34,1.34,0,0,0,157.71,48.45Zm-.61.93a1,1,0,0,1-.22.28,1.38,1.38,0,0,1-.79.23h-1.2V48.15h1.2a1.31,1.31,0,0,1,.79.23.8.8,0,0,1,.22.29.72.72,0,0,1,.06.36A.7.7,0,0,1,157.1,49.38Z"/><path class="cls-1" d="M163.81,44.06a.77.77,0,0,1-.07.34.84.84,0,0,1-.18.28.9.9,0,0,1-.3.17.75.75,0,0,1-.33.06.7.7,0,0,1-.35-.06.77.77,0,0,1-.29-.17.87.87,0,0,1-.19-.28.76.76,0,0,1,0-.34h-.57a1.33,1.33,0,0,0,.1.54,1.21,1.21,0,0,0,.31.45,1.54,1.54,0,0,0,1.05.38,1.45,1.45,0,0,0,1-.39,1.1,1.1,0,0,0,.31-.44,1.33,1.33,0,0,0,.1-.54Zm.52,2.09-2.75,3.36V46.15h-.64v4.3h.59l2.75-3.36v3.36h.64v-4.3Z"/><path class="cls-1" d="M170,50.44h-.64V46.15h3.86v4.29h-.64V46.71H170Z"/><path class="cls-1" d="M178.63,46.72a2.39,2.39,0,0,0-3.34,0,2.23,2.23,0,0,0-.65,1.58,2.28,2.28,0,0,0,.65,1.6,2.5,2.5,0,0,0,3.34,0,2.28,2.28,0,0,0,.65-1.6A2.23,2.23,0,0,0,178.63,46.72ZM178.5,49a1.58,1.58,0,0,1-.35.53A1.72,1.72,0,0,1,177,50a1.71,1.71,0,0,1-1.19-.49,1.69,1.69,0,0,1-.47-1.19,1.72,1.72,0,0,1,.47-1.19,1.69,1.69,0,0,1,1.19-.47,1.7,1.7,0,0,1,1.19.47,1.92,1.92,0,0,1,.36.56,1.49,1.49,0,0,1,.11.64A1.47,1.47,0,0,1,178.5,49Z"/><path class="cls-1" d="M184.6,46.71a1.74,1.74,0,0,0-.71-.5A1.93,1.93,0,0,0,183,46a2.12,2.12,0,0,0-.93.19,2,2,0,0,0-.73.6v-.68h-.64v6.07h.64V49.76a1.82,1.82,0,0,0,.73.59,1.88,1.88,0,0,0,.93.19,2.06,2.06,0,0,0,.85-.14,2.36,2.36,0,0,0,.71-3.69Zm-.53,2.78a1.39,1.39,0,0,1-.54.36,1.55,1.55,0,0,1-.64.12,1.72,1.72,0,0,1-.91-.26,1.63,1.63,0,0,1-.6-.7V47.58a1.54,1.54,0,0,1,.61-.68,1.61,1.61,0,0,1,.9-.27,1.54,1.54,0,0,1,.64.1,1.58,1.58,0,0,1,.54.37,1.64,1.64,0,0,1,.36.55,1.54,1.54,0,0,1,.11.64A1.68,1.68,0,0,1,184.07,49.49Z"/><path class="cls-1" d="M188.18,50.44h-.64V46.71H186v-.56h3.76v.56h-1.56Z"/><path class="cls-1" d="M195,49.94a.51.51,0,0,1-.17,0,.49.49,0,0,1-.13-.12.58.58,0,0,1-.11-.38V47.64a1.52,1.52,0,0,0-.12-.66,1.37,1.37,0,0,0-.4-.52,2.27,2.27,0,0,0-1.4-.42,3,3,0,0,0-1.54.4v.61a2.61,2.61,0,0,1,1.41-.42c.94,0,1.41.34,1.41,1.07v.43a2.91,2.91,0,0,0-1.55-.42,2,2,0,0,0-1.26.37,1.26,1.26,0,0,0-.37.46,1.34,1.34,0,0,0-.13.59,1.31,1.31,0,0,0,.12.58,1.45,1.45,0,0,0,.35.47,1.77,1.77,0,0,0,1.17.36,2.12,2.12,0,0,0,1-.16,2.48,2.48,0,0,0,.78-.59.72.72,0,0,0,.27.51.74.74,0,0,0,.53.17.79.79,0,0,0,.43-.08v-.5A.53.53,0,0,1,195,49.94Zm-1-.68a1.92,1.92,0,0,1-.65.51,1.76,1.76,0,0,1-.84.2,1.36,1.36,0,0,1-.85-.24.81.81,0,0,1-.25-.27,1,1,0,0,1-.08-.38.83.83,0,0,1,.09-.36.63.63,0,0,1,.26-.25,1.6,1.6,0,0,1,.93-.24,2.48,2.48,0,0,1,1.39.43Z"/><path class="cls-1" d="M196,50.44v-.58h.17c.37,0,.63-.24.76-.72a6.39,6.39,0,0,0,.21-1.63l0-1.37h3.21v4.29h-.64V46.71h-2l0,.83q0,.48,0,.69a4.29,4.29,0,0,1-.26,1.28,1.71,1.71,0,0,1-.49.7,1.09,1.09,0,0,1-.8.24Z"/><polygon class="cls-2" points="56.59 48.95 45.64 67.92 45.63 67.91 56.59 48.95"/><polygon class="cls-2" points="78.56 49.45 67.6 68.43 46.49 68.43 57.46 49.45 78.56 49.45"/><polygon class="cls-2" points="27.86 37.47 23.55 29.7 17.67 19.09 28.41 0.5 38.81 18.51 27.86 37.47"/><path class="cls-2" d="M60.78,19l-6,10.43H46.19a.49.49,0,0,0-.43.25s0,0,0,0L41,38H28.71l11-19Z"/><polygon class="cls-2" points="50.38 0 60.78 18.01 39.68 18.01 36.51 12.52 29.27 0 50.38 0"/><polygon class="cls-2" points="27.86 37.47 23.55 29.7 17.67 19.09 28.41 0.5 38.81 18.51 27.86 37.47"/><path class="cls-1" d="M29.28,0h0l7.24,12.52Z"/><polygon class="cls-2" points="60.78 18.01 39.68 18.01 36.51 12.52 29.27 0 50.38 0 60.78 18.01"/><path class="cls-2" d="M60.78,19l-6,10.43H46.19a.49.49,0,0,0-.43.25s0,0,0,0L41,38H28.71l11-19Z"/><path class="cls-2" d="M56.59,49l-11,19L39.74,57.28l4.67-8.08a.5.5,0,0,0,0-.5l-4.24-7.34L41.54,39l.29-.5.29-.5,4.07-7L50,37.61l.29.5.29.5Z"/><polygon class="cls-2" points="56.59 48.95 45.64 67.92 45.63 67.91 56.59 48.95"/><polygon class="cls-2" points="78.56 49.45 67.6 68.43 46.49 68.43 57.46 49.45 78.56 49.45"/><path class="cls-1" d="M45.63,67.91h0l11-19Z"/><polygon class="cls-2" points="78.56 48.45 57.46 48.45 51.19 37.61 50.91 37.11 50.62 36.61 47.05 30.44 68.16 30.44 78.56 48.45"/><polygon class="cls-2" points="21.14 48.95 10.18 67.92 0 49.53 10.74 30.95 21.14 48.95"/><polygon class="cls-2" points="43.11 49.45 39.18 56.26 38.89 56.76 38.6 57.27 32.15 68.43 11.04 68.43 22 49.45 43.11 49.45"/><path class="cls-2" d="M43.11,48.45H22l-10.4-18H22.82l4.59,8.29a0,0,0,0,0,0,0,.39.39,0,0,0,.08.1.47.47,0,0,0,.35.15h9.8L39,41.37l.29.49.28.5Z"/></g></g></svg>