<svg width="203" height="77" viewBox="0 0 203 77" xmlns="http://www.w3.org/2000/svg"><title>Group</title><path d="M1.637.852c-.797 0-1.47.671-1.47 1.47 0 .797.673 1.468 1.47 1.468.798 0 1.47-.671 1.47-1.469S2.435.851 1.637.851m8.774 2.898c.798 0 1.47-.672 1.47-1.47 0-.798-.672-1.47-1.47-1.47-.797 0-1.469.672-1.469 1.47 0 .798.63 1.47 1.47 1.47m8.732 0c.797 0 1.469-.672 1.469-1.47 0-.798-.672-1.47-1.47-1.47-.797 0-1.469.672-1.469 1.47 0 .798.672 1.47 1.47 1.47M1.637 62.145c-.797 0-1.47.672-1.47 1.47 0 .797.673 1.469 1.47 1.469.798 0 1.47-.672 1.47-1.47 0-.797-.672-1.47-1.47-1.47m8.774.001c-.797 0-1.469.672-1.469 1.47 0 .797.672 1.469 1.47 1.469.797 0 1.469-.672 1.469-1.47-.042-.797-.672-1.47-1.47-1.47m8.733.001c-.798 0-1.47.672-1.47 1.47 0 .797.672 1.469 1.47 1.469.797 0 1.469-.672 1.469-1.47 0-.797-.63-1.47-1.47-1.47m8.775-58.395c.797 0 1.47-.672 1.47-1.47 0-.798-.673-1.47-1.47-1.47-.798 0-1.47.672-1.47 1.47 0 .798.672 1.47 1.47 1.47m8.774 0c.797 0 1.47-.672 1.47-1.47 0-.798-.672-1.47-1.47-1.47-.798 0-1.47.672-1.47 1.47 0 .798.63 1.47 1.47 1.47m8.732 0c.798 0 1.47-.672 1.47-1.47 0-.798-.672-1.47-1.47-1.47-.798 0-1.47.672-1.47 1.47 0 .798.672 1.47 1.47 1.47m8.774 0c.798 0 1.47-.672 1.47-1.47 0-.798-.672-1.47-1.47-1.47-.798 0-1.47.672-1.47 1.47 0 .798.672 1.47 1.47 1.47m8.774 0c.798 0 1.47-.672 1.47-1.47 0-.798-.672-1.47-1.47-1.47-.797 0-1.47.672-1.47 1.47 0 .798.673 1.47 1.47 1.47M1.637 70.919c-.797 0-1.47.672-1.47 1.47 0 .797.673 1.469 1.47 1.469.798 0 1.47-.672 1.47-1.47 0-.797-.672-1.47-1.47-1.47m8.774.001c-.797 0-1.469.672-1.469 1.47 0 .797.672 1.469 1.47 1.469.797 0 1.469-.672 1.469-1.47-.042-.797-.672-1.47-1.47-1.47m8.733.001c-.798 0-1.47.672-1.47 1.47 0 .797.672 1.469 1.47 1.469.797 0 1.469-.672 1.469-1.47 0-.797-.63-1.47-1.47-1.47m8.775.001c-.798 0-1.47.672-1.47 1.47 0 .797.672 1.469 1.47 1.469.797 0 1.47-.672 1.47-1.47a1.49 1.49 0 0 0-1.47-1.47m8.774.001c-.798 0-1.47.672-1.47 1.47 0 .797.672 1.469 1.47 1.469.797 0 1.47-.672 1.47-1.47-.043-.797-.672-1.47-1.47-1.47m8.732.001c-.798 0-1.47.672-1.47 1.47 0 .797.672 1.469 1.47 1.469.798 0 1.47-.672 1.47-1.47 0-.797-.63-1.47-1.47-1.47m8.774.001c-.798 0-1.47.672-1.47 1.47 0 .797.672 1.469 1.47 1.469.798 0 1.47-.672 1.47-1.47 0-.797-.672-1.47-1.47-1.47m8.774.001c-.797 0-1.47.672-1.47 1.47 0 .797.673 1.469 1.47 1.469.798 0 1.47-.672 1.47-1.47 0-.797-.672-1.47-1.47-1.47m-8.774-8.773c-.798 0-1.47.672-1.47 1.47 0 .797.672 1.469 1.47 1.469.798 0 1.47-.672 1.47-1.47 0-.797-.672-1.47-1.47-1.47m8.774.001c-.797 0-1.47.672-1.47 1.47 0 .797.673 1.469 1.47 1.469.798 0 1.47-.672 1.47-1.47 0-.797-.672-1.47-1.47-1.47m0-8.731c-.797 0-1.47.671-1.47 1.469s.673 1.47 1.47 1.47c.798 0 1.47-.672 1.47-1.47 0-.84-.672-1.47-1.47-1.47m8.732-49.663c.798 0 1.47-.672 1.47-1.47 0-.798-.672-1.47-1.47-1.47-.797 0-1.469.672-1.469 1.47 0 .798.672 1.47 1.47 1.47M1.637 27.132c-.797 0-1.47.672-1.47 1.47 0 .797.673 1.469 1.47 1.469.798 0 1.47-.672 1.47-1.47 0-.797-.672-1.469-1.47-1.469m35.055 7.641a2.544 2.544 0 0 0-2.561 2.56 2.544 2.544 0 0 0 2.56 2.562 2.544 2.544 0 0 0 2.562-2.561 2.571 2.571 0 0 0-2.561-2.561m35.012-7.641c-.797 0-1.469.672-1.469 1.47 0 .797.672 1.469 1.47 1.469.797 0 1.469-.672 1.469-1.47a1.46 1.46 0 0 0-1.47-1.469M1.637 9.584c-.797 0-1.47.672-1.47 1.47 0 .797.673 1.469 1.47 1.469.798 0 1.47-.672 1.47-1.47 0-.797-.672-1.47-1.47-1.47m8.774 2.94c.798 0 1.47-.672 1.47-1.47 0-.797-.672-1.47-1.47-1.47-.797 0-1.469.673-1.469 1.47 0 .798.63 1.47 1.47 1.47m8.732 0c.797 0 1.469-.672 1.469-1.47 0-.797-.672-1.47-1.47-1.47-.797 0-1.469.673-1.469 1.47 0 .798.672 1.47 1.47 1.47m35.054 0c.798 0 1.47-.672 1.47-1.47 0-.797-.672-1.47-1.47-1.47-.798 0-1.47.673-1.47 1.47 0 .798.672 1.47 1.47 1.47m8.774 0c.798 0 1.47-.672 1.47-1.47 0-.797-.672-1.47-1.47-1.47a1.49 1.49 0 0 0-1.47 1.47c0 .798.673 1.47 1.47 1.47m8.732-2.939c-.797 0-1.469.672-1.469 1.47 0 .797.672 1.469 1.47 1.469.797 0 1.469-.672 1.469-1.47 0-.797-.63-1.47-1.47-1.47M1.637 18.358c-.797 0-1.47.672-1.47 1.47 0 .797.673 1.469 1.47 1.469.798 0 1.47-.672 1.47-1.47 0-.797-.672-1.469-1.47-1.469m8.774 2.939c.798 0 1.47-.672 1.47-1.47 0-.797-.672-1.469-1.47-1.469-.797 0-1.469.672-1.469 1.47 0 .797.63 1.469 1.47 1.469m52.56 0c.798 0 1.47-.672 1.47-1.47 0-.797-.672-1.469-1.47-1.469-.797 0-1.47.672-1.47 1.47 0 .797.673 1.469 1.47 1.469m8.732-2.939c-.797 0-1.469.672-1.469 1.47 0 .797.672 1.469 1.47 1.469.797 0 1.469-.672 1.469-1.47a1.46 1.46 0 0 0-1.47-1.469m0 17.506c-.797 0-1.469.672-1.469 1.47 0 .797.672 1.47 1.47 1.47.797 0 1.469-.673 1.469-1.47 0-.798-.63-1.47-1.47-1.47m0 26.281c-.797 0-1.469.672-1.469 1.47 0 .797.672 1.469 1.47 1.469.797 0 1.469-.672 1.469-1.47 0-.797-.63-1.47-1.47-1.47m0 8.775c-.797 0-1.469.672-1.469 1.47 0 .797.672 1.469 1.47 1.469.797 0 1.469-.672 1.469-1.47 0-.797-.63-1.47-1.47-1.47m0-26.279c-.797 0-1.469.671-1.469 1.469s.672 1.47 1.47 1.47c.797 0 1.469-.672 1.469-1.47 0-.798-.63-1.47-1.47-1.47m0 8.775c-.797 0-1.469.671-1.469 1.469s.672 1.47 1.47 1.47c.797 0 1.469-.672 1.469-1.47 0-.84-.63-1.47-1.47-1.47m-70.067.001c-.797 0-1.47.671-1.47 1.469s.673 1.47 1.47 1.47c.798 0 1.47-.672 1.47-1.47 0-.84-.672-1.47-1.47-1.47m0-8.773c-.797 0-1.47.671-1.47 1.469s.673 1.47 1.47 1.47c.798 0 1.47-.672 1.47-1.47 0-.798-.672-1.47-1.47-1.47m0-8.774c-.797 0-1.47.672-1.47 1.47 0 .797.673 1.47 1.47 1.47.798 0 1.47-.673 1.47-1.47 0-.798-.672-1.47-1.47-1.47m8.774 17.549c-.797 0-1.469.671-1.469 1.469s.672 1.47 1.47 1.47c.797 0 1.469-.672 1.469-1.47-.042-.84-.672-1.47-1.47-1.47m26.281 8.313c-1.05 0-1.89.84-1.89 1.89 0 1.049.84 1.888 1.89 1.888 1.05 0 1.889-.84 1.889-1.889 0-1.05-.84-1.889-1.89-1.889m8.733 0c-1.05 0-1.89.84-1.89 1.89 0 1.049.84 1.888 1.89 1.888 1.05 0 1.89-.84 1.89-1.889.041-1.05-.84-1.889-1.89-1.889m-17.506 0c-1.05 0-1.89.84-1.89 1.89 0 1.049.84 1.888 1.89 1.888 1.05 0 1.889-.84 1.889-1.889 0-1.05-.84-1.889-1.89-1.889m8.775-48.783c1.05 0 1.889-.84 1.889-1.889 0-1.05-.84-1.889-1.89-1.889-1.049 0-1.888.84-1.888 1.89-.042 1.049.84 1.888 1.889 1.888m8.732 0c1.05 0 1.89-.84 1.89-1.889 0-1.05-.84-1.889-1.89-1.889-1.05 0-1.89.84-1.89 1.89 0 1.049.84 1.888 1.89 1.888m8.774 8.775c1.05 0 1.89-.84 1.89-1.89 0-1.05-.84-1.889-1.89-1.889-1.05 0-1.889.84-1.889 1.89 0 1.049.84 1.889 1.89 1.889m8.773 4.953c-1.05 0-1.889.84-1.889 1.89 0 1.05.84 1.889 1.89 1.889 1.049 0 1.888-.84 1.888-1.89 0-1.049-.84-1.889-1.889-1.889m0 8.775c-1.05 0-1.889.84-1.889 1.889 0 1.05.84 1.889 1.89 1.889 1.049 0 1.888-.84 1.888-1.89a1.88 1.88 0 0 0-1.889-1.888m0 8.774c-1.05 0-1.889.84-1.889 1.889 0 1.05.84 1.889 1.89 1.889 1.049 0 1.888-.84 1.888-1.89a1.88 1.88 0 0 0-1.889-1.888M10.411 26.67c-1.05 0-1.889.84-1.889 1.89 0 1.05.84 1.889 1.89 1.889 1.049 0 1.889-.84 1.889-1.89 0-1.049-.84-1.889-1.89-1.889m0 8.775c-1.05 0-1.889.84-1.889 1.889 0 1.05.84 1.889 1.89 1.889 1.049 0 1.889-.84 1.889-1.89 0-1.049-.84-1.888-1.89-1.888m0 8.774c-1.05 0-1.889.84-1.889 1.889 0 1.05.84 1.889 1.89 1.889 1.049 0 1.889-.84 1.889-1.89 0-1.049-.84-1.888-1.89-1.888m43.787 8.731c-1.05 0-1.889.84-1.889 1.89 0 1.05.84 1.89 1.89 1.89 1.049 0 1.888-.84 1.888-1.89 0-1.05-.84-1.89-1.889-1.89M19.144 21.717c1.05 0 1.889-.84 1.889-1.89 0-1.05-.84-1.889-1.89-1.889-1.049 0-1.889.84-1.889 1.89 0 1.049.84 1.889 1.89 1.889m0 31.233c-1.05 0-1.89.84-1.89 1.89 0 1.05.84 1.89 1.89 1.89 1.05 0 1.889-.84 1.889-1.89.042-1.05-.84-1.89-1.89-1.89m8.775-40.008c1.05 0 1.889-.84 1.889-1.889 0-1.05-.84-1.889-1.89-1.889-1.049 0-1.888.84-1.888 1.89a1.88 1.88 0 0 0 1.889 1.888m8.774 30.815a2.347 2.347 0 0 0-2.351 2.35 2.347 2.347 0 0 0 2.35 2.352 2.347 2.347 0 0 0 2.352-2.351c0-1.302-1.092-2.351-2.351-2.351m8.732 0a2.347 2.347 0 0 0-2.351 2.35 2.347 2.347 0 0 0 2.351 2.352 2.347 2.347 0 0 0 2.351-2.351 2.347 2.347 0 0 0-2.351-2.351m-17.506 0a2.347 2.347 0 0 0-2.351 2.35 2.347 2.347 0 0 0 2.35 2.352 2.347 2.347 0 0 0 2.352-2.351 2.347 2.347 0 0 0-2.351-2.351m8.774-12.847a2.347 2.347 0 0 0 2.35-2.35 2.347 2.347 0 0 0-2.35-2.351 2.347 2.347 0 0 0-2.351 2.35 2.347 2.347 0 0 0 2.35 2.352m8.733-4.661a2.347 2.347 0 0 0-2.351 2.352 2.347 2.347 0 0 0 2.351 2.35 2.347 2.347 0 0 0 2.351-2.35 2.347 2.347 0 0 0-2.351-2.351m-17.506-.001a2.347 2.347 0 0 0-2.351 2.352 2.347 2.347 0 0 0 2.35 2.35 2.347 2.347 0 0 0 2.352-2.35 2.347 2.347 0 0 0-2.351-2.351m17.506 8.732a2.347 2.347 0 0 0-2.351 2.35 2.347 2.347 0 0 0 2.351 2.352 2.347 2.347 0 0 0 2.351-2.351 2.347 2.347 0 0 0-2.351-2.351m-17.506 0a2.347 2.347 0 0 0-2.351 2.35 2.347 2.347 0 0 0 2.35 2.352 2.347 2.347 0 0 0 2.352-2.351 2.347 2.347 0 0 0-2.351-2.351M45.424 52.74c-1.175 0-2.1.967-2.1 2.1 0 1.175.967 2.1 2.1 2.1 1.175 0 2.1-.966 2.1-2.1.041-1.133-.925-2.1-2.1-2.1m-8.732 0c-1.176 0-2.1.967-2.1 2.1 0 1.175.966 2.1 2.1 2.1a2.106 2.106 0 0 0 2.099-2.1c0-1.133-.924-2.1-2.1-2.1m-8.773 0c-1.176 0-2.1.967-2.1 2.1 0 1.175.966 2.1 2.1 2.1a2.106 2.106 0 0 0 2.099-2.1c0-1.133-.924-2.1-2.1-2.1m17.507-30.813c1.175 0 2.1-.966 2.1-2.1 0-1.133-.966-2.099-2.1-2.099-1.175 0-2.1.966-2.1 2.1 0 1.133.967 2.099 2.1 2.099m8.774 4.533a2.106 2.106 0 0 0-2.099 2.1c0 1.133.966 2.099 2.1 2.099a2.105 2.105 0 0 0 2.098-2.1 2.104 2.104 0 0 0-2.099-2.098m0 8.774a2.105 2.105 0 0 0-2.099 2.099c0 1.133.966 2.099 2.1 2.099a2.105 2.105 0 0 0 2.098-2.1 2.104 2.104 0 0 0-2.099-2.098m0 8.732a2.105 2.105 0 0 0-2.099 2.099c0 1.175.966 2.099 2.1 2.099a2.105 2.105 0 0 0 2.098-2.1 2.104 2.104 0 0 0-2.099-2.098M19.144 26.46c-1.176 0-2.1.966-2.1 2.1 0 1.133.966 2.099 2.1 2.099a2.106 2.106 0 0 0 2.099-2.1 2.105 2.105 0 0 0-2.1-2.098m.001 8.774c-1.176 0-2.1.965-2.1 2.099 0 1.133.966 2.099 2.1 2.099a2.106 2.106 0 0 0 2.099-2.1 2.105 2.105 0 0 0-2.1-2.098m.001 8.732c-1.176 0-2.1.965-2.1 2.099 0 1.175.966 2.099 2.1 2.099a2.106 2.106 0 0 0 2.099-2.1c.042-1.133-.924-2.098-2.1-2.098m17.549-22.04a2.106 2.106 0 0 0 2.099-2.1c0-1.133-.966-2.099-2.1-2.099a2.105 2.105 0 0 0-2.098 2.1c0 1.133.923 2.099 2.099 2.099m-8.774 0a2.106 2.106 0 0 0 2.099-2.1c0-1.133-.966-2.099-2.1-2.099a2.105 2.105 0 0 0-2.098 2.1c0 1.133.923 2.099 2.099 2.099m68.598 5.457h-5.71l-1.805-1.68v-5.667l1.805-1.679h5.71v1.05H91.31l-1.092 1.007v4.912l1.092 1.008h5.206zm5.835-5.541h-2.183l-.966.923v2.855l.966.881h2.183l.966-.881v-2.855l-.966-.923zm-2.729-1.05h3.233l1.595 1.47v3.736l-1.595 1.47h-3.233l-1.595-1.47v-3.737l1.595-1.469zm7.851 5.542h3.106l.714-.63v-.462l-.756-.714h-3.064v1.806zm0-2.771h2.98l.504-.462v-.588l-.63-.587h-2.854v1.637zm4.996 1.385v1.218l-1.344 1.217h-4.786V20.92h4.492l1.302 1.175v1.344l-.63.588.966.923zm5.961-2.981h-2.267l-.84.756v3.61h2.98l.967-.881v-2.729l-.84-.756zm-3.317-.251l.84-.756h3.023l1.469 1.343v3.61l-1.595 1.47h-3.485v2.561h-1.175v-9.026h.755l.168.798zm8.187 2.015h3.736v-.966l-.965-.923h-1.806l-.965.923v.966zm3.274-2.939l1.596 1.47v2.434h-4.912v.714l.965.882h3.4v1.05h-3.945l-1.596-1.47v-3.61l1.596-1.47h2.896zm6.843 4.996l-2.267-3.065v4.66h-1.175v-6.423h1.175l2.687 3.652 2.729-3.652h1.175v6.423h-1.175v-4.66l-2.267 3.065zm7.347-2.057h3.736v-.966l-.965-.923h-1.805l-.966.923v.966zm3.275-2.939l1.595 1.47v2.434h-4.912v.714l.966.882h3.4v1.05h-3.946l-1.595-1.47v-3.61l1.595-1.47h2.897zm3.401 6.591V20.92h1.175v2.813h3.694V20.92h1.133v6.465h-1.133V24.74h-3.694v2.645zm8.06 0V20.92h1.175v2.813h3.694V20.92h1.134v6.465h-1.134V24.74h-3.694v2.645zm12.594-2.854h-3.107l-.713.63v.503l.713.63h2.267l.84-.756v-1.008zm-.588 2.854h-3.022l-1.344-1.217v-1.428l1.344-1.217h3.61v-.84l-.756-.714h-3.358v-1.05h3.862l1.427 1.302v5.164h-.755l-.126-.756-.882.756zm8.187-5.416h-2.855l-.714.63v.84l.714.63h2.855v-2.1zm1.175-1.05v6.466h-1.175v-2.267h-2.267l-1.47 2.267h-1.343l1.595-2.393-1.217-1.091v-1.722l1.343-1.217h4.534v-.042zM89 42.875V36.41h1.134v5.416h3.61V36.41h1.176v5.416h1.05v2.729h-1.176v-1.68zm8.355 0V36.41h1.176v4.828l3.82-4.828h1.133v6.465h-1.133v-4.87l-3.82 4.87zm15.239-4.534l-.965-.881h-1.47v4.366h1.47l.965-.882v-2.603zm-6.087 2.603l.966.882h1.47V37.46h-1.47l-.966.881v2.603zm3.61 4.492h-1.175v-2.56h-2.015l-1.595-1.47V37.92l1.595-1.469h2.015V33.85h1.176v2.561h2.015l1.595 1.47v3.484l-1.595 1.47h-2.015v2.602zm9.74-7.976h-2.267l-.84.755v3.61h2.981l.966-.88v-2.73l-.84-.755zm-3.358-.294l.84-.756h3.022l1.47 1.344v3.61l-1.596 1.47h-3.484v2.56h-1.176v-9.026h.756l.168.798zm11.377.168h-2.183l-.966.923v2.855l.966.882h2.183l.965-.882v-2.855l-.965-.923zm-2.73-1.05h3.233l1.596 1.47v3.736l-1.596 1.47h-3.232l-1.595-1.47v-3.736l1.595-1.47zm7.851 5.542h3.107l.714-.63v-.462l-.756-.713h-3.023v1.805h-.042zm0-2.771h2.981l.504-.462v-.588l-.63-.587h-2.855v1.637zm4.996 1.343v1.218l-1.343 1.217h-4.786v-6.465h4.534l1.301 1.176v1.343l-.63.588.924.923zm6.256-.378h-3.107l-.714.63v.504l.714.63h2.267l.84-.756v-1.007zm-.588 2.855h-3.023l-1.343-1.217V40.23l1.343-1.217h3.61v-.84l-.755-.713h-3.359v-1.05h3.863l1.427 1.302v5.163h-.756l-.126-.755-.881.755zm8.186-5.415h-2.855l-.713.63v.839l.713.63h2.855v-2.1zm1.176-1.05v6.465h-1.176v-2.267h-2.267l-1.47 2.267h-1.343l1.596-2.393-1.218-1.091v-1.763l1.344-1.218h4.534zM93.115 52.783h-2.183l-.966.924v2.854l.966.882h2.183l.966-.882v-2.854l-.966-.924zm-2.729-1.008h3.233l1.595 1.47v3.736l-1.595 1.47h-3.233l-1.595-1.47v-3.736l1.595-1.47zm11.125 1.848h-3.148v2.896l.965.924h2.183l.966-.924v-2.015l-.966-.881zm-2.728-4.325h4.366v1.05h-3.863l-.965.924v1.343h3.694l1.595 1.47v2.896l-1.595 1.47h-3.232l-1.596-1.47V50.81l1.596-1.512zm10.957 3.611h-2.267l-.84.756v3.61h2.98l.966-.882v-2.728l-.84-.756zm-3.359-.252l.84-.756h3.022l1.47 1.344v3.61l-1.595 1.47h-3.485v2.56h-1.175v-8.984h.755l.168.756zm11.755 2.855h-3.107l-.713.63v.503l.713.63h2.267l.84-.756v-1.007zm-.588 2.812h-3.022l-1.344-1.217V55.68l1.344-1.218h3.61v-.84l-.756-.713h-3.358V51.9h3.862l1.427 1.302v5.163h-.755l-.126-.755-.882.713zm4.66-3.736h2.477l.672-.588v-.503l-.672-.588h-3.778V51.9h4.324l1.26 1.134v1.301l-.756.714.881.84v1.217l-1.343 1.217h-4.576v-1.007h4.072l.714-.672v-.462l-.672-.545h-2.603zm10.286-1.805h-2.183l-.966.924v2.854l.966.882h2.183l.965-.882v-2.854l-.965-.924zm-2.687-1.008h3.232l1.596 1.47v3.736l-1.596 1.47h-3.232l-1.595-1.47v-3.736l1.595-1.47zm7.85 5.542h3.107l.714-.63v-.462l-.756-.713H137.7v1.805h-.042zm0-2.77h2.981l.504-.463v-.587l-.63-.588h-2.855v1.637zm4.954 1.343v1.217l-1.343 1.217h-4.786v-6.423h4.492l1.301 1.176v1.343l-.63.588.966.882zm6.255-.378h-3.106l-.714.63v.503l.714.63h2.267l.84-.756v-1.007zm-.587 2.812h-3.023l-1.343-1.217V55.68l1.343-1.218h3.61v-.84l-.755-.713h-3.359V51.9h3.863l1.427 1.302v5.163h-.756l-.126-.755-.881.713zm5.247 0V52.91h-2.476V51.9h6.087v1.008h-2.477v5.415zm5.542-3.652h3.736v-.965l-.965-.924h-1.805l-.966.924v.965zm3.275-2.897l1.595 1.47v2.435h-4.912v.713l.966.882h3.4v1.05h-3.862l-1.596-1.47v-3.61l1.596-1.47h2.813zm4.45.126h5.163v6.423h-1.175V52.91h-2.897l-.336 4.114-1.511 1.427h-1.176v-1.007h.588l.966-.84zm8.396 5.416h2.855l.713-.63v-.881l-.713-.63h-2.855v2.14zm-1.176 1.007v-6.423h1.176v2.183h3.358l1.344 1.218v1.805l-1.344 1.217h-4.534zm7.431 0v-6.423h1.134v2.771h3.694v-2.77h1.175v6.422h-1.175V55.68h-3.694v2.644zm12.553-2.812h-3.107l-.714.63v.503l.714.63h2.267l.84-.756v-1.007zm-.588 2.812h-3.023l-1.343-1.217V55.68l1.343-1.218h3.61v-.84l-.755-.713h-3.359V51.9h3.863l1.427 1.302v5.163h-.798l-.125-.755-.84.713zm8.186-5.415h-2.854l-.714.63v.84l.714.629h2.854v-2.1zm1.176-1.008v6.465h-1.176V56.1h-2.267l-1.47 2.267h-1.342l1.595-2.392-1.218-1.134V53.12l1.344-1.218h4.534zM90.932 72.766h3.484v1.05h-4.03l-1.595-1.512V68.82l1.595-1.47h4.03v1.05h-3.484l-.966.882v2.603zm9.278-4.366h-2.267l-.84.756v3.61h2.981l.966-.881v-2.73l-.84-.755zm-3.359-.252l.84-.756h3.023l1.469 1.344v3.61l-1.595 1.47h-3.485v2.56h-1.175v-9.025h.755l.168.797zm8.187 1.973h3.736v-.965l-.965-.924h-1.806l-.965.924v.965zm3.274-2.896l1.596 1.469v2.435h-4.912v.714l.965.881h3.4v1.05h-3.945l-1.596-1.47v-3.61l1.596-1.47h2.896zm4.408 5.541h3.863V68.4h-2.771l-.252 3.61-.84.756zm0-5.415h5.038v5.415h1.05v2.729h-1.176v-1.68h-5.667v1.68h-1.176v-2.729h.504l1.092-1.091.335-4.324zm11.84 3.609h-3.107l-.714.63v.504l.714.63h2.267l.84-.756v-1.007zm-.547 2.856h-3.022l-1.344-1.218v-1.427l1.344-1.218h3.61v-.84l-.756-.713h-3.358v-1.05h3.862l1.428 1.302v5.164h-.756l-.126-.756-.882.756zm8.984-1.05h3.107l.714-.63v-.461l-.756-.714h-3.023v1.805h-.042zm0-2.77h2.981l.504-.462v-.588l-.63-.588h-2.855v1.637zm4.996 1.343v1.217l-1.343 1.218h-4.786v-6.465h4.492l1.301 1.175v1.343l-.63.588.966.924zm11.839-5.542h-4.534v3.988h4.534l1.05-.965v-2.057l-1.05-.966zm-4.492 5.038v2.98h-1.217V64.79h6.255l1.721 1.595v2.855l-1.721 1.595h-5.038zm14.694-4.492v5.667h3.022l.756-.713v-4.282l-.756-.714h-3.022v.042zm-4.24 0l-.756.714v4.24l.755.713h3.023v-5.667h-3.023zm3.022 7.85v-1.175h-3.526l-1.47-1.343v-5.038l1.47-1.344h3.526v-1.175h1.218v1.175h3.526l1.47 1.344v5.038l-1.47 1.343h-3.526v1.175h-1.218z" fill="#F05159"/></svg>