<svg version="1.2" xmlns="http://www.w3.org/2000/svg" viewBox="0 0 1370 525" width="1370" height="525">
	<title>promo-slider-1-1370px-svg</title>
	<defs>
		<linearGradient id="g1" x1="1110.5" y1="318.2" x2="1062.7" y2="342.5" gradientUnits="userSpaceOnUse">
			<stop offset="0" stop-color="#a1abb3"/>
			<stop offset="1" stop-color="#d9d9d9"/>
		</linearGradient>
		<linearGradient id="g2" x1="5849.9" y1="57597.4" x2="5849.9" y2="29221.6" gradientUnits="userSpaceOnUse">
			<stop offset="0" stop-color="#a1abb3"/>
			<stop offset="1" stop-color="#d9d9d9"/>
		</linearGradient>
		<linearGradient id="g3" x1="1083.1" y1="417.1" x2="1001.4" y2="465.3" gradientUnits="userSpaceOnUse">
			<stop offset="0" stop-color="#a1abb3"/>
			<stop offset=".1" stop-color="#adb5bb"/>
			<stop offset=".4" stop-color="#c5c9cc"/>
			<stop offset=".8" stop-color="#d4d5d6"/>
			<stop offset="1" stop-color="#d9d9d9"/>
		</linearGradient>
		<linearGradient id="g4" x1="4265.5" y1="4923.6" x2="4112.7" y2="5014.1" gradientUnits="userSpaceOnUse">
			<stop offset="0" stop-color="#a1abb3"/>
			<stop offset="1" stop-color="#d9d9d9"/>
		</linearGradient>
		<linearGradient id="g5" x1="3925.3" y1="4744.4" x2="3772.5" y2="4834.8" gradientUnits="userSpaceOnUse">
			<stop offset="0" stop-color="#a1abb3"/>
			<stop offset="1" stop-color="#d9d9d9"/>
		</linearGradient>
		<linearGradient id="g6" x1="3933.7" y1="5101.9" x2="3780.9" y2="5192.4" gradientUnits="userSpaceOnUse">
			<stop offset="0" stop-color="#a1abb3"/>
			<stop offset="1" stop-color="#d9d9d9"/>
		</linearGradient>
		<linearGradient id="g7" x1="3593.3" y1="4920.3" x2="3440.4" y2="5010.8" gradientUnits="userSpaceOnUse">
			<stop offset="0" stop-color="#a1abb3"/>
			<stop offset="1" stop-color="#d9d9d9"/>
		</linearGradient>
		<linearGradient id="g8" x1="3591" y1="4561.7" x2="3437.9" y2="4652.4" gradientUnits="userSpaceOnUse">
			<stop offset="0" stop-color="#a1abb3"/>
			<stop offset="1" stop-color="#d9d9d9"/>
		</linearGradient>
		<linearGradient id="g9" x1="3252.8" y1="4737.6" x2="3100" y2="4828.1" gradientUnits="userSpaceOnUse">
			<stop offset="0" stop-color="#a1abb3"/>
			<stop offset="1" stop-color="#d9d9d9"/>
		</linearGradient>
		<linearGradient id="g10" x1="3248.5" y1="4374.4" x2="3095.6" y2="4465" gradientUnits="userSpaceOnUse">
			<stop offset="0" stop-color="#a1abb3"/>
			<stop offset="1" stop-color="#d9d9d9"/>
		</linearGradient>
		<linearGradient id="g11" x1="2911" y1="4557.3" x2="2758.1" y2="4647.7" gradientUnits="userSpaceOnUse">
			<stop offset="0" stop-color="#a1abb3"/>
			<stop offset="1" stop-color="#d9d9d9"/>
		</linearGradient>
		<linearGradient id="g12" x1="2904.9" y1="4195.9" x2="2752" y2="4286.3" gradientUnits="userSpaceOnUse">
			<stop offset="0" stop-color="#a1abb3"/>
			<stop offset="1" stop-color="#d9d9d9"/>
		</linearGradient>
		<linearGradient id="g13" x1="2572.1" y1="4371.1" x2="2419.2" y2="4461.8" gradientUnits="userSpaceOnUse">
			<stop offset="0" stop-color="#a1abb3"/>
			<stop offset="1" stop-color="#d9d9d9"/>
		</linearGradient>
		<linearGradient id="g14" x1="2564.7" y1="4004.1" x2="2412" y2="4094.6" gradientUnits="userSpaceOnUse">
			<stop offset="0" stop-color="#a1abb3"/>
			<stop offset="1" stop-color="#d9d9d9"/>
		</linearGradient>
		<linearGradient id="g15" x1="2231.7" y1="4189.4" x2="2078.8" y2="4279.9" gradientUnits="userSpaceOnUse">
			<stop offset="0" stop-color="#a1abb3"/>
			<stop offset="1" stop-color="#d9d9d9"/>
		</linearGradient>
		<linearGradient id="g16" x1="2225.6" y1="3826.2" x2="2072.8" y2="3916.7" gradientUnits="userSpaceOnUse">
			<stop offset="0" stop-color="#a1abb3"/>
			<stop offset="1" stop-color="#d9d9d9"/>
		</linearGradient>
		<linearGradient id="g17" x1="1890.6" y1="4009.6" x2="1737.6" y2="4100" gradientUnits="userSpaceOnUse">
			<stop offset="0" stop-color="#a1abb3"/>
			<stop offset="1" stop-color="#d9d9d9"/>
		</linearGradient>
		<linearGradient id="g18" x1="1557" y1="4186.1" x2="1404" y2="4276.7" gradientUnits="userSpaceOnUse">
			<stop offset="0" stop-color="#a1abb3"/>
			<stop offset="1" stop-color="#d9d9d9"/>
		</linearGradient>
		<linearGradient id="g19" x1="3257.1" y1="5099.9" x2="3104.4" y2="5190.3" gradientUnits="userSpaceOnUse">
			<stop offset="0" stop-color="#a1abb3"/>
			<stop offset="1" stop-color="#d9d9d9"/>
		</linearGradient>
		<linearGradient id="g20" x1="3597.3" y1="5282.7" x2="3444.6" y2="5373.1" gradientUnits="userSpaceOnUse">
			<stop offset="0" stop-color="#a1abb3"/>
			<stop offset="1" stop-color="#d9d9d9"/>
		</linearGradient>
		<linearGradient id="g21" x1="2914.3" y1="4917.4" x2="2761.4" y2="5007.9" gradientUnits="userSpaceOnUse">
			<stop offset="0" stop-color="#a1abb3"/>
			<stop offset="1" stop-color="#d9d9d9"/>
		</linearGradient>
		<linearGradient id="g22" x1="1207.2" y1="467.8" x2="1159.5" y2="425.2" gradientUnits="userSpaceOnUse">
			<stop offset="0" stop-color="#a1abb3"/>
			<stop offset=".1" stop-color="#b2bac0"/>
			<stop offset=".4" stop-color="#d3d8dc"/>
			<stop offset=".6" stop-color="#ebedef"/>
			<stop offset=".8" stop-color="#fafafb"/>
			<stop offset="1" stop-color="#ffffff"/>
		</linearGradient>
		<linearGradient id="g23" x1="1124.7" y1="419.1" x2="1221.8" y2="394" gradientUnits="userSpaceOnUse">
			<stop offset="0" stop-color="#a1abb3"/>
			<stop offset=".5" stop-color="#d9d9d9"/>
			<stop offset=".7" stop-color="#e4e4e4"/>
			<stop offset="1" stop-color="#ffffff"/>
		</linearGradient>
	</defs>
	<style>
		.s0 { fill: #ebf3fa } 
		.s1 { fill: #64b2ff;stroke: #000000 } 
		.s2 { fill: none;stroke: #000000 } 
		.s3 { opacity: .2;fill: #000000 } 
		.s4 { fill: #ffffff;stroke: #000000 } 
		.s5 { fill: url(#g1) } 
		.s6 { fill: url(#g2) } 
		.s7 { fill: #ffffff } 
		.s8 { fill: url(#g3) } 
		.s9 { fill: url(#g4) } 
		.s10 { fill: #ff7b22;stroke: #000000 } 
		.s11 { fill: url(#g5) } 
		.s12 { fill: url(#g6) } 
		.s13 { fill: url(#g7) } 
		.s14 { fill: url(#g8) } 
		.s15 { fill: url(#g9) } 
		.s16 { fill: url(#g10) } 
		.s17 { fill: url(#g11) } 
		.s18 { fill: url(#g12) } 
		.s19 { fill: url(#g13) } 
		.s20 { fill: url(#g14) } 
		.s21 { fill: url(#g15) } 
		.s22 { fill: url(#g16) } 
		.s23 { fill: url(#g17) } 
		.s24 { fill: url(#g18) } 
		.s25 { fill: url(#g19) } 
		.s26 { fill: url(#g20) } 
		.s27 { fill: url(#g21) } 
		.s28 { fill: #ffffff;stroke: #000000;stroke-linecap: round;stroke-linejoin: round } 
		.s29 { fill: #ffdb7c;stroke: #000000;stroke-linecap: round;stroke-linejoin: round } 
		.s30 { fill: #64b2ff;stroke: #000000;stroke-linecap: round;stroke-linejoin: round } 
		.s31 { fill: none;stroke: #000000;stroke-linecap: round;stroke-linejoin: round } 
		.s32 { fill: #f25f74;stroke: #000000 } 
		.s33 { fill: #ffc3c2;stroke: #000000 } 
		.s34 { fill: #ffc3c2 } 
		.s35 { fill: #000000 } 
		.s36 { fill: url(#g22) } 
		.s37 { fill: url(#g23);stroke: #000000 } 
	</style>
	<path id="Layer" class="s0" d="m0 24c0-13.3 10.7-24 24-24h1322c13.3 0 24 10.7 24 24v477c0 13.3-10.7 24-24 24h-1322c-13.3 0-24-10.7-24-24z" />
	<path id="Layer" fill-rule="evenodd" class="s1" d="m930.6 333.8l-6.7-9.2l1.2-0.8c8.9-6.5 22.4-16.3 19.5-26.6c-3-10.5-17.4-17.8-27.9-23.1l-3.1-1.6c-20.3-10.5-40.5-25.6-35.5-58q0.1-0.7 0.3-1.5c-7.5 2.7-15.9 4.1-24.4 1.5c-5.2-1.6-10-4.5-13.9-8.3c-4-3.8-7-8.4-8.8-13.6c-4.4-12.9 0-26.8 10.9-33.6c6.7-4.4 15.1-5.4 23.5-2.9c4.7 1.4 9 3.8 12.7 7c3.8 3.2 6.8 7.1 8.9 11.5c2.6 6 3.9 12.5 3.9 19l2.8-1.6c10.3-6.4 21.1-12.9 33.7-14.5c15.3-2 30.4 1.3 44.6 4.9l-2.7 10.9c-13.2-3.3-27.2-6.4-40.5-4.6c-10.2 1.3-19.9 7.2-29.2 12.9c-3.1 1.8-6.2 3.8-9.4 5.5c-0.4 3.2-0.9 6.3-1.3 9.1c-3.2 20.9 4.8 33.5 29.5 46.3l3.2 1.5c12.3 6.3 29.2 14.8 33.5 30.1c5.2 17.9-12.9 31-23.7 38.8zm-73.8-167.7c-3 0-6 0.8-8.5 2.4c-6.4 4-9 12.4-6.2 20.4c1.2 3.5 3.2 6.7 5.9 9.2c2.6 2.6 5.8 4.5 9.4 5.6c7.5 2.3 15.4-0.2 22.6-3.7c0.4-7.2 0-14.5-2.8-20.7c-1.5-2.9-3.5-5.6-6.1-7.7c-2.5-2.1-5.4-3.7-8.6-4.6q-2.8-0.9-5.7-0.9z" />
	<path id="Layer" class="s2" d="m891.2 192.6c0.4 8.4-1 17.2-2 23.6" />
	<path id="Layer" class="s2" d="m878.1 214.5c1.1-7.7 2.1-14.7 1.9-21.5" />
	<g id="Layer" style="opacity: .2">
		<path id="Layer" class="s3" d="m895.2 191.2c2.7 7.2-1.1 13.8-1.1 13.8l-3.6 2q0.8-6.7 0.7-13.4z" />
	</g>
	<path id="Layer" class="s3" d="m1080.1 269.6l68.9 39.8c2.5 1.4 2.2 4-0.7 5.6l-79.5 46c-2.9 1.6-7.3 1.8-9.8 0.4l-68.9-39.8c-2.5-1.4-2.2-4 0.7-5.7l79.5-45.9c2.9-1.6 7.3-1.8 9.8-0.4z" />
	<path id="Layer" class="s4" d="m1139.3 291.8c0.2 0.5 0.4 1 0.4 1.5v13.2q-0.2 0.9-0.8 1.7q-0.6 0.8-1.5 1.2l-75.4 43.4c-2.7 1.6-6.9 1.8-9.3 0.4l-65.3-37.7q-0.6-0.3-1-0.9q-0.5-0.6-0.6-1.3v-13.4q0.2-0.9 0.8-1.7q0.6-0.8 1.5-1.2l75.4-43.5c2.8-1.6 6.9-1.8 9.3-0.4l65.3 37.7c0.4 0.2 0.9 0.6 1.2 1z" />
	<path id="Layer" class="s5" d="m1139.7 293.3v13.1q-0.2 1-0.8 1.8q-0.6 0.7-1.5 1.1l-75.4 43.5q-0.8 0.4-1.7 0.5q-0.9 0-1.7-0.5q-0.8-0.4-1.3-1.2c-0.3-0.5-0.4-1.1-0.4-1.7v-3.4c-0.1-1.3 0.3-2.7 1.1-3.8c0.7-1.1 1.8-2 3-2.5q0.5-0.2 1-0.5l75.4-43.5q0.9-0.4 1.5-1.2q0.6-0.7 0.8-1.7z" />
	<path id="Layer" class="s4" d="m1072.8 253.1l65.3 37.7c2.4 1.4 2 3.8-0.7 5.4l-75.4 43.4c-2.7 1.6-6.9 1.8-9.3 0.4l-65.2-37.6c-2.4-1.4-2.1-3.8 0.7-5.4l75.4-43.5c2.7-1.6 6.8-1.8 9.2-0.4z" />
	<path id="Layer" class="s2" d="m1139.3 291.8c0.2 0.5 0.4 1 0.4 1.5v13.2q-0.2 0.9-0.8 1.7q-0.6 0.8-1.5 1.2l-75.4 43.4c-2.7 1.6-6.9 1.8-9.3 0.4l-65.3-37.7q-0.6-0.3-1-0.9q-0.5-0.6-0.6-1.3v-13.4q0.2-0.9 0.8-1.7q0.6-0.8 1.5-1.2l75.4-43.5c2.8-1.6 6.9-1.8 9.3-0.4l65.3 37.7c0.4 0.2 0.9 0.6 1.2 1z" />
	<path id="Layer" class="s4" d="m1172.3 174.3v176q0.1 0.7-0.2 1.4q-0.3 0.6-0.8 1l-0.1 0.1l-12.8 8.9h-0.1c-0.9 0.7-2.3 0.6-3.9-0.3l-217.7-125.7c-2.7-1.6-5-5.1-5-7.8v-176q0-0.7 0.2-1.3q0.3-0.7 0.8-1.1l-0.1 0.1l0.1-0.1l0.1-0.1l12.8-8.9l0.2-0.2c0.9-0.5 2.3-0.4 3.8 0.5l217.7 125.7c2.8 1.6 5 5 5 7.8z" />
	<path id="Layer" class="s2" d="m1143.2 344.6l-0.1 0.1" />
	<path id="Layer" class="s2" d="m1143.2 344.6l-0.1 0.1" />
	<path id="Layer" class="s6" d="m1168.3 172.2q0.6-0.4 1.3-0.4c0.4-0.1 0.9 0 1.3 0.2q0.6 0.4 1 1q0.4 0.6 0.4 1.3v176q0 0.7-0.2 1.3q-0.3 0.6-0.8 1.1h-0.1l-12.8 8.9q0.5-0.4 0.8-1q0.2-0.7 0.2-1.3v-176q-0.1-0.5-0.1-1c-0.2-1-0.1-2 0.2-2.9c0.4-0.9 1-1.7 1.8-2.3z" />
	<path id="Layer" class="s7" d="m1158.1 179.3c-0.9-1.6-2.2-2.9-3.7-3.8l-209.7-121.1l-8-4.6c-1.6-0.9-2.9-1-3.9-0.4l12.8-8.9l0.2-0.1c0.9-0.6 2.3-0.5 3.8 0.4l217.8 125.7c1.5 0.9 2.8 2.2 3.6 3.8z" />
	<path id="Layer" class="s1" d="m939.9 230.1c-0.8-0.5-1.4-1.4-1.7-2.3v-169.7l213 123c0.8 0.5 1.4 1.3 1.7 2.3v169.7z" />
	<path id="Layer" class="s2" d="m1172.3 174.3v176q0.1 0.7-0.2 1.4q-0.3 0.6-0.8 1l-0.1 0.1l-12.8 8.9h-0.1c-0.9 0.7-2.3 0.6-3.9-0.3l-217.7-125.7c-2.7-1.6-5-5.1-5-7.8v-176q0-0.7 0.2-1.3q0.3-0.7 0.8-1.1l-0.1 0.1l0.1-0.1l0.1-0.1l12.8-8.9l0.2-0.2c0.9-0.5 2.3-0.4 3.8 0.5l217.7 125.7c2.8 1.6 5 5 5 7.8z" />
	<path id="Layer" class="s3" d="m998 479.7l-176.4-101.9c-2.6-1.5-2.3-4.1 0.7-5.8l87.3-50.4c3-1.7 7.5-1.9 10.1-0.4l176.5 101.9c2.6 1.5 2.3 4.1-0.7 5.8l-87.4 50.4c-3 1.7-7.5 1.9-10.1 0.4z" />
	<path id="Layer" class="s4" d="m1085 407q0.4 0.6 0.5 1.4v12.4c0.1 1.1-0.8 2.4-2.4 3.3l-81.1 46.9c-3 1.6-7.4 1.8-10 0.4l-173.3-100c-0.5-0.3-0.9-0.6-1.2-1.1c-0.4-0.5-0.5-1.1-0.5-1.6v-12.5q0.2-1 0.9-1.8q0.6-0.8 1.5-1.2l81.2-46.8c2.9-1.7 7.4-1.9 9.9-0.5l173.3 100.1q0.7 0.3 1.2 1z" />
	<path id="Layer" class="s8" d="m1085.5 408.5v12.3c0 1.2-0.8 2.4-2.4 3.3l-81.1 46.9l-0.6 0.3c-0.4 0.3-1 0.4-1.6 0.4q-0.8 0-1.6-0.4q-0.7-0.4-1.1-1.2q-0.5-0.7-0.5-1.6v-3.3c0-1.3 0.4-2.6 1.1-3.7c0.8-1 1.8-1.8 3-2.3q0.7-0.3 1.3-0.6l81.1-46.9c1.6-0.9 2.4-2.1 2.4-3.2z" />
	<path id="Layer" class="s4" d="m992 459l-173.3-100c-2.5-1.5-2.2-4.1 0.7-5.8l81.2-46.8c2.9-1.7 7.4-1.9 9.9-0.5l173.3 100.1c2.5 1.5 2.2 4-0.7 5.8l-81.1 46.8c-3 1.7-7.4 1.9-10 0.4z" />
	<path id="Layer" class="s4" d="m1059.7 404.1q0.4 0.5 0.4 1.2v4.6q-0.1 0.8-0.6 1.4q-0.5 0.7-1.2 1l-8.4 4.9c-1.2 0.6-2.4 1-3.8 1c-1.3 0.1-2.6-0.2-3.8-0.7l-8.3-4.9q-0.6-0.2-1-0.8q-0.3-0.5-0.3-1.1v-4.6q0.1-0.8 0.6-1.4q0.5-0.7 1.2-1l8.4-4.8c1.2-0.7 2.4-1 3.7-1.1c1.4 0 2.6 0.2 3.8 0.7l8.4 4.9c0.4 0.1 0.7 0.4 0.9 0.7z" />
	<path id="Layer" class="s9" d="m1060.1 405.3v4.6q-0.1 0.8-0.6 1.4q-0.5 0.7-1.2 1l-8.4 4.9q-0.9 0.4-1.8 0.7q-0.3 0.1-0.6 0q-0.3 0-0.6-0.2q-0.2-0.2-0.4-0.5q-0.1-0.3-0.1-0.6v-0.8c0-0.6 0.2-1.2 0.5-1.6c0.4-0.5 0.9-0.8 1.4-1q0.8-0.2 1.6-0.6l8.4-4.9q0.7-0.3 1.2-1c0.3-0.4 0.5-0.9 0.6-1.4z" />
	<path id="Layer" class="s2" d="m1059.7 404.1q0.4 0.5 0.4 1.2v4.6q-0.1 0.8-0.6 1.4q-0.5 0.7-1.2 1l-8.4 4.9c-1.2 0.6-2.4 1-3.8 1c-1.3 0.1-2.6-0.2-3.8-0.7l-8.3-4.9q-0.6-0.2-1-0.8q-0.3-0.5-0.3-1.1v-4.6q0.1-0.8 0.6-1.4q0.5-0.7 1.2-1l8.4-4.8c1.2-0.7 2.4-1 3.7-1.1c1.4 0 2.6 0.2 3.8 0.7l8.4 4.9c0.4 0.1 0.7 0.4 0.9 0.7z" />
	<path id="Layer" class="s10" d="m1043.4 411l-6.1-3.6c-1.4-0.8-1.3-2.2 0.4-3.2l6.2-3.5c0.8-0.5 1.7-0.7 2.7-0.8q1.5 0 2.8 0.6l6.1 3.5c1.4 0.8 1.3 2.2-0.4 3.2l-6.1 3.5c-0.9 0.5-1.8 0.8-2.8 0.8c-1 0.1-1.9-0.1-2.8-0.5z" />
	<path id="Layer" class="s4" d="m1035.8 390.3q0.4 0.5 0.4 1.2v4.6q-0.1 0.8-0.6 1.5q-0.5 0.6-1.2 0.9l-8.4 4.9c-1.2 0.6-2.4 1-3.7 1c-1.3 0.1-2.6-0.2-3.8-0.7l-8.4-4.8q-0.6-0.3-0.9-0.8q-0.4-0.6-0.4-1.2v-4.5q0.1-0.8 0.6-1.5q0.5-0.6 1.2-1l8.4-4.8c1.2-0.7 2.5-1 3.8-1.1c1.3 0 2.6 0.2 3.8 0.8l8.3 4.8q0.6 0.2 0.9 0.7z" />
	<path id="Layer" class="s11" d="m1036.2 391.5v4.6q-0.1 0.8-0.6 1.4q-0.5 0.7-1.2 1l-8.4 4.9q-0.9 0.4-1.8 0.7q-0.3 0.1-0.6 0q-0.3 0-0.6-0.2q-0.2-0.2-0.4-0.5q-0.1-0.3-0.1-0.6v-0.8c0-0.6 0.2-1.1 0.5-1.6c0.4-0.5 0.9-0.8 1.4-1q0.8-0.2 1.6-0.6l8.4-4.9q0.7-0.3 1.2-1q0.5-0.6 0.6-1.4z" />
	<path id="Layer" class="s2" d="m1035.8 390.3q0.4 0.5 0.4 1.2v4.6q-0.1 0.8-0.6 1.5q-0.5 0.6-1.2 0.9l-8.4 4.9c-1.2 0.6-2.4 1-3.7 1c-1.3 0.1-2.6-0.2-3.8-0.7l-8.4-4.8q-0.6-0.3-0.9-0.8q-0.4-0.6-0.4-1.2v-4.5q0.1-0.8 0.6-1.5q0.5-0.6 1.2-1l8.4-4.8c1.2-0.7 2.5-1 3.8-1.1c1.3 0 2.6 0.2 3.8 0.8l8.3 4.8q0.6 0.2 0.9 0.7z" />
	<path id="Layer" class="s10" d="m1019.5 397.2l-6.1-3.6c-1.4-0.8-1.2-2.2 0.4-3.2l6.1-3.5c0.9-0.5 1.8-0.7 2.8-0.8q1.4 0 2.8 0.6l6.1 3.5c1.4 0.8 1.2 2.2-0.4 3.2l-6.2 3.5c-0.8 0.5-1.7 0.8-2.7 0.8c-0.9 0-1.9-0.1-2.8-0.5z" />
	<path id="Layer" class="s4" d="m1036.3 417.7q0.3 0.5 0.4 1.1v4.6q-0.2 0.8-0.7 1.5q-0.5 0.6-1.2 1l-8.4 4.8c-1.1 0.6-2.4 1-3.7 1.1c-1.3 0-2.6-0.2-3.8-0.8l-8.4-4.8q-0.5-0.3-0.9-0.8q-0.3-0.5-0.4-1.2v-4.5q0.1-0.8 0.6-1.5q0.5-0.6 1.3-0.9l8.4-4.9c1.1-0.6 2.4-1 3.7-1c1.3-0.1 2.6 0.2 3.8 0.7l8.3 4.8q0.6 0.3 1 0.8z" />
	<path id="Layer" class="s12" d="m1036.7 418.8v4.6q-0.2 0.8-0.7 1.5q-0.5 0.6-1.2 1l-8.4 4.8q-0.8 0.5-1.8 0.7q-0.3 0.1-0.6 0.1q-0.3-0.1-0.5-0.3q-0.3-0.2-0.4-0.5q-0.2-0.2-0.2-0.6v-0.8c0-0.5 0.2-1.1 0.6-1.6c0.3-0.4 0.8-0.8 1.4-0.9q0.8-0.3 1.5-0.7l8.4-4.8q0.8-0.4 1.2-1q0.5-0.7 0.7-1.5z" />
	<path id="Layer" class="s2" d="m1036.3 417.7q0.3 0.5 0.4 1.1v4.6q-0.2 0.8-0.7 1.5q-0.5 0.6-1.2 1l-8.4 4.8c-1.1 0.6-2.4 1-3.7 1.1c-1.3 0-2.6-0.2-3.8-0.8l-8.4-4.8q-0.5-0.3-0.9-0.8q-0.3-0.5-0.4-1.2v-4.5q0.1-0.8 0.6-1.5q0.5-0.6 1.3-0.9l8.4-4.9c1.1-0.6 2.4-1 3.7-1c1.3-0.1 2.6 0.2 3.8 0.7l8.3 4.8q0.6 0.3 1 0.8z" />
	<path id="Layer" class="s10" d="m1020 424.5l-6.2-3.5c-1.4-0.9-1.2-2.3 0.4-3.2l6.2-3.6c0.8-0.4 1.8-0.7 2.7-0.7c1-0.1 1.9 0.1 2.8 0.5l6.1 3.5c1.4 0.9 1.3 2.3-0.4 3.2l-6.1 3.6c-0.9 0.4-1.8 0.7-2.8 0.7c-0.9 0.1-1.9-0.1-2.7-0.5z" />
	<path id="Layer" class="s4" d="m1012.4 403.9q0.3 0.5 0.4 1.1v4.6q-0.2 0.8-0.7 1.5q-0.4 0.6-1.2 1l-8.4 4.8c-1.1 0.7-2.4 1-3.7 1.1c-1.3 0-2.6-0.2-3.8-0.8l-8.4-4.8q-0.5-0.3-0.9-0.8q-0.3-0.5-0.4-1.2v-4.5q0.1-0.8 0.6-1.5q0.5-0.6 1.3-0.9l8.4-4.9c1.1-0.6 2.4-1 3.7-1c1.3-0.1 2.6 0.2 3.8 0.7l8.4 4.8q0.5 0.3 0.9 0.8z" />
	<path id="Layer" class="s13" d="m1012.8 405v4.6q-0.2 0.8-0.6 1.5q-0.5 0.6-1.3 1l-8.4 4.8q-0.8 0.5-1.7 0.7q-0.3 0.1-0.7 0.1q-0.3-0.1-0.5-0.3q-0.3-0.2-0.4-0.5q-0.2-0.2-0.2-0.6v-0.8c0-0.5 0.2-1.1 0.6-1.6c0.3-0.4 0.8-0.8 1.4-0.9q0.8-0.3 1.5-0.7l8.4-4.8q0.8-0.4 1.3-1q0.4-0.7 0.6-1.5z" />
	<path id="Layer" class="s2" d="m1012.4 403.9q0.3 0.5 0.4 1.1v4.6q-0.2 0.8-0.7 1.5q-0.4 0.6-1.2 1l-8.4 4.8c-1.1 0.7-2.4 1-3.7 1.1c-1.3 0-2.6-0.2-3.8-0.8l-8.4-4.8q-0.5-0.3-0.9-0.8q-0.3-0.5-0.4-1.2v-4.5q0.1-0.8 0.6-1.5q0.5-0.6 1.3-0.9l8.4-4.9c1.1-0.6 2.4-1 3.7-1c1.3-0.1 2.6 0.2 3.8 0.7l8.4 4.8q0.5 0.3 0.9 0.8z" />
	<path id="Layer" class="s10" d="m996.1 410.7l-6.1-3.5c-1.5-0.8-1.3-2.3 0.3-3.2l6.2-3.5c0.8-0.5 1.8-0.8 2.7-0.8c1-0.1 1.9 0.1 2.8 0.5l6.1 3.6c1.5 0.8 1.3 2.2-0.4 3.1l-6.2 3.6c-0.8 0.4-1.7 0.7-2.7 0.7c-0.9 0.1-1.9-0.1-2.7-0.5z" />
	<path id="Layer" class="s4" d="m1012 376.6q0.3 0.5 0.4 1.1v4.6q-0.2 0.8-0.7 1.5q-0.5 0.6-1.2 0.9l-8.4 4.9c-1.2 0.6-2.4 1-3.7 1c-1.3 0.1-2.6-0.2-3.8-0.7l-8.4-4.8q-0.6-0.3-0.9-0.8q-0.4-0.6-0.4-1.2v-4.5q0.1-0.8 0.6-1.5q0.5-0.6 1.2-1l8.4-4.8c1.2-0.7 2.5-1 3.8-1.1c1.3 0 2.6 0.2 3.8 0.8l8.3 4.8c0.4 0.2 0.7 0.4 1 0.8z" />
	<path id="Layer" class="s14" d="m1012.4 377.7v4.6q-0.2 0.9-0.6 1.5q-0.5 0.6-1.3 1l-8.4 4.8q-0.8 0.5-1.8 0.7q-0.3 0.1-0.6 0q-0.3 0-0.6-0.2q-0.2-0.2-0.3-0.5q-0.2-0.3-0.2-0.6v-0.8c0-0.6 0.2-1.1 0.6-1.6c0.3-0.4 0.8-0.8 1.3-0.9q0.9-0.3 1.6-0.7l8.4-4.8q0.7-0.4 1.3-1q0.4-0.7 0.6-1.5z" />
	<path id="Layer" class="s2" d="m1012 376.6q0.3 0.5 0.4 1.1v4.6q-0.2 0.8-0.7 1.5q-0.5 0.6-1.2 0.9l-8.4 4.9c-1.2 0.6-2.4 1-3.7 1c-1.3 0.1-2.6-0.2-3.8-0.7l-8.4-4.8q-0.6-0.3-0.9-0.8q-0.4-0.6-0.4-1.2v-4.5q0.1-0.8 0.6-1.5q0.5-0.6 1.2-1l8.4-4.8c1.2-0.7 2.5-1 3.8-1.1c1.3 0 2.6 0.2 3.8 0.8l8.3 4.8c0.4 0.2 0.7 0.4 1 0.8z" />
	<path id="Layer" class="s10" d="m995.6 383.4l-6.1-3.5c-1.4-0.9-1.2-2.3 0.4-3.2l6.2-3.6c0.9-0.5 1.8-0.7 2.8-0.8c0.9 0 1.9 0.2 2.7 0.6l6.2 3.5c1.4 0.8 1.2 2.3-0.4 3.2l-6.2 3.6c-0.8 0.4-1.8 0.7-2.7 0.7c-1 0.1-2-0.1-2.9-0.5z" />
	<path id="Layer" class="s4" d="m988.5 390.1q0.4 0.5 0.4 1.1v4.7q-0.1 0.8-0.6 1.4q-0.5 0.7-1.2 1l-8.4 4.8c-1.2 0.7-2.5 1-3.8 1.1c-1.3 0-2.6-0.2-3.8-0.8l-8.3-4.8q-0.6-0.2-1-0.8q-0.3-0.5-0.3-1.1v-4.6q0.1-0.8 0.6-1.5q0.5-0.6 1.2-0.9l8.4-4.9c1.2-0.6 2.4-1 3.7-1c1.3-0.1 2.6 0.2 3.8 0.7l8.4 4.8q0.5 0.3 0.9 0.8z" />
	<path id="Layer" class="s15" d="m988.9 391.2v4.7q-0.1 0.8-0.6 1.4q-0.5 0.7-1.3 1l-8.4 4.8q-0.8 0.5-1.7 0.8q-0.3 0-0.6 0q-0.4-0.1-0.6-0.3q-0.3-0.1-0.4-0.4q-0.1-0.3-0.1-0.6v-0.8c0-0.6 0.1-1.2 0.5-1.6c0.3-0.5 0.8-0.8 1.4-1q0.8-0.2 1.5-0.7l8.4-4.8q0.8-0.3 1.3-1q0.5-0.7 0.6-1.5z" />
	<path id="Layer" class="s2" d="m988.5 390.1q0.4 0.5 0.4 1.1v4.7q-0.1 0.8-0.6 1.4q-0.5 0.7-1.2 1l-8.4 4.8c-1.2 0.7-2.5 1-3.8 1.1c-1.3 0-2.6-0.2-3.8-0.8l-8.3-4.8q-0.6-0.2-1-0.8q-0.3-0.5-0.3-1.1v-4.6q0.1-0.8 0.6-1.5q0.5-0.6 1.2-0.9l8.4-4.9c1.2-0.6 2.4-1 3.7-1c1.3-0.1 2.6 0.2 3.8 0.7l8.4 4.8q0.5 0.3 0.9 0.8z" />
	<path id="Layer" class="s10" d="m972.2 396.9l-6.1-3.5c-1.5-0.8-1.3-2.2 0.4-3.2l6.2-3.5c0.8-0.5 1.7-0.8 2.7-0.8c0.9-0.1 1.9 0.1 2.8 0.5l6.1 3.6c1.4 0.8 1.2 2.2-0.4 3.2l-6.2 3.5c-0.8 0.5-1.7 0.7-2.7 0.8c-1 0-1.9-0.2-2.8-0.6z" />
	<path id="Layer" class="s4" d="m988 362.8q0.4 0.5 0.4 1.1v4.6q-0.1 0.8-0.6 1.5q-0.5 0.6-1.2 0.9l-8.4 4.9c-1.1 0.6-2.4 1-3.7 1c-1.3 0.1-2.6-0.2-3.8-0.7l-8.4-4.8q-0.6-0.3-0.9-0.8q-0.4-0.5-0.4-1.2v-4.5q0.1-0.8 0.6-1.5q0.5-0.6 1.3-1l8.4-4.8c1.1-0.6 2.4-1 3.7-1.1c1.3 0 2.6 0.2 3.8 0.8l8.3 4.8q0.6 0.3 0.9 0.8z" />
	<path id="Layer" class="s16" d="m988.4 363.9v4.6q-0.1 0.8-0.6 1.5q-0.5 0.6-1.2 0.9l-8.4 4.9q-0.8 0.5-1.8 0.7q-0.3 0.1-0.6 0q-0.3 0-0.5-0.2q-0.3-0.2-0.4-0.5q-0.2-0.3-0.2-0.6v-0.8c0-0.6 0.2-1.1 0.6-1.6c0.3-0.4 0.8-0.8 1.3-0.9q0.9-0.3 1.6-0.7l8.4-4.8q0.7-0.4 1.2-1q0.5-0.7 0.6-1.5z" />
	<path id="Layer" class="s2" d="m988 362.8q0.4 0.5 0.4 1.1v4.6q-0.1 0.8-0.6 1.5q-0.5 0.6-1.2 0.9l-8.4 4.9c-1.1 0.6-2.4 1-3.7 1c-1.3 0.1-2.6-0.2-3.8-0.7l-8.4-4.8q-0.6-0.3-0.9-0.8q-0.4-0.5-0.4-1.2v-4.5q0.1-0.8 0.6-1.5q0.5-0.6 1.3-1l8.4-4.8c1.1-0.6 2.4-1 3.7-1.1c1.3 0 2.6 0.2 3.8 0.8l8.3 4.8q0.6 0.3 0.9 0.8z" />
	<path id="Layer" class="s10" d="m971.8 369.6l-6.2-3.5c-1.4-0.9-1.2-2.3 0.4-3.2l6.2-3.6c0.8-0.5 1.8-0.7 2.7-0.8c1 0 1.9 0.2 2.8 0.6l6.1 3.5c1.4 0.8 1.3 2.3-0.4 3.2l-6.1 3.6c-0.9 0.4-1.8 0.7-2.8 0.7c-0.9 0.1-1.9-0.1-2.7-0.5z" />
	<path id="Layer" class="s4" d="m964.6 376.3q0.4 0.5 0.4 1.1v4.7q-0.1 0.8-0.6 1.4q-0.5 0.7-1.2 1l-8.4 4.8c-1.2 0.7-2.5 1-3.8 1.1c-1.3 0-2.6-0.2-3.8-0.8l-8.3-4.8q-0.6-0.2-1-0.8q-0.3-0.5-0.3-1.1v-4.6q0.1-0.8 0.6-1.4q0.5-0.7 1.2-1l8.4-4.9c1.2-0.6 2.4-1 3.7-1c1.3-0.1 2.6 0.2 3.8 0.7l8.4 4.8q0.6 0.3 0.9 0.8z" />
	<path id="Layer" class="s17" d="m965 377.4v4.7q-0.1 0.8-0.6 1.4q-0.5 0.7-1.3 1l-8.4 4.8q-0.8 0.5-1.7 0.8q-0.3 0.1-0.6 0q-0.3-0.1-0.6-0.3q-0.2-0.1-0.4-0.4q-0.1-0.3-0.1-0.6v-0.8c0-0.6 0.2-1.2 0.5-1.6c0.4-0.5 0.8-0.8 1.4-1q0.8-0.2 1.5-0.7l8.4-4.8q0.8-0.3 1.3-1q0.5-0.7 0.6-1.5z" />
	<path id="Layer" class="s2" d="m964.6 376.3q0.4 0.5 0.4 1.1v4.7q-0.1 0.8-0.6 1.4q-0.5 0.7-1.2 1l-8.4 4.8c-1.2 0.7-2.5 1-3.8 1.1c-1.3 0-2.6-0.2-3.8-0.8l-8.3-4.8q-0.6-0.2-1-0.8q-0.3-0.5-0.3-1.1v-4.6q0.1-0.8 0.6-1.4q0.5-0.7 1.2-1l8.4-4.9c1.2-0.6 2.4-1 3.7-1c1.3-0.1 2.6 0.2 3.8 0.7l8.4 4.8q0.6 0.3 0.9 0.8z" />
	<path id="Layer" class="s10" d="m948.3 383.1l-6.1-3.5c-1.4-0.8-1.3-2.2 0.4-3.2l6.2-3.5c0.8-0.5 1.7-0.8 2.7-0.8c1 0 1.9 0.1 2.8 0.5l6.1 3.6c1.4 0.8 1.3 2.2-0.4 3.2l-6.2 3.5c-0.8 0.5-1.8 0.7-2.7 0.8c-1 0-1.9-0.2-2.8-0.6z" />
	<path id="Layer" class="s4" d="m964.2 349q0.3 0.5 0.4 1.1v4.6q-0.2 0.8-0.6 1.5q-0.5 0.6-1.3 0.9l-8.4 4.9c-1.1 0.6-2.4 1-3.7 1c-1.3 0.1-2.6-0.2-3.8-0.7l-8.4-4.8q-0.5-0.3-0.9-0.8q-0.3-0.6-0.4-1.2v-4.5q0.1-0.9 0.6-1.5q0.5-0.6 1.3-1l8.4-4.8c1.1-0.7 2.4-1 3.7-1.1c1.3 0 2.6 0.2 3.8 0.8l8.4 4.8q0.5 0.2 0.9 0.8z" />
	<path id="Layer" class="s18" d="m964.6 350.1v4.6q-0.2 0.8-0.6 1.5q-0.5 0.6-1.3 1l-8.4 4.8q-0.8 0.5-1.7 0.7q-0.3 0.1-0.7 0.1q-0.3-0.1-0.5-0.3q-0.3-0.2-0.4-0.5q-0.2-0.2-0.2-0.6v-0.8c0-0.6 0.2-1.1 0.6-1.6c0.3-0.5 0.8-0.8 1.4-1q0.8-0.2 1.5-0.6l8.4-4.9q0.8-0.3 1.3-0.9q0.4-0.7 0.6-1.5z" />
	<path id="Layer" class="s2" d="m964.2 349q0.3 0.5 0.4 1.1v4.6q-0.2 0.8-0.6 1.5q-0.5 0.6-1.3 0.9l-8.4 4.9c-1.1 0.6-2.4 1-3.7 1c-1.3 0.1-2.6-0.2-3.8-0.7l-8.4-4.8q-0.5-0.3-0.9-0.8q-0.3-0.6-0.4-1.2v-4.5q0.1-0.9 0.6-1.5q0.5-0.6 1.3-1l8.4-4.8c1.1-0.7 2.4-1 3.7-1.1c1.3 0 2.6 0.2 3.8 0.8l8.4 4.8q0.5 0.2 0.9 0.8z" />
	<path id="Layer" class="s10" d="m947.9 355.8l-6.2-3.5c-1.4-0.9-1.2-2.3 0.4-3.2l6.3-3.6c0.8-0.4 1.7-0.7 2.7-0.7c0.9-0.1 1.9 0.1 2.8 0.5l6.1 3.5c1.4 0.9 1.2 2.3-0.4 3.2l-6.2 3.6c-0.9 0.4-1.8 0.7-2.8 0.7c-0.9 0.1-1.9-0.1-2.7-0.5z" />
	<path id="Layer" class="s4" d="m940.7 362.5q0.3 0.5 0.4 1.1v4.7q-0.1 0.8-0.6 1.4q-0.5 0.7-1.2 1l-8.4 4.8c-1.2 0.7-2.5 1-3.8 1.1c-1.3 0.1-2.6-0.2-3.8-0.7l-8.3-4.9q-0.6-0.2-1-0.8q-0.3-0.5-0.3-1.1v-4.6q0.1-0.8 0.6-1.4q0.5-0.7 1.2-1l8.4-4.9c1.2-0.6 2.4-1 3.7-1c1.3-0.1 2.6 0.2 3.8 0.7l8.4 4.9q0.5 0.2 0.9 0.7z" />
	<path id="Layer" class="s19" d="m941.1 363.6v4.7q-0.1 0.8-0.6 1.4q-0.5 0.7-1.2 1l-8.4 4.8q-0.9 0.5-1.8 0.8q-0.3 0.1-0.6 0q-0.3-0.1-0.6-0.3q-0.2-0.1-0.4-0.4q-0.1-0.3-0.1-0.6v-0.8c0-0.6 0.2-1.2 0.5-1.6c0.4-0.5 0.9-0.8 1.4-1q0.8-0.2 1.6-0.7l8.4-4.8q0.7-0.3 1.2-1q0.5-0.6 0.6-1.5z" />
	<path id="Layer" class="s2" d="m940.7 362.5q0.3 0.5 0.4 1.1v4.7q-0.1 0.8-0.6 1.4q-0.5 0.7-1.2 1l-8.4 4.8c-1.2 0.7-2.5 1-3.8 1.1c-1.3 0.1-2.6-0.2-3.8-0.7l-8.3-4.9q-0.6-0.2-1-0.8q-0.3-0.5-0.3-1.1v-4.6q0.1-0.8 0.6-1.4q0.5-0.7 1.2-1l8.4-4.9c1.2-0.6 2.4-1 3.7-1c1.3-0.1 2.6 0.2 3.8 0.7l8.4 4.9q0.5 0.2 0.9 0.7z" />
	<path id="Layer" class="s4" d="m924.4 369.3l-6.1-3.5c-1.4-0.8-1.3-2.3 0.4-3.2l6.1-3.6c0.9-0.4 1.8-0.7 2.8-0.7c0.9-0.1 1.9 0.1 2.8 0.5l6.1 3.5c1.4 0.9 1.2 2.3-0.4 3.2l-6.2 3.6c-0.8 0.5-1.7 0.7-2.7 0.8c-1 0-1.9-0.2-2.8-0.6z" />
	<path id="Layer" class="s4" d="m940.3 335.2q0.3 0.5 0.3 1.1v4.6q-0.1 0.8-0.6 1.5q-0.5 0.6-1.2 0.9l-8.4 4.9c-1.1 0.6-2.4 1-3.7 1c-1.3 0.1-2.6-0.2-3.8-0.7l-8.4-4.8q-0.6-0.3-0.9-0.8q-0.4-0.6-0.4-1.2v-4.5q0.1-0.8 0.6-1.5q0.5-0.6 1.3-1l8.4-4.8c1.1-0.7 2.4-1 3.7-1.1c1.3 0 2.6 0.2 3.8 0.8l8.4 4.8q0.5 0.3 0.9 0.8z" />
	<path id="Layer" class="s20" d="m940.7 336.3v4.6q-0.2 0.8-0.6 1.5q-0.5 0.6-1.3 1l-8.4 4.8q-0.8 0.5-1.7 0.7q-0.3 0.1-0.6 0q-0.4 0-0.6-0.2q-0.3-0.2-0.4-0.5q-0.1-0.3-0.1-0.6v-0.8c0-0.6 0.1-1.1 0.5-1.6c0.3-0.4 0.8-0.8 1.4-0.9q0.8-0.3 1.5-0.7l8.5-4.8q0.7-0.4 1.2-1q0.5-0.7 0.6-1.5z" />
	<path id="Layer" class="s2" d="m940.3 335.2q0.3 0.5 0.3 1.1v4.6q-0.1 0.8-0.6 1.5q-0.5 0.6-1.2 0.9l-8.4 4.9c-1.1 0.6-2.4 1-3.7 1c-1.3 0.1-2.6-0.2-3.8-0.7l-8.4-4.8q-0.6-0.3-0.9-0.8q-0.4-0.6-0.4-1.2v-4.5q0.1-0.8 0.6-1.5q0.5-0.6 1.3-1l8.4-4.8c1.1-0.7 2.4-1 3.7-1.1c1.3 0 2.6 0.2 3.8 0.8l8.4 4.8q0.5 0.3 0.9 0.8z" />
	<path id="Layer" class="s4" d="m924 342l-6.1-3.6c-1.4-0.8-1.3-2.2 0.4-3.1l6.2-3.6c0.8-0.5 1.7-0.7 2.7-0.8c1 0 1.9 0.2 2.8 0.6l6.1 3.5c1.4 0.8 1.2 2.3-0.4 3.2l-6.2 3.6c-0.8 0.4-1.7 0.7-2.7 0.7c-1 0.1-1.9-0.1-2.8-0.5z" />
	<path id="Layer" class="s4" d="m916.8 348.7q0.4 0.5 0.4 1.2v4.6q-0.1 0.8-0.6 1.4q-0.5 0.7-1.2 1l-8.4 4.9c-1.2 0.6-2.5 1-3.8 1c-1.3 0.1-2.6-0.2-3.8-0.7l-8.3-4.9q-0.6-0.2-0.9-0.8q-0.4-0.5-0.4-1.1v-4.6q0.1-0.8 0.6-1.4q0.5-0.7 1.2-1l8.4-4.8c1.2-0.7 2.4-1 3.7-1.1c1.3 0 2.6 0.2 3.8 0.7l8.4 4.9q0.6 0.2 0.9 0.7z" />
	<path id="Layer" class="s21" d="m917.2 349.9v4.6q-0.1 0.8-0.6 1.4q-0.5 0.7-1.2 1l-8.4 4.9q-0.9 0.4-1.8 0.7q-0.3 0.1-0.6 0q-0.3 0-0.6-0.2q-0.2-0.2-0.4-0.5q-0.1-0.3-0.1-0.6v-0.8c0-0.6 0.2-1.2 0.5-1.6c0.4-0.5 0.9-0.8 1.4-1q0.8-0.2 1.6-0.6l8.4-4.9q0.7-0.3 1.2-1q0.5-0.6 0.6-1.4z" />
	<path id="Layer" class="s2" d="m916.8 348.7q0.4 0.5 0.4 1.2v4.6q-0.1 0.8-0.6 1.4q-0.5 0.7-1.2 1l-8.4 4.9c-1.2 0.6-2.5 1-3.8 1c-1.3 0.1-2.6-0.2-3.8-0.7l-8.3-4.9q-0.6-0.2-0.9-0.8q-0.4-0.5-0.4-1.1v-4.6q0.1-0.8 0.6-1.4q0.5-0.7 1.2-1l8.4-4.8c1.2-0.7 2.4-1 3.7-1.1c1.3 0 2.6 0.2 3.8 0.7l8.4 4.9q0.6 0.2 0.9 0.7z" />
	<path id="Layer" class="s4" d="m900.6 355.6l-6.2-3.6c-1.4-0.8-1.2-2.2 0.4-3.2l6.2-3.5c0.8-0.5 1.7-0.7 2.7-0.8c1 0 1.9 0.2 2.8 0.6l6.1 3.5c1.4 0.8 1.2 2.3-0.4 3.2l-6.2 3.6c-0.8 0.4-1.7 0.7-2.7 0.7c-0.9 0-1.9-0.1-2.7-0.5z" />
	<path id="Layer" class="s4" d="m916.4 321.4q0.3 0.5 0.4 1.1v4.6q-0.1 0.8-0.6 1.5q-0.5 0.6-1.3 1l-8.4 4.8c-1.1 0.7-2.4 1-3.7 1.1c-1.3 0-2.6-0.2-3.8-0.8l-8.3-4.8q-0.6-0.3-1-0.8q-0.3-0.6-0.3-1.2v-4.6q0.1-0.8 0.6-1.4q0.5-0.6 1.2-0.9l8.4-4.9c1.1-0.6 2.4-1 3.7-1c1.3-0.1 2.6 0.2 3.8 0.7l8.4 4.8q0.5 0.3 0.9 0.8z" />
	<path id="Layer" class="s22" d="m916.8 322.5v4.6q-0.1 0.8-0.6 1.5q-0.5 0.6-1.3 1l-8.4 4.8q-0.8 0.5-1.7 0.7q-0.3 0.1-0.6 0.1q-0.3-0.1-0.6-0.3q-0.2-0.2-0.4-0.5q-0.1-0.2-0.1-0.5v-0.9c0-0.5 0.2-1.1 0.5-1.6c0.4-0.4 0.8-0.8 1.4-0.9q0.8-0.3 1.5-0.7l8.4-4.8q0.8-0.4 1.3-1q0.5-0.7 0.6-1.5z" />
	<path id="Layer" class="s2" d="m916.4 321.4q0.3 0.5 0.4 1.1v4.6q-0.1 0.8-0.6 1.5q-0.5 0.6-1.3 1l-8.4 4.8c-1.1 0.7-2.4 1-3.7 1.1c-1.3 0-2.6-0.2-3.8-0.8l-8.3-4.8q-0.6-0.3-1-0.8q-0.3-0.6-0.3-1.2v-4.6q0.1-0.8 0.6-1.4q0.5-0.6 1.2-0.9l8.4-4.9c1.1-0.6 2.4-1 3.7-1c1.3-0.1 2.6 0.2 3.8 0.7l8.4 4.8q0.5 0.3 0.9 0.8z" />
	<path id="Layer" class="s10" d="m900.1 328.2l-6.1-3.5c-1.4-0.8-1.3-2.3 0.4-3.2l6.2-3.6c0.8-0.4 1.7-0.7 2.7-0.7c1-0.1 1.9 0.1 2.8 0.5l6.1 3.6c1.4 0.8 1.2 2.2-0.4 3.2l-6.2 3.5c-0.9 0.5-1.8 0.7-2.7 0.8c-1 0-1.9-0.2-2.8-0.6z" />
	<path id="Layer" class="s4" d="m892.9 334.9q0.4 0.5 0.4 1.1v4.7q-0.1 0.8-0.6 1.4q-0.5 0.7-1.2 1l-8.4 4.9c-1.2 0.6-2.4 1-3.7 1c-1.3 0.1-2.6-0.2-3.8-0.7l-8.4-4.9q-0.6-0.2-0.9-0.8q-0.4-0.5-0.4-1.1v-4.6q0.1-0.8 0.6-1.4q0.5-0.7 1.2-1l8.4-4.9c1.2-0.6 2.5-0.9 3.8-1c1.3-0.1 2.6 0.2 3.8 0.7l8.3 4.9q0.6 0.2 0.9 0.7z" />
	<path id="Layer" class="s23" d="m893.3 336v4.7q-0.1 0.8-0.6 1.4q-0.5 0.7-1.2 1l-8.4 4.8q-0.9 0.5-1.8 0.8q-0.3 0.1-0.6 0q-0.3 0-0.6-0.2q-0.2-0.2-0.3-0.5q-0.2-0.3-0.2-0.6v-0.8c0-0.6 0.2-1.1 0.6-1.6c0.3-0.5 0.8-0.8 1.3-1q0.8-0.2 1.6-0.6l8.4-4.9q0.7-0.3 1.2-1q0.5-0.6 0.6-1.5z" />
	<path id="Layer" class="s2" d="m892.9 334.9q0.4 0.5 0.4 1.1v4.7q-0.1 0.8-0.6 1.4q-0.5 0.7-1.2 1l-8.4 4.9c-1.2 0.6-2.4 1-3.7 1c-1.3 0.1-2.6-0.2-3.8-0.7l-8.4-4.9q-0.6-0.2-0.9-0.8q-0.4-0.5-0.4-1.1v-4.6q0.1-0.8 0.6-1.4q0.5-0.7 1.2-1l8.4-4.9c1.2-0.6 2.5-0.9 3.8-1c1.3-0.1 2.6 0.2 3.8 0.7l8.3 4.9q0.6 0.2 0.9 0.7z" />
	<path id="Layer" class="s4" d="m876.6 341.8l-6.1-3.6c-1.4-0.8-1.2-2.2 0.4-3.2l6.2-3.5c0.8-0.5 1.8-0.8 2.7-0.8c1 0 1.9 0.2 2.8 0.6l6.1 3.5c1.4 0.8 1.3 2.2-0.4 3.2l-6.2 3.5c-0.8 0.5-1.7 0.8-2.7 0.8c-0.9 0-1.9-0.1-2.8-0.5z" />
	<path id="Layer" class="s4" d="m869.5 348.5q0.3 0.5 0.4 1.1v4.6q-0.2 0.8-0.6 1.5q-0.5 0.6-1.3 1l-8.4 4.8c-1.1 0.6-2.4 1-3.7 1.1c-1.3 0-2.6-0.2-3.8-0.8l-8.4-4.8q-0.5-0.3-0.9-0.8q-0.3-0.5-0.4-1.2v-4.5q0.2-0.8 0.6-1.5q0.5-0.6 1.3-1l8.4-4.8c1.1-0.6 2.4-1 3.7-1.1c1.3 0 2.6 0.2 3.8 0.8l8.4 4.8q0.5 0.3 0.9 0.8z" />
	<path id="Layer" class="s24" d="m869.9 349.6v4.6q-0.2 0.8-0.6 1.5q-0.5 0.6-1.3 1l-8.4 4.8q-0.8 0.5-1.7 0.7q-0.3 0.1-0.7 0.1q-0.3-0.1-0.5-0.3q-0.3-0.2-0.4-0.5q-0.2-0.2-0.2-0.6v-0.8c0.1-0.6 0.2-1.1 0.6-1.6c0.4-0.5 0.9-0.8 1.4-0.9q0.8-0.3 1.6-0.7l8.4-4.8q0.7-0.4 1.2-1q0.5-0.7 0.6-1.5z" />
	<path id="Layer" class="s2" d="m869.5 348.5q0.3 0.5 0.4 1.1v4.6q-0.2 0.8-0.6 1.5q-0.5 0.6-1.3 1l-8.4 4.8c-1.1 0.6-2.4 1-3.7 1.1c-1.3 0-2.6-0.2-3.8-0.8l-8.4-4.8q-0.5-0.3-0.9-0.8q-0.3-0.5-0.4-1.2v-4.5q0.2-0.8 0.6-1.5q0.5-0.6 1.3-1l8.4-4.8c1.1-0.6 2.4-1 3.7-1.1c1.3 0 2.6 0.2 3.8 0.8l8.4 4.8q0.5 0.3 0.9 0.8z" />
	<path id="Layer" class="s10" d="m853.2 355.3l-6.2-3.5c-1.4-0.8-1.2-2.3 0.5-3.2l6.1-3.5c0.8-0.5 1.8-0.7 2.7-0.8c1 0 1.9 0.2 2.8 0.6l6.1 3.5c1.5 0.8 1.3 2.2-0.4 3.2l-6.2 3.5c-0.8 0.5-1.7 0.7-2.7 0.8c-0.9 0-1.9-0.2-2.7-0.6z" />
	<path id="Layer" class="s4" d="m988.9 417.4q0.3 0.6 0.4 1.2v4.6q-0.1 0.8-0.6 1.4q-0.5 0.7-1.3 1l-8.4 4.9c-1.1 0.6-2.4 1-3.7 1c-1.3 0.1-2.6-0.2-3.8-0.7l-8.3-4.9q-0.6-0.2-1-0.8q-0.3-0.5-0.3-1.1v-4.6q0.1-0.8 0.6-1.4q0.5-0.7 1.2-1l8.4-4.8c1.1-0.7 2.4-1 3.7-1.1c1.3 0 2.6 0.2 3.8 0.7l8.4 4.9q0.6 0.2 0.9 0.7z" />
	<path id="Layer" class="s25" d="m989.3 418.6v4.6q-0.1 0.8-0.6 1.5q-0.5 0.6-1.2 0.9l-8.4 4.9q-0.9 0.5-1.8 0.7q-0.3 0.1-0.6 0q-0.3 0-0.6-0.2q-0.2-0.2-0.4-0.5q-0.1-0.3-0.1-0.6v-0.8c0-0.6 0.2-1.1 0.5-1.6c0.4-0.5 0.9-0.8 1.4-1q0.8-0.2 1.6-0.6l8.4-4.9q0.7-0.3 1.2-1q0.5-0.6 0.6-1.4z" />
	<path id="Layer" class="s2" d="m988.9 417.4q0.3 0.6 0.4 1.2v4.6q-0.1 0.8-0.6 1.4q-0.5 0.7-1.3 1l-8.4 4.9c-1.1 0.6-2.4 1-3.7 1c-1.3 0.1-2.6-0.2-3.8-0.7l-8.3-4.9q-0.6-0.2-1-0.8q-0.3-0.5-0.3-1.1v-4.6q0.1-0.8 0.6-1.4q0.5-0.7 1.2-1l8.4-4.8c1.1-0.7 2.4-1 3.7-1.1c1.3 0 2.6 0.2 3.8 0.7l8.4 4.9q0.6 0.2 0.9 0.7z" />
	<path id="Layer" class="s10" d="m972.6 424.3l-6.1-3.6c-1.4-0.8-1.2-2.2 0.4-3.2l6.2-3.5c0.8-0.5 1.8-0.8 2.7-0.8c1 0 1.9 0.2 2.8 0.6l6.1 3.5c1.4 0.8 1.3 2.2-0.4 3.2l-6.1 3.5c-0.9 0.5-1.8 0.8-2.8 0.8c-0.9 0.1-1.9-0.1-2.8-0.5z" />
	<path id="Layer" class="s4" d="m1012.8 431.2q0.3 0.5 0.4 1.1v4.7q-0.1 0.8-0.6 1.4q-0.5 0.7-1.2 1l-8.5 4.8c-1.1 0.7-2.4 1-3.7 1.1c-1.3 0.1-2.6-0.2-3.8-0.7l-8.3-4.9q-0.6-0.2-1-0.8q-0.3-0.5-0.3-1.1v-4.6q0.1-0.8 0.6-1.4q0.5-0.7 1.2-1l8.4-4.9c1.1-0.6 2.4-1 3.7-1c1.3-0.1 2.6 0.2 3.8 0.7l8.4 4.9q0.5 0.2 0.9 0.7z" />
	<path id="Layer" class="s26" d="m1013.2 432.3v4.7q-0.1 0.8-0.6 1.4q-0.5 0.7-1.3 1l-8.4 4.8q-0.8 0.5-1.7 0.8q-0.3 0.1-0.6 0q-0.3-0.1-0.6-0.2q-0.2-0.2-0.4-0.5q-0.1-0.3-0.1-0.6v-0.8c0-0.6 0.2-1.2 0.5-1.6c0.4-0.5 0.8-0.8 1.4-1q0.8-0.2 1.5-0.7l8.4-4.8q0.8-0.3 1.3-1q0.5-0.6 0.6-1.5z" />
	<path id="Layer" class="s2" d="m1012.8 431.2q0.3 0.5 0.4 1.1v4.7q-0.1 0.8-0.6 1.4q-0.5 0.7-1.2 1l-8.5 4.8c-1.1 0.7-2.4 1-3.7 1.1c-1.3 0.1-2.6-0.2-3.8-0.7l-8.3-4.9q-0.6-0.2-1-0.8q-0.3-0.5-0.3-1.1v-4.6q0.1-0.8 0.6-1.4q0.5-0.7 1.2-1l8.4-4.9c1.1-0.6 2.4-1 3.7-1c1.3-0.1 2.6 0.2 3.8 0.7l8.4 4.9q0.5 0.2 0.9 0.7z" />
	<path id="Layer" class="s10" d="m996.5 438.1l-6.1-3.6c-1.4-0.8-1.3-2.2 0.4-3.2l6.1-3.5c0.9-0.5 1.8-0.8 2.8-0.8q1.4 0 2.8 0.5l6.1 3.6c1.4 0.8 1.2 2.2-0.4 3.2l-6.2 3.5c-0.8 0.5-1.8 0.7-2.7 0.8c-1 0-1.9-0.2-2.8-0.5z" />
	<path id="Layer" class="s4" d="m964.8 403.5q0.3 0.6 0.3 1.3v4.5q-0.1 0.8-0.6 1.4q-0.5 0.6-1.2 1l-8.4 4.8c-1.2 0.7-2.4 1-3.8 1.1c-1.3 0-2.6-0.2-3.8-0.8l-79.7-46q-0.6-0.3-0.9-0.8q-0.4-0.6-0.3-1.3v-4.5q0.1-0.8 0.6-1.4q0.5-0.6 1.2-1l8.4-4.8c1.1-0.7 2.4-1 3.7-1.1c1.3 0 2.6 0.2 3.8 0.8l79.7 46q0.6 0.3 1 0.8z" />
	<path id="Layer" class="s27" d="m965.1 404.6v4.7q-0.1 0.8-0.6 1.4q-0.5 0.7-1.2 1l-8.4 4.8q-0.9 0.5-1.8 0.7q-0.3 0.1-0.6 0.1q-0.3-0.1-0.6-0.3q-0.2-0.2-0.4-0.5q-0.1-0.2-0.1-0.6v-0.8c0-0.6 0.2-1.1 0.5-1.6c0.4-0.4 0.9-0.8 1.5-0.9q0.8-0.3 1.5-0.7l8.4-4.8q0.7-0.4 1.2-1q0.5-0.7 0.6-1.5z" />
	<path id="Layer" class="s1" d="m950.6 410.4q-1 0-2-0.4l-77.9-45q-0.2-0.1-0.3-0.4q-0.1-0.2-0.1-0.4q0-0.3 0.1-0.5q0.1-0.2 0.3-0.4l7.2-4.1c0.9-0.5 1.9-0.7 2.9-0.7q1.1-0.1 2 0.4l77.9 45q0.2 0.1 0.4 0.3q0.1 0.2 0.1 0.5q0 0.2-0.1 0.5q-0.2 0.2-0.4 0.3l-7.1 4.2c-0.9 0.4-1.9 0.7-3 0.7z" />
	<path id="Layer" class="s2" d="m964.8 403.5q0.3 0.6 0.3 1.3v4.5q-0.1 0.8-0.6 1.4q-0.5 0.6-1.2 1l-8.4 4.8c-1.2 0.7-2.4 1-3.8 1.1c-1.3 0-2.6-0.2-3.8-0.8l-79.7-46q-0.6-0.3-0.9-0.8q-0.4-0.6-0.3-1.3v-4.5q0.1-0.8 0.6-1.4q0.5-0.6 1.2-1l8.4-4.8c1.1-0.7 2.4-1 3.7-1.1c1.3 0 2.6 0.2 3.8 0.8l79.7 46q0.6 0.3 1 0.8z" />
	<path id="Layer" class="s2" d="m1085 407q0.4 0.6 0.5 1.4v12.4c0.1 1.1-0.8 2.4-2.4 3.3l-81.1 46.9c-3 1.6-7.4 1.8-10 0.4l-173.3-100c-0.5-0.3-0.9-0.6-1.2-1.1c-0.4-0.5-0.5-1.1-0.5-1.6v-12.5q0.2-1 0.9-1.8q0.6-0.8 1.5-1.2l81.2-46.8c2.9-1.7 7.4-1.9 9.9-0.5l173.3 100.1q0.7 0.3 1.2 1z" />
	<path id="Layer" class="s28" d="m959.2 97.2l179.1 103.4v105.2l-179.1-103.3z" />
	<path id="Layer" class="s28" d="m1138.3 200.6v105.2l-6.4 3.9l-179.1-103.4v-105.2l6.4-3.9z" />
	<path id="Layer" class="s28" d="m952.8 101.1l179.1 103.4v105.2l-179.1-103.4z" />
	<path id="Layer" class="s29" d="m1138.3 200.6v17.6l-6.4 3.9l-179.1-103.4v-17.6l6.4-3.9z" />
	<path id="Layer" class="s29" d="m952.8 101.1l179.1 103.4v17.6l-179.1-103.4z" />
	<path id="Layer" class="s30" d="m1117.4 207.7c-1.6-2.1-1.9-4.4-0.7-5.3c1.1-0.9 3.3 0.1 4.9 2.1c1.5 2.1 1.8 4.4 0.7 5.3c-1.2 0.9-3.4-0.1-4.9-2.1z" />
	<path id="Layer" class="s30" d="m1105.8 201c-1.5-2-1.8-4.4-0.7-5.3c1.2-0.8 3.4 0.1 4.9 2.2c1.5 2 1.8 4.4 0.7 5.2c-1.2 0.9-3.4 0-4.9-2.1z" />
	<path id="Layer" class="s30" d="m1094.3 194.4c-1.6-2.1-1.9-4.5-0.7-5.3c1.1-0.9 3.3 0 4.9 2.1c1.5 2 1.8 4.4 0.7 5.3c-1.2 0.9-3.4-0.1-4.9-2.1z" />
	<path id="Layer" class="s31" d="m1131.9 204.5l6.4-3.9" />
	<path id="Layer" class="s28" d="m965.1 154.7l89.4 51.7q0.4 0.3 0.7 0.7q0.2 0.3 0.2 0.8q0 0.4-0.2 0.8q-0.3 0.4-0.7 0.6q-0.3 0.2-0.8 0.2q-0.4 0-0.8-0.2l-89.4-51.7q-0.4-0.3-0.6-0.7q-0.3-0.3-0.3-0.8q0-0.4 0.3-0.8q0.2-0.4 0.6-0.6q0.4-0.2 0.8-0.2q0.4 0 0.8 0.2z" />
	<path id="Layer" class="s28" d="m1003.4 161.1l44.5 25.7q0.4 0.2 0.6 0.6q0.3 0.4 0.3 0.9q0 0.4-0.3 0.8q-0.2 0.4-0.6 0.6q-0.4 0.2-0.8 0.2q-0.4 0-0.8-0.2l-44.5-25.7q-0.4-0.2-0.6-0.6q-0.3-0.4-0.3-0.8q0-0.5 0.3-0.8q0.2-0.4 0.6-0.7q0.4-0.2 0.8-0.2q0.4 0 0.8 0.2z" />
	<path id="Layer" class="s32" d="m965.1 138.9l26.5 15.2q0.4 0.2 0.6 0.6q0.2 0.4 0.2 0.8q0 0.4-0.2 0.8q-0.2 0.4-0.6 0.6q-0.4 0.3-0.9 0.3q-0.4 0-0.8-0.3l-26.4-15.2q-0.4-0.2-0.6-0.6q-0.3-0.3-0.3-0.8q0-0.4 0.3-0.8q0.2-0.4 0.6-0.6q0.4-0.3 0.8-0.3q0.4 0 0.8 0.3z" />
	<path id="Layer" class="s1" d="m1065.6 212.8l26.5 15.2q0.3 0.2 0.6 0.6q0.2 0.4 0.2 0.8q0 0.5-0.2 0.9q-0.2 0.4-0.6 0.6q-0.4 0.2-0.9 0.2q-0.4 0-0.8-0.2l-26.5-15.2q-0.3-0.2-0.6-0.6q-0.2-0.4-0.2-0.8q0-0.5 0.2-0.9q0.2-0.4 0.6-0.6q0.4-0.2 0.9-0.2q0.4 0 0.8 0.2z" />
	<path id="Layer" class="s28" d="m1015 201.8l50.1 28.6q0.4 0.2 0.6 0.6q0.3 0.4 0.3 0.8q0 0.4-0.3 0.8q-0.2 0.4-0.6 0.6q-0.3 0.3-0.8 0.3q-0.4 0-0.8-0.3l-50.1-28.6q-0.4-0.2-0.6-0.6q-0.3-0.4-0.3-0.8q0-0.5 0.3-0.8q0.2-0.4 0.6-0.7q0.4-0.2 0.8-0.2q0.5 0 0.8 0.3z" />
	<path id="Layer" class="s28" d="m1038.5 231.3l27.7 15.9q0.4 0.2 0.6 0.6q0.2 0.4 0.2 0.9q0 0.4-0.2 0.8q-0.2 0.4-0.6 0.6q-0.4 0.2-0.9 0.2q-0.4 0-0.8-0.2l-27.7-15.9q-0.4-0.2-0.6-0.6q-0.2-0.4-0.2-0.8q0-0.5 0.2-0.9q0.2-0.4 0.6-0.6q0.4-0.2 0.8-0.2q0.5 0 0.9 0.2z" />
	<path id="Layer" class="s29" d="m1015 217.8l12.5 7.2q0.4 0.2 0.6 0.6q0.2 0.4 0.2 0.8q0 0.4-0.2 0.8q-0.3 0.4-0.6 0.6q-0.4 0.3-0.9 0.3q-0.4 0-0.8-0.3l-12.4-7.2q-0.4-0.2-0.6-0.6q-0.3-0.4-0.3-0.8q0.1-0.5 0.3-0.9q0.2-0.3 0.6-0.6q0.4-0.2 0.8-0.2q0.5 0 0.8 0.3z" />
	<path id="Layer" class="s4" d="m910.3 142.2l89.8 51.9v89.7l-89.8-51.8z" />
	<path id="Layer" class="s29" d="m956.9 251.2c-2.1-1.2-4.3-2.4-6.3-3.7q-9.2-5.4-17.7-11.7q-2.5-1.9-4.8-4q-1.3-1.5-2.4-3.1c-2.2-2.6-4.8-4.7-6.5-7.7c-1.6-2.6-2.3-5.6-2-8.6c0-1.5 0.6-2.9 1.5-4.1c1-1.2 2.3-2.1 3.7-2.5q1.7-0.4 3.4-0.6c2-0.3 4.6-0.3 4.1-3.4q-0.5-2-1.3-3.8c-3.2-8.8-0.4-14.9 3.4-18.8c1.5-1.5 3.2-2.8 5.2-3.8c3.5-1.7 7.8-1.7 11.6-1c7.9 1.5 15 6 19.8 12.7c2 3 3.6 6.5 4.5 10.1q1.8 6.2 2.4 12.7c2.1 17 12.2 20.5 17.2 35.5c4.9 15-2.6 17.3-2.6 17.3z" />
	<path id="Layer" class="s4" d="m1000.1 267v16.8l-89.8-51.8v-22.2c7.7-2.5 20.5 0 35.3 7.3q3.5 1.7 7.3 3.9q3.7 2.1 7.4 4.6c18.3 12.1 33.4 28 39.8 41.4z" />
	<path id="Layer" class="s33" d="m941.2 181.9c1.6-2.2 4.6-2.5 7.1 1.7c0.6 0.8 1.4 1.4 2 1.2c3.2-0.7 8.9 5.5 10.5 10.9c1.1 4.7 3.1 9 5.9 13q-0.1 0.5-0.2 1c-1 5-4.4 7.6-8.7 7.1l0.9 7.8c0.5 0.4 1 0.7 1.6 1c0.2 1.3 0 2.5-0.4 3.7c-1.3 3.7-5.7 3.7-9.5 0.3c-3.8-3.4-5.9-8.9-4.8-12.5q1.8 0.9 3.6 1.9l-0.2-6.8c-5.7-5.2-9.9-13.7-10.2-21.2q0-0.4 0-0.9c0-3.5 0.9-6.3 2.4-8.2z" />
	<path id="Layer" class="s2" d="m950.4 203.3c-1.9-5.2-1.2-10.2 1.7-11.3c2.9-1.1 6.8 2.3 8.7 7.4c1.9 5.2 1.2 10.3-1.7 11.3c-2.9 1.1-6.8-2.2-8.7-7.4z" />
	<path id="Layer" class="s2" d="m935.7 194.8c-1.9-5.2-1.2-10.2 1.7-11.3c2.9-1.1 6.8 2.3 8.7 7.4c1.9 5.2 1.2 10.3-1.7 11.3c-2.9 1.1-6.8-2.2-8.7-7.4z" />
	<path id="Layer" class="s2" d="m949.3 197.7l-2.1-1.2" />
	<path id="Layer" class="s34" d="m949 212.2c0 0 4.1 4.3 8.8 4.7z" />
	<path id="Layer" class="s2" d="m949 212.2c0 0 4.1 4.3 8.8 4.7" />
	<path id="Layer" class="s35" d="m958.2 219.8c-8.5-4-9.2-7.6-9.2-7.6c4.2 3.8 6.9 4.5 8.8 4.7z" />
	<path id="Layer" class="s35" d="m966.7 208.8q1.5 1.8 3.2 3.5z" />
	<path id="Layer" class="s31" d="m966.7 208.8q1.5 1.8 3.2 3.5" />
	<path id="Layer" class="s3" d="m993.6 275q-0.1-0.1-0.3-0.1l-76.9-44.4q-0.1-0.1-0.1-0.2q-0.1-0.1-0.1-0.2q-0.1-0.1 0-0.2q0-0.1 0-0.2q0.1-0.1 0.2-0.2q0.1 0 0.2-0.1q0.1 0 0.2 0q0.1 0 0.2 0.1l76.9 44.4q0.1 0.1 0.2 0.1q0 0.1 0.1 0.2q0 0.1 0 0.3q0 0.1-0.1 0.2q-0.1 0.1-0.2 0.2q-0.1 0.1-0.3 0.1z" />
	<path id="Layer" class="s35" d="m919.3 232.3q-0.2 0-0.4-0.1l-2.6-1.5q-0.3-0.2-0.3-0.5q-0.1-0.3 0.1-0.6q0.1-0.3 0.4-0.4q0.3-0.1 0.6 0.1l2.6 1.4q0.2 0.2 0.3 0.5q0.1 0.2 0.1 0.5q-0.1 0.3-0.3 0.4q-0.2 0.2-0.5 0.2z" />
	<path id="Layer" class="s3" d="m1146.8 472.7c0-10 15.7-18.2 35.1-18.2c19.4 0 35.1 8.2 35.1 18.2c0 10-15.7 18.1-35.1 18.1c-19.4 0-35.1-8.1-35.1-18.1z" />
	<path id="Layer" class="s4" d="m1205.1 454.5l-0.1 0.1c-0.8 1-1.2 2.2-1.1 3.5c0 1.2 0.6 2.4 1.4 3.3c1.7 1.8 2.6 4.1 2.7 6.5c0 9.1-13.9 15.9-32.2 15.9c-18.4 0-32.2-6.8-32.2-15.9c0.1-2.4 1-4.7 2.7-6.5c0.8-0.9 1.4-2.1 1.4-3.3c0.1-1.3-0.3-2.5-1.1-3.5l-0.1-0.1c-9.7-11.7-15.9-29.1-15.9-48.5v-0.1c0-13.9 20.2-25 45.2-25c24.9 0 45.1 11.1 45.2 25v0.1c-0.1 19.4-6.2 36.8-15.9 48.5z" />
	<path id="Layer" class="s36" d="m1175.8 482c-5.1 0-10.1-0.6-15-1.8c-4.1-1.1-7.3-3.6-8.3-6.8c-0.3-1.1-0.4-2.3-0.3-3.4c0.4-2.1 1.5-3.9 3.1-5.3c2.8-2.4 3.4-5.8 1.7-8.6l-0.1-0.1c-4.5-7.5-7.4-15.9-8.5-24.5c-0.2-1.5 1.6-2.5 3.3-1.9c7.8 2.5 15.9 3.8 24.1 3.7c16.5 0 31.6-4.8 40.1-12.6c0.6-0.5 1.7-0.1 1.6 0.6c-2.3 12.5-7.3 23.8-14.2 32.2l-0.1 0.2c-1.1 1.2-1.6 2.8-1.5 4.4c0 1.6 0.7 3.2 1.8 4.3c1.4 1.5 2.2 3.5 2.3 5.5c-0.1 8-13 14.1-30 14.1z" />
	<path id="Layer" class="s37" d="m1214.4 405.9v0.1c0 2.9-1.1 5.6-3 7.9c-5.8 7.3-19.6 12.5-35.6 12.5c-16 0-29.8-5.1-35.7-12.5c-1.9-2.3-2.9-5-3-7.9v-0.1c0-11.3 17.3-20.5 38.7-20.5c21.3 0 38.6 9.2 38.6 20.5z" />
	<path id="Layer" class="s2" d="m1205.1 454.5l-0.1 0.1c-0.8 1-1.2 2.2-1.1 3.5c0 1.2 0.6 2.4 1.4 3.3c1.7 1.8 2.6 4.1 2.7 6.5c0 9.1-13.9 15.9-32.2 15.9c-18.4 0-32.2-6.8-32.2-15.9c0.1-2.4 1-4.7 2.7-6.5c0.8-0.9 1.4-2.1 1.4-3.3c0.1-1.3-0.3-2.5-1.1-3.5l-0.1-0.1c-9.7-11.7-15.9-29.1-15.9-48.5v-0.1c0-13.9 20.2-25 45.2-25c24.9 0 45.1 11.1 45.2 25v0.1c-0.1 19.4-6.2 36.8-15.9 48.5z" />
	<path id="Layer" class="s10" d="m1211.4 413.9c-5.8 7.3-19.6 12.5-35.6 12.5c-16 0-29.8-5.1-35.7-12.5c5.9-7.4 19.6-12.6 35.7-12.6c16 0 29.8 5.2 35.6 12.6z" />
	<path id="Layer" class="s31" d="m1184.1 414.2q-1 0.4-2 0.7l-0.7 0.2q-2.3 0.5-4.8 0.5q-2.4 0-4.8-0.5q-0.5-0.2-1-0.3q-0.9-0.3-1.7-0.6" />
	<path id="Layer" fill-rule="evenodd" class="s1" d="m1221.5 301.3c3.3 4.7 5.2 10.3 5.2 16.1v12.3c0 4.4-1.8 8.7-5 11.8c-3.1 3.2-7.4 4.9-11.8 4.9c-4.5 0-8.7-1.7-11.9-4.9c-3.1-3.1-4.9-7.4-4.9-11.8v-27.9c-3.2 1.2-6 3.3-7.9 6.1c-2 2.8-3 6.1-3 9.5v97.5l-0.8 0.2q-2.3 0.5-4.7 0.5q-2.5 0-4.9-0.5q-0.5-0.2-0.9-0.3v-97.4c0-5.6 1.7-11 4.8-15.6c3.1-4.7 7.6-8.2 12.8-10.3q1.1-0.4 2.3-0.8q1.1-0.3 2.3-0.6v-6.6c0-1-0.2-2-0.7-2.8c-0.5-0.9-1.2-1.6-2.1-2.1c-0.9-0.5-1.8-0.8-2.8-0.8c-1 0-2 0.3-2.8 0.8l-43.6 25.2c-1.3 0.7-2.8 0.9-4.3 0.5c-1.4-0.4-2.7-1.3-3.4-2.6c-0.8-1.3-1-2.9-0.6-4.3c0.4-1.5 1.4-2.7 2.7-3.4l43.5-25.2c2.6-1.4 5.5-2.2 8.5-2.2c2.9 0 5.8 0.8 8.4 2.3c2.6 1.5 4.7 3.6 6.2 6.2c1.5 2.5 2.2 5.5 2.2 8.4v6.7h0.2q0.6 0.1 1.1 0.2l1.1 0.3h0.1l1.1 0.4c5.4 1.9 10.2 5.4 13.6 10.2zm-6.2 16.1c0-3.1-0.8-6.1-2.5-8.7c-1.6-2.7-3.9-4.8-6.7-6.1l-0.5-0.3q-0.3-0.2-0.6-0.3l-0.6-0.2q0 0 0 0q0 0 0 0v27.8c0 1.5 0.6 2.8 1.7 3.8c1 0.9 2.4 1.5 3.8 1.5c1.4 0 2.7-0.6 3.8-1.5c1-1 1.6-2.3 1.6-3.8z" />
	<path id="Layer" class="s2" d="m1186.8 292.2c3.8-1.8 7.8-2.7 11.9-2.7c4.7 0 9.3 1.2 13.3 3.4" />
	<path id="Layer" class="s2" d="m1191.7 302.4c2.2-1 4.6-1.6 7-1.6c2.8 0 5.5 0.7 8 2" />
	<g id="Layer" style="opacity: .2">
		<path id="Layer" class="s3" d="m1204.4 308.5c-4.1-4.1-10.9-2.2-11.4-2.1v-4.6c1.9-0.6 3.8-1 5.7-1q3 0 5.7 1z" />
	</g>
	<path id="Layer" fill-rule="evenodd" class="s28" d="m1191.6 337c0 0.3 0.1 0.6 0 0.8c-0.1 0.3 0 0.6-0.1 0.8c0 0.2 0 0.4 0 0.6q-0.1 0.3-0.1 0.5q-0.1 0.5-0.3 1l-0.1 0.4q-0.1 0.3-0.2 0.5q-0.1 0.4-0.2 0.7q-0.3 0.5-0.7 1q-0.1 0.3-0.3 0.5q-0.2 0.3-0.4 0.5q-0.2 0.1-0.3 0.3q-0.2 0.1-0.4 0.3q-0.1 0.1-0.3 0.2l-0.3 0.2l-0.7 0.4l-9 5.2q-0.3 0.3-0.7 0.5l-0.3 0.1c3.1 7.8 2.3 15-2.7 17.4l-9.2 5.4q-0.2 0.1-0.5 0.2l-0.3 0.2l-0.4 0.2c-3.3 1.4-7.5 0.5-11.7-1.9q-0.6-0.4-1.3-0.8l-0.6-0.4l-0.6-0.5q-0.2-0.1-0.5-0.3q-0.1-0.1-0.3-0.2c-0.3-0.3-0.5-0.4-0.9-0.8q-0.7-0.5-1.3-1.1l-0.6-0.6l-0.1-0.1q-0.5-0.5-1-1l-0.1-0.1l-0.5-0.6q-0.3-0.3-0.6-0.7q-0.3-0.3-0.5-0.6l-0.3-0.3l-0.3-0.4l-8.4 5c-0.2 0.1-0.4 0.2-0.5 0.2c-0.2 0.1-0.2 0.2-0.3 0.2q-0.4 0.1-0.7 0.2q-0.3 0.1-0.6 0.2l-0.4 0.1q-0.6 0.1-1.2 0.1h-0.3c-3 0-6-0.9-8.6-2.6c-9.4-5.4-16.6-17.3-16.6-26.2q0-2 0.5-3.9c-5.5 6.2-18.3 0.5-25.9-11.9c-3.3-5.1-4.9-10.3-4.9-14.5c0-0.2 0-0.6 0-0.8q0-0.3 0-0.7q0.1-1.4 0.6-2.8q0.1-0.2 0.2-0.5c0.1-0.2 0.1-0.3 0.2-0.5q0.1-0.3 0.3-0.5q0.2-0.3 0.3-0.6q0.2-0.2 0.3-0.3q0.2-0.3 0.5-0.6l0.3-0.3l0.1-0.1q0.2-0.2 0.4-0.3q0.3-0.2 0.5-0.4q0.3-0.1 0.6-0.3l2.4-1.4q-0.1 0-0.2-0.1l-0.2-0.1q-0.1 0-0.1 0l-0.3-0.1q-0.8-0.3-1.5-0.8l-0.4-0.2q-0.4-0.2-0.7-0.4l-0.2-0.1q-0.1 0-0.1-0.1l-0.5-0.3q0 0-0.1 0q-0.2-0.2-0.4-0.3q-1.3-0.9-2.5-2q-0.4-0.3-0.8-0.7l-0.6-0.5l-0.5-0.6q-0.7-0.6-1.3-1.3l-0.9-1l-0.3-0.4q-0.7-0.8-1.4-1.7c-0.2-0.3-0.4-0.6-0.6-0.9q-0.3-0.5-0.6-0.9c-0.7-1-1.2-2-1.8-3q-0.2-0.4-0.3-0.7c-0.1-0.2-0.2-0.3-0.3-0.7q-0.3-0.4-0.5-1c-0.4-0.7-0.7-1.5-0.9-2.2q-0.4-1.1-0.6-2.1q0 0 0-0.1q-0.1-0.3-0.2-0.7c-0.1-0.2-0.1-0.4-0.1-0.6q-0.1-0.1-0.1-0.2v-0.2c-0.1-0.1-0.1-0.3-0.1-0.5q-0.1-1-0.2-1.9q0-0.6 0-1.1q0-0.2 0-0.3q0-0.2 0-0.4c0-0.3 0.1-0.6 0.1-0.8q0-0.2 0-0.4q0.1-0.8 0.3-1.6q0.1-0.3 0.2-0.6q0.1-0.4 0.2-0.7q0.1-0.3 0.3-0.6q0.1-0.3 0.3-0.5q0.2-0.3 0.4-0.6q0.1-0.2 0.4-0.5l0.1-0.1l0.4-0.4q0.4-0.4 0.9-0.7l0.5-0.3l0.1-0.1h0.1l9.3-5.4q0.4-0.2 0.7-0.4q-0.2-0.6-0.4-1.1q-0.4-1.4-0.8-2.8q-0.1-0.4-0.1-0.7l-0.1-0.5q-0.2-0.7-0.2-1.4c-0.1-0.2-0.1-0.4-0.1-0.7c0-0.6 0-1.6 0-2.1q0-0.2 0-0.5q0.1-1.6 0.6-3.1v-0.1l0.2-0.4c0-0.1 0.1-0.2 0.1-0.3q0-0.1 0.1-0.3q0.1-0.2 0.3-0.4q0.2-0.4 0.4-0.8q0.1-0.1 0.2-0.2q0.1-0.1 0.2-0.2l0.2-0.2q0.1-0.2 0.3-0.4q0.3-0.2 0.5-0.4l0.5-0.3q0.3-0.2 0.6-0.4l9.8-5.7q0.4-0.2 0.8-0.4c3.3-1.4 7.5-0.5 11.8 1.9c3.6 2.2 6.8 5 9.4 8.4l8.2-4.8c3-1.9 7.6-1.7 12.8 1.4c9.4 5.4 16.6 17.3 16.6 26.2q0.1 1.7-0.4 3.3l-0.1 0.1l-0.7 0.4c-2.3 1.4-5.5 3.3-6.5 3.8l-0.1 0.1c6.3-2.5 16.8 3.2 23.4 13.7l0.5 0.8q0.5 0.8 0.9 1.6c0 0 0-0.1 0.1 0.1q0.1 0.3 0.3 0.6l0.1 0.3l0.1 0.1c0.1 0.2 0.2 0.5 0.3 0.7q0.1 0.3 0.3 0.6q0 0.1 0 0.1q0.1 0.3 0.2 0.5q0.1 0.1 0.1 0.3c0.2 0.3 0.3 0.7 0.4 1q0.2 0.5 0.3 0.9c0.8 2.2 1.2 4.6 1.3 6.9c0 0.4 0 0.7 0 1c-0.1 0.4-0.2 0.8-0.2 1.1q0 0.7-0.2 1.3q-0.1 0.5-0.3 1q-0.2 0.6-0.6 1.2q-0.2 0.6-0.6 1.1q-0.4 0.5-0.9 0.9q-0.4 0.4-1 0.8h-0.1l7.1-4.1q0.3 0.1 0.7 0.3l1 0.5q0.9 0.5 1.8 1l0.5 0.3l0.1 0.1l0.2 0.1q0.2 0.2 0.5 0.4l0.2 0.1q0.3 0.2 0.6 0.5q0.8 0.5 1.4 1.1q0.4 0.3 0.7 0.6l0.7 0.6q0.5 0.5 1.1 1.1q0.3 0.3 0.5 0.6q0.5 0.5 1.1 1.1q0.2 0.3 0.5 0.6q0.5 0.6 1 1.3q0.5 0.6 0.9 1.3c0.2 0.2 0.3 0.4 0.5 0.6q0.2 0.3 0.4 0.7q0.9 1.3 1.6 2.7l0.5 0.9q0.4 0.9 0.8 1.9c0.2 0.3 0.4 0.8 0.5 1.1c0.1 0.4 0.3 0.8 0.4 1.1q0.1 0.5 0.3 1.1l0.1 0.3q0.1 0.5 0.2 0.9q0 0.1 0 0.1c0.1 0.3 0.1 0.4 0.2 0.7c0 0.2 0 0.5 0.1 0.8c0 0.2 0 0.6 0.1 0.8c0.1 0.2 0 0.4 0.1 0.6q0 0.3 0 0.6c0 0.4 0 0.9 0 1.2zm-16.2-29.5l-0.3 0.2q0.2-0.1 0.2-0.2zm-0.2 0.2q-0.1 0-0.1 0.1q-0.2 0.1-0.4 0.2z" />
	<path id="Layer" class="s28" d="m1181.6 342.7q0 0.5 0 0.9q0 0.4 0 0.7c-0.1 0.3-0.1 0.5-0.1 0.7c0 0.2-0.1 0.3-0.1 0.4q-0.1 0.6-0.2 1.1l-0.2 0.4q0 0.2-0.1 0.4c-0.1 0.2-0.2 0.5-0.3 0.7q-0.3 0.6-0.6 1.1q-0.2 0.2-0.4 0.5q-0.2 0.2-0.4 0.4q-0.2 0.2-0.3 0.3q-0.2 0.2-0.3 0.3q-0.2 0.1-0.3 0.2q-0.6 0.4-1.3 0.8q-0.1 0-0.2 0q-0.3 0.2-0.7 0.3q-0.3 0.1-0.6 0.1q-0.3 0.1-0.6 0.2l-0.7 0.1h-0.6q-0.7 0-1.4-0.1c-0.3 0-0.5-0.1-0.8-0.1c-0.5-0.1-1-0.2-1.5-0.3l-0.8-0.3l-0.6-0.2l-0.3-0.1q-1.6-0.6-3.1-1.5q-1.1-0.6-2.2-1.4l-0.6-0.5l-0.5-0.4l-0.6-0.5l-0.3-0.2l-25.1-24.9c0.8-1.5 1.2-3.2 1.1-5c0-2.1-0.4-4.2-1.1-6.3l25.2 4.2q1 0.3 2 0.8q0.5 0.2 1.1 0.5q0.9 0.4 1.8 1l0.5 0.3l0.1 0.1q0.1 0 0.1 0.1q0.3 0.1 0.5 0.3l0.3 0.2l0.6 0.5q0.7 0.5 1.4 1.1q0.3 0.3 0.7 0.6l0.6 0.6q0.6 0.5 1.2 1.1q0.2 0.2 0.5 0.5q0.5 0.6 1 1.2l0.6 0.6q0.4 0.6 1 1.2c0.4 0.5 0.6 0.9 0.9 1.3q0.3 0.3 0.5 0.7q0.2 0.3 0.4 0.6q0.8 1.4 1.6 2.7l0.5 1q0.4 0.9 0.8 1.8q0.3 0.6 0.5 1.2c0.1 0.4 0.2 0.7 0.4 1.1l0.3 1l0.1 0.4q0.1 0.4 0.2 0.9v0.1c0 0.2 0.1 0.5 0.1 0.7c0.1 0.2 0.1 0.5 0.2 0.7c0 0.3 0.1 0.6 0.1 0.8c0 0.3 0 0.5 0.1 0.7c0 0.2 0 0.4 0 0.6c0.1 0.2-0.1 0.7-0.1 1z" />
	<path id="Layer" class="s31" d="m1131.6 317.8q-0.1-0.4-0.3-0.9q0-0.2-0.1-0.4c0-0.2-0.1-0.3-0.1-0.5q0-0.1 0-0.3c-0.1-0.2-0.2-0.4-0.2-0.6q0-0.2 0-0.3q0-0.2 0-0.4q0-0.2 0-0.5q0-0.3 0-0.5q0-0.3 0-0.5q0-0.3 0-0.5q0-0.2 0-0.4q0-0.1 0-0.2l0.1-0.4c0-0.1 0.1-0.3 0.1-0.4c0.1-0.1 0.1-0.2 0.1-0.3q0.1-0.1 0.1-0.3l0.1-0.2l0.1-0.2l0.1-0.2q0.3-0.4 0.6-0.8" />
	<path id="Layer" class="s28" d="m1167.8 310.6q-0.3 0.6-0.7 1.1q0.4-0.6 0.7-1.1z" />
	<path id="Layer" class="s28" d="m1168.9 307.1q-0.1 0.6-0.3 1.3q-0.1 0.5-0.3 1q0.2-0.5 0.3-1q0.2-0.7 0.3-1.3z" />
	<path id="Layer" class="s28" d="m1164.7 291.3q0.5 0.7 0.9 1.5q-0.2-0.3-0.4-0.7l-0.5-0.7q-0.2-0.5-0.5-1z" />
	<path id="Layer" class="s28" d="m1167 295.9q-0.1-0.3-0.2-0.6q0.1 0.3 0.2 0.6z" />
	<path id="Layer" class="s28" d="m1166.7 295.3q0 0 0 0c-0.2-0.5-0.4-1-0.7-1.5l0.1 0.2q0.2 0.3 0.3 0.7c0.2 0.2 0.2 0.4 0.3 0.6z" />
	<path id="Layer" class="s28" d="m1167.1 296.1q0-0.1-0.1-0.2q0.3 0.7 0.5 1.3q-0.2-0.5-0.4-1.1z" />
	<path id="Layer" class="s28" d="m1169 306q0-0.5 0-1c0-2.3-0.5-4.7-1.2-6.9c0.7 2.2 1.2 4.6 1.2 6.9c0 0.4 0 0.7 0 1z" />
	<path id="Layer" class="s28" d="m1169 305q0 0.5 0 1c0 0.4 0 0.7-0.1 1.1q-0.1 0.7-0.3 1.3q-0.1 0.5-0.2 1q-0.3 0.6-0.6 1.2q-0.3 0.6-0.6 1.1q-0.4 0.5-0.9 0.9q-0.5 0.4-1 0.8h-0.1l-0.1 0.1l-0.2 0.1q-0.3 0.2-0.7 0.4q-0.2 0.1-0.4 0.1q-0.2 0.1-0.5 0.2q-0.6 0.2-1.3 0.2l-0.5 0.1q-0.2 0-0.5 0q-0.1 0-0.2 0l-25.2-4.1c-1.7-4.8-4.4-9.1-8-12.7l10.4-19.1c0.8-0.9 1.7-1.5 2.7-1.9c6.3-2.6 16.7 3.1 23.4 13.6l0.5 0.8q0 0.1 0.1 0.2l0.4 0.7q0.2 0.4 0.4 0.7c0 0 0 0.1 0.1 0.2c0 0 0.2 0.3 0.3 0.5l0.1 0.3l0.1 0.2q0.1 0.3 0.3 0.6c0.1 0.2 0.2 0.4 0.3 0.6c0.1 0.2 0.2 0.6 0.3 0.9c0.1 0.3 0.3 0.7 0.4 1c0.1 0.4 0.3 0.6 0.4 1c0.7 2.2 1.2 4.5 1.2 6.9z" />
	<path id="Layer" class="s7" d="m1134.8 312.4l-0.1-0.1l-0.5-0.3q-0.7-0.4-1.2-0.9q-0.3-0.2-0.6-0.5l-0.4-0.3q-0.2-0.2-0.4-0.4l-0.1-0.1l-0.4-0.4l-0.5-0.5q-0.3-0.4-0.7-0.9l-0.5-0.6l-0.1-0.1q-0.2-0.4-0.5-0.8c-0.2-0.2-0.4-0.5-0.6-0.8q-1.4-2.2-2.2-4.7" />
	<path id="Layer" class="s31" d="m1134.8 312.4l-0.1-0.1l-0.5-0.3q-0.7-0.4-1.2-0.9q-0.3-0.2-0.6-0.5l-0.4-0.3q-0.2-0.2-0.4-0.4l-0.1-0.1l-0.4-0.4l-0.5-0.5q-0.3-0.4-0.7-0.9l-0.5-0.6l-0.1-0.1q-0.2-0.4-0.5-0.8c-0.2-0.2-0.4-0.5-0.6-0.8q-1.4-2.2-2.2-4.7" />
	<path id="Layer" class="s7" d="m1125.9 300.9c-1.4-0.2-2.7-0.7-4-1.5q-2.2-1.3-4-3.1" />
	<path id="Layer" class="s31" d="m1125.9 300.9c-1.4-0.2-2.7-0.7-4-1.5q-2.2-1.3-4-3.1" />
	<path id="Layer" class="s28" d="m1138.6 274.8q0.1 2-0.5 3.9l-10.5 19.2q-2.5-2.6-5.6-4.4c-1.8-1.1-3.7-1.8-5.7-2.1l-10.4-31.2c-2.7-12.1 5.2-17.8 16.1-11.5c9.4 5.4 16.6 17.2 16.6 26.1z" />
	<path id="Layer" class="s7" d="m1125.9 300.9c-1.4-0.2-2.7-0.7-4-1.5q-2.2-1.3-4-3.1" />
	<path id="Layer" class="s31" d="m1125.9 300.9c-1.4-0.2-2.7-0.7-4-1.5q-2.2-1.3-4-3.1" />
	<path id="Layer" class="s7" d="m1126 320.2c0.5-0.9 1.2-1.6 2.2-2c1.1-0.5 2.3-0.6 3.4-0.3" />
	<path id="Layer" class="s31" d="m1126 320.2c0.5-0.9 1.2-1.6 2.2-2c1.1-0.5 2.3-0.6 3.4-0.3" />
	<path id="Layer" class="s28" d="m1164.1 374.8c-3.3 1.4-7.5 0.5-11.7-1.9c-6.3-3.9-11.3-9.6-14.3-16.4l-10.5-31.3c3.6 0.6 6.5-0.6 8-3.4l25.1 24.9h0.1c9.4 11 11.1 24.9 3.3 28.1z" />
	<path id="Layer" class="s7" d="m1131.6 317.9q-0.1-0.5-0.3-0.9q0-0.2-0.1-0.4c0-0.2-0.1-0.4-0.1-0.6q0-0.1 0-0.2c-0.1-0.2-0.2-0.4-0.2-0.6q0-0.2 0-0.4q0-0.2 0-0.3q0-0.3 0-0.6q0-0.2 0-0.5q0-0.2 0-0.5q0-0.2 0-0.5q0-0.1 0-0.3q0-0.1 0-0.3l0.1-0.3c0-0.2 0.1-0.3 0.1-0.4c0.1-0.1 0.1-0.2 0.1-0.4q0.1-0.1 0.1-0.2l0.1-0.2l0.1-0.2l0.1-0.2q0.2 0.2 0.4 0.4l0.4 0.3q0.3 0.3 0.6 0.5q0.5 0.5 1.2 0.9l0.5 0.4h0.1" />
	<path id="Layer" class="s31" d="m1131.6 317.9q-0.1-0.5-0.3-0.9q0-0.2-0.1-0.4c0-0.2-0.1-0.4-0.1-0.6q0-0.1 0-0.2c-0.1-0.2-0.2-0.4-0.2-0.6q0-0.2 0-0.4q0-0.2 0-0.3q0-0.3 0-0.6q0-0.2 0-0.5q0-0.2 0-0.5q0-0.2 0-0.5q0-0.1 0-0.3q0-0.1 0-0.3l0.1-0.3c0-0.2 0.1-0.3 0.1-0.4c0.1-0.1 0.1-0.2 0.1-0.4q0.1-0.1 0.1-0.2l0.1-0.2l0.1-0.2l0.1-0.2q0.2 0.2 0.4 0.4l0.4 0.3q0.3 0.3 0.6 0.5q0.5 0.5 1.2 0.9l0.5 0.4h0.1" />
	<path id="Layer" class="s7" d="m1117.9 315.6c1.5 0.3 2.8 0.8 4.1 1.5q2.2 1.3 4 3.1" />
	<path id="Layer" class="s31" d="m1117.9 315.6c1.5 0.3 2.8 0.8 4.1 1.5q2.2 1.3 4 3.1" />
	<path id="Layer" class="s28" d="m1122 367.9c-9.5-5.4-16.7-17.3-16.7-26.2q0-1.9 0.6-3.8l10.4-19.2c1.7 1.7 3.6 3.2 5.7 4.4c1.7 1 3.6 1.8 5.6 2.1l10.4 31.3c2.8 12-5.1 17.7-16 11.4z" />
	<path id="Layer" class="s28" d="m1138.1 356.5v-0.1q0 0 0 0.1z" />
	<path id="Layer" class="s7" d="m1112.3 306.7q2 1.9 3.4 4.2q1.4 2.2 2.3 4.7" />
	<path id="Layer" class="s31" d="m1112.3 306.7q2 1.9 3.4 4.2q1.4 2.2 2.3 4.7" />
	<path id="Layer" class="s28" d="m1116.3 318.7l-10.4 19.1c-5.5 6.2-18.4 0.4-26.1-11.7c-3.3-5.2-4.9-10.4-4.9-14.6c0-5.6 2.9-9.6 8.3-9.6l25.1 4.1c1.7 4.8 4.4 9.1 8 12.7z" />
	<path id="Layer" class="s7" d="m1112.3 298.7q0.8 2.2 0.8 4.5c0.1 1.2-0.2 2.4-0.8 3.5" />
	<path id="Layer" class="s31" d="m1112.3 298.7q0.8 2.2 0.8 4.5c0.1 1.2-0.2 2.4-0.8 3.5" />
	<path id="Layer" class="s28" d="m1107.2 299.7c0 2.2 0.4 4.3 1.1 6.3l-25.1-4.1h-0.1c-10.5-3.3-20.8-17.2-20.8-28.1c0-9.4 7.7-12.2 16.6-7q2.2 1.3 4.2 2.9l25.1 25c-0.7 1.6-1.1 3.3-1 5z" />
	<path id="Layer" class="s7" d="m1118 296.4c-0.5 0.9-1.3 1.6-2.3 2c-1.1 0.5-2.2 0.5-3.4 0.3" />
	<path id="Layer" class="s31" d="m1118 296.4c-0.5 0.9-1.3 1.6-2.3 2c-1.1 0.5-2.2 0.5-3.4 0.3" />
	<path id="Layer" class="s28" d="m1116.3 291.4c-3.6-0.6-6.5 0.6-8 3.3l-25.2-24.9c-9.3-10.9-11-24.8-3.3-28c3.3-1.4 7.5-0.6 11.7 1.9c6.4 3.9 11.4 9.6 14.4 16.4z" />
	<path id="Layer" class="s31" d="m1122 308.3l-4-12l-1.7-4.9" />
	<path id="Layer" class="s7" d="m1122 308.3l-9.7-9.6l-4-4" />
	<path id="Layer" class="s31" d="m1122 308.3l-9.7-9.6l-4-4" />
	<path id="Layer" class="s7" d="m1108.3 306l4 0.7l9.7 1.6" />
	<path id="Layer" class="s31" d="m1108.3 306l4 0.7l9.7 1.6" />
	<path id="Layer" class="s7" d="m1116.3 318.7l1.7-3.1l4-7.3" />
	<path id="Layer" class="s31" d="m1116.3 318.7l1.7-3.1l4-7.3" />
	<path id="Layer" class="s31" d="m1127.6 325.2l-1.6-5h-0.1l-3.9-11.9" />
	<path id="Layer" class="s31" d="m1122 308.3l9.6 9.5l4 4" />
	<path id="Layer" class="s31" d="m1122 308.3l9.6 1.5l0.5 0.1l0.9 0.2l2.6 0.4" />
	<path id="Layer" class="s31" d="m1122 308.3l4-7.4l1.6-3" />
	<path id="Layer" class="s29" d="m1136.8 316.8c0 1.8-0.4 3.5-1.2 5c-1.5 2.8-4.4 4-8 3.4c-2-0.4-3.9-1.1-5.6-2.1c-2.1-1.3-4-2.7-5.7-4.4c-3.6-3.6-6.3-7.9-8-12.7c-0.7-2-1.1-4.1-1.1-6.3c-0.1-1.7 0.3-3.4 1.1-5c1.5-2.7 4.4-3.9 8-3.3c2 0.3 3.9 1 5.7 2.1q3.1 1.8 5.6 4.4c3.6 3.5 6.4 7.8 8 12.6c0.7 2 1.1 4.2 1.2 6.3z" />
	<path id="Layer" class="s28" d="m1181.6 342.7q0 0.5 0 0.9q0 0.4 0 0.7c-0.1 0.3-0.1 0.5-0.1 0.7c0 0.2-0.1 0.3-0.1 0.4q-0.1 0.6-0.2 1.1l-0.2 0.4q0 0.2-0.1 0.4c-0.1 0.2-0.2 0.5-0.3 0.7q-0.3 0.6-0.6 1.1q-0.2 0.2-0.4 0.5q-0.2 0.2-0.4 0.4q-0.2 0.2-0.3 0.3q-0.2 0.2-0.3 0.3q-0.2 0.1-0.3 0.2q-0.6 0.4-1.3 0.8q-0.1 0-0.2 0q-0.3 0.2-0.7 0.3q-0.3 0.1-0.6 0.1q-0.3 0.1-0.6 0.2l-0.7 0.1h-0.6q-0.7 0-1.4-0.1c-0.3 0-0.5-0.1-0.8-0.1c-0.5-0.1-1-0.2-1.5-0.3l-0.8-0.3l-0.6-0.2l-0.3-0.1q-1.6-0.6-3.1-1.5q-1.1-0.6-2.2-1.4l-0.6-0.5l-0.5-0.4l-0.6-0.5l-0.3-0.2l-25.1-24.9c0.8-1.5 1.2-3.2 1.1-5c0-2.1-0.4-4.2-1.1-6.3l25.2 4.2q1 0.3 2 0.8q0.5 0.2 1.1 0.5q0.9 0.4 1.8 1l0.5 0.3l0.1 0.1q0.1 0 0.1 0.1q0.3 0.1 0.5 0.3l0.3 0.2l0.6 0.5q0.7 0.5 1.4 1.1q0.3 0.3 0.7 0.6l0.6 0.6q0.6 0.5 1.2 1.1q0.2 0.2 0.5 0.5q0.5 0.6 1 1.2l0.6 0.6q0.4 0.6 1 1.2c0.4 0.5 0.6 0.9 0.9 1.3q0.3 0.3 0.5 0.7q0.2 0.3 0.4 0.6q0.8 1.4 1.6 2.7l0.5 1q0.4 0.9 0.8 1.8q0.3 0.6 0.5 1.2c0.1 0.4 0.2 0.7 0.4 1.1l0.3 1l0.1 0.4q0.1 0.4 0.2 0.9v0.1c0 0.2 0.1 0.5 0.1 0.7c0.1 0.2 0.1 0.5 0.2 0.7c0 0.3 0.1 0.6 0.1 0.8c0 0.3 0 0.5 0.1 0.7c0 0.2 0 0.4 0 0.6c0.1 0.2-0.1 0.7-0.1 1z" />
	<path id="Layer" class="s31" d="m1131.6 317.8q-0.1-0.4-0.3-0.9q0-0.2-0.1-0.4c0-0.2-0.1-0.3-0.1-0.5q0-0.1 0-0.3c-0.1-0.2-0.2-0.4-0.2-0.6q0-0.2 0-0.3q0-0.2 0-0.4q0-0.2 0-0.5q0-0.3 0-0.5q0-0.3 0-0.5q0-0.3 0-0.5q0-0.2 0-0.4q0-0.1 0-0.2l0.1-0.4c0-0.1 0.1-0.3 0.1-0.4c0.1-0.1 0.1-0.2 0.1-0.3q0.1-0.1 0.1-0.3l0.1-0.2l0.1-0.2l0.1-0.2q0.3-0.4 0.6-0.8" />
	<path id="Layer" class="s28" d="m1167.8 310.6q-0.3 0.6-0.7 1.1q0.4-0.6 0.7-1.1z" />
	<path id="Layer" class="s28" d="m1168.9 307.1q-0.2 1.1-0.6 2.3q0.4-1.2 0.6-2.3z" />
	<path id="Layer" class="s28" d="m1169 306q0-0.5 0-1c0-4.2-1.6-9.3-4.9-14.5c3.3 5.2 4.9 10.4 4.9 14.5c0 0.4 0 0.7 0 1z" />
	<path id="Layer" class="s28" d="m1169 305q0 0.5 0 1c0 0.4 0 0.7-0.1 1.1q-0.1 1.1-0.6 2.3q-0.2 0.6-0.5 1.2q-0.3 0.6-0.6 1.1q-0.4 0.5-0.9 0.9q-0.4 0.4-1 0.8q-0.1 0.1-0.3 0.2q-0.4 0.2-0.8 0.4q-0.2 0.1-0.4 0.1q-0.2 0.1-0.4 0.2q-0.7 0.2-1.3 0.2l-0.5 0.1h-0.5q-0.1 0-0.2 0h-0.1l-25.1-4.1c-1.7-4.8-4.5-9.1-8.1-12.7l10.5-19.1c5.5-6.2 18.4-0.5 26.1 11.7c3.2 5.2 4.8 10.4 4.8 14.6z" />
	<path id="Layer" class="s7" d="m1134.8 312.4l-0.1-0.1l-0.5-0.3q-0.7-0.4-1.2-0.9q-0.3-0.2-0.6-0.5l-0.4-0.3q-0.2-0.2-0.4-0.4l-0.1-0.1l-0.4-0.4l-0.5-0.5q-0.3-0.4-0.7-0.9l-0.5-0.6l-0.1-0.1q-0.2-0.4-0.5-0.8c-0.2-0.2-0.4-0.5-0.6-0.8q-1.4-2.2-2.2-4.7" />
	<path id="Layer" class="s31" d="m1134.8 312.4l-0.1-0.1l-0.5-0.3q-0.7-0.4-1.2-0.9q-0.3-0.2-0.6-0.5l-0.4-0.3q-0.2-0.2-0.4-0.4l-0.1-0.1l-0.4-0.4l-0.5-0.5q-0.3-0.4-0.7-0.9l-0.5-0.6l-0.1-0.1q-0.2-0.4-0.5-0.8c-0.2-0.2-0.4-0.5-0.6-0.8q-1.4-2.2-2.2-4.7" />
	<path id="Layer" class="s7" d="m1125.9 300.9c-1.4-0.2-2.7-0.7-4-1.5q-2.2-1.3-4-3.1" />
	<path id="Layer" class="s31" d="m1125.9 300.9c-1.4-0.2-2.7-0.7-4-1.5q-2.2-1.3-4-3.1" />
	<path id="Layer" class="s28" d="m1138.6 274.8q0.1 2-0.5 3.9l-10.5 19.2q-2.5-2.6-5.6-4.4c-1.8-1.1-3.7-1.8-5.7-2.1l-10.4-31.2c-2.7-12.1 5.2-17.8 16.1-11.5c9.4 5.4 16.6 17.2 16.6 26.1z" />
	<path id="Layer" class="s7" d="m1125.9 300.9c-1.4-0.2-2.7-0.7-4-1.5q-2.2-1.3-4-3.1" />
	<path id="Layer" class="s31" d="m1125.9 300.9c-1.4-0.2-2.7-0.7-4-1.5q-2.2-1.3-4-3.1" />
	<path id="Layer" class="s7" d="m1126 320.2c0.5-0.9 1.2-1.6 2.2-2c1.1-0.5 2.3-0.6 3.4-0.3" />
	<path id="Layer" class="s31" d="m1126 320.2c0.5-0.9 1.2-1.6 2.2-2c1.1-0.5 2.3-0.6 3.4-0.3" />
	<path id="Layer" class="s28" d="m1164.1 374.8c-3.3 1.4-7.5 0.5-11.7-1.9c-6.3-3.9-11.3-9.6-14.3-16.4l-10.5-31.3c3.6 0.6 6.5-0.6 8-3.4l25.1 24.9h0.1c9.4 11 11.1 24.9 3.3 28.1z" />
	<path id="Layer" class="s7" d="m1131.6 317.9q-0.1-0.5-0.3-0.9q0-0.2-0.1-0.4c0-0.2-0.1-0.4-0.1-0.6q0-0.1 0-0.2c-0.1-0.2-0.2-0.4-0.2-0.6q0-0.2 0-0.4q0-0.2 0-0.3q0-0.3 0-0.6q0-0.2 0-0.5q0-0.2 0-0.5q0-0.2 0-0.5q0-0.1 0-0.3q0-0.1 0-0.3l0.1-0.3c0-0.2 0.1-0.3 0.1-0.4c0.1-0.1 0.1-0.2 0.1-0.4q0.1-0.1 0.1-0.2l0.1-0.2l0.1-0.2l0.1-0.2q0.2 0.2 0.4 0.4l0.4 0.3q0.3 0.3 0.6 0.5q0.5 0.5 1.2 0.9l0.5 0.4h0.1" />
	<path id="Layer" class="s31" d="m1131.6 317.9q-0.1-0.5-0.3-0.9q0-0.2-0.1-0.4c0-0.2-0.1-0.4-0.1-0.6q0-0.1 0-0.2c-0.1-0.2-0.2-0.4-0.2-0.6q0-0.2 0-0.4q0-0.2 0-0.3q0-0.3 0-0.6q0-0.2 0-0.5q0-0.2 0-0.5q0-0.2 0-0.5q0-0.1 0-0.3q0-0.1 0-0.3l0.1-0.3c0-0.2 0.1-0.3 0.1-0.4c0.1-0.1 0.1-0.2 0.1-0.4q0.1-0.1 0.1-0.2l0.1-0.2l0.1-0.2l0.1-0.2q0.2 0.2 0.4 0.4l0.4 0.3q0.3 0.3 0.6 0.5q0.5 0.5 1.2 0.9l0.5 0.4h0.1" />
	<path id="Layer" class="s7" d="m1117.9 315.6c1.5 0.3 2.8 0.8 4.1 1.5q2.2 1.3 4 3.1" />
	<path id="Layer" class="s31" d="m1117.9 315.6c1.5 0.3 2.8 0.8 4.1 1.5q2.2 1.3 4 3.1" />
	<path id="Layer" class="s28" d="m1122 367.9c-9.5-5.4-16.7-17.3-16.7-26.2q0-1.9 0.6-3.8l10.4-19.2c1.7 1.7 3.6 3.2 5.7 4.4c1.7 1 3.6 1.8 5.6 2.1l10.4 31.3c2.8 12-5.1 17.7-16 11.4z" />
	<path id="Layer" class="s28" d="m1138.1 356.5v-0.1q0 0 0 0.1z" />
	<path id="Layer" class="s7" d="m1112.3 306.7q2 1.9 3.4 4.2q1.4 2.2 2.3 4.7" />
	<path id="Layer" class="s31" d="m1112.3 306.7q2 1.9 3.4 4.2q1.4 2.2 2.3 4.7" />
	<path id="Layer" class="s28" d="m1116.3 318.7l-10.4 19.1c-5.5 6.2-18.4 0.4-26.1-11.7c-3.3-5.2-4.9-10.4-4.9-14.6c0-5.6 2.9-9.6 8.3-9.6l25.1 4.1c1.7 4.8 4.4 9.1 8 12.7z" />
	<path id="Layer" class="s7" d="m1112.3 298.7q0.8 2.2 0.8 4.5c0.1 1.2-0.2 2.4-0.8 3.5" />
	<path id="Layer" class="s31" d="m1112.3 298.7q0.8 2.2 0.8 4.5c0.1 1.2-0.2 2.4-0.8 3.5" />
	<path id="Layer" class="s28" d="m1107.2 299.7c0 2.2 0.4 4.3 1.1 6.3l-25.1-4.1h-0.1c-10.5-3.3-20.8-17.2-20.8-28.1c0-9.4 7.7-12.2 16.6-7q2.2 1.3 4.2 2.9l25.1 25c-0.7 1.6-1.1 3.3-1 5z" />
	<path id="Layer" class="s7" d="m1118 296.4c-0.5 0.9-1.3 1.6-2.3 2c-1.1 0.5-2.2 0.5-3.4 0.3" />
	<path id="Layer" class="s31" d="m1118 296.4c-0.5 0.9-1.3 1.6-2.3 2c-1.1 0.5-2.2 0.5-3.4 0.3" />
	<path id="Layer" class="s28" d="m1116.3 291.4c-3.6-0.6-6.5 0.6-8 3.3l-25.2-24.9c-9.3-10.9-11-24.8-3.3-28c3.3-1.4 7.5-0.6 11.7 1.9c6.4 3.9 11.4 9.6 14.4 16.4z" />
	<path id="Layer" class="s31" d="m1122 308.3l-4-12l-1.7-4.9" />
	<path id="Layer" class="s7" d="m1122 308.3l-9.7-9.6l-4-4" />
	<path id="Layer" class="s31" d="m1122 308.3l-9.7-9.6l-4-4" />
	<path id="Layer" class="s7" d="m1108.3 306l4 0.7l9.7 1.6" />
	<path id="Layer" class="s31" d="m1108.3 306l4 0.7l9.7 1.6" />
	<path id="Layer" class="s7" d="m1116.3 318.7l1.7-3.1l4-7.3" />
	<path id="Layer" class="s31" d="m1116.3 318.7l1.7-3.1l4-7.3" />
	<path id="Layer" class="s31" d="m1127.6 325.2l-1.6-5h-0.1l-3.9-11.9" />
	<path id="Layer" class="s31" d="m1122 308.3l9.6 9.5l4 4" />
	<path id="Layer" class="s31" d="m1122 308.3l9.6 1.5l0.5 0.1l0.9 0.2l2.6 0.4" />
	<path id="Layer" class="s31" d="m1122 308.3l4-7.4l1.6-3" />
	<path id="Layer" class="s29" d="m1136.8 316.8c0 1.8-0.4 3.5-1.2 5c-1.5 2.8-4.4 4-8 3.4c-2-0.4-3.9-1.1-5.6-2.1c-2.1-1.3-4-2.7-5.7-4.4c-3.6-3.6-6.3-7.9-8-12.7c-0.7-2-1.1-4.1-1.1-6.3c-0.1-1.7 0.3-3.4 1.1-5c1.5-2.7 4.4-3.9 8-3.3c2 0.3 3.9 1 5.7 2.1q3.1 1.8 5.6 4.4c3.6 3.5 6.4 7.8 8 12.6c0.7 2 1.1 4.2 1.2 6.3z" />
	<path id="Layer" class="s28" d="m1140.7 276.8h0.1z" />
	<path id="Layer" class="s28" d="m1140.9 276.7l6.5-3.8c-2.3 1.4-5.5 3.3-6.5 3.8z" />
	<path id="Layer" class="s28" d="m1179 299.2c0 0.3 0.1 0.6 0 1c0 0.4-0.1 0.7-0.1 1.1q-0.1 1.1-0.5 2.3q-0.2 0.6-0.6 1.2q-0.2 0.5-0.6 1q-0.4 0.5-0.9 1q-0.4 0.4-0.9 0.7l-10.2 5.9l0.1-0.1q0.6-0.3 1.1-0.7q0.4-0.5 0.8-1q0.4-0.5 0.7-1q0.3-0.6 0.5-1.3q0.2-0.4 0.3-0.9q0.2-0.7 0.3-1.4c0-0.3 0.1-0.7 0.1-1q0-0.5 0-1c-0.1-2.4-0.5-4.7-1.3-6.9q-0.1-0.5-0.3-1q-0.6-1.7-1.4-3.3l-0.1-0.3c-0.1-0.2-0.3-0.5-0.3-0.5c0-0.1-0.1-0.2-0.1-0.2q-0.4-0.8-0.9-1.5l-0.5-0.9c-6.6-10.4-17.1-16.2-23.4-13.6l0.1-0.1c1-0.5 4.2-2.4 6.5-3.8l0.7-0.4l0.1-0.1l1.5-0.8l0.2-0.2c6.1-3.5 17.3 2.2 24.3 13.2c3.3 5.2 4.8 10.4 4.8 14.6z" />
	<path id="Layer" class="s29" d="m1147.3 445.7c-3.8-4.7-4-10.7-0.6-13.6c3.5-2.9 9.4-1.4 13.3 3.2c3.8 4.7 4 10.7 0.6 13.6c-3.5 2.9-9.4 1.4-13.3-3.2z" />
	<path id="Layer" class="s31" d="m1159.2 443c-0.2 0.9-0.7 1.7-1.4 2.3c-2 1.7-5.5 0.9-7.8-1.9c-1.2-1.4-1.8-3.1-1.8-5" />
	<path id="Layer" class="s35" d="m1150.5 437.5c-0.1-0.6 0.3-1.1 0.8-1.1c0.5-0.1 0.9 0.3 1 0.9c0 0.6-0.3 1.1-0.8 1.2c-0.5 0-1-0.4-1-1z" />
	<path id="Layer" class="s35" d="m1155.6 439.7c0-0.6 0.3-1.1 0.8-1.1c0.5-0.1 0.9 0.4 1 1c0 0.6-0.3 1.1-0.8 1.1c-0.5 0.1-0.9-0.4-1-1z" />
</svg>