<svg width="250" height="58" viewBox="0 0 250 58" fill="none" xmlns="http://www.w3.org/2000/svg">
<g clip-path="url(#clip0_264_1402)">
<path d="M91.5487 43.3381H90.5758V42.4283C89.077 42.403 87.9375 42.0281 87.1575 41.3036C86.3861 40.5876 86.0005 39.6988 86.0005 38.6374C86.0005 37.5928 86.3861 36.6999 87.1575 35.9585C87.9288 35.2172 89.0682 34.8339 90.5758 34.8087V33.9999H91.5487V34.8087C93.0562 34.8339 94.1957 35.213 94.967 35.9459C95.747 36.6788 96.1371 37.5718 96.1371 38.6248C96.1371 39.6694 95.747 40.5581 94.967 41.291C94.1957 42.0239 93.0562 42.403 91.5487 42.4283V43.3381ZM90.5758 41.5816V35.6553C89.375 35.6637 88.4766 35.9543 87.8806 36.5272C87.2933 37.0916 86.9997 37.7908 86.9997 38.6248C86.9997 39.4503 87.2933 40.1453 87.8806 40.7097C88.4766 41.2826 89.375 41.5732 90.5758 41.5816ZM91.5487 35.6553V41.5816C92.1797 41.5732 92.7319 41.4848 93.2052 41.3163C93.6873 41.1478 94.0642 40.9246 94.3359 40.6466C94.6076 40.3601 94.8092 40.0484 94.9407 39.7115C95.0721 39.3745 95.1379 39.0123 95.1379 38.6248C95.1379 37.7908 94.8443 37.0916 94.257 36.5272C93.661 35.9543 92.7582 35.6637 91.5487 35.6553Z" fill="white"/>
<path d="M101.227 43.2243C100.236 43.2243 99.4034 42.9253 98.7285 42.3272C98.0624 41.7375 97.7293 40.9709 97.7293 40.0274C97.7293 39.1176 98.0273 38.3552 98.6234 37.7402C99.2281 37.1253 100.004 36.8178 100.95 36.8178C101.459 36.8178 101.91 36.9189 102.305 37.1211C102.699 37.3148 103.01 37.5718 103.238 37.8919C103.466 38.212 103.637 38.5532 103.751 38.9154C103.865 39.2692 103.922 39.6272 103.922 39.9895V40.2422H98.7022C98.7548 40.8993 99.0265 41.4258 99.5174 41.8217C100.017 42.2092 100.648 42.403 101.411 42.403C102.147 42.403 102.826 42.2134 103.448 41.8344V42.6431C102.931 43.0306 102.191 43.2243 101.227 43.2243ZM98.7154 39.4967H102.962C102.936 39.0249 102.752 38.5995 102.41 38.2204C102.085 37.8329 101.586 37.6392 100.911 37.6392C100.28 37.6392 99.7628 37.8245 99.3596 38.1951C98.9652 38.5742 98.7504 39.0081 98.7154 39.4967Z" fill="white"/>
<path d="M105.779 44.8797H104.872V42.2766H105.674C106.375 41.3837 106.735 39.901 106.752 37.8287L106.765 36.9694H111.485V42.2766H112.668V44.8797H111.748V43.0727H105.779V44.8797ZM106.726 42.2766H110.539V37.7655H107.646V38.132C107.646 39.9516 107.339 41.3331 106.726 42.2766Z" fill="white"/>
<path d="M117.263 43.2243C116.272 43.2243 115.44 42.9253 114.765 42.3272C114.099 41.7375 113.765 40.9709 113.765 40.0274C113.765 39.1176 114.063 38.3552 114.659 37.7402C115.264 37.1253 116.04 36.8178 116.987 36.8178C117.495 36.8178 117.946 36.9189 118.341 37.1211C118.735 37.3148 119.046 37.5718 119.274 37.8919C119.502 38.212 119.673 38.5532 119.787 38.9154C119.901 39.2692 119.958 39.6272 119.958 39.9895V40.2422H114.738C114.791 40.8993 115.063 41.4258 115.554 41.8217C116.053 42.2092 116.684 42.403 117.447 42.403C118.183 42.403 118.862 42.2134 119.485 41.8344V42.6431C118.967 43.0306 118.227 43.2243 117.263 43.2243ZM114.752 39.4967H118.998C118.972 39.0249 118.788 38.5995 118.446 38.2204C118.122 37.8329 117.622 37.6392 116.947 37.6392C116.316 37.6392 115.799 37.8245 115.396 38.1951C115.001 38.5742 114.787 39.0081 114.752 39.4967Z" fill="white"/>
<path d="M122.683 42.0997V45.5999H121.737V36.9694H122.683V37.9424C123.279 37.1927 124.099 36.8178 125.142 36.8178C126.08 36.8178 126.846 37.1295 127.442 37.7529C128.039 38.3763 128.337 39.1302 128.337 40.0148C128.337 40.9077 128.039 41.6659 127.442 42.2893C126.846 42.9126 126.08 43.2243 125.142 43.2243C124.099 43.2243 123.279 42.8495 122.683 42.0997ZM122.683 39.0165V41.0256C122.867 41.43 123.165 41.7628 123.577 42.0239C123.989 42.2766 124.436 42.403 124.918 42.403C125.628 42.403 126.211 42.1755 126.667 41.7206C127.131 41.2489 127.364 40.6803 127.364 40.0148C127.364 39.3492 127.131 38.7848 126.667 38.3215C126.211 37.8666 125.628 37.6392 124.918 37.6392C124.445 37.6392 124.002 37.7697 123.59 38.0309C123.178 38.2836 122.876 38.6121 122.683 39.0165Z" fill="white"/>
<path d="M132.238 42.403C132.676 42.403 133.092 42.3061 133.487 42.1124C133.881 41.9186 134.201 41.6743 134.447 41.3795V40.5328C133.798 40.1285 133.11 39.9263 132.382 39.9263C131.804 39.9263 131.344 40.0358 131.002 40.2548C130.669 40.4739 130.502 40.7729 130.502 41.152C130.502 41.5479 130.665 41.8554 130.989 42.0744C131.313 42.2935 131.73 42.403 132.238 42.403ZM131.975 43.2243C131.3 43.2243 130.726 43.0474 130.253 42.6936C129.788 42.323 129.556 41.8259 129.556 41.2026C129.556 40.5876 129.801 40.0948 130.292 39.7241C130.783 39.3619 131.405 39.1808 132.159 39.1808C132.983 39.1808 133.745 39.3787 134.447 39.7747V39.1681C134.447 38.1488 133.75 37.6392 132.356 37.6392C131.611 37.6392 130.919 37.8455 130.279 38.2583V37.3738C130.901 37.0031 131.659 36.8178 132.553 36.8178C133.421 36.8178 134.109 37.0158 134.618 37.4117C135.135 37.7992 135.393 38.3552 135.393 39.0797V41.5943C135.393 41.8301 135.446 42.0155 135.551 42.1503C135.665 42.2851 135.814 42.3524 135.998 42.3524C136.138 42.3524 136.261 42.3272 136.366 42.2766V42.9843C136.226 43.0769 136.016 43.1233 135.735 43.1233C135.42 43.1233 135.152 43.0432 134.933 42.8832C134.723 42.7147 134.591 42.4704 134.539 42.1503C133.899 42.8663 133.044 43.2243 131.975 43.2243Z" fill="white"/>
<path d="M137.06 43.0727V42.2387C137.103 42.2471 137.187 42.2514 137.309 42.2514C137.862 42.2514 138.239 41.9144 138.44 41.2405C138.607 40.7013 138.712 39.9263 138.756 38.9154L138.808 36.9694H143.554V43.0727H142.608V37.7655H139.715L139.676 38.9407C139.658 39.3956 139.641 39.7241 139.623 39.9263C139.544 40.7519 139.417 41.3584 139.242 41.7459C139.084 42.1503 138.843 42.483 138.519 42.7442C138.195 42.9969 137.8 43.1106 137.336 43.0853C137.196 43.0853 137.103 43.0811 137.06 43.0727Z" fill="white"/>
<path d="M148.992 43.0727H145.784V36.9694H146.731V39.0165H148.953C149.689 39.0165 150.276 39.2018 150.715 39.5725C151.153 39.9347 151.372 40.4233 151.372 41.0383C151.372 41.6532 151.162 42.1461 150.741 42.5167C150.32 42.8874 149.737 43.0727 148.992 43.0727ZM146.731 39.8126V42.2766H148.821C149.321 42.2766 149.711 42.1713 149.991 41.9607C150.272 41.7417 150.412 41.4384 150.412 41.0509C150.412 40.655 150.272 40.3517 149.991 40.1411C149.711 39.9221 149.321 39.8126 148.821 39.8126H146.731Z" fill="white"/>
<path d="M154.088 43.0727H153.141V36.9694H154.088V39.5346H157.993V36.9694H158.939V43.0727H157.993V40.3559H154.088V43.0727Z" fill="white"/>
<path d="M168.436 43.0727H167.489V36.9694H168.436V43.0727ZM164.058 43.0727H161.179V36.9694H162.125V39.0165H164.018C164.755 39.0165 165.342 39.2018 165.78 39.5725C166.218 39.9347 166.437 40.4233 166.437 41.0383C166.437 41.6532 166.227 42.1461 165.806 42.5167C165.386 42.8874 164.803 43.0727 164.058 43.0727ZM162.125 39.8126V42.2766H163.887C164.386 42.2766 164.776 42.1713 165.057 41.9607C165.337 41.7417 165.478 41.4384 165.478 41.0509C165.478 40.655 165.337 40.3517 165.057 40.1411C164.776 39.9221 164.386 39.8126 163.887 39.8126H162.125Z" fill="white"/>
<path d="M171.548 43.0727H170.667V36.9694H171.613V41.7333L175.676 36.9694H176.557V43.0727H175.61V38.3215L171.548 43.0727ZM173.625 35.9333C172.985 35.9333 172.468 35.7606 172.073 35.4152C171.679 35.0614 171.477 34.5938 171.469 34.0126H172.31C172.31 34.3664 172.428 34.6528 172.665 34.8718C172.902 35.0909 173.217 35.2004 173.612 35.2004C173.997 35.2004 174.308 35.0909 174.545 34.8718C174.782 34.6528 174.904 34.3664 174.913 34.0126H175.742C175.733 34.5854 175.531 35.0487 175.137 35.4026C174.742 35.7564 174.238 35.9333 173.625 35.9333Z" fill="white"/>
<path d="M183.207 43.0727H182.26V36.9694H187.966V43.0727H187.02V37.7655H183.207V43.0727Z" fill="white"/>
<path d="M190.695 37.7655C191.335 37.1337 192.158 36.8178 193.166 36.8178C194.174 36.8178 194.998 37.1337 195.638 37.7655C196.278 38.3805 196.598 39.1344 196.598 40.0274C196.598 40.9203 196.278 41.6743 195.638 42.2893C194.989 42.9126 194.166 43.2243 193.166 43.2243C192.167 43.2243 191.343 42.9126 190.695 42.2893C190.055 41.6743 189.735 40.9203 189.735 40.0274C189.735 39.1344 190.055 38.3805 190.695 37.7655ZM195.625 40.0274C195.625 39.3535 195.393 38.7848 194.928 38.3215C194.464 37.8666 193.876 37.6392 193.166 37.6392C192.456 37.6392 191.869 37.8666 191.405 38.3215C190.94 38.7848 190.708 39.3535 190.708 40.0274C190.708 40.6929 190.94 41.2573 191.405 41.7206C191.869 42.1755 192.456 42.403 193.166 42.403C193.876 42.403 194.464 42.1755 194.928 41.7206C195.393 41.2573 195.625 40.6929 195.625 40.0274Z" fill="white"/>
<path d="M199.307 42.0997V45.5999H198.361V36.9694H199.307V37.9424C199.903 37.1927 200.723 36.8178 201.766 36.8178C202.704 36.8178 203.471 37.1295 204.067 37.7529C204.663 38.3763 204.961 39.1302 204.961 40.0148C204.961 40.9077 204.663 41.6659 204.067 42.2893C203.471 42.9126 202.704 43.2243 201.766 43.2243C200.723 43.2243 199.903 42.8495 199.307 42.0997ZM199.307 39.0165V41.0256C199.491 41.43 199.789 41.7628 200.201 42.0239C200.613 42.2766 201.06 42.403 201.542 42.403C202.252 42.403 202.835 42.1755 203.291 41.7206C203.756 41.2489 203.988 40.6803 203.988 40.0148C203.988 39.3492 203.756 38.7848 203.291 38.3215C202.835 37.8666 202.252 37.6392 201.542 37.6392C201.069 37.6392 200.627 37.7697 200.215 38.0309C199.803 38.2836 199.5 38.6121 199.307 39.0165Z" fill="white"/>
<path d="M208.973 43.0727H208.026V37.7655H205.725V36.9694H211.273V37.7655H208.973V43.0727Z" fill="white"/>
<path d="M214.871 42.403C215.309 42.403 215.725 42.3061 216.12 42.1124C216.514 41.9186 216.834 41.6743 217.08 41.3795V40.5328C216.431 40.1285 215.743 39.9263 215.015 39.9263C214.437 39.9263 213.977 40.0358 213.635 40.2548C213.302 40.4739 213.135 40.7729 213.135 41.152C213.135 41.5479 213.298 41.8554 213.622 42.0744C213.946 42.2935 214.362 42.403 214.871 42.403ZM214.608 43.2243C213.933 43.2243 213.359 43.0474 212.886 42.6936C212.421 42.323 212.189 41.8259 212.189 41.2026C212.189 40.5876 212.434 40.0948 212.925 39.7241C213.416 39.3619 214.038 39.1808 214.792 39.1808C215.616 39.1808 216.378 39.3787 217.08 39.7747V39.1681C217.08 38.1488 216.383 37.6392 214.989 37.6392C214.244 37.6392 213.552 37.8455 212.912 38.2583V37.3738C213.534 37.0031 214.292 36.8178 215.186 36.8178C216.054 36.8178 216.742 37.0158 217.251 37.4117C217.768 37.7992 218.026 38.3552 218.026 39.0797V41.5943C218.026 41.8301 218.079 42.0155 218.184 42.1503C218.298 42.2851 218.447 42.3524 218.631 42.3524C218.771 42.3524 218.894 42.3272 218.999 42.2766V42.9843C218.859 43.0769 218.649 43.1233 218.368 43.1233C218.053 43.1233 217.785 43.0432 217.566 42.8832C217.356 42.7147 217.224 42.4704 217.172 42.1503C216.532 42.8663 215.677 43.2243 214.608 43.2243Z" fill="white"/>
<path d="M219.693 43.0727V42.2387C219.736 42.2471 219.82 42.2514 219.942 42.2514C220.495 42.2514 220.872 41.9144 221.073 41.2405C221.24 40.7013 221.345 39.9263 221.389 38.9154L221.441 36.9694H226.187V43.0727H225.241V37.7655H222.348L222.309 38.9407C222.291 39.3956 222.274 39.7241 222.256 39.9263C222.177 40.7519 222.05 41.3584 221.875 41.7459C221.717 42.1503 221.476 42.483 221.152 42.7442C220.828 42.9969 220.433 43.1106 219.969 43.0853C219.828 43.0853 219.736 43.0811 219.693 43.0727Z" fill="white"/>
<path d="M89.3764 25.0576H86.7192V12.2281H89.3596L93.1099 17.5404L96.8518 12.2198H99.4753V25.0576H96.8518V16.2791L93.8751 20.4053H92.3951L89.368 16.2791L89.3764 25.0576Z" fill="white"/>
<path d="M101.577 20.4803C101.567 19.8413 101.69 19.2071 101.939 18.6177C102.186 18.0298 102.556 17.5004 103.024 17.0642C104.036 16.1706 105.344 15.677 106.698 15.677C108.053 15.677 109.36 16.1706 110.373 17.0642C110.828 17.5169 111.191 18.053 111.441 18.6428C111.934 19.8304 111.934 21.1637 111.441 22.3513C111.191 22.9411 110.828 23.4772 110.373 23.9299C109.355 24.8134 108.05 25.3004 106.698 25.3004C105.347 25.3004 104.041 24.8134 103.024 23.9299C102.553 23.4861 102.184 22.948 101.939 22.3513C101.689 21.7592 101.566 21.1221 101.577 20.4803ZM104.15 20.4803C104.143 20.8165 104.2 21.1511 104.319 21.4659C104.444 21.7772 104.63 22.0609 104.865 22.3012C105.357 22.7735 106.014 23.0371 106.698 23.0362C107.209 23.0477 107.711 22.9022 108.135 22.6197C108.56 22.3371 108.886 21.9313 109.07 21.4576C109.195 21.1442 109.255 20.809 109.246 20.472C109.253 20.1359 109.196 19.8014 109.078 19.4864C108.951 19.1737 108.763 18.8897 108.523 18.6511C108.033 18.1832 107.378 17.9226 106.698 17.9245C106.188 17.9087 105.685 18.0505 105.259 18.3302C104.833 18.6098 104.504 19.0138 104.319 19.4864C104.191 19.8018 104.134 20.1409 104.15 20.4803Z" fill="white"/>
<path d="M118.244 25.3082C116.905 25.3451 115.603 24.8731 114.603 23.9885C114.113 23.5439 113.726 22.9998 113.467 22.3932C113.214 21.788 113.097 21.1353 113.123 20.4804C113.106 19.853 113.215 19.2285 113.442 18.6429C113.67 18.058 114.013 17.5241 114.451 17.0726C114.898 16.608 115.44 16.2435 116.041 16.0035C116.638 15.7621 117.28 15.651 117.924 15.6777C118.531 15.6541 119.135 15.7684 119.69 16.0118C120.242 16.2599 120.73 16.6282 121.119 17.0893C121.927 18.0502 122.355 19.2707 122.322 20.5222V21.1988H115.713C115.776 21.4918 115.9 21.7686 116.076 22.0116C116.253 22.2546 116.478 22.4585 116.738 22.6103C117.366 22.9606 118.079 23.1312 118.799 23.1031C119.839 23.0889 120.858 22.8006 121.75 22.2679V24.3393C120.719 25.0341 119.488 25.3745 118.244 25.3082ZM115.721 14.6253C115.543 14.6322 115.365 14.6009 115.2 14.5334C115.038 14.4587 114.89 14.357 114.762 14.2327C114.63 14.1122 114.527 13.9638 114.46 13.7984C114.384 13.6335 114.35 13.4531 114.359 13.2722C114.351 13.0941 114.385 12.9166 114.46 12.7543C114.527 12.5915 114.631 12.4459 114.762 12.3284C115.018 12.0779 115.362 11.9369 115.721 11.9358C115.9 11.9318 116.078 11.9638 116.244 12.0299C116.41 12.0959 116.561 12.1946 116.688 12.32C116.82 12.4405 116.924 12.5889 116.991 12.7543C117.057 12.919 117.091 13.0948 117.092 13.2722C117.092 13.4497 117.058 13.6256 116.991 13.7901C116.924 13.9579 116.82 14.1091 116.688 14.2327C116.563 14.3572 116.414 14.4565 116.251 14.5251C116.092 14.5961 115.92 14.6304 115.746 14.6253H115.721ZM115.721 19.545H119.766C119.757 19.0517 119.555 18.5813 119.202 18.2336C119.019 18.0583 118.801 17.9219 118.563 17.8327C118.328 17.7414 118.076 17.6987 117.823 17.7074C117.296 17.6906 116.783 17.8726 116.385 18.2169C116 18.5584 115.763 19.034 115.721 19.545ZM120.766 14.2411C120.639 14.3675 120.488 14.467 120.321 14.5334C120.156 14.6022 119.978 14.6335 119.799 14.6253C119.619 14.6309 119.439 14.6026 119.269 14.5418C119.1 14.4753 118.948 14.3727 118.824 14.2411C118.697 14.1148 118.596 13.9642 118.53 13.7984C118.461 13.6317 118.429 13.4522 118.437 13.2722C118.43 13.095 118.462 12.9184 118.53 12.7543C118.599 12.5921 118.699 12.4446 118.824 12.32C118.954 12.1934 119.108 12.094 119.278 12.0277C119.443 11.9603 119.621 11.9289 119.799 11.9358C119.978 11.9276 120.156 11.9589 120.321 12.0277C120.488 12.0941 120.639 12.1936 120.766 12.32C120.898 12.4413 121.001 12.5895 121.069 12.7543C121.136 12.9188 121.171 13.0947 121.17 13.2722C121.171 13.4524 121.136 13.6311 121.069 13.7984C120.996 13.963 120.893 14.1131 120.766 14.2411Z" fill="white"/>
<path d="M128.435 20.4803C128.422 19.8419 128.542 19.2077 128.788 18.6177C129.042 18.0332 129.411 17.5049 129.873 17.0642C130.886 16.1706 132.193 15.677 133.548 15.677C134.902 15.677 136.21 16.1706 137.222 17.0642C137.678 17.5137 138.04 18.0485 138.287 18.6377C138.534 19.2269 138.662 19.8588 138.662 20.497C138.662 21.1353 138.534 21.7672 138.287 22.3564C138.04 22.9456 137.678 23.4804 137.222 23.9299C136.205 24.8134 134.899 25.3004 133.548 25.3004C132.196 25.3004 130.891 24.8134 129.873 23.9299C129.408 23.4815 129.039 22.9446 128.788 22.3513C128.541 21.7587 128.421 21.1216 128.435 20.4803ZM130.958 20.4803C130.963 20.8202 131.037 21.1555 131.176 21.4659C131.36 21.9396 131.686 22.3455 132.111 22.628C132.535 22.9106 133.037 23.0561 133.548 23.0446C134.232 23.0472 134.89 22.7834 135.381 22.3095C135.616 22.0693 135.802 21.7855 135.927 21.4743C136.044 21.1587 136.104 20.825 136.104 20.4887C136.112 20.1517 136.052 19.8165 135.927 19.5031C135.76 19.1187 135.502 18.7802 135.174 18.5169C134.846 18.2535 134.459 18.073 134.046 17.9908C133.632 17.9087 133.205 17.9274 132.8 18.0453C132.396 18.1632 132.026 18.3769 131.723 18.6678C131.486 18.9076 131.299 19.1924 131.175 19.5052C131.051 19.8181 130.991 20.1525 131 20.4887L130.958 20.4803Z" fill="white"/>
<path d="M145.832 16.4962C146.372 16.4774 146.909 16.5654 147.413 16.7552C147.918 16.9377 148.379 17.2221 148.767 17.5904C149.166 17.9865 149.475 18.4619 149.675 18.9853C149.871 19.4968 149.959 20.0424 149.936 20.589C149.962 21.2206 149.85 21.8503 149.608 22.4349C149.372 23.0181 149.014 23.5448 148.557 23.9801C148.105 24.4206 147.567 24.7645 146.976 24.9908C146.384 25.2173 145.752 25.3224 145.118 25.2998C144.409 25.3442 143.7 25.2211 143.049 24.9406C142.399 24.6576 141.823 24.2287 141.367 23.6878C140.441 22.4292 139.978 20.8931 140.056 19.3361C140.031 18.277 140.208 17.2228 140.577 16.2289C140.926 15.3902 141.509 14.6684 142.259 14.1492C143.075 13.5549 143.984 13.0978 144.95 12.7961C146.217 12.39 147.517 12.0883 148.834 11.894V14.2995L147.859 14.4666L146.892 14.6253L146.051 14.809C145.516 14.924 144.991 15.0775 144.479 15.2684C144.037 15.4495 143.632 15.71 143.285 16.0368C142.749 16.5752 142.447 17.301 142.444 18.0582C142.851 17.545 143.375 17.1357 143.973 16.864C144.571 16.5924 145.226 16.4663 145.883 16.4962H145.832ZM145.076 23.1198C145.381 23.1295 145.684 23.0754 145.967 22.9611C146.247 22.8485 146.499 22.6776 146.707 22.4599C146.925 22.2349 147.094 21.9676 147.203 21.6748C147.314 21.3873 147.362 21.08 147.346 20.7727C147.36 20.4881 147.314 20.2036 147.212 19.9375C147.104 19.672 146.944 19.4306 146.741 19.2275C146.528 19.0348 146.279 18.8846 146.009 18.7848C145.74 18.6864 145.455 18.641 145.168 18.6512C144.649 18.6546 144.14 18.7897 143.688 19.0438C143.241 19.2785 142.861 19.6237 142.587 20.0461C142.543 20.8601 142.78 21.6646 143.259 22.3263C143.486 22.5964 143.774 22.8084 144.1 22.9444C144.408 23.074 144.741 23.134 145.076 23.1198Z" fill="white"/>
<path d="M157.47 15.6777C158.05 15.665 158.625 15.7821 159.152 16.0202C159.71 16.2543 160.208 16.6113 160.607 17.0643C161.446 18.0095 161.888 19.238 161.843 20.4971C161.88 21.755 161.438 22.9805 160.607 23.93C160.223 24.3715 159.746 24.7249 159.211 24.9658C158.682 25.1975 158.108 25.3116 157.529 25.2999C156.951 25.3333 156.373 25.2243 155.848 24.9825C155.321 24.7505 154.86 24.3951 154.502 23.9467V28.7327H151.896V15.9116H154.502V17.0308C154.857 16.5757 155.319 16.2143 155.848 15.9784C156.357 15.7507 156.913 15.6476 157.47 15.6777ZM156.731 17.9329C156.253 17.9236 155.784 18.0575 155.385 18.3171C154.99 18.5587 154.666 18.8984 154.443 19.3027V21.7166C154.664 22.1202 154.989 22.4577 155.385 22.6939C155.787 22.9464 156.255 23.077 156.731 23.0697C157.064 23.0857 157.397 23.0287 157.706 22.9027C158.023 22.7744 158.31 22.5808 158.547 22.3347C158.999 21.8349 159.248 21.1858 159.245 20.5139C159.247 19.8396 158.998 19.1883 158.547 18.6846C158.319 18.4418 158.041 18.251 157.732 18.1255C157.423 18 157.089 17.9429 156.756 17.958L156.731 17.9329Z" fill="white"/>
<path d="M172.505 23.0614C172.688 23.0725 172.871 23.035 173.035 22.9528V24.8404C172.625 25.1242 172.129 25.2598 171.631 25.2247C171.204 25.2725 170.772 25.1852 170.398 24.9752C170.023 24.7653 169.725 24.4434 169.545 24.0553C169.138 24.4882 168.642 24.8299 168.091 25.0576C167.555 25.2632 166.983 25.3598 166.409 25.3416C165.51 25.3867 164.629 25.0877 163.945 24.5063C163.636 24.2271 163.392 23.8846 163.229 23.5025C163.067 23.1203 162.99 22.7076 163.003 22.2929C162.981 21.8583 163.068 21.4249 163.256 21.0317C163.448 20.6405 163.738 20.3043 164.097 20.0544C164.832 19.5331 165.716 19.2607 166.619 19.2777C167.538 19.2511 168.45 19.446 169.276 19.8456V19.5784C169.276 18.4257 168.435 17.8494 166.838 17.8494C165.857 17.85 164.895 18.1157 164.055 18.6178V16.4044C165.115 15.8862 166.288 15.6366 167.468 15.6777C168.608 15.6147 169.733 15.9518 170.647 16.6299C171.045 16.9427 171.364 17.343 171.58 17.7993C171.793 18.2595 171.891 18.7636 171.866 19.2693V22.3681C171.858 22.8358 172.068 23.0614 172.505 23.0614ZM169.268 22.3681V21.4493C168.695 21.0892 168.028 20.9061 167.351 20.9231C166.89 20.8986 166.432 21.0059 166.031 21.2322C165.875 21.3222 165.748 21.452 165.661 21.608C165.575 21.761 165.535 21.9345 165.543 22.1092C165.529 22.2823 165.564 22.4558 165.644 22.6103C165.72 22.7679 165.836 22.9031 165.98 23.0029C166.341 23.2214 166.76 23.3262 167.183 23.3036C167.581 23.326 167.978 23.2545 168.343 23.0948C168.705 22.9285 169.022 22.6795 169.268 22.3681Z" fill="white"/>
<path d="M178.08 25.3082C176.848 25.3442 175.624 25.1044 174.498 24.6066V22.5519C175.493 23.0528 176.595 23.3051 177.71 23.2869C178.267 23.3099 178.823 23.2159 179.341 23.0112C179.509 22.9514 179.655 22.8439 179.762 22.7022C179.864 22.56 179.922 22.3919 179.93 22.2177C179.93 21.6247 179.384 21.324 178.299 21.324H176.491V19.4197H178.265C179.156 19.4197 179.594 19.1524 179.594 18.5844C179.594 18.0164 178.971 17.7074 177.71 17.7074C176.68 17.6842 175.658 17.8987 174.725 18.3338V16.3292C175.85 15.8605 177.063 15.6356 178.282 15.6694C179.273 15.636 180.254 15.8853 181.107 16.3877C181.451 16.5539 181.742 16.8111 181.948 17.1311C182.148 17.4474 182.261 17.8102 182.276 18.1835C182.319 18.6136 182.209 19.0449 181.965 19.4029C181.722 19.7592 181.362 20.0216 180.948 20.1463C181.432 20.2958 181.86 20.5869 182.175 20.9816C182.496 21.3689 182.663 21.8588 182.646 22.3597C182.64 22.7981 182.518 23.2273 182.293 23.6043C182.072 23.9818 181.752 24.2934 181.368 24.5063C180.375 25.0877 179.232 25.3665 178.08 25.3082Z" fill="white"/>
<path d="M184.067 20.4803C184.05 19.8415 184.17 19.2064 184.42 18.6177C184.668 18.0298 185.037 17.5004 185.505 17.0642C186.518 16.1706 187.825 15.677 189.18 15.677C190.534 15.677 191.842 16.1706 192.854 17.0642C193.31 17.5137 193.672 18.0485 193.919 18.6377C194.167 19.2269 194.294 19.8588 194.294 20.497C194.294 21.1353 194.167 21.7672 193.919 22.3564C193.672 22.9456 193.31 23.4804 192.854 23.9299C191.837 24.8134 190.531 25.3004 189.18 25.3004C187.828 25.3004 186.523 24.8134 185.505 23.9299C185.035 23.4861 184.665 22.948 184.42 22.3513C184.17 21.7599 184.049 21.1219 184.067 20.4803ZM186.59 20.4803C186.582 20.8165 186.639 21.1511 186.758 21.4659C186.885 21.7786 187.073 22.0627 187.313 22.3012C187.606 22.6125 187.975 22.8443 188.384 22.9745C188.793 23.1048 189.228 23.1293 189.649 23.0457C190.07 22.962 190.463 22.773 190.79 22.4966C191.117 22.2202 191.367 21.8654 191.517 21.4659C191.715 20.9967 191.768 20.48 191.671 19.9807C191.574 19.4814 191.33 19.0218 190.971 18.6595C190.479 18.1928 189.826 17.9324 189.146 17.9324C188.466 17.9324 187.813 18.1928 187.321 18.6595C187.082 18.898 186.893 19.1821 186.766 19.4947C186.674 19.8147 186.643 20.149 186.674 20.4803H186.59Z" fill="white"/>
<path d="M201.65 25.0576H196.218V15.8698H201.423C202.204 15.8204 202.977 16.0517 203.601 16.5213C203.855 16.7241 204.057 16.9848 204.189 17.2814C204.325 17.5745 204.391 17.8945 204.383 18.2169C204.408 18.6154 204.315 19.0126 204.115 19.3588C203.914 19.7049 203.616 19.9847 203.256 20.163C203.77 20.2895 204.226 20.5836 204.551 20.9982C204.886 21.4446 205.047 21.9965 205.005 22.5518C205.021 22.9066 204.949 23.2598 204.795 23.5802C204.641 23.9007 204.41 24.1786 204.122 24.3894C203.394 24.8763 202.525 25.1112 201.65 25.0576ZM198.782 17.6823V19.5533H200.59C201.431 19.5533 201.826 19.2442 201.826 18.6178C201.826 17.9913 201.423 17.6823 200.59 17.6823H198.782ZM198.782 21.182V23.2367H200.969C201.868 23.2367 202.314 22.8943 202.314 22.2094C202.314 21.5245 201.868 21.182 200.969 21.182H198.782Z" fill="white"/>
<path d="M215.793 23.0613C215.979 23.0716 216.164 23.0342 216.331 22.9527V24.8404C215.921 25.1229 215.426 25.2584 214.927 25.2246C214.5 25.2737 214.068 25.187 213.693 24.9769C213.318 24.7668 213.02 24.4442 212.842 24.0553C212.429 24.4721 211.933 24.7983 211.385 25.0127C210.838 25.2271 210.251 25.3249 209.663 25.2998C208.767 25.3444 207.888 25.0454 207.208 24.4646C206.895 24.1883 206.649 23.8463 206.486 23.4634C206.323 23.0805 206.248 22.6664 206.266 22.2511C206.241 21.8171 206.325 21.3837 206.51 20.9899C206.705 20.6005 206.994 20.2648 207.351 20.0127C208.097 19.4826 208.998 19.2098 209.915 19.2359C210.837 19.2093 211.752 19.4041 212.581 19.8038V19.5366C212.581 18.3839 211.74 17.8076 210.143 17.8076C209.159 17.808 208.194 18.0736 207.351 18.576V16.4044C208.411 15.8862 209.584 15.6365 210.765 15.6777C211.904 15.6118 213.03 15.9491 213.943 16.6299C214.346 16.9381 214.666 17.3396 214.877 17.7992C215.089 18.2595 215.187 18.7636 215.163 19.2693V22.3681C215.146 22.8358 215.364 23.0613 215.793 23.0613ZM212.564 22.3681V21.4493C211.989 21.089 211.319 20.9059 210.639 20.9231C210.178 20.8986 209.72 21.0059 209.318 21.2321C209.166 21.3224 209.041 21.4523 208.957 21.608C208.865 21.7587 208.821 21.9333 208.831 22.1091C208.817 22.2841 208.852 22.4595 208.93 22.6167C209.009 22.774 209.128 22.9074 209.276 23.0029C209.634 23.2227 210.051 23.3277 210.47 23.3036C210.868 23.326 211.266 23.2544 211.631 23.0947C211.995 22.9283 212.315 22.6794 212.564 22.3681Z" fill="white"/>
<path d="M220.746 25.0576H218.14V15.8698H220.746V19.2609H224.513V15.9116H227.12V25.0576H224.513V21.466H220.73L220.746 25.0576Z" fill="white"/>
<path d="M232.123 25.0576H229.685V15.8698H232.249V21.2655L236.454 15.8698H238.892V25.0576H236.285V19.6702L232.123 25.0576Z" fill="white"/>
<path d="M245.914 25.3082C244.575 25.3434 243.274 24.8716 242.273 23.9885C241.783 23.5457 241.398 23.0009 241.146 22.3931C240.889 21.7891 240.771 21.1356 240.801 20.4804C240.78 19.8527 240.889 19.2274 241.121 18.6429C241.348 18.0579 241.691 17.5241 242.13 17.0726C242.574 16.6087 243.113 16.2444 243.71 16.0038C244.308 15.7633 244.95 15.6521 245.594 15.6777C246.201 15.6532 246.805 15.7675 247.36 16.0118C247.912 16.2599 248.4 16.6281 248.789 17.0893C249.601 18.0482 250.029 19.2701 249.992 20.5222V21.1987H243.383C243.446 21.4918 243.57 21.7686 243.746 22.0115C243.923 22.2545 244.148 22.4584 244.408 22.6103C245.037 22.9594 245.749 23.1299 246.469 23.1031C247.509 23.0888 248.528 22.8006 249.42 22.2679V24.3393C248.39 25.0352 247.158 25.3757 245.914 25.3082ZM243.391 19.5449H247.436C247.427 19.0516 247.225 18.5812 246.872 18.2336C246.514 17.8894 246.033 17.7002 245.535 17.7074C245.006 17.6917 244.49 17.8735 244.089 18.2169C243.706 18.5593 243.471 19.0349 243.433 19.5449H243.391Z" fill="white"/>
<path fill-rule="evenodd" clip-rule="evenodd" d="M9.51756 25.1902L18.765 41.19L9.05456 58L-7.13988e-07 41.6659L9.53043 25.1902L9.51756 25.1902Z" fill="white"/>
<path d="M9.51756 25.1902L18.765 41.19L9.05456 58L-7.13988e-07 41.6659L9.53043 25.1902L9.51756 25.1902Z" stroke="#1A3B9A" stroke-width="0.6577" stroke-miterlimit="10" stroke-linejoin="round"/>
<path fill-rule="evenodd" clip-rule="evenodd" d="M24.3984 -0.430394L33.633 15.5693L23.9225 32.3793L14.8809 16.0452L24.3984 -0.430394Z" fill="white"/>
<path d="M24.3984 -0.430393L33.633 15.5693L23.9225 32.3793L14.8809 16.0452L24.3984 -0.430393Z" stroke="#1A3B9A" stroke-width="0.6577" stroke-miterlimit="10" stroke-linejoin="round"/>
<path fill-rule="evenodd" clip-rule="evenodd" d="M24.3984 -0.430202L33.633 15.5695L52.3722 15.5695L43.1377 -0.430202L24.3984 -0.430202Z" fill="white"/>
<path d="M24.3984 -0.430201L33.633 15.5695L52.3722 15.5695L43.1377 -0.430202L24.3984 -0.430201Z" stroke="#1A3B9A" stroke-width="0.6577" stroke-miterlimit="10" stroke-linejoin="round"/>
<path fill-rule="evenodd" clip-rule="evenodd" d="M52.372 15.5693L46.8159 25.1897L39.3562 25.1897L35.2019 32.3793L23.9224 32.3793L33.6328 15.5693L52.372 15.5693Z" fill="white"/>
<path d="M52.372 15.5693L46.8159 25.1897L39.3562 25.1897L35.2019 32.3793L23.9224 32.3793L33.6328 15.5693L52.372 15.5693Z" stroke="#1A3B9A" stroke-width="0.6577" stroke-miterlimit="10" stroke-linejoin="round"/>
<path fill-rule="evenodd" clip-rule="evenodd" d="M48.5907 41.19L38.8802 58L33.4526 48.1867L37.4912 41.19L33.8128 34.7978L35.2019 32.3798L39.3561 25.1902L43.0859 31.6468L48.5907 41.19Z" fill="white"/>
<path d="M48.5907 41.19L38.8802 58L33.4526 48.1867L37.4912 41.19L33.8128 34.7978L35.2019 32.3798L39.3561 25.1902L43.0859 31.6468L48.5907 41.19Z" stroke="#1A3B9A" stroke-width="0.6577" stroke-miterlimit="10" stroke-linejoin="round"/>
<path fill-rule="evenodd" clip-rule="evenodd" d="M48.6035 41.19L38.8931 58L57.6322 58L67.3299 41.19L48.6035 41.19Z" fill="white"/>
<path d="M48.6035 41.19L38.8931 58L57.6322 58L67.3299 41.19L48.6035 41.19Z" stroke="#1A3B9A" stroke-width="0.6577" stroke-miterlimit="10" stroke-linejoin="round"/>
<path fill-rule="evenodd" clip-rule="evenodd" d="M67.3431 41.1896L48.591 41.1896L43.0862 31.6464L39.3564 25.1899L58.0957 25.1899L67.3431 41.1896Z" fill="white"/>
<path d="M67.3431 41.1896L48.591 41.1896L43.0862 31.6464L39.3564 25.1899L58.0957 25.1899L67.3431 41.1896Z" stroke="#1A3B9A" stroke-width="0.6577" stroke-miterlimit="10" stroke-linejoin="round"/>
<path fill-rule="evenodd" clip-rule="evenodd" d="M37.4915 41.19L33.453 48.1867L27.7939 58L9.05469 58L18.7651 41.19L37.4915 41.19Z" fill="white"/>
<path d="M37.4915 41.19L33.453 48.1867L27.7939 58L9.05469 58L18.7651 41.19L37.4915 41.19Z" stroke="#1A3B9A" stroke-width="0.6577" stroke-miterlimit="10" stroke-linejoin="round"/>
<path fill-rule="evenodd" clip-rule="evenodd" d="M37.4914 41.1896L18.765 41.1896L9.51758 25.1899L19.9483 25.1899L23.9225 32.3794L32.4111 32.3794L33.813 34.7974L37.4914 41.1896Z" fill="white"/>
<path d="M37.4914 41.1896L18.765 41.1896L9.51758 25.1899L19.9483 25.1899L23.9225 32.3794L32.4111 32.3794L33.813 34.7974L37.4914 41.1896Z" stroke="#1A3B9A" stroke-width="0.6577" stroke-miterlimit="10" stroke-linejoin="round"/>
</g>
<defs>
<clipPath id="clip0_264_1402">
<rect width="250" height="58" fill="white"/>
</clipPath>
</defs>
</svg>
