<?xml version="1.0" encoding="utf-8"?>
<!-- Generator: Adobe Illustrator 21.0.0, SVG Export Plug-In . SVG Version: 6.00 Build 0)  -->
<svg version="1.1" id="Слой_1" xmlns="http://www.w3.org/2000/svg" xmlns:xlink="http://www.w3.org/1999/xlink" x="0px" y="0px"
	 viewBox="0 0 22 15.7" style="enable-background:new 0 0 22 15.7;" xml:space="preserve">
<style type="text/css">
	.st0{fill:#434B52;}
</style>
<path class="st0" d="M21.1,13V5.1c0-0.1,0-0.2-0.1-0.2c0,0,0,0,0-0.1c0-0.1-0.1-0.1-0.2-0.1L10.7,0.1c-0.1-0.1-0.3-0.1-0.4,0
	l-10,4.6C0.1,4.8,0,4.9,0,5.1s0.1,0.4,0.3,0.5l3.4,1.5v6.5C3.7,13.8,3.8,14,4,14c2.1,1.1,4.3,1.7,6.5,1.7s4.5-0.6,6.8-1.7
	c0.2-0.1,0.3-0.3,0.3-0.4V7.1l2.7-1.2V13c-0.5,0.2-0.9,0.7-0.9,1.3c0,0.8,0.6,1.4,1.4,1.4s1.2-0.6,1.2-1.4
	C22,13.7,21.7,13.2,21.1,13z M16.5,13.3c-4.1,1.9-8.1,1.9-11.8,0V7.6l5.7,2.6c0.1,0,0.1,0,0.2,0c0.1,0,0.1,0,0.2,0l5.7-2.6V13.3z
	 M10.5,9.2l-8.9-4l8.9-4l8.9,4L10.5,9.2z M20.6,14.7c-0.2,0-0.4-0.2-0.4-0.4s0.2-0.4,0.4-0.4c0.2,0,0.4,0.2,0.4,0.4
	S20.9,14.7,20.6,14.7z"/>
</svg>
