<?xml version="1.0" encoding="UTF-8" standalone="no"?>
<svg
   xmlns:dc="http://purl.org/dc/elements/1.1/"
   xmlns:cc="http://creativecommons.org/ns#"
   xmlns:rdf="http://www.w3.org/1999/02/22-rdf-syntax-ns#"
   xmlns:svg="http://www.w3.org/2000/svg"
   xmlns="http://www.w3.org/2000/svg"
   id="svg8"
   version="1.1"
   viewBox="0 0 50.799998 50.800001"
   height="192"
   width="192">
  <defs
     id="defs2" />
  <metadata
     id="metadata5">
    <rdf:RDF>
      <cc:Work
         rdf:about="">
        <dc:format>image/svg+xml</dc:format>
        <dc:type
           rdf:resource="http://purl.org/dc/dcmitype/StillImage" />
        <dc:title></dc:title>
      </cc:Work>
    </rdf:RDF>
  </metadata>
  <g
     transform="translate(0,-246.19999)"
     id="layer1">
    <path
       style="fill:#0072EF;stroke-width:0.72439957;fill-opacity:1"
       d="m 0.00715276,245.17281 c -0.57766986,0 -1.06548606,0.48607 -1.06548606,1.06487 0,0.57735 0.4878162,1.06342 1.06548606,1.06342 0.57841027,0 1.06548704,-0.48607 1.06548704,-1.06415 0,-0.57807 -0.48707677,-1.06486 -1.06548704,-1.06486 m 6.35955134,2.09931 c 0.5783832,0 1.065459,-0.4868 1.065459,-1.06487 0,-0.57807 -0.4870758,-1.06487 -1.065459,-1.06487 -0.5776979,0 -1.0647737,0.4868 -1.0647737,1.06487 0,0.57807 0.4566413,1.06487 1.0654861,1.06487 m 6.3290885,0 c 0.57767,0 1.064746,-0.4868 1.064746,-1.06487 0,-0.57807 -0.487076,-1.06487 -1.065459,-1.06487 -0.577698,0 -1.064773,0.4868 -1.064773,1.06487 0,0.57807 0.487075,1.06487 1.065486,1.06487 M 0.00715276,289.57343 c -0.57766986,0 -1.06548606,0.4868 -1.06548606,1.06487 0,0.57735 0.4878162,1.06415 1.06548606,1.06415 0.57841027,0 1.06548704,-0.4868 1.06548704,-1.06487 0,-0.57735 -0.48707677,-1.06487 -1.06548704,-1.06487 m 6.35955134,7.2e-4 c -0.5776979,0 -1.0647737,0.4868 -1.0647737,1.06487 0,0.57735 0.4870758,1.06415 1.0654861,1.06415 0.5776708,0 1.0647466,-0.4868 1.0647466,-1.06487 -0.030407,-0.57735 -0.4870758,-1.06487 -1.065459,-1.06487 m 6.3298009,7.2e-4 c -0.578411,0 -1.065486,0.4868 -1.065486,1.06487 0,0.57735 0.487075,1.06415 1.065486,1.06415 0.57767,0 1.064746,-0.4868 1.064746,-1.06487 0,-0.57735 -0.456613,-1.06487 -1.065459,-1.06487 m 6.360264,-42.30131 c 0.57767,0 1.065459,-0.4868 1.065459,-1.06487 0,-0.57807 -0.487789,-1.06487 -1.065459,-1.06487 -0.57841,0 -1.065486,0.4868 -1.065486,1.06487 0,0.57807 0.487076,1.06487 1.065486,1.06487 m 6.359524,0 c 0.57767,0 1.065487,-0.4868 1.065487,-1.06487 0,-0.57807 -0.487077,-1.06487 -1.065487,-1.06487 -0.57841,0 -1.065487,0.4868 -1.065487,1.06487 0,0.57807 0.456642,1.06487 1.065487,1.06487 m 6.329088,0 c 0.578411,0 1.065487,-0.4868 1.065487,-1.06487 0,-0.57807 -0.487076,-1.06487 -1.065487,-1.06487 -0.578409,0 -1.065486,0.4868 -1.065486,1.06487 0,0.57807 0.487077,1.06487 1.065486,1.06487 m 6.359553,0 c 0.578382,0 1.065458,-0.4868 1.065458,-1.06487 0,-0.57807 -0.487076,-1.06487 -1.065458,-1.06487 -0.578411,0 -1.065487,0.4868 -1.065487,1.06487 0,0.57807 0.487076,1.06487 1.065487,1.06487 m 6.35952,0 c 0.578412,0 1.065492,-0.4868 1.065492,-1.06487 0,-0.57807 -0.48708,-1.06487 -1.065492,-1.06487 -0.577672,0 -1.065482,0.4868 -1.065482,1.06487 0,0.57807 0.48781,1.06487 1.065482,1.06487 M 0.00715276,295.92932 c -0.57766986,0 -1.06548606,0.48679 -1.06548606,1.06487 0,0.57734 0.4878162,1.06414 1.06548606,1.06414 0.57841027,0 1.06548704,-0.4868 1.06548704,-1.06487 0,-0.57735 -0.48707677,-1.06487 -1.06548704,-1.06487 m 6.35955134,7.3e-4 c -0.5776979,0 -1.0647737,0.48679 -1.0647737,1.06487 0,0.57734 0.4870758,1.06414 1.0654861,1.06414 0.5776708,0 1.0647466,-0.4868 1.0647466,-1.06487 -0.030407,-0.57735 -0.4870758,-1.06487 -1.065459,-1.06487 m 6.3298009,7.3e-4 c -0.578411,0 -1.065486,0.48679 -1.065486,1.06487 0,0.57734 0.487075,1.06414 1.065486,1.06414 0.57767,0 1.064746,-0.4868 1.064746,-1.06487 0,-0.57735 -0.456613,-1.06487 -1.065459,-1.06487 m 6.360264,7.3e-4 c -0.57841,0 -1.065486,0.48679 -1.065486,1.06487 0,0.57734 0.487076,1.06414 1.065486,1.06414 0.57767,0 1.065459,-0.4868 1.065459,-1.06487 -0.0082,-0.58484 -0.480283,-1.05706 -1.065459,-1.06487 m 6.359524,7.3e-4 c -0.57841,0 -1.065487,0.48679 -1.065487,1.06487 0,0.57734 0.487077,1.06414 1.065487,1.06414 0.57767,0 1.065487,-0.4868 1.065487,-1.06487 -0.03123,-0.57735 -0.487077,-1.06487 -1.065487,-1.06487 m 6.329088,7.3e-4 c -0.578409,0 -1.065486,0.48679 -1.065486,1.06487 0,0.57734 0.487077,1.06414 1.065486,1.06414 0.578411,0 1.065487,-0.4868 1.065487,-1.06487 0,-0.57735 -0.456641,-1.06487 -1.065487,-1.06487 m 6.359553,7.3e-4 c -0.578411,0 -1.065487,0.48679 -1.065487,1.06487 0,0.57734 0.487076,1.06414 1.065487,1.06414 0.578382,0 1.065458,-0.4868 1.065458,-1.06487 0,-0.57735 -0.487076,-1.06487 -1.065458,-1.06487 m 6.35952,7.3e-4 c -0.577672,0 -1.065482,0.48679 -1.065482,1.06487 0,0.57734 0.48781,1.06414 1.065482,1.06414 0.578412,0 1.065492,-0.4868 1.065492,-1.06487 0,-0.57735 -0.48708,-1.06487 -1.065492,-1.06487 m -6.35952,-6.35516 c -0.578411,0 -1.065487,0.4868 -1.065487,1.06487 0,0.57735 0.487076,1.06415 1.065487,1.06415 0.578382,0 1.065458,-0.4868 1.065458,-1.06487 0,-0.57735 -0.487076,-1.06487 -1.065458,-1.06487 m 6.35952,7.2e-4 c -0.577672,0 -1.065482,0.4868 -1.065482,1.06487 0,0.57735 0.48781,1.06415 1.065482,1.06415 0.578412,0 1.065492,-0.4868 1.065492,-1.06487 0,-0.57735 -0.48708,-1.06487 -1.065492,-1.06487 m 0,-6.32473 c -0.577672,0 -1.065482,0.48607 -1.065482,1.06414 0,0.57807 0.48781,1.06487 1.065482,1.06487 0.578412,0 1.065492,-0.4868 1.065492,-1.06487 0,-0.6085 -0.48708,-1.06487 -1.065492,-1.06487 m 6.329096,-35.97585 c 0.578402,0 1.065482,-0.4868 1.065482,-1.06487 0,-0.57807 -0.48708,-1.06487 -1.065482,-1.06487 -0.577672,0 -1.064752,0.4868 -1.064752,1.06487 0,0.57807 0.48708,1.06487 1.065492,1.06487 M 0.00715276,264.21003 c -0.57766986,0 -1.06548606,0.4868 -1.06548606,1.06487 0,0.57735 0.4878162,1.06414 1.06548606,1.06414 0.57841027,0 1.06548704,-0.48679 1.06548704,-1.06486 0,-0.57735 -0.48707677,-1.06415 -1.06548704,-1.06415 M 25.41558,269.74517 c -1.027736,-0.007 -1.862752,0.82731 -1.856259,1.85446 -0.0082,1.02744 0.827509,1.86241 1.855547,1.85591 1.028312,0.007 1.863875,-0.82747 1.856972,-1.85518 -0.0027,-1.02294 -0.832715,-1.85122 -1.85626,-1.85519 m 25.377257,-5.53514 c -0.577672,0 -1.064752,0.4868 -1.064752,1.06487 0,0.57735 0.48708,1.06414 1.065492,1.06414 0.577662,0 1.064742,-0.48679 1.064742,-1.06486 0.003,-0.5895 -0.475653,-1.0682 -1.065482,-1.06415 M 0.00715276,251.49827 c -0.57766986,0 -1.06548606,0.4868 -1.06548606,1.06487 0,0.57734 0.4878162,1.06414 1.06548606,1.06414 0.57841027,0 1.06548704,-0.4868 1.06548704,-1.06487 0,-0.57734 -0.48707677,-1.06486 -1.06548704,-1.06486 m 6.35955134,2.12973 c 0.5783832,0 1.065459,-0.4868 1.065459,-1.06487 0,-0.57734 -0.4870758,-1.06486 -1.065459,-1.06486 -0.5776979,0 -1.0647737,0.48752 -1.0647737,1.06486 0,0.57807 0.4566413,1.06487 1.0654861,1.06487 m 6.3290885,0 c 0.57767,0 1.064746,-0.4868 1.064746,-1.06487 0,-0.57734 -0.487076,-1.06486 -1.065459,-1.06486 -0.577698,0 -1.064773,0.48752 -1.064773,1.06486 0,0.57807 0.487075,1.06487 1.065486,1.06487 m 25.407716,0 c 0.578382,0 1.065458,-0.4868 1.065458,-1.06487 0,-0.57734 -0.487076,-1.06486 -1.065458,-1.06486 -0.578411,0 -1.065487,0.48752 -1.065487,1.06486 0,0.57807 0.487076,1.06487 1.065487,1.06487 m 6.35952,0 c 0.578412,0 1.065492,-0.4868 1.065492,-1.06487 0,-0.57734 -0.48708,-1.06486 -1.065492,-1.06486 -0.585176,0.008 -1.057678,0.48001 -1.065482,1.06486 0,0.57807 0.48781,1.06487 1.065482,1.06487 m 6.329096,-2.12901 c -0.577672,0 -1.064752,0.4868 -1.064752,1.06487 0,0.57734 0.48708,1.06414 1.065492,1.06414 0.577662,0 1.064742,-0.4868 1.064742,-1.06487 0,-0.57734 -0.456642,-1.06486 -1.065482,-1.06486 m -50.78568424,6.3566 c -0.57766986,0 -1.06548606,0.4868 -1.06548606,1.06487 0,0.57735 0.4878162,1.06414 1.06548606,1.06414 0.57841027,0 1.06548704,-0.48679 1.06548704,-1.06487 0,-0.57734 -0.48707677,-1.06414 -1.06548704,-1.06414 m 6.35955134,2.12901 c 0.5783832,0 1.065459,-0.48679 1.065459,-1.06487 0,-0.57734 -0.4870758,-1.06414 -1.065459,-1.06414 -0.5776979,0 -1.0647737,0.4868 -1.0647737,1.06487 0,0.57735 0.4566413,1.06414 1.0654861,1.06414 m 38.0963245,0 c 0.578412,0 1.065492,-0.48679 1.065492,-1.06487 0,-0.57734 -0.48708,-1.06414 -1.065492,-1.06414 -0.577672,0 -1.065482,0.4868 -1.065482,1.06487 0,0.57735 0.48781,1.06414 1.065482,1.06414 m 6.329096,-2.12901 c -0.577672,0 -1.064752,0.4868 -1.064752,1.06487 0,0.57735 0.48708,1.06414 1.065492,1.06414 0.577662,0 1.064742,-0.48679 1.064742,-1.06487 0.003,-0.5895 -0.475653,-1.06819 -1.065482,-1.06414 m 0,12.68134 c -0.577672,0 -1.064752,0.4868 -1.064752,1.06487 0,0.57734 0.48708,1.06487 1.065492,1.06487 0.577662,0 1.064742,-0.48753 1.064742,-1.06487 0,-0.57807 -0.456642,-1.06487 -1.065482,-1.06487 m 0,19.03794 c -0.577672,0 -1.064752,0.4868 -1.064752,1.06487 0,0.57735 0.48708,1.06415 1.065492,1.06415 0.577662,0 1.064742,-0.4868 1.064742,-1.06487 0,-0.57735 -0.456642,-1.06487 -1.065482,-1.06487 m 0,6.35661 c -0.577672,0 -1.064752,0.48679 -1.064752,1.06487 0,0.57734 0.48708,1.06414 1.065492,1.06414 0.577662,0 1.064742,-0.4868 1.064742,-1.06487 0,-0.57735 -0.456642,-1.06487 -1.065482,-1.06487 m 0,-19.0365 c -0.577672,0 -1.064752,0.48608 -1.064752,1.06415 0,0.57807 0.48708,1.06487 1.065492,1.06487 0.577662,0 1.064742,-0.4868 1.064742,-1.06487 0,-0.57807 -0.456642,-1.06487 -1.065482,-1.06487 m 0,6.35661 c -0.577672,0 -1.064752,0.48607 -1.064752,1.06414 0,0.57807 0.48708,1.06487 1.065492,1.06487 0.577662,0 1.064742,-0.4868 1.064742,-1.06487 0,-0.6085 -0.456642,-1.06487 -1.065482,-1.06487 m -50.78568424,7.3e-4 c -0.57766986,0 -1.06548606,0.48607 -1.06548606,1.06414 0,0.57807 0.4878162,1.06487 1.06548606,1.06487 0.57841027,0 1.06548704,-0.4868 1.06548704,-1.06487 0,-0.6085 -0.48707677,-1.06487 -1.06548704,-1.06487 m 0,-6.35516 c -0.57766986,0 -1.06548606,0.48608 -1.06548606,1.06415 0,0.57807 0.4878162,1.06487 1.06548606,1.06487 0.57841027,0 1.06548704,-0.4868 1.06548704,-1.06487 0,-0.57807 -0.48707677,-1.06487 -1.06548704,-1.06487 m 0,-6.35588 c -0.57766986,0 -1.06548606,0.4868 -1.06548606,1.06487 0,0.57734 0.4878162,1.06487 1.06548606,1.06487 0.57841027,0 1.06548704,-0.48753 1.06548704,-1.06487 0,-0.57807 -0.48707677,-1.06487 -1.06548704,-1.06487 m 6.35955134,12.71249 c -0.5776979,0 -1.0647737,0.48607 -1.0647737,1.06414 0,0.57807 0.4870758,1.06487 1.0654861,1.06487 0.5776708,0 1.0647466,-0.4868 1.0647466,-1.06487 -0.030407,-0.6085 -0.4870758,-1.06487 -1.065459,-1.06487 m 19.0488759,6.02194 c -0.76105,0 -1.369895,0.60849 -1.369895,1.36911 0,0.7599 0.608845,1.36767 1.369895,1.36767 0.76105,0 1.369183,-0.6085 1.369183,-1.36839 0,-0.76062 -0.608845,-1.36839 -1.369895,-1.36839 m 6.3298,0 c -0.761049,0 -1.369895,0.60849 -1.369895,1.36911 0,0.7599 0.608846,1.36767 1.369895,1.36767 0.761051,0 1.369896,-0.6085 1.369896,-1.36839 0.02959,-0.76062 -0.608845,-1.36839 -1.369896,-1.36839 m -12.688612,0 c -0.761077,0 -1.369923,0.60849 -1.369923,1.36911 0,0.7599 0.608846,1.36767 1.369923,1.36767 0.76105,0 1.369156,-0.6085 1.369156,-1.36839 0,-0.76062 -0.608845,-1.36839 -1.369895,-1.36839 M 25.41558,253.9308 c 0.76105,0 1.369183,-0.60849 1.369183,-1.36839 0,-0.76062 -0.608845,-1.36839 -1.369895,-1.36839 -0.760338,0 -1.368471,0.6085 -1.368471,1.36912 -0.03041,0.75989 0.608846,1.36766 1.369183,1.36766 m 6.329088,0 c 0.761051,0 1.369896,-0.60849 1.369896,-1.36839 0,-0.76062 -0.608845,-1.36839 -1.369896,-1.36839 -0.761049,0 -1.369895,0.6085 -1.369895,1.36912 0,0.75989 0.608846,1.36766 1.369895,1.36766 m 6.359553,6.35661 c 0.761049,0 1.369895,-0.6085 1.369895,-1.36912 0,-0.76061 -0.608846,-1.36839 -1.369895,-1.36839 -0.761079,0 -1.369184,0.6085 -1.369184,1.36912 0,0.75989 0.608846,1.36839 1.369895,1.36839 m 6.358809,3.58795 c -0.761047,0 -1.369176,0.6085 -1.369176,1.36911 0,0.76063 0.608839,1.3684 1.369896,1.3684 0.760337,0 1.368467,-0.6085 1.368467,-1.36912 0,-0.75989 -0.60885,-1.36839 -1.369187,-1.36839 m 0,6.35661 c -0.761047,0 -1.369176,0.60849 -1.369176,1.36839 0,0.76062 0.608839,1.36839 1.369896,1.36839 0.760337,0 1.368467,-0.6085 1.368467,-1.36912 0.003,-0.75696 -0.611782,-1.37129 -1.369187,-1.36766 m 0,6.35588 c -0.761047,0 -1.369176,0.60849 -1.369176,1.36839 0,0.76062 0.608839,1.36839 1.369896,1.36839 0.760337,0 1.368467,-0.6085 1.368467,-1.36911 0.003,-0.75696 -0.611782,-1.37131 -1.369187,-1.36767 M 6.3667041,263.87536 c -0.7610773,0 -1.3691826,0.6085 -1.3691826,1.36911 0,0.76063 0.6088448,1.3684 1.369895,1.3684 0.7603378,0 1.3691835,-0.6085 1.3691835,-1.36912 0,-0.75989 -0.6088457,-1.36839 -1.3698959,-1.36839 m 0,6.35661 c -0.7610773,0 -1.3691826,0.60849 -1.3691826,1.36839 0,0.76062 0.6088448,1.36839 1.369895,1.36839 0.7603378,0 1.3691835,-0.6085 1.3691835,-1.36912 0,-0.75989 -0.6088457,-1.36766 -1.3698959,-1.36766 m 0,6.35588 c -0.7610773,0 -1.3691826,0.60849 -1.3691826,1.36839 0,0.76062 0.6088448,1.36839 1.369895,1.36839 0.7603378,0 1.3691835,-0.6085 1.3691835,-1.36911 0,-0.7599 -0.6088457,-1.36767 -1.3698959,-1.36767 m 31.7375169,6.32473 c -0.761079,0 -1.369184,0.6085 -1.369184,1.36912 0,0.76062 0.608846,1.36911 1.369895,1.36911 0.760338,0 1.368444,-0.60849 1.368444,-1.36911 0,-0.76062 -0.608846,-1.36912 -1.369155,-1.36912 M 12.696505,260.28741 c 0.76105,0 1.369182,-0.6085 1.369182,-1.36912 0,-0.76061 -0.608844,-1.36839 -1.369895,-1.36839 -0.760337,0 -1.369182,0.6085 -1.369182,1.36912 0,0.75989 0.608845,1.36839 1.369895,1.36839 m 0,22.62517 c -0.76105,0 -1.369895,0.6085 -1.369895,1.36912 0,0.76061 0.608845,1.36911 1.369895,1.36911 0.76105,0 1.369182,-0.6085 1.369182,-1.36911 0.03041,-0.76062 -0.608844,-1.36912 -1.369895,-1.36912 m 6.360264,-28.98178 c 0.76105,0 1.369156,-0.60849 1.369156,-1.36839 0,-0.76062 -0.608845,-1.36839 -1.369895,-1.36839 -0.760338,0 -1.368444,0.6085 -1.368444,1.36912 -0.0027,0.75696 0.611777,1.3713 1.369183,1.36766 m 6.359524,22.32238 c -0.941498,-0.002 -1.70526,0.76137 -1.704054,1.70234 -0.002,0.94125 0.761542,1.705 1.703342,1.70378 0.942073,0.002 1.706383,-0.76154 1.704767,-1.70306 0,-0.94317 -0.791512,-1.70306 -1.704055,-1.70306 m 6.329088,0 c -0.941498,-0.002 -1.705232,0.76138 -1.704027,1.70234 -0.002,0.94151 0.761981,1.70538 1.704027,1.70378 0.9418,0.002 1.705672,-0.76182 1.704055,-1.70306 0.0016,-0.94125 -0.762282,-1.70468 -1.704055,-1.70306 m -12.688612,0 c -0.941498,-0.002 -1.705261,0.76137 -1.704055,1.70234 -0.002,0.94123 0.761544,1.70499 1.703316,1.70378 0.942073,0.002 1.706383,-0.76154 1.704767,-1.70306 0.0016,-0.94124 -0.762256,-1.70466 -1.704028,-1.70306 m 6.359524,-9.30637 c 0.941224,10e-4 1.704521,-0.76166 1.703315,-1.70234 0.0016,-0.94095 -0.761817,-1.70426 -1.703315,-1.70306 -0.941498,-0.002 -1.70526,0.76138 -1.704054,1.70234 -0.002,0.94125 0.761542,1.70501 1.703342,1.70379 m 6.3298,-3.37643 c -0.942046,-0.002 -1.706027,0.76228 -1.704027,1.70379 -0.0012,0.94095 0.762529,1.70394 1.704027,1.70234 0.941499,0.002 1.705261,-0.76138 1.704055,-1.70234 0.0016,-0.94124 -0.762282,-1.70467 -1.704055,-1.70306 m -12.688612,-7.3e-4 c -0.942073,-0.002 -1.706055,0.76226 -1.704055,1.70379 -0.0012,0.94067 0.762091,1.70354 1.703316,1.70234 0.941772,0.002 1.705972,-0.7611 1.704767,-1.70234 0.0016,-0.94123 -0.762256,-1.70466 -1.704028,-1.70306 m 12.688612,6.32545 c -0.941498,-0.002 -1.705232,0.76139 -1.704027,1.70234 -0.002,0.94152 0.761981,1.70539 1.704027,1.70379 0.941773,0.002 1.705672,-0.76182 1.704055,-1.70306 0.0016,-0.94125 -0.762255,-1.70468 -1.704055,-1.70307 m -12.688612,0 c -0.941498,-0.002 -1.705261,0.76138 -1.704055,1.70234 -0.002,0.94124 0.761544,1.705 1.703316,1.70379 0.942073,0.002 1.706383,-0.76154 1.704767,-1.70306 0.0016,-0.94123 -0.762256,-1.70466 -1.704028,-1.70307 m 12.688612,12.86317 c -0.851643,0 -1.522099,0.70049 -1.522099,1.52124 0,0.85116 0.700892,1.52124 1.522099,1.52124 0.851673,0 1.522128,-0.69978 1.522128,-1.52124 0.02986,-0.82075 -0.670455,-1.52124 -1.522128,-1.52124 m -6.329088,0 c -0.852383,0 -1.522127,0.70049 -1.522127,1.52124 0,0.85116 0.700179,1.52124 1.522127,1.52124 0.839372,-0.003 1.519004,-0.68236 1.521387,-1.52124 0,-0.82075 -0.669715,-1.52124 -1.522099,-1.52124 m -6.358812,0 c -0.852384,0 -1.522127,0.70049 -1.522127,1.52124 0,0.85116 0.700179,1.52124 1.522127,1.52124 0.839371,-0.003 1.519005,-0.68236 1.521388,-1.52124 0,-0.82075 -0.669744,-1.52124 -1.522127,-1.52124 m 12.689351,-22.32093 c 0.851673,0 1.522128,-0.69977 1.522128,-1.52124 0,-0.82074 -0.700179,-1.52051 -1.522128,-1.52051 -0.851643,0 -1.522099,0.69977 -1.522099,1.52124 0,0.82074 0.700892,1.52051 1.522099,1.52051 m 6.359553,3.28371 c -0.839371,0.003 -1.519005,0.68235 -1.521388,1.52123 0,0.82075 0.700151,1.52052 1.522099,1.52052 0.839262,-0.003 1.518676,-0.68247 1.520676,-1.52124 -0.0024,-0.83865 -0.682263,-1.5178 -1.521387,-1.51979 m 0,6.35588 c -0.839262,0.002 -1.519005,0.68175 -1.521388,1.52052 0,0.82074 0.700151,1.52051 1.522099,1.52051 0.839262,-0.003 1.518676,-0.68247 1.520676,-1.52124 -0.0024,-0.83864 -0.682263,-1.5178 -1.521387,-1.51979 m 0,6.32546 c -0.839262,0.002 -1.519005,0.68175 -1.521388,1.52051 0,0.85117 0.700151,1.52052 1.522099,1.52052 0.839262,-0.003 1.518676,-0.68247 1.520676,-1.52124 -0.0024,-0.83865 -0.682263,-1.5178 -1.521387,-1.51979 M 12.696505,263.72324 c -0.852384,0 -1.522101,0.69977 -1.522101,1.52123 0,0.82075 0.700153,1.52052 1.522101,1.52052 0.839371,-0.003 1.519004,-0.68235 1.521388,-1.52124 -0.0027,-0.83876 -0.682867,-1.51779 -1.522101,-1.51979 m 7.13e-4,6.35588 c -0.852384,0 -1.522101,0.69905 -1.522101,1.52052 0,0.82074 0.700153,1.52051 1.522101,1.52051 0.839371,-0.003 1.519004,-0.68235 1.521388,-1.52124 -0.0027,-0.83876 -0.682867,-1.51779 -1.522101,-1.51979 m 7.13e-4,6.32546 c -0.852384,0 -1.522101,0.69904 -1.522101,1.52051 0,0.85117 0.700153,1.52052 1.522101,1.52052 0.839371,-0.003 1.519004,-0.68236 1.521388,-1.52124 0.03041,-0.82075 -0.669717,-1.51979 -1.522101,-1.51979 M 25.41558,260.43953 c 0.839372,-0.003 1.519004,-0.68235 1.521387,-1.52124 0,-0.82074 -0.700179,-1.52051 -1.522099,-1.52051 -0.839262,0.003 -1.518675,0.68247 -1.520676,1.52124 0,0.82074 0.669005,1.52051 1.521388,1.52051 m -6.359524,0 c 0.839371,-0.003 1.519005,-0.68235 1.521388,-1.52124 0,-0.82074 -0.700179,-1.52051 -1.522127,-1.52051 -0.839234,0.003 -1.518649,0.68248 -1.520649,1.52124 0,0.82074 0.669004,1.52051 1.521388,1.52051"
       id="path846" />
  </g>
</svg>
