<?xml version="1.0" encoding="utf-8"?>
<!-- Generator: Adobe Illustrator 24.0.2, SVG Export Plug-In . SVG Version: 6.00 Build 0)  -->
<svg version="1.1" id="Слой_1" xmlns="http://www.w3.org/2000/svg" xmlns:xlink="http://www.w3.org/1999/xlink" x="0px" y="0px"
	 viewBox="0 0 1920 1280" style="enable-background:new 0 0 1920 1280;" xml:space="preserve">
<style type="text/css">
	.st0{fill:#EBF3FA;}
	.st1{fill:#FFFFFF;}
	.st2{fill:none;}
	.st3{display:none;}
	.st4{display:inline;fill:#FF7133;}
	.st5{fill:none;stroke:#33211F;stroke-linecap:round;stroke-linejoin:round;stroke-miterlimit:10;}
	.st6{fill:#C99BCE;}
	.st7{fill:#F3E0FC;}
	.st8{fill:#489BFD;}
	.st9{fill:#FF7133;}
	.st10{fill:#33211F;}
	.st11{fill:#FFB4AF;}
	.st12{fill:#FFC3C2;}
	.st13{fill:#FAB234;}
	.st14{fill:#E85D8F;}
	.st15{fill:#472E2E;}
	.st16{fill:#64B2FF;}
	.st17{display:inline;fill:#472E2E;}
	.st18{display:inline;fill:#FAB234;}
	.st19{display:inline;fill:#E85D8F;}
	.st20{fill:#DFC8ED;}
	.st21{enable-background:new    ;}
	.st22{fill:#FCA89E;}
	.st23{fill:#28337D;}
	.st24{fill:#E88315;}
	.st25{fill:#374291;}
	.st26{fill:#F79826;}
	.st27{fill:#E4C4FF;}
	.st28{fill:#F45540;}
	.st29{fill:url(#SVGID_1_);}
	.st30{fill:#4A5BAF;}
	.st31{fill:#222568;}
	.st32{fill:url(#SVGID_2_);}
	.st33{fill:url(#SVGID_3_);}
	.st34{fill:url(#SVGID_4_);}
	.st35{fill:#4858A3;}
	.st36{fill:#FBF3FF;}
	.st37{opacity:0.25;fill:#374291;}
	.st38{fill:#C7AFD8;}
	.st39{fill:#AC93C1;}
	.st40{fill:#492E2E;}
	.st41{fill:#604040;}
	.st42{fill:#DB4574;}
	.st43{fill:#FC4759;}
	.st44{opacity:0.25;}
	.st45{fill:#AEDEFF;}
	.st46{fill:#80C6FF;}
	.st47{opacity:0.2;fill:#FFFFFF;}
	.st48{fill:none;stroke:#33211F;stroke-linecap:round;stroke-linejoin:round;}
	.st49{fill:none;stroke:#33211F;stroke-linecap:round;stroke-linejoin:round;stroke-dasharray:5.0890007,8.1424017;}
	.st50{fill:none;stroke:#33211F;stroke-linecap:round;stroke-linejoin:round;stroke-dasharray:5.0888066,8.1420908;}
	.st51{fill:none;stroke:#33211F;stroke-linecap:round;stroke-linejoin:round;stroke-dasharray:5.0144157,8.0230656;}
	.st52{fill:#777C99;}
	.st53{fill:#FF6A4D;}
	.st54{fill:#FF8271;}
	.st55{fill:#217C59;}
	.st56{fill:none;stroke:#33211F;stroke-linecap:round;stroke-linejoin:round;stroke-dasharray:5.0546751,8.0874796;}
	.st57{fill:none;stroke:#33211F;stroke-linecap:round;stroke-linejoin:round;stroke-dasharray:5.1156378,8.1850204;}
	.st58{fill:none;stroke:#33211F;stroke-linecap:round;stroke-linejoin:round;stroke-dasharray:4.9875603,7.9800959;}
	.st59{fill:#CC3A6E;}
	.st60{fill:#D6CEC9;}
	.st61{fill:#FFAD97;}
	.st62{fill:#D2ABD8;}
	.st63{fill:#E3D1ED;}
	.st64{fill:#181C54;}
	.st65{fill:#563D3D;}
	.st66{fill:none;stroke:#33211F;stroke-linecap:round;stroke-linejoin:round;stroke-dasharray:4.9990287,7.998446;}
	.st67{fill:#281D4F;}
	.st68{fill:#1C2059;}
	.st69{fill:none;stroke:#33211F;stroke-linecap:round;stroke-linejoin:round;stroke-dasharray:5.001184,8.001894;}
	.st70{fill:none;stroke:#FAB234;stroke-miterlimit:10;}
	.st71{fill:none;stroke:#33211F;stroke-linecap:round;stroke-linejoin:round;stroke-dasharray:4.9552102,7.9283361;}
	.st72{fill:#E0E0E0;}
	.st73{fill:#489AFB;}
	.st74{fill:#FFFFFF;stroke:#33211F;stroke-linecap:round;stroke-linejoin:round;stroke-miterlimit:10;}
	.st75{fill:#5C6BB7;}
	.st76{fill:#4C60A8;}
	.st77{fill:#2B3A82;}
	.st78{fill:none;stroke:#33211F;stroke-linecap:round;stroke-linejoin:round;stroke-dasharray:5.0009623,8.0015402;}
	.st79{fill:none;stroke:#33211F;stroke-linecap:round;stroke-linejoin:round;stroke-dasharray:5.0732231,8.117157;}
	.st80{fill:none;stroke:#33211F;stroke-linecap:round;stroke-linejoin:round;stroke-dasharray:4.9707241,7.9531584;}
	.st81{fill:#FF1010;}
	.st82{fill:#FF2439;}
	.st83{fill:#1A3B9A;}
	.st84{fill:none;stroke:#33211F;stroke-linecap:round;stroke-linejoin:round;stroke-dasharray:5.0123124,8.0196991;}
	.st85{fill:none;stroke:#33211F;stroke-linecap:round;stroke-linejoin:round;stroke-dasharray:4.9868436,7.9789495;}
	.st86{fill:none;stroke:#33211F;stroke-linecap:round;stroke-linejoin:round;stroke-dasharray:5.053226,8.0851612;}
	.st87{fill:url(#SVGID_5_);}
	.st88{fill:url(#SVGID_6_);}
	.st89{fill:#0072EF;}
	.st90{fill:none;stroke:#33211F;stroke-linecap:round;stroke-linejoin:round;stroke-dasharray:4.9575386,7.9320617;}
	.st91{fill:none;stroke:#33211F;stroke-linecap:round;stroke-linejoin:round;stroke-dasharray:5.0624657,8.0999451;}
	.st92{fill:none;stroke:#33211F;stroke-linecap:round;stroke-linejoin:round;stroke-dasharray:5.0674834,8.1079741;}
	.st93{fill:url(#SVGID_7_);}
	.st94{fill:url(#SVGID_8_);}
	.st95{fill:url(#SVGID_9_);}
	.st96{fill:url(#SVGID_10_);}
	.st97{fill:url(#SVGID_11_);}
	.st98{fill:url(#SVGID_12_);}
</style>
<path class="st0" d="M1695.756958,0.0044575c-1.1000977,13.1801758-3.1801758,26.2001953-5.5400391,38.4199219
	c-6.4799805,33.5800743-18.5800781,66.0703125-35.75,95.6499023
	c-25.9301758,44.6401367-68.2299805,79.3901367-113.630127,103.0400391
	c-98.630127,51.3803711-217.0600586,39.6699219-315.1599121,89.3803711
	c-77.3400879,39.199707-138.9501953,108.909668-171.8100586,188.699707
	c-25.3000488,61.4101563-31.1098633,128.3901367-50.3400879,191.6000977
	c-19.619873,64.4799805-54.5898438,124.9501953-102.1899414,172.8500977
	c-78.0200195,78.5200195-180.630127,102.6298828-284.7199707,125.1499023
	c-85.6000977,18.5297852-164.3100891,56.0601196-223.2998352,122.0498657
	c-40.6704102,45.4902344-79.2299805,99.1201172-110.3803711,153.1601563H0.0069304v-1280H1695.756958z"/>
<path class="st1" d="M1517.0767822,0.0044575c-1.1098633,8.9799805-2.5898438,17.7900391-4.2099609,26.2202148
	c-6.4299316,33.5898438-18.4799805,66.0996094-35.6098633,95.699707
	c-25.8601074,44.6699219-68.1201172,79.4799805-113.4902344,103.2001953
	c-98.5498047,51.5200195-217,39.9799805-315.0297852,89.8300781
	c-77.2802734,39.3198242-138.7900391,109.1098633-171.5302734,188.949707
	c-25.2099609,61.4501953-30.9299316,128.4399414-50.0698242,191.6699219
	c-19.5200195,64.5102539-54.4101563,125.0302734-101.9399414,173
	c-77.9001465,78.6303711-180.4799805,102.8901367-284.5400696,125.5600586
	c-12.3598633,2.7001953-24.5898438,5.7900391-36.6201172,9.3100586
	c-71.2700195,20.8203735-136.1098633,56.5401001-186.5,113.0601196c-40.6000977,45.550293-81.9799805,109.4101563-113.0498047,163.5
	H-0.0033235v-1280H1517.0767822z"/>
<path class="st0" d="M1920.0045166,761.1813354c0,0,0,518.8197632,0,518.8197632c-35.755249,0-71.510376,0-107.2655029,0
	c-84.234375,0-168.4688721,0-252.7032471,0c-98.3171387-0.0001221-196.6342773-0.0001221-294.951416-0.0002441
	c-78.0032959,0-156.0065918-0.0001221-234.0098877-0.0002441c-23.0802612-0.0001221-69.2303467-0.0025635-69.2303467-0.0025635
	c16.0239868-5.8765869,29.7926025-15.7171631,43.6436157-25.4377441
	c55.9823608-39.2880859,86.1480103-88.3175049,113.192688-149.9992676
	c23.8868408-54.4797363,53.1289063-101.6080322,100.866333-138.0727539
	c50.1618652-38.3167114,109.5826416-63.357666,169.8615723-80.8889771
	c164.7315674-47.9099121,343.5587158-40.8712158,501.7662354-110.6978149
	C1900.8945313,770.6114502,1910.5145264,766.0411987,1920.0045166,761.1813354z"/>
<path class="st0" d="M951.8067627,0.0044575c-24.1599121,22.7402344-51.4699707,41.4301758-79.6899414,58.8901367
	c-0.6000977,0.3701172-1.1999512,0.7397461-1.8100586,1.1098633
	c-57.7700195,35.5800743-119.1699219,66.2602539-165.1499023,116.1401367
	c-58.7700195,63.75-92.130127,150.6000977-95.0400391,236.8398438
	c-2.2399902,66.3798828,15.7199707,131.1601563,19.7900391,197.1098633
	c4.1098633,66.6000977,0.1599121,140.1000977-35.6801758,199.050293
	c-57.0498047,93.8398438-183.179718,120.4296875-284.6899719,123.8500977
	c-97.4897461,3.2797852-220.5498047-11.0302734-309.5297852,41.2597656c-0.0102539,0-0.0102539,0-0.0102539,0V0.2246724
	l0.0102539-0.2202148H951.8067627z"/>
<g>
	<path class="st5" d="M1037.7814941,684.423584c6.5192871-8.1158447,12.7698975-17.3795776,15.9852295-27.3579712
		c2.1134033-6.5584717,3.0415039-14.9138184-0.2608643-21.2244873c-1.7890625-3.4188843-4.8632813-6.1455688-8.4713135-7.5136719
		c-15.1137695-5.730835-32.4422607,11.0511475-47.6149902,12.0209351"/>
	<path class="st5" d="M966.2584839,638.7859497c-11.3939819-1.0748901-23.4853516-12.335144-30.4912109-20.5297852
		c-15.1582642-17.7304077-27.1103516-32.5908203-51.1550293-36.7232666
		c-31.7771606-5.4613647-77.6720581-3.3572388-84.0910034,36.7002563
		c-2.7122803,16.9260254,12.0803833,26.2480469,22.5236816,36.0595093c3.831604,3.5997925,7.869812,9.562439,8.8878784,14.7015991
		c0.605835,3.0581055-0.4425049,6.5010986,0.6279297,9.0011597"/>
	<path class="st5" d="M1099.5178223,867.7941895c-1.6647949,3.8225708-3.9674072,7.3916626-6.7322998,10.4533081
		c-13.6865234,15.1547241-34.6757813,10.5401001-49.2189941-0.8866577
		c-13.9996338-10.9995728-27.1085205-28.6676636-32.8306885-45.5675659
		c-2.5336304-7.4827271-2.9150391-15.5664063-1.5455322-23.3216553c1.2642212-7.1586914,4.3305664-13.8060913,7.7664795-20.1565552
		c3.4662476-6.4066162,6.9075928-12.4174194,7.2587891-19.9022827"/>
	<g>
		<polygon class="st0" points="1079.3880615,739.1503296 974.0158081,799.9872437 974.0158081,725.3670044 
			1079.3880615,664.5305176 		"/>
		<polygon class="st6" points="974.0158081,725.3670044 967.4732666,721.5488281 967.4732666,796.1687012 974.0158081,799.9872437 
					"/>
		<polygon class="st7" points="1079.3880615,664.5305176 1072.845459,660.7120361 967.4732666,721.5488281 974.0158081,725.3670044 
					"/>
		<g>
			<path class="st8" d="M1067.7176514,686.4786377l-85.0717773,49.1160278
				c-1.0877075,0.6281128-1.9775391-0.0446777-1.9775391-1.494812l0,0c0-1.4501953,0.8898315-3.1506958,1.9775391-3.7784424
				l85.0717773-49.116394c1.0876465-0.6276855,1.977417,0.0450439,1.977417,1.4952393l0,0
				C1069.6950684,684.1503906,1068.8052979,685.8505859,1067.7176514,686.4786377z"/>
			<path class="st8" d="M1040.3596191,713.3347778l-57.7137451,33.3210449
				c-1.0877075,0.6277466-1.9775391-0.0446777-1.9775391-1.4951782l0,0c0-1.4501953,0.8898315-3.1503296,1.9775391-3.7784424
				l57.7137451-33.3210449c1.0877686-0.6276855,1.9775391,0.0446777,1.9775391,1.4952393l0,0
				C1042.3371582,711.0065308,1041.4473877,712.7067261,1040.3596191,713.3347778z"/>
			<polygon class="st9" points="992.9831543,783.406311 986.0015259,787.4368896 986.0015259,761.6323242 992.9831543,757.6013794 
							"/>
			<polygon class="st8" points="1007.1056519,775.2525635 1000.1236572,779.2835083 1000.1236572,747.3186646 
				1007.1056519,743.2877197 			"/>
			<polygon class="st9" points="1021.2277832,767.0992432 1014.2461548,771.130127 1014.2461548,751.8652954 
				1021.2277832,747.8343506 			"/>
			<polygon class="st9" points="1035.4676514,758.8777466 1028.4859619,762.9086914 1028.4859619,728.257019 
				1035.4676514,724.2260742 			"/>
			<polygon class="st9" points="1049.5900879,750.7243652 1042.6085205,754.7553101 1042.6085205,728.9503174 
				1049.5900879,724.9194336 			"/>
			<polygon class="st9" points="1063.7121582,742.5709839 1056.7305908,746.6015015 1056.7305908,727.3824463 
				1063.7121582,723.3518677 			"/>
		</g>
	</g>
	<g>
		<path class="st10" d="M682.8988647,700.8901367c0,0,2.7427979-8.7039185-4.8649292-12.8883667
			c-7.6077271-4.18396-5.381958-9.6437378-5.381958-9.6437378s-2.75354,0.0740967-4.7412109,4.7694092
			c-0.8174438,1.9314575,0.6524048,4.9614868,0.6524048,4.9614868s-2.6166992-2.7835083-7.0725098-3.7429199
			c-4.4553223-0.9594116-6.9346924,0.8080444-6.9346924,0.8080444s3.0217285,1.2935791,4.8865356,3.1322021
			c1.8644409,1.8391113,0.0477905,3.8253174-0.239502,5.0032349c-1.0137939,4.1549072,0.7302246,6.4007568,0.7302246,6.4007568
			s-2.0941162,1.5993042-6.2827759-0.6293335c-4.1886597-2.2281494-3.3717041-7.1605835-3.3717041-7.1605835
			s-3.7129517,4.5532837-1.5785522,8.9228516c1.6624146,3.4039917,6.3999023,4.4206543,6.3999023,4.4206543
			s-3.9542847,3.5784302-2.6658936,7.0228271c2.0809937,5.5628052,6.861145,5.0594482,6.861145,5.0594482
			s-4.9263916,5.4386597-0.3383789,8.8572388c6.0666504,4.5205078,10.3387451-1.1126099,10.3387451-1.1126099
			L682.8988647,700.8901367z"/>
		<path class="st11" d="M691.8779907,738.5834351c0,0,3.3689575-7.8804932,17.5907593-8.9528809
			c7.0467529-0.5314941,17.4393921-8.1710815,28.8416138-13.4649048c8.7940063-4.0827026,19.3461304-7.5650635,29.098938-11.1312866
			c6.737854-2.4639282,21.0103149-4.0148315,22.0625-4.5505371c3.2166138-1.6366577-12.1538696,20.8491211-12.6901855,26.0318604
			c-0.5357056,5.1832275-32.8201904-0.9669189-42.9556274,10.1878662
			c-10.1352539,11.1547241-20.9648438,23.0588989-20.9648438,23.0588989S690.6748657,745.3916016,691.8779907,738.5834351z"/>
		<path class="st11" d="M712.861145,856.0950317c0,0-11.2433472,59.1062012-17.9943237,71.5924683
			c-3.1814575,5.8843994-9.7890015,12.5420532-18.1990967,20.3724365
			c-7.7736816,7.2374878-29.3056641,33.7871704-34.3866577,42.3866577
			c-2.2286377,3.7714844-5.7554932,12.9001465-9.6981201,32.3876953
			c-14.4655151,7.677063-12.6970825-17.8405762-12.4829712-29.9415894
			c0.0871582-4.9320068,9.2682495-10.4541016,9.8184814-11.7471924c3.555481-8.3571777,19.138855-42.7358398,31.7376709-53.4580078
			c9.1749878-7.8083496,7.6588135-60.9302979,8.6917725-70.4765015
			C671.3813477,847.6652222,712.861145,856.0950317,712.861145,856.0950317z"/>
		<path class="st12" d="M688.2662964,868.6315308c0,0-8.5502319,30.3282471-16.6795044,47.2164917
			c-8.1300049,16.8886719-8.3221436,23.0977173-13.5053711,27.3844604
			c-4.1313477,3.4171753-15.7375488,5.993103-33.6854858,12.0649414
			c-17.9473267,6.0718384-32.902771,12.770752-36.9920654,15.5471802
			c-3.1646118,4.2650757-9.3577271,18.4401245-13.4508667,26.0928345
			c-3.4433594,6.1229248-10.5703125,9.3161011-12.8186035,6.208252c-2.4446411-3.3792114,2.135376-20.1418457,2.9261475-24.75
			c1.182373-6.8943481,12.2598267-15.2562866,12.2598267-15.2562866s10.71521-11.9945679,23.0706177-21.9710693
			c16.6951294-13.480835,36.1681519-19.3534546,36.1681519-19.3534546s4.9455566-23.2965698,14.4539185-52.3388062
			c7.3256226-22.3742676,4.8325806-24.4354858,10.0546875-28.8369141
			C665.289856,836.2372437,688.2662964,868.6315308,688.2662964,868.6315308z"/>
		<path class="st13" d="M713.9696045,832.1834717c0,0,6.2494507,12.2745361,2.0054932,37.4046021
			c-6.3516846,37.6102905-19.1411743,62.1582642-19.1411743,62.1582642s-20.0968628,13.5750732-39.6725464,4.2888794
			c-20.9085693-9.9177856-21.980957-26.805542-21.980957-26.805542s5.633606-37.5452271,16.5704346-59.7768555
			c10.9368286-22.2321777,31.564209-22.7472534,31.564209-22.7472534L713.9696045,832.1834717z"/>
		<path class="st11" d="M676.2092896,721.8287964c0,0-2.142334,19.1271362-2.4282227,23.3828125
			c-0.2858887,4.255188-1.4032593,7.4675903-7.2373657,11.2246094c-5.8343506,3.7574463-9.3823242,7.5055542-9.3823242,7.5055542
			s10.9434204,9.1140747,29.1950073,7.5060425c18.2511597-1.6085815,23.6124878-10.1864624,23.0762939-16.8877563
			c-0.5361938-6.7017822-3.5980835-14.1140747-8.041748-14.2073364c-4.4431152-0.0928955-7.5055542-4.0803833-7.5055542-4.0803833
			L676.2092896,721.8287964z"/>
		<path class="st14" d="M700.6079102,744.1917725c2.2359619,3.1771851,8.8608398,15.5706787,1.5188599,17.6057739
			c-11.4575195,3.1757813-17.3554688-6.1655884-31.2867432-8.878479
			c-1.6080322,1.0724487-15.5266724,11.3775024-17.5912476,15.3116455
			c-2.812561,5.359436,6.5021362,23.7493286,9.9273071,32.8175049c2.635376,6.9763794-5.9561157,24.7021484-7.8988037,31.1352539
			c-1.9422607,6.4332886-7.7661743,12.7122803-7.7661743,12.7122803s7.7661743,7.371521,15.6256104,4.2078857
			c3.5165405-1.4154053,8.6453857-10.1054688,8.6453857-10.1054688s2.201416,18.3778076,13.8253174,21.3108521
			c22.7585449,5.7423706,35.5040283-12.7328491,35.5040283-12.7328491s-8.9303589-30.671875-9.0653687-38.1314087
			c-0.2001343-11.0713501,0.5010376-16.5484619,7.4174194-27.7439575
			c4.4216309-7.1568604-1.1688843-14.7730103-3.7714844-21.9383545
			c-4.4783325-12.3292847-6.1810913-16.7288208-12.1563721-21.1790161c-5.6799927-4.2299194-11.6576538,0-11.6576538,0
			S697.90625,740.3527222,700.6079102,744.1917725z"/>
		<path class="st12" d="M675.3269043,704.4052734c5.171814-5.8589478,19.3187256-10.225708,27.5629272,3.6478882
			c8.6463013,14.5475464-1.6226196,36.9142456-9.8311768,35.097168
			c-4.5969238-1.0170288-14.0123901-3.7780762-18.1564941-11.5180054
			C670.237793,722.9189453,671.3082275,708.9562378,675.3269043,704.4052734z"/>
		<path class="st15" d="M710.2833252,704.9733887c0,0,4.4572144-0.2474365,5.0777588,3.2545776
			c0.6205444,3.5025024-0.3613281,3.75,1.6751099,5.1335449c3.1120605,2.1137695,4.0054321,4.2387695,3.3422241,7.1568604
			c-0.663208,2.9180298-4.0021362,4.3597412-4.0021362,4.3597412s0.3866577-3.9459229-1.5789795-4.5941162
			c-3.4505005-1.1370239-5.3317871,1.2391968-7.7207031-1.3666992c-1.9797363-2.159668-2.5023193-5.7826538-6.6361694-3.8043213
			c-3.0211182,1.4459229-8.7358398-1.2730103-9.9942627-3.0352783c-1.4060669,5.5465088-3.4326782,7.5909424-6.0408325,8.3070679
			c-2.6083374,0.7156982-5.9241943,0.8591309-6.1904907,4.6494141c-0.2070923,2.9456787,1.0334473,4.6981201-0.3444824,7.6958008
			c-1.3775024,2.9976807-5.9963989,4.0990601-5.9963989,4.0990601s-1.7822876-8.2713013-5.2778931-15.484375
			c-3.4954834-7.213562,0.5797729-13.1982422,6.3601074-17.373291c-0.5643311-6.5705566,9.4121704-12.1469727,15.9597168-11.8587646
			c7.5997925,0.3341675,10.2675171,2.6939697,13.3294678,7.2304688
			C705.307312,703.8799438,707.881897,704.6199951,710.2833252,704.9733887z"/>
		<path class="st14" d="M623.3498535,982.751709c0.0435791-0.0253296,0.0862427-0.0506592,0.1298218-0.0750122
			c0.4100952-0.2315063,0.6594238-0.3289795,0.6594238-0.3289795l-0.0032959,0.0163574
			c2.5843506-1.1744995,5.7826538-1.2185669,5.7826538-1.2185669s-10.1282959,12.5734863-8.1812744,23.9335327
			c2.1732178,12.6784668,4.7026978,16.7982178,10.8457642,17.755249c0,0-0.8782959,4.4314575-1.3657227,13.1115112
			c-0.2606201,4.637207-4.5588379,5.2253418-10.5571899-1.7524414c-3.1691284-3.6866455-6.2999878-10.3598022-5.5234985-16.5338135
			c0.8155518-6.4894409,2.5632935-12.6175537,2.2998657-17.6610718c-0.0412598-0.7832031-0.0665283-1.4641724-0.0941772-2.1592407
			l-0.0060425,0.0046387c-3.2104492,2.7947998-5.0450439,4.8031006-7.3771362,6.8217773
			c-1.6235962,0.3641357-2.3477173-0.8450317-2.3421021-2.359375c1.9708252-2.822937,4.746521-4.4525146,7.842041-10.2009888
			C618.7454224,986.0029907,621.9231567,983.5939331,623.3498535,982.751709z"/>
		<path class="st14" d="M568.5546875,967.510437c0,0-4.9188843,5.8970337-7.4990234,8.7428589
			c-2.5805664,2.845459-4.5987549,5.5291748-4.5987549,5.5291748s0.4233398,3.9486694,3.4279785,2.1039429
			C567.3445435,975.7095947,568.5546875,967.510437,568.5546875,967.510437z"/>
		<path class="st14" d="M573.9530029,996.937439c0,0-2.0369263,4.1281128-6.9984131,11.8427124
			c-2.1470947,3.3390503-6.1726074,6.3948364-9.4093628,3.9586182c-8.2677002-6.2241821-5.6322632-13.1630859-4.0925903-17.5612183
			c1.9465332-5.5595703,10.0556641-17.395813,13.4082031-24.1448975c3.0787964-8.8849487,9.4595337-7.8932495,9.4595337-7.8932495
			s-7.5913696,7.9307251-11.0662231,16.4842529c-4.6465454,11.4387817-3.6969604,15.8533936-0.2868042,19.4852295
			C568.6994629,1003.0842896,573.9530029,996.937439,573.9530029,996.937439z"/>
	</g>
	<path class="st12" d="M923.9147339,752.46875c0,0,4.2866211,12.1605835,6.5892944,19.2911987
		c2.3021851,7.1306152,9.2093506,22.7341309,15.3485718,35.2696533
		c6.1393433,12.5350342,12.3156738,34.5838623,12.6625366,36.3059082c0.3468018,1.7224121-12.6625366,2.342041-12.6625366,2.342041
		s-14.7509766-30.770752-16.4996338-39.9265137c-1.9238892-10.0716553-5.1279297-25.3930054-9.4609375-33.9910889
		C915.559021,763.1623535,923.9147339,752.46875,923.9147339,752.46875z"/>
	<g>
		<path class="st8" d="M923.4030762,631.1106567l-5.8840332-3.3717651
			c-0.0093384-0.0065308-0.0196533-0.0093384-0.0285645-0.0164185l-0.0872192-0.0496826l-0.017334,0.0164185
			c-0.5314941-0.3336792-1.2193604-0.3519897-1.9918823,0.09375L714.6904297,743.6588745
			c-1.65448,0.9550781-2.9954224,3.5179443-2.9954224,5.7235718v208.972229c0,1.022644,0.3098145,1.7542725,0.784729,2.1873169
			l-0.0140381,0.0272217l0.0562134,0.0323486c0.0656128,0.0548096,0.140625,0.0801392,0.2122192,0.1227417l6.1843262,3.5700073
			l3.7874756-7.0523071l-1.5241699-0.3707275L915.394043,844.742981c1.6544189-0.9552002,2.9953613-3.5175171,2.9953613-5.7236328
			V633.5871582l2.0140381,1.6600952L923.4030762,631.1106567z"/>
		<path class="st16" d="M924.5560303,842.5438843c0,2.2061157-1.3414917,4.7684326-2.9959717,5.7236328l-200.703125,115.8763428
			c-1.65448,0.9552002-2.9958496-0.0585938-2.9958496-2.2647095V752.9074707c0-2.2061157,1.3413696-4.7684326,2.9958496-5.7236328
			l200.703125-115.8763428c1.65448-0.9552002,2.9959717,0.059021,2.9959717,2.2647095V842.5438843z"/>
		<polygon class="st1" points="918.682312,840.7788086 723.7346802,953.3317261 723.7346802,767.3880005 918.682312,654.835144 		
			"/>
		<polygon class="st14" points="919.1922607,647.9857178 911.2953491,652.5450439 911.2953491,642.0160522 919.1922607,637.4571533 
					"/>
		<polygon class="st13" points="906.8812866,655.0933838 898.984436,659.652771 898.984436,649.1235962 906.8812866,644.5647583 		
			"/>
		<g class="st3">
			<polygon class="st17" points="777.8572998,770.4578857 777.8572998,779.0812988 910.9682007,702.2296753 
				910.9682007,693.6063232 			"/>
			<polygon class="st17" points="777.8572998,788.7793579 777.8572998,797.40271 910.9682007,720.5511475 910.9682007,711.9277954 
							"/>
			<polygon class="st17" points="777.8572998,807.3867188 777.8572998,816.0096436 910.9682007,739.15802 910.9682007,730.5351563 
							"/>
			<polygon class="st17" points="850.0107422,785.6808472 731.8284302,853.9133301 731.8284302,862.5371704 
				850.0107422,794.3042603 			"/>
			<polygon class="st17" points="850.0107422,804.0028076 731.8284302,872.2351685 731.8284302,880.8581543 
				850.0107422,812.6256714 			"/>
			<polygon class="st17" points="850.0107422,822.6096802 731.8284302,890.842041 731.8284302,899.4655151 850.0107422,831.232605 
							"/>
			<polygon class="st17" points="850.0107422,841.6847534 731.8284302,909.9176025 731.8284302,918.5405884 
				850.0107422,850.3076782 			"/>
			<polygon class="st18" points="731.8284302,797.0268555 731.8284302,842.2935791 767.4093018,821.6952515 
				767.4093018,776.4289551 			"/>
			<polygon class="st18" points="860.1704712,779.8943481 860.1704712,844.5198975 910.9682007,815.1125488 
				910.9682007,750.4871216 			"/>
		</g>
		<g class="st3">
			<path class="st19" d="M762.3638916,784.7617188v-3.0754395l0.9406738-0.6547852
				c0.4827271-0.3567505,0.828125-0.7827148,0.828125-1.5425415v-17.6581421l-1.6244507,0.8239136v-3.2264404l6.8654175-3.9636841
				v3.0755615l-0.9407349,0.6589355c-0.4827881,0.3477783-0.828186,0.7780151-0.828186,1.6891479v16.9351196l4.7323608-2.7324829
				c0.5999146-0.3482056,0.6548462-0.8699341,0.6548462-1.5930786v-2.6546021l2.90625-1.4144897v7.5199585L762.3638916,784.7617188z
				"/>
			<path class="st19" d="M777.708252,775.9054565v-3.0759888l0.9454346-0.6589355
				c0.4827271-0.3571777,0.8238525-0.7780762,0.8238525-1.5377808v-17.6582642l-1.624939,0.8239746v-3.2316284l13.0491943-7.5336914
				v6.3071289l-2.9067993,1.9408569v-1.5194702c0-0.7233276-0.0548706-1.1445923-0.8234863-0.7007446l-4.2177124,2.4353027
				v6.4946289l6.5794067-3.7987061v3.8718262l-6.5794067,3.7991943v7.0986938l4.5861816-2.6499634
				c0.741394-0.4255371,0.7962036-0.9106445,0.7962036-1.6703491v-1.8995972l2.9064331-1.4099121v6.7557373L777.708252,775.9054565z
				"/>
			<path class="st19" d="M802.6578369,754.4391479c0-2.3983154-1.624939-2.1419067-3.6182251-1.7116699
				c-2.8238525,0.6040649-5.4441528,0.5946655-5.4441528-4.2659912c0-4.632019,2.6793823-8.9894409,6.611145-11.2592773
				c1.8789673-1.0803223,3.6478271-1.6113281,5.3552246-1.5335083v5.6982422l-2.9039917,1.9408569v-2.1967163
				c0-0.7232056-0.0870361-0.9795532-0.5999146-0.9111328c-0.5422363,0.0871582-1.2836914,0.4348145-1.8513184,0.7644043
				c-1.6844482,0.9702148-2.9911499,2.6410522-2.9911499,4.9934082c0,2.3527832,1.65271,2.0462646,3.789917,1.6844482
				c2.5908203-0.3936768,5.3274536-0.416626,5.3274536,4.4811401c0,5.0116577-2.9658203,9.4604492-6.8972168,11.7307739
				c-2.2749634,1.3137207-4.0438232,1.8400879-5.7510986,1.7622681v-5.9959106l2.9038696-1.9455566v2.3162842
				c0,0.7185059,0.0824585,0.9748535,0.5999146,0.9106445c0.5375977-0.0913696,1.2790527-0.4025879,2.0481567-0.8469238
				C801.1196289,758.9703979,802.6578369,757.2859497,802.6578369,754.4391479z"/>
			<path class="st19" d="M817.5172119,745.8569946c0-2.3935547-1.625-2.137207-3.6182251-1.7070313
				c-2.8220825,0.604187-5.4420776,0.5948486-5.4420776-4.2659302c0-4.6315308,2.6795044-8.9889526,6.6113281-11.2592773
				c1.8789673-1.085083,3.6454468-1.6113281,5.3552246-1.5377197v5.7029419l-2.90625,1.9403687v-2.201416
				c0-0.7232056-0.0872803-0.9748535-0.5976563-0.9106445c-0.5422974,0.0866699-1.2837524,0.4391479-1.8513184,0.7639771
				c-1.6798096,0.9706421-2.9935303,2.6410522-2.9935303,4.9938354c0,2.352356,1.6549683,2.0458374,3.789856,1.6844482
				c2.5932007-0.3936768,5.3280029-0.4119873,5.3280029,4.4853516c0,5.006958-2.9663086,9.4562378-6.8934326,11.7260132
				c-2.2839355,1.3184814-4.0457153,1.8401489-5.7554932,1.7669678v-6.0005493l2.906311-1.9450684v2.3157959
				c0,0.7232056,0.0825195,0.9795532,0.5977173,0.9111328c0.5397949-0.0871582,1.28125-0.3983765,2.050354-0.8469238
				C815.9788818,750.3881836,817.5172119,748.7042847,817.5172119,745.8569946z"/>
			<path class="st19" d="M831.4952393,745.3447266c-5.0735474,2.9292603-8.2615356,0.3612671-8.2615356-8.2938843
				c0-9.7214966,4.5861206-15.7858887,8.5727539-18.0928345c4.2453613-2.4487915,8.0625-1.1627197,8.0625,8.4856567
				C839.8689575,736.1400757,836.4820557,742.4655762,831.4952393,745.3447266z M831.6920776,741.3946533
				c3.6201782-2.0870972,4.6456299-7.2407837,4.6456299-11.7949829c0-3.8770142-0.769104-8.897583-4.7004395-6.6277466
				c-3.6482544,2.105835-4.8447266,7.31427-4.8447266,11.831543
				C826.7925415,739.133667,827.5910645,743.765625,831.6920776,741.3946533z"/>
			<path class="st19" d="M841.9080811,735.7647705l1.0250244-0.7091675
				c0.4851074-0.3158569,0.7415771-0.7278442,0.7415771-1.4876099V715.909729l-1.625061,0.8239746v-3.2315674l5.1288452-2.9564819
				l8.0623779,12.7698364l0.057251-0.0276489v-14.0878906l-1.8790283,0.9701538v-3.2315063l6.9482422-4.0091553v3.0755615
				l-1.0231323,0.704895c-0.4277954,0.2839966-0.6866455,0.769104-0.6866455,1.5743408v20.8804321l-3.3318481,1.9272461
				l-8.2342529-12.9395142l-0.0549927,0.0275879v14.3536377l1.8513184-0.9523926v3.2269287l-6.9796753,4.0325928V735.7647705z"/>
			<path class="st19" d="M872.5991211,701.5974731l-3.3294067,4.2017822l-1.2567139-2.2019043l5.1856079-7.2773438
				l2.7943115-1.6155396v21.0360718l2.9616089-1.5152588v3.222229l-9.9141235,5.7259521v-3.1125488l2.7347412-1.8077393
				c0.5427856-0.3477783,0.8239746-0.7780151,0.8239746-1.7299194V701.5974731z"/>
		</g>
		<g>
			<polygon class="st20" points="736.6431885,790.3512573 736.6431885,804.9202881 755.1030273,794.1456909 
				755.1030273,779.5766602 			"/>
			<g>
				<path class="st20" d="M753.1030273,803.0270386v9.9375l-14.4598389,8.4399414v-9.9375L753.1030273,803.0270386
					 M755.1030273,799.5441284l-18.4598389,10.7744141v14.5693359l18.4598389-10.7749023V799.5441284L755.1030273,799.5441284z"/>
			</g>
			<g>
				<path class="st20" d="M753.1030273,822.994812v9.9375l-14.4598389,8.4399414v-9.9375L753.1030273,822.994812
					 M755.1030273,819.5119019l-18.4598389,10.7744141v14.5688477l18.4598389-10.7744141V819.5119019L755.1030273,819.5119019z"/>
			</g>
			<g>
				<path class="st20" d="M753.1030273,842.9620972v9.9375l-14.4598389,8.4399414v-9.9375L753.1030273,842.9620972
					 M755.1030273,839.479187l-18.4598389,10.7744141v14.5693359l18.4598389-10.7749023V839.479187L755.1030273,839.479187z"/>
			</g>
			<g>
				<path class="st20" d="M753.1030273,862.9293823v9.9379883l-14.4598389,8.4399414v-9.9379883L753.1030273,862.9293823
					 M755.1030273,859.4464722l-18.4598389,10.7744141v14.5693359l18.4598389-10.7744141V859.4464722L755.1030273,859.4464722z"/>
			</g>
		</g>
		<g>
			<g class="st21">
				<g>
					<path class="st22" d="M826.3275146,792.9882202c0.3143921,0.0644531,0.6387329,0.0975952,0.9729614,0.0966187
						c2.5910034-0.0046997,5.9370117-0.6170044,9.4490967-1.8668213l0.0057373,2.0356445l2.4012451-2.9845581
						c1.3137817-0.5691528,2.6329956-1.2254639,3.9259033-1.9719238c3.6997681-2.1361084,7.1918335-5.0053711,9.7808838-8.6417847
						l0.1990967,4.2975464l0.0213623,0.4611206c-0.0922241,0.5324097-1.8447876,10.647644-12.27948,16.6721191
						c-0.3882446,0.2241821-0.7873535,0.4413452-1.1999512,0.6520996
						c-10.6989136,5.4522095-13.0683594-1.2773438-13.3600464-2.3018799
						c-0.0233765-0.0820923-0.03302-0.1253052-0.0335083-0.1275635L826.3275146,792.9882202z"/>
				</g>
				<g>
					<polygon class="st1" points="836.7030029,774.7860718 850.6465454,775.9846191 839.1565552,790.269104 
						836.7553101,793.2536621 836.7495728,791.2180176 					"/>
				</g>
				<g>
					<path class="st22" d="M841.3067627,757.5718994c5.6326294-3.2519531,10.9585571-5.2073975,10.8841553-2.6564331
						c-0.1138306,3.9207153-5.4032593,8.5808105-10.9664917,11.7927246
						c-6.442688,3.7196655-13.2532349,5.4985962-12.8291016,1.9456787
						C828.6915894,766.1792603,835.180481,761.1089478,841.3067627,757.5718994z"/>
				</g>
				<g>
					<path class="st9" d="M863.1161499,745.2359619c0.0195313,0.0887451,0.0319214,0.1833496,0.0356445,0.2838745
						c-0.0183105,0.4025269-0.3659058,8.050415-2.9398193,17.4198608c-1.4251099,5.1875-3.5269775,10.7790527-6.6195068,15.6344604
						c-0.2340698,0.3679199-0.4776001,0.7280273-0.729187,1.0812378c-2.5889893,3.6364136-6.0810547,6.5056763-9.7808228,8.6417847
						c-1.2929688,0.74646-2.6121216,1.40271-3.9259644,1.9719238l11.4900513-14.2844849l-13.9436035-1.1985474l0.0465698,16.4319458
						c-3.512085,1.2498169-6.8580322,1.8620605-9.4490356,1.8668213c-0.3342896,0.0009766-0.6586304-0.0321655-0.9730225-0.0966797
						c-2.6473999-0.5432129-4.6004028-3.324646-6.0482788-6.6595459
						c-2.0532227-4.7280884-3.0908203-10.5681152-3.6522217-12.7237549c-0.064209-0.2451782-0.0836792-0.5083618-0.0617676-0.786499
						c0.3577881-4.5384521,11.8496704-13.2176514,23.3302612-19.8459473
						C851.1526489,746.4730835,862.3981323,741.9477539,863.1161499,745.2359619z M841.2243652,766.7081909
						c5.5632935-3.2119141,10.8527222-7.8720093,10.9665527-11.7927246
						c0.0744019-2.5510254-5.2515869-0.5955811-10.8841553,2.6564331
						c-6.1263428,3.5369873-12.6152344,8.6072998-12.911438,11.0819092
						C827.9711914,772.2067871,834.7817383,770.4278564,841.2243652,766.7081909"/>
				</g>
				<g>
					<path class="st9" d="M799.4475708,792.7554932c3.5609131-5.7418823,7.8305664-11.909668,7.7910767-25.8341675
						c-0.0185547-6.534668,1.6079102-15.1942749,3.8539429-23.2672119l6.6526489-3.8409424
						c-0.2867432,0.5425415-0.5665894,1.0890503-0.8405762,1.6436768
						c-5.3599243,10.8214111-4.3639526,22.4714355-0.3395386,31.3615112
						c-0.0218506,0.2781372-0.0025024,0.5412598,0.0617676,0.786438c0.5613403,2.1556396,1.598938,7.9957275,3.6521606,12.7237549
						C807.5698853,792.0527954,798.1785278,794.8129883,799.4475708,792.7554932z"/>
				</g>
				<g>
					<path class="st16" d="M897.2171631,693.9301147c4.5776978-2.6429443,8.3023071-0.7808228,8.3163452,4.1864014
						l0.2402954,84.7485352c0.0140381,4.951355-3.6878662,11.1011353-8.265564,13.7440796L776.163269,866.6676636
						c-4.5919189,2.6511841-8.3165283,0.7890625-8.3305664-4.1622314l-0.2402954-84.7485962
						c-0.0140381-4.9672241,3.6878052-11.1170044,8.2797241-13.7681885l35.2206421-20.3345947
						c-2.2460327,8.0730591-3.8725586,16.732666-3.8540039,23.2672729
						c0.0394897,13.9244995-4.2301636,20.0923462-7.7911377,25.8341675
						c-1.2689819,2.0574951,8.1223145-0.7025757,20.831543-6.4268799c1.447937,3.3348999,3.4008789,6.116333,6.0483398,6.6596069
						l-0.1166992,6.3206177l-6.5614624,3.9351196c-17.7156372,10.2281494-32.0396729,35.0384521-31.9819946,55.3950806
						l0.0039673,1.3844604l102.6797485-59.2821655l-0.0039673-1.3845215
						c-0.0576782-20.3566284-14.4754028-28.5728149-32.19104-18.3446655l-5.0936279,2.9407959l-0.1990967-4.2975464
						c0.2515869-0.3532715,0.4951172-0.7133179,0.729126-1.0811768c3.0925293-4.8554688,5.194458-10.4470215,6.6195679-15.6345215
						c9.9559937-7.3879395,17.2532959-13.9754639,17.6672974-15.0587769
						c1.4233398-3.692627-8.2147827-3.461792-7.9093018-20.8634644c0.1322021-7.6428833-0.7330933-12.5346069-2.4646606-15.9332886
						L897.2171631,693.9301147z"/>
				</g>
				<g>
					<path class="st23" d="M858.1560669,781.012085c17.7156372-10.2280884,32.1333008-2.0119019,32.19104,18.3447266
						l0.0039063,1.3845215l-102.6797485,59.2821655l-0.0039063-1.3845215
						c-0.0577393-20.3565674,14.2663574-45.1668701,31.9819946-55.3950195l6.5949097-3.8075562
						c0.291748,1.0244751,2.6611938,7.7540894,13.3601074,2.3018799c0.4125366-0.2108154,0.8116455-0.4279175,1.1999512-0.6520996
						c10.4346313-6.0244751,12.1871948-16.1397705,12.2794189-16.6721191l-0.0213013-0.4611206L858.1560669,781.012085z"/>
				</g>
				<g>
					<path class="st22" d="M816.5651855,772.8183594c-4.0244751-8.8900146-5.0203857-20.5401001,0.3395386-31.3613892
						c0.2739868-0.5547485,0.553894-1.1012573,0.8405762-1.6437988l41.8249512-24.147644
						c6.4624634,4.7576294,7.3963623,15.4258423,3.5458984,29.5704346
						c-0.7180176-3.288208-11.963501,1.2371216-23.2207031,7.7364502
						C828.414856,759.600708,816.9229736,768.2799072,816.5651855,772.8183594z"/>
				</g>
			</g>
			<g>
				<path class="st9" d="M863.1161499,745.2359009c3.8503418-14.1444702,2.9164429-24.8127441-3.5460205-29.5703125
					l7.9351196-4.5813599c1.7315674,3.3986206,2.5969238,8.2902832,2.4646606,15.9332275
					c-0.305542,17.4016113,9.3327026,17.1706543,7.9093018,20.8634033
					c-0.4140015,1.083374-7.7113037,7.6708374-17.6672974,15.0587769
					c2.5738525-9.3693237,2.9215698-17.0172729,2.9398193-17.4197998
					C863.1480713,745.4192505,863.1356812,745.324707,863.1161499,745.2359009z"/>
			</g>
			<g>
				<polygon class="st20" points="900.2103271,816.5615234 770.963562,891.182373 770.963562,894.9909058 900.2103271,820.3699341 
									"/>
				<polygon class="st20" points="900.2103271,826.9199829 808.1642456,880.2051392 808.1642456,884.0136719 
					900.2103271,830.7283936 				"/>
				<polygon class="st20" points="818.4313965,853.8720093 770.963562,881.2515869 770.963562,885.0601196 818.4313965,857.6804199 
									"/>
				<polygon class="st16" points="860.8609009,829.2914429 831.3168945,846.2808228 831.3168945,850.0893555 
					860.8609009,833.0999146 				"/>
				<polygon class="st16" points="800.5076294,884.59198 770.963562,901.5813599 770.963562,905.3898926 800.5076294,888.4003906 
									"/>
			</g>
		</g>
	</g>
	<path class="st12" d="M729.2904663,767.2821045c-2.4126587-5.0369873-4.8846436-0.6486816-13.9260864,3.3684692
		c-0.5258789,0.2332764-3.4401245,1.2255859-3.8079834,1.6112671c0.1386108-1.9042358,0.1386108-5.2727661,0.1386108-5.2727661
		s-2.9325562,3.2523193-4.5405884,6.2007446c-1.6085815,2.9490356-4.020874,7.1035156-4.9713745,10.3632202
		c-0.0056152,0.0181885,0.0061035,0.0275879,0.0018311,0.0459595c-0.3097534,0.5708618-0.6176758,1.1304321-0.9279785,1.7875366
		c-2.6546631,5.6293945-26.1174927,23.4554443-26.1174927,23.4554443s-0.0568237-16.9903564-1.2575684-25.8358765
		c-1.2008057-8.8461304-5.8642578-22.0128784-11.9140625-23.2431641c0,0-4.8063965,3.1069336-7.755249,6.5916138
		c-5.4649048,6.4589844-1.5664673,17.0217896,1.0647583,26.2699585c2.6316528,9.2476196,6.2963257,38.3001709,9.9155273,39.1043701
		c1.5059204,0.3347168,4.6184692,0.8174438,7.4766235,0.0234375c4.0099487-1.1140137,9.1373901-3.5727539,14.7824097-8.0333252
		c9.6679688-7.6395874,16.40625-23.1971436,20.3095093-26.8303833c3.9036865-3.6328125,9.7130737-7.7493896,15.9293823-12.5866089
		C729.9067993,779.4646606,731.7028198,772.3190918,729.2904663,767.2821045z"/>
	<g>
		<path class="st24" d="M1058.5697021,1050.5749512c2.1606445,0.8000488,2.7553711,5.5858154,0,13.2652588
			c-2.7550049,7.6794434-3.6534424,15.9293213-9.4371338,14.3498535c-5.7836914-1.5799561-3.8891602-10.52771-1.274292-17.5683594
			C1050.4735107,1053.5806885,1054.7972412,1049.1782227,1058.5697021,1050.5749512z"/>
		<path class="st24" d="M1071.4735107,990.2141113c2.6903076,0.2067261,3.5418701,3.3192749,3.6427002,10.1588135
			c0.1003418,6.8395386,1.407959,17.3916016-2.4760742,18.1803589c-2.8692627,0.5825806-4.3635254-0.7887573-5.6711426-3.4954224
			c-2.2524414-4.6620483-1.7097168-13.0754395,0-18.0042725
			C1068.678833,992.1254272,1069.432373,990.0576172,1071.4735107,990.2141113z"/>
		<g>
			<path class="st12" d="M1056.9110107,996.0479126c1.0372314-0.345459,9.0963135,0.7873535,14.5625-0.2011108
				c3.0123291-0.5446167,6.3371582-2.3668823,9.5767822-3.1289673c9.1196289-2.1461792,12.8303223,2.1386719,13.5679932,9.9840088
				c0.7189941,7.6470947,4.8049316,14.8709106,6.9506836,23.9901733c2.1461182,9.1192627,1.3413086,10.9799805-2.4138184,14.4837646
				c-3.755127,3.5040283-13.9481201-6.3632813-15.3214111-10.7182617
				c-2.2111816-7.0130005-5.0158691-15.5735474-7.2088623-17.3105469
				c-4.3170166-3.4185791-16.0932617-0.8048096-16.0932617-0.8048096L1056.9110107,996.0479126z"/>
			<path class="st25" d="M1079.1816406,993.2634277c-1.8673096,0.6687012-3.0933838,6.0704346-1.3498535,10.3616943
				c2.9489746,7.2590332,4.5162354,9.809082,6.1257324,16.0455322c1.6094971,6.2358398-0.1237793,10.7868652-0.1237793,10.7868652
				s2.4643555,14.3736572,12.1029053,14.8756104c3.1051025,0.1617432,4.6761475-0.7409668,5.9885254-1.7940674
				c1.9998779-1.6053467,2.1339111-4.7182617,2.8626709-7.2651367c1.2069092-4.2177734-4.4248047-16.604187-6.5377197-21.8769531
				c-2.1123047-5.2727051-5.0186768-7.6134033-4.3250732-9.6539917c0.6932373-2.0411377,1.6090088-5.8787842,0.2010498-9.7009277
				c-1.4083252-3.8221436-3.8221436-3.8221436-6.6384277-3.8221436S1079.1816406,993.2634277,1079.1816406,993.2634277z"/>
			<path class="st23" d="M1087.4876709,991.2199097c-2.9208984,1.149231-3.4200439,5.7667847-2.0115967,9.9915161
				c1.407959,4.2242432,3.7561035,4.6939087,4.5598145,8.3145142c0.2774658,1.2514038,0.9378662,17.4342651,2.4691162,25.0934448
				c1.3460693,6.7327881,2.366333,8.8155518,5.1746826,9.7750244c4.7253418,1.6141357,8.5831299-4.6939697,7.2755127-14.4838867
				c-0.5123291-3.8361816-8.3192139-19.1552124-8.8843994-22.3961792c-0.5653076-3.2405396,0.4592285-7.0144043-0.6707764-10.862793
				C1094.1420898,992.3677368,1090.7061768,989.9540405,1087.4876709,991.2199097z"/>
		</g>
		<g>
			<path class="st12" d="M1043.25,1050.5749512c1.0935059-0.0219727,8.4523926,3.4532471,13.9660645,4.1329346
				c3.0380859,0.3748779,6.7537842-0.3778076,10.0734863-0.1434326c9.3457031,0.6589355,11.6164551,5.852417,9.9906006,13.5633545
				c-1.5845947,7.5152588,0.1719971,15.6264648-0.4874268,24.9716797
				c-0.6594238,9.3450928-1.9802246,10.8828125-6.6066895,13.1132813
				c-4.6263428,2.2305908-11.428833-10.21875-11.4466553-14.7851563c-0.0290527-7.3527832-0.1645508-16.3604736-1.7426758-18.670166
				c-3.1069336-4.5467529-15.1282959-5.5478516-15.1282959-5.5478516L1043.25,1050.5749512z"/>
			<path class="st25" d="M1065.3436279,1054.5302734c-1.9816895,0.0843506-4.7567139,4.8774414-4.3668213,9.4931641
				c0.6604004,7.807373,1.3995361,10.7081299,1.0841064,17.1407471c-0.3154297,6.4328613-3.3215332,10.2634277-3.3215332,10.2634277
				s-1.9160156,14.4571533,7.1385498,17.7988281c2.9171143,1.0771484,4.6854248,0.6815186,6.2513428,0.0656738
				c2.3861084-0.9388428,3.4387207-3.8718262,4.8912354-6.086792c2.4047852-3.6694336,0.7058105-17.1694336,0.2545166-22.831665
				c-0.451416-5.6622314-2.5313721-8.7602539-1.2631836-10.5032959c1.2683105-1.7425537,3.2827148-5.135376,3.0732422-9.203125
				c-0.2095947-4.067749-2.5145264-4.7849121-5.2038574-5.62146
				C1071.1918945,1054.2095947,1065.3436279,1054.5302734,1065.3436279,1054.5302734z"/>
			<path class="st23" d="M1073.8812256,1055.0457764c-3.1303711,0.2301025-4.9779053,4.4909668-4.8879395,8.9429932
				s2.1925049,5.5975342,1.8845215,9.2940674c-0.1063232,1.2772217-4.2823486,16.9257813-5.0946045,24.6942139
				c-0.7142334,6.8292236-0.3585205,9.1206055,2.0383301,10.8712158c4.0325928,2.9443359,9.5898438-1.9333496,11.2490234-11.6697998
				c0.6500244-3.8151855-2.2553711-20.762085-1.8326416-24.0245361c0.4228516-3.2619629,2.5220947-6.5611572,2.5858154-10.5716553
				C1079.8948975,1058.118042,1077.3308105,1054.7927246,1073.8812256,1055.0457764z"/>
		</g>
		<path class="st23" d="M966.0773926,869.5163574c0,0,3.4542236-7.4450684,1.5166626-16.1134644
			c-1.937561-8.6688232-12.8743286-30.2363892-12.8743286-30.2363892s-3.7654419-1.0213013-9.1248779,0
			c-5.3590088,1.020813-9.0564575,7.6461792-9.0564575,7.6461792s3.4293823,15.0593872,5.8431396,22.59021
			c2.4141846,7.5303955,14.1571655,17.8616943,17.7022705,19.0639038
			C963.6289673,873.668457,966.0773926,869.5163574,966.0773926,869.5163574z"/>
		<path class="st12" d="M917.4413452,820.9875488c-5.7752686,3.3952026-9.3330688,7.2229614-8.9539185,20.3659058
			c0.3824463,13.2595825,3.8619995,15.3798828,6.5358887,16.4953613c1.4754028,0.6154785,5.0960083,1.2069092,5.0960083,1.2069092
			s1.6005859,12.8753052,3.7283936,15.8468018c1.3029785,1.8189697,7.1864014,2.0186768,13.4378662-0.5581665
			c6.2507935-2.5778198,6.1687622-4.8280029,6.1687622-4.8280029s-3.3586426-9.4848022-2.9503784-16.7738037
			c0.5061646-9.0377197,2.9503784-14.0714111,1.0728149-22.65448
			C939.5328369,820.7443237,927.5569458,815.039917,917.4413452,820.9875488z"/>
		<path class="st26" d="M952.305481,977.9364014c1.3878174,0.5820923,17.2509766,5.2432251,28.5655518,18.7151489
			c13.56427,16.1514282,17.2997437,21.5985107,24.5418701,23.7071533
			c6.5686646,1.9127197,22.8644409,1.5040283,38.2424927,1.1098633c18.5864258-0.4761963,28.9847412-2.9152832,28.9847412-2.9152832
			s-4.3635254-0.7887573-5.269043-13.8103027c-0.9387207-13.5028687,4.102417-14.5288696,4.102417-14.5288696
			s-14.1369629-1.6169434-28.2416992-1.2068481c-14.4759521,0.4213257-26.5540161,0.4025879-26.5540161,0.4025879
			s-17.0119019-28.0668335-18.9091797-34.5287476c-1.8970947-6.4616699-4.8757324-11.4265747-16.7203979-22.244751
			c-11.8446655-10.817749-30.230835,22.244751-30.230835,22.244751L952.305481,977.9364014z"/>
		<path class="st13" d="M929.3580933,945.7778931c0,0,3.1317749,22.1014404,6.6047363,33.0073242
			s9.5200806,23.348938,16.3225098,36.7797241c6.8025513,13.4306641,13.3186646,25.4165039,19.1308594,31.8951416
			c5.8126831,6.479126,29.4059448,14.2879639,40.9703369,18.9283447
			c16.0271606,6.4309082,36.7460327,11.8016357,36.7460327,11.8016357s-3.7911377-2.4813232,1.0390625-16.7640381
			c3.9342041-11.6328125,8.3980713-10.8510742,8.3980713-10.8510742s-18.2807617-8.8338623-29.0175781-14.2270508
			c-14.9050293-7.4876709-26.284729-12.8743896-35.6725464-15.9891968
			c-4.2914429-15.1240845-12.3753662-35.8733521-14.9915771-49.5285645
			c1.69104-10.0959473-0.3219604-26.0856934-13.1715088-36.6733398
			C952.8670044,923.5691528,929.3580933,945.7778931,929.3580933,945.7778931z"/>
		<path class="st25" d="M925.2139893,863.1970825c0,0-12.2904053,6.3511963-14.7224121,10.6620483
			c-0.1265869,8.2888184,0.3791504,10.3103027,0.631897,22.9442139c0.1741943,8.72229,7.331543,10.4522095,11.1176147,13.9898682
			s5.3861694,17.2950439,7.1170044,34.9846802c1.0799561,11.0361938,4.5270386,25.124939,4.5270386,25.124939
			s12.7403564-3.5255127,21.6392822-8.4490356c17.5814209-9.7276001,34.9092407-20.805481,34.9092407-20.805481
			s-12.0283813-12.6826782-14.3554077-17.3363037c-5.3064575-10.6124878-4.8706055-27.8348389-5.3397827-33.572998
			c-0.9101563-11.1238403-0.7859497-33.8135376-14.1327515-34.5942993
			C943.2584229,855.3638916,930.9492798,859.7859497,925.2139893,863.1970825z"/>
		<path class="st12" d="M897.335022,883.0239258c0,0-20.2280884,12.6733398-23.8856812,15.2585449
			c-7.5805664-6.7476196-9.1445923-9.8034668-15.3228149-17.1013794
			c-7.3204346-8.6472778-10.0172729-9.9075928-10.4258423-15.2857666c-0.3066406-4.0345459,0.4423218-7.7315063-2.2244873-7.2093506
			c-2.7600708,0.5404053-1.3479614,5.921875-3.3004761,9.607605c-0.5460205,1.0301514-4.935791,0.0787354-11.1524048-2.1972046
			c-4.0827637-1.4946289-7.2584839-4.2590332-11.0829468-2.0115967c-3.8250732,2.2478027-1.2369995,8.5979614,3.2183228,11.3511353
			c2.1508179,1.3291016,8.0900269,2.9452515,12.6063232,3.7363892c3.6641846,0.6416016,7.6143799,1.0578003,8.8511353,2.9503784
			c2.5318604,3.8741455,6.1135864,10.9072876,13.0084229,22.6643066c2.3110962,3.9411621,7.3865356,10.9592896,9.2537842,11.6674805
			c3.8891602,1.4749756,4.9619751,2.9503784,10.5946655,1.4749756c7.4666138-1.9553833,15.630249-7.4259033,27.5592651-15.6237183
			C910.8533936,898.305481,897.335022,883.0239258,897.335022,883.0239258z"/>
		<path class="st23" d="M923.430603,868.9431763c-3.8081055-2.1409912-9.6637573-0.4813232-14.1740112,2.5848389
			c-4.5101929,3.0661011-26.9561157,19.0117188-26.9561157,19.0117188s-1.8583374,4.859436,2.2862549,12.6377563
			c3.3684692,6.321228,9.0718994,8.5830688,9.0718994,8.5830688s18.4470825-6.3797607,27.1314087-14.2157593
			c2.946167-2.6583862,7.5917969-7.9367065,8.5680542-11.9356689
			C931.2595825,877.8219604,928.2355957,871.6442261,923.430603,868.9431763z"/>
		<path class="st14" d="M916.9008789,816.1417847c-2.5431519,0.72229-6.8395996-0.1757202-10.0580444,3.2644043
			c-3.2189331,3.4401855-1.6094971,5.4517212-3.6210938,7.4633789s-4.4257813,3.0966187-4.4257813,3.0966187
			s2.3649902,3.7776489,6.0352783,4.5476685c3.6697998,0.7700806,8.4485474,0,8.4485474,0s-1.0610962,7.147522,3.0844116,11.1308594
			c3.755127,3.6079712,10.0561523,2.1306763,11.802002,8.3150024c0.9383545,3.3253174-1.3413696,6.7055054-7.5692749,8.4368286
			c-5.3964844,1.5003052-3.2939453,7.3879395-4.0982056,11.4641113c-0.6392822,3.2371216-6.1693115,2.4137573-6.1693115,2.4137573
			s1.3619995,3.2728271,5.7668457,3.7021484c5.4984741,0.5366211,4.1257324-2.840271,6.8394165-4.6386108
			s4.9620972,0.8839111,4.8279419,8.1256104c-0.0993652,5.3669434,1.8892822,12.6063232,10.0580444,13.1424561
			c6.7879639,0.4457397,5.6326904-4.5593872,5.6326904-4.5593872s-5.9007568,2.5477905-4.9620361-3.3529663
			c0.8432007-5.2985229,5.0014038-3.0206909,8.9341431-9.1853638c2.0626831-3.2338867,1.5771484-7.3129883,1.5771484-7.3129883
			s5.7161255,5.5015259,9.7393188,3.1426392c4.0592651-2.3800049,6.2893066-2.2019043,8.7171021,0.34729
			c2.682312,2.8163452-1.4754028,7.107666-1.4754028,7.107666s5.892334-1.1089478,7.630188-5.4588013
			c1.6235352-4.0626221,0.3927612-9.0250854-4.947937-10.3659668c-2.7591553-0.692749-6.3028564-1.0728149-6.7055054-4.2913208
			c-0.4020996-3.2189331,3.9744873-8.0619507,3.4870605-12.7402954c-0.6707153-6.437439-6.0437012-9.1084595-9.5218506-10.1925659
			c-6.8394165-2.1315918-0.9386597-13.1438599-11.8015747-24.2738647
			C935.0334473,806.1550293,918.2417603,810.9107666,916.9008789,816.1417847z"/>
		<path class="st12" d="M926.1367798,772.9620972c0,0-3.1461792-3.7728882-4.7407227-7.1306763
			c-1.5944824-3.357605-2.1063232-5.65979-3.8966675-4.1248169c-1.7908936,1.5349121-0.7869263,2.9419556,0.2554321,6.1102905
			c0.892334,2.7113037,2.5669556,7.7844238,4.097229,10.0462646c1.5307617,2.2619019,3.5429077,8.8984985,3.5429077,8.8984985
			S927.3596191,776.5438232,926.1367798,772.9620972z"/>
	</g>
	<polygon class="st9" points="589.5499268,733.5664063 581.6412964,739.6856079 570.3897705,728.0481567 557.7224731,735.5688477 
		547.8786621,728.2365112 544.1665039,733.2195435 557.3325806,743.0270996 569.3366089,735.899292 581.0419922,748.0057983 
		592.9428101,738.7977905 	"/>
	<polygon class="st27" points="822.2628784,963.7838745 814.9625854,970.927002 818.4243774,980.7510376 809.6740112,988.1790161 
		816.5880737,997.5056763 807.0631104,1006.3425293 812.3705444,1015.7156372 804.5961304,1025.7160645 800.8111572,1022.7737427 
		806.6237183,1015.2963867 801.0233154,1005.4055786 810.1791992,996.9111938 803.1495361,987.4282837 812.8057251,979.2316284 
		809.4251099,969.6381836 816.1917114,963.0169678 812.6538696,957.1815796 816.7539063,954.6956787 	"/>
	<polygon class="st16" points="1138.0998535,935.9321899 1139.2796631,946.0775146 1149.1671143,949.3535156 
		1149.6846924,960.8197632 1161.2921143,961.0615234 1162.4494629,974.0026855 1173.1102295,975.5432739 1176.2593994,987.8125 
		1171.6157227,989.0044556 1169.2608643,979.8309937 1158.0115967,978.2052612 1156.8989258,965.7655029 1145.097168,965.5195923 
		1144.5263672,952.8664551 1134.8708496,949.6674194 1133.7770996,940.2636108 1126.9970703,939.4892578 1127.5410156,934.7254028 	
		"/>
	<polygon class="st13" points="525.4278564,645.9762573 533.3035889,645.0230713 536.2372437,657.526001 547.9244995,657.5526733 
		551.6497192,666.5501099 556.2042847,664.6643066 551.2224121,652.6304932 540.1466064,652.6052856 537.0945435,639.5985107 
		525.2432861,641.0330811 	"/>
	<polygon class="st9" points="868.9249268,1016.99646 874.6426392,1019.3209229 871.9190063,1028.934082 879.8598633,1033.3637695 
		878.9979248,1040.8908691 882.8082275,1041.3272705 883.9614258,1031.2600098 876.4359741,1027.0621338 879.2692871,1017.0615234 
		870.6652832,1013.5639648 	"/>
	<polygon class="st9" points="1140.2709961,680.7189331 1141.2749023,672.8494873 1154.1154785,673.0657349 
		1157.0023193,661.7406006 1166.6379395,660.3312378 1165.9244385,655.4536133 1153.0372314,657.3380737 1150.3015137,668.0707397 
		1136.9433594,667.8459473 1135.4331055,679.6878052 	"/>
	<g>
		<path class="st28" d="M999.7745972,627.194397l-3.2922363-1.847168c-0.2993164-0.1966553-0.6101074-0.3724976-0.9345703-0.5241089
			l-0.0206299-0.0115967l-0.0012207,0.0006104c-2.0299683-0.9404297-4.4894409-0.9801025-6.7025146,0.2975464
			l-95.2371826,55.0062866c-9.4952393,5.4821777-15.3443604,15.6134644-15.3443604,26.5773926v10.6165161
			c0,2.4641113,1.1699829,4.5221558,2.8935547,5.8208618v0.0006104l0.0074463,0.0042114
			c0.4473267,0.3362427,0.9343872,0.6157837,1.4454956,0.8433228l3.140564,1.8320923l3.4640503-2.1783447l4.8535767-2.8023682
			v21.041687l3.7993164,2.1583252l3.3479614-13.1888428l-1.6289063,0.4874268l10.2631226-19.6100464l74.6019897-43.0922852
			c9.4954224-5.4821777,15.3445435-15.6136475,15.3445435-26.5776367v-10.6160889
			c0-0.9634399-0.1896973-1.8589478-0.510498-2.6772461L999.7745972,627.194397z"/>
		<path class="st9" d="M992.6221313,627.2681274L897.385498,682.274292
			c-9.4954224,5.4821777-15.3449707,15.6132202-15.3449707,26.5778198v10.6160889
			c0,5.6201172,6.0841675,9.1326904,10.9517822,6.3225098l4.8535767-2.802124v21.041687l15.7814941-30.1531372
			l74.6015625-43.0922852c9.4954224-5.4824219,15.3447266-15.6134644,15.3447266-26.5778198v-10.6160889
			C1003.5736694,627.9705811,997.4897461,624.4580078,992.6221313,627.2681274z"/>
		<g>
			<g>
				<path class="st1" d="M902.9285889,691.9178467c1.3328247-0.7695313,2.3886108-1.0331421,3.1655884-0.791748
					c0.7994995,0.2304688,1.2017822,0.9042969,1.204895,2.0203857c0.0018311,0.6289673-0.1478271,1.2594604-0.4471436,1.8902588
					c-0.2993164,0.6328125-0.666748,1.1809082-1.102356,1.6464233c0.5898438-0.088562,1.0670776,0.0339355,1.4283447,0.373291
					c0.3629761,0.3364868,0.5455933,0.8891602,0.5477295,1.6538696c0.0032959,1.1681519-0.4317627,2.413269-1.3035278,3.7346191
					c-0.8613892,1.2893677-2.0454102,2.3689575-3.5537109,3.2398071c-1.6612549,0.9591064-3.0438843,1.3493652-4.1496582,1.1697388
					l-0.0074463-2.6377563c0.5032959,0.1134033,1.1054688,0.0877686,1.8064575-0.0709229
					c0.6992798-0.1577759,1.3720703-0.4241333,2.0167847-0.7963867c0.8740845-0.5045776,1.5530396-1.0666504,2.0386353-1.6869507
					c0.4855957-0.6184692,0.7275391-1.2300415,0.7258301-1.8331299c-0.0014648-0.5271606-0.2198486-0.8071289-0.6516113-0.8399048
					c-0.4317627-0.034668-1.0316772,0.1696777-1.7962646,0.611084l-1.4422607,0.8327026l-0.0064697-2.2782593l1.7220459-0.9942627
					c1.2338257-0.7123413,1.8493042-1.5516357,1.8465576-2.5180664c-0.0012817-0.43927-0.1933594-0.6703491-0.576355-0.6952515
					c-0.3829956-0.0248413-0.9081421,0.15625-1.5736694,0.5405273c-1.3223877,0.7634888-2.5447998,1.7972412-3.6690063,3.0983276
					l-0.0070801-2.5039673C900.203064,693.8173828,901.4636841,692.7635498,902.9285889,691.9178467z"/>
			</g>
			<g>
				<path class="st1" d="M915.5657349,684.8096924l4.9535522,10.4202881l-2.5075073,1.4477539l-1.1381836-2.3989258
					l-4.8516846,2.8010864l-1.1225586,3.7041626l-2.4744873,1.4286499l4.8783569-16.0967407L915.5657349,684.8096924z
					 M912.7523804,694.4141235l3.3607178-1.9403076l-1.6846313-3.6113892L912.7523804,694.4141235"/>
			</g>
			<g>
				<polygon class="st1" points="931.8899536,675.4609375 931.9273682,688.6435547 929.5831909,689.9969482 
					929.5667725,684.2143555 924.3884277,687.2041016 924.4048462,692.9866943 922.0432129,694.3501587 922.0058594,681.1675415 
					924.3674316,679.8040771 924.3814697,684.7380371 929.5597534,681.748291 929.5457764,676.8143921 				"/>
			</g>
			<g>
				<path class="st1" d="M938.5922852,671.5913696l5.3104858-3.065979l0.0373535,13.1825562l-2.3598022,1.3624878
					l-0.0151367-5.3293457l-2.000061,1.1547241l-3.3612671,7.2786865l-2.7195435,1.5701294l3.5723877-7.7026978
					c-0.7548828,0.171875-1.3435059,0.0557251-1.7658691-0.3483887c-0.4223633-0.4041748-0.6348267-1.0455322-0.6373291-1.9241333
					c-0.0032349-1.1541138,0.3486328-2.2952271,1.057312-3.4204102
					C936.4090576,673.2158203,937.3689575,672.2976685,938.5922852,671.5913696z M941.5587158,675.4606934l-0.0090942-3.2007446
					l-2.8185425,1.6272583c-0.5351563,0.309021-0.9535522,0.692627-1.253418,1.147644
					c-0.2998047,0.4571533-0.4481812,0.9347534-0.4467163,1.4379272c0.0014648,0.5152588,0.1520386,0.8242188,0.4534302,0.9262695
					c0.3014526,0.1020508,0.7205811-0.0020752,1.2557983-0.3110352L941.5587158,675.4606934"/>
			</g>
			<g>
				<polygon class="st1" points="955.293396,661.9489746 955.300293,664.3770142 951.6615601,666.4778442 951.6920166,677.2324219 
					949.3322144,678.5948486 949.3017578,667.840271 945.6803589,669.9310913 945.6734619,667.5030518 				"/>
			</g>
			<g>
				<polygon class="st1" points="966.9951172,655.1929932 967.0325317,668.3755493 964.6883545,669.7289429 964.6638794,661.085022 
					959.0668945,672.9745483 957.0841675,674.1192627 957.0467529,660.9366455 959.4065552,659.5742188 959.4309082,668.1602173 
					964.9637451,656.3657837 				"/>
			</g>
			<g>
				<polygon class="st1" points="977.960083,648.8623657 977.96698,651.2904053 971.9024048,654.7918091 971.9096069,657.3356323 
					976.7942505,654.5154419 976.8010254,656.9055786 971.9163818,659.725708 971.9259644,663.116272 978.1712646,659.5105591 
					978.1781616,661.9406128 969.572998,666.9088135 969.5356445,653.7261963 				"/>
			</g>
			<g>
				<polygon class="st1" points="988.0231934,643.0524292 988.0605469,656.2350464 985.7493286,657.569397 985.7202148,647.2860718 
					983.2983398,650.0982666 983.2908325,647.4445801 985.9744263,644.2352905 				"/>
			</g>
		</g>
	</g>
	<g>
		<path class="st23" d="M957.5646362,781.0020752c1.5423584,2.0202026,3.6563721,7.8082886,7.0640259,12.3530884
			c1.9934692,2.6583252,4.0498047,2.6235352,7.1470337,3.8088379c14.6951294,5.6231689,9.8137817,7.6931152,11.5549316,8.4520264
			c-0.8132324,1.0585938-8.0452881,9.9126587-9.4348145,11.7201538c-1.2819824,1.6674805-2.8980103,2.15271-4.8659058,1.3607788
			c-3.0252075-1.2172852-6.1066895-2.3307495-9.0241699-3.7715454c-7.479187-3.6938477-10.8901978-8.7503052-15.3560181-14.97229
			c-1.1847534-1.6507568-1.1574707-3.3330078,0.072876-4.939209
			C950.4484863,787.5386963,956.9777222,781.6750488,957.5646362,781.0020752z"/>
		<path class="st25" d="M981.9519653,818.0987549c-0.8945313,3.2852783-0.8074341,4.0111084-2.1002197,3.1555176
			c-0.7783203-0.5151367-1.5072021-1.1149292-2.2089844-1.7327881c-0.4954224-0.4360352-0.4205322-0.8286743,0.1577148-1.1772461
			c0.8418579-0.5071411,1.6970825-0.9922485,2.5341797-1.4796143c-0.1685791-1.4181519,0.772644-2.7844238,2.161499-3.1901855
			c0.2835693-0.0830078,0.026001,0.1789551,3.3515625-4.1497192c-6.7628174-2.6071167-11.5422974-4.4169312-19.7940063-7.5938721
			c-2.2062378-0.8493652-4.0093384-2.2409058-5.4014282-4.1543579c-4.8081055-6.6094971-9.6155396-13.2192993-14.4176025-19.8330688
			c-0.6513672-0.8970947-0.5024414-1.9356079,0.3467407-2.5510254c0.6495972-0.4709473,1.3204346-0.333252,2.0109253-0.0655518
			c1.8825684,0.7299194,20.3411865,7.8634644,22.2184448,8.5734253c2.4674683,0.9329834,4.4655762,2.4501343,6.019104,4.5874634
			c4.7223511,6.4974365,9.4645996,12.9806519,14.1967773,19.4710083c0.649353,0.8905029,0.7141724,1.5750122,0.2354736,2.2650146
			c-0.5262451,0.7580566-1.3179321,0.9841309-2.3069458,0.4969482c-0.7142334-0.3518066-1.1047974-0.2075195-1.5393677,0.4262085
			c-1.9638062,2.8650513-2.9570923,3.359436-2.9630127,4.583374
			C984.4486084,816.6750488,983.0048828,817.951355,981.9519653,818.0987549z"/>
	</g>
	<polygon class="st16" points="1222.7954102,688.3856812 1225.0616455,698.6367798 1208.4577637,692.9385986 	"/>
	<polygon class="st27" points="753.2929688,644.2680664 767.4810791,640.0258789 761.9755859,662.5340576 	"/>
	<polygon class="st9" points="1228.9591064,916.6512451 1230.8769531,931.3352661 1209.5394287,922.3000488 	"/>
	<path class="st5" d="M1089.4597168,831.5467529c3.0646973,1.7385254,5.8026123,4.1259766,7.6723633,6.5700073
		c3.362793,4.3956909,5.0085449,9.4057007,5.2889404,14.5214233"/>
	<polygon class="st16" points="586.076416,868.4822388 581.6547241,854.3490601 604.230896,859.5687256 	"/>
	<g>
		<path class="st11" d="M1160.8138428,804.480957c0,0,3.9661865-17.0829468,14.321167-19.6611938
			c10.6447754-2.6503906,32.0284424-10.7026978,38.776001-9.5929565c3.3868408,0.5564575,4.4016113-1.4661865,8.9575195,1.0296021
			c2.9737549,1.6287842,2.0109863,5.960144,5.0319824,11.7463989c3.6271973,6.9470215,3.0758057,27.2468262,3.0758057,27.2468262
			l-17.0924072,4.039978L1160.8138428,804.480957z"/>
		<path class="st12" d="M1332.880127,738.0269775c0,0-2.3745117-3.9065552-4.1817627-7.0422363
			c-1.487915-2.5811157-7.1220703-11.3314209-10.4575195-16.892395c0.5352783,0.1102295,1.0986328,0.1396484,1.7145996-0.0209351
			c7.0009766-1.8252563,15.5603027-9.2905273,19.5767822-10.6148682c4.015625-1.3244019,11.3955078-5.2362061,15.8203125-0.6781616
			c-2.4869385,0.80896-5.0506592,1.5006714-7.2523193,2.3051758c-6.2679443,2.2910767-11.493042,5.4417725-10.5456543,8.2935181
			c0.947998,2.8518066,11.2019043,15.8381348,11.2019043,15.8381348L1332.880127,738.0269775z"/>
		<path class="st10" d="M1238.7645264,821.3991699l10.3444824-16.1142578c0,0,4.4749756-5.6061401,18.4219971-9.4832764
			c10.5112305-2.9221191,16.9277344-0.1835938,25.4884033,1.088562c4.3480225,0.6461182,15.2783203-5.6365967,30.963623-10.8195801
			c15.6856689-5.1834106,34.791748-6.7800293,34.791748-6.7800293s-4.875-8.6658325-20.1844482-32.3306885
			c-5.4161377-8.371582-8.9078369-14.0317383-11.5087891-18.6378174c7.9665527-0.3308716,12.5053711-1.7796631,15.0170898-7.8757324
			c5.1387939,5.9276123,16.8613281,18.7595215,21.1842041,24.1203003
			c9.4875488,11.7654419,18.1049805,21.9720459,24.8547363,31.9486084c4.2653809,6.3049316,5.588623,11.12677,4.9102783,18.3705444
			c-0.3659668,3.9089355-5.5311279,9.7067261-14.3486328,14.8186646
			c-4.2548828,2.4674072-19.9206543,9.8431396-40.1293945,16.6541138
			c-22.7797852,7.6778564-46.9777832,13.3573608-60.5467529,15.6923218
			c-13.569458,2.3353882-53.4382324,1.4379272-53.4382324,1.4379272L1238.7645264,821.3991699z"/>
		<path class="st12" d="M1333.3248291,788.1199951c0,0-2.3747559-3.9067993-4.1817627-7.0421753
			c-1.487793-2.5817871-7.1220703-11.3320313-10.4575195-16.892395c0.5357666,0.1099854,1.098999,0.1394043,1.7145996-0.0215454
			c7.0013428-1.8249512,15.5603027-9.289917,19.5767822-10.6148682c4.0157471-1.3244629,11.3956299-5.2362671,15.8206787-0.6778564
			c-2.4871826,0.8085938-5.0512695,1.5006104-7.2526855,2.305481c-6.2679443,2.2905273-11.4929199,5.4411621-10.5452881,8.2932129
			c0.9473877,2.8517456,11.2012939,15.8380737,11.2012939,15.8380737L1333.3248291,788.1199951z"/>
		<g>
			<path class="st13" d="M1316.914917,761.1315308c-1.4315186-2.624939-2.9359131-4.1548462-3.3881836-5.7297363
				c0.6746826,1.1390991,5.1722412,1.2314453,10.4012451-1.7940063c5.2939453-3.0628662,12.5906982-7.1506348,15.9121094-8.6627808
				c3.3212891-1.5115356,12.6488037-2.2442627,21.2606201-0.7384033c4.1046143,0.7175903,6.8930664,0.5366821,8.9313965-0.2321167
				c-0.3635254,0.7142334-0.7891846,1.3865356-1.2296143,1.9794922c-2.4180908,3.2553101-8.411377,5.4230347-13.0048828,6.9171753
				c-4.4250488-4.5584106-11.8049316-0.6466064-15.8206787,0.6778564
				c-4.0164795,1.3249512-12.5754395,8.789917-19.5767822,10.6148682c-0.6156006,0.1609497-1.178833,0.1315308-1.7145996,0.0215454
				C1317.9697266,762.9918823,1317.3547363,761.9378052,1316.914917,761.1315308z"/>
			
				<linearGradient id="SVGID_1_" gradientUnits="userSpaceOnUse" x1="1232.2543945" y1="911.4616089" x2="1289.2979736" y2="911.4616089" gradientTransform="matrix(-0.7860427 0.6181722 0.6181722 0.7860427 1769.6542969 -748.0426025)">
				<stop  offset="0" style="stop-color:#EA3AFE"/>
				<stop  offset="0.994819" style="stop-color:#FB67FD"/>
			</linearGradient>
			<path class="st29" d="M1361.100708,744.206604c-8.6118164-1.5058594-17.9393311-0.7731323-21.2606201,0.7384033
				c-3.3214111,1.512146-10.6181641,5.5999146-15.9121094,8.6627808c-5.2290039,3.0254517-9.7265625,2.9331055-10.4012451,1.7940063
				c-0.3338623-1.1624146-0.1112061-2.348877,1.222168-4.0202637c3.1400146-3.9370117,8.6782227-3.890625,12.3374023-5.3012085
				c3.6588135-1.4103394,6.243042-4.5044556,14.5648193-8.8482056c8.3216553-4.3433838,15.513916-5.2697754,23.644165-2.8605347
				c6.6940918,1.9837036,6.4296875,6.2738647,4.7368164,9.6029053
				C1367.9937744,744.7432861,1365.2053223,744.9241943,1361.100708,744.206604z"/>
			<path class="st26" d="M1361.100708,744.206604c-8.6118164-1.5058594-15.8809814,1.2019043-19.4578857,1.9244995
				c-4.4553223,0.8999634-12.4208984,4.4138184-17.7148438,7.4766846
				c-5.2290039,3.0254517-9.7265625,2.9331055-10.4012451,1.7940063c-0.3338623-1.1624146-0.1112061-2.348877,1.222168-4.0202637
				c3.1400146-3.9370117,8.6782227-3.890625,12.3374023-5.3012085c3.6588135-1.4103394,6.243042-4.5044556,14.5648193-8.8482056
				c8.3216553-4.3433838,15.513916-5.2697754,23.644165-2.8605347c6.6940918,1.9837036,6.4296875,6.2738647,4.7368164,9.6029053
				C1367.9937744,744.7432861,1365.2053223,744.9241943,1361.100708,744.206604z"/>
		</g>
		<path class="st15" d="M1225.5762939,834.1572266c6.3977051-17.1359863,8.1966553-22.5854492,8.1966553-22.5854492
			s11.4788818-4.9926758,32.1424561-4.3701172c8.4432373,0.2539063,21.454834,8.0618286,24.9920654,10.7900391
			c8.1739502,6.3044434,19.4176025,3.663147,38.5319824,4.6858521c19.1137695,1.0231323,32.7824707,6.3545532,32.7824707,6.3545532
			s-7.8995361-7.6705933-19.3103027-25.2537231c-6.3825684-9.8356323-12.6531982-19.557373-15.8079834-26.043396
			c9.3103027-0.7583618,15.1523438-7.4740601,15.1790771-7.5556641
			c5.6054688,5.5076904,17.2369385,18.3370972,26.8485107,28.1100464
			c13.0950928,13.3153076,18.9073486,20.8934326,24.2924805,31.2391357
			c1.9868164,3.8168335,1.6850586,8.9147339-0.4552002,14.1132813c-1.3887939,3.3727417-4.3126221,6.0250854-8.8039551,9.1240234
			c-11.4130859,7.8751831-49.8891602,13.6505127-75.7322998,13.0667114
			c-25.8435059-0.5835571-61.7352295-4.8190918-61.7352295-4.8190918S1219.1787109,851.2930908,1225.5762939,834.1572266z"/>
		<g>
			<polygon class="st30" points="1188.2111816,795.1522217 1194.7906494,771.3447876 1223.6605225,776.1112671 
				1218.4996338,796.7607422 			"/>
			<polygon class="st25" points="1189.1258545,798.8615723 1195.7045898,775.0539551 1224.5751953,779.8205566 
				1219.4143066,800.4700928 			"/>
			<polygon class="st31" points="1195.7045898,775.0539551 1194.7906494,771.3447876 1223.6605225,776.1112671 
				1224.5751953,779.8205566 			"/>
			<polygon class="st1" points="1196.0443115,772.3607788 1196.7346191,774.3128662 1224.3265381,778.8121948 
				1223.8624268,776.9299316 			"/>
		</g>
		<g>
			<polygon class="st30" points="1192.3762207,798.8878174 1203.6937256,776.9331055 1230.9748535,787.5137939 
				1221.6923828,806.6676636 			"/>
			<polygon class="st25" points="1192.5114746,802.7055664 1203.8287354,780.7510376 1231.1097412,791.3317871 
				1221.8272705,810.4857178 			"/>
			<polygon class="st31" points="1203.8287354,780.7510376 1203.6937256,776.9331055 1230.9748535,787.5137939 
				1231.1097412,791.3317871 			"/>
			<polygon class="st1" points="1204.7126465,778.1848145 1204.9882813,780.2366943 1231.0732422,790.2940063 
				1231.0047607,788.3565674 			"/>
		</g>
		<path class="st13" d="M1154.8651123,824.2925415l-9.5395508,11.4074097c0,0,6.4897461,7.8879395,15.8643799,10.4196167
			c9.3743896,2.5313721,9.4681396,10.7961426,9.4681396,10.7961426s12.3431396,6.663269,18.9560547,4.9963989
			c4.0379639-1.0180664,10.7835693-5.1524048,15.852417-6.2491455c9.583252-2.0734863,12.1854248-0.1743774,21.2657471,1.0604858
			c7.182373,0.9763794,19.9647217,4.289978,19.9647217,4.289978s-6.3771973-18.6437988-1.2752686-36.9609985
			c3.9370117-14.1347656,17.3282471-26.3799438,17.3282471-26.3799438s-13.5922852,3.4592285-25.2880859,5.0639038
			c-8.9388428,1.2268066-22.2329102-1.2897949-26.9708252-2.5783081c-21.2373047-5.7770386-23.0594482-7.633606-35.831665-4.9844971
			C1161.887085,797.8220825,1154.8651123,824.2925415,1154.8651123,824.2925415z"/>
		<path class="st12" d="M1121.9404297,796.7260742c-2.5327148,6.475708-2.9793701,11.8812866,5.7624512,22.3608398
			c8.8198242,10.5726929,13.019043,10.0701904,15.9163818,9.2646484c1.5986328-0.4448853,4.932251-2.2852173,4.932251-2.2852173
			s9.5666504,9.4778442,13.2093506,10.5366821c2.2298584,0.6480713,7.1584473-2.9640503,10.6052246-9.0776978
			c3.4462891-6.1134033,1.9355469-7.8969116,1.9355469-7.8969116s-8.8265381-5.5831909-13.1700439-11.7922363
			c-5.3857422-7.6984863-6.6209717-13.37323-13.6604004-19.1712036
			C1139.8084717,782.3531494,1126.3775635,785.3829346,1121.9404297,796.7260742z"/>
		<path class="st12" d="M1150.293457,837.5431519c-10.3928223,0.8520508-26.9914551,11.503418-36.9400635,13.7959595
			c-12.2857666-0.0890503-41.611084-4.2310791-54.772583-7.5198364c-5.925293-1.4807129-8.0496826-3.3984375-11.0578613-8.7407227
			c-0.7877197-1.3991089,0.0874023-8.0673828-3.5091553-4.0012207c-2.5274658,2.8571167,0.1518555,10.4354858,0.1518555,10.4354858
			s-5.1184082,0.0923462-8.9313965-0.6306152c-3.8710938-0.7341919-9.9069824-1.2751465-11.5720215,0.9778442
			c-1.1574097,1.5656738-0.1877441,4.157959,2.168457,6.7301025c2.7215576,2.9703369,7.6317139,5.9082642,18.7346191,7.1361694
			c4.6828613,0.5182495,9.9775391-0.4138794,15.6561279,1.3411255c17.7866211,5.494812,32.2619629,12.4005737,51.078125,13.0516968
			c0.0072021,0.0145264,0.0118408,0.0310669,0.019043,0.0455933c0.421875,0.0194702,0.8635254-0.0082397,1.2873535,0.0048218
			c0.6929932,0.0130615,1.3458252,0.0837402,2.0511475,0.0792847c-0.0101318-0.0241699-0.0169678-0.0473022-0.0270996-0.0714111
			c3.21875,0.0142212,6.4987793-0.1141968,9.986084-0.6379395c21.3654785-3.2071533,47.9173584-9.4395142,47.9173584-9.4395142
			c5.8967285-2.4370117,9.0819092-5.9318848,6.8300781-9.0394287
			C1172.6062012,841.7369995,1158.894165,836.8377686,1150.293457,837.5431519z"/>
		<path class="st9" d="M1118.100708,806.9232178c3.2211914,3.7279663,10.2332764,2.6972046,12.2976074,5.788269
			c2.064209,3.0910034,4.1972656,5.5789185,8.3168945,6.4794922c9.6195068,2.1026611,10.3846436,10.2820435,9.3734131,12.750061
			c-1.8847656,4.5999756-6.6693115,5.9781494-6.6693115,5.9781494s5.1987305,2.5144653,8.8741455-0.3760376
			c3.675415-2.8904419,4.8151855-5.0709229,4.8151855-5.0709229s0.166748,8.3488159,4.6201172,10.305481
			c4.453125,1.9562988,11.3037109-2.7003784,14.338501-2.2900391c6.5671387,0.8879395,7.581543,6.1421509,7.581543,6.1421509
			s1.6412354-5.8417969,0.5541992-9.7892456c-1.0378418-3.7687378-5.5568848-5.9001465-5.5568848-5.9001465
			s6.3918457,0.5492554,8.8649902-2.0202637c3.6339111-3.7746582,3.2442627-5.6691895,3.2442627-5.6691895
			s-5.9853516,4.1497192-10.4780273,1.0670776c-1.2508545-0.8583374-0.7017822-3.9689331,2.3892822-4.8892822
			c8.4276123-2.5100098,6.4486084-5.1873779,9.2020264-5.4899292c2.2220459-0.2435303,5.3128662,2.7912598,5.3128662,2.7912598
			s-0.1381836-3.8130493-2.9177246-6.508606c-3.8641357-3.7469482-12.9150391-1.0308228-12.9150391-1.0308228
			s5.6950684-2.0449219,5.3652344-6.2367554c-0.28479-3.6270752-2.8825684-4.3477173-3.3936768-6.8805542
			c-1.3288574-6.5887451,10.2648926-5.1378784,10.2648926-5.1378784s-4.5389404-5.7714233-13.4450684-2.5446777
			c-2.7709961,1.0038452-4.6688232,4.697876-7.7896729,5.1610718c-10.3178711,1.5299683-13.223877-12.6828003-22.5048828-16.2567139
			c-10.3325195-3.9786987-17.3494873,4.2908936-17.3494873,4.2908936s-5.7770996,0.2091675-9.8242188,3.8744507
			C1112.9790039,792.4273071,1113.0998535,801.135437,1118.100708,806.9232178z"/>
		<g>
			<path class="st13" d="M1316.4700928,711.0390625c-1.4313965-2.6254883-2.9355469-4.1550903-3.3878174-5.7299805
				c0.6743164,1.1394043,5.1716309,1.2313232,10.4005127-1.7940674c5.2939453-3.0628662,12.5911865-7.1509399,15.9124756-8.6624146
				c3.3212891-1.5115356,12.6484375-2.2445679,21.2611084-0.7387085c4.104126,0.7178955,6.8922119,0.5366211,8.9309082-0.2324829
				c-0.3631592,0.7145996-0.7890625,1.3865356-1.2296143,1.9801636c-2.4180908,3.2546387-8.4116211,5.4226074-13.005127,6.9168091
				c-4.4248047-4.5580444-11.8046875-0.6462402-15.8203125,0.6781616
				c-4.0164795,1.3243408-12.5758057,8.7896118-19.5767822,10.6148682
				c-0.6159668,0.1605835-1.1793213,0.1311646-1.7145996,0.0209351
				C1317.5253906,712.8991699,1316.9095459,711.8449707,1316.4700928,711.0390625z"/>
			
				<linearGradient id="SVGID_2_" gradientUnits="userSpaceOnUse" x1="1201.6381836" y1="871.8114624" x2="1258.6813965" y2="871.8114624" gradientTransform="matrix(-0.7860427 0.6181722 0.6181722 0.7860427 1769.6542969 -748.0426025)">
				<stop  offset="0" style="stop-color:#EA3AFE"/>
				<stop  offset="0.994819" style="stop-color:#FB67FD"/>
			</linearGradient>
			<path class="st32" d="M1360.6563721,694.1138916c-8.6126709-1.5058594-17.9398193-0.7728271-21.2611084,0.7387085
				c-3.3212891,1.5114746-10.6185303,5.5995483-15.9124756,8.6624146
				c-5.2288818,3.0253906-9.7261963,2.9334717-10.4005127,1.7940674c-0.3344727-1.1625366-0.1114502-2.3485718,1.2219238-4.0206299
				c3.1398926-3.9364014,8.6778564-3.8903198,12.3372803-5.3005981c3.6591797-1.4105835,6.243042-4.5050659,14.5645752-8.8485107
				c8.3220215-4.343689,15.513916-5.2697754,23.644165-2.8605347c6.6943359,1.9840698,6.4302979,6.2739258,4.7370605,9.6026001
				C1367.548584,694.6505127,1364.760498,694.8317871,1360.6563721,694.1138916z"/>
			<path class="st26" d="M1360.6563721,694.1138916c-8.6126709-1.5058594-15.8814697,1.2015381-19.4587402,1.9244385
				c-4.4549561,0.9003296-12.4208984,4.4138184-17.7148438,7.4766846
				c-5.2288818,3.0253906-9.7261963,2.9334717-10.4005127,1.7940674c-0.3344727-1.1625366-0.1114502-2.3485718,1.2219238-4.0206299
				c3.1398926-3.9364014,8.6778564-3.8903198,12.3372803-5.3005981c3.6591797-1.4105835,6.243042-4.5050659,14.5645752-8.8485107
				c8.3220215-4.343689,15.513916-5.2697754,23.644165-2.8605347c6.6943359,1.9840698,6.4302979,6.2739258,4.7370605,9.6026001
				C1367.548584,694.6505127,1364.760498,694.8317871,1360.6563721,694.1138916z"/>
		</g>
		<path class="st26" d="M1230.748291,822.635498c0,0-1.5526123,9.9160156-2.3890381,17.0007324
			c-0.8363037,7.0853271-3.098999,10.586731-3.098999,10.586731s-1.3446045-5.0931396-0.3658447-11.6112671
			C1226.5975342,827.2676392,1230.748291,822.635498,1230.748291,822.635498z"/>
		<path class="st26" d="M1222.3503418,829.2399292c0,0-2.5220947,6.3562622-5.2528076,10.6036987
			c-2.7313232,4.2473145-5.9284668,6.4116821-5.9284668,6.4116821s1.9484863-4.507019,4.3979492-8.3579102
			C1218.0161133,834.0460815,1222.3503418,829.2399292,1222.3503418,829.2399292z"/>
		<path class="st31" d="M1125.3687744,818.305603c3.9824219,3.3592529,10.2122803,6.7437134,15.1488037,6.8052368
			c5.5583496-0.8186035,8.7404785-7.0783081,4.7299805-12.1778564c-4.010376-5.0995483-11.7695313-8.5849609-17.3308105-7.7856445
			C1122.3554688,805.9473877,1121.3325195,813.2268677,1125.3687744,818.305603z"/>
		<path class="st25" d="M1125.3687744,818.305603c3.5606689,4.4800415,10.3178711,7.5163574,15.1488037,6.8052368
			c4.8581543-0.715332,5.9595947-4.8788452,2.4541016-9.3362427c-3.5054932-4.4574585-10.2875977-7.5044556-15.1484375-6.8053589
			C1122.9624023,809.6681519,1121.8405762,813.8660889,1125.3687744,818.305603z"/>
		<path class="st30" d="M1126.9279785,819.4924927c2.5977783,3.2686157,7.5275879,5.4841309,11.0522461,4.9648438
			c3.5445557-0.5219116,4.3477783-3.5595093,1.7904053-6.8112793c-2.5574951-3.2520752-7.5056152-5.4750977-11.0517578-4.9650269
			C1125.1719971,813.190979,1124.3538818,816.2540283,1126.9279785,819.4924927z"/>
		<g>
			<path class="st25" d="M1126.376709,785.6432495c-1.487793,5.5535278-2.0510254,8.2402344-4.7978516,8.8709106
				c-1.0256348,0.2355957-1.7624512-0.0856934-2.246582-0.4472046c0.057373,8.003418,7.4934082,17.0944214,7.4934082,17.0944214
				l7.3861084-0.5838013c0,0-6.3380127-8.7791748-7.588623-12.6384277
				c-1.2510986-3.8589478,0.0220947-9.0357056,3.3808594-14.3363037c3.9238281-6.1923218,8.8914795-6.9924316,8.8914795-6.9924316
				s-0.9736328-0.5708008-2.5668945-0.8936157C1130.5024414,778.0484619,1127.3428955,782.0377197,1126.376709,785.6432495z"/>
			<path class="st30" d="M1133.2281494,775.5483398c-4.7593994,0.4891357-12.1484375,7.8883667-13.7315674,16.3179932
				c-0.1343994,0.7177124-0.1699219,1.4558105-0.1643066,2.2006226c0.4841309,0.3615112,1.2209473,0.6828003,2.246582,0.4472046
				c2.7468262-0.6306763,3.3100586-3.3173828,4.7978516-8.8709106c0.9661865-3.6055298,4.1257324-7.5947876,9.9519043-9.9264526
				C1135.4638672,775.5418091,1134.4694824,775.4206543,1133.2281494,775.5483398z"/>
		</g>
	</g>
	<path class="st5" d="M1146.3433838,819.2896118c9.140625,3.3689575,21.5957031,9.6825562,23.7857666,20.1803589
		c2.9644775,14.210083-4.9094238,27.9312744-17.2393799,34.8308716
		c-14.4492188,8.0855713-32.9736328,5.2094727-48.2739258,1.4168701
		c-16.7739258-4.1578979-31.0240479-12.953125-33.2746582-31.4380493
		c-0.7923584-6.5084839,0.3186035-15.0202026,8.4844971-15.4096069c3.1774902-0.1515503,6.5692139,0.9381104,9.6340332,2.6766968"/>
</g>
</svg>
