<svg width="553" height="400" viewBox="0 0 553 400" fill="none" xmlns="http://www.w3.org/2000/svg">
<path opacity="0.72" d="M551 185.75C551 274.06 385.339 350.853 234.028 350.853C82.7161 350.853 -8.93296 273.393 3.04742 185.75C19.2966 66.8974 166.91 20 318.221 20C469.533 20 551 97.4343 551 185.75Z" fill="#D6D8E6" stroke="#D6D8E6" stroke-width="0.99" stroke-miterlimit="10" stroke-linejoin="round"/>
<path d="M129.166 304.278C121.369 304.278 110.933 303.93 99.9417 302.571C86.8122 300.946 75.4737 298.221 66.2449 294.454C54.7014 289.75 46.4392 283.413 41.6901 275.616C37.583 268.875 36.0493 260.932 37.1326 252.009C38.3296 242.109 42.7884 230.758 50.3728 218.283C57.5862 206.418 66.628 195.459 77.2453 185.712C87.5693 176.229 99.6784 167.638 113.213 160.179C126.371 152.928 141.235 146.553 157.391 141.231C173.087 136.062 190.418 131.751 208.902 128.417C242.418 122.37 280.49 119.348 322.814 119.348C367.462 119.348 416.844 122.709 470.642 129.435C470.71 129.446 477.251 130.56 486.149 130.302C494.361 130.064 506.314 128.576 516.632 122.838C521.761 120.009 526.081 115.91 529.18 110.932C532.28 105.953 534.055 100.261 534.336 94.3996C534.952 82.3007 529.388 70.9337 519.448 63.9917C507.164 55.4117 489.097 50.3597 465.751 48.9783V48.8522C489.121 50.2352 507.209 55.2932 519.514 63.8867C529.488 70.8542 535.075 82.2632 534.455 94.4056C534.17 100.119 532.489 105.675 529.56 110.585C526.442 115.779 522.113 119.942 516.692 122.955C506.35 128.706 494.374 130.197 486.149 130.436C477.238 130.694 470.687 129.578 470.621 129.566C416.832 122.843 367.444 119.481 322.806 119.481C280.484 119.481 242.432 122.502 208.917 128.547C131.521 142.509 78.2133 172.725 50.4746 218.355C36.0463 242.086 33.1257 261.333 41.7964 275.556C52.5244 293.163 79.343 299.899 99.9537 302.449C122.296 305.215 142.356 303.792 142.555 303.778L142.564 303.904C142.465 303.906 137.225 304.278 129.166 304.278Z" fill="#007CFD" stroke="#007CFD" stroke-width="4.24" stroke-miterlimit="10" stroke-linejoin="round"/>
<path d="M534.765 333.704C544.597 374.654 421.25 373.877 280.127 377.248C139.003 380.618 24.1994 366.586 23.7086 345.908C23.2178 325.231 137.222 305.734 278.348 302.365C419.473 298.996 529.15 310.309 534.765 333.704Z" fill="#E6E6E6"/>
<path opacity="0.47" d="M421.731 380C441.807 380 458.081 374.227 458.081 367.106C458.081 359.985 441.807 354.212 421.731 354.212C401.656 354.212 385.382 359.985 385.382 367.106C385.382 374.227 401.656 380 421.731 380Z" fill="#AEBDD8"/>
<path opacity="0.47" d="M170.829 375.718C237.552 375.718 291.641 369.945 291.641 362.824C291.641 355.702 237.552 349.93 170.829 349.93C104.106 349.93 50.0166 355.702 50.0166 362.824C50.0166 369.945 104.106 375.718 170.829 375.718Z" fill="#AEBDD8"/>
<path opacity="0.86" d="M208.684 369.993C252.451 369.993 287.931 365.8 287.931 360.627C287.931 355.454 252.451 351.261 208.684 351.261C164.918 351.261 129.438 355.454 129.438 360.627C129.438 365.8 164.918 369.993 208.684 369.993Z" fill="#AEBDD8"/>
<path opacity="0.86" d="M67.0096 362.455C74.7871 361.21 80.8957 358.969 80.6537 357.449C80.4117 355.929 73.9106 355.706 66.1331 356.951C58.3557 358.195 52.247 360.436 52.489 361.956C52.7311 363.476 59.2322 363.7 67.0096 362.455Z" fill="#AEBDD8"/>
<path opacity="0.86" d="M89.2726 352.041C108.309 352.041 123.741 349.559 123.741 346.498C123.741 343.437 108.309 340.956 89.2726 340.956C70.2359 340.956 54.8037 343.437 54.8037 346.498C54.8037 349.559 70.2359 352.041 89.2726 352.041Z" fill="#AEBDD8"/>
<path opacity="0.56" d="M263.741 45.3322H424.138V336.619H252.123V56.9797C252.123 53.8906 253.347 50.928 255.526 48.7437C257.705 46.5593 260.66 45.3322 263.741 45.3322Z" fill="#9CB8D8" stroke="#92A9D8" stroke-width="0.99" stroke-miterlimit="10" stroke-linejoin="round"/>
<path d="M267.31 48.9093H427.707V340.197H255.691V60.5568C255.691 57.4677 256.915 54.5051 259.094 52.3208C261.273 50.1365 264.228 48.9093 267.31 48.9093Z" fill="#C8DCFF" stroke="#C8DCFF" stroke-width="0.85" stroke-miterlimit="10" stroke-linejoin="round"/>
<path d="M401.74 77.7879H279.622C272.894 77.7879 267.439 83.2559 267.439 90.0009V289.199C267.439 295.944 272.894 301.412 279.622 301.412H401.74C408.469 301.412 413.923 295.944 413.923 289.199V90.0009C413.923 83.2559 408.469 77.7879 401.74 77.7879Z" fill="#ECF3F6" stroke="#ECF3F6" stroke-width="0.85" stroke-miterlimit="10" stroke-linejoin="round"/>
<path d="M371.283 57.215H306.301C303.828 57.215 301.823 59.225 301.823 61.7045V68.111C301.823 70.5904 303.828 72.6005 306.301 72.6005H371.283C373.756 72.6005 375.761 70.5904 375.761 68.111V61.7045C375.761 59.225 373.756 57.215 371.283 57.215Z" fill="#F6F6F6" stroke="#F6F6F6" stroke-width="0.85" stroke-miterlimit="10" stroke-linejoin="round"/>
<path d="M283.921 69.4644C286.507 69.4644 288.603 67.4242 288.603 64.9075C288.603 62.3907 286.507 60.3505 283.921 60.3505C281.335 60.3505 279.239 62.3907 279.239 64.9075C279.239 67.4242 281.335 69.4644 283.921 69.4644Z" fill="#F6F6F6" stroke="#F6F6F6" stroke-width="0.85" stroke-miterlimit="10" stroke-linejoin="round"/>
<path d="M340.514 335.355C347.148 335.355 352.526 330.122 352.526 323.666C352.526 317.21 347.148 311.976 340.514 311.976C333.88 311.976 328.502 317.21 328.502 323.666C328.502 330.122 333.88 335.355 340.514 335.355Z" fill="#7CB1FF" stroke="#7CB1FF" stroke-width="0.85" stroke-miterlimit="10" stroke-linejoin="round"/>
<path d="M341.705 332.67C348.339 332.67 353.717 327.437 353.717 320.981C353.717 314.525 348.339 309.291 341.705 309.291C335.071 309.291 329.693 314.525 329.693 320.981C329.693 327.437 335.071 332.67 341.705 332.67Z" fill="#F6F6F6" stroke="#F6F6F6" stroke-width="0.85" stroke-miterlimit="10" stroke-linejoin="round"/>
<path opacity="0.56" d="M448.894 360.627L430.392 339.927V48.9093L441.862 58.0848C446.313 61.6458 448.894 66.9588 448.894 72.5673V360.627Z" fill="#9CB8D8" stroke="#92A9D8" stroke-width="0.99" stroke-miterlimit="10" stroke-linejoin="round"/>
<path d="M446.211 355.558L427.709 339.922V48.9093L439.179 58.0848C443.632 61.6458 446.211 66.9588 446.211 72.5673V355.558Z" fill="#7CB1FF" stroke="#7CB1FF" stroke-width="0.85" stroke-miterlimit="10" stroke-linejoin="round"/>
<path opacity="0.47" d="M446.212 358.398H284.675C277.943 358.41 271.418 356.069 266.222 351.779L255.7 343.032H427.709L446.212 358.398Z" fill="#AEBDD8"/>
<path d="M446.212 355.557H284.675C277.943 355.57 271.418 353.229 266.222 348.938L255.7 340.196H427.709L446.212 355.557Z" fill="#9AB6E8" stroke="#9AB6E8" stroke-width="0.85" stroke-miterlimit="10" stroke-linejoin="round"/>
<path opacity="0.17" d="M393.286 95.4781H281.056C279.249 95.4781 277.784 96.9468 277.784 98.7586V153.508C277.784 155.32 279.249 156.789 281.056 156.789H393.286C395.094 156.789 396.559 155.32 396.559 153.508V98.7586C396.559 96.9468 395.094 95.4781 393.286 95.4781Z" fill="#007CFD" stroke="#007CFD" stroke-width="0.85" stroke-miterlimit="10" stroke-linejoin="round"/>
<path d="M396.705 91.9009H284.475C282.668 91.9009 281.203 93.3697 281.203 95.1814V149.931C281.203 151.743 282.668 153.212 284.475 153.212H396.705C398.513 153.212 399.978 151.743 399.978 149.931V95.1814C399.978 93.3697 398.513 91.9009 396.705 91.9009Z" fill="#AACBFF" stroke="#AACBFF" stroke-width="0.85" stroke-miterlimit="10" stroke-linejoin="round"/>
<path opacity="0.19" d="M319.305 177.431C307.064 170.509 291.378 174.554 284.265 186.467C278.808 195.607 279.985 206.717 286.359 214.528C288.361 216.972 290.8 219.02 293.55 220.568C305.791 227.491 321.479 223.445 328.591 211.532C330.526 208.311 331.689 204.682 331.989 200.933C332.72 191.684 328.098 182.404 319.305 177.431Z" fill="#007CFD" stroke="#007CFD" stroke-width="0.85" stroke-miterlimit="10" stroke-linejoin="round"/>
<path d="M321.541 174.449C309.301 167.528 293.613 171.573 286.501 183.485C281.044 192.626 282.222 203.735 288.596 211.545L308.674 196.017L321.541 174.449Z" fill="#7CB1FF" stroke="#7CB1FF" stroke-width="0.85" stroke-miterlimit="10" stroke-linejoin="round"/>
<path d="M295.785 217.588C308.024 224.509 323.712 220.464 330.825 208.552C332.759 205.33 333.922 201.702 334.223 197.953L308.67 196.018L288.594 211.551C290.596 213.994 293.034 216.041 295.785 217.588Z" fill="#0062D1" stroke="#0062D1" stroke-width="0.85" stroke-miterlimit="10" stroke-linejoin="round"/>
<path d="M321.539 174.448L308.671 196.016L334.231 197.951C334.955 188.701 330.335 179.422 321.539 174.448Z" fill="#007DFE" stroke="#007DFE" stroke-width="0.85" stroke-miterlimit="10" stroke-linejoin="round"/>
<path d="M392.984 238.243H291.689C290.89 238.243 290.242 238.892 290.242 239.693V241.646C290.242 242.447 290.89 243.097 291.689 243.097H392.984C393.783 243.097 394.431 242.447 394.431 241.646V239.693C394.431 238.892 393.783 238.243 392.984 238.243Z" fill="#AACBFF" stroke="#AACBFF" stroke-width="0.85" stroke-miterlimit="10" stroke-linejoin="round"/>
<path d="M392.984 251.76H291.689C290.89 251.76 290.242 252.41 290.242 253.211V255.164C290.242 255.965 290.89 256.614 291.689 256.614H392.984C393.783 256.614 394.431 255.965 394.431 255.164V253.211C394.431 252.41 393.783 251.76 392.984 251.76Z" fill="#AACBFF" stroke="#AACBFF" stroke-width="0.85" stroke-miterlimit="10" stroke-linejoin="round"/>
<path d="M392.984 265.28H291.689C290.89 265.28 290.242 265.93 290.242 266.731V268.684C290.242 269.485 290.89 270.134 291.689 270.134H392.984C393.783 270.134 394.431 269.485 394.431 268.684V266.731C394.431 265.93 393.783 265.28 392.984 265.28Z" fill="#AACBFF" stroke="#AACBFF" stroke-width="0.85" stroke-miterlimit="10" stroke-linejoin="round"/>
<path d="M392.984 278.796H291.689C290.89 278.796 290.242 279.445 290.242 280.246V282.199C290.242 283 290.89 283.649 291.689 283.649H392.984C393.783 283.649 394.431 283 394.431 282.199V280.246C394.431 279.445 393.783 278.796 392.984 278.796Z" fill="#AACBFF" stroke="#AACBFF" stroke-width="0.85" stroke-miterlimit="10" stroke-linejoin="round"/>
<path opacity="0.12" d="M428.667 188.675C428.667 188.675 419.659 338.119 280.826 342.334L428.716 342.255L428.667 188.675Z" fill="#0062D1" stroke="#0062D1" stroke-width="0.85" stroke-miterlimit="10" stroke-linejoin="round"/>
<path d="M122.461 304.539H54.8037V313.864H122.461V304.539Z" fill="#CCCCCC" stroke="#CCCCCC" stroke-width="0.89" stroke-miterlimit="10" stroke-linejoin="round"/>
<path d="M54.8037 313.864V322.861V324.817H122.461V322.861V313.864H54.8037Z" fill="#CCCCCC" stroke="#CCCCCC" stroke-width="0.89" stroke-miterlimit="10" stroke-linejoin="round"/>
<path d="M122.461 335.77H54.8037V346.723H122.461V335.77Z" fill="#CCCCCC" stroke="#CCCCCC" stroke-width="0.89" stroke-miterlimit="10" stroke-linejoin="round"/>
<path d="M54.8037 324.817V333.814V335.77H122.461V333.814V324.817H54.8037Z" fill="#CCCCCC" stroke="#CCCCCC" stroke-width="0.89" stroke-miterlimit="10" stroke-linejoin="round"/>
<path d="M54.8037 307.382H87.2541" stroke="#666666" stroke-width="0.89" stroke-miterlimit="10" stroke-linejoin="round"/>
<path d="M87.2541 307.316H54.8037V307.449H87.2541V307.316Z" stroke="#666666" stroke-width="0.89" stroke-miterlimit="10" stroke-linejoin="round"/>
<path d="M54.8037 309.201H87.2541" stroke="#666666" stroke-width="0.89" stroke-miterlimit="10" stroke-linejoin="round"/>
<path d="M87.2541 309.133H54.8037V309.266H87.2541V309.133Z" stroke="#666666" stroke-width="0.89" stroke-miterlimit="10" stroke-linejoin="round"/>
<path d="M54.8037 311.021H87.2541" stroke="#666666" stroke-width="0.89" stroke-miterlimit="10" stroke-linejoin="round"/>
<path d="M87.2541 310.952H54.8037V311.086H87.2541V310.952Z" stroke="#666666" stroke-width="0.89" stroke-miterlimit="10" stroke-linejoin="round"/>
<path d="M90.0117 307.382H122.461" stroke="#666666" stroke-width="0.89" stroke-miterlimit="10" stroke-linejoin="round"/>
<path d="M122.462 307.316H90.0117V307.449H122.462V307.316Z" stroke="#666666" stroke-width="0.89" stroke-miterlimit="10" stroke-linejoin="round"/>
<path d="M90.0117 309.201H122.461" stroke="#666666" stroke-width="0.89" stroke-miterlimit="10" stroke-linejoin="round"/>
<path d="M122.462 309.133H90.0117V309.266H122.462V309.133Z" stroke="#666666" stroke-width="0.89" stroke-miterlimit="10" stroke-linejoin="round"/>
<path d="M90.0117 311.021H122.461" stroke="#666666" stroke-width="0.89" stroke-miterlimit="10" stroke-linejoin="round"/>
<path d="M122.462 310.952H90.0117V311.086H122.462V310.952Z" stroke="#666666" stroke-width="0.89" stroke-miterlimit="10" stroke-linejoin="round"/>
<path d="M54.8037 316.479H87.2541" stroke="#666666" stroke-width="0.89" stroke-miterlimit="10" stroke-linejoin="round"/>
<path d="M87.2541 316.41H54.8037V316.544H87.2541V316.41Z" stroke="#666666" stroke-width="0.89" stroke-miterlimit="10" stroke-linejoin="round"/>
<path d="M54.8037 318.298H87.2541" stroke="#666666" stroke-width="0.89" stroke-miterlimit="10" stroke-linejoin="round"/>
<path d="M87.2541 318.23H54.8037V318.363H87.2541V318.23Z" stroke="#666666" stroke-width="0.89" stroke-miterlimit="10" stroke-linejoin="round"/>
<path d="M54.8037 320.117H87.2541" stroke="#666666" stroke-width="0.89" stroke-miterlimit="10" stroke-linejoin="round"/>
<path d="M87.2541 320.051H54.8037V320.184H87.2541V320.051Z" stroke="#666666" stroke-width="0.89" stroke-miterlimit="10" stroke-linejoin="round"/>
<path d="M54.8037 321.937H87.2541" stroke="#666666" stroke-width="0.89" stroke-miterlimit="10" stroke-linejoin="round"/>
<path d="M87.2541 321.871H54.8037V322.004H87.2541V321.871Z" stroke="#666666" stroke-width="0.89" stroke-miterlimit="10" stroke-linejoin="round"/>
<path d="M90.0117 316.61H122.461" stroke="#666666" stroke-width="0.89" stroke-miterlimit="10" stroke-linejoin="round"/>
<path d="M122.462 316.544H90.0117V316.678H122.462V316.544Z" stroke="#666666" stroke-width="0.89" stroke-miterlimit="10" stroke-linejoin="round"/>
<path d="M90.0117 318.43H122.461" stroke="#666666" stroke-width="0.89" stroke-miterlimit="10" stroke-linejoin="round"/>
<path d="M122.462 318.364H90.0117V318.497H122.462V318.364Z" stroke="#666666" stroke-width="0.89" stroke-miterlimit="10" stroke-linejoin="round"/>
<path d="M90.0117 320.249H122.461" stroke="#666666" stroke-width="0.89" stroke-miterlimit="10" stroke-linejoin="round"/>
<path d="M122.462 320.183H90.0117V320.316H122.462V320.183Z" stroke="#666666" stroke-width="0.89" stroke-miterlimit="10" stroke-linejoin="round"/>
<path d="M90.0117 322.068H122.461" stroke="#666666" stroke-width="0.89" stroke-miterlimit="10" stroke-linejoin="round"/>
<path d="M122.462 322.002H90.0117V322.136H122.462V322.002Z" stroke="#666666" stroke-width="0.89" stroke-miterlimit="10" stroke-linejoin="round"/>
<path d="M54.8037 327.397H87.2541" stroke="#666666" stroke-width="0.89" stroke-miterlimit="10" stroke-linejoin="round"/>
<path d="M87.2541 327.329H54.8037V327.462H87.2541V327.329Z" stroke="#666666" stroke-width="0.89" stroke-miterlimit="10" stroke-linejoin="round"/>
<path d="M54.8037 329.216H87.2541" stroke="#666666" stroke-width="0.89" stroke-miterlimit="10" stroke-linejoin="round"/>
<path d="M87.2541 329.148H54.8037V329.281H87.2541V329.148Z" stroke="#666666" stroke-width="0.89" stroke-miterlimit="10" stroke-linejoin="round"/>
<path d="M54.8037 331.035H87.2541" stroke="#666666" stroke-width="0.89" stroke-miterlimit="10" stroke-linejoin="round"/>
<path d="M87.2541 330.967H54.8037V331.1H87.2541V330.967Z" stroke="#666666" stroke-width="0.89" stroke-miterlimit="10" stroke-linejoin="round"/>
<path d="M54.8037 332.855H87.2541" stroke="#666666" stroke-width="0.89" stroke-miterlimit="10" stroke-linejoin="round"/>
<path d="M87.2541 332.787H54.8037V332.92H87.2541V332.787Z" stroke="#666666" stroke-width="0.89" stroke-miterlimit="10" stroke-linejoin="round"/>
<path d="M90.0117 327.566H122.461" stroke="#666666" stroke-width="0.89" stroke-miterlimit="10" stroke-linejoin="round"/>
<path d="M122.462 327.498H90.0117V327.631H122.462V327.498Z" stroke="#666666" stroke-width="0.89" stroke-miterlimit="10" stroke-linejoin="round"/>
<path d="M90.0117 329.385H122.461" stroke="#666666" stroke-width="0.89" stroke-miterlimit="10" stroke-linejoin="round"/>
<path d="M122.462 329.317H90.0117V329.45H122.462V329.317Z" stroke="#666666" stroke-width="0.89" stroke-miterlimit="10" stroke-linejoin="round"/>
<path d="M90.0117 331.205H122.461" stroke="#666666" stroke-width="0.89" stroke-miterlimit="10" stroke-linejoin="round"/>
<path d="M122.462 331.136H90.0117V331.27H122.462V331.136Z" stroke="#666666" stroke-width="0.89" stroke-miterlimit="10" stroke-linejoin="round"/>
<path d="M90.0117 333.024H122.461" stroke="#666666" stroke-width="0.89" stroke-miterlimit="10" stroke-linejoin="round"/>
<path d="M122.462 332.956H90.0117V333.089H122.462V332.956Z" stroke="#666666" stroke-width="0.89" stroke-miterlimit="10" stroke-linejoin="round"/>
<path d="M54.8037 338.313H87.2541" stroke="#666666" stroke-width="0.89" stroke-miterlimit="10" stroke-linejoin="round"/>
<path d="M87.2541 338.245H54.8037V338.378H87.2541V338.245Z" stroke="#666666" stroke-width="0.89" stroke-miterlimit="10" stroke-linejoin="round"/>
<path d="M54.8037 340.132H87.2541" stroke="#666666" stroke-width="0.89" stroke-miterlimit="10" stroke-linejoin="round"/>
<path d="M87.2541 340.064H54.8037V340.197H87.2541V340.064Z" stroke="#666666" stroke-width="0.89" stroke-miterlimit="10" stroke-linejoin="round"/>
<path d="M54.8037 341.949H87.2541" stroke="#666666" stroke-width="0.89" stroke-miterlimit="10" stroke-linejoin="round"/>
<path d="M87.2541 341.883H54.8037V342.016H87.2541V341.883Z" stroke="#666666" stroke-width="0.89" stroke-miterlimit="10" stroke-linejoin="round"/>
<path d="M54.8037 343.771H87.2541" stroke="#666666" stroke-width="0.89" stroke-miterlimit="10" stroke-linejoin="round"/>
<path d="M87.2541 343.705H54.8037V343.838H87.2541V343.705Z" stroke="#666666" stroke-width="0.89" stroke-miterlimit="10" stroke-linejoin="round"/>
<path d="M90.0117 338.651H122.461" stroke="#666666" stroke-width="0.89" stroke-miterlimit="10" stroke-linejoin="round"/>
<path d="M122.462 338.585H90.0117V338.718H122.462V338.585Z" stroke="#666666" stroke-width="0.89" stroke-miterlimit="10" stroke-linejoin="round"/>
<path d="M90.0117 340.47H122.461" stroke="#666666" stroke-width="0.89" stroke-miterlimit="10" stroke-linejoin="round"/>
<path d="M122.462 340.404H90.0117V340.538H122.462V340.404Z" stroke="#666666" stroke-width="0.89" stroke-miterlimit="10" stroke-linejoin="round"/>
<path d="M90.0117 342.29H122.461" stroke="#666666" stroke-width="0.89" stroke-miterlimit="10" stroke-linejoin="round"/>
<path d="M122.462 342.224H90.0117V342.357H122.462V342.224Z" stroke="#666666" stroke-width="0.89" stroke-miterlimit="10" stroke-linejoin="round"/>
<path d="M90.0117 344.109H122.461" stroke="#666666" stroke-width="0.89" stroke-miterlimit="10" stroke-linejoin="round"/>
<path d="M122.462 344.043H90.0117V344.176H122.462V344.043Z" stroke="#666666" stroke-width="0.89" stroke-miterlimit="10" stroke-linejoin="round"/>
<path opacity="0.32" d="M122.461 304.539H54.8037V346.724H64.1806C64.1806 346.724 57.2112 312.207 122.467 311.982L122.461 304.539Z" fill="#87888B" stroke="#87888B" stroke-width="0.89" stroke-miterlimit="10" stroke-linejoin="round"/>
<path d="M142.176 256.435C142.176 256.435 140.439 253.575 134.826 253.314C129.214 253.053 126.148 253.444 125.204 252.403C125.204 252.403 128.903 252.793 131.063 251.364C131.063 251.364 114.513 252.403 114.914 239.137C114.914 239.137 115.182 235.626 118.789 235.887C118.789 235.887 111.159 229.644 114.899 223.791C114.899 223.791 123.193 217.548 121.855 211.696C121.855 211.696 122.925 216.118 122.256 217.158C122.256 217.158 128.136 213.387 125.732 204.282C125.732 204.282 128.564 208.575 128.017 211.825C128.017 211.825 131.344 206.493 138.293 210.915C145.241 215.337 150.462 226.399 150.462 226.399L142.176 256.435Z" fill="#1A2C37" stroke="#1A2C37" stroke-width="0.85" stroke-miterlimit="10" stroke-linejoin="round"/>
<path d="M192.282 268.659C192.282 268.659 196.292 267.359 193.886 252.664L179.453 257.996L185.466 269.18L192.282 268.659Z" fill="#6191D4" stroke="#6191D4" stroke-width="0.85" stroke-miterlimit="10" stroke-linejoin="round"/>
<path d="M196.16 185.425C196.16 185.08 194.595 175.19 195.152 171.995C195.206 171.688 195.35 171.404 195.566 171.179C195.782 170.954 196.059 170.798 196.364 170.732C196.921 170.612 197.607 170.732 197.987 171.769C198.7 173.719 199.234 179.443 199.234 179.443L196.16 185.425Z" fill="#FE9780" stroke="#FE9780" stroke-width="0.85" stroke-miterlimit="10" stroke-linejoin="round"/>
<path d="M224.556 164.027C221.264 162.475 216.748 160.979 213.047 160.577C206.945 159.934 204.979 157.85 204.979 157.85C202.995 155.895 200.849 154.111 198.565 152.518C196.171 150.854 192.25 147.914 189.737 146.011C187.35 146.081 186.274 146.534 186.274 146.534C186.274 146.534 197.634 159.541 202.583 190.885C202.583 190.885 213.006 183.341 231.582 186.722C231.575 186.725 230.714 174.49 224.556 164.027Z" fill="#C0D9FF" stroke="#C0D9FF" stroke-width="0.85" stroke-miterlimit="10" stroke-linejoin="round"/>
<path opacity="0.34" d="M204.104 160.09C204.104 160.09 206.157 162.572 212.53 163.348C216.397 163.819 222.921 165.598 226.368 167.456C223.279 161.468 220.457 156.656 214.301 153.484C202.711 147.518 192.083 145.834 188.177 145.967C190.807 148.238 194.91 151.745 197.404 153.73C199.814 155.655 202.056 157.782 204.104 160.09Z" fill="#93B8FF" stroke="#93B8FF" stroke-width="1.11" stroke-miterlimit="10" stroke-linejoin="round"/>
<path d="M204.984 157.849C204.984 157.849 206.949 159.93 213.05 160.581C216.752 160.975 221.26 162.471 224.559 164.031C221.603 159.012 217.425 154.401 211.533 151.744C200.438 146.742 193.476 145.908 189.737 146.017C192.255 147.921 196.171 150.861 198.565 152.524C200.851 154.115 202.998 155.896 204.984 157.849Z" fill="#7CB0FE" stroke="#7CB0FE" stroke-width="0.85" stroke-miterlimit="10" stroke-linejoin="round"/>
<path d="M186.676 242.911C186.676 242.911 195.764 237.317 197.233 236.408C198.702 235.499 199.238 230.858 199.238 229.342C199.238 227.825 199.371 202.592 199.238 199.601C199.105 196.61 197.902 192.709 197.366 192.188C196.831 191.668 193.759 189.587 195.764 183.604C197.769 177.62 198.569 173.459 200.306 173.854C202.044 174.248 202.311 176.326 201.376 180.227C200.441 184.129 202.712 184.649 202.712 184.649C202.712 184.649 208.997 186.73 209.26 188.161C209.523 189.592 208.86 192.193 208.593 194.273C208.325 196.354 209.323 203.507 209.323 203.507C209.323 203.507 213.538 233.681 213.002 236.672C212.466 239.663 210.999 243.436 204.984 248.372C198.969 253.309 185.741 262.81 185.741 262.81L182.934 248.633L186.676 242.911Z" fill="#FEA88F" stroke="#FEA88F" stroke-width="0.85" stroke-miterlimit="10" stroke-linejoin="round"/>
<path d="M184.621 244.004C163.796 255.175 159.28 259.792 159.28 259.792L175.784 282.707C177.807 280.376 183.632 275.561 187.788 272.224C181.671 263.242 183.413 249.937 184.621 244.004Z" fill="#7CB1FF" stroke="#7CB1FF" stroke-width="0.85" stroke-miterlimit="10" stroke-linejoin="round"/>
<path d="M129.438 349.674C129.438 349.674 134.291 354.369 154.336 347.605L153.738 321.594L135.9 330.444L131.489 340.719L129.438 349.674Z" fill="#0062D1" stroke="#0062D1" stroke-width="0.85" stroke-miterlimit="10" stroke-linejoin="round"/>
<path d="M138.7 258.776C138.7 258.776 132.687 259.816 129.346 261.508L125.904 292.454C125.904 292.454 129.976 308.57 129.976 312.212C129.976 315.854 126.5 344.471 129.44 349.673C129.44 349.673 142.457 328.175 168.39 324.013L181.566 294.521C181.566 294.521 175.867 269.525 160.182 258.776L152.87 257.996L138.7 258.776Z" fill="#007DFE" stroke="#007DFE" stroke-width="0.85" stroke-miterlimit="10" stroke-linejoin="round"/>
<path d="M231.55 334.6C229.863 332.545 228.194 330.463 227.701 329.788C226.632 328.329 211.392 322.402 211.392 322.402V332.52L217.137 341.103C217.137 341.103 219.709 342.831 221.536 344.755C224.095 343.386 229.07 340.141 231.55 334.6Z" fill="#FEA88F" stroke="#FEA88F" stroke-width="0.85" stroke-miterlimit="10" stroke-linejoin="round"/>
<path d="M253.619 326.246C252.247 324.665 250.514 322.358 248.404 318.992L237.588 324.013V329.657C237.588 329.657 240.492 333.074 242.201 335.527C244.948 333.865 250.681 330.125 253.619 326.246Z" fill="#FEA88F" stroke="#FEA88F" stroke-width="0.85" stroke-miterlimit="10" stroke-linejoin="round"/>
<path d="M181.563 354.627C181.563 354.627 184.672 360.35 195.095 358.92C205.517 357.491 223.559 329.787 226.632 321.593C226.632 321.593 235.46 330.308 237.725 331.608C237.725 331.608 244.14 321.593 249.885 320.293C249.885 320.293 232.914 287.128 223.96 285.827C223.96 285.827 213.935 283.487 205.92 295.972C197.905 308.456 197.501 309.758 197.501 309.758L180.529 320.813L176.788 348.515L181.563 354.627Z" fill="#1B2D36" stroke="#1B2D36" stroke-width="0.85" stroke-miterlimit="10" stroke-linejoin="round"/>
<path d="M140.229 337.207C140.229 337.207 151.531 360.092 167.162 361.262C167.162 361.262 187.211 364.262 192.285 338.243C192.285 338.243 193.889 327.578 193.756 323.806C193.756 323.806 214.871 342.406 218.077 343.705C218.077 343.705 220.215 333.691 227.7 329.789C227.7 329.789 203.909 297.014 194.157 290.512C194.157 290.512 182.8 282.148 173.425 290.075C171.309 291.875 169.688 294.187 168.716 296.792C166.646 302.299 161.316 316.661 158.638 325.702L155.265 327.148C151.878 328.6 148.66 330.419 145.667 332.572L140.229 337.207Z" fill="#39464C" stroke="#39464C" stroke-width="0.85" stroke-miterlimit="10" stroke-linejoin="round"/>
<path d="M137.896 220.801C137.896 220.801 145.514 220.281 150.592 224.572C155.67 228.864 162.62 235.888 162.753 240.049C162.886 244.21 161.556 245.899 159.545 248.503C157.534 251.107 158.477 266.824 158.477 266.824C158.477 266.824 157.141 273.979 152.464 273.986C147.786 273.994 140.836 270.353 138.698 258.778C138.698 258.778 140.533 256.882 140.803 251.23C140.846 250.334 140.594 249.448 140.087 248.709L139.768 248.244C139.768 248.244 133.086 250.816 131.349 247.384C131.349 247.384 129.339 242.446 135.915 242.026C136.516 241.988 137.111 241.881 137.688 241.708C138.595 241.438 139.871 240.973 140.83 240.285C141.036 240.14 141.205 239.949 141.323 239.727C141.441 239.504 141.504 239.257 141.508 239.005C141.512 238.753 141.456 238.504 141.344 238.278C141.233 238.052 141.07 237.856 140.868 237.706C140.473 237.417 139.906 237.172 139.092 237.058C136.285 236.668 135.617 234.717 135.617 234.717C135.617 234.717 144.846 229.251 137.896 220.801Z" fill="#FEA88F" stroke="#FEA88F" stroke-width="0.85" stroke-miterlimit="10" stroke-linejoin="round"/>
<path d="M110.233 289.339C105.154 281.146 98.4721 283.878 98.4721 283.878C98.4721 283.878 94.8646 291.811 104.219 297.664C113.574 303.517 120.121 302.476 120.121 302.476C117.048 300.265 115.311 297.534 110.233 289.339Z" fill="#6191D4" stroke="#6191D4" stroke-width="0.85" stroke-miterlimit="10" stroke-linejoin="round"/>
<path d="M237.591 355.799C237.591 355.799 236.122 339.542 235.721 339.411C235.505 339.341 233.514 336.989 231.552 334.599C229.066 340.14 224.097 343.385 221.544 344.754C222.416 345.672 223.119 346.634 223.293 347.475L237.591 355.799Z" fill="#124D85" stroke="#124D85" stroke-width="0.85" stroke-miterlimit="10" stroke-linejoin="round"/>
<path d="M252.154 341.039L257.633 329.658C257.633 329.658 256.328 329.37 253.617 326.247C250.68 330.126 244.946 333.866 242.199 335.528C242.616 336.094 242.982 336.697 243.293 337.328C244.135 339.282 252.154 341.039 252.154 341.039Z" fill="#124D85" stroke="#124D85" stroke-width="0.85" stroke-miterlimit="10" stroke-linejoin="round"/>
<path d="M267.03 356.449L267.658 358.399C267.658 358.399 282.893 361.649 286.234 353.449C279.191 361.582 250.474 352.699 244.417 350.705C244.707 353.041 244.941 354.755 244.941 354.755L267.03 356.449Z" fill="#B3B3B3" stroke="#B3B3B3" stroke-width="0.85" stroke-miterlimit="10" stroke-linejoin="round"/>
<path d="M282.624 345.199C280.142 344.536 278.209 344.244 276.5 343.786C271.536 345.856 270.066 348.385 270.066 348.385C268.965 340.233 256.742 334.344 251.269 332.097C251.127 332.179 250.989 332.262 250.858 332.343C249.789 332.996 248.68 333.583 247.539 334.099C245.826 334.866 243.181 336.54 243.299 339.541C243.403 342.204 243.978 347.176 244.419 350.713C250.47 352.702 279.194 361.59 286.236 353.457C286.233 353.458 288.238 346.699 282.624 345.199Z" fill="#1B2D36" stroke="#1B2D36" stroke-width="0.85" stroke-miterlimit="10" stroke-linejoin="round"/>
<path d="M270.064 348.388C270.064 348.388 271.536 345.859 276.498 343.789C274.345 343.21 272.548 342.37 270.462 340.189C266.721 336.289 260.572 329.785 257.633 329.654C255.9 329.578 253.194 330.952 251.264 332.095C256.737 334.346 268.96 340.235 270.064 348.388Z" fill="#808080" stroke="#808080" stroke-width="0.85" stroke-miterlimit="10" stroke-linejoin="round"/>
<path d="M251.09 356.449C251.09 356.449 252.84 353.125 256.091 351.304C255.869 351.294 255.642 351.288 255.428 351.286C254.435 351.286 252.042 350.952 249.892 348.256C249.892 348.256 238.8 336.811 233.722 339.151C232.6 339.686 231.526 340.317 230.513 341.038C234.422 342.442 249.311 348.286 251.09 356.449Z" fill="#808080" stroke="#808080" stroke-width="0.85" stroke-miterlimit="10" stroke-linejoin="round"/>
<path d="M267.032 362.612C267.429 362.04 267.732 361.408 267.93 360.74C267.93 360.74 269.667 353.978 264.99 352.806C262.358 352.164 259.69 351.686 257 351.375C256.7 351.339 256.401 351.317 256.091 351.303C252.84 353.124 251.091 356.448 251.091 356.448C249.312 348.285 234.423 342.441 230.509 341.037C226.618 343.758 223.295 347.475 223.295 347.475C223.295 347.475 222.894 359.909 226.101 361.365C226.101 361.365 237.059 362.171 242.538 363.342C247.485 364.398 258.539 365.945 267.032 362.612Z" fill="#1B2D36" stroke="#1B2D36" stroke-width="0.85" stroke-miterlimit="10" stroke-linejoin="round"/>
<path d="M226.897 363.993C227.566 364.254 237.723 365.293 243.869 365.163C250.016 365.032 254.159 366.073 254.159 366.073C254.159 366.073 263.595 367.551 267.026 362.613C258.534 365.946 247.479 364.399 242.531 363.343C237.052 362.172 226.094 361.366 226.094 361.366C226.094 361.366 226.225 363.733 226.897 363.993Z" fill="#B3B3B3" stroke="#B3B3B3" stroke-width="0.85" stroke-miterlimit="10" stroke-linejoin="round"/>
<path opacity="0.5" d="M223.358 347.44C223.358 347.44 222.499 359.59 226.166 361.417L240.487 363.008L248.471 364.349C248.471 364.349 261.87 366.329 267.124 362.671C267.124 362.671 268.92 360.884 268.335 356.38C268.335 356.38 239.48 366.806 227.318 343.553L223.358 347.44Z" fill="#1D2224" stroke="#1D2224" stroke-miterlimit="10" stroke-linejoin="round"/>
<path d="M254.488 330.438C254.488 330.438 242.927 326.255 243.295 330.438C243.663 334.622 254.488 330.438 254.488 330.438Z" stroke="#F2F2F2" stroke-width="4.24" stroke-miterlimit="10" stroke-linejoin="round"/>
<path d="M249.458 320.385C249.458 320.385 245.933 321.084 238.298 330.435L239.661 332.106C239.661 332.106 242.43 325.493 250.012 321.092L249.458 320.385Z" fill="#FE7E72" stroke="#FE7E72" stroke-miterlimit="10" stroke-linejoin="round"/>
<path d="M110.222 283.441C110.222 283.441 102.591 299.435 98.4761 303.84C95.2637 307.25 92.5038 311.06 90.2647 315.177C88.6607 318.125 75.8305 342.927 75.8305 342.927C75.8305 342.927 74.2265 347.262 72.2664 346.569C70.3064 345.876 62.11 341.54 60.684 341.886C59.2581 342.233 54.0916 344.286 51.0617 346.644C48.0318 349.002 56.8626 349.682 56.8626 349.682C56.8626 349.682 55.5355 351.945 56.8626 352.292C58.1898 352.638 62.6441 351.425 65.8521 353.679C69.06 355.934 74.9402 360.443 77.9716 357.842C81.003 355.241 79.5756 353.333 84.3875 346.742C89.1994 340.151 103.454 321.038 103.454 321.038C103.454 321.038 116.491 304.775 120.128 295.411L110.222 283.441Z" fill="#FEA88F" stroke="#FEA88F" stroke-width="0.85" stroke-miterlimit="10" stroke-linejoin="round"/>
<path opacity="0.5" d="M243.519 342.692C243.519 342.692 247.894 346.395 249.881 348.257C249.881 348.257 251.648 351.911 259.935 351.786C259.935 351.786 267.661 352.017 268.239 356.361C268.239 356.361 281.145 358.734 286.231 353.459C286.231 353.459 287.213 350.357 285.993 347.879C285.993 347.879 276.052 354.507 262.769 348.563C262.769 348.563 253.466 342.548 251.264 332.099C251.264 332.099 242.75 335.175 243.293 339.543L243.519 342.692Z" fill="#1D2224" stroke="#1D2224" stroke-width="0.99" stroke-miterlimit="10" stroke-linejoin="round"/>
<path d="M254.485 330.437C254.485 330.437 252.557 312.49 261.375 316.652C270.194 320.815 254.485 330.437 254.485 330.437Z" stroke="#F2F2F2" stroke-width="4.24" stroke-miterlimit="10" stroke-linejoin="round"/>
<path d="M237.587 341.038C237.587 341.038 221.712 337.481 224.905 345.794C228.098 354.107 237.587 341.038 237.587 341.038Z" stroke="#F2F2F2" stroke-width="4.24" stroke-miterlimit="10" stroke-linejoin="round"/>
<path d="M237.588 341.039C237.588 341.039 232.243 331.271 236.52 328.579C240.796 325.886 237.588 341.039 237.588 341.039Z" stroke="#F2F2F2" stroke-width="4.24" stroke-miterlimit="10" stroke-linejoin="round"/>
<path d="M141.722 229.41C141.55 229.351 141.367 229.33 141.185 229.348C140.32 229.429 137.145 229.873 136.592 232.02C136.592 232.02 136.65 232.366 137.041 232.02C137.431 231.673 137.753 230.22 141.167 229.77C141.167 229.77 141.915 229.77 141.941 229.596C141.95 229.513 141.839 229.453 141.722 229.41Z" fill="#1A2C37" stroke="#1A2C37" stroke-width="0.85" stroke-miterlimit="10" stroke-linejoin="round"/>
<path d="M147.456 226.497C147.433 226.365 147.446 226.229 147.494 226.104C147.711 225.504 148.634 223.344 150.601 223.372C150.601 223.372 150.901 223.483 150.527 223.689C150.152 223.894 148.842 223.839 147.86 226.171C147.86 226.171 147.735 226.698 147.579 226.684C147.509 226.678 147.473 226.591 147.456 226.497Z" fill="#1A2C37" stroke="#1A2C37" stroke-width="0.85" stroke-miterlimit="10" stroke-linejoin="round"/>
<path d="M143.638 233.435C143.644 233.65 143.585 233.862 143.471 234.043C143.356 234.225 143.19 234.368 142.994 234.454C142.797 234.54 142.58 234.566 142.369 234.528C142.158 234.49 141.963 234.389 141.81 234.239C141.656 234.09 141.55 233.897 141.506 233.687C141.462 233.477 141.482 233.258 141.562 233.059C141.643 232.86 141.781 232.689 141.959 232.569C142.137 232.449 142.346 232.385 142.56 232.385C142.7 232.383 142.838 232.409 142.968 232.46C143.098 232.512 143.216 232.589 143.316 232.686C143.416 232.784 143.496 232.9 143.551 233.029C143.606 233.157 143.636 233.295 143.638 233.435Z" fill="black" stroke="black" stroke-width="0.85" stroke-miterlimit="10" stroke-linejoin="round"/>
<path d="M151.258 228.779C151.853 228.779 152.335 228.311 152.335 227.732C152.335 227.154 151.853 226.685 151.258 226.685C150.663 226.685 150.181 227.154 150.181 227.732C150.181 228.311 150.663 228.779 151.258 228.779Z" fill="black" stroke="black" stroke-width="0.85" stroke-miterlimit="10" stroke-linejoin="round"/>
<path d="M142.558 232.387C142.558 232.387 140.271 232.237 140.063 234.487C140.063 234.487 140.213 234.841 140.539 234.487C140.865 234.133 141.103 232.89 142.558 232.89V232.387Z" fill="black"/>
<path d="M151.267 226.684C151.267 226.684 149.753 226.411 149.084 228.289C149.084 228.289 149.065 228.632 149.348 228.545C149.443 228.514 149.522 228.447 149.571 228.359C149.747 228.059 150.319 227.159 151.029 227.191L151.267 226.684Z" fill="black"/>
<path d="M146.91 230.862C146.91 230.862 152.419 232.278 152.479 233.435C152.539 234.591 151.731 235.4 151.261 235.718" stroke="black" stroke-width="0.85" stroke-miterlimit="10" stroke-linejoin="round"/>
<path d="M151.741 239.215C151.741 239.215 155.75 240.487 157.71 238.03" stroke="black" stroke-width="0.85" stroke-miterlimit="10" stroke-linejoin="round"/>
<path d="M57.1139 349.292C57.1139 349.292 58.7598 347.081 60.1438 347.081C61.5278 347.081 67.5382 348.598 68.2519 348.731C68.6778 348.81 69.113 348.825 69.5432 348.775C69.5432 348.775 63.8245 345.05 60.4535 345.277C60.4535 345.277 57.4805 345.406 54.8037 349.379L56.8565 349.679L57.1139 349.292Z" fill="#FE7E72" stroke="#FE7E72" stroke-width="0.99" stroke-miterlimit="10" stroke-linejoin="round"/>
<path d="M132.159 260.384C132.159 260.384 121.856 257.084 115.175 266.059C109.82 273.251 104.465 279.108 100.831 282.152C103.268 282.002 107.356 282.83 111.968 288.302C117.258 294.576 120.061 297.653 122.675 299.139C125.556 295.389 129.982 289.679 131.054 288.561C132.681 286.868 142.733 268.625 132.159 260.384Z" fill="#7CB1FF" stroke="#7CB1FF" stroke-width="0.85" stroke-miterlimit="10" stroke-linejoin="round"/>
<path d="M111.97 288.299C107.359 282.83 103.271 281.999 100.834 282.149C100.095 282.787 99.3051 283.364 98.4727 283.874C98.4727 283.874 105.155 281.143 110.233 289.335C115.311 297.528 117.048 300.261 120.122 302.472C120.122 302.472 121.196 301.061 122.677 299.133C120.063 297.648 117.261 294.573 111.97 288.299Z" fill="#C8DCFF" stroke="#C8DCFF" stroke-width="0.85" stroke-miterlimit="10" stroke-linejoin="round"/>
<path d="M186.669 242.91C185.971 243.282 185.286 243.647 184.615 244.005C183.407 249.937 181.666 263.242 187.782 272.224C190.351 270.16 192.281 268.66 192.281 268.66C185.2 265.41 186.669 242.91 186.669 242.91Z" fill="#C8DCFF" stroke="#C8DCFF" stroke-width="0.85" stroke-miterlimit="10" stroke-linejoin="round"/>
<path d="M234.094 355.799C233.945 346.799 237.593 341.037 237.593 341.037C237.593 341.037 243.922 344.208 245.76 351.26" stroke="#F2F2F2" stroke-width="4.24" stroke-miterlimit="10" stroke-linejoin="round"/>
<path d="M253.618 343.614C251.461 338.064 254.484 330.438 254.484 330.438C254.484 330.438 262.863 331.581 267.027 339.325" stroke="#F2F2F2" stroke-width="4.24" stroke-miterlimit="10" stroke-linejoin="round"/>
<path d="M138.745 246.583L138.595 246.54C138.692 246.219 138.635 245.848 138.43 245.44C138.24 245.08 137.971 244.767 137.644 244.525C137.317 244.282 136.94 244.116 136.541 244.039C133.957 243.51 133.288 246.168 133.261 246.289L133.111 246.255C133.111 246.225 133.838 243.342 136.566 243.9C136.989 243.979 137.388 244.154 137.733 244.41C138.078 244.666 138.361 244.998 138.559 245.38C138.794 245.815 138.849 246.223 138.745 246.583Z" fill="#FE7E72" stroke="#FE7E72" stroke-width="3" stroke-miterlimit="10" stroke-linejoin="round"/>
<path d="M138.98 246.303C138.881 246.912 138.208 247.31 137.476 247.19C136.744 247.07 136.233 246.481 136.332 245.87C136.43 245.26 137.104 244.864 137.828 244.984C138.552 245.104 139.08 245.693 138.98 246.303Z" fill="#FE7E72" stroke="#FE7E72" stroke-miterlimit="10" stroke-linejoin="round"/>
<path d="M148.62 223.1C148.62 223.1 143.734 220.211 137.626 220.571C138.189 221.151 138.654 221.819 139.003 222.549C139.003 222.549 140.808 220.239 148.62 223.1Z" fill="#FE7E72"/>
<path d="M135.636 234.719C135.636 234.719 136.351 236.799 139.132 237.074C139.132 237.074 143.068 237.524 140.882 240.321C140.882 240.321 143.94 237.575 139.299 236.3C138.733 236.088 138.228 235.742 137.825 235.292C137.661 235.101 137.565 234.862 137.551 234.611C137.538 234.36 137.607 234.112 137.748 233.904C138.438 232.91 139.025 231.848 139.501 230.735C139.501 230.735 138.036 233.288 135.636 234.719Z" fill="#FE7E72"/>
<path d="M159.707 248.291C159.707 248.291 151.997 249.791 146.989 248.291C146.989 248.291 153.124 250.346 158.88 250.823C158.883 250.823 159.164 249.171 159.707 248.291Z" fill="#FE7E72" stroke="#FE7E72" stroke-miterlimit="10" stroke-linejoin="round"/>
<path d="M186.708 242.813C186.708 242.813 186.005 253.295 187.905 261.296L193.018 257.563C193.018 257.563 186.466 254.474 187.833 242.123L186.708 242.813Z" fill="#FE7E72"/>
<path d="M108.326 286.84C108.326 286.84 110.158 288.893 112.9 293.497C112.9 293.497 115.394 297.736 117.797 300.343L116.784 302.077C116.784 302.077 111.628 291.949 106.231 291.199L108.326 286.84Z" fill="#FE7E72" stroke="#FE7E72" stroke-miterlimit="10" stroke-linejoin="round"/>
<path d="M201.239 182.599C201.239 182.599 201.497 184.149 202.843 184.63C202.843 184.63 207.229 186.048 209.097 187.63C209.097 187.63 205.887 185.752 202.753 185.436C202.311 185.392 201.903 185.182 201.611 184.848C201.319 184.514 201.164 184.08 201.179 183.636C201.189 183.327 201.207 182.983 201.239 182.599Z" fill="#FE7E72"/>
<path d="M227.696 329.787C227.696 329.787 222.209 332.364 218.458 342.18L219.758 343.23C219.758 343.23 219.818 336.587 228.784 331.196L227.696 329.787Z" fill="#FE7E72" stroke="#FE7E72" stroke-miterlimit="10" stroke-linejoin="round"/>
<path d="M158.641 325.676C158.641 325.676 147.149 329.33 140.265 337.253C140.265 337.253 144.682 345.608 148.211 349.444C148.211 349.444 140.585 336.602 158.641 325.676Z" fill="#1B2D36" stroke="#1B2D36" stroke-width="0.85" stroke-miterlimit="10" stroke-linejoin="round"/>
<path d="M126.325 294.29C126.325 294.29 138.933 282.116 136.799 267.55C136.799 267.55 141.081 281.38 127.467 299.096L126.325 294.29Z" fill="#005BE5" stroke="#007DFE" stroke-width="0.85" stroke-miterlimit="10" stroke-linejoin="round"/>
<path opacity="0.39" d="M161.297 259.802C161.297 259.802 171.353 267.698 176.901 281.647L181.409 277.471C181.409 277.471 172.857 264.349 161.297 259.802Z" fill="#007DFE" stroke="#007DFE" stroke-width="0.85" stroke-miterlimit="10" stroke-linejoin="round"/>
<path d="M158.484 266.728C158.484 266.728 157.238 274.078 152.434 273.928C152.434 273.934 156.075 273.556 158.484 266.728Z" fill="#FE7E72" stroke="#FE7E72" stroke-miterlimit="10" stroke-linejoin="round"/>
<path d="M316.68 38.0295C316.68 38.0295 313.113 27.756 321.53 22.6186C321.53 22.6186 325.525 19.5646 331.517 20.8186C331.517 20.8186 327.38 20.8186 325.233 22.4836C325.233 22.4836 334.466 18.5971 343.545 27.8985C352.625 37.2 359.759 61.3605 356.049 76.7714H354.336C354.336 76.7714 358.331 57.195 348.06 37.062C348.06 37.062 354.48 54.696 350.343 78.1619L342.639 80.3834L316.68 38.0295Z" fill="#1B2E35" stroke="#1B2E35" stroke-width="0.85" stroke-miterlimit="10" stroke-linejoin="round"/>
<path d="M320.105 68.3002C320.105 68.3002 320.675 86.4876 305.269 89.1261C305.269 89.1261 315.397 91.9941 321.247 76.9072C321.247 76.9072 316.538 92.3196 313.257 95.0961L337.367 92.9961L331.661 70.1002L320.105 68.3002Z" fill="#1B2E35" stroke="#1B2E35" stroke-width="0.85" stroke-miterlimit="10" stroke-linejoin="round"/>
<path d="M315.391 61.216C314.393 61.792 306.689 60.9385 307.26 51.358C307.26 51.358 307.688 46.915 310.113 45.1105C310.113 45.1105 306.971 46.6015 306.403 48.91C306.403 48.91 305.405 43.1665 311.825 41.2225C311.825 41.2225 305.833 35.6725 301.981 38.584C301.981 38.584 302.979 34.141 312.965 39.556C312.965 39.556 314.963 32.056 325.806 32.3365C325.806 32.3365 341.068 31.642 345.494 45.1105C349.919 58.579 342.64 66.9084 342.64 66.9084L327.09 61.819L315.391 61.216Z" fill="#1B2E35" stroke="#1B2E35" stroke-width="0.85" stroke-miterlimit="10" stroke-linejoin="round"/>
<path d="M315.93 63.5761C315.93 63.5761 316.828 72.4111 313.536 74.727C313.536 74.727 318.101 72.0451 317.959 65.5186L315.93 63.5761Z" fill="#1B2E35" stroke="#1B2E35" stroke-width="0.85" stroke-miterlimit="10" stroke-linejoin="round"/>
<path d="M344.499 112.866C348.209 112.033 354.059 107.728 356.199 96.0656C357.886 86.8662 357.8 80.7177 359.929 74.3637C356.395 74.0217 350.709 73.7022 347.496 74.7282C342.595 76.2942 334.371 78.9882 334.371 78.9882L322.207 85.1382C324.047 87.3327 328.318 92.9532 330.947 100.638C334.371 110.644 340.79 113.698 344.499 112.866Z" fill="#F5F5F5" stroke="#F5F5F5" stroke-width="0.85" stroke-miterlimit="10" stroke-linejoin="round"/>
<path d="M327.687 72.5995C327.687 72.5995 331.656 77.182 332.226 80.3755C332.796 83.569 332.286 90.7884 338.034 91.8984C338.034 91.8984 345.495 92.2644 347.492 74.7265C347.492 74.7265 342.784 72.5995 341.358 58.993L338.789 55.099L327.687 72.5995Z" fill="#FDB574" stroke="#FDB574" stroke-width="0.85" stroke-miterlimit="10" stroke-linejoin="round"/>
<path d="M311.826 48.9969C311.826 48.9969 311.826 58.0209 315.677 64.2684C319.529 70.5159 323.667 75.2379 328.945 74.6814C328.945 74.6814 336.079 73.4319 340.502 65.3814C340.502 65.3814 341.642 61.2159 341.357 58.9944C341.357 58.9944 344.465 56.7249 343.279 51.8274C343.094 51.0436 342.686 50.3309 342.103 49.7769C341.205 48.9309 339.668 48.2769 337.505 49.9704C337.505 49.9704 326.949 57.0504 318.389 51.3579C318.389 51.3579 321.531 55.3839 325.949 55.2459C325.949 55.2489 317.389 56.4939 311.826 48.9969Z" fill="#FDB574" stroke="#FDB574" stroke-width="0.85" stroke-miterlimit="10" stroke-linejoin="round"/>
<path d="M334.366 48.9091C334.366 48.9091 343.21 62.3265 338.645 72.6C338.645 72.6 346.778 63.3 336.506 47.6086L334.366 48.9091Z" fill="#1B2E35" stroke="#1B2E35" stroke-width="0.85" stroke-miterlimit="10" stroke-linejoin="round"/>
<path d="M299.99 118.557C291.144 112.032 291.572 108.699 291.572 108.699C291.572 108.699 288.58 114.06 291.572 120.724C294.565 127.389 301.69 132.747 305.257 133.495C305.547 128.424 304.778 122.088 299.99 118.557Z" fill="#E6E6E6" stroke="#E6E6E6" stroke-width="0.85" stroke-miterlimit="10" stroke-linejoin="round"/>
<path d="M298.848 114.17C298.848 114.17 291.002 122.168 286.579 125.639C282.192 129.089 259.831 141.187 254.462 145.42L251.944 146.648C251.944 146.648 250.204 147.214 247.456 146.798C244.707 146.383 235.321 147.383 231.164 151.688C231.164 151.688 229.743 152.872 231.075 154.63C231.075 154.63 227.575 156.28 228.491 158.306C228.491 158.306 228.588 159.113 230.036 159.494C230.036 159.494 227.792 161.144 229.438 162.698C229.438 162.698 230.382 163.327 231.419 163.099C231.419 163.099 231.205 164.105 232.893 164.623C234.58 165.14 238.578 162.011 239.304 161.546C240.03 161.081 245.255 157.676 246.523 158.896C247.792 160.115 245.759 161.627 245.34 162.331C244.921 163.034 243.405 164.651 244.949 165.839C246.493 167.027 249.903 163.691 249.903 163.691C249.903 163.691 251.798 161.975 252.944 161.245C254.09 160.514 256.008 157.841 256.008 157.841C257.121 156.443 258.38 155.169 259.765 154.042L259.773 154.054L281.29 143.974C281.29 143.974 299.276 136.33 307.266 126.2L298.848 114.17Z" fill="#FDB574" stroke="#FDB574" stroke-width="0.85" stroke-miterlimit="10" stroke-linejoin="round"/>
<path d="M231.231 154.495C231.231 154.495 236.387 150.586 237.929 150.355C239.47 150.124 239.917 150.095 239.917 150.095" stroke="black" stroke-width="0.85" stroke-miterlimit="10" stroke-linejoin="round"/>
<path d="M230.328 159.422L237.881 154.432C238.152 154.251 238.445 154.107 238.753 154.003C239.322 153.809 240.262 153.52 240.848 153.484" stroke="black" stroke-width="0.85" stroke-miterlimit="10" stroke-linejoin="round"/>
<path d="M231.424 163.091C231.424 163.091 234.15 160.841 240.023 157.352C240.023 157.352 241.645 156.498 242.578 156.338" stroke="black" stroke-width="0.85" stroke-miterlimit="10" stroke-linejoin="round"/>
<path d="M396.329 109.801C396.38 109.634 396.401 109.459 396.392 109.285C392.266 108.487 383.27 108.468 374.74 119.946C374.74 119.946 373.028 123.417 370.461 124.389L376.985 131.739L387.579 119.98C387.579 119.98 395.379 114.799 396.329 109.801Z" fill="#E6E6E6" stroke="#E6E6E6" stroke-width="0.85" stroke-miterlimit="10" stroke-linejoin="round"/>
<path d="M318.682 86.9C316.85 87.89 313.024 90.3125 308.832 95.0885C302.983 101.753 296.421 108.695 291.57 108.695C291.57 108.695 291.142 112.028 299.988 118.553C304.776 122.084 305.549 128.42 305.254 133.491H305.266C305.266 133.491 322.144 124.976 325.757 119.607C325.757 119.607 325.238 109.386 325.238 100.631C325.238 93.581 320.514 88.5785 318.682 86.9Z" fill="#F5F5F5" stroke="#F5F5F5" stroke-width="0.85" stroke-miterlimit="10" stroke-linejoin="round"/>
<path d="M390.068 153.364C382.276 143.014 355.827 100.602 364.09 74.9339C363.749 74.8589 363.402 74.7839 363.052 74.7269C363.052 74.7269 361.789 74.5409 359.934 74.3624C357.805 80.7164 357.892 86.8649 356.204 96.0644C354.064 107.727 348.214 112.032 344.505 112.864C340.796 113.697 334.377 110.643 330.952 100.638C328.323 92.9534 324.053 87.3329 322.212 85.1384L319.818 86.3384C319.818 86.3384 319.407 86.5049 318.683 86.8964C320.516 88.5704 325.239 93.5729 325.239 100.63C325.239 109.386 325.758 119.607 325.758 119.607C325.758 119.607 325.378 127.197 329.753 132.381C334.128 137.565 330.252 153.202 330.252 153.202L390.068 153.364Z" fill="#667177" stroke="#667177" stroke-width="0.85" stroke-miterlimit="10" stroke-linejoin="round"/>
<path opacity="0.33" d="M385.038 110.637L369.747 118.273L371.057 126.325C361.641 130.63 336.816 147.285 336.816 147.285C336.816 147.285 333.683 150.061 331.806 152.037C331.24 152.657 330.709 153.308 330.214 153.987C329.634 154.455 328.784 155.149 327.557 156.172C325.462 157.923 323.894 158.337 323.695 158.467C323.181 158.806 322.569 159.489 323.437 160.554C323.942 161.178 324.617 161.355 325.253 161.34C320.799 168.442 323.562 168.39 323.562 168.39C324.831 169.131 327.24 165.058 327.24 165.058C327.24 165.058 330.532 160.368 330.792 160.738C331.052 161.109 327.304 166.23 327.304 166.416C327.304 166.602 323.182 172.093 325.591 172.602C328 173.11 331.806 166.971 331.932 166.786C332.058 166.602 334.785 162.774 334.913 163.336C335.04 163.899 332.377 167.536 332.377 167.536C329.523 172.35 331.552 172.536 331.552 172.536C332.884 172.905 333.454 171.979 335.8 168.903C338.146 165.826 339.541 164.703 339.922 164.821C340.304 164.94 339.542 167.043 339.542 167.043C339.162 169.443 341.444 168.832 341.444 168.832C343.473 168.154 344.807 160.77 345.932 157.021C347.058 153.273 347.945 152.439 349.224 151.744C350.122 151.257 360.73 147.295 373.912 142.075C386.751 136.989 388.892 133.14 389.748 127.725C390.604 122.31 385.038 110.637 385.038 110.637Z" fill="#1B2E35" stroke="#1B2E35" stroke-width="0.85" stroke-miterlimit="10" stroke-linejoin="round"/>
<path d="M330.768 151.148C330.768 151.148 330.071 151.643 326.965 154.235C324.87 155.984 323.3 156.398 323.103 156.528C322.588 156.867 321.976 157.55 322.843 158.615C324.153 160.227 326.583 158.862 326.583 158.862L330.768 151.148Z" fill="#FD9C64" stroke="#FD9C64" stroke-width="0.85" stroke-miterlimit="10" stroke-linejoin="round"/>
<path d="M384.445 108.699C384.445 108.699 390.008 120.361 389.152 125.776C388.296 131.191 386.159 135.04 373.317 140.127C360.475 145.213 349.92 149.103 348.629 149.796C347.338 150.489 346.458 151.324 345.337 155.073C344.217 158.821 342.878 166.206 340.849 166.884C340.849 166.884 338.565 167.502 338.945 165.094C338.945 165.094 339.707 162.994 339.327 162.873C338.947 162.751 337.551 163.879 335.205 166.956C332.859 170.032 332.289 170.958 330.957 170.587C330.957 170.587 328.927 170.401 331.781 165.588C331.781 165.588 334.443 161.947 334.325 161.388C334.207 160.828 331.472 164.658 331.345 164.838C331.217 165.018 327.412 171.162 325.003 170.653C322.594 170.145 326.715 164.653 326.715 164.467C326.715 164.281 330.456 159.16 330.203 158.79C329.95 158.419 326.652 163.11 326.652 163.11C326.652 163.11 324.242 167.182 322.975 166.441C322.975 166.441 319.683 166.503 326.081 157.246C326.081 157.246 329.341 152.064 331.217 150.088C333.094 148.113 336.227 145.336 336.227 145.336C336.227 145.336 361.054 128.686 370.47 124.378L369.159 116.325L384.445 108.699Z" fill="#FDB574" stroke="#FDB574" stroke-width="0.85" stroke-miterlimit="10" stroke-linejoin="round"/>
<path d="M374.74 119.946C383.268 108.468 392.265 108.487 396.392 109.285C396.375 108.376 395.805 106.368 391.764 104.062C386.247 100.912 383.014 91.9001 383.014 91.9001C383.014 91.9001 377.587 77.9502 364.08 74.9337C355.817 100.602 370.46 124.389 370.46 124.389C373.028 123.417 374.74 119.946 374.74 119.946Z" fill="#F5F5F5" stroke="#F5F5F5" stroke-width="0.85" stroke-miterlimit="10" stroke-linejoin="round"/>
<path d="M344.493 112.865C344.493 112.865 333.081 124.944 335.791 128.553C336.954 130.103 338.432 130.322 339.741 130.068C340.637 129.894 341.475 129.494 342.174 128.906C342.874 128.318 343.413 127.561 343.741 126.707C344.795 123.96 346.296 118.516 344.493 112.865Z" stroke="#F2F2F2" stroke-width="4.24" stroke-miterlimit="10" stroke-linejoin="round"/>
<path d="M344.5 112.865C344.5 112.865 340.556 122.446 347.235 128.832C347.235 128.832 349.637 131.192 353.774 127.032C357.911 122.873 356.627 121.202 355.343 119.813C354.06 118.424 347.615 113 344.5 112.865Z" stroke="#F2F2F2" stroke-width="4.24" stroke-miterlimit="10" stroke-linejoin="round"/>
<path d="M322.855 59.8165C322.855 59.8165 323.719 66.019 324.452 66.343C325.185 66.667 326.185 66.76 327.135 66.574" stroke="black" stroke-width="0.85" stroke-miterlimit="10" stroke-linejoin="round"/>
<path d="M328.484 69.8596C328.484 69.8596 330.759 69.6076 331.843 66.6676" stroke="black" stroke-width="0.85" stroke-miterlimit="10" stroke-linejoin="round"/>
<path d="M319.525 58.6622C319.42 58.5594 319.292 58.4833 319.152 58.4402C318.485 58.2332 315.984 57.5867 314.771 59.1707C314.771 59.1707 314.686 59.4707 315.099 59.3207C315.512 59.1707 316.296 58.0772 318.989 58.7837C318.989 58.7837 319.535 59.0207 319.622 58.8872C319.653 58.8197 319.592 58.7372 319.525 58.6622Z" fill="#1B2E35" stroke="#1B2E35" stroke-width="0.85" stroke-miterlimit="10" stroke-linejoin="round"/>
<path d="M326.512 56.3586C326.546 56.2177 326.615 56.088 326.714 55.9821C327.176 55.4691 328.979 53.6646 330.857 54.4161C330.857 54.4161 331.092 54.6336 330.651 54.7026C330.209 54.7716 328.967 54.2331 327.037 56.1846C327.037 56.1846 326.693 56.6601 326.549 56.5896C326.478 56.5581 326.488 56.4576 326.512 56.3586Z" fill="#1B2E35" stroke="#1B2E35" stroke-width="0.85" stroke-miterlimit="10" stroke-linejoin="round"/>
<path d="M316.823 62.7698C317.032 62.9901 317.317 63.1212 317.619 63.1357C317.922 63.1502 318.218 63.0471 318.447 62.8478C318.558 62.751 318.649 62.6327 318.714 62.4999C318.778 62.3671 318.815 62.2226 318.823 62.075C318.83 61.9274 318.808 61.7799 318.757 61.6412C318.706 61.5026 318.627 61.3757 318.526 61.2683C318.318 61.0473 318.033 60.9157 317.73 60.9012C317.427 60.8866 317.131 60.9902 316.903 61.1903C316.791 61.287 316.701 61.4053 316.636 61.5381C316.571 61.6709 316.534 61.8155 316.527 61.963C316.519 62.1106 316.542 62.2582 316.593 62.3968C316.644 62.5355 316.722 62.6623 316.823 62.7698Z" fill="black" stroke="black" stroke-width="0.85" stroke-miterlimit="10" stroke-linejoin="round"/>
<path d="M316.736 61.2869C316.736 61.2869 318.433 59.5724 320.252 61.2044C320.252 61.2044 320.402 61.5884 319.877 61.5359C319.352 61.4834 318.255 60.6659 317.103 61.6859L316.736 61.2869Z" fill="black"/>
<path d="M328.572 59.0853C328.78 59.3057 329.065 59.4368 329.368 59.451C329.67 59.4653 329.967 59.3617 330.195 59.1618C330.306 59.0651 330.397 58.9467 330.462 58.8139C330.526 58.6811 330.563 58.5366 330.571 58.389C330.578 58.2414 330.556 58.0939 330.505 57.9552C330.454 57.8166 330.375 57.6897 330.274 57.5823C330.066 57.362 329.781 57.2309 329.478 57.2163C329.176 57.2018 328.879 57.305 328.651 57.5043C328.539 57.6012 328.449 57.7196 328.384 57.8525C328.319 57.9855 328.282 58.1301 328.275 58.2778C328.267 58.4255 328.29 58.5732 328.341 58.712C328.392 58.8507 328.47 58.9777 328.572 59.0853Z" fill="black" stroke="black" stroke-width="0.85" stroke-miterlimit="10" stroke-linejoin="round"/>
<path d="M328.484 57.6028C328.484 57.6028 330.183 55.8868 332.002 57.5203C332.002 57.5203 332.152 57.9028 331.626 57.8518C331.101 57.8008 330.003 56.9818 328.852 58.0018L328.484 57.6028Z" fill="black"/>
<path d="M340.588 136.524C337.895 124.511 344.494 112.865 344.494 112.865C344.494 112.865 352.979 118.217 358.875 127.565" stroke="#F2F2F2" stroke-width="4.24" stroke-miterlimit="10" stroke-linejoin="round"/>
<path d="M296.91 116.108C296.91 116.108 299.126 117.856 299.985 118.556C300.844 119.257 303.89 121.312 305.137 128.606L302.357 131.21C302.357 131.21 303.121 122.042 293.898 119.06L296.91 116.108Z" fill="#FD816A" stroke="#FD816A" stroke-width="0.99" stroke-miterlimit="10" stroke-linejoin="round"/>
<path d="M385.385 110.749C385.385 110.749 378.888 113.52 373.564 121.8C373.564 121.8 379.294 115.878 386.929 114.687L385.385 110.749Z" fill="#FD816A" stroke="#FD816A" stroke-width="0.99" stroke-miterlimit="10" stroke-linejoin="round"/>
<path opacity="0.72" d="M325.298 106.047C325.298 106.047 325.438 115.369 325.76 119.614C325.76 119.614 321.966 125.061 305.262 133.495C305.262 133.495 305.612 130.795 305.146 128.604C305.142 128.599 319.225 124.869 325.298 106.047Z" fill="#D6D8E6" stroke="#D6D8E6" stroke-width="0.99" stroke-miterlimit="10" stroke-linejoin="round"/>
<path opacity="0.72" d="M364.087 108.985C364.087 108.985 366.141 116.684 370.462 124.39C370.462 124.39 372.47 124.12 374.742 119.947C374.742 119.947 378.74 113.858 385.386 110.753C385.386 110.75 367.666 119.117 364.087 108.985Z" fill="#D6D8E6" stroke="#D6D8E6" stroke-width="0.99" stroke-miterlimit="10" stroke-linejoin="round"/>
<path d="M329.273 74.6385C329.273 74.6385 334.117 73.2075 336.566 70.4821C336.566 70.4821 335.089 73.5886 330.605 76.524L329.273 74.6385Z" fill="#FD816A" stroke="#FD816A" stroke-miterlimit="10" stroke-linejoin="round"/>
<path d="M347.639 74.7729C347.639 74.7729 346.012 90.8409 338.682 92.0004C338.275 92.0652 337.858 92.0448 337.458 91.9403C336.727 91.7471 336.046 91.3963 335.464 90.9124C334.881 90.4285 334.411 89.8231 334.086 89.1384C334.086 89.1384 337.333 93.6383 341.06 89.6244C341.492 89.1553 341.868 88.6367 342.179 88.0794C343.295 86.1084 346.566 79.8084 346.455 73.8219L347.639 74.7729Z" fill="#FD816A"/>
<path d="M318.358 51.4055C318.358 51.4055 323.232 55.1554 331.563 52.7555C331.563 52.7555 325.452 55.22 320.256 53.2385C319.569 52.6864 318.934 52.0729 318.358 51.4055Z" fill="#FD816A" stroke="#FD816A" stroke-miterlimit="10" stroke-linejoin="round"/>
<path d="M311.748 48.8786C311.748 48.8786 314.835 53.4776 321.128 54.8891C321.128 54.8891 317.564 54.5786 314.902 53.3441C314.672 53.2395 314.42 53.1941 314.168 53.2119C313.916 53.2298 313.673 53.3104 313.46 53.4464C313.247 53.5824 313.071 53.7695 312.949 53.9908C312.826 54.2121 312.761 54.4605 312.758 54.7136C312.733 56.2991 312.994 58.5641 314.141 61.2986C314.141 61.2986 311.748 56.7026 311.748 48.8786Z" fill="#FD816A" stroke="#FD816A" stroke-miterlimit="10" stroke-linejoin="round"/>
<path d="M337.751 49.7789C337.751 49.7789 340.702 54.8114 341.317 59.0908L341.991 58.4263C341.991 58.4263 340.956 53.2199 338.251 49.4609L337.751 49.7789Z" fill="#FD816A" stroke="#FD816A" stroke-miterlimit="10" stroke-linejoin="round"/>
<path opacity="0.72" d="M357.143 89.1566C357.143 89.1566 355.998 113.307 341.757 112.857C341.758 112.849 353.701 108.663 357.143 89.1566Z" fill="#D6D8E6" stroke="#D6D8E6" stroke-miterlimit="10" stroke-linejoin="round"/>
<path d="M366.467 115.816C366.467 115.816 368.65 121.493 370.604 124.297C370.604 124.297 364.733 127.189 358.397 131.117C358.397 131.117 367.634 124.7 366.467 115.816Z" fill="#475960" stroke="#475960" stroke-miterlimit="10" stroke-linejoin="round"/>
<path opacity="0.56" d="M281.73 104.9L278.139 102.883V99.6651C278.137 99.5296 278.108 99.3958 278.054 99.2715C278 99.1472 277.922 99.0348 277.825 98.9406C277.728 98.8464 277.613 98.7724 277.487 98.7227C277.361 98.673 277.227 98.6487 277.092 98.6511H227.327C227.055 98.6483 226.793 98.7533 226.599 98.9433C226.404 99.1332 226.292 99.3927 226.287 99.6651V111.923C226.292 112.195 226.404 112.455 226.599 112.645C226.793 112.835 227.055 112.94 227.327 112.937H277.101C277.236 112.939 277.37 112.915 277.496 112.865C277.622 112.816 277.737 112.742 277.834 112.648C277.931 112.553 278.009 112.441 278.063 112.317C278.117 112.192 278.146 112.059 278.148 111.923V108.538L281.739 106.52C281.883 106.439 282.002 106.321 282.085 106.178C282.168 106.035 282.211 105.873 282.21 105.707C282.209 105.542 282.164 105.38 282.08 105.238C281.995 105.096 281.875 104.98 281.73 104.9Z" fill="#9CB8D8" stroke="#92A9D8" stroke-width="0.99" stroke-miterlimit="10" stroke-linejoin="round"/>
<path d="M283.068 102.801L279.477 100.783V97.5733C279.475 97.4378 279.446 97.304 279.392 97.1797C279.338 97.0554 279.26 96.943 279.163 96.8488C279.066 96.7546 278.951 96.6806 278.825 96.6309C278.699 96.5813 278.565 96.5569 278.43 96.5593H228.667C228.531 96.5569 228.397 96.5813 228.271 96.6309C228.145 96.6806 228.031 96.7546 227.933 96.8488C227.836 96.943 227.758 97.0554 227.704 97.1797C227.65 97.304 227.621 97.4378 227.619 97.5733V109.831C227.624 110.105 227.737 110.365 227.934 110.555C228.13 110.745 228.394 110.849 228.667 110.844H278.436C278.709 110.849 278.972 110.745 279.169 110.555C279.365 110.365 279.478 110.105 279.483 109.831V106.452L283.074 104.434C283.221 104.354 283.344 104.236 283.429 104.092C283.514 103.948 283.559 103.783 283.559 103.616C283.558 103.448 283.512 103.284 283.426 103.14C283.339 102.997 283.216 102.88 283.068 102.801Z" fill="white" stroke="white" stroke-width="0.85" stroke-miterlimit="10" stroke-linejoin="round"/>
<path d="M243.616 105.494C244.63 105.494 245.453 104.694 245.453 103.706C245.453 102.719 244.63 101.918 243.616 101.918C242.601 101.918 241.778 102.719 241.778 103.706C241.778 104.694 242.601 105.494 243.616 105.494Z" fill="#C8DCFF" stroke="#C8DCFF" stroke-width="0.85" stroke-miterlimit="10" stroke-linejoin="round"/>
<path d="M250.874 105.494C251.889 105.494 252.712 104.694 252.712 103.706C252.712 102.719 251.889 101.918 250.874 101.918C249.86 101.918 249.037 102.719 249.037 103.706C249.037 104.694 249.86 105.494 250.874 105.494Z" fill="#C8DCFF" stroke="#C8DCFF" stroke-width="0.85" stroke-miterlimit="10" stroke-linejoin="round"/>
<path d="M257.415 105.494C258.429 105.494 259.252 104.694 259.252 103.706C259.252 102.719 258.429 101.918 257.415 101.918C256.4 101.918 255.577 102.719 255.577 103.706C255.577 104.694 256.4 105.494 257.415 105.494Z" fill="#C8DCFF" stroke="#C8DCFF" stroke-width="0.85" stroke-miterlimit="10" stroke-linejoin="round"/>
<path d="M263.955 105.494C264.969 105.494 265.792 104.694 265.792 103.706C265.792 102.719 264.969 101.918 263.955 101.918C262.94 101.918 262.117 102.719 262.117 103.706C262.117 104.694 262.94 105.494 263.955 105.494Z" fill="#C8DCFF" stroke="#C8DCFF" stroke-width="0.85" stroke-miterlimit="10" stroke-linejoin="round"/>
<path opacity="0.31" d="M461.916 51.6932L455.013 39.6228L461.139 25.6338L412.42 51.4922L449.346 67.7447L451.389 55.1927L461.916 51.6932Z" fill="#007CFD" stroke="#007CFD" stroke-width="0.85" stroke-miterlimit="10" stroke-linejoin="round"/>
<path d="M412.271 49.1077L454.864 37.2397L461.768 49.3087L450.278 49.6102L421.456 49.3237L412.271 49.1077Z" fill="#959EA3" stroke="#959EA3" stroke-width="0.85" stroke-miterlimit="10" stroke-linejoin="round"/>
<path d="M412.271 49.1081L452.477 45.2202L461.768 49.3091L447.502 54.0521L423.377 50.6291L412.271 49.1081Z" fill="#717F86" stroke="#717F86" stroke-width="0.85" stroke-miterlimit="10" stroke-linejoin="round"/>
<path d="M460.991 23.2497L412.271 49.1082L454.864 37.2402L460.991 23.2497Z" fill="#E1E1E1" stroke="#E1E1E1" stroke-width="0.85" stroke-miterlimit="10" stroke-linejoin="round"/>
<path d="M412.271 49.1081L449.198 65.3606L452.477 45.2202L412.271 49.1081Z" fill="#E1E1E1" stroke="#E1E1E1" stroke-width="0.85" stroke-miterlimit="10" stroke-linejoin="round"/>
<path d="M44.4413 240.092C47.5318 238.809 48.9993 235.257 47.7192 232.159C46.4391 229.061 42.8961 227.589 39.8057 228.873C36.7153 230.156 35.2477 233.708 36.5278 236.806C37.8079 239.904 41.3509 241.376 44.4413 240.092Z" fill="#7CB1FF" stroke="#7CB1FF" stroke-width="0.85" stroke-miterlimit="10" stroke-linejoin="round"/>
<path d="M490.804 136.23C494.149 136.23 496.861 133.512 496.861 130.158C496.861 126.805 494.149 124.086 490.804 124.086C487.459 124.086 484.747 126.805 484.747 130.158C484.747 133.512 487.459 136.23 490.804 136.23Z" fill="#7CB1FF" stroke="#7CB1FF" stroke-width="0.85" stroke-miterlimit="10" stroke-linejoin="round"/>
<path d="M427.708 340.196L401.268 371.97" stroke="#0063D4" stroke-width="4.24" stroke-miterlimit="10" stroke-linejoin="round"/>
<path d="M427.671 340.173L401.224 371.94L401.321 372.021L427.769 340.255L427.671 340.173Z" fill="#0063D4" stroke="#0063D4" stroke-width="4.24" stroke-miterlimit="10" stroke-linejoin="round"/>
<path d="M436.958 345.201L452.464 368.589" stroke="#0063D4" stroke-width="4.24" stroke-miterlimit="10" stroke-linejoin="round"/>
<path d="M434.224 345.922L434.118 345.992L449.525 369.301L449.631 369.231L434.224 345.922Z" fill="#0063D4" stroke="#0063D4" stroke-width="4.22173" stroke-miterlimit="10" stroke-linejoin="round"/>
<path d="M422.036 339.181L398.831 356.828" stroke="#0063D4" stroke-width="4.24" stroke-miterlimit="10" stroke-linejoin="round"/>
<path d="M421.983 342.095L398.682 359.615L398.758 359.717L422.06 342.197L421.983 342.095Z" fill="#0063D4" stroke="#0063D4" stroke-width="4.24" stroke-miterlimit="10" stroke-linejoin="round"/>
<path d="M430.488 345.201L433.111 354.876" stroke="#0063D4" stroke-width="4.24" stroke-miterlimit="10" stroke-linejoin="round"/>
<path d="M432.234 348.2L432.11 348.233L434.711 357.959L434.834 357.925L432.234 348.2Z" fill="#0063D4" stroke="#0063D4" stroke-width="4.25798" stroke-miterlimit="10" stroke-linejoin="round"/>
<path d="M422.037 321.598C423.006 321.639 423.953 321.892 424.814 322.339C426.759 323.359 440.203 326.851 441.871 327.216C443.54 327.58 456.684 328.015 454.791 336.094L435.852 331.437L422.709 325.099L422.037 321.598Z" fill="#184C8F" stroke="#184C8F" stroke-width="0.85" stroke-miterlimit="10" stroke-linejoin="round"/>
<path opacity="0.36" d="M386.517 244.379C386.517 244.379 382.239 240.639 379.974 244.317C379.974 244.317 379.779 244.71 379.517 245.283C370.455 233.744 362.119 239.264 362.119 239.264C362.119 239.264 361.473 242.144 360.298 243.648C359.124 245.153 358.776 239.673 358.776 239.673C342.161 241.509 335.633 254.612 335.633 254.612C337.166 254.963 339.864 258.353 339.864 258.353C339.288 260.504 333.623 259.527 333.623 259.527C324.622 267.201 325.333 287.097 325.333 287.097C330.677 290.997 341.335 279.662 341.335 279.662C341.335 279.662 353.791 252.062 388.822 258.927C388.822 258.927 395.952 253.727 386.517 244.379Z" fill="#007CFD" stroke="#007CFD" stroke-width="0.85" stroke-miterlimit="10" stroke-linejoin="round"/>
<path d="M340.439 276.83C340.439 276.83 329.781 288.171 324.429 284.265C324.429 284.265 323.72 264.369 332.721 256.695C332.721 256.695 338.386 257.672 338.962 255.521C338.962 255.521 336.269 252.131 334.729 251.78C334.729 251.78 341.259 238.677 357.875 236.841C357.875 236.841 358.223 242.319 359.396 240.815C360.569 239.31 361.216 236.432 361.216 236.432C361.216 236.432 371.96 229.314 382.313 248.132L365.226 251.9L349.35 259.779L341.625 272.04L340.439 276.83Z" fill="#7DB1FD" stroke="#7DB1FD" stroke-width="0.85" stroke-miterlimit="10" stroke-linejoin="round"/>
<path d="M340.439 276.829C340.439 276.829 352.897 249.229 387.928 256.094C387.928 256.094 395.058 250.894 385.622 241.544C385.622 241.544 381.345 237.805 379.079 241.483C379.079 241.483 377.798 244.079 377.353 245.654C376.907 247.229 374.36 249.254 374.89 246.076C375.419 242.897 376.476 241.081 376.066 240.011C376.066 240.011 365.832 236.585 354.819 245.735C354.819 245.735 354.771 246.982 355.686 248.911C356.6 250.84 357.195 253.766 355.823 254.294C354.451 254.822 352.319 251.083 352.73 247.592C352.727 247.594 339.166 257.629 340.439 276.829Z" fill="#007CFD" stroke="#007CFD" stroke-width="0.85" stroke-miterlimit="10" stroke-linejoin="round"/>
<path opacity="0.36" d="M429.682 327.568C421.281 293.782 410.162 276.162 402.316 267.33C393.822 257.77 387.237 256.171 387.171 256.156L387.199 256.032C387.265 256.048 393.889 257.655 402.41 267.246C407.411 272.874 412.079 280.111 416.286 288.757C421.546 299.557 426.093 312.607 429.806 327.538L429.682 327.568Z" fill="#007CFD" stroke="#007CFD" stroke-width="0.85" stroke-miterlimit="10" stroke-linejoin="round"/>
<path d="M430.427 327.568C422.026 293.782 410.907 276.162 403.061 267.33C394.565 257.77 387.98 256.171 387.916 256.156L387.944 256.032C388.01 256.048 394.634 257.655 403.155 267.246C408.156 272.874 412.824 280.111 417.031 288.757C422.289 299.557 426.838 312.607 430.55 327.538L430.427 327.568Z" fill="#0063D4" stroke="#0063D4" stroke-width="4.24" stroke-miterlimit="10" stroke-linejoin="round"/>
<path d="M517.367 302.176C517.367 302.176 524.35 312.7 529.154 310.307C529.154 310.307 532.423 294.494 526.269 287.129C526.269 287.129 521.605 287.129 521.438 285.337C521.438 285.337 524.055 282.995 525.328 282.923C525.328 282.923 521.887 271.555 508.85 267.818C508.85 267.818 507.828 272.152 507.093 270.788C506.359 269.425 506.235 267.038 506.235 267.038C506.235 267.038 498.604 259.879 487.772 273.509L500.939 278.86L512.564 287.327L517.076 298.186L517.367 302.176Z" fill="#7DB1FD" stroke="#7DB1FD" stroke-width="0.85" stroke-miterlimit="10" stroke-linejoin="round"/>
<path d="M517.366 302.176C517.366 302.176 511.155 278.408 482.204 279.113C482.204 279.113 477.208 273.981 486.024 267.794C486.024 267.794 489.953 265.394 491.261 268.638C491.261 268.638 491.931 270.888 492.075 272.21C492.218 273.531 493.978 275.51 493.987 272.883C493.996 270.257 493.397 268.673 493.87 267.873C493.87 267.873 502.52 266.523 510.085 275.352C510.085 275.352 509.953 276.354 508.961 277.772C507.969 279.189 507.094 281.448 508.12 282.059C509.147 282.669 511.358 279.969 511.502 277.121C511.511 277.121 520.994 286.999 517.366 302.176Z" fill="#007CFD" stroke="#007CFD" stroke-width="0.85" stroke-miterlimit="10" stroke-linejoin="round"/>
<path d="M438.531 330.47L438.414 330.419C443.412 318.988 448.822 309.175 454.494 301.252C459.034 294.911 463.751 289.76 468.515 285.943C476.635 279.434 482.155 279.053 482.209 279.05V279.176C482.155 279.176 476.673 279.562 468.574 286.052C461.11 292.043 449.833 304.613 438.531 330.47Z" fill="#0063D4" stroke="#0063D4" stroke-width="4.24" stroke-miterlimit="10" stroke-linejoin="round"/>
<path d="M490.805 245.299C490.805 245.299 492.726 249.841 493.177 254.329C493.177 254.329 484.078 255.754 485.018 258.86C485.018 258.86 485.778 260.96 490.302 260.684C490.302 260.684 490.593 264.928 483.34 269.984C483.34 269.984 477.655 265.964 475.166 269.524C475.166 269.524 474.867 271.774 478.373 273.478C478.373 273.478 474.119 279.541 467.236 281.836C467.236 281.836 455.332 270.227 458.681 257.5C458.681 257.5 463.813 257.482 464.8 254.168C464.8 254.168 464.096 250.679 458.455 250.519L465.878 239.485L472.769 238.096L482.336 239.809L487.881 242.234L490.805 245.299Z" fill="#7DB1FD" stroke="#7DB1FD" stroke-width="0.85" stroke-miterlimit="10" stroke-linejoin="round"/>
<path opacity="0.61" d="M446.322 222.79C446.322 222.79 433.133 230.872 448.769 246.627C448.769 246.627 454.839 239.437 459.259 242.896L461.259 232.264L457.116 224.001L452.657 222.801L450.712 222.501L447.649 222.456L446.322 222.79Z" fill="#007CFD" stroke="#007CFD" stroke-width="0.85" stroke-miterlimit="10" stroke-linejoin="round"/>
<path d="M447.673 221.9C447.673 221.9 434.482 229.982 450.118 245.736C450.118 245.736 456.188 238.547 460.608 242.004L462.608 231.374L458.458 223.1L453.999 221.9L452.054 221.6L448.993 221.555L447.673 221.9Z" fill="#7DB1FD" stroke="#7DB1FD" stroke-width="0.85" stroke-miterlimit="10" stroke-linejoin="round"/>
<path d="M458.452 250.51C458.02 250.91 460.646 218.924 447.663 221.896C447.663 221.896 462.567 214.799 474.763 233.809C474.763 233.809 476.638 236.462 481.062 237.422C485.487 238.382 489.73 242.425 490.803 245.294C490.803 245.3 477.072 233.329 458.452 250.51Z" fill="#007CFD" stroke="#007CFD" stroke-width="0.85" stroke-miterlimit="10" stroke-linejoin="round"/>
<path d="M436.248 330.078C435.65 322.712 436.447 313.941 438.608 304.013C440.338 296.072 442.947 287.376 446.344 278.166C452.138 262.487 458.331 250.596 458.394 250.479L458.506 250.538C458.444 250.656 452.254 262.538 446.462 278.213C441.117 292.674 435.029 313.41 436.374 330.068L436.248 330.078Z" fill="#0063D4" stroke="#0063D4" stroke-width="4.24" stroke-miterlimit="10" stroke-linejoin="round"/>
<g opacity="0.36">
<path opacity="0.36" d="M428.033 259.291C428.033 259.291 425.14 250.648 410.995 253.199C410.995 253.199 398.798 255.76 396.203 250.523C396.203 250.523 395.343 247.55 398.851 247.655C402.36 247.76 409.588 247.355 409.69 244.774C409.792 242.192 402.224 244.051 402.224 244.051C402.224 244.051 387.935 246.787 384.634 240.799C381.333 234.811 385.457 235.09 385.457 235.09C385.457 235.09 396.405 235.012 398.522 233.042C400.639 231.073 399.869 227.993 397.835 228.958C395.802 229.922 384.83 234.466 377.95 230.942C371.071 227.419 374.976 225.401 374.976 225.401C374.976 225.401 381.959 222.206 380.539 220.876C379.119 219.545 372.857 218.735 371.562 220.426C371.562 220.426 368.66 203.302 390.492 196.342C390.492 196.342 396.236 208.468 398.181 205.163C400.126 201.859 397.479 195.638 395.479 194.65C395.479 194.65 407.262 194.158 412.572 201.275C412.572 201.275 414.804 209.156 413.688 211.205C413.688 211.205 415.445 213.536 417.728 210.815C420.011 208.094 416.658 202.265 416.658 202.265C416.169 200.21 419.651 201.484 419.236 201.254C422.489 203.08 432.764 212.978 432.693 216.901C432.623 220.823 431.496 230.678 433.319 229.501C435.141 228.323 436.337 223.607 437.29 222.31C438.243 221.012 438.551 221.927 438.946 223.93C439.341 225.932 444.177 244.921 428.033 259.291Z" fill="#007CFD" stroke="#007CFD" stroke-width="0.85" stroke-miterlimit="10" stroke-linejoin="round"/>
</g>
<path d="M427.496 259.279C427.496 259.279 426.921 249.307 412.776 251.858C412.776 251.858 400.577 254.419 397.984 249.182C397.984 249.182 397.122 246.208 400.631 246.314C404.14 246.421 411.368 246.014 411.471 243.433C411.574 240.851 404.003 242.71 404.003 242.71C404.003 242.71 389.714 245.446 386.415 239.458C383.116 233.47 387.237 233.749 387.237 233.749C387.237 233.749 398.186 233.669 400.302 231.701C402.417 229.733 401.648 226.651 399.616 227.615C397.585 228.58 386.611 233.125 379.73 229.6C372.849 226.075 376.755 224.06 376.755 224.06C376.755 224.06 383.738 220.864 382.318 219.533C380.898 218.203 374.638 217.394 373.341 219.083C373.341 219.083 370.438 201.959 392.27 194.999C392.27 194.999 398.014 207.124 399.961 203.821C401.907 200.518 399.257 194.296 397.258 193.307C397.258 193.307 409.04 192.814 414.351 199.933C414.351 199.933 416.584 207.812 415.466 209.861C415.466 209.861 417.223 212.192 419.506 209.473C421.789 206.753 418.436 200.923 418.436 200.923C418.436 200.923 417.761 198.086 421.014 199.912C424.267 201.737 434.542 211.636 434.471 215.558C434.401 219.481 433.274 229.334 435.097 228.158C436.919 226.982 438.116 222.263 439.069 220.967C440.022 219.671 440.329 220.583 440.726 222.587C441.122 224.591 443.64 244.91 427.496 259.279Z" fill="#007CFD" stroke="#007CFD" stroke-width="0.85" stroke-miterlimit="10" stroke-linejoin="round"/>
<path opacity="0.36" d="M432.034 327.27L431.908 327.255C431.915 327.194 432.656 320.916 432.394 309.45C432.158 298.868 431 281.574 426.836 259.292C422.672 237.01 410.042 222.542 400.179 214.327C389.49 205.417 379.659 201.727 379.561 201.691L379.604 201.571C379.703 201.607 389.551 205.303 400.252 214.226C406.536 219.466 411.888 225.458 416.151 232.034C421.479 240.256 425.114 249.417 426.955 259.268C431.122 281.562 432.279 298.868 432.517 309.45C432.779 320.925 432.041 327.209 432.034 327.27Z" fill="#007CFD" stroke="#007CFD" stroke-width="0.85" stroke-miterlimit="10" stroke-linejoin="round"/>
<path d="M432.629 327.27L432.503 327.255C432.503 327.194 433.251 320.916 432.991 309.45C432.753 298.868 431.596 281.574 427.431 259.292C423.265 237.01 410.639 222.542 400.775 214.327C390.086 205.417 380.254 201.727 380.157 201.691L380.201 201.571C380.299 201.607 390.148 205.303 400.849 214.226C407.133 219.466 412.486 225.458 416.748 232.034C422.076 240.256 425.712 249.417 427.552 259.268C431.719 281.562 432.877 298.868 433.115 309.45C433.375 320.925 432.638 327.209 432.629 327.27Z" fill="#0063D4" stroke="#0063D4" stroke-width="4.24" stroke-miterlimit="10" stroke-linejoin="round"/>
<path d="M419.148 327.216C419.148 327.216 417.623 323.36 420.744 321.758C420.744 321.758 422.196 321.249 423.288 322.049C424.38 322.848 440.709 333.231 453.027 333.825C453.423 333.839 453.805 333.981 454.115 334.229C454.498 334.548 454.863 335.112 454.791 336.095C454.642 338.058 453.177 338.811 452.469 338.678C451.761 338.544 440.349 339.806 440.349 339.806L419.808 332.091L419.148 327.216Z" fill="#7CB1FE" stroke="#7CB1FE" stroke-width="0.85" stroke-miterlimit="10" stroke-linejoin="round"/>
<path d="M419.146 327.217C419.146 327.217 412.54 343.881 428.722 350.139C428.722 350.139 448.612 356.178 452.458 338.678C452.464 338.678 425.897 333.839 419.146 327.217Z" fill="#007CFD" stroke="#007CFD" stroke-width="0.85" stroke-miterlimit="10" stroke-linejoin="round"/>
<path d="M419 327.05C419 327.05 428.061 334.818 452.529 338.583C452.529 338.583 451.012 355.485 428.643 350.117C428.643 350.117 436.913 336.231 418.469 328.689L419 327.05Z" fill="#0059EF" stroke="#0059EF" stroke-miterlimit="10" stroke-linejoin="round"/>
<path d="M427.744 324.613C427.744 324.613 438.243 329.299 448.018 330.199C448.018 330.199 453.973 331.003 454.437 334.451C454.437 334.451 443.281 333.626 427.744 324.613Z" fill="#182E72" stroke="#182E72" stroke-miterlimit="10" stroke-linejoin="round"/>
<path opacity="0.29" d="M159.535 138.958C147.695 138.456 138.167 130.957 135.263 128.417L134.347 127.579C135.353 124.868 133.864 123.348 132.526 122.571C131.841 122.178 131.09 121.915 130.31 121.794C128.823 121.554 124.656 120.705 123.797 118.635C123.348 117.539 122.89 117.062 122.522 116.873C122.432 116.829 122.333 116.806 122.232 116.805C122.132 116.803 122.032 116.824 121.94 116.865C121.849 116.906 121.767 116.967 121.701 117.043C121.635 117.119 121.586 117.208 121.557 117.305C120.836 119.567 120.574 122.573 120.532 125.484C120.106 133.999 121.307 147.343 131.109 156.471L131.139 156.502C134.937 160.32 139.276 163.014 143.269 164.902C146.968 166.746 151.349 168.352 156.165 169.009L156.264 169.023C157.376 169.213 159.236 170.775 157.162 162.064C155.088 153.354 161.715 143.965 163.118 141.723C164.522 139.48 159.535 138.958 159.535 138.958Z" fill="#9CB8D8" stroke="#92A9D8" stroke-width="0.99" stroke-miterlimit="10" stroke-linejoin="round"/>
<path d="M136.929 126.211C136.929 126.211 147.804 137.023 162.075 137.679C162.075 137.679 167.068 138.214 165.656 140.452C164.243 142.69 157.594 152.052 159.627 160.771C161.661 169.491 159.807 167.922 158.697 167.727C158.697 167.727 144.034 165.703 133.587 155.091C132.376 149.566 130.766 137.494 136.929 126.211Z" fill="#BFD8FF" stroke="#BFD8FF" stroke-width="0.91" stroke-miterlimit="10" stroke-linejoin="round"/>
<path d="M123.613 133.959C123.613 133.959 122.165 122.109 124.171 115.89C124.199 115.793 124.249 115.704 124.315 115.628C124.381 115.553 124.463 115.492 124.555 115.451C124.646 115.411 124.746 115.39 124.846 115.392C124.947 115.394 125.046 115.417 125.136 115.461C125.504 115.651 125.956 116.13 126.406 117.228C127.256 119.301 131.42 120.165 132.909 120.411C133.688 120.535 134.438 120.801 135.122 121.195C136.455 121.977 137.939 123.501 136.918 126.211C130.754 137.494 132.364 149.566 133.575 155.091C128.705 150.139 124.743 143.317 123.613 133.959Z" fill="#7CB1FF" stroke="#7CB1FF" stroke-width="0.91" stroke-miterlimit="10" stroke-linejoin="round"/>
<path opacity="0.34" d="M136.93 126.211C136.93 126.211 129.362 139.053 133.587 155.091C133.587 155.091 144.101 165.705 158.697 167.727C158.697 167.727 127.361 157.63 137.843 127.051L136.93 126.211Z" fill="#93B8FF" stroke="#93B8FF" stroke-width="0.99" stroke-miterlimit="10" stroke-linejoin="round"/>
<path opacity="0.82" d="M124.183 115.891C124.183 115.891 118.223 140.674 133.594 155.092C133.594 155.092 121.608 139.293 125.148 115.462C125.14 115.462 124.379 115.312 124.183 115.891Z" fill="#688FFF" stroke="#688FFF" stroke-width="0.99" stroke-miterlimit="10" stroke-linejoin="round"/>
<path opacity="0.29" d="M199.998 76.9362C199.973 76.9084 199.947 76.8823 199.919 76.8582C198.074 75.3687 195.37 74.0412 192.675 72.9582C184.905 69.4932 172.054 65.8122 160.032 71.6937L159.99 71.7117C155.07 73.8882 151.002 76.9767 147.812 80.0337C144.766 82.8282 141.701 86.3457 139.348 90.6162L139.3 90.7032C138.722 91.6752 136.607 92.8527 145.45 94.0572C154.292 95.2617 160.653 104.832 162.234 106.957C163.816 109.083 166.095 104.592 166.095 104.592C170.824 93.6987 181.232 87.4917 184.648 85.6917L185.755 85.1367C187.919 87.0537 189.868 86.2077 191.073 85.2372C191.685 84.7382 192.2 84.1306 192.593 83.4447C193.353 82.1382 195.644 78.5472 197.879 78.4947C199.063 78.4632 199.675 78.2112 199.974 77.9352C200.043 77.8725 200.099 77.7964 200.138 77.7114C200.177 77.6264 200.198 77.5343 200.2 77.4409C200.202 77.3474 200.186 77.2544 200.151 77.1677C200.116 77.0809 200.064 77.0021 199.998 76.9362Z" fill="#9CB8D8" stroke="#92A9D8" stroke-width="0.99" stroke-miterlimit="10" stroke-linejoin="round"/>
<path d="M185.728 87.6572C185.728 87.6572 171.829 94.1071 166.245 107.294C166.245 107.294 164.001 111.794 162.405 109.694C160.808 107.594 154.367 98.0761 145.506 96.9436C136.645 95.8111 138.758 94.6216 139.327 93.6436C139.327 93.6436 146.326 80.5742 159.889 74.4437C165.481 75.2432 177.324 77.9357 185.728 87.6572Z" fill="#BFD8FF" stroke="#BFD8FF" stroke-width="0.91" stroke-miterlimit="10" stroke-linejoin="round"/>
<path d="M183.121 72.4507C183.121 72.4507 194.711 75.2197 199.822 79.2682C199.901 79.3288 199.966 79.4057 200.013 79.4938C200.059 79.5818 200.087 79.6789 200.093 79.7785C200.099 79.8781 200.084 79.9778 200.048 80.0709C200.012 80.164 199.957 80.2484 199.886 80.3182C199.587 80.5972 198.975 80.8552 197.791 80.8957C195.557 80.9722 193.303 84.5842 192.554 85.8967C192.167 86.5839 191.658 87.194 191.051 87.6967C189.854 88.6792 187.909 89.5417 185.733 87.6442C177.329 77.9227 165.481 75.2302 159.895 74.4442C166.218 71.6002 173.976 70.2502 183.121 72.4507Z" fill="#7CB1FF" stroke="#7CB1FF" stroke-width="0.91" stroke-miterlimit="10" stroke-linejoin="round"/>
<path opacity="0.34" d="M185.729 87.6569C185.729 87.6569 176.358 76.0724 159.89 74.4569C159.89 74.4569 146.303 80.6399 139.327 93.6569C139.327 93.6569 159.676 67.7264 184.624 88.2284L185.729 87.6569Z" fill="#93B8FF" stroke="#93B8FF" stroke-width="0.99" stroke-miterlimit="10" stroke-linejoin="round"/>
<path opacity="0.82" d="M199.817 79.2677C199.817 79.2677 178.72 65.0343 159.886 74.4573C159.886 74.4573 178.834 68.6973 199.882 80.3252C199.882 80.3252 200.287 79.6607 199.817 79.2677Z" fill="#688FFF" stroke="#688FFF" stroke-width="0.99" stroke-miterlimit="10" stroke-linejoin="round"/>
</svg>
