<svg width="1370" height="460" viewBox="0 0 1370 460" fill="none" xmlns="http://www.w3.org/2000/svg">
<rect width="1370" height="460" rx="24" fill="white"/>
<g clip-path="url(#clip0_2_1514)">
<path d="M1286.59 214.859C1286.59 301.955 1144.82 377.696 1015.35 377.696C885.875 377.696 807.443 301.313 817.7 214.859C831.604 97.64 957.923 51.3949 1087.4 51.3949C1216.87 51.3949 1286.59 127.763 1286.59 214.859Z" fill="#F4F5F7" stroke="#F4F5F7" stroke-width="0.84" stroke-miterlimit="10" stroke-linejoin="round"/>
<path d="M1304.23 377.068C1304.23 395.252 1196.34 410 1063.25 410C919.141 410 834.878 387.871 822.275 377.068C800.746 358.615 846.017 294.454 979.109 294.454C1112.2 294.454 1304.23 341.432 1304.23 377.068Z" fill="#F0F0F0"/>
<path d="M1198.54 358.316C1195.76 386.571 1150.74 412.361 1065.33 403.934C979.915 395.506 919.738 362.873 922.519 334.618C925.3 306.363 990.007 293.184 1075.42 301.612C1160.83 310.039 1201.34 330.076 1198.54 358.316Z" fill="#E0E0E0" stroke="#E0E0E0" stroke-width="0.84" stroke-miterlimit="10" stroke-linejoin="round"/>
<path d="M1102.69 344.868C1106.1 353.744 1087.95 367.774 1062.47 377.531C1037 387.288 1017.19 391.143 1013.78 382.268C1010.37 373.392 1027.95 360.199 1053.41 350.442C1078.88 340.685 1099.3 336.008 1102.69 344.868Z" fill="#BDC1C4" stroke="#BDC1C4" stroke-width="0.55" stroke-miterlimit="10" stroke-linejoin="round"/>
<path d="M882.975 362.5C905.575 362.5 923.896 351.388 923.896 337.681C923.896 323.974 905.575 312.863 882.975 312.863C860.376 312.863 842.055 323.974 842.055 337.681C842.055 351.388 860.376 362.5 882.975 362.5Z" fill="#E0E0E0" stroke="#E0E0E0" stroke-width="0.84" stroke-miterlimit="10" stroke-linejoin="round"/>
<path d="M1137.08 117.02L1078.46 124.625L1078.11 126.463L1063.77 127.942L1041.9 236.674L1035.26 260.312L1108.25 268.844L1107.09 306.587L1105.34 306.288L1099.94 308.545V319.885L1127.76 326.998L1132.71 321.693V311.04L1117.19 308.35L1118.93 251.93L1131.8 252.961L1131.95 252.064L1140.79 252.602L1159.79 144.154C1162.35 128.196 1151.07 114.748 1137.08 117.02Z" fill="#E0E0E0" stroke="#E0E0E0" stroke-width="0.84" stroke-miterlimit="10" stroke-linejoin="round"/>
<path d="M1136.6 255.576L1051.71 250.466L1074.29 127.628L1132.91 120.023C1146.9 117.752 1158.17 131.214 1155.62 147.128L1136.6 255.576Z" fill="#BDC1C4" stroke="#BDC1C4" stroke-width="0.84" stroke-miterlimit="10" stroke-linejoin="round"/>
<path d="M1127.62 255.934L1035.92 248.568L1059.6 130.946L1121.59 124.535C1135.9 123.056 1147.68 135.592 1145.32 149.772L1127.62 255.934Z" fill="#889094" stroke="#889094" stroke-width="0.84" stroke-miterlimit="10" stroke-linejoin="round"/>
<path d="M1095.74 311.518L1123.56 317.196L1128.51 314.013L1101.14 309.277L1095.74 311.518Z" fill="#BDC1C4" stroke="#BDC1C4" stroke-width="0.84" stroke-miterlimit="10" stroke-linejoin="round"/>
<path d="M1109.66 320.259L1102.63 318.257L1105.29 231.758L1112.38 231.983L1109.66 320.259Z" fill="#667177" stroke="#667177" stroke-width="0.84" stroke-miterlimit="10" stroke-linejoin="round"/>
<path d="M1112.8 317.719L1109.66 320.259L1112.38 231.982L1115.44 232.072L1112.8 317.719Z" fill="#BDC1C4" stroke="#BDC1C4" stroke-width="0.84" stroke-miterlimit="10" stroke-linejoin="round"/>
<path d="M1123.56 329.986L1095.74 322.874V311.518L1123.56 317.196V329.986Z" fill="#667177" stroke="#667177" stroke-width="0.84" stroke-miterlimit="10" stroke-linejoin="round"/>
<path d="M1128.51 314.013V324.667L1123.56 329.986V317.196L1128.51 314.013Z" fill="#F0F0F0" stroke="#F0F0F0" stroke-width="0.84" stroke-miterlimit="10" stroke-linejoin="round"/>
<path d="M1196.3 345.227L1187.6 343.03V236.555H1196.3V345.227Z" fill="#667177" stroke="#667177" stroke-width="0.84" stroke-miterlimit="10" stroke-linejoin="round"/>
<path d="M1200.08 341.984L1196.3 345.227V236.555H1200.08V341.984Z" fill="#BDC1C4" stroke="#BDC1C4" stroke-width="0.84" stroke-miterlimit="10" stroke-linejoin="round"/>
<path d="M1150.73 404.232L1140.47 401.648V276.196H1150.73V404.232Z" fill="#667177" stroke="#667177" stroke-width="0.84" stroke-miterlimit="10" stroke-linejoin="round"/>
<path d="M1155.18 400.407L1150.73 404.232V276.196H1155.18V400.407Z" fill="#BDC1C4" stroke="#BDC1C4" stroke-width="0.84" stroke-miterlimit="10" stroke-linejoin="round"/>
<path d="M934.256 349.276L926.437 347.304V251.885H934.256V349.276Z" fill="#BDC1C4" stroke="#BDC1C4" stroke-width="0.84" stroke-miterlimit="10" stroke-linejoin="round"/>
<path d="M937.634 346.363L934.255 349.276V251.885H937.634V346.363Z" fill="#667177" stroke="#667177" stroke-width="0.84" stroke-miterlimit="10" stroke-linejoin="round"/>
<path d="M956.099 313.446L949.013 311.653V225.124H956.099V313.446Z" fill="#BDC1C4" stroke="#BDC1C4" stroke-width="0.84" stroke-miterlimit="10" stroke-linejoin="round"/>
<path d="M959.165 310.801L956.1 313.446V225.124H959.165V310.801Z" fill="#667177" stroke="#667177" stroke-width="0.84" stroke-miterlimit="10" stroke-linejoin="round"/>
<path d="M1123.56 225.453L1065.18 224.332L944.932 222.031L919.142 246.73L1042.2 257.1L1071.43 259.55L1074.35 259.804L1109.58 262.763L1161 267.096L1202.91 226.962L1123.56 225.453Z" fill="#E0E0E0" stroke="#E0E0E0" stroke-width="0.84" stroke-miterlimit="10" stroke-linejoin="round"/>
<path d="M1161.27 267.096L1202.91 226.962V242.875L1161.27 282.247V267.096Z" fill="#F0F0F0" stroke="#F0F0F0" stroke-width="0.84" stroke-miterlimit="10" stroke-linejoin="round"/>
<path d="M919.142 246.73V254.081L1041.44 268.306L1067.66 271.354L1102.3 275.389L1161.27 282.247V267.096L919.142 246.73Z" fill="#889094" stroke="#889094" stroke-width="0.84" stroke-miterlimit="10" stroke-linejoin="round"/>
<path d="M1131.32 200.619C1130.1 196.63 1118.42 162.652 1110.23 155.629C1106.55 152.477 1100.78 151.461 1100.78 151.461C1100.48 151.565 1093.08 151.012 1088.68 152.94C1088.56 152.985 1088.44 153.03 1088.32 153.059C1087.28 153.388 1086.26 153.792 1085.27 154.255C1084.15 154.793 1082.18 154.793 1080.46 149.877C1083.05 148.861 1083.43 146.007 1082.82 144.393C1082.12 142.525 1082.36 139.328 1082.36 139.328C1082.64 134.92 1081.16 132.186 1080.32 131.005C1081.36 132.021 1082.84 132.514 1082.84 132.514C1081.64 131.394 1080.55 129.406 1080 128.301C1079.67 127.628 1079.25 126.986 1078.77 126.403C1073.46 119.993 1068.84 124.162 1068.84 124.162C1067.09 121.562 1069.43 119.022 1069.43 119.022C1067.39 119.545 1067.3 124.386 1067.3 124.386C1064.79 122.593 1062.52 124.386 1061.19 124.386C1060.47 124.386 1059.45 124.102 1058.66 123.848C1057.03 123.295 1055.28 123.235 1053.62 123.669C1049.21 124.864 1047.43 129.078 1046.88 130.811C1047.12 129.571 1047.06 127.823 1047.06 127.823L1046.67 129.69C1044.05 139.582 1046.28 134.86 1051.35 135.129C1053.83 140.015 1061.23 159.111 1065.28 160.695C1065.28 160.695 1067.62 161.726 1070.07 161.173C1070.71 161.86 1071.19 162.697 1071.47 163.608L1061.85 169.6C1061.85 169.6 1055.57 173.365 1051.29 179.223C1047.01 185.08 1047 186.365 1044.17 187.56C1041.35 188.756 1006.36 198.423 999.935 201.994C999.935 201.994 1009.04 205.266 1008.25 217.026C1008.25 217.026 1058.15 205.431 1062.38 196.495L1062.32 204.968L1063.52 208.27L1063.22 208.434C1063.36 208.479 1063.51 208.539 1063.64 208.598L1074.27 218.37L1075.26 220.119L1079.68 221.598L1074.76 223.959C1075.24 226.454 1090.46 208.703 1090.46 208.703C1095.56 208.524 1094.45 226.573 1102.17 225.049L1127.66 225.498C1126.78 221.419 1125.61 217.743 1124.49 214.485C1126.61 213.604 1128.15 212.887 1128.9 212.424C1133.43 209.599 1131.32 200.619 1131.32 200.619Z" fill="#667177" stroke="#667177" stroke-width="0.84" stroke-miterlimit="10" stroke-linejoin="round"/>
<path d="M1142.68 260.357C1148.69 260.357 1153.55 258.731 1153.55 256.726C1153.55 254.721 1148.69 253.095 1142.68 253.095C1136.68 253.095 1131.82 254.721 1131.82 256.726C1131.82 258.731 1136.68 260.357 1142.68 260.357Z" fill="#BDC1C4" stroke="#BDC1C4" stroke-width="0.85" stroke-miterlimit="10" stroke-linejoin="round"/>
<path d="M1055.63 142.54C1055.63 142.54 1037.46 146.082 1041.51 129.959C1041.51 129.959 1043.14 125.761 1043.55 123.803C1043.55 123.803 1043.62 126.523 1043.16 127.703C1043.16 127.703 1044.5 121.054 1050.05 119.47C1051.69 119.022 1053.44 119.082 1055.06 119.664C1055.84 119.933 1056.85 120.232 1057.57 120.232C1058.9 120.232 1061.16 118.364 1063.64 120.232C1063.64 120.232 1063.71 115.167 1065.75 114.629C1065.75 114.629 1063.43 117.274 1065.18 120.008C1065.18 120.008 1069.77 115.645 1075.05 122.354C1075.53 122.966 1075.93 123.639 1076.26 124.341C1076.81 125.507 1077.89 127.584 1079.07 128.749C1079.07 128.749 1076.96 128.017 1076.03 126.463C1076.03 126.463 1078.99 129.496 1078.61 135.891C1078.61 135.891 1078.37 139.238 1079.07 141.181C1079.77 143.123 1079.14 146.784 1075.41 147.262L1055.63 142.54Z" fill="#1B2E35" stroke="#1B2E35" stroke-width="0.84" stroke-miterlimit="10" stroke-linejoin="round"/>
<path d="M1116.64 203.952H1090.28L1065.18 210.825V224.332L1123.56 225.453C1121.22 215.442 1116.64 203.952 1116.64 203.952Z" fill="#007DFE" stroke="#007DFE" stroke-width="0.84" stroke-miterlimit="10" stroke-linejoin="round"/>
<path d="M1083.36 156.347C1083.36 156.347 1084.84 156.078 1085.86 155.674L1088.08 158.887C1088.08 158.887 1090.93 212.214 1090.46 212.917C1090 213.619 1065.18 223.436 1065.18 223.436L1055.63 195.629L1063.57 168.061L1071.52 159.963L1083.36 156.347Z" fill="white" stroke="white" stroke-width="0.84" stroke-miterlimit="10" stroke-linejoin="round"/>
<path d="M1069.74 159.978L1058.21 167.553C1058.21 167.553 1051.98 171.498 1047.72 177.624C1043.46 183.75 1043.46 185.095 1040.66 186.35C1037.87 187.605 1003.1 197.721 996.706 201.456C996.706 201.456 1005.75 204.878 1004.96 217.19C1004.96 217.19 1054.48 213.918 1058.69 204.579C1058.69 204.579 1061.53 180.059 1067.45 166.208L1069.74 164.087V159.978Z" fill="#7CB1FF" stroke="#7CB1FF" stroke-width="0.84" stroke-miterlimit="10" stroke-linejoin="round"/>
<path d="M1065.18 157.587C1065.18 157.587 1068.1 159.559 1067.99 162.876L1067.47 166.193C1067.47 166.193 1068.31 169.003 1070.17 169.301C1072.04 169.6 1078.38 167.538 1083.36 156.317C1083.36 156.317 1077.23 153.717 1075.26 140.643L1065.18 157.587Z" fill="#FDB374" stroke="#FDB374" stroke-width="0.84" stroke-miterlimit="10" stroke-linejoin="round"/>
<path d="M1048.76 138.999C1048.76 138.999 1055.82 155.824 1061.65 158.199C1061.65 158.199 1065.91 160.172 1068.92 157.363C1071.92 154.554 1076.92 148.637 1076.5 144.797L1076.08 140.956C1076.08 140.956 1077.48 136.907 1076.38 134.203C1076.06 133.441 1075.41 132.873 1074.61 132.679C1073.57 132.44 1072.01 132.469 1071.25 134.337C1071.07 134.771 1071.02 135.249 1071.1 135.712L1071.52 138.237C1071.52 138.237 1070.59 139.686 1069.65 138.76C1068.71 137.834 1069.54 137.415 1067.68 136.369C1065.81 135.323 1065.07 133.456 1064.67 131.289C1064.67 131.289 1063.33 139.911 1052.52 139.806C1052.52 139.806 1059.06 139.178 1060.93 134.517C1060.92 134.546 1054.58 139.94 1048.76 138.999Z" fill="#FDB374" stroke="#FDB374" stroke-width="0.84" stroke-miterlimit="10" stroke-linejoin="round"/>
<path d="M1097.85 154.105C1097.85 154.105 1090.21 153.642 1085.84 155.659C1085.84 155.659 1076.5 182.45 1087.56 203.937L1114.68 199.26L1103.62 168.42L1097.85 154.105Z" fill="#7CB1FF" stroke="#7CB1FF" stroke-width="0.84" stroke-miterlimit="10" stroke-linejoin="round"/>
<path d="M1059.6 208.21C1059.6 208.21 1061.86 220.298 1065.78 224.9C1069.7 229.502 1071.55 228.904 1071.55 228.904L1075.26 220.119L1070.82 208.643L1065.42 207.433L1059.6 208.21Z" fill="#5F8FD9" stroke="#5F8FD9" stroke-width="0.84" stroke-miterlimit="10" stroke-linejoin="round"/>
<path d="M1061.02 225.871H1005.35L1030.29 244.563H1043.62C1043.62 244.563 1059.16 232.939 1058.84 232.087C1058.53 231.235 1061.02 225.871 1061.02 225.871Z" fill="#0062D1" stroke="#0062D1" stroke-width="0.84" stroke-miterlimit="10" stroke-linejoin="round"/>
<path d="M1067.66 271.354L1041.44 268.306C1043.53 276.106 1049.5 286.595 1049.5 286.595C1049.5 286.595 1051.41 290.36 1053.97 294.918C1054.27 294.499 1054.43 294.275 1054.43 294.275L1067.66 271.354Z" fill="#1C2D35" stroke="#1C2D35" stroke-width="0.84" stroke-miterlimit="10" stroke-linejoin="round"/>
<path d="M1083.38 305.347C1079.64 297.592 1075.17 287.985 1072.79 281.589L1061.04 294.38L1071.65 315.836C1074.91 314.805 1080.04 312.161 1083.38 305.347Z" fill="white" stroke="black" stroke-width="0.84" stroke-miterlimit="10" stroke-linejoin="round"/>
<path d="M1067.47 166.208C1067.47 166.208 1060.67 183.765 1058.71 204.579C1058.71 204.579 1056.99 209.54 1038.99 212.857L1038.54 201.785C1038.54 201.785 1052.37 203.847 1067.47 166.208Z" fill="#558EFF"/>
<path d="M1042.61 352.608C1042.61 352.608 1046.58 346.706 1051.78 339.325C1043.17 339.788 1037.73 336.172 1034.92 333.483L1028.55 342.702C1028.55 342.687 1033.96 347.513 1042.61 352.608Z" fill="#007DFD" stroke="#007DFD" stroke-width="0.84" stroke-miterlimit="10" stroke-linejoin="round"/>
<path d="M1051.79 339.325L1043.97 350.606L1030.18 340.326L1031.35 338.638C1031.35 338.638 1044.44 346.841 1051.79 339.325Z" fill="#0049E2" stroke="#0049E2" stroke-miterlimit="10" stroke-linejoin="round"/>
<path d="M1067.66 271.354L1056.37 290.898C1056.37 290.898 1059.16 278.646 1053.01 269.651L1067.66 271.354Z" fill="#12181B"/>
<path d="M1089.67 318.092C1089.67 318.092 1086.83 312.504 1083.38 305.332C1080.06 312.16 1074.91 314.79 1071.64 315.806L1076.02 324.652C1076 324.667 1082.04 322.575 1089.67 318.092Z" fill="#FDB374" stroke="#FDB374" stroke-width="0.84" stroke-miterlimit="10" stroke-linejoin="round"/>
<path d="M1051.78 339.325C1057.41 331.346 1064.48 321.619 1069.52 315.717L1050.35 311.115L1034.92 333.468C1037.73 336.172 1043.19 339.788 1051.78 339.325Z" fill="#FDB374" stroke="#FDB374" stroke-width="0.84" stroke-miterlimit="10" stroke-linejoin="round"/>
<path d="M1048.67 313.55C1048.67 313.55 1059.42 315.687 1063.34 323.471L1055.13 334.633C1055.13 334.633 1061.31 317.674 1047.67 315.014L1048.67 313.55Z" fill="#FD876E" stroke="#FD876E" stroke-miterlimit="10" stroke-linejoin="round"/>
<path d="M1083.61 305.84C1083.61 305.84 1079.58 315.074 1073.55 319.691L1074.48 321.559C1074.48 321.559 1078.8 319.706 1081.12 317.674C1081.12 317.674 1079.76 313.251 1084.14 306.901L1083.61 305.84Z" fill="#FD876E" stroke="#FD876E" stroke-miterlimit="10" stroke-linejoin="round"/>
<path d="M1054.42 294.275C1054.42 294.275 1054.25 294.514 1053.95 294.918C1052.02 297.652 1044.77 308.335 1046.13 313.132C1046.13 313.132 1059.86 314.252 1064.04 325.04C1064.04 325.04 1074.11 321.484 1078.76 314.118C1083.41 306.752 1091.39 291.227 1100 278.795C1100.84 277.6 1101.6 276.464 1102.32 275.389L1067.68 271.354L1054.42 294.275Z" fill="#3B464C" stroke="#3B464C" stroke-width="0.84" stroke-miterlimit="10" stroke-linejoin="round"/>
<path d="M1102.3 275.389C1102.3 275.389 1091.58 290.33 1084.83 303.703C1084.83 303.703 1077.84 321.126 1064.03 325.055C1064.03 325.055 1061.59 315.747 1046.12 313.147C1046.12 313.147 1071.97 319.617 1083.3 288.224C1085.24 282.83 1082.91 276.823 1077.83 274.133C1075.77 273.073 1073.58 272.281 1071.32 271.788L1102.3 275.389Z" fill="#2F393F" stroke="#2F3E46" stroke-miterlimit="10" stroke-linejoin="round"/>
<path d="M1061.4 208.464C1061.4 208.464 1053.68 210.033 1049.69 211.766C1045.7 213.499 1042.47 213.066 1041.35 213.156C1040.33 213.23 1037.72 214.142 1038.31 215.845C1038.45 216.219 1038.72 216.533 1039.05 216.742C1039.6 217.085 1040.65 217.638 1041.6 217.519C1041.6 217.519 1036.65 222.211 1037.43 223.6C1037.43 223.6 1038.39 225.513 1041.35 223.077C1044.31 220.642 1046.57 218.206 1046.57 218.819C1046.57 219.431 1038.04 226.036 1039.09 227.859C1039.09 227.859 1039.61 230.025 1043.17 227.336C1046.73 224.646 1050.13 220.821 1050.13 221.688C1050.13 222.554 1042.47 228.561 1044.2 230.384C1044.2 230.384 1045.57 232.52 1049.36 228.934C1053.16 225.348 1054.12 223.959 1054.21 224.915C1054.3 225.871 1050.04 229.652 1051.68 231.026C1053.32 232.401 1055.33 229.786 1056.46 228.396C1057.6 227.007 1062.82 222.405 1064.81 221.613C1066.8 220.821 1071.33 219.954 1071.33 219.954L1068.8 210.391L1061.4 208.464Z" fill="#FDB374" stroke="#FDB374" stroke-width="0.84" stroke-miterlimit="10" stroke-linejoin="round"/>
<path d="M1107.25 158.498C1115.39 165.85 1126.03 195.868 1127.26 200.037C1127.26 200.037 1129.35 209.42 1124.82 212.379C1120.29 215.337 1086.26 228.367 1071.53 228.89C1071.53 228.89 1071.41 212.902 1059.59 208.21C1059.59 208.21 1075.77 198.483 1098.21 193.701C1098.21 193.701 1085.33 172.036 1097.86 154.135C1097.86 154.12 1103.6 155.181 1107.25 158.498Z" fill="#7CB1FF" stroke="#7CB1FF" stroke-width="0.84" stroke-miterlimit="10" stroke-linejoin="round"/>
<path d="M993.596 342.762C988.692 337.233 983.22 336.486 980.065 336.606C979.542 339.22 979.348 346.288 988.901 354.85C988.901 354.85 1002.73 365.742 1005.2 368.536C1007.6 371.256 1016.66 380.639 1023.15 376.097C1014.54 373.676 1000.43 350.457 993.596 342.762Z" fill="#969D9F" stroke="#969D9F" stroke-width="0.84" stroke-miterlimit="10" stroke-linejoin="round"/>
<path d="M1000.13 333.587C994.015 330.27 984.102 326.699 980.38 335.515C980.245 335.873 980.14 336.232 980.081 336.606C983.235 336.486 988.722 337.248 993.611 342.762C994.673 343.957 995.899 345.511 997.259 347.304C1001.28 342.418 1000.98 337.039 1000.13 333.587Z" fill="#F5F5F5" stroke="#F5F5F5" stroke-width="0.84" stroke-miterlimit="10" stroke-linejoin="round"/>
<path d="M1045.03 345.944C1045.03 345.944 1038.72 344.853 1032.98 341.148C1030.64 343.523 1025.6 347.857 1019.15 349.097C1012.12 350.442 1003.67 344.032 1000.29 341.133C999.785 343.404 998.738 345.526 997.243 347.304C1004.66 357.136 1015.87 374.05 1023.15 376.082C1023.3 375.977 1023.45 375.873 1023.6 375.753C1030.1 370.449 1045.06 351.009 1045.06 351.009C1045.06 351.009 1047.93 347.647 1045.03 345.944Z" fill="#1B2E35" stroke="#1B2E35" stroke-width="0.84" stroke-miterlimit="10" stroke-linejoin="round"/>
<path d="M1019.15 349.097C1025.61 347.872 1030.63 343.524 1032.98 341.148C1032.54 340.864 1032.09 340.565 1031.66 340.251C1031.66 340.251 1029.4 337.711 1027.59 339.131C1025.79 340.55 1021.73 346.288 1016.9 344.779C1013.12 343.598 1008.08 339.355 1006.08 337.562C1005.3 336.874 1004.48 336.247 1003.61 335.679C1002.73 335.096 1001.52 334.349 1000.12 333.587C1000.61 335.604 1000.92 338.279 1000.28 341.133C1003.69 344.032 1012.12 350.442 1019.15 349.097Z" fill="#667177" stroke="#667177" stroke-width="0.84" stroke-miterlimit="10" stroke-linejoin="round"/>
<path d="M1068.38 360.378C1068.38 360.378 1082.7 354.401 1085.9 353.699C1089.03 353.012 1100.14 350.053 1099.42 343.12C1099.4 342.956 1099.39 342.791 1099.36 342.627C1099.27 342.164 1099.16 341.641 1099.03 341.073C1087.65 353.505 1055.84 359.123 1051.96 359.765C1052.08 359.825 1052.2 359.885 1052.32 359.93C1055.45 361.274 1061.29 362.828 1068.38 360.378Z" fill="#969D9F" stroke="#969D9F" stroke-width="0.84" stroke-miterlimit="10" stroke-linejoin="round"/>
<path d="M1058.84 341.432C1058.23 341.775 1057.54 342.179 1056.81 342.642C1053.65 344.644 1049.83 347.692 1048.48 351.263C1047.24 354.566 1048.81 358.256 1051.95 359.795C1058.65 358.645 1065.29 357.091 1071.8 355.133C1066.93 345.302 1062.24 342.164 1058.84 341.432Z" fill="#F5F5F5" stroke="#F5F5F5" stroke-width="0.84" stroke-miterlimit="10" stroke-linejoin="round"/>
<path d="M1089.49 315.522C1089.49 315.522 1088.13 311.877 1085.57 313.386C1085.57 313.386 1082.03 317.764 1076.72 320.603C1076.32 320.812 1075.9 321.036 1075.47 321.23L1075.36 321.26C1075.63 322.859 1075.99 325.369 1076.44 329.269C1077.4 337.457 1067.66 342.582 1064.03 344.211C1066.44 346.273 1069.1 349.665 1071.8 355.148C1081.9 352.115 1093.17 347.513 1099.01 341.118C1097 332.9 1089.49 315.522 1089.49 315.522Z" fill="#1B2E35" stroke="#1B2E35" stroke-width="0.84" stroke-miterlimit="10" stroke-linejoin="round"/>
<path d="M1076.44 329.254C1075.98 325.354 1075.63 322.844 1075.36 321.245C1074.85 321.38 1072.57 322.097 1072.87 323.875C1073.19 325.877 1075.87 331.451 1072.63 334.514C1070.1 336.904 1064.66 338.981 1062.43 339.758C1061.56 340.057 1060.73 340.416 1059.92 340.849C1059.6 341.013 1059.23 341.208 1058.84 341.432C1060.35 341.76 1062.1 342.567 1064.03 344.211C1067.66 342.582 1077.4 337.442 1076.44 329.254Z" fill="#667177" stroke="#667177" stroke-width="0.84" stroke-miterlimit="10" stroke-linejoin="round"/>
<path d="M1074.57 137.161C1074.57 137.161 1084.06 171.722 1067.18 184.183C1050.3 196.645 1017.28 205.535 1015.1 218.37" stroke="#0668D7" stroke-width="4.2" stroke-miterlimit="10" stroke-linejoin="round"/>
<path d="M1052.77 147.262C1052.77 147.262 1043.67 158.543 1052.5 177.758C1052.5 177.758 1058.74 185.932 1043.62 197.198" stroke="#0668D7" stroke-width="4.2" stroke-miterlimit="10" stroke-linejoin="round"/>
<path d="M1073.67 137.251C1073.67 136.519 1074.26 135.921 1074.99 135.921C1075.2 135.921 1075.41 135.966 1075.59 136.056C1074.97 135.503 1074.03 135.533 1073.48 136.145C1072.93 136.758 1072.96 137.699 1073.57 138.252C1073.97 138.626 1074.54 138.745 1075.05 138.566H1075C1074.27 138.566 1073.67 137.983 1073.67 137.251Z" fill="#243679"/>
<path d="M1076.08 137.161C1076.08 136.743 1075.9 136.339 1075.6 136.07C1074.94 135.742 1074.15 136.011 1073.82 136.668C1073.49 137.326 1073.76 138.118 1074.42 138.446C1074.6 138.536 1074.81 138.581 1075 138.581H1075.05C1075.66 138.386 1076.08 137.804 1076.08 137.161Z" fill="#244E88"/>
<path d="M1051.35 142.809C1051.35 142.809 1052.58 140.374 1056.13 141.345C1056.31 141.39 1056.43 141.569 1056.4 141.749C1056.39 141.853 1056.31 141.928 1056.22 141.958C1055.88 142.077 1053.86 140.882 1051.8 142.929C1051.8 142.914 1051.29 143.243 1051.35 142.809Z" fill="#1B2E35" stroke="#1B2E35" stroke-width="0.84" stroke-miterlimit="10" stroke-linejoin="round"/>
<path d="M1067.78 139.119C1067.78 139.119 1065.52 137.58 1062.88 140.135C1062.74 140.254 1062.73 140.463 1062.83 140.613C1062.89 140.688 1063 140.732 1063.1 140.703C1063.46 140.628 1064.66 138.626 1067.44 139.418C1067.44 139.418 1068.05 139.462 1067.78 139.119Z" fill="#1B2E35" stroke="#1B2E35" stroke-width="0.84" stroke-miterlimit="10" stroke-linejoin="round"/>
<path d="M1056.4 143.586C1056.4 143.586 1054.6 142.496 1053.22 144.199C1053.14 144.304 1053.17 144.453 1053.26 144.528C1053.31 144.587 1053.38 144.602 1053.46 144.587C1053.7 144.543 1054.16 143.183 1056.21 143.796C1056.22 143.796 1056.64 143.84 1056.4 143.586Z" fill="black" stroke="black" stroke-width="0.84" stroke-miterlimit="10" stroke-linejoin="round"/>
<path d="M1055.42 144.737C1055.4 145.379 1054.88 145.887 1054.24 145.873C1053.59 145.858 1053.08 145.335 1053.1 144.692C1053.11 144.05 1053.64 143.557 1054.28 143.557C1054.92 143.557 1055.43 144.094 1055.42 144.737C1055.42 144.722 1055.42 144.722 1055.42 144.737Z" fill="black"/>
<path d="M1055.42 144.737C1055.4 145.379 1054.88 145.887 1054.24 145.873C1053.59 145.858 1053.08 145.335 1053.1 144.692C1053.11 144.05 1053.64 143.557 1054.28 143.557C1054.92 143.557 1055.43 144.094 1055.42 144.737ZM1055.42 144.737C1055.42 144.722 1055.42 144.722 1055.42 144.737Z" stroke="black" stroke-width="0.84" stroke-miterlimit="10" stroke-linejoin="round"/>
<path d="M1067.23 141.315C1067.23 141.315 1065.42 140.224 1064.04 141.928C1063.97 142.032 1064 142.182 1064.09 142.256C1064.13 142.316 1064.21 142.331 1064.28 142.316C1064.52 142.271 1064.99 140.912 1067.03 141.524C1067.05 141.524 1067.47 141.569 1067.23 141.315Z" fill="black" stroke="black" stroke-width="0.84" stroke-miterlimit="10" stroke-linejoin="round"/>
<path d="M1065.09 143.586C1065.73 143.586 1066.24 143.071 1066.24 142.436C1066.24 141.801 1065.73 141.285 1065.09 141.285C1064.45 141.285 1063.94 141.801 1063.94 142.436C1063.94 143.071 1064.45 143.586 1065.09 143.586Z" fill="black" stroke="black" stroke-width="0.84" stroke-miterlimit="10" stroke-linejoin="round"/>
<path d="M1059.51 143.945C1059.51 143.945 1059.77 149.952 1060.04 150.998C1060.32 152.043 1063.52 150.998 1063.52 150.998" stroke="black" stroke-width="0.84" stroke-miterlimit="10" stroke-linejoin="round"/>
<path d="M1064.84 155.136C1064.84 155.136 1067.54 154.464 1067.65 150.953" stroke="black" stroke-width="0.84" stroke-miterlimit="10" stroke-linejoin="round"/>
<path d="M1066.39 158.722C1066.39 158.722 1070.31 157.422 1073.51 152.178C1073.51 152.178 1072.21 158.199 1067.63 160.814L1066.39 158.722Z" fill="#FD876E" stroke="#FD876E" stroke-miterlimit="10" stroke-linejoin="round"/>
<path d="M1064.66 131.319C1064.66 131.319 1063.54 136.803 1058 138.88C1058 138.88 1062.76 138.073 1065.18 133.306L1064.66 131.319Z" fill="#FD876E"/>
<path d="M1060.92 134.547C1060.92 134.547 1056.22 139.896 1049.24 140.12L1048.76 138.999C1048.76 138.999 1054.31 139.955 1060.92 134.547Z" fill="#FD876E"/>
<path d="M1072.42 132.933C1072.42 132.933 1070.79 133.919 1071.09 135.757L1071.5 138.282C1071.5 138.282 1070.95 132.963 1074.26 132.649C1074.27 132.649 1073.1 132.544 1072.42 132.933Z" fill="#FD876E" stroke="#FD876E" stroke-miterlimit="10" stroke-linejoin="round"/>
<path d="M1060.59 208.628C1060.59 208.628 1066.48 210.571 1069.98 220.193L1064.82 221.568C1064.82 221.568 1066.96 215.457 1059.72 208.808L1060.59 208.628Z" fill="#FD876E" stroke="#FD876E" stroke-miterlimit="10" stroke-linejoin="round"/>
<path d="M1041.59 217.504C1041.59 217.504 1043.71 214.71 1045.58 213.634C1045.58 213.634 1041.26 216.174 1039.08 215.113L1039.03 216.727C1039.03 216.727 1040.69 217.758 1041.59 217.504Z" fill="#FD876E" stroke="#FD876E" stroke-miterlimit="10" stroke-linejoin="round"/>
<path d="M1076.08 140.971C1076.08 140.971 1077.2 138.133 1076.8 135.652C1076.8 135.652 1076.47 132.888 1074.6 132.709C1074.6 132.709 1078.61 132.694 1078.16 140.12C1078.16 140.12 1077.68 143.781 1078.96 144.602C1078.96 144.602 1078.5 146.351 1076.78 146.888C1076.8 146.888 1076.26 141.748 1076.08 140.971Z" fill="#122229"/>
<path d="M1066.24 120.875C1066.24 120.875 1073.13 120.202 1077.9 129.899C1077.9 129.914 1074.26 117.363 1066.24 120.875Z" fill="#122229"/>
<path d="M1048.76 138.999L1050.32 142.421C1050.32 142.421 1043.16 141.883 1043.62 135.443C1043.62 135.458 1046.13 139.044 1048.76 138.999Z" fill="#122229"/>
<path d="M1092.64 176.309C1092.64 176.309 1093.53 188.591 1098.21 193.686C1098.21 193.686 1091.31 195.225 1087.34 196.481C1087.34 196.481 1092.99 194.553 1092.76 188.576C1092.54 182.6 1091.82 181.569 1092.64 176.309Z" fill="#558EFF"/>
<path d="M1120.5 214.545C1120.9 214.829 1098.15 224.003 1091.58 224.825L1102.15 225.02C1102.15 225.02 1113.64 221.448 1120.75 215.457L1120.5 214.545Z" fill="#2E46FF" stroke="#2E46FF" stroke-miterlimit="10" stroke-linejoin="round"/>
<path opacity="0.75" d="M1059.6 208.21C1059.6 208.21 1065.15 209.435 1068.77 217.19C1068.77 217.19 1064.49 208.195 1076.63 200.201C1076.62 200.186 1064.01 204.953 1059.6 208.21Z" fill="#558EFF"/>
<path opacity="0.72" d="M997.243 347.304C999.396 350.068 1010.76 365.234 1010.76 365.234C1017.85 375.454 1023.15 376.082 1023.15 376.082C1030.34 370.778 1042.11 354.775 1045.06 350.995C1048 347.214 1045.03 345.944 1045.03 345.944L1040.99 344.883C1040.99 344.883 1021.21 369.851 1005.63 349.276C1005.63 349.276 1001.53 344.076 999.934 342.493L997.243 347.304Z" fill="#12181B"/>
<path opacity="0.17" d="M999.921 342.493C999.921 342.493 990.816 331.54 982.069 332.721L980.066 336.591C980.066 336.591 988.169 335.306 997.244 347.304L999.921 342.493Z" fill="#969D9F"/>
<path opacity="0.64" d="M980.065 336.606C980.065 336.606 989.215 335.993 997.229 347.319C1005.24 358.63 1015.41 374.02 1023.14 376.097C1023.14 376.097 1020.66 377.307 1014.57 372.855C1012.13 371.062 1010.01 368.895 1008.29 366.415C1004.02 360.318 993.551 346.138 987.077 344.091C986.27 343.837 985.417 344.271 985.148 345.063C985.118 345.137 985.104 345.227 985.089 345.302C984.834 346.871 985.253 349.844 988.886 354.85C988.901 354.85 978.495 346.93 980.065 336.606Z" fill="#667177" stroke="#667177" stroke-width="0.84" stroke-miterlimit="10" stroke-linejoin="round"/>
<path opacity="0.72" d="M1089.49 315.522C1089.49 315.522 1087.95 311.548 1085.57 313.386C1085.57 313.386 1079.31 319.826 1075.36 321.245L1076.44 329.254C1076.44 329.254 1078.37 337.562 1064.03 344.196C1064.03 344.196 1068.75 348.499 1071.8 355.133C1071.8 355.133 1083.41 351.517 1088.22 348.768C1088.23 348.768 1081.07 320.423 1089.49 315.522Z" fill="#12181B"/>
<path opacity="0.17" d="M1064.03 344.196C1064.03 344.196 1052.52 347.543 1049.12 352.877C1048.32 354.132 1048.24 355.716 1048.91 357.046C1049.45 358.077 1050.38 359.242 1051.95 359.795C1051.95 359.795 1067.39 357.793 1071.8 355.133C1071.82 355.133 1067.74 346.512 1064.03 344.196Z" fill="#969D9F"/>
<path opacity="0.64" d="M1051.96 359.795C1051.96 359.795 1069.67 358.092 1088.23 348.768C1088.23 348.768 1077.13 357.42 1056.88 361.304C1056.88 361.304 1052.8 360.169 1051.96 359.795Z" fill="#667177" stroke="#667177" stroke-width="0.84" stroke-miterlimit="10" stroke-linejoin="round"/>
<path opacity="0.35" d="M1067.47 166.208C1067.47 166.208 1060.38 185.498 1058.71 204.579L1059.89 208.001C1059.89 208.001 1062.1 206.402 1064.18 205.55C1064.18 205.55 1061.46 197.885 1067.06 178.476C1068.05 175.084 1070.2 172.155 1073.15 170.213C1075.35 168.748 1078.01 166.328 1079.98 162.413C1079.98 162.413 1075.51 169.51 1070.17 169.301C1070.16 169.316 1068.3 169.286 1067.47 166.208Z" fill="#BDD9FF" stroke="#BDD9FF" stroke-width="0.84" stroke-miterlimit="10" stroke-linejoin="round"/>
<path d="M1086.95 338.637C1075.5 338.428 1074.75 329.045 1074.75 329.045C1074.75 329.045 1061.65 329.762 1062.39 340.221" stroke="#F5F5F5" stroke-width="4.2" stroke-miterlimit="10" stroke-linejoin="round"/>
<path d="M1023.6 360.826C1019 350.606 1023.6 343.195 1023.6 343.195C1023.6 343.195 1013.35 336.471 1008.25 343.598" stroke="#F5F5F5" stroke-width="5.01" stroke-miterlimit="10" stroke-linejoin="round"/>
<path d="M1071.55 330.121C1069.07 330.21 1064.96 329.463 1062.16 324.114C1061.82 323.442 1062.07 322.62 1062.74 322.276C1063.01 322.142 1063.33 322.082 1063.63 322.142C1064.73 322.336 1066.24 322.829 1068.22 323.905C1073.09 326.564 1073.78 328.372 1074.75 329.03L1074.72 329.045C1073.78 329.717 1072.69 330.076 1071.55 330.121Z" stroke="#F5F5F5" stroke-width="4.2" stroke-miterlimit="10" stroke-linejoin="round"/>
<path d="M1074.75 329.045C1074.75 329.045 1069.98 317.704 1073.25 313.162C1074.06 312.041 1075.63 311.772 1076.77 312.579C1077.2 312.893 1077.53 313.341 1077.7 313.849C1078.46 316.135 1078.43 320.573 1074.75 329.045Z" stroke="#F5F5F5" stroke-width="4.2" stroke-miterlimit="10" stroke-linejoin="round"/>
<path d="M1020.67 341.282C1019.21 338.892 1017.68 334.379 1021.45 328.671C1021.93 327.954 1022.88 327.76 1023.6 328.223C1023.89 328.417 1024.11 328.686 1024.22 329.015C1024.62 330.21 1024.98 331.989 1024.99 334.544C1025.04 340.834 1023.62 342.523 1023.51 343.852L1023.48 343.837C1022.32 343.27 1021.35 342.388 1020.67 341.282Z" stroke="#F5F5F5" stroke-width="4.2" stroke-miterlimit="10" stroke-linejoin="round"/>
<path d="M1023.51 343.852C1023.51 343.852 1032.12 332.87 1038.45 333.602C1040.02 333.781 1041.14 335.201 1040.96 336.755C1040.88 337.353 1040.63 337.92 1040.21 338.369C1038.36 340.401 1033.95 342.836 1023.51 343.852Z" stroke="#F5F5F5" stroke-width="4.2" stroke-miterlimit="10" stroke-linejoin="round"/>
<path d="M1040.17 241.994L964.262 236.525C962.154 236.375 960.494 234.687 960.375 232.58L957.997 191.341C957.848 188.651 959.896 186.335 962.602 186.186C962.647 186.186 962.692 186.186 962.737 186.186L1032.99 184.183C1035.67 184.109 1037.91 186.201 1038.01 188.875L1040.17 241.994Z" fill="#BDD9FF" stroke="#BDD9FF" stroke-width="0.84" stroke-miterlimit="10" stroke-linejoin="round"/>
<path d="M1040.23 244.832L962.826 239.543C961.197 239.423 959.776 240.649 959.657 242.277C959.642 242.487 959.642 242.696 959.687 242.905C959.851 243.966 960.733 244.773 961.81 244.862L1037.3 251.795C1039.63 252.019 1041.98 251.362 1043.86 249.957L1058.24 239.184C1060.26 237.69 1061.46 235.329 1061.47 232.819V228.695L1040.23 244.832Z" fill="#BDC1C4" stroke="#BDC1C4" stroke-width="0.85" stroke-miterlimit="10" stroke-linejoin="round"/>
<path d="M1040.54 241.993L962.423 236.45L962.917 240.066C963.066 241.112 963.903 241.919 964.965 242.023L1037.72 248.956C1039.97 249.18 1042.25 248.523 1044.04 247.133L1057.91 236.36C1059.87 234.836 1061.02 232.49 1061.02 229.995V225.871L1040.54 241.993Z" fill="#7CB1FF" stroke="#7CB1FF" stroke-width="0.84" stroke-miterlimit="10" stroke-linejoin="round"/>
<path opacity="0.3" d="M957.998 191.356L960.375 232.595C960.375 232.595 960.973 236.54 964.263 236.54L1019.64 240.514C1019.64 240.514 974.459 235.569 969.959 185.991L962.738 186.201C962.738 186.201 957.744 187.022 957.998 191.356Z" fill="#7CB1FF" stroke="#7CB1FF" stroke-width="0.84" stroke-miterlimit="10" stroke-linejoin="round"/>
<path opacity="0.27" d="M962.423 236.45L1040.54 241.994C1040.54 241.994 1009.17 240.574 998.44 245.221L964.965 242.023C964.965 242.023 963.171 241.919 962.917 240.066C962.663 238.213 962.423 236.45 962.423 236.45Z" fill="#0062D1" stroke="#0062D1" stroke-width="0.84" stroke-miterlimit="10" stroke-linejoin="round"/>
<path d="M1161.46 237.974C1160.63 237.556 1159.67 237.377 1158.74 237.466C1158.67 237.72 1158.58 237.974 1158.5 238.243C1159.27 238.198 1160.01 238.348 1160.69 238.691C1163.29 240.021 1164.02 243.787 1162.32 247.119C1160.61 250.451 1157.13 252.064 1154.53 250.749C1154.33 250.645 1154.14 250.525 1153.96 250.406C1153.82 250.705 1153.69 250.989 1153.55 251.257C1153.81 251.467 1154.09 251.661 1154.39 251.81C1157.38 253.334 1161.37 251.467 1163.33 247.657C1165.29 243.846 1164.44 239.498 1161.46 237.974Z" fill="#0062D1" stroke="#0062D1" stroke-width="0.84" stroke-miterlimit="10" stroke-linejoin="round"/>
<path d="M1153.55 251.258C1153.69 250.974 1153.82 250.69 1153.96 250.406C1155.74 246.581 1157.41 241.62 1158.49 238.258C1158.58 237.989 1158.65 237.735 1158.73 237.481C1159.3 235.658 1159.64 234.478 1159.64 234.478C1142.52 240.948 1127.73 233.282 1127.73 233.282C1127.65 236.585 1132.04 253.215 1133.98 255.187C1135.93 257.16 1146.63 258.265 1150.47 255.725C1151.45 255.053 1152.51 253.394 1153.55 251.258Z" fill="#7CB1FF" stroke="#7CB1FF" stroke-width="0.84" stroke-miterlimit="10" stroke-linejoin="round"/>
<path d="M1159.92 233.835C1159.97 231.43 1152.78 229.323 1143.87 229.144C1134.96 228.964 1127.67 230.772 1127.63 233.178C1127.63 233.432 1127.69 233.671 1127.82 233.88C1130.74 232.76 1135.72 232.072 1141.35 232.192C1149.4 232.356 1156.02 234.074 1157.23 236.181C1158.91 235.524 1159.89 234.717 1159.92 233.835Z" fill="#BDD9FF" stroke="#BDD9FF" stroke-width="0.84" stroke-miterlimit="10" stroke-linejoin="round"/>
<path d="M1141.34 232.192C1139.38 232.147 1137.42 232.207 1135.48 232.371C1132.32 232.64 1129.65 233.178 1127.81 233.895C1129.01 236.002 1135.64 237.72 1143.67 237.885C1144.54 237.899 1145.41 237.899 1146.23 237.885C1150.8 237.78 1154.74 237.137 1157.2 236.196C1156.02 234.074 1149.38 232.356 1141.34 232.192Z" fill="#F5F5F5" stroke="#F5F5F5" stroke-width="0.84" stroke-miterlimit="10" stroke-linejoin="round"/>
<path opacity="0.62" d="M1138.05 232.371C1143.69 232.49 1148.64 233.208 1151.49 234.448C1152.69 234.956 1152.52 236.555 1151.25 236.839C1149.8 237.167 1148.1 237.72 1146.24 237.87C1150.82 237.765 1154.75 237.122 1157.22 236.181C1156.02 234.074 1149.38 232.356 1141.34 232.192C1139.38 232.147 1137.42 232.207 1135.48 232.371C1136.32 232.356 1137.17 232.356 1138.05 232.371Z" fill="#BDD9FF"/>
<path opacity="0.46" d="M1127.81 233.895C1127.81 233.895 1130.35 249.734 1134 255.172C1134 255.172 1137.33 257.922 1146.93 256.921C1145.38 256.622 1133.57 256.502 1134.22 242.053C1134.28 240.888 1135.06 239.902 1136.23 240.006C1141.01 240.485 1152.4 241.142 1157.93 236.047C1157.93 236.047 1153.02 238.841 1140.49 237.735C1140.47 237.72 1130.19 237.152 1127.81 233.895Z" fill="#007DFE" stroke="#007DFE" stroke-width="0.84" stroke-miterlimit="10" stroke-linejoin="round"/>
<path opacity="0.38" d="M1127.81 233.895C1127.81 233.895 1133.22 231.146 1144.42 232.341C1144.42 232.341 1156.25 233.178 1157.22 236.181C1157.22 236.181 1159.04 235.464 1159.42 234.881C1159.79 234.299 1144.49 225.841 1127.81 233.895Z" fill="#7CB1FF"/>
<path d="M1140.47 222.031C1140.47 222.031 1134.48 202.263 1158.97 195.479C1183.46 188.696 1202.01 178.177 1198.2 164.251C1194.38 150.325 1182.08 153.956 1182.08 153.956" stroke="#BDD9FF" stroke-width="5.01" stroke-miterlimit="10" stroke-linejoin="round"/>
<path d="M1145.6 220.701C1145.6 220.701 1151.06 200.381 1187.6 208.479C1224.14 216.578 1232.78 212.603 1237.68 207.433" stroke="#BDD9FF" stroke-width="5.01" stroke-miterlimit="10" stroke-linejoin="round"/>
<path d="M1112.99 240.768C1112.93 239.857 1112.69 238.901 1112.16 238.139C1112.05 237.152 1111.17 235.718 1108.52 235.27C1106.19 234.881 1094.62 233.462 1089.18 233.746C1088.04 233.805 1086.98 234.313 1086.23 235.15C1084.33 237.287 1080.64 241.964 1079.79 246.73C1079.79 246.73 1079.77 246.82 1079.76 246.984C1079.76 247.029 1079.76 247.089 1079.76 247.134C1079.76 247.089 1079.76 247.029 1079.76 246.984C1079.67 247.985 1079.44 251.586 1080.91 252.333C1081.12 252.423 1081.34 252.498 1081.57 252.528C1085.54 253.379 1103.44 254.425 1103.44 254.425C1103.56 254.425 1103.69 254.425 1103.81 254.41C1104.95 254.306 1106.03 253.887 1106.94 253.185C1107.52 252.737 1108.01 252.184 1108.4 251.556C1109.64 249.584 1111.14 246.865 1112.01 245.281C1112.75 243.921 1113.1 242.352 1112.99 240.768ZM1103.22 251.063H1103.31H1103.22ZM1103.31 251.063H1103.38H1103.31ZM1103.44 251.048H1103.38H1103.44L1103.62 251.018L1103.44 251.048ZM1083.54 249.524L1083.39 249.494L1083.54 249.524ZM1083.3 249.479L1083.17 249.45L1083.3 249.479ZM1083.06 249.45L1082.94 249.42L1083.06 249.45ZM1082.84 249.405L1082.72 249.375L1082.84 249.405ZM1082.63 249.36L1082.51 249.33L1082.63 249.36ZM1082.43 249.315L1082.25 249.27L1082.43 249.315ZM1082.15 249.255L1082.06 249.24L1082.15 249.255ZM1081.97 249.21L1081.9 249.196L1081.97 249.21ZM1081.81 249.166L1081.75 249.151L1081.81 249.166ZM1081.64 249.121L1081.58 249.106L1081.64 249.121ZM1081.49 249.076L1081.45 249.061L1081.49 249.076ZM1081.34 249.031L1081.31 249.016L1081.34 249.031ZM1079.94 247.911C1080.01 248.075 1080.12 248.224 1080.24 248.359C1080.12 248.224 1080.01 248.075 1079.94 247.911ZM1084.15 249.614L1083.88 249.584L1084.15 249.614C1088.32 250.137 1100.58 251.153 1103.11 251.063H1103.22H1103.11C1100.58 251.138 1088.32 250.122 1084.15 249.614ZM1083.63 249.539L1083.79 249.569L1083.63 249.539ZM1105.64 250.271L1105.74 250.182C1105.82 250.107 1105.91 250.017 1105.98 249.928C1105.91 250.017 1105.82 250.107 1105.74 250.182C1105.71 250.197 1105.67 250.227 1105.64 250.271Z" fill="#BDC1C4"/>
<path d="M1103.44 251.048H1103.38H1103.44ZM1103.44 251.048L1103.62 251.018L1103.44 251.048ZM1084.15 249.614L1083.88 249.584L1084.15 249.614ZM1084.15 249.614C1088.32 250.137 1100.58 251.153 1103.11 251.063H1103.22H1103.11C1100.58 251.138 1088.32 250.122 1084.15 249.614ZM1112.99 240.768C1112.93 239.857 1112.69 238.901 1112.16 238.139C1112.05 237.152 1111.17 235.718 1108.52 235.27C1106.19 234.881 1094.62 233.462 1089.18 233.746C1088.04 233.805 1086.98 234.313 1086.23 235.15C1084.33 237.287 1080.64 241.964 1079.79 246.73C1079.79 246.73 1079.77 246.82 1079.76 246.984C1079.76 247.029 1079.76 247.089 1079.76 247.134C1079.76 247.089 1079.76 247.029 1079.76 246.984C1079.67 247.985 1079.44 251.586 1080.91 252.333C1081.12 252.423 1081.34 252.498 1081.57 252.528C1085.54 253.379 1103.44 254.425 1103.44 254.425C1103.56 254.425 1103.69 254.425 1103.81 254.41C1104.95 254.306 1106.03 253.887 1106.94 253.185C1107.52 252.737 1108.01 252.184 1108.4 251.556C1109.64 249.584 1111.14 246.865 1112.01 245.281C1112.75 243.921 1113.1 242.352 1112.99 240.768ZM1103.22 251.063H1103.31H1103.22ZM1103.31 251.063H1103.38H1103.31ZM1083.54 249.524L1083.39 249.494L1083.54 249.524ZM1083.3 249.479L1083.17 249.45L1083.3 249.479ZM1083.06 249.45L1082.94 249.42L1083.06 249.45ZM1082.84 249.405L1082.72 249.375L1082.84 249.405ZM1082.63 249.36L1082.51 249.33L1082.63 249.36ZM1082.43 249.315L1082.25 249.27L1082.43 249.315ZM1082.15 249.255L1082.06 249.24L1082.15 249.255ZM1081.97 249.21L1081.9 249.196L1081.97 249.21ZM1081.81 249.166L1081.75 249.151L1081.81 249.166ZM1081.64 249.121L1081.58 249.106L1081.64 249.121ZM1081.49 249.076L1081.45 249.061L1081.49 249.076ZM1081.34 249.031L1081.31 249.016L1081.34 249.031ZM1079.94 247.911C1080.01 248.075 1080.12 248.224 1080.24 248.359C1080.12 248.224 1080.01 248.075 1079.94 247.911ZM1083.63 249.539L1083.79 249.569L1083.63 249.539ZM1105.64 250.271L1105.74 250.182C1105.82 250.107 1105.91 250.017 1105.98 249.928C1105.91 250.017 1105.82 250.107 1105.74 250.182C1105.71 250.197 1105.67 250.227 1105.64 250.271Z" stroke="#BDC1C4" stroke-width="0.84" stroke-miterlimit="10" stroke-linejoin="round"/>
<path d="M1114.25 236.047C1114.14 235.06 1113.26 233.626 1110.62 233.178C1108.28 232.789 1096.71 231.37 1091.27 231.654C1090.13 231.713 1089.07 232.222 1088.32 233.058C1086.42 235.195 1082.73 239.872 1081.88 244.638C1081.88 244.638 1081.86 244.728 1081.85 244.892C1081.82 245.714 1082.3 246.461 1083.06 246.775C1083.73 247.044 1084.74 247.313 1086.25 247.492C1090.42 248.015 1102.69 249.031 1105.2 248.956C1105.35 248.956 1105.46 248.941 1105.53 248.927C1106.61 248.762 1107.25 248.598 1107.83 248.06C1108.04 247.851 1108.24 247.627 1108.4 247.387C1109.18 246.297 1114.37 237.048 1114.25 236.047Z" fill="#BDD9FF" stroke="#BDD9FF" stroke-width="0.84" stroke-miterlimit="10" stroke-linejoin="round"/>
<path d="M1091.39 234.866C1089.98 236.435 1087.58 239.483 1086.74 242.83C1086.56 243.518 1086.98 244.22 1087.67 244.399C1087.71 244.414 1087.74 244.414 1087.78 244.429C1090.54 244.862 1097.22 245.819 1103.11 245.804C1104.22 245.804 1105.23 245.161 1105.73 244.175C1106.16 243.308 1106.62 242.352 1106.79 242.098C1106.79 242.098 1105.91 240.44 1106.79 239.797C1107.31 239.423 1107.85 239.08 1108.4 238.766L1109.21 236.794C1109.45 236.196 1109.16 235.524 1108.58 235.285C1108.52 235.255 1108.46 235.24 1108.4 235.225C1105.89 234.642 1100.1 233.507 1093.9 233.716C1092.93 233.731 1092.02 234.149 1091.39 234.866Z" fill="#F5F5F5" stroke="#F5F5F5" stroke-width="0.84" stroke-miterlimit="10" stroke-linejoin="round"/>
<path d="M1086.69 237.003C1087.44 237.003 1088.06 237.616 1088.06 238.363C1088.06 239.11 1087.44 239.722 1086.69 239.722C1085.95 239.722 1085.33 239.11 1085.33 238.363C1085.33 237.616 1085.95 237.003 1086.69 237.003Z" fill="#F5F5F5" stroke="#F5F5F5" stroke-width="0.84" stroke-miterlimit="10" stroke-linejoin="round"/>
<path d="M1111.51 237.242C1111.14 237.242 1110.84 236.943 1110.83 236.555C1110.83 236.181 1111.12 235.882 1111.51 235.882C1111.89 235.882 1112.19 236.181 1112.2 236.555C1112.2 236.943 1111.89 237.242 1111.51 237.242Z" fill="#F5F5F5" stroke="#F5F5F5" stroke-width="0.84" stroke-miterlimit="10" stroke-linejoin="round"/>
<path d="M1107.6 242.965L1109.63 238.348C1109.81 237.944 1110.29 237.75 1110.69 237.929L1111.09 238.109C1111.5 238.288 1111.69 238.766 1111.51 239.17L1109.48 243.787C1109.3 244.19 1108.82 244.384 1108.42 244.205L1108.01 244.026C1107.6 243.846 1107.42 243.368 1107.6 242.965Z" fill="#F5F5F5" stroke="#F5F5F5" stroke-width="0.84" stroke-miterlimit="10" stroke-linejoin="round"/>
<path d="M1110.5 249.494C1111.74 247.522 1113.23 244.803 1114.1 243.219C1114.85 241.829 1115.19 240.26 1115.09 238.691C1115.03 237.78 1114.79 236.824 1114.25 236.062C1114.35 237.048 1109.18 246.312 1108.4 247.403C1108.24 247.642 1108.04 247.866 1107.83 248.075C1107.97 249.181 1108.37 250.227 1109.03 251.123C1109.61 250.675 1110.11 250.122 1110.5 249.494Z" fill="#7CB1FF" stroke="#7CB1FF" stroke-width="0.84" stroke-miterlimit="10" stroke-linejoin="round"/>
<path d="M1107.83 248.075C1107.8 248.105 1107.77 248.135 1107.74 248.165L1107.71 248.18C1107.66 248.239 1107.58 248.284 1107.51 248.329L1107.48 248.344C1107.4 248.389 1107.34 248.434 1107.27 248.464L1107.24 248.478C1107.16 248.508 1107.09 248.553 1107.01 248.583L1106.98 248.598C1106.91 248.628 1106.82 248.658 1106.74 248.688L1106.71 248.703C1106.62 248.732 1106.53 248.747 1106.44 248.777L1106.41 248.792C1106.32 248.822 1106.22 248.837 1106.12 248.852H1106.09L1105.76 248.912H1105.71L1105.53 248.942L1105.47 248.957H1105.46H1105.38H1105.37H1105.28H1105.17C1105.64 249.689 1106.07 250.794 1105.88 252.333C1107.01 252.229 1108.1 251.81 1109 251.108C1108.34 250.212 1107.94 249.166 1107.8 248.06L1107.83 248.075Z" fill="#007DFE" stroke="#007DFE" stroke-width="0.84" stroke-miterlimit="10" stroke-linejoin="round"/>
<path d="M1105.2 248.971C1102.68 249.046 1090.42 248.03 1086.25 247.507C1085.24 247.402 1084.26 247.193 1083.3 246.879C1083.2 248.09 1083.32 249.3 1083.66 250.465C1087.64 251.317 1105.53 252.363 1105.53 252.363C1105.65 252.363 1105.79 252.363 1105.91 252.348C1106.1 250.794 1105.68 249.688 1105.2 248.971Z" fill="#7CB1FF" stroke="#7CB1FF" stroke-width="0.84" stroke-miterlimit="10" stroke-linejoin="round"/>
<path d="M1083.3 246.88C1083.21 246.85 1083.14 246.82 1083.05 246.79C1082.28 246.491 1081.79 245.729 1081.83 244.907C1081.74 245.908 1081.52 249.509 1082.99 250.256C1083.2 250.346 1083.42 250.421 1083.64 250.451C1083.31 249.3 1083.2 248.09 1083.3 246.88Z" fill="#007DFE" stroke="#007DFE" stroke-width="0.84" stroke-miterlimit="10" stroke-linejoin="round"/>
<path opacity="0.32" d="M1088.32 233.073C1086.42 235.21 1082.73 239.887 1081.88 244.653C1081.88 244.653 1081.86 244.743 1081.85 244.907C1081.82 245.729 1082.3 246.476 1083.06 246.79C1083.73 247.059 1084.74 247.328 1086.25 247.507C1090.42 248.03 1102.69 249.046 1105.2 248.971C1105.35 248.971 1105.46 248.956 1105.53 248.941C1106.61 248.777 1107.25 248.613 1107.83 248.075C1108.04 247.866 1108.24 247.641 1108.4 247.402C1080.92 246.506 1091.27 231.654 1091.27 231.654C1090.15 231.713 1089.07 232.221 1088.32 233.073Z" fill="#7CB1FF" stroke="#7CB1FF" stroke-width="0.84" stroke-miterlimit="10" stroke-linejoin="round"/>
<path d="M1034.74 151.446L1029.55 148.442V143.676C1029.55 142.839 1028.88 142.167 1028.04 142.167H956.055C955.233 142.182 954.56 142.839 954.56 143.676V161.875C954.56 162.712 955.233 163.384 956.07 163.384H1028.04C1028.88 163.384 1029.55 162.712 1029.55 161.875V156.84L1034.74 153.851C1035.41 153.463 1035.64 152.611 1035.26 151.954C1035.13 151.745 1034.95 151.565 1034.74 151.446Z" fill="#E0E0E0" stroke="#E0E0E0" stroke-width="0.84" stroke-miterlimit="10" stroke-linejoin="round"/>
<path d="M1036.98 148.144L1031.79 145.155V140.374C1031.79 139.537 1031.12 138.865 1030.28 138.865H958.312C957.475 138.865 956.802 139.537 956.802 140.374V158.573C956.802 159.41 957.475 160.082 958.312 160.082H1030.28C1031.12 160.082 1031.79 159.41 1031.79 158.573V153.538L1036.98 150.549C1037.66 150.161 1037.88 149.309 1037.49 148.637C1037.37 148.442 1037.19 148.263 1036.98 148.144Z" fill="white" stroke="white" stroke-width="0.84" stroke-miterlimit="10" stroke-linejoin="round"/>
<path d="M968.823 204.968C968.823 204.968 864.197 196.69 867.217 256.861C870.238 317.032 1214.96 257.025 1254.85 303.21C1294.73 349.396 1239.4 371.958 1239.4 371.958" stroke="#7CB1FF" stroke-width="5.87" stroke-miterlimit="10" stroke-linejoin="round"/>
<path d="M1239.67 371.017L1230.04 361.17L1193.15 385.107L1232.05 390.411L1230.69 377.501L1239.67 371.017Z" fill="#BDC1C4" stroke="#BDC1C4" stroke-width="0.84" stroke-miterlimit="10" stroke-linejoin="round"/>
<path d="M1232.15 345.675L1193.15 385.107L1229.71 361.334L1232.15 345.675Z" fill="#BDC1C4" stroke="#BDC1C4" stroke-width="0.84" stroke-miterlimit="10" stroke-linejoin="round"/>
<path d="M1193.44 382.268L1230.34 358.331L1239.97 368.178L1229.25 371.793L1202.11 379.832L1193.44 382.268Z" fill="#7CB1FF" stroke="#7CB1FF" stroke-width="0.84" stroke-miterlimit="10" stroke-linejoin="round"/>
<path d="M1193.44 382.268L1230.18 366.848L1239.97 368.178L1227.8 376.949L1204.27 380.55L1193.44 382.268Z" fill="#0062D1" stroke="#0062D1" stroke-width="0.84" stroke-miterlimit="10" stroke-linejoin="round"/>
<path d="M1232.45 342.821L1193.44 382.268L1230.01 358.48L1232.45 342.821Z" fill="#BDD9FF" stroke="#BDD9FF" stroke-width="0.84" stroke-miterlimit="10" stroke-linejoin="round"/>
<path d="M1193.44 382.268L1232.35 387.557L1230.18 366.848L1193.44 382.268Z" fill="#BDD9FF" stroke="#BDD9FF" stroke-width="0.84" stroke-miterlimit="10" stroke-linejoin="round"/>
<path d="M880.232 307.781L872.39 365.435L872.508 365.451L880.35 307.797L880.232 307.781Z" fill="#1B4C8F" stroke="#1B4C8F" stroke-width="4.2" stroke-miterlimit="10" stroke-linejoin="round"/>
<path d="M898.929 301.999L898.825 302.059L924.736 347.115L924.84 347.056L898.929 301.999Z" fill="#1B4C8F" stroke="#1B4C8F" stroke-width="4.2145" stroke-miterlimit="10.0344" stroke-linejoin="round"/>
<path d="M875.099 300.77L854.832 324.559L854.923 324.636L875.19 300.847L875.099 300.77Z" fill="#1B4C8F" stroke="#1B4C8F" stroke-width="4.2" stroke-miterlimit="10" stroke-linejoin="round"/>
<path d="M889.853 299.057H889.733V317.196H889.853V299.057Z" fill="#1B4C8F" stroke="#1B4C8F" stroke-width="4.2" stroke-miterlimit="10" stroke-linejoin="round"/>
<path d="M869.849 285.355C870.761 284.966 871.762 284.787 872.749 284.817C875.007 284.906 889.016 282.247 890.735 281.843C892.454 281.44 904.833 276.091 906.628 284.398L886.982 288.403L872.002 288.313L869.849 285.355Z" fill="#0062D1" stroke="#0062D1" stroke-width="0.84" stroke-miterlimit="10" stroke-linejoin="round"/>
<path d="M774.447 279.722C774.447 279.722 769.514 294.903 762.846 293.633C762.846 293.633 753.471 275.523 758.465 264.466C758.465 264.466 764.161 262.882 763.743 260.641C763.743 260.641 759.751 258.684 758.166 259.027C758.166 259.027 758.495 244.026 773.117 235.031C773.117 235.031 775.838 239.946 776.271 238.049C776.705 236.151 776.047 233.193 776.047 233.193C776.047 233.193 782.91 221.882 800.776 234.762L786.543 245.759L775.255 260.028L773.446 274.776L774.447 279.722Z" fill="#7CB1FF" stroke="#7CB1FF" stroke-width="0.84" stroke-miterlimit="10" stroke-linejoin="round"/>
<path d="M774.447 279.722C774.447 279.722 773.923 248.703 809.476 239.678C809.476 239.678 813.812 231.729 800.954 227.216C800.954 227.216 795.348 225.632 794.855 230.025C794.855 230.025 794.81 232.984 795.079 234.642C795.348 236.301 793.883 239.289 792.971 236.107C792.059 232.924 792.253 230.787 791.401 229.98C791.401 229.98 780.397 231.295 774.178 244.608C774.178 244.608 774.686 245.789 776.375 247.164C778.065 248.538 779.904 251.004 778.857 252.094C777.811 253.185 774.193 250.66 773.056 247.253C773.056 247.253 764.863 262.494 774.447 279.722Z" fill="#0062D1" stroke="#0062D1" stroke-width="0.84" stroke-miterlimit="10" stroke-linejoin="round"/>
<path d="M880.269 287.208C857.663 259.625 839.633 248.18 828.479 243.443C816.399 238.318 809.567 239.722 809.507 239.737L809.477 239.618C809.552 239.603 816.399 238.183 828.509 243.323C835.626 246.342 843.131 250.989 850.816 257.145C860.429 264.84 870.372 274.925 880.359 287.118L880.269 287.208Z" fill="#1B4C8F" stroke="#1B4C8F" stroke-width="4.2" stroke-miterlimit="10" stroke-linejoin="round"/>
<path d="M949.895 225.528C949.895 225.528 960.989 232.207 964.397 227.888C964.397 227.888 960.51 211.811 951.57 207.687C951.57 207.687 947.249 209.734 946.292 208.15C946.292 208.15 947.697 204.833 948.849 204.205C948.849 204.205 940.67 195.196 926.931 197.452C926.931 197.452 927.873 201.919 926.602 200.978C925.331 200.037 924.165 197.885 924.165 197.885C924.165 197.885 913.953 194.598 909.857 211.975L924.419 211.153L938.921 213.888L947.862 221.956L949.895 225.528Z" fill="#7CB1FF" stroke="#7CB1FF" stroke-width="0.84" stroke-miterlimit="10" stroke-linejoin="round"/>
<path d="M949.894 225.528C949.894 225.528 933.718 206.252 907.135 219.596C907.135 219.596 900.243 217.041 905.73 207.433C905.73 207.433 908.331 203.488 910.963 205.909C910.963 205.909 912.577 207.702 913.28 208.852C913.983 210.003 916.494 211.064 915.343 208.643C914.192 206.223 912.951 204.997 913.041 204.056C913.041 204.056 920.486 199.021 931.37 203.862C931.37 203.862 931.684 204.848 931.385 206.596C931.086 208.344 931.266 210.825 932.477 210.929C933.688 211.034 934.57 207.567 933.449 204.878C933.478 204.908 946.605 209.883 949.894 225.528Z" fill="#0062D1" stroke="#0062D1" stroke-width="0.84" stroke-miterlimit="10" stroke-linejoin="round"/>
<path d="M888.926 286.341C888.567 273.566 889.284 262.105 891.079 252.273C892.514 244.414 894.637 237.571 897.388 231.938C902.082 222.345 907.031 219.581 907.091 219.551L907.151 219.655C907.106 219.685 902.172 222.45 897.492 232.012C893.172 240.843 888.208 257.428 889.045 286.326L888.926 286.341Z" fill="#1B4C8F" stroke="#1B4C8F" stroke-width="4.2" stroke-miterlimit="10" stroke-linejoin="round"/>
<path d="M900.303 184.527C900.303 184.527 904.07 187.889 906.463 191.849C906.463 191.849 898.643 197.168 900.871 199.618C900.871 199.618 902.501 201.232 906.582 198.991C906.582 198.991 908.705 202.786 904.19 210.66C904.19 210.66 897.148 209.435 896.401 213.828C896.401 213.828 897.103 216.039 901.11 216.084C901.11 216.084 899.809 223.57 894.427 228.71C894.427 228.71 878.28 223.182 875.828 209.928C875.828 209.928 880.583 207.657 880.045 204.161C880.045 204.161 877.862 201.232 872.554 203.563L874.617 190.085L880.403 185.782L890.032 183.167L896.251 182.988L900.303 184.527Z" fill="#7CB1FF" stroke="#7CB1FF" stroke-width="0.84" stroke-miterlimit="10" stroke-linejoin="round"/>
<path d="M849.978 181.793C849.978 181.793 841.262 195.061 862.687 202.786C862.687 202.786 865.183 193.462 870.79 194.732L867.994 184.004L860.519 178.177L855.854 179.013L853.911 179.596L851.04 180.896L849.978 181.793Z" fill="#7CB1FF" stroke="#7CB1FF" stroke-width="0.84" stroke-miterlimit="10" stroke-linejoin="round"/>
<path d="M872.539 203.548C872.314 204.116 860.743 173.336 849.978 181.793C849.978 181.793 860.713 168.674 880.373 180.926C880.373 180.926 883.273 182.555 887.803 181.509C892.334 180.463 898.045 182.331 900.302 184.527C900.302 184.527 882.302 179.477 872.539 203.548Z" fill="#0062D1" stroke="#0062D1" stroke-width="0.84" stroke-miterlimit="10" stroke-linejoin="round"/>
<path d="M886.773 286.969C882.991 280.409 879.896 271.937 877.549 261.806C875.68 253.693 874.289 244.504 873.407 234.478C871.912 217.414 872.465 203.683 872.465 203.548H872.585C872.585 203.683 872.032 217.399 873.527 234.463C874.902 250.197 878.326 272.072 886.878 286.909L886.773 286.969Z" fill="#1B4C8F" stroke="#1B4C8F" stroke-width="4.2" stroke-miterlimit="10" stroke-linejoin="round"/>
<path d="M847.616 225.259C847.616 225.259 842.712 216.279 830.691 224.84C830.691 224.84 820.48 232.565 815.785 228.86C815.785 228.86 813.677 226.484 816.981 225.034C820.286 223.585 826.819 220.044 825.787 217.608C824.756 215.173 818.536 220.223 818.536 220.223C818.536 220.223 806.456 229.024 800.775 224.93C795.094 220.836 799.041 219.282 799.041 219.282C799.041 219.282 809.177 214.411 810.284 211.647C811.39 208.882 809.312 206.387 807.862 208.165C806.411 209.943 798.188 218.968 790.249 218.729C782.311 218.49 785.062 214.904 785.062 214.904C785.062 214.904 790.145 208.882 788.246 208.27C786.347 207.657 780.173 209.659 779.709 211.796C779.709 211.796 769.513 197.213 786.736 181.18C786.736 181.18 797.381 189.891 797.74 185.976C798.099 182.062 792.911 177.46 790.623 177.43C790.623 177.43 801.358 171.797 809.401 176.055C809.401 176.055 814.933 182.375 814.784 184.766C814.784 184.766 817.445 186.156 818.357 182.629C819.269 179.103 813.618 175.173 813.618 175.173C813.618 175.173 811.749 172.842 815.561 173.111C819.374 173.38 833.263 178.027 834.922 181.688C836.582 185.349 839.841 194.971 841.022 193.074C842.203 191.176 841.247 186.29 841.561 184.676C841.875 183.063 842.562 183.765 843.803 185.453C845.044 187.142 856.317 204.863 847.616 225.259Z" fill="#0062D1" stroke="#0062D1" stroke-width="0.84" stroke-miterlimit="10" stroke-linejoin="round"/>
<path d="M882.063 285.997C882.048 285.938 879.97 279.797 874.722 269.292C869.863 259.595 861.222 244.1 847.587 225.289C833.952 206.477 815.891 198.632 803.123 195.36C789.294 191.804 778.544 192.7 778.439 192.715L778.424 192.596C778.529 192.581 789.294 191.684 803.153 195.255C811.286 197.347 818.881 200.545 825.729 204.773C834.28 210.048 841.666 216.936 847.691 225.244C861.326 244.056 869.983 259.565 874.842 269.262C880.105 279.767 882.168 285.908 882.198 285.982L882.063 285.997Z" fill="#1B4C8F" stroke="#1B4C8F" stroke-width="4.2" stroke-miterlimit="10" stroke-linejoin="round"/>
<path d="M869.639 291.825C869.639 291.825 866.529 288.926 868.727 286.072C868.727 286.072 869.849 284.966 871.209 285.22C872.57 285.474 892.29 287.925 903.996 283.069C904.37 282.904 904.789 282.875 905.177 282.964C905.671 283.084 906.254 283.457 906.627 284.399C907.36 286.281 906.314 287.626 905.596 287.805C904.878 287.985 894.831 294.171 894.831 294.171L872.36 296.053L869.639 291.825Z" fill="#BDD9FF" stroke="#BDD9FF" stroke-width="0.84" stroke-miterlimit="10" stroke-linejoin="round"/>
<path d="M869.639 291.825C869.639 291.825 870.805 310.158 888.581 308.843C888.581 308.843 909.707 305.706 905.61 287.805C905.595 287.805 878.803 294.992 869.639 291.825Z" fill="#7CB1FF" stroke="#7CB1FF" stroke-width="0.84" stroke-miterlimit="10" stroke-linejoin="round"/>
<path opacity="0.31" d="M869.639 291.825C869.639 291.825 882.93 295.052 905.61 287.82C905.61 287.82 899.615 292.303 887.131 295.112C884.006 295.814 882.407 299.34 884.006 302.12C885.457 304.645 888.058 307.155 892.738 307.798C892.723 307.783 872.943 314.223 869.639 291.825Z" fill="#0062D1" stroke="#0062D1" stroke-width="0.84" stroke-miterlimit="10" stroke-linejoin="round"/>
<path d="M876.367 285.773C876.367 285.773 893.994 286.849 903.996 283.084C903.996 283.084 902.471 280.424 896.191 282.456C894.786 282.904 893.351 283.278 891.901 283.577C888.148 284.339 881.525 285.564 876.367 285.773Z" fill="#0038A5" stroke="#0038A5" stroke-miterlimit="10" stroke-linejoin="round"/>
<path d="M932.806 140.942C923.372 132.425 920.427 119.799 919.724 115.959L919.53 114.808C922.071 113.329 921.832 111.103 921.234 109.579C920.92 108.802 920.486 108.084 919.918 107.457C918.857 106.261 916.001 102.75 916.629 100.524C916.958 99.3434 916.898 98.6561 916.719 98.2526C916.554 97.8791 916.121 97.7297 915.747 97.894C915.717 97.909 915.687 97.9239 915.657 97.9389C913.474 99.3434 911.187 101.809 909.199 104.274C903.532 110.849 896.475 122.04 898.494 135.622C898.838 138.491 899.466 141.315 900.378 144.064C902.56 150.953 905.76 155.854 907.524 158.214C909.498 161.053 910.993 162.667 910.993 162.667C911.77 163.579 912.293 166.074 916.166 157.736C920.038 149.399 931.4 146.395 933.972 145.559C936.544 144.722 932.806 140.942 932.806 140.942Z" fill="#E0E0E0" stroke="#E0E0E0" stroke-width="0.84" stroke-miterlimit="10" stroke-linejoin="round"/>
<path d="M920.426 111.655C920.426 111.655 922.46 127.628 933.703 137.789C933.703 137.789 937.44 141.584 934.869 142.421C932.297 143.257 920.935 146.261 917.062 154.598C913.19 162.936 912.682 160.441 911.889 159.529C911.889 159.529 901.2 148.024 899.391 132.484C901.902 127.255 908.241 116.526 920.426 111.655Z" fill="#C8DCFC" stroke="#C8DCFC" stroke-width="0.84" stroke-miterlimit="10" stroke-linejoin="round"/>
<path d="M904.654 108.876C904.654 108.876 910.993 98.417 916.569 94.816C916.913 94.5919 917.362 94.6965 917.571 95.0252C917.586 95.0551 917.616 95.085 917.631 95.1149C917.81 95.5183 917.87 96.2056 917.541 97.386C916.913 99.6124 919.769 103.109 920.83 104.319C921.383 104.947 921.832 105.664 922.146 106.441C922.744 107.965 922.983 110.191 920.442 111.67C908.257 116.527 901.918 127.27 899.406 132.499C898.554 125.238 899.63 117.124 904.654 108.876Z" fill="#7CB1FF" stroke="#7CB1FF" stroke-width="0.84" stroke-miterlimit="10" stroke-linejoin="round"/>
<path opacity="0.3" d="M899.391 132.484C899.391 132.484 905.984 117.124 920.426 111.655L920.621 112.821C920.621 112.821 893.081 125.97 909.707 156.69C909.707 156.69 901.379 147.546 899.391 132.484Z" fill="#7CB1FF" stroke="#7CB1FF" stroke-width="0.84" stroke-miterlimit="10" stroke-linejoin="round"/>
<path opacity="0.27" d="M916.434 94.9057C914.715 96.2803 896.295 111.551 899.39 132.484C899.39 132.484 903.128 124.431 910.005 118.155C910.005 118.155 903.517 110.699 917.615 95.1149C917.466 94.816 917.137 94.6666 916.808 94.7264C916.673 94.7563 916.539 94.816 916.434 94.9057Z" fill="#0062D1" stroke="#0062D1" stroke-width="0.84" stroke-miterlimit="10" stroke-linejoin="round"/>
<path d="M1293.43 250.107C1293.43 250.107 1278.56 256.293 1264.14 251.586C1264.14 251.586 1258.99 250.226 1259.54 252.871C1260.09 255.516 1263.14 266.872 1257.82 274.358C1252.5 281.843 1254.94 281.066 1256.12 281.291C1256.12 281.291 1271.43 284.847 1285.81 278.691C1289.1 273.924 1295.27 263.091 1293.43 250.107Z" fill="#C8DCFC" stroke="#C8DCFC" stroke-width="0.84" stroke-miterlimit="10" stroke-linejoin="round"/>
<path d="M1303.7 262.404C1303.7 262.404 1309.64 251.721 1310 245.087C1310.01 244.683 1309.71 244.339 1309.31 244.324C1309.28 244.324 1309.24 244.324 1309.21 244.324C1308.77 244.369 1308.15 244.653 1307.28 245.52C1305.65 247.163 1301.19 246.431 1299.62 246.103C1298.8 245.923 1297.96 245.908 1297.13 246.013C1295.51 246.252 1293.46 247.148 1293.43 250.092C1295.27 263.077 1289.1 273.909 1285.81 278.691C1292.52 275.837 1299.03 270.846 1303.7 262.404Z" fill="#7CB1FF" stroke="#7CB1FF" stroke-width="0.84" stroke-miterlimit="10" stroke-linejoin="round"/>
<path opacity="0.3" d="M1293.43 250.107C1293.43 250.107 1295.66 265.064 1285.81 278.706C1285.81 278.706 1273.61 284.413 1256.12 281.306C1256.12 281.306 1287.71 280.648 1291.95 250.66L1293.43 250.107Z" fill="#7CB1FF" stroke="#7CB1FF" stroke-width="0.84" stroke-miterlimit="10" stroke-linejoin="round"/>
<path opacity="0.27" d="M1293.43 250.107C1293.43 250.107 1296.63 262.449 1285.81 278.706C1285.81 278.706 1290.23 276.733 1292.54 274.985C1292.52 274.985 1298.86 257.234 1293.43 250.107Z" fill="#0062D1" stroke="#0062D1" stroke-width="0.84" stroke-miterlimit="10" stroke-linejoin="round"/>
<path d="M1225.07 112.444C1236.24 101.281 1236.24 83.1829 1225.07 72.0203C1213.9 60.8578 1195.8 60.8578 1184.63 72.0203C1173.46 83.1829 1173.46 101.281 1184.63 112.444C1195.8 123.606 1213.9 123.606 1225.07 112.444Z" fill="#E0E0E0" stroke="#E0E0E0" stroke-width="0.84" stroke-miterlimit="10" stroke-linejoin="round"/>
<path d="M1223.12 110.635C1234.29 99.4723 1234.29 81.3742 1223.12 70.2116C1211.95 59.0491 1193.84 59.049 1182.67 70.2116C1171.51 81.3742 1171.51 99.4723 1182.67 110.635C1193.84 121.797 1211.95 121.797 1223.12 110.635Z" fill="#C1D9FF" stroke="#C1D9FF" stroke-width="0.84" stroke-miterlimit="10" stroke-linejoin="round"/>
<path d="M1184.01 90.3486L1180.14 81.5627C1175.23 94.1289 1181.47 108.279 1194.04 113.18L1188.7 101.047C1186.3 97.9092 1184.68 94.2484 1184.01 90.3486Z" fill="#6092E7" stroke="#6092E7" stroke-miterlimit="10" stroke-linejoin="round"/>
<path d="M1190.11 69.639C1187.43 71.2976 1185.1 73.4492 1183.23 75.9744L1184.67 79.2317C1185.71 75.6606 1187.58 72.3883 1190.11 69.639Z" fill="#6092E7" stroke="#6092E7" stroke-miterlimit="10" stroke-linejoin="round"/>
<path d="M1208.07 110.565C1204.36 110.565 1200.69 109.728 1197.36 108.099L1200.26 114.689C1201.14 114.778 1202.03 114.823 1202.91 114.838C1206.56 114.838 1210.16 114.031 1213.45 112.447L1212.45 110.176C1211 110.43 1209.53 110.565 1208.07 110.565Z" fill="#6092E7" stroke="#6092E7" stroke-miterlimit="10" stroke-linejoin="round"/>
<path d="M1209.68 66.9794C1208.48 66.6357 1207.26 66.3817 1206.03 66.2323L1222.87 104.498C1223.58 103.482 1224.23 102.407 1224.78 101.301L1209.68 66.9794Z" fill="#7CB1FF" stroke="#7CB1FF" stroke-width="0.84" stroke-miterlimit="10" stroke-linejoin="round"/>
<path d="M1188.72 101.047L1184.01 90.3484C1184.68 94.2482 1186.3 97.909 1188.72 101.047Z" fill="#7CB1FF" stroke="#7CB1FF" stroke-width="0.84" stroke-miterlimit="10" stroke-linejoin="round"/>
<path d="M1197.36 108.099C1202.04 110.37 1207.32 111.103 1212.44 110.176L1193.79 67.7861C1192.52 68.2942 1191.27 68.9217 1190.11 69.6389C1187.58 72.3733 1185.71 75.6605 1184.65 79.2316L1197.36 108.099Z" fill="#7CB1FF" stroke="#7CB1FF" stroke-width="0.84" stroke-miterlimit="10" stroke-linejoin="round"/>
<path d="M1227.32 90.423C1227.32 82.3544 1223.33 74.8087 1216.66 70.2515L1227.07 93.9194C1227.23 92.7689 1227.32 91.6034 1227.32 90.423Z" fill="#7CB1FF" stroke="#7CB1FF" stroke-width="0.84" stroke-miterlimit="10" stroke-linejoin="round"/>
<path d="M1220.86 106.949C1218.28 108.548 1215.42 109.638 1212.43 110.176L1213.43 112.447C1216.24 111.103 1218.77 109.235 1220.86 106.949Z" fill="#6092E7" stroke="#6092E7" stroke-miterlimit="10" stroke-linejoin="round"/>
<path d="M1188.72 101.047L1194.06 113.18C1196.04 113.957 1198.14 114.465 1200.26 114.689L1197.36 108.099C1193.98 106.441 1191.02 104.035 1188.72 101.047Z" fill="#6092E7" stroke="#6092E7" stroke-miterlimit="10" stroke-linejoin="round"/>
<path d="M1183.65 86.1646C1183.65 83.8187 1183.98 81.4729 1184.65 79.2316L1183.22 75.9742C1181.95 77.6926 1180.91 79.5752 1180.14 81.5625L1184.01 90.3483C1183.77 88.9737 1183.65 87.5691 1183.65 86.1646Z" fill="#6092E7" stroke="#6092E7" stroke-miterlimit="10" stroke-linejoin="round"/>
<path opacity="0.75" d="M1218.11 90.737H1205.84C1205.43 89.1532 1204.16 87.9279 1202.55 87.5992V71.8505H1200.47V87.7038C1198.21 88.3911 1196.94 90.7669 1197.63 93.0231C1198.32 95.2793 1200.69 96.5494 1202.95 95.8621C1204.45 95.4138 1205.57 94.1736 1205.9 92.6496H1218.14L1218.11 90.737Z" fill="#6092E7" stroke="#6092E7" stroke-miterlimit="10" stroke-linejoin="round"/>
<path d="M1203.74 70.5056H1201.67V91.3047H1203.74V70.5056Z" fill="#F5F5F5" stroke="#F5F5F5" stroke-width="0.84" stroke-miterlimit="10" stroke-linejoin="round"/>
<path d="M1219.31 89.3921H1201.67V91.3046H1219.31V89.3921Z" fill="#F5F5F5" stroke="#F5F5F5" stroke-width="0.84" stroke-miterlimit="10" stroke-linejoin="round"/>
<path d="M1202.91 94.6815C1205.26 94.6815 1207.17 92.775 1207.17 90.4231C1207.17 88.0712 1205.26 86.1647 1202.91 86.1647C1200.55 86.1647 1198.65 88.0712 1198.65 90.4231C1198.65 92.775 1200.55 94.6815 1202.91 94.6815Z" fill="#0062D1" stroke="#0062D1" stroke-width="0.84" stroke-miterlimit="10" stroke-linejoin="round"/>
<path opacity="0.28" d="M1206.03 66.2173C1205 66.0828 1203.95 66.0231 1202.91 66.0231C1199.78 66.0231 1196.69 66.6207 1193.79 67.7862L1212.44 110.176L1213.45 112.447C1217.21 110.64 1220.46 107.905 1222.86 104.483L1206.03 66.2173Z" fill="#EFFFFF" stroke="#6092E7" stroke-width="1.33" stroke-miterlimit="10" stroke-linejoin="round"/>
<path opacity="0.28" d="M1227.07 93.9345L1216.66 70.2666C1214.52 68.8023 1212.16 67.6966 1209.68 66.9794L1224.78 101.286C1225.93 98.9699 1226.71 96.4896 1227.07 93.9345Z" fill="#EFFFFF" stroke="#6092E7" stroke-width="0.87" stroke-miterlimit="10" stroke-linejoin="round"/>
<path opacity="0.28" d="M1197.36 108.099L1184.65 79.2316L1183.22 75.9742C1181.95 77.6926 1180.91 79.5752 1180.14 81.5625L1184.01 90.3483L1188.72 101.047L1194.06 113.18C1196.04 113.956 1198.14 114.465 1200.26 114.689L1197.36 108.099Z" fill="#EFFFFF" stroke="#6092E7" stroke-width="0.87" stroke-miterlimit="10" stroke-linejoin="round"/>
<path d="M1003.06 147.083H963.574C962.916 147.083 962.377 146.545 962.377 145.887C962.377 145.23 962.916 144.692 963.574 144.692H1003.06C1003.72 144.692 1004.25 145.23 1004.25 145.887C1004.25 146.545 1003.72 147.083 1003.06 147.083Z" fill="#E0E0E0" stroke="#E0E0E0" stroke-width="0.84" stroke-miterlimit="10" stroke-linejoin="round"/>
<path d="M988.243 153.179H963.574C962.916 153.179 962.378 152.641 962.378 151.984C962.378 151.326 962.916 150.788 963.574 150.788H988.243C988.901 150.788 989.439 151.326 989.439 151.984C989.439 152.641 988.901 153.179 988.243 153.179Z" fill="#E0E0E0" stroke="#E0E0E0" stroke-width="0.84" stroke-miterlimit="10" stroke-linejoin="round"/>
</g>
<path d="M207.384 205H202.47V181.312H187.896V205H182.982V176.986H207.384V205ZM222.364 205.504C219.228 205.504 216.708 204.482 214.804 202.438C212.9 200.366 211.948 197.832 211.948 194.836C211.948 191.84 212.9 189.32 214.804 187.276C216.708 185.232 219.228 184.21 222.364 184.21C225.528 184.21 228.062 185.232 229.966 187.276C231.87 189.32 232.822 191.84 232.822 194.836C232.822 197.86 231.87 200.394 229.966 202.438C228.062 204.482 225.528 205.504 222.364 205.504ZM222.364 201.598C224.184 201.598 225.612 200.954 226.648 199.666C227.712 198.35 228.244 196.74 228.244 194.836C228.244 192.96 227.712 191.378 226.648 190.09C225.612 188.774 224.184 188.116 222.364 188.116C220.572 188.116 219.144 188.774 218.08 190.09C217.044 191.378 216.526 192.96 216.526 194.836C216.526 196.74 217.044 198.35 218.08 199.666C219.144 200.954 220.572 201.598 222.364 201.598ZM235.184 205.504V201.892C236.052 201.892 236.738 201.332 237.242 200.212C237.774 199.092 238.208 197.216 238.544 194.584L239.762 184.714H255.428V205H251.018V188.578H243.668L242.954 195.088C242.562 198.728 241.736 201.374 240.476 203.026C239.216 204.678 237.452 205.504 235.184 205.504ZM260.273 212.938L260.945 208.99C261.449 209.214 262.009 209.326 262.625 209.326C264.053 209.326 265.019 208.738 265.523 207.562L266.531 205.252L258.215 184.714H262.919L268.841 199.918L274.763 184.714H279.509L269.723 208.654C268.519 211.65 266.195 213.176 262.751 213.232C261.827 213.232 261.001 213.134 260.273 212.938ZM281.564 184.714H285.974V190.174C285.974 191.686 286.352 192.75 287.108 193.366C287.892 193.982 289.124 194.29 290.804 194.29C292.624 194.29 294.108 194.038 295.256 193.534V184.714H299.666V205H295.256V197.104C293.8 197.832 291.854 198.196 289.418 198.196C286.646 198.196 284.644 197.664 283.412 196.6C282.18 195.536 281.564 193.926 281.564 191.77V184.714ZM309.612 205H305.37V184.714H309.78V198.364L319.104 184.714H323.514V205H319.104V190.972L309.612 205ZM337.347 205H332.937V188.578H327.141V184.714H343.185V188.578H337.347V205ZM356.161 205.504C353.081 205.504 350.533 204.524 348.517 202.564C346.529 200.576 345.535 198 345.535 194.836C345.535 191.868 346.501 189.362 348.433 187.318C350.393 185.246 352.857 184.21 355.825 184.21C358.821 184.21 361.229 185.246 363.049 187.318C364.897 189.39 365.821 192.036 365.821 195.256V196.306H350.155C350.323 197.902 350.981 199.232 352.129 200.296C353.277 201.36 354.775 201.892 356.623 201.892C357.659 201.892 358.695 201.696 359.731 201.304C360.795 200.912 361.677 200.366 362.377 199.666L364.393 202.564C362.349 204.524 359.605 205.504 356.161 205.504ZM361.537 193.198C361.481 191.798 360.963 190.552 359.983 189.46C359.031 188.368 357.645 187.822 355.825 187.822C354.089 187.822 352.731 188.368 351.751 189.46C350.771 190.524 350.225 191.77 350.113 193.198H361.537ZM399.105 205H394.695V188.578H385.371V205H380.961V184.714H399.105V205ZM414.199 205.504C411.119 205.504 408.571 204.524 406.555 202.564C404.567 200.576 403.573 198 403.573 194.836C403.573 191.868 404.539 189.362 406.471 187.318C408.431 185.246 410.895 184.21 413.863 184.21C416.859 184.21 419.267 185.246 421.087 187.318C422.935 189.39 423.859 192.036 423.859 195.256V196.306H408.193C408.361 197.902 409.019 199.232 410.167 200.296C411.315 201.36 412.813 201.892 414.661 201.892C415.697 201.892 416.733 201.696 417.769 201.304C418.833 200.912 419.715 200.366 420.415 199.666L422.431 202.564C420.387 204.524 417.643 205.504 414.199 205.504ZM419.575 193.198C419.519 191.798 419.001 190.552 418.021 189.46C417.069 188.368 415.683 187.822 413.863 187.822C412.127 187.822 410.769 188.368 409.789 189.46C408.809 190.524 408.263 191.77 408.151 193.198H419.575ZM439.131 205.504C436.443 205.504 434.273 204.398 432.621 202.186V212.728H428.211V184.714H432.621V187.486C434.245 185.302 436.415 184.21 439.131 184.21C441.791 184.21 443.947 185.162 445.599 187.066C447.279 188.97 448.119 191.56 448.119 194.836C448.119 198.112 447.279 200.716 445.599 202.648C443.947 204.552 441.791 205.504 439.131 205.504ZM437.829 201.598C439.565 201.598 440.951 200.968 441.987 199.708C443.023 198.448 443.541 196.824 443.541 194.836C443.541 192.848 443.023 191.238 441.987 190.006C440.951 188.746 439.565 188.116 437.829 188.116C436.821 188.116 435.827 188.382 434.847 188.914C433.867 189.446 433.125 190.09 432.621 190.846V198.868C433.125 199.624 433.867 200.268 434.847 200.8C435.827 201.332 436.821 201.598 437.829 201.598ZM461.859 205.504C458.779 205.504 456.231 204.524 454.215 202.564C452.227 200.576 451.233 198 451.233 194.836C451.233 191.868 452.199 189.362 454.131 187.318C456.091 185.246 458.555 184.21 461.523 184.21C464.519 184.21 466.927 185.246 468.747 187.318C470.595 189.39 471.519 192.036 471.519 195.256V196.306H455.853C456.021 197.902 456.679 199.232 457.827 200.296C458.975 201.36 460.473 201.892 462.321 201.892C463.357 201.892 464.393 201.696 465.429 201.304C466.493 200.912 467.375 200.366 468.075 199.666L470.091 202.564C468.047 204.524 465.303 205.504 461.859 205.504ZM467.235 193.198C467.179 191.798 466.661 190.552 465.681 189.46C464.729 188.368 463.343 187.822 461.523 187.822C459.787 187.822 458.429 188.368 457.449 189.46C456.469 190.524 455.923 191.77 455.811 193.198H467.235ZM483.18 205.504C479.204 205.504 476.096 204.412 473.856 202.228L475.914 199.414C477.762 201.066 480.184 201.892 483.18 201.892C484.72 201.892 485.924 201.654 486.792 201.178C487.688 200.674 488.136 200.002 488.136 199.162C488.136 197.398 486.358 196.516 482.802 196.516H478.476V192.988H482.802C484.342 192.988 485.546 192.764 486.414 192.316C487.31 191.868 487.758 191.21 487.758 190.342C487.758 189.614 487.296 189.012 486.372 188.536C485.448 188.06 484.286 187.822 482.886 187.822C480.17 187.822 478 188.634 476.376 190.258L474.192 187.57C476.348 185.358 479.176 184.252 482.676 184.252C485.672 184.224 488.024 184.714 489.732 185.722C491.468 186.702 492.336 188.046 492.336 189.754C492.336 191.042 491.79 192.134 490.698 193.03C489.634 193.898 488.388 194.43 486.96 194.626C488.388 194.738 489.704 195.214 490.908 196.054C492.14 196.894 492.756 198.042 492.756 199.498C492.756 201.262 491.888 202.704 490.152 203.824C488.444 204.944 486.12 205.504 483.18 205.504ZM514 205H509.59V202.816C508.022 204.608 505.838 205.504 503.038 205.504C501.19 205.504 499.552 204.916 498.124 203.74C496.696 202.536 495.982 200.884 495.982 198.784C495.982 196.628 496.682 194.99 498.082 193.87C499.51 192.75 501.162 192.19 503.038 192.19C505.922 192.19 508.106 193.058 509.59 194.794V191.77C509.59 190.594 509.156 189.67 508.288 188.998C507.42 188.326 506.272 187.99 504.844 187.99C502.576 187.99 500.574 188.844 498.838 190.552L497.032 187.486C499.328 185.302 502.17 184.21 505.558 184.21C508.05 184.21 510.08 184.798 511.648 185.974C513.216 187.15 514 189.012 514 191.56V205ZM504.76 202.48C506.972 202.48 508.582 201.78 509.59 200.38V197.314C508.582 195.914 506.972 195.214 504.76 195.214C503.5 195.214 502.464 195.55 501.652 196.222C500.84 196.894 500.434 197.776 500.434 198.868C500.434 199.96 500.84 200.842 501.652 201.514C502.464 202.158 503.5 202.48 504.76 202.48ZM519.003 184.714H523.413V190.174C523.413 191.686 523.791 192.75 524.547 193.366C525.331 193.982 526.563 194.29 528.243 194.29C530.063 194.29 531.547 194.038 532.695 193.534V184.714H537.105V205H532.695V197.104C531.239 197.832 529.293 198.196 526.857 198.196C524.085 198.196 522.083 197.664 520.851 196.6C519.619 195.536 519.003 193.926 519.003 191.77V184.714ZM552.175 205.504C549.095 205.504 546.547 204.524 544.531 202.564C542.543 200.576 541.549 198 541.549 194.836C541.549 191.868 542.515 189.362 544.447 187.318C546.407 185.246 548.871 184.21 551.839 184.21C554.835 184.21 557.243 185.246 559.063 187.318C560.911 189.39 561.835 192.036 561.835 195.256V196.306H546.169C546.337 197.902 546.995 199.232 548.143 200.296C549.291 201.36 550.789 201.892 552.637 201.892C553.673 201.892 554.709 201.696 555.745 201.304C556.809 200.912 557.691 200.366 558.391 199.666L560.407 202.564C558.363 204.524 555.619 205.504 552.175 205.504ZM557.551 193.198C557.495 191.798 556.977 190.552 555.997 189.46C555.045 188.368 553.659 187.822 551.839 187.822C550.103 187.822 548.745 188.368 547.765 189.46C546.785 190.524 546.239 191.77 546.127 193.198H557.551ZM574.294 205H569.884V188.578H564.088V184.714H580.132V188.578H574.294V205Z" fill="#3B4256"/>
<path d="M195.216 250H193.224V235.768H183.864V250H181.872V233.992H195.216V250ZM208.102 248.536C207.062 249.704 205.678 250.288 203.95 250.288C202.222 250.288 200.83 249.704 199.774 248.536C198.734 247.368 198.214 245.92 198.214 244.192C198.214 242.464 198.734 241.024 199.774 239.872C200.83 238.704 202.222 238.12 203.95 238.12C205.678 238.12 207.062 238.704 208.102 239.872C209.158 241.024 209.686 242.464 209.686 244.192C209.686 245.92 209.158 247.368 208.102 248.536ZM201.118 247.384C201.822 248.248 202.766 248.68 203.95 248.68C205.134 248.68 206.07 248.248 206.758 247.384C207.446 246.504 207.79 245.44 207.79 244.192C207.79 242.944 207.446 241.888 206.758 241.024C206.07 240.16 205.134 239.728 203.95 239.728C202.766 239.728 201.822 240.168 201.118 241.048C200.43 241.912 200.086 242.96 200.086 244.192C200.086 245.44 200.43 246.504 201.118 247.384ZM211.252 250.288V248.8C211.796 248.8 212.244 248.44 212.596 247.72C212.948 247 213.236 245.8 213.46 244.12L214.204 238.408H222.268V250H220.468V239.992H215.788L215.26 244.336C215.004 246.464 214.556 247.992 213.916 248.92C213.276 249.832 212.388 250.288 211.252 250.288ZM225.215 254.536L225.503 252.904C225.791 253.032 226.119 253.096 226.487 253.096C226.903 253.096 227.247 253.008 227.519 252.832C227.791 252.656 228.023 252.336 228.215 251.872L228.983 250.12L224.135 238.408H226.079L229.943 247.912L233.783 238.408H235.751L229.943 252.352C229.303 253.888 228.167 254.672 226.535 254.704C226.055 254.704 225.615 254.648 225.215 254.536ZM237.388 238.408H239.188V241.672C239.188 242.712 239.428 243.432 239.908 243.832C240.388 244.232 241.132 244.432 242.14 244.432C243.388 244.432 244.412 244.224 245.212 243.808V238.408H247.012V250H245.212V245.272C244.188 245.784 243.012 246.04 241.684 246.04C240.18 246.04 239.084 245.736 238.396 245.128C237.724 244.52 237.388 243.552 237.388 242.224V238.408ZM252.34 250H250.613V238.408H252.413V247.264L258.485 238.408H260.261V250H258.461V240.976L252.34 250ZM267.767 250H265.967V239.992H262.607V238.408H271.151V239.992H267.767V250ZM278.743 250.288C277.015 250.288 275.599 249.728 274.495 248.608C273.391 247.472 272.839 246 272.839 244.192C272.839 242.496 273.383 241.064 274.471 239.896C275.559 238.712 276.919 238.12 278.551 238.12C280.263 238.12 281.615 238.712 282.607 239.896C283.615 241.064 284.119 242.544 284.119 244.336V244.792H274.735C274.815 245.928 275.231 246.88 275.983 247.648C276.735 248.416 277.711 248.8 278.911 248.8C280.351 248.8 281.543 248.312 282.487 247.336L283.351 248.512C282.167 249.696 280.631 250.288 278.743 250.288ZM282.343 243.472C282.327 242.48 281.991 241.592 281.335 240.808C280.679 240.008 279.743 239.608 278.527 239.608C277.375 239.608 276.463 240 275.791 240.784C275.135 241.568 274.783 242.464 274.735 243.472H282.343ZM302.87 250H301.07V239.992H295.022V250H293.222V238.408H302.87V250ZM311.696 250.288C309.968 250.288 308.552 249.728 307.448 248.608C306.344 247.472 305.792 246 305.792 244.192C305.792 242.496 306.336 241.064 307.424 239.896C308.512 238.712 309.872 238.12 311.504 238.12C313.216 238.12 314.568 238.712 315.56 239.896C316.568 241.064 317.072 242.544 317.072 244.336V244.792H307.688C307.768 245.928 308.184 246.88 308.936 247.648C309.688 248.416 310.664 248.8 311.864 248.8C313.304 248.8 314.496 248.312 315.44 247.336L316.304 248.512C315.12 249.696 313.584 250.288 311.696 250.288ZM315.296 243.472C315.28 242.48 314.944 241.592 314.288 240.808C313.632 240.008 312.696 239.608 311.48 239.608C310.328 239.608 309.416 240 308.744 240.784C308.088 241.568 307.736 242.464 307.688 243.472H315.296ZM325.7 250.288C324.068 250.288 322.764 249.608 321.788 248.248V254.416H319.988V238.408H321.788V240.136C322.22 239.528 322.78 239.04 323.468 238.672C324.156 238.304 324.9 238.12 325.7 238.12C327.236 238.12 328.476 238.672 329.42 239.776C330.38 240.864 330.859 242.336 330.859 244.192C330.859 246.048 330.38 247.528 329.42 248.632C328.476 249.736 327.236 250.288 325.7 250.288ZM325.243 248.68C326.38 248.68 327.284 248.264 327.956 247.432C328.628 246.584 328.964 245.504 328.964 244.192C328.964 242.88 328.628 241.808 327.956 240.976C327.284 240.144 326.38 239.728 325.243 239.728C324.556 239.728 323.884 239.912 323.228 240.28C322.588 240.632 322.108 241.064 321.788 241.576V246.808C322.108 247.336 322.588 247.784 323.228 248.152C323.884 248.504 324.556 248.68 325.243 248.68ZM338.954 250.288C337.226 250.288 335.81 249.728 334.706 248.608C333.602 247.472 333.05 246 333.05 244.192C333.05 242.496 333.594 241.064 334.682 239.896C335.77 238.712 337.13 238.12 338.762 238.12C340.474 238.12 341.826 238.712 342.818 239.896C343.826 241.064 344.33 242.544 344.33 244.336V244.792H334.946C335.026 245.928 335.442 246.88 336.194 247.648C336.946 248.416 337.922 248.8 339.122 248.8C340.562 248.8 341.754 248.312 342.698 247.336L343.562 248.512C342.378 249.696 340.842 250.288 338.954 250.288ZM342.554 243.472C342.538 242.48 342.202 241.592 341.546 240.808C340.89 240.008 339.954 239.608 338.738 239.608C337.586 239.608 336.674 240 336.002 240.784C335.346 241.568 334.994 242.464 334.946 243.472H342.554ZM351.349 250.288C349.125 250.288 347.381 249.656 346.117 248.392L347.005 247.24C348.093 248.28 349.541 248.8 351.349 248.8C352.389 248.8 353.213 248.616 353.821 248.248C354.445 247.88 354.757 247.392 354.757 246.784C354.757 245.504 353.541 244.864 351.109 244.864H348.517V243.4H351.109C352.117 243.4 352.941 243.24 353.581 242.92C354.221 242.584 354.541 242.096 354.541 241.456C354.541 240.912 354.221 240.472 353.581 240.136C352.941 239.784 352.133 239.608 351.157 239.608C349.541 239.608 348.245 240.104 347.269 241.096L346.333 239.992C347.533 238.76 349.117 238.144 351.085 238.144C352.669 238.128 353.949 238.4 354.925 238.96C355.917 239.504 356.413 240.264 356.413 241.24C356.413 242.04 356.085 242.688 355.429 243.184C354.789 243.68 354.077 243.976 353.293 244.072C354.109 244.136 354.869 244.408 355.573 244.888C356.293 245.368 356.653 246.04 356.653 246.904C356.653 247.896 356.173 248.712 355.213 249.352C354.269 249.976 352.981 250.288 351.349 250.288ZM368.621 250H366.821V248.68C365.845 249.752 364.565 250.288 362.981 250.288C361.909 250.288 360.965 249.944 360.149 249.256C359.333 248.568 358.925 247.632 358.925 246.448C358.925 245.232 359.325 244.296 360.125 243.64C360.941 242.968 361.893 242.632 362.981 242.632C364.629 242.632 365.909 243.16 366.821 244.216V242.128C366.821 241.36 366.549 240.76 366.005 240.328C365.461 239.896 364.757 239.68 363.893 239.68C362.533 239.68 361.349 240.216 360.341 241.288L359.501 240.04C360.733 238.76 362.277 238.12 364.133 238.12C365.461 238.12 366.541 238.44 367.373 239.08C368.205 239.72 368.621 240.704 368.621 242.032V250ZM363.629 248.992C365.069 248.992 366.133 248.512 366.821 247.552V245.368C366.133 244.408 365.069 243.928 363.629 243.928C362.797 243.928 362.109 244.168 361.565 244.648C361.037 245.112 360.773 245.72 360.773 246.472C360.773 247.208 361.037 247.816 361.565 248.296C362.109 248.76 362.797 248.992 363.629 248.992ZM371.99 238.408H373.79V241.672C373.79 242.712 374.03 243.432 374.51 243.832C374.99 244.232 375.734 244.432 376.742 244.432C377.99 244.432 379.014 244.224 379.814 243.808V238.408H381.614V250H379.814V245.272C378.79 245.784 377.614 246.04 376.286 246.04C374.782 246.04 373.686 245.736 372.998 245.128C372.326 244.52 371.99 243.552 371.99 242.224V238.408ZM390.446 250.288C388.718 250.288 387.302 249.728 386.198 248.608C385.094 247.472 384.542 246 384.542 244.192C384.542 242.496 385.086 241.064 386.174 239.896C387.262 238.712 388.622 238.12 390.254 238.12C391.966 238.12 393.318 238.712 394.31 239.896C395.318 241.064 395.822 242.544 395.822 244.336V244.792H386.438C386.518 245.928 386.934 246.88 387.686 247.648C388.438 248.416 389.414 248.8 390.614 248.8C392.054 248.8 393.246 248.312 394.19 247.336L395.054 248.512C393.87 249.696 392.334 250.288 390.446 250.288ZM394.046 243.472C394.03 242.48 393.694 241.592 393.038 240.808C392.382 240.008 391.446 239.608 390.23 239.608C389.078 239.608 388.166 240 387.494 240.784C386.838 241.568 386.486 242.464 386.438 243.472H394.046ZM402.65 250H400.85V239.992H397.49V238.408H406.034V239.992H402.65V250ZM409.388 249.424C409.388 250.128 409.204 250.8 408.836 251.44C408.468 252.096 407.996 252.632 407.42 253.048L406.532 252.304C406.932 252.048 407.276 251.704 407.564 251.272C407.868 250.856 408.044 250.456 408.092 250.072C408.028 250.104 407.916 250.12 407.756 250.12C407.42 250.12 407.14 250.008 406.916 249.784C406.708 249.544 406.604 249.248 406.604 248.896C406.604 248.544 406.724 248.24 406.964 247.984C407.22 247.728 407.524 247.6 407.876 247.6C408.292 247.6 408.644 247.768 408.932 248.104C409.236 248.424 409.388 248.864 409.388 249.424ZM417.315 252.952V248.512C417.907 248.4 418.371 248.048 418.707 247.456C419.043 246.848 419.315 245.736 419.523 244.12L420.267 238.408H428.331V248.416H429.675V252.952H427.875V250H419.115V252.952H417.315ZM421.851 239.992L421.323 244.336C421.051 246.368 420.491 247.728 419.643 248.416H426.531V239.992H421.851ZM441.184 250H439.384V248.68C438.408 249.752 437.128 250.288 435.544 250.288C434.472 250.288 433.528 249.944 432.712 249.256C431.896 248.568 431.488 247.632 431.488 246.448C431.488 245.232 431.888 244.296 432.688 243.64C433.504 242.968 434.456 242.632 435.544 242.632C437.192 242.632 438.472 243.16 439.384 244.216V242.128C439.384 241.36 439.112 240.76 438.568 240.328C438.024 239.896 437.32 239.68 436.456 239.68C435.096 239.68 433.912 240.216 432.904 241.288L432.064 240.04C433.296 238.76 434.84 238.12 436.696 238.12C438.024 238.12 439.104 238.44 439.936 239.08C440.768 239.72 441.184 240.704 441.184 242.032V250ZM436.192 248.992C437.632 248.992 438.696 248.512 439.384 247.552V245.368C438.696 244.408 437.632 243.928 436.192 243.928C435.36 243.928 434.672 244.168 434.128 244.648C433.6 245.112 433.336 245.72 433.336 246.472C433.336 247.208 433.6 247.816 434.128 248.296C434.672 248.76 435.36 248.992 436.192 248.992ZM445.632 250H443.328L448.488 243.664L443.352 238.408H445.632L450.624 243.52V238.408H452.424V243.496L457.416 238.408H459.696L454.536 243.664L459.72 250H457.416L453.24 244.792L452.424 245.608V250H450.624V245.608L449.808 244.792L445.632 250ZM467.016 250.288C465.288 250.288 463.872 249.728 462.768 248.608C461.664 247.472 461.112 246 461.112 244.192C461.112 242.496 461.656 241.064 462.744 239.896C463.832 238.712 465.192 238.12 466.824 238.12C468.536 238.12 469.888 238.712 470.88 239.896C471.888 241.064 472.392 242.544 472.392 244.336V244.792H463.008C463.088 245.928 463.504 246.88 464.256 247.648C465.008 248.416 465.984 248.8 467.184 248.8C468.624 248.8 469.816 248.312 470.76 247.336L471.624 248.512C470.44 249.696 468.904 250.288 467.016 250.288ZM470.616 243.472C470.6 242.48 470.264 241.592 469.608 240.808C468.952 240.008 468.016 239.608 466.8 239.608C465.648 239.608 464.736 240 464.064 240.784C463.408 241.568 463.056 242.464 463.008 243.472H470.616ZM183.6 284H181.8V272.408H183.6V277.232H189.648V272.408H191.448V284H189.648V278.816H183.6V284ZM200.274 284.288C198.546 284.288 197.13 283.728 196.026 282.608C194.922 281.472 194.37 280 194.37 278.192C194.37 276.496 194.914 275.064 196.002 273.896C197.09 272.712 198.45 272.12 200.082 272.12C201.794 272.12 203.146 272.712 204.138 273.896C205.146 275.064 205.65 276.544 205.65 278.336V278.792H196.266C196.346 279.928 196.762 280.88 197.514 281.648C198.266 282.416 199.242 282.8 200.442 282.8C201.882 282.8 203.074 282.312 204.018 281.336L204.882 282.512C203.698 283.696 202.162 284.288 200.274 284.288ZM203.874 277.472C203.858 276.48 203.522 275.592 202.866 274.808C202.21 274.008 201.274 273.608 200.058 273.608C198.906 273.608 197.994 274 197.322 274.784C196.666 275.568 196.314 276.464 196.266 277.472H203.874ZM224.401 284H222.601V273.992H216.553V284H214.753V272.408H224.401V284ZM237.211 282.536C236.171 283.704 234.787 284.288 233.059 284.288C231.331 284.288 229.939 283.704 228.883 282.536C227.843 281.368 227.323 279.92 227.323 278.192C227.323 276.464 227.843 275.024 228.883 273.872C229.939 272.704 231.331 272.12 233.059 272.12C234.787 272.12 236.171 272.704 237.211 273.872C238.267 275.024 238.795 276.464 238.795 278.192C238.795 279.92 238.267 281.368 237.211 282.536ZM230.227 281.384C230.931 282.248 231.875 282.68 233.059 282.68C234.243 282.68 235.179 282.248 235.867 281.384C236.555 280.504 236.899 279.44 236.899 278.192C236.899 276.944 236.555 275.888 235.867 275.024C235.179 274.16 234.243 273.728 233.059 273.728C231.875 273.728 230.931 274.168 230.227 275.048C229.539 275.912 229.195 276.96 229.195 278.192C229.195 279.44 229.539 280.504 230.227 281.384ZM246.842 284.288C245.13 284.288 243.738 283.712 242.666 282.56C241.594 281.392 241.058 279.936 241.058 278.192C241.058 276.448 241.594 275 242.666 273.848C243.738 272.696 245.13 272.12 246.842 272.12C248.634 272.12 250.05 272.792 251.09 274.136L249.89 275.24C249.154 274.232 248.17 273.728 246.938 273.728C245.722 273.728 244.746 274.144 244.01 274.976C243.29 275.808 242.93 276.88 242.93 278.192C242.93 279.504 243.29 280.584 244.01 281.432C244.746 282.264 245.722 282.68 246.938 282.68C248.154 282.68 249.138 282.176 249.89 281.168L251.09 282.272C250.05 283.616 248.634 284.288 246.842 284.288ZM258.845 284.288C257.117 284.288 255.701 283.728 254.597 282.608C253.493 281.472 252.941 280 252.941 278.192C252.941 276.496 253.485 275.064 254.573 273.896C255.661 272.712 257.021 272.12 258.653 272.12C260.365 272.12 261.717 272.712 262.709 273.896C263.717 275.064 264.221 276.544 264.221 278.336V278.792H254.837C254.917 279.928 255.333 280.88 256.085 281.648C256.837 282.416 257.813 282.8 259.013 282.8C260.453 282.8 261.645 282.312 262.589 281.336L263.453 282.512C262.269 283.696 260.733 284.288 258.845 284.288ZM262.445 277.472C262.429 276.48 262.093 275.592 261.437 274.808C260.781 274.008 259.845 273.608 258.629 273.608C257.477 273.608 256.565 274 255.893 274.784C255.237 275.568 254.885 276.464 254.837 277.472H262.445ZM280.528 272.408H282.328V282.416H283.816V286.952H282.016V284H267.136V272.408H268.936V282.416H273.832V272.408H275.632V282.416H280.528V272.408ZM295.332 284H293.532V282.68C292.556 283.752 291.276 284.288 289.692 284.288C288.62 284.288 287.676 283.944 286.86 283.256C286.044 282.568 285.636 281.632 285.636 280.448C285.636 279.232 286.036 278.296 286.836 277.64C287.652 276.968 288.604 276.632 289.692 276.632C291.34 276.632 292.62 277.16 293.532 278.216V276.128C293.532 275.36 293.26 274.76 292.716 274.328C292.172 273.896 291.468 273.68 290.604 273.68C289.244 273.68 288.06 274.216 287.052 275.288L286.212 274.04C287.444 272.76 288.988 272.12 290.844 272.12C292.172 272.12 293.252 272.44 294.084 273.08C294.916 273.72 295.332 274.704 295.332 276.032V284ZM290.34 282.992C291.78 282.992 292.844 282.512 293.532 281.552V279.368C292.844 278.408 291.78 277.928 290.34 277.928C289.508 277.928 288.82 278.168 288.276 278.648C287.748 279.112 287.484 279.72 287.484 280.472C287.484 281.208 287.748 281.816 288.276 282.296C288.82 282.76 289.508 282.992 290.34 282.992ZM300.669 284H298.557L301.653 279.44C300.773 279.328 300.053 278.96 299.493 278.336C298.949 277.712 298.677 276.92 298.677 275.96C298.677 274.936 299.005 274.088 299.661 273.416C300.317 272.744 301.213 272.408 302.349 272.408H308.469V284H306.669V279.512H303.501L300.669 284ZM302.541 277.928H306.669V273.992H302.541C301.917 273.992 301.421 274.176 301.053 274.544C300.701 274.896 300.525 275.368 300.525 275.96C300.525 276.552 300.701 277.032 301.053 277.4C301.405 277.752 301.901 277.928 302.541 277.928ZM316.885 284.288V282.8C317.429 282.8 317.877 282.44 318.229 281.72C318.581 281 318.869 279.8 319.093 278.12L319.837 272.408H327.901V284H326.101V273.992H321.421L320.893 278.336C320.637 280.464 320.189 281.992 319.549 282.92C318.909 283.832 318.021 284.288 316.885 284.288ZM336.727 284.288C334.999 284.288 333.583 283.728 332.479 282.608C331.375 281.472 330.823 280 330.823 278.192C330.823 276.496 331.367 275.064 332.455 273.896C333.543 272.712 334.903 272.12 336.535 272.12C338.247 272.12 339.599 272.712 340.591 273.896C341.599 275.064 342.103 276.544 342.103 278.336V278.792H332.719C332.799 279.928 333.215 280.88 333.967 281.648C334.719 282.416 335.695 282.8 336.895 282.8C338.335 282.8 339.527 282.312 340.471 281.336L341.335 282.512C340.151 283.696 338.615 284.288 336.727 284.288ZM340.327 277.472C340.311 276.48 339.975 275.592 339.319 274.808C338.663 274.008 337.727 273.608 336.511 273.608C335.359 273.608 334.447 274 333.775 274.784C333.119 275.568 332.767 276.464 332.719 277.472H340.327ZM355.219 284H352.915L348.739 278.792L346.819 280.688V284H345.019V272.408H346.819V278.576L352.915 272.408H355.195L350.059 277.664L355.219 284ZM366.539 286.952V284H357.347V272.408H359.147V282.416H365.195V272.408H366.995V282.416H368.339V286.952H366.539ZM372.528 284H370.8V272.408H372.6V281.264L378.672 272.408H380.448V284H378.648V274.976L372.528 284ZM385.77 284H384.042V272.408H385.842V281.264L391.914 272.408H393.69V284H391.89V274.976L385.77 284ZM398.988 279.512H397.5L397.116 267.992H399.372L398.988 279.512ZM399.156 283.856C398.9 284.112 398.596 284.24 398.244 284.24C397.892 284.24 397.58 284.112 397.308 283.856C397.052 283.584 396.924 283.272 396.924 282.92C396.924 282.552 397.052 282.24 397.308 281.984C397.564 281.728 397.876 281.6 398.244 281.6C398.612 281.6 398.924 281.728 399.18 281.984C399.436 282.24 399.564 282.552 399.564 282.92C399.564 283.272 399.428 283.584 399.156 283.856Z" fill="#3B4256"/>
<rect x="60" y="166" width="90" height="90" rx="8" fill="#E4EEFF"/>
<path d="M98.0742 225.05C95.9409 226.75 93.3576 227.6 90.3242 227.6C87.2909 227.6 84.6909 226.75 82.5242 225.05C80.3909 223.317 78.8576 221.183 77.9242 218.65C76.9909 216.117 76.5242 213.35 76.5242 210.35C76.5242 207.35 76.9909 204.583 77.9242 202.05C78.8576 199.517 80.3909 197.4 82.5242 195.7C84.6909 194 87.2909 193.15 90.3242 193.15C93.3576 193.15 95.9409 194 98.0742 195.7C100.208 197.4 101.741 199.517 102.674 202.05C103.641 204.583 104.124 207.35 104.124 210.35C104.124 213.35 103.641 216.117 102.674 218.65C101.741 221.183 100.208 223.317 98.0742 225.05ZM85.3242 218.3C86.3909 220.3 88.0576 221.3 90.3242 221.3C92.5909 221.3 94.2409 220.3 95.2742 218.3C96.3409 216.3 96.8742 213.65 96.8742 210.35C96.8742 207.05 96.3409 204.417 95.2742 202.45C94.2409 200.45 92.5909 199.45 90.3242 199.45C88.0576 199.45 86.3909 200.45 85.3242 202.45C84.2576 204.417 83.7242 207.05 83.7242 210.35C83.7242 213.65 84.2576 216.3 85.3242 218.3ZM119.98 227.6C117.047 227.6 114.447 227.117 112.18 226.15C109.913 225.15 108.13 223.85 106.83 222.25L110.53 217.5C111.663 218.667 113.063 219.6 114.73 220.3C116.397 220.967 118.063 221.3 119.73 221.3C121.73 221.3 123.28 220.917 124.38 220.15C125.48 219.35 126.03 218.317 126.03 217.05C126.03 215.717 125.497 214.75 124.43 214.15C123.363 213.517 121.663 213.2 119.33 213.2C117.23 213.2 115.847 213.233 115.18 213.3V206.9C115.58 206.933 116.963 206.95 119.33 206.95C123.43 206.95 125.48 205.767 125.48 203.4C125.48 202.133 124.897 201.167 123.73 200.5C122.597 199.8 121.113 199.45 119.28 199.45C116.047 199.45 113.23 200.6 110.83 202.9L107.28 198.45C110.413 194.917 114.663 193.15 120.03 193.15C123.93 193.15 126.997 193.967 129.23 195.6C131.497 197.233 132.63 199.433 132.63 202.2C132.63 204.2 131.913 205.883 130.48 207.25C129.047 208.583 127.33 209.433 125.33 209.8C127.297 210 129.08 210.817 130.68 212.25C132.313 213.65 133.13 215.5 133.13 217.8C133.13 220.7 131.93 223.067 129.53 224.9C127.13 226.7 123.947 227.6 119.98 227.6Z" fill="#0072EF"/>
<defs>
<clipPath id="clip0_2_1514">
<rect width="553" height="400" fill="white" transform="translate(757 30)"/>
</clipPath>
</defs>
</svg>
