<svg width="540" height="700" viewBox="0 0 540 700" fill="none" xmlns="http://www.w3.org/2000/svg">
<rect width="540" height="700" rx="24" fill="#EBF3FA"/>
<path d="M168.752 84H165.242V67.08H154.832V84H151.322V63.99H168.752V84ZM180.712 84.36C178.792 84.36 177.242 83.57 176.062 81.99V89.52H172.912V69.51H176.062V71.49C177.222 69.93 178.772 69.15 180.712 69.15C182.612 69.15 184.152 69.83 185.332 71.19C186.532 72.55 187.132 74.4 187.132 76.74C187.132 79.08 186.532 80.94 185.332 82.32C184.152 83.68 182.612 84.36 180.712 84.36ZM179.782 81.57C181.022 81.57 182.012 81.12 182.752 80.22C183.492 79.32 183.862 78.16 183.862 76.74C183.862 75.32 183.492 74.17 182.752 73.29C182.012 72.39 181.022 71.94 179.782 71.94C179.062 71.94 178.352 72.13 177.652 72.51C176.952 72.89 176.422 73.35 176.062 73.89V79.62C176.422 80.16 176.952 80.62 177.652 81C178.352 81.38 179.062 81.57 179.782 81.57ZM196.796 84.36C194.556 84.36 192.756 83.63 191.396 82.17C190.036 80.69 189.356 78.88 189.356 76.74C189.356 74.6 190.036 72.8 191.396 71.34C192.756 69.88 194.556 69.15 196.796 69.15C199.056 69.15 200.866 69.88 202.226 71.34C203.586 72.8 204.266 74.6 204.266 76.74C204.266 78.9 203.586 80.71 202.226 82.17C200.866 83.63 199.056 84.36 196.796 84.36ZM196.796 81.57C198.096 81.57 199.116 81.11 199.856 80.19C200.616 79.25 200.996 78.1 200.996 76.74C200.996 75.4 200.616 74.27 199.856 73.35C199.116 72.41 198.096 71.94 196.796 71.94C195.516 71.94 194.496 72.41 193.736 73.35C192.996 74.27 192.626 75.4 192.626 76.74C192.626 78.1 192.996 79.25 193.736 80.19C194.496 81.11 195.516 81.57 196.796 81.57ZM218.433 69.51V72.27H210.603V84H207.453V69.51H218.433ZM228.818 84.36C226.898 84.36 225.348 83.57 224.168 81.99V89.52H221.018V69.51H224.168V71.49C225.328 69.93 226.878 69.15 228.818 69.15C230.718 69.15 232.258 69.83 233.438 71.19C234.638 72.55 235.238 74.4 235.238 76.74C235.238 79.08 234.638 80.94 233.438 82.32C232.258 83.68 230.718 84.36 228.818 84.36ZM227.888 81.57C229.128 81.57 230.118 81.12 230.858 80.22C231.598 79.32 231.968 78.16 231.968 76.74C231.968 75.32 231.598 74.17 230.858 73.29C230.118 72.39 229.128 71.94 227.888 71.94C227.168 71.94 226.458 72.13 225.758 72.51C225.058 72.89 224.528 73.35 224.168 73.89V79.62C224.528 80.16 225.058 80.62 225.758 81C226.458 81.38 227.168 81.57 227.888 81.57ZM250.361 84H247.211V82.44C246.091 83.72 244.531 84.36 242.531 84.36C241.211 84.36 240.041 83.94 239.021 83.1C238.001 82.24 237.491 81.06 237.491 79.56C237.491 78.02 237.991 76.85 238.991 76.05C240.011 75.25 241.191 74.85 242.531 74.85C244.591 74.85 246.151 75.47 247.211 76.71V74.55C247.211 73.71 246.901 73.05 246.281 72.57C245.661 72.09 244.841 71.85 243.821 71.85C242.201 71.85 240.771 72.46 239.531 73.68L238.241 71.49C239.881 69.93 241.911 69.15 244.331 69.15C246.111 69.15 247.561 69.57 248.681 70.41C249.801 71.25 250.361 72.58 250.361 74.4V84ZM243.761 82.2C245.341 82.2 246.491 81.7 247.211 80.7V78.51C246.491 77.51 245.341 77.01 243.761 77.01C242.861 77.01 242.121 77.25 241.541 77.73C240.961 78.21 240.671 78.84 240.671 79.62C240.671 80.4 240.961 81.03 241.541 81.51C242.121 81.97 242.861 82.2 243.761 82.2ZM270.675 84H267.525V73.92L263.205 84H261.945L257.595 73.92V84H254.445V69.51H258.555L262.575 78.87L266.535 69.51H270.675V84ZM290.978 84H287.828V73.92L283.508 84H282.248L277.898 73.92V84H274.748V69.51H278.858L282.878 78.87L286.838 69.51H290.978V84ZM295.051 69.51H298.201V74.76H303.331C304.871 74.76 306.051 75.2 306.871 76.08C307.711 76.96 308.131 78.06 308.131 79.38C308.131 80.68 307.701 81.78 306.841 82.68C306.001 83.56 304.831 84 303.331 84H295.051V69.51ZM302.941 77.52H298.201V81.24H302.941C303.561 81.24 304.041 81.07 304.381 80.73C304.741 80.39 304.921 79.94 304.921 79.38C304.921 78.82 304.741 78.37 304.381 78.03C304.041 77.69 303.561 77.52 302.941 77.52ZM313.471 84H310.321V69.51H313.471V84ZM324.056 87.69V81.24C324.856 81.16 325.476 80.96 325.916 80.64C326.356 80.32 326.756 79.66 327.116 78.66C327.496 77.66 327.796 76.2 328.016 74.28L329.186 63.99H342.776V80.91H344.636V87.69H341.126V84H327.566V87.69H324.056ZM331.496 74.52C331.156 77.48 330.276 79.61 328.856 80.91H339.266V67.08H332.336L331.496 74.52ZM364.748 84H361.238V67.08H350.828V84H347.318V63.99H364.748V84ZM385.678 81.45C383.758 83.39 381.308 84.36 378.328 84.36C375.348 84.36 372.898 83.39 370.978 81.45C369.058 79.49 368.098 77.01 368.098 74.01C368.098 71.01 369.058 68.54 370.978 66.6C372.898 64.64 375.348 63.66 378.328 63.66C381.308 63.66 383.758 64.64 385.678 66.6C387.598 68.54 388.558 71.01 388.558 74.01C388.558 77.01 387.598 79.49 385.678 81.45ZM378.328 81.24C380.308 81.24 381.908 80.56 383.128 79.2C384.348 77.82 384.958 76.09 384.958 74.01C384.958 71.91 384.348 70.18 383.128 68.82C381.908 67.46 380.308 66.78 378.328 66.78C376.328 66.78 374.718 67.46 373.498 68.82C372.298 70.18 371.698 71.91 371.698 74.01C371.698 76.11 372.298 77.84 373.498 79.2C374.718 80.56 376.328 81.24 378.328 81.24Z" fill="black"/>
<path d="M82.1683 553H80.5083V541.14H72.7083V553H71.0483V539.66H82.1683V553ZM92.9066 551.78C92.0399 552.753 90.8866 553.24 89.4466 553.24C88.0066 553.24 86.8466 552.753 85.9666 551.78C85.0999 550.807 84.6666 549.6 84.6666 548.16C84.6666 546.72 85.0999 545.52 85.9666 544.56C86.8466 543.587 88.0066 543.1 89.4466 543.1C90.8866 543.1 92.0399 543.587 92.9066 544.56C93.7866 545.52 94.2266 546.72 94.2266 548.16C94.2266 549.6 93.7866 550.807 92.9066 551.78ZM87.0866 550.82C87.6732 551.54 88.4599 551.9 89.4466 551.9C90.4332 551.9 91.2132 551.54 91.7866 550.82C92.3599 550.087 92.6466 549.2 92.6466 548.16C92.6466 547.12 92.3599 546.24 91.7866 545.52C91.2132 544.8 90.4332 544.44 89.4466 544.44C88.4599 544.44 87.6732 544.807 87.0866 545.54C86.5132 546.26 86.2266 547.133 86.2266 548.16C86.2266 549.2 86.5132 550.087 87.0866 550.82ZM95.5319 553.24V552C95.9852 552 96.3585 551.7 96.6519 551.1C96.9452 550.5 97.1852 549.5 97.3719 548.1L97.9919 543.34H104.712V553H103.212V544.66H99.3119L98.8719 548.28C98.6585 550.053 98.2852 551.327 97.7519 552.1C97.2185 552.86 96.4785 553.24 95.5319 553.24ZM107.167 556.78L107.407 555.42C107.647 555.527 107.92 555.58 108.227 555.58C108.574 555.58 108.86 555.507 109.087 555.36C109.314 555.213 109.507 554.947 109.667 554.56L110.307 553.1L106.267 543.34H107.887L111.107 551.26L114.307 543.34H115.947L111.107 554.96C110.574 556.24 109.627 556.893 108.267 556.92C107.867 556.92 107.5 556.873 107.167 556.78ZM117.312 543.34H118.812V546.06C118.812 546.927 119.012 547.527 119.412 547.86C119.812 548.193 120.432 548.36 121.272 548.36C122.312 548.36 123.165 548.187 123.832 547.84V543.34H125.332V553H123.832V549.06C122.978 549.487 121.998 549.7 120.892 549.7C119.638 549.7 118.725 549.447 118.152 548.94C117.592 548.433 117.312 547.627 117.312 546.52V543.34ZM135.872 553H134.372V551.9C133.559 552.793 132.492 553.24 131.172 553.24C130.279 553.24 129.492 552.953 128.812 552.38C128.132 551.807 127.792 551.027 127.792 550.04C127.792 549.027 128.125 548.247 128.792 547.7C129.472 547.14 130.265 546.86 131.172 546.86C132.545 546.86 133.612 547.3 134.372 548.18V546.44C134.372 545.8 134.145 545.3 133.692 544.94C133.239 544.58 132.652 544.4 131.932 544.4C130.799 544.4 129.812 544.847 128.972 545.74L128.272 544.7C129.299 543.633 130.585 543.1 132.132 543.1C133.239 543.1 134.139 543.367 134.832 543.9C135.525 544.433 135.872 545.253 135.872 546.36V553ZM131.712 552.16C132.912 552.16 133.799 551.76 134.372 550.96V549.14C133.799 548.34 132.912 547.94 131.712 547.94C131.019 547.94 130.445 548.14 129.992 548.54C129.552 548.927 129.332 549.433 129.332 550.06C129.332 550.673 129.552 551.18 129.992 551.58C130.445 551.967 131.019 552.16 131.712 552.16ZM140.319 553H138.879V543.34H140.379V550.72L145.439 543.34H146.919V553H145.419V545.48L140.319 553ZM146.399 540.48C145.532 541.653 144.366 542.24 142.899 542.24C141.446 542.24 140.272 541.653 139.379 540.48L140.119 539.84C140.812 540.8 141.739 541.28 142.899 541.28C144.072 541.28 144.992 540.8 145.659 539.84L146.399 540.48ZM160.49 553H155.07V543.34H160.39C161.23 543.34 161.89 543.567 162.37 544.02C162.864 544.473 163.11 545.073 163.11 545.82C163.11 546.367 162.957 546.84 162.65 547.24C162.357 547.627 161.99 547.887 161.55 548.02C162.044 548.14 162.457 548.427 162.79 548.88C163.137 549.333 163.31 549.833 163.31 550.38C163.31 551.167 163.057 551.8 162.55 552.28C162.057 552.76 161.37 553 160.49 553ZM160.19 551.68C160.67 551.68 161.05 551.547 161.33 551.28C161.61 551.013 161.75 550.653 161.75 550.2C161.75 549.787 161.61 549.433 161.33 549.14C161.05 548.847 160.67 548.7 160.19 548.7H156.57V551.68H160.19ZM160.13 547.38C160.584 547.38 160.937 547.26 161.19 547.02C161.444 546.767 161.57 546.44 161.57 546.04C161.57 545.613 161.444 545.28 161.19 545.04C160.937 544.787 160.584 544.66 160.13 544.66H156.57V547.38H160.13ZM173.825 551.78C172.958 552.753 171.805 553.24 170.365 553.24C168.925 553.24 167.765 552.753 166.885 551.78C166.018 550.807 165.585 549.6 165.585 548.16C165.585 546.72 166.018 545.52 166.885 544.56C167.765 543.587 168.925 543.1 170.365 543.1C171.805 543.1 172.958 543.587 173.825 544.56C174.705 545.52 175.145 546.72 175.145 548.16C175.145 549.6 174.705 550.807 173.825 551.78ZM168.005 550.82C168.591 551.54 169.378 551.9 170.365 551.9C171.351 551.9 172.131 551.54 172.705 550.82C173.278 550.087 173.565 549.2 173.565 548.16C173.565 547.12 173.278 546.24 172.705 545.52C172.131 544.8 171.351 544.44 170.365 544.44C169.378 544.44 168.591 544.807 168.005 545.54C167.431 546.26 167.145 547.133 167.145 548.16C167.145 549.2 167.431 550.087 168.005 550.82ZM181.85 553.24C180.423 553.24 179.263 552.76 178.37 551.8C177.477 550.827 177.03 549.613 177.03 548.16C177.03 546.707 177.477 545.5 178.37 544.54C179.263 543.58 180.423 543.1 181.85 543.1C183.343 543.1 184.523 543.66 185.39 544.78L184.39 545.7C183.777 544.86 182.957 544.44 181.93 544.44C180.917 544.44 180.103 544.787 179.49 545.48C178.89 546.173 178.59 547.067 178.59 548.16C178.59 549.253 178.89 550.153 179.49 550.86C180.103 551.553 180.917 551.9 181.93 551.9C182.943 551.9 183.763 551.48 184.39 550.64L185.39 551.56C184.523 552.68 183.343 553.24 181.85 553.24ZM190.752 553H189.252V544.66H186.452V543.34H193.572V544.66H190.752V553ZM200.299 553.24C198.939 553.24 197.852 552.673 197.039 551.54V556.68H195.539V543.34H197.039V544.78C197.399 544.273 197.866 543.867 198.439 543.56C199.012 543.253 199.632 543.1 200.299 543.1C201.579 543.1 202.612 543.56 203.399 544.48C204.199 545.387 204.599 546.613 204.599 548.16C204.599 549.707 204.199 550.94 203.399 551.86C202.612 552.78 201.579 553.24 200.299 553.24ZM199.919 551.9C200.866 551.9 201.619 551.553 202.179 550.86C202.739 550.153 203.019 549.253 203.019 548.16C203.019 547.067 202.739 546.173 202.179 545.48C201.619 544.787 200.866 544.44 199.919 544.44C199.346 544.44 198.786 544.593 198.239 544.9C197.706 545.193 197.306 545.553 197.039 545.98V550.34C197.306 550.78 197.706 551.153 198.239 551.46C198.786 551.753 199.346 551.9 199.919 551.9ZM211.344 553.24C209.904 553.24 208.724 552.773 207.804 551.84C206.884 550.893 206.424 549.667 206.424 548.16C206.424 546.747 206.878 545.553 207.784 544.58C208.691 543.593 209.824 543.1 211.184 543.1C212.611 543.1 213.738 543.593 214.564 544.58C215.404 545.553 215.824 546.787 215.824 548.28V548.66H208.004C208.071 549.607 208.418 550.4 209.044 551.04C209.671 551.68 210.484 552 211.484 552C212.684 552 213.678 551.593 214.464 550.78L215.184 551.76C214.198 552.747 212.918 553.24 211.344 553.24ZM214.344 547.56C214.331 546.733 214.051 545.993 213.504 545.34C212.958 544.673 212.178 544.34 211.164 544.34C210.204 544.34 209.444 544.667 208.884 545.32C208.338 545.973 208.044 546.72 208.004 547.56H214.344ZM220.114 550.82C220.701 551.54 221.487 551.9 222.474 551.9C223.461 551.9 224.241 551.54 224.814 550.82C225.387 550.087 225.674 549.193 225.674 548.14C225.674 547.113 225.387 546.24 224.814 545.52C224.241 544.8 223.461 544.44 222.474 544.44C221.487 544.44 220.701 544.8 220.114 545.52C219.541 546.24 219.254 547.113 219.254 548.14C219.254 549.193 219.541 550.087 220.114 550.82ZM222.474 553.24C221.021 553.24 219.861 552.727 218.994 551.7C218.127 550.673 217.694 549.347 217.694 547.72C217.694 545.427 218.107 543.733 218.934 542.64C219.761 541.533 221.034 540.867 222.754 540.64C223.781 540.48 224.487 540.327 224.874 540.18C225.274 540.033 225.474 539.86 225.474 539.66H226.934C226.934 540.033 226.821 540.36 226.594 540.64C226.367 540.907 226.041 541.12 225.614 541.28C225.201 541.44 224.807 541.567 224.434 541.66C224.074 541.74 223.641 541.813 223.134 541.88C221.801 542.067 220.834 542.433 220.234 542.98C219.647 543.527 219.261 544.253 219.074 545.16C219.954 543.787 221.167 543.1 222.714 543.1C224.047 543.1 225.134 543.587 225.974 544.56C226.814 545.533 227.234 546.727 227.234 548.14C227.234 549.58 226.801 550.793 225.934 551.78C225.067 552.753 223.914 553.24 222.474 553.24ZM237.477 551.78C236.61 552.753 235.457 553.24 234.017 553.24C232.577 553.24 231.417 552.753 230.537 551.78C229.67 550.807 229.237 549.6 229.237 548.16C229.237 546.72 229.67 545.52 230.537 544.56C231.417 543.587 232.577 543.1 234.017 543.1C235.457 543.1 236.61 543.587 237.477 544.56C238.357 545.52 238.797 546.72 238.797 548.16C238.797 549.6 238.357 550.807 237.477 551.78ZM231.657 550.82C232.244 551.54 233.03 551.9 234.017 551.9C235.004 551.9 235.784 551.54 236.357 550.82C236.93 550.087 237.217 549.2 237.217 548.16C237.217 547.12 236.93 546.24 236.357 545.52C235.784 544.8 235.004 544.44 234.017 544.44C233.03 544.44 232.244 544.807 231.657 545.54C231.084 546.26 230.797 547.133 230.797 548.16C230.797 549.2 231.084 550.087 231.657 550.82ZM246.662 553H241.242V543.34H246.562C247.402 543.34 248.062 543.567 248.542 544.02C249.036 544.473 249.282 545.073 249.282 545.82C249.282 546.367 249.129 546.84 248.822 547.24C248.529 547.627 248.162 547.887 247.722 548.02C248.216 548.14 248.629 548.427 248.962 548.88C249.309 549.333 249.482 549.833 249.482 550.38C249.482 551.167 249.229 551.8 248.722 552.28C248.229 552.76 247.542 553 246.662 553ZM246.362 551.68C246.842 551.68 247.222 551.547 247.502 551.28C247.782 551.013 247.922 550.653 247.922 550.2C247.922 549.787 247.782 549.433 247.502 549.14C247.222 548.847 246.842 548.7 246.362 548.7H242.742V551.68H246.362ZM246.302 547.38C246.756 547.38 247.109 547.26 247.362 547.02C247.616 546.767 247.742 546.44 247.742 546.04C247.742 545.613 247.616 545.28 247.362 545.04C247.109 544.787 246.756 544.66 246.302 544.66H242.742V547.38H246.302ZM259.856 553H258.356V551.9C257.543 552.793 256.476 553.24 255.156 553.24C254.263 553.24 253.476 552.953 252.796 552.38C252.116 551.807 251.776 551.027 251.776 550.04C251.776 549.027 252.11 548.247 252.776 547.7C253.456 547.14 254.25 546.86 255.156 546.86C256.53 546.86 257.596 547.3 258.356 548.18V546.44C258.356 545.8 258.13 545.3 257.676 544.94C257.223 544.58 256.636 544.4 255.916 544.4C254.783 544.4 253.796 544.847 252.956 545.74L252.256 544.7C253.283 543.633 254.57 543.1 256.116 543.1C257.223 543.1 258.123 543.367 258.816 543.9C259.51 544.433 259.856 545.253 259.856 546.36V553ZM255.696 552.16C256.896 552.16 257.783 551.76 258.356 550.96V549.14C257.783 548.34 256.896 547.94 255.696 547.94C255.003 547.94 254.43 548.14 253.976 548.54C253.536 548.927 253.316 549.433 253.316 550.06C253.316 550.673 253.536 551.18 253.976 551.58C254.43 551.967 255.003 552.16 255.696 552.16ZM264.363 553H262.863V543.34H264.363V547.36H269.403V543.34H270.903V553H269.403V548.68H264.363V553ZM275.398 553H273.898V543.34H275.398V547.36H280.438V543.34H281.938V553H280.438V548.68H275.398V553ZM284.934 543.34H286.434V547.08H290.054C291.014 547.08 291.76 547.367 292.294 547.94C292.827 548.5 293.094 549.2 293.094 550.04C293.094 550.88 292.82 551.587 292.274 552.16C291.74 552.72 291 553 290.054 553H284.934V543.34ZM289.894 548.4H286.434V551.68H289.894C290.427 551.68 290.834 551.533 291.114 551.24C291.407 550.933 291.554 550.533 291.554 550.04C291.554 549.547 291.407 549.153 291.114 548.86C290.834 548.553 290.427 548.4 289.894 548.4ZM296.174 553H294.674V543.34H296.174V553ZM303.532 553.24C302.092 553.24 300.912 552.773 299.992 551.84C299.072 550.893 298.612 549.667 298.612 548.16C298.612 546.747 299.065 545.553 299.972 544.58C300.879 543.593 302.012 543.1 303.372 543.1C304.799 543.1 305.925 543.593 306.752 544.58C307.592 545.553 308.012 546.787 308.012 548.28V548.66H300.192C300.259 549.607 300.605 550.4 301.232 551.04C301.859 551.68 302.672 552 303.672 552C304.872 552 305.865 551.593 306.652 550.78L307.372 551.76C306.385 552.747 305.105 553.24 303.532 553.24ZM306.532 547.56C306.519 546.733 306.239 545.993 305.692 545.34C305.145 544.673 304.365 544.34 303.352 544.34C302.392 544.34 301.632 544.667 301.072 545.32C300.525 545.973 300.232 546.72 300.192 547.56H306.532ZM319.018 553.24C317.164 553.24 315.711 552.713 314.658 551.66L315.398 550.7C316.304 551.567 317.511 552 319.018 552C319.884 552 320.571 551.847 321.078 551.54C321.598 551.233 321.858 550.827 321.858 550.32C321.858 549.253 320.844 548.72 318.818 548.72H316.658V547.5H318.818C319.658 547.5 320.344 547.367 320.878 547.1C321.411 546.82 321.678 546.413 321.678 545.88C321.678 545.427 321.411 545.06 320.878 544.78C320.344 544.487 319.671 544.34 318.858 544.34C317.511 544.34 316.431 544.753 315.618 545.58L314.838 544.66C315.838 543.633 317.158 543.12 318.798 543.12C320.118 543.107 321.184 543.333 321.998 543.8C322.824 544.253 323.238 544.887 323.238 545.7C323.238 546.367 322.964 546.907 322.418 547.32C321.884 547.733 321.291 547.98 320.638 548.06C321.318 548.113 321.951 548.34 322.538 548.74C323.138 549.14 323.438 549.7 323.438 550.42C323.438 551.247 323.038 551.927 322.238 552.46C321.451 552.98 320.378 553.24 319.018 553.24ZM327.371 553H325.871V543.34H327.371V547.36H332.411V543.34H333.911V553H332.411V548.68H327.371V553ZM344.446 553H342.946V551.9C342.133 552.793 341.066 553.24 339.746 553.24C338.853 553.24 338.066 552.953 337.386 552.38C336.706 551.807 336.366 551.027 336.366 550.04C336.366 549.027 336.7 548.247 337.366 547.7C338.046 547.14 338.84 546.86 339.746 546.86C341.12 546.86 342.186 547.3 342.946 548.18V546.44C342.946 545.8 342.72 545.3 342.266 544.94C341.813 544.58 341.226 544.4 340.506 544.4C339.373 544.4 338.386 544.847 337.546 545.74L336.846 544.7C337.873 543.633 339.16 543.1 340.706 543.1C341.813 543.1 342.713 543.367 343.406 543.9C344.1 544.433 344.446 545.253 344.446 546.36V553ZM340.286 552.16C341.486 552.16 342.373 551.76 342.946 550.96V549.14C342.373 548.34 341.486 547.94 340.286 547.94C339.593 547.94 339.02 548.14 338.566 548.54C338.126 548.927 337.906 549.433 337.906 550.06C337.906 550.673 338.126 551.18 338.566 551.58C339.02 551.967 339.593 552.16 340.286 552.16ZM348.953 553H347.453V543.34H348.953V547.36H353.993V543.34H355.493V553H353.993V548.68H348.953V553ZM359.928 553H358.488V543.34H359.988V550.72L365.048 543.34H366.528V553H365.028V545.48L359.928 553ZM370.963 553H369.203L371.783 549.2C371.05 549.107 370.45 548.8 369.983 548.28C369.53 547.76 369.303 547.1 369.303 546.3C369.303 545.447 369.577 544.74 370.123 544.18C370.67 543.62 371.417 543.34 372.363 543.34H377.463V553H375.963V549.26H373.323L370.963 553ZM372.523 547.94H375.963V544.66H372.523C372.003 544.66 371.59 544.813 371.283 545.12C370.99 545.413 370.843 545.807 370.843 546.3C370.843 546.793 370.99 547.193 371.283 547.5C371.577 547.793 371.99 547.94 372.523 547.94ZM387.057 553H385.617V543.34H387.117V550.72L392.177 543.34H393.657V553H392.157V545.48L387.057 553ZM403.309 553H401.809V543.34H403.309V547.36H408.349V543.34H409.849V553H408.349V548.68H403.309V553ZM420.384 553H418.884V551.9C418.07 552.793 417.004 553.24 415.684 553.24C414.79 553.24 414.004 552.953 413.324 552.38C412.644 551.807 412.304 551.027 412.304 550.04C412.304 549.027 412.637 548.247 413.304 547.7C413.984 547.14 414.777 546.86 415.684 546.86C417.057 546.86 418.124 547.3 418.884 548.18V546.44C418.884 545.8 418.657 545.3 418.204 544.94C417.75 544.58 417.164 544.4 416.444 544.4C415.31 544.4 414.324 544.847 413.484 545.74L412.784 544.7C413.81 543.633 415.097 543.1 416.644 543.1C417.75 543.1 418.65 543.367 419.344 543.9C420.037 544.433 420.384 545.253 420.384 546.36V553ZM416.224 552.16C417.424 552.16 418.31 551.76 418.884 550.96V549.14C418.31 548.34 417.424 547.94 416.224 547.94C415.53 547.94 414.957 548.14 414.504 548.54C414.064 548.927 413.844 549.433 413.844 550.06C413.844 550.673 414.064 551.18 414.504 551.58C414.957 551.967 415.53 552.16 416.224 552.16ZM428.811 553H423.391V543.34H428.711C429.551 543.34 430.211 543.567 430.691 544.02C431.184 544.473 431.431 545.073 431.431 545.82C431.431 546.367 431.277 546.84 430.971 547.24C430.677 547.627 430.311 547.887 429.871 548.02C430.364 548.14 430.777 548.427 431.111 548.88C431.457 549.333 431.631 549.833 431.631 550.38C431.631 551.167 431.377 551.8 430.871 552.28C430.377 552.76 429.691 553 428.811 553ZM428.511 551.68C428.991 551.68 429.371 551.547 429.651 551.28C429.931 551.013 430.071 550.653 430.071 550.2C430.071 549.787 429.931 549.433 429.651 549.14C429.371 548.847 428.991 548.7 428.511 548.7H424.891V551.68H428.511ZM428.451 547.38C428.904 547.38 429.257 547.26 429.511 547.02C429.764 546.767 429.891 546.44 429.891 546.04C429.891 545.613 429.764 545.28 429.511 545.04C429.257 544.787 428.904 544.66 428.451 544.66H424.891V547.38H428.451ZM434.465 543.34H435.965V547.08H439.585C440.545 547.08 441.292 547.367 441.825 547.94C442.358 548.5 442.625 549.2 442.625 550.04C442.625 550.88 442.352 551.587 441.805 552.16C441.272 552.72 440.532 553 439.585 553H434.465V543.34ZM439.425 548.4H435.965V551.68H439.425C439.958 551.68 440.365 551.533 440.645 551.24C440.938 550.933 441.085 550.533 441.085 550.04C441.085 549.547 440.938 549.153 440.645 548.86C440.365 548.553 439.958 548.4 439.425 548.4ZM445.705 553H444.205V543.34H445.705V553ZM457.203 553H455.283L451.803 548.66L450.203 550.24V553H448.703V543.34H450.203V548.48L455.283 543.34H457.183L452.903 547.72L457.203 553ZM460.417 553H458.977V543.34H460.477V550.72L465.537 543.34H467.017V553H465.517V545.48L460.417 553ZM178.758 577H177.258V567.34H178.758V571.36H183.798V567.34H185.298V577H183.798V572.68H178.758V577ZM195.833 577H194.333V575.9C193.52 576.793 192.453 577.24 191.133 577.24C190.24 577.24 189.453 576.953 188.773 576.38C188.093 575.807 187.753 575.027 187.753 574.04C187.753 573.027 188.086 572.247 188.753 571.7C189.433 571.14 190.226 570.86 191.133 570.86C192.506 570.86 193.573 571.3 194.333 572.18V570.44C194.333 569.8 194.106 569.3 193.653 568.94C193.2 568.58 192.613 568.4 191.893 568.4C190.76 568.4 189.773 568.847 188.933 569.74L188.233 568.7C189.26 567.633 190.546 567.1 192.093 567.1C193.2 567.1 194.1 567.367 194.793 567.9C195.486 568.433 195.833 569.253 195.833 570.36V577ZM191.673 576.16C192.873 576.16 193.76 575.76 194.333 574.96V573.14C193.76 572.34 192.873 571.94 191.673 571.94C190.98 571.94 190.406 572.14 189.953 572.54C189.513 572.927 189.293 573.433 189.293 574.06C189.293 574.673 189.513 575.18 189.953 575.58C190.406 575.967 190.98 576.16 191.673 576.16ZM212.036 577H210.536V568.66H205.496V577H203.996V567.34H212.036V577ZM219.791 577.24C218.431 577.24 217.345 576.673 216.531 575.54V580.68H215.031V567.34H216.531V568.78C216.891 568.273 217.358 567.867 217.931 567.56C218.505 567.253 219.125 567.1 219.791 567.1C221.071 567.1 222.105 567.56 222.891 568.48C223.691 569.387 224.091 570.613 224.091 572.16C224.091 573.707 223.691 574.94 222.891 575.86C222.105 576.78 221.071 577.24 219.791 577.24ZM219.411 575.9C220.358 575.9 221.111 575.553 221.671 574.86C222.231 574.153 222.511 573.253 222.511 572.16C222.511 571.067 222.231 570.173 221.671 569.48C221.111 568.787 220.358 568.44 219.411 568.44C218.838 568.44 218.278 568.593 217.731 568.9C217.198 569.193 216.798 569.553 216.531 569.98V574.34C216.798 574.78 217.198 575.153 217.731 575.46C218.278 575.753 218.838 575.9 219.411 575.9ZM234.157 575.78C233.29 576.753 232.137 577.24 230.697 577.24C229.257 577.24 228.097 576.753 227.217 575.78C226.35 574.807 225.917 573.6 225.917 572.16C225.917 570.72 226.35 569.52 227.217 568.56C228.097 567.587 229.257 567.1 230.697 567.1C232.137 567.1 233.29 567.587 234.157 568.56C235.037 569.52 235.477 570.72 235.477 572.16C235.477 573.6 235.037 574.807 234.157 575.78ZM228.337 574.82C228.923 575.54 229.71 575.9 230.697 575.9C231.683 575.9 232.463 575.54 233.037 574.82C233.61 574.087 233.897 573.2 233.897 572.16C233.897 571.12 233.61 570.24 233.037 569.52C232.463 568.8 231.683 568.44 230.697 568.44C229.71 568.44 228.923 568.807 228.337 569.54C227.763 570.26 227.477 571.133 227.477 572.16C227.477 573.2 227.763 574.087 228.337 574.82ZM244.682 567.34V568.66H239.422V577H237.922V567.34H244.682ZM251.393 577.24C250.033 577.24 248.946 576.673 248.133 575.54V580.68H246.633V567.34H248.133V568.78C248.493 568.273 248.959 567.867 249.533 567.56C250.106 567.253 250.726 567.1 251.393 567.1C252.673 567.1 253.706 567.56 254.493 568.48C255.293 569.387 255.693 570.613 255.693 572.16C255.693 573.707 255.293 574.94 254.493 575.86C253.706 576.78 252.673 577.24 251.393 577.24ZM251.013 575.9C251.959 575.9 252.713 575.553 253.273 574.86C253.833 574.153 254.113 573.253 254.113 572.16C254.113 571.067 253.833 570.173 253.273 569.48C252.713 568.787 251.959 568.44 251.013 568.44C250.439 568.44 249.879 568.593 249.333 568.9C248.799 569.193 248.399 569.553 248.133 569.98V574.34C248.399 574.78 248.799 575.153 249.333 575.46C249.879 575.753 250.439 575.9 251.013 575.9ZM265.618 577H264.118V575.9C263.305 576.793 262.238 577.24 260.918 577.24C260.025 577.24 259.238 576.953 258.558 576.38C257.878 575.807 257.538 575.027 257.538 574.04C257.538 573.027 257.871 572.247 258.538 571.7C259.218 571.14 260.011 570.86 260.918 570.86C262.291 570.86 263.358 571.3 264.118 572.18V570.44C264.118 569.8 263.891 569.3 263.438 568.94C262.985 568.58 262.398 568.4 261.678 568.4C260.545 568.4 259.558 568.847 258.718 569.74L258.018 568.7C259.045 567.633 260.331 567.1 261.878 567.1C262.985 567.1 263.885 567.367 264.578 567.9C265.271 568.433 265.618 569.253 265.618 570.36V577ZM261.458 576.16C262.658 576.16 263.545 575.76 264.118 574.96V573.14C263.545 572.34 262.658 571.94 261.458 571.94C260.765 571.94 260.191 572.14 259.738 572.54C259.298 572.927 259.078 573.433 259.078 574.06C259.078 574.673 259.298 575.18 259.738 575.58C260.191 575.967 260.765 576.16 261.458 576.16ZM278.485 577H276.985V569.42L273.845 577H273.285L270.125 569.42V577H268.625V567.34H270.605L273.565 574.5L276.485 567.34H278.485V577ZM291.337 577H289.837V569.42L286.697 577H286.137L282.977 569.42V577H281.477V567.34H283.457L286.417 574.5L289.337 567.34H291.337V577ZM301.868 577H300.368V575.9C299.555 576.793 298.488 577.24 297.168 577.24C296.275 577.24 295.488 576.953 294.808 576.38C294.128 575.807 293.788 575.027 293.788 574.04C293.788 573.027 294.121 572.247 294.788 571.7C295.468 571.14 296.261 570.86 297.168 570.86C298.541 570.86 299.608 571.3 300.368 572.18V570.44C300.368 569.8 300.141 569.3 299.688 568.94C299.235 568.58 298.648 568.4 297.928 568.4C296.795 568.4 295.808 568.847 294.968 569.74L294.268 568.7C295.295 567.633 296.581 567.1 298.128 567.1C299.235 567.1 300.135 567.367 300.828 567.9C301.521 568.433 301.868 569.253 301.868 570.36V577ZM297.708 576.16C298.908 576.16 299.795 575.76 300.368 574.96V573.14C299.795 572.34 298.908 571.94 297.708 571.94C297.015 571.94 296.441 572.14 295.988 572.54C295.548 572.927 295.328 573.433 295.328 574.06C295.328 574.673 295.548 575.18 295.988 575.58C296.441 575.967 297.015 576.16 297.708 576.16ZM312.875 577H311.135L308.235 573.04L305.335 577H303.615L307.315 572.04L303.815 567.34H305.555L308.235 571.02L310.915 567.34H312.655L309.155 572.04L312.875 577ZM318.898 579.46V575.66C319.484 575.62 319.951 575.48 320.298 575.24C320.644 575 320.958 574.493 321.238 573.72C321.531 572.947 321.771 571.827 321.958 570.36L322.778 563.66H330.938V575.52H332.158V579.46H330.498V577H320.558V579.46H318.898ZM323.598 570.48C323.291 573.053 322.611 574.733 321.558 575.52H329.278V565.14H324.258L323.598 570.48ZM345.391 577H343.731V565.14H335.931V577H334.271V563.66H345.391V577ZM354.589 577.24C352.629 577.24 351.036 576.587 349.809 575.28C348.583 573.973 347.969 572.327 347.969 570.34C347.969 568.353 348.583 566.707 349.809 565.4C351.036 564.093 352.629 563.44 354.589 563.44C356.536 563.44 358.123 564.093 359.349 565.4C360.589 566.707 361.209 568.353 361.209 570.34C361.209 572.327 360.589 573.973 359.349 575.28C358.123 576.587 356.536 577.24 354.589 577.24ZM354.589 575.76C356.056 575.76 357.236 575.253 358.129 574.24C359.036 573.213 359.489 571.913 359.489 570.34C359.489 568.753 359.036 567.453 358.129 566.44C357.236 565.427 356.056 564.92 354.589 564.92C353.109 564.92 351.923 565.427 351.029 566.44C350.136 567.453 349.689 568.753 349.689 570.34C349.689 571.913 350.136 573.213 351.029 574.24C351.923 575.253 353.109 575.76 354.589 575.76ZM135.639 603.46V599.76C136.133 599.667 136.519 599.373 136.799 598.88C137.079 598.373 137.306 597.447 137.479 596.1L138.099 591.34H144.819V599.68H145.939V603.46H144.439V601H137.139V603.46H135.639ZM139.419 592.66L138.979 596.28C138.753 597.973 138.286 599.107 137.579 599.68H143.319V592.66H139.419ZM146.85 601.24V600C147.304 600 147.677 599.7 147.97 599.1C148.264 598.5 148.504 597.5 148.69 596.1L149.31 591.34H156.03V601H154.53V592.66H150.63L150.19 596.28C149.977 598.053 149.604 599.327 149.07 600.1C148.537 600.86 147.797 601.24 146.85 601.24ZM160.465 601H158.705L161.285 597.2C160.552 597.107 159.952 596.8 159.485 596.28C159.032 595.76 158.805 595.1 158.805 594.3C158.805 593.447 159.079 592.74 159.625 592.18C160.172 591.62 160.919 591.34 161.865 591.34H166.965V601H165.465V597.26H162.825L160.465 601ZM162.025 595.94H165.465V592.66H162.025C161.505 592.66 161.092 592.813 160.785 593.12C160.492 593.413 160.345 593.807 160.345 594.3C160.345 594.793 160.492 595.193 160.785 595.5C161.079 595.793 161.492 595.94 162.025 595.94ZM179.879 601.24C178.519 601.24 177.432 600.673 176.619 599.54V604.68H175.119V591.34H176.619V592.78C176.979 592.273 177.446 591.867 178.019 591.56C178.592 591.253 179.212 591.1 179.879 591.1C181.159 591.1 182.192 591.56 182.979 592.48C183.779 593.387 184.179 594.613 184.179 596.16C184.179 597.707 183.779 598.94 182.979 599.86C182.192 600.78 181.159 601.24 179.879 601.24ZM179.499 599.9C180.446 599.9 181.199 599.553 181.759 598.86C182.319 598.153 182.599 597.253 182.599 596.16C182.599 595.067 182.319 594.173 181.759 593.48C181.199 592.787 180.446 592.44 179.499 592.44C178.926 592.44 178.366 592.593 177.819 592.9C177.286 593.193 176.886 593.553 176.619 593.98V598.34C176.886 598.78 177.286 599.153 177.819 599.46C178.366 599.753 178.926 599.9 179.499 599.9ZM194.104 601H192.604V599.9C191.791 600.793 190.724 601.24 189.404 601.24C188.511 601.24 187.724 600.953 187.044 600.38C186.364 599.807 186.024 599.027 186.024 598.04C186.024 597.027 186.358 596.247 187.024 595.7C187.704 595.14 188.498 594.86 189.404 594.86C190.778 594.86 191.844 595.3 192.604 596.18V594.44C192.604 593.8 192.378 593.3 191.924 592.94C191.471 592.58 190.884 592.4 190.164 592.4C189.031 592.4 188.044 592.847 187.204 593.74L186.504 592.7C187.531 591.633 188.818 591.1 190.364 591.1C191.471 591.1 192.371 591.367 193.064 591.9C193.758 592.433 194.104 593.253 194.104 594.36V601ZM189.944 600.16C191.144 600.16 192.031 599.76 192.604 598.96V597.14C192.031 596.34 191.144 595.94 189.944 595.94C189.251 595.94 188.678 596.14 188.224 596.54C187.784 596.927 187.564 597.433 187.564 598.06C187.564 598.673 187.784 599.18 188.224 599.58C188.678 599.967 189.251 600.16 189.944 600.16ZM200.531 601.24C198.678 601.24 197.225 600.713 196.171 599.66L196.911 598.7C197.818 599.567 199.025 600 200.531 600C201.398 600 202.085 599.847 202.591 599.54C203.111 599.233 203.371 598.827 203.371 598.32C203.371 597.253 202.358 596.72 200.331 596.72H198.171V595.5H200.331C201.171 595.5 201.858 595.367 202.391 595.1C202.925 594.82 203.191 594.413 203.191 593.88C203.191 593.427 202.925 593.06 202.391 592.78C201.858 592.487 201.185 592.34 200.371 592.34C199.025 592.34 197.945 592.753 197.131 593.58L196.351 592.66C197.351 591.633 198.671 591.12 200.311 591.12C201.631 591.107 202.698 591.333 203.511 591.8C204.338 592.253 204.751 592.887 204.751 593.7C204.751 594.367 204.478 594.907 203.931 595.32C203.398 595.733 202.805 595.98 202.151 596.06C202.831 596.113 203.465 596.34 204.051 596.74C204.651 597.14 204.951 597.7 204.951 598.42C204.951 599.247 204.551 599.927 203.751 600.46C202.965 600.98 201.891 601.24 200.531 601.24ZM212.805 601H207.385V591.34H212.705C213.545 591.34 214.205 591.567 214.685 592.02C215.178 592.473 215.425 593.073 215.425 593.82C215.425 594.367 215.271 594.84 214.965 595.24C214.671 595.627 214.305 595.887 213.865 596.02C214.358 596.14 214.771 596.427 215.105 596.88C215.451 597.333 215.625 597.833 215.625 598.38C215.625 599.167 215.371 599.8 214.865 600.28C214.371 600.76 213.685 601 212.805 601ZM212.505 599.68C212.985 599.68 213.365 599.547 213.645 599.28C213.925 599.013 214.065 598.653 214.065 598.2C214.065 597.787 213.925 597.433 213.645 597.14C213.365 596.847 212.985 596.7 212.505 596.7H208.885V599.68H212.505ZM212.445 595.38C212.898 595.38 213.251 595.26 213.505 595.02C213.758 594.767 213.885 594.44 213.885 594.04C213.885 593.613 213.758 593.28 213.505 593.04C213.251 592.787 212.898 592.66 212.445 592.66H208.885V595.38H212.445ZM219.899 601H218.459V591.34H219.959V598.72L225.019 591.34H226.499V601H224.999V593.48L219.899 601ZM232.754 601H231.254V592.66H228.454V591.34H235.574V592.66H232.754V601ZM238.981 601H237.541V591.34H239.041V598.72L244.101 591.34H245.581V601H244.081V593.48L238.981 601ZM250.016 601H248.256L250.836 597.2C250.103 597.107 249.503 596.8 249.036 596.28C248.583 595.76 248.356 595.1 248.356 594.3C248.356 593.447 248.63 592.74 249.176 592.18C249.723 591.62 250.47 591.34 251.416 591.34H256.516V601H255.016V597.26H252.376L250.016 601ZM251.576 595.94H255.016V592.66H251.576C251.056 592.66 250.643 592.813 250.336 593.12C250.043 593.413 249.896 593.807 249.896 594.3C249.896 594.793 250.043 595.193 250.336 595.5C250.63 595.793 251.043 595.94 251.576 595.94ZM268.93 601.24C267.503 601.24 266.343 600.76 265.45 599.8C264.557 598.827 264.11 597.613 264.11 596.16C264.11 594.707 264.557 593.5 265.45 592.54C266.343 591.58 267.503 591.1 268.93 591.1C270.423 591.1 271.603 591.66 272.47 592.78L271.47 593.7C270.857 592.86 270.037 592.44 269.01 592.44C267.997 592.44 267.183 592.787 266.57 593.48C265.97 594.173 265.67 595.067 265.67 596.16C265.67 597.253 265.97 598.153 266.57 598.86C267.183 599.553 267.997 599.9 269.01 599.9C270.023 599.9 270.843 599.48 271.47 598.64L272.47 599.56C271.603 600.68 270.423 601.24 268.93 601.24ZM279.992 601H274.572V591.34H279.892C280.732 591.34 281.392 591.567 281.872 592.02C282.366 592.473 282.612 593.073 282.612 593.82C282.612 594.367 282.459 594.84 282.152 595.24C281.859 595.627 281.492 595.887 281.052 596.02C281.546 596.14 281.959 596.427 282.292 596.88C282.639 597.333 282.812 597.833 282.812 598.38C282.812 599.167 282.559 599.8 282.052 600.28C281.559 600.76 280.872 601 279.992 601ZM279.692 599.68C280.172 599.68 280.552 599.547 280.832 599.28C281.112 599.013 281.252 598.653 281.252 598.2C281.252 597.787 281.112 597.433 280.832 597.14C280.552 596.847 280.172 596.7 279.692 596.7H276.072V599.68H279.692ZM279.632 595.38C280.086 595.38 280.439 595.26 280.692 595.02C280.946 594.767 281.072 594.44 281.072 594.04C281.072 593.613 280.946 593.28 280.692 593.04C280.439 592.787 280.086 592.66 279.632 592.66H276.072V595.38H279.632ZM293.326 599.78C292.46 600.753 291.306 601.24 289.866 601.24C288.426 601.24 287.266 600.753 286.386 599.78C285.52 598.807 285.086 597.6 285.086 596.16C285.086 594.72 285.52 593.52 286.386 592.56C287.266 591.587 288.426 591.1 289.866 591.1C291.306 591.1 292.46 591.587 293.326 592.56C294.206 593.52 294.646 594.72 294.646 596.16C294.646 597.6 294.206 598.807 293.326 599.78ZM287.506 598.82C288.093 599.54 288.88 599.9 289.866 599.9C290.853 599.9 291.633 599.54 292.206 598.82C292.78 598.087 293.066 597.2 293.066 596.16C293.066 595.12 292.78 594.24 292.206 593.52C291.633 592.8 290.853 592.44 289.866 592.44C288.88 592.44 288.093 592.807 287.506 593.54C286.933 594.26 286.646 595.133 286.646 596.16C286.646 597.2 286.933 598.087 287.506 598.82ZM301.452 601.24C300.012 601.24 298.832 600.773 297.912 599.84C296.992 598.893 296.532 597.667 296.532 596.16C296.532 594.747 296.985 593.553 297.892 592.58C298.798 591.593 299.932 591.1 301.292 591.1C302.718 591.1 303.845 591.593 304.672 592.58C305.512 593.553 305.932 594.787 305.932 596.28V596.66H298.112C298.178 597.607 298.525 598.4 299.152 599.04C299.778 599.68 300.592 600 301.592 600C302.792 600 303.785 599.593 304.572 598.78L305.292 599.76C304.305 600.747 303.025 601.24 301.452 601.24ZM304.452 595.56C304.438 594.733 304.158 593.993 303.612 593.34C303.065 592.673 302.285 592.34 301.272 592.34C300.312 592.34 299.552 592.667 298.992 593.32C298.445 593.973 298.152 594.72 298.112 595.56H304.452ZM309.801 601H308.361V591.34H309.861V598.72L314.921 591.34H316.401V601H314.901V593.48L309.801 601ZM315.881 588.48C315.015 589.653 313.848 590.24 312.381 590.24C310.928 590.24 309.755 589.653 308.861 588.48L309.601 587.84C310.295 588.8 311.221 589.28 312.381 589.28C313.555 589.28 314.475 588.8 315.141 587.84L315.881 588.48ZM333.053 601H331.133L327.653 596.66L326.053 598.24V601H324.553V591.34H326.053V596.48L331.133 591.34H333.033L328.753 595.72L333.053 601ZM342.366 601H340.866V599.9C340.053 600.793 338.986 601.24 337.666 601.24C336.773 601.24 335.986 600.953 335.306 600.38C334.626 599.807 334.286 599.027 334.286 598.04C334.286 597.027 334.62 596.247 335.286 595.7C335.966 595.14 336.76 594.86 337.666 594.86C339.04 594.86 340.106 595.3 340.866 596.18V594.44C340.866 593.8 340.64 593.3 340.186 592.94C339.733 592.58 339.146 592.4 338.426 592.4C337.293 592.4 336.306 592.847 335.466 593.74L334.766 592.7C335.793 591.633 337.08 591.1 338.626 591.1C339.733 591.1 340.633 591.367 341.326 591.9C342.02 592.433 342.366 593.253 342.366 594.36V601ZM338.206 600.16C339.406 600.16 340.293 599.76 340.866 598.96V597.14C340.293 596.34 339.406 595.94 338.206 595.94C337.513 595.94 336.94 596.14 336.486 596.54C336.046 596.927 335.826 597.433 335.826 598.06C335.826 598.673 336.046 599.18 336.486 599.58C336.94 599.967 337.513 600.16 338.206 600.16ZM350.133 601.24C348.773 601.24 347.686 600.673 346.873 599.54V604.68H345.373V591.34H346.873V592.78C347.233 592.273 347.7 591.867 348.273 591.56C348.846 591.253 349.466 591.1 350.133 591.1C351.413 591.1 352.446 591.56 353.233 592.48C354.033 593.387 354.433 594.613 354.433 596.16C354.433 597.707 354.033 598.94 353.233 599.86C352.446 600.78 351.413 601.24 350.133 601.24ZM349.753 599.9C350.7 599.9 351.453 599.553 352.013 598.86C352.573 598.153 352.853 597.253 352.853 596.16C352.853 595.067 352.573 594.173 352.013 593.48C351.453 592.787 350.7 592.44 349.753 592.44C349.18 592.44 348.62 592.593 348.073 592.9C347.54 593.193 347.14 593.553 346.873 593.98V598.34C347.14 598.78 347.54 599.153 348.073 599.46C348.62 599.753 349.18 599.9 349.753 599.9ZM356.818 591.34H358.318V595.08H361.938C362.898 595.08 363.645 595.367 364.178 595.94C364.712 596.5 364.978 597.2 364.978 598.04C364.978 598.88 364.705 599.587 364.158 600.16C363.625 600.72 362.885 601 361.938 601H356.818V591.34ZM361.778 596.4H358.318V599.68H361.778C362.312 599.68 362.718 599.533 362.998 599.24C363.292 598.933 363.438 598.533 363.438 598.04C363.438 597.547 363.292 597.153 362.998 596.86C362.718 596.553 362.312 596.4 361.778 596.4ZM371.628 601.24C370.188 601.24 369.008 600.773 368.088 599.84C367.168 598.893 366.708 597.667 366.708 596.16C366.708 594.747 367.161 593.553 368.068 592.58C368.974 591.593 370.108 591.1 371.468 591.1C372.894 591.1 374.021 591.593 374.848 592.58C375.688 593.553 376.108 594.787 376.108 596.28V596.66H368.288C368.354 597.607 368.701 598.4 369.328 599.04C369.954 599.68 370.768 600 371.768 600C372.968 600 373.961 599.593 374.748 598.78L375.468 599.76C374.481 600.747 373.201 601.24 371.628 601.24ZM374.628 595.56C374.614 594.733 374.334 593.993 373.788 593.34C373.241 592.673 372.461 592.34 371.448 592.34C370.488 592.34 369.728 592.667 369.168 593.32C368.621 593.973 368.328 594.72 368.288 595.56H374.628ZM383.297 601.24C381.937 601.24 380.85 600.673 380.037 599.54V604.68H378.537V591.34H380.037V592.78C380.397 592.273 380.864 591.867 381.437 591.56C382.01 591.253 382.63 591.1 383.297 591.1C384.577 591.1 385.61 591.56 386.397 592.48C387.197 593.387 387.597 594.613 387.597 596.16C387.597 597.707 387.197 598.94 386.397 599.86C385.61 600.78 384.577 601.24 383.297 601.24ZM382.917 599.9C383.864 599.9 384.617 599.553 385.177 598.86C385.737 598.153 386.017 597.253 386.017 596.16C386.017 595.067 385.737 594.173 385.177 593.48C384.617 592.787 383.864 592.44 382.917 592.44C382.344 592.44 381.784 592.593 381.237 592.9C380.704 593.193 380.304 593.553 380.037 593.98V598.34C380.304 598.78 380.704 599.153 381.237 599.46C381.784 599.753 382.344 599.9 382.917 599.9ZM389.982 591.34H391.482V595.08H395.102C396.062 595.08 396.809 595.367 397.342 595.94C397.876 596.5 398.142 597.2 398.142 598.04C398.142 598.88 397.869 599.587 397.322 600.16C396.789 600.72 396.049 601 395.102 601H389.982V591.34ZM394.942 596.4H391.482V599.68H394.942C395.476 599.68 395.882 599.533 396.162 599.24C396.456 598.933 396.602 598.533 396.602 598.04C396.602 597.547 396.456 597.153 396.162 596.86C395.882 596.553 395.476 596.4 394.942 596.4ZM401.222 601H399.722V591.34H401.222V601Z" fill="black"/>
<path d="M265.906 343.038V415.132L328.339 451.169V379.095L265.906 343.038Z" fill="#64B2FF" stroke="black" stroke-width="0.69" stroke-linecap="round" stroke-linejoin="round"/>
<path d="M328.339 379.095V451.169L390.773 415.132V343.038L328.339 379.095Z" fill="#F25F74" stroke="black" stroke-width="0.69" stroke-linecap="round" stroke-linejoin="round"/>
<path d="M265.906 343.038L328.339 379.095L390.773 343.038L328.339 307.001L265.906 343.038Z" fill="white" stroke="black" stroke-width="0.69" stroke-linecap="round" stroke-linejoin="round"/>
<path d="M331.373 314.874V316.853C331.373 317.954 330.014 318.831 328.339 318.831C326.664 318.831 325.306 317.941 325.306 316.853V314.874H331.373Z" fill="white" stroke="black" stroke-width="0.69" stroke-linecap="round" stroke-linejoin="round"/>
<path d="M328.339 316.866C330.014 316.866 331.373 315.974 331.373 314.874C331.373 313.774 330.014 312.883 328.339 312.883C326.664 312.883 325.306 313.774 325.306 314.874C325.306 315.974 326.664 316.866 328.339 316.866Z" fill="white" stroke="black" stroke-width="0.69" stroke-linecap="round" stroke-linejoin="round"/>
<path d="M331.373 369.223V371.202C331.373 372.296 330.014 373.18 328.339 373.18C326.664 373.18 325.306 372.283 325.306 371.202V369.223H331.373Z" fill="white" stroke="black" stroke-width="0.69" stroke-linecap="round" stroke-linejoin="round"/>
<path d="M328.339 371.215C330.014 371.215 331.373 370.323 331.373 369.223C331.373 368.124 330.014 367.232 328.339 367.232C326.664 367.232 325.306 368.124 325.306 369.223C325.306 370.323 326.664 371.215 328.339 371.215Z" fill="white" stroke="black" stroke-width="0.69" stroke-linecap="round" stroke-linejoin="round"/>
<path d="M283.743 342.042V344.021C283.743 345.122 282.385 345.999 280.703 345.999C279.022 345.999 277.67 345.109 277.67 344.021V342.042H283.743Z" fill="white" stroke="black" stroke-width="0.69" stroke-linecap="round" stroke-linejoin="round"/>
<path d="M280.703 344.034C282.379 344.034 283.737 343.142 283.737 342.042C283.737 340.942 282.379 340.051 280.703 340.051C279.028 340.051 277.67 340.942 277.67 342.042C277.67 343.142 279.028 344.034 280.703 344.034Z" fill="white" stroke="black" stroke-width="0.69" stroke-linecap="round" stroke-linejoin="round"/>
<path d="M379.009 342.042V344.021C379.009 345.122 377.65 345.999 375.975 345.999C374.301 345.999 372.936 345.109 372.936 344.021V342.042H379.009Z" fill="white" stroke="black" stroke-width="0.69" stroke-linecap="round" stroke-linejoin="round"/>
<path d="M375.976 344.034C377.651 344.034 379.009 343.142 379.009 342.042C379.009 340.942 377.651 340.051 375.976 340.051C374.3 340.051 372.942 340.942 372.942 342.042C372.942 343.142 374.3 344.034 375.976 344.034Z" fill="white" stroke="black" stroke-width="0.69" stroke-linecap="round" stroke-linejoin="round"/>
<path d="M141.045 343.038V415.132L203.479 451.169V379.095L141.045 343.038Z" fill="#64B2FF" stroke="black" stroke-width="0.69" stroke-linecap="round" stroke-linejoin="round"/>
<path d="M203.479 379.095V451.169L265.906 415.132V343.038L203.479 379.095Z" fill="#F25F74" stroke="black" stroke-width="0.69" stroke-linecap="round" stroke-linejoin="round"/>
<path d="M141.045 343.038L203.479 379.095L265.906 343.038L203.479 307.001L141.045 343.038Z" fill="white" stroke="black" stroke-width="0.69" stroke-linecap="round" stroke-linejoin="round"/>
<path d="M206.512 314.874V316.853C206.512 317.954 205.154 318.831 203.479 318.831C201.804 318.831 200.439 317.941 200.439 316.853V314.874H206.512Z" fill="white" stroke="black" stroke-width="0.69" stroke-linecap="round" stroke-linejoin="round"/>
<path d="M203.479 316.866C205.154 316.866 206.512 315.974 206.512 314.874C206.512 313.774 205.154 312.883 203.479 312.883C201.804 312.883 200.446 313.774 200.446 314.874C200.446 315.974 201.804 316.866 203.479 316.866Z" fill="white" stroke="black" stroke-width="0.69" stroke-linecap="round" stroke-linejoin="round"/>
<path d="M206.512 369.223V371.202C206.512 372.296 205.154 373.18 203.479 373.18C201.804 373.18 200.439 372.283 200.439 371.202V369.223H206.512Z" fill="white" stroke="black" stroke-width="0.69" stroke-linecap="round" stroke-linejoin="round"/>
<path d="M203.479 371.215C205.154 371.215 206.512 370.323 206.512 369.223C206.512 368.124 205.154 367.232 203.479 367.232C201.804 367.232 200.446 368.124 200.446 369.223C200.446 370.323 201.804 371.215 203.479 371.215Z" fill="white" stroke="black" stroke-width="0.69" stroke-linecap="round" stroke-linejoin="round"/>
<path d="M158.856 342.042V344.021C158.856 345.122 157.498 345.999 155.823 345.999C154.148 345.999 152.79 345.109 152.79 344.021V342.042H158.856Z" fill="white" stroke="black" stroke-width="0.69" stroke-linecap="round" stroke-linejoin="round"/>
<path d="M155.843 344.034C157.518 344.034 158.876 343.142 158.876 342.042C158.876 340.942 157.518 340.051 155.843 340.051C154.168 340.051 152.81 340.942 152.81 342.042C152.81 343.142 154.168 344.034 155.843 344.034Z" fill="white" stroke="black" stroke-width="0.69" stroke-linecap="round" stroke-linejoin="round"/>
<path d="M254.142 342.042V344.021C254.142 345.122 252.783 345.999 251.109 345.999C249.434 345.999 248.075 345.109 248.075 344.021V342.042H254.142Z" fill="white" stroke="black" stroke-width="0.69" stroke-linecap="round" stroke-linejoin="round"/>
<path d="M251.109 344.034C252.784 344.034 254.142 343.142 254.142 342.042C254.142 340.942 252.784 340.051 251.109 340.051C249.433 340.051 248.075 340.942 248.075 342.042C248.075 343.142 249.433 344.034 251.109 344.034Z" fill="white" stroke="black" stroke-width="0.69" stroke-linecap="round" stroke-linejoin="round"/>
<path d="M203.479 234.907V307.001L265.906 343.038V270.964L203.479 234.907Z" fill="#FFDB7C" stroke="black" stroke-width="0.69" stroke-linecap="round" stroke-linejoin="round"/>
<path d="M265.906 270.964V343.038L328.339 307.001V234.907L265.906 270.964Z" fill="#64B2FF" stroke="black" stroke-width="0.69" stroke-linecap="round" stroke-linejoin="round"/>
<path d="M203.479 234.907L265.906 270.964L328.339 234.907L265.906 198.87L203.479 234.907Z" fill="white" stroke="black" stroke-width="0.69" stroke-linecap="round" stroke-linejoin="round"/>
<path d="M268.979 206.743V208.722C268.979 209.823 267.62 210.7 265.939 210.7C264.257 210.7 262.906 209.81 262.906 208.722V206.743H268.979Z" fill="white" stroke="black" stroke-width="0.69" stroke-linecap="round" stroke-linejoin="round"/>
<path d="M265.906 208.735C267.581 208.735 268.939 207.843 268.939 206.743C268.939 205.644 267.581 204.752 265.906 204.752C264.231 204.752 262.873 205.644 262.873 206.743C262.873 207.843 264.231 208.735 265.906 208.735Z" fill="white" stroke="black" stroke-width="0.69" stroke-linecap="round" stroke-linejoin="round"/>
<path d="M268.979 261.099V263.077C268.979 264.172 267.62 265.055 265.939 265.055C264.257 265.055 262.906 264.159 262.906 263.077V261.099H268.979Z" fill="white" stroke="black" stroke-width="0.69" stroke-linecap="round" stroke-linejoin="round"/>
<path d="M265.906 263.09C267.581 263.09 268.939 262.199 268.939 261.099C268.939 259.999 267.581 259.107 265.906 259.107C264.231 259.107 262.873 259.999 262.873 261.099C262.873 262.199 264.231 263.09 265.906 263.09Z" fill="white" stroke="black" stroke-width="0.69" stroke-linecap="round" stroke-linejoin="round"/>
<path d="M221.31 233.911V235.89C221.31 236.991 219.951 237.868 218.276 237.868C216.601 237.868 215.236 236.978 215.236 235.89V233.911H221.31Z" fill="white" stroke="black" stroke-width="0.69" stroke-linecap="round" stroke-linejoin="round"/>
<path d="M218.276 235.903C219.951 235.903 221.31 235.011 221.31 233.911C221.31 232.812 219.951 231.92 218.276 231.92C216.601 231.92 215.243 232.812 215.243 233.911C215.243 235.011 216.601 235.903 218.276 235.903Z" fill="white" stroke="black" stroke-width="0.69" stroke-linecap="round" stroke-linejoin="round"/>
<path d="M316.575 233.911V235.89C316.575 236.991 315.217 237.868 313.542 237.868C311.867 237.868 310.502 236.978 310.502 235.89V233.911H316.575Z" fill="white" stroke="black" stroke-width="0.69" stroke-linecap="round" stroke-linejoin="round"/>
<path d="M313.542 235.903C315.217 235.903 316.575 235.011 316.575 233.911C316.575 232.812 315.217 231.92 313.542 231.92C311.867 231.92 310.509 232.812 310.509 233.911C310.509 235.011 311.867 235.903 313.542 235.903Z" fill="white" stroke="black" stroke-width="0.69" stroke-linecap="round" stroke-linejoin="round"/>
<path d="M127.382 279.807C127.382 279.892 127.382 279.978 127.382 280.064C127.422 281.607 128.701 282.121 130.271 281.211L181.408 251.689C182.978 250.779 184.29 248.768 184.297 247.192C184.297 241.217 179.859 238.844 174.095 241.382C173.832 233.074 166.928 230.35 158.447 235.217C151.194 239.424 145.041 247.93 143.281 255.659C142.15 255.774 141.082 256.234 140.221 256.978C138.243 258.54 136.726 261.171 136.641 263.268C136.621 263.662 136.664 264.055 136.766 264.436C131.543 267.752 127.382 274.485 127.382 279.807Z" fill="white" stroke="black" stroke-width="0.69" stroke-linecap="round" stroke-linejoin="round"/>
<path d="M356.642 212.546C356.645 212.597 356.645 212.647 356.642 212.698C356.642 213.614 355.857 213.918 354.927 213.357L324.535 195.856C324.066 195.577 323.667 195.194 323.37 194.737C323.073 194.28 322.885 193.76 322.82 193.219C322.82 189.664 325.458 188.26 328.88 189.763C329.045 184.857 333.147 183.222 338.184 186.13C342.639 188.874 345.865 193.229 347.192 198.29C347.863 198.36 348.495 198.634 349.005 199.074C349.59 199.524 350.08 200.086 350.445 200.727C350.811 201.367 351.045 202.074 351.135 202.807C351.144 203.04 351.12 203.273 351.063 203.499C354.169 205.418 356.642 209.414 356.642 212.546Z" fill="white" stroke="black" stroke-width="0.69" stroke-linecap="round" stroke-linejoin="round"/>
<path opacity="0.2" d="M230.944 228.735L263.255 247.376C264.067 247.846 264.988 248.093 265.926 248.093C266.863 248.093 267.784 247.846 268.596 247.376L300.908 228.735C301.311 228.5 301.646 228.163 301.879 227.758C302.112 227.353 302.235 226.894 302.235 226.427C302.235 225.96 302.112 225.501 301.879 225.096C301.646 224.691 301.311 224.354 300.908 224.119L268.596 205.477C267.784 205.008 266.863 204.76 265.926 204.76C264.988 204.76 264.067 205.008 263.255 205.477L230.944 224.119C230.54 224.354 230.205 224.691 229.972 225.096C229.739 225.501 229.617 225.96 229.617 226.427C229.617 226.894 229.739 227.353 229.972 227.758C230.205 228.163 230.54 228.5 230.944 228.735Z" fill="black"/>
<path d="M280.795 245.827L289.988 235.217V251.135L280.795 245.827Z" fill="#FFDB7C" stroke="black" stroke-width="0.69" stroke-linecap="round" stroke-linejoin="round"/>
<path d="M299.187 245.827L289.988 235.217V251.135L299.187 245.827Z" fill="#FFDB7C" stroke="black" stroke-width="0.69" stroke-linecap="round" stroke-linejoin="round"/>
<path d="M234.801 205.233V224.528C234.804 225.104 234.957 225.67 235.246 226.169C235.536 226.668 235.951 227.082 236.45 227.37L262.688 242.536C263.689 243.12 264.827 243.427 265.985 243.427C267.144 243.427 268.281 243.12 269.282 242.536L295.52 227.37C296.018 227.081 296.432 226.666 296.72 226.168C297.008 225.669 297.161 225.104 297.162 224.528V205.233C297.162 204.201 296.752 203.212 296.023 202.482C295.293 201.753 294.303 201.343 293.272 201.343H238.698C237.666 201.343 236.676 201.752 235.945 202.482C235.214 203.211 234.803 204.201 234.801 205.233Z" fill="#64B2FF" stroke="black" stroke-width="0.69" stroke-linecap="round" stroke-linejoin="round"/>
<path style="mix-blend-mode:multiply" d="M297.142 205.233V224.528C297.141 225.104 296.988 225.669 296.7 226.168C296.412 226.666 295.998 227.081 295.5 227.37L271.254 241.356C270.718 241.664 270.111 241.825 269.494 241.824C268.876 241.823 268.27 241.66 267.736 241.35C267.201 241.041 266.758 240.597 266.449 240.062C266.141 239.527 265.978 238.92 265.978 238.303V201.336H293.252C293.763 201.336 294.27 201.437 294.742 201.633C295.215 201.829 295.644 202.116 296.005 202.478C296.366 202.84 296.653 203.27 296.848 203.742C297.043 204.215 297.143 204.722 297.142 205.233Z" fill="url(#paint0_linear_664_1366)"/>
<path d="M308.399 199.154L269.256 176.562C268.253 175.983 267.116 175.678 265.959 175.678C264.801 175.678 263.664 175.983 262.662 176.562L223.552 199.154H221.336V202.332C221.333 202.909 221.483 203.476 221.772 203.975C222.06 204.475 222.477 204.889 222.978 205.174L262.688 228.102C263.69 228.681 264.828 228.985 265.985 228.985C267.143 228.985 268.28 228.681 269.282 228.102L308.986 205.174C309.487 204.889 309.903 204.475 310.192 203.975C310.48 203.476 310.631 202.909 310.628 202.332V199.154H308.399Z" fill="white" stroke="black" stroke-width="0.69" stroke-linecap="round" stroke-linejoin="round"/>
<path d="M222.978 201.996L262.688 224.923C263.69 225.502 264.827 225.807 265.985 225.807C267.142 225.807 268.28 225.502 269.282 224.923L308.966 201.996C309.462 201.705 309.874 201.289 310.16 200.79C310.446 200.291 310.597 199.726 310.597 199.15C310.597 198.575 310.446 198.009 310.16 197.51C309.874 197.011 309.462 196.595 308.966 196.305L269.256 173.383C268.253 172.805 267.116 172.5 265.959 172.5C264.801 172.5 263.664 172.805 262.661 173.383L222.978 196.305C222.481 196.595 222.069 197.011 221.783 197.51C221.497 198.009 221.346 198.575 221.346 199.15C221.346 199.726 221.497 200.291 221.783 200.79C222.069 201.289 222.481 201.705 222.978 201.996Z" fill="#64B2FF" stroke="black" stroke-width="0.69" stroke-linecap="round" stroke-linejoin="round"/>
<path d="M310.614 199.153V202.332C310.619 202.908 310.469 203.475 310.182 203.975C309.895 204.474 309.479 204.888 308.979 205.174L269.256 228.102C268.853 228.336 268.427 228.526 267.983 228.669C267.753 228.736 267.511 228.749 267.275 228.707C267.039 228.665 266.817 228.568 266.625 228.425C266.433 228.281 266.277 228.095 266.169 227.881C266.062 227.667 266.005 227.431 266.005 227.192C266.001 226.839 266.12 226.496 266.341 226.222C266.562 225.947 266.873 225.759 267.218 225.688C267.943 225.551 268.641 225.295 269.282 224.93L308.972 201.995C309.474 201.71 309.891 201.297 310.179 200.797C310.468 200.298 310.618 199.73 310.614 199.153Z" fill="url(#paint1_linear_664_1366)"/>
<path d="M222.978 201.996L262.688 224.923C263.69 225.502 264.827 225.807 265.985 225.807C267.142 225.807 268.28 225.502 269.282 224.923L308.966 201.996C309.462 201.705 309.874 201.289 310.16 200.79C310.446 200.291 310.597 199.726 310.597 199.15C310.597 198.575 310.446 198.009 310.16 197.51C309.874 197.011 309.462 196.595 308.966 196.305L269.256 173.383C268.253 172.805 267.116 172.5 265.959 172.5C264.801 172.5 263.664 172.805 262.661 173.383L222.978 196.305C222.481 196.595 222.069 197.011 221.783 197.51C221.497 198.009 221.346 198.575 221.346 199.15C221.346 199.726 221.497 200.291 221.783 200.79C222.069 201.289 222.481 201.705 222.978 201.996Z" fill="#64B2FF" stroke="black" stroke-width="0.69" stroke-linecap="round" stroke-linejoin="round"/>
<path d="M310.608 199.153V202.332C310.606 202.908 310.454 203.473 310.166 203.972C309.877 204.47 309.464 204.885 308.966 205.174L269.256 228.102C268.253 228.68 267.116 228.985 265.959 228.985C264.801 228.985 263.664 228.68 262.662 228.102L222.978 205.174C222.477 204.888 222.06 204.475 221.772 203.975C221.483 203.476 221.333 202.909 221.336 202.332V199.153C221.333 199.729 221.484 200.295 221.773 200.794C222.061 201.292 222.477 201.704 222.978 201.989L262.688 224.93C263.69 225.509 264.828 225.813 265.985 225.813C267.143 225.813 268.28 225.509 269.282 224.93L308.966 201.995C309.466 201.709 309.882 201.296 310.171 200.796C310.459 200.297 310.61 199.73 310.608 199.153Z" stroke="black" stroke-width="0.69" stroke-linecap="round" stroke-linejoin="round"/>
<path d="M289.988 237.742C289.638 237.742 289.303 237.603 289.055 237.356C288.808 237.109 288.669 236.773 288.669 236.424V215.461C288.671 214.926 288.532 214.401 288.265 213.938C287.999 213.475 287.615 213.09 287.152 212.823L265.425 200.294C265.137 200.112 264.932 199.825 264.851 199.495C264.77 199.165 264.82 198.816 264.99 198.521C265.16 198.227 265.438 198.009 265.765 197.915C266.091 197.82 266.442 197.855 266.743 198.013L288.471 210.541C289.328 211.041 290.04 211.756 290.535 212.615C291.03 213.475 291.291 214.449 291.293 215.441V236.41C291.295 236.584 291.263 236.755 291.198 236.916C291.133 237.077 291.038 237.223 290.916 237.347C290.795 237.47 290.651 237.569 290.491 237.637C290.332 237.705 290.161 237.741 289.988 237.742Z" fill="white" stroke="black" stroke-width="0.69" stroke-linecap="round" stroke-linejoin="round"/>
<path d="M289.988 238.415C291.263 238.415 292.296 237.509 292.296 236.391C292.296 235.273 291.263 234.366 289.988 234.366C288.713 234.366 287.68 235.273 287.68 236.391C287.68 237.509 288.713 238.415 289.988 238.415Z" fill="white" stroke="black" stroke-width="0.69" stroke-linecap="round" stroke-linejoin="round"/>
<path opacity="0.2" d="M346.856 337.868C346.856 343.223 338.613 347.562 328.445 347.562C318.277 347.562 310.027 343.223 310.027 337.868C310.021 337.787 310.021 337.705 310.027 337.624C310.063 336.883 310.247 336.157 310.568 335.488C312.593 331.287 319.8 328.181 328.432 328.181C337.38 328.181 344.845 331.538 346.5 336.002C346.693 336.513 346.804 337.052 346.829 337.598C346.856 337.703 346.856 337.789 346.856 337.868Z" fill="black"/>
<path d="M328.339 296.18C339.192 296.18 347.99 291.19 347.99 285.036C347.99 278.881 339.192 273.892 328.339 273.892C317.487 273.892 308.689 278.881 308.689 285.036C308.689 291.19 317.487 296.18 328.339 296.18Z" fill="#FF7B22" stroke="black" stroke-width="0.69" stroke-linecap="round" stroke-linejoin="round"/>
<path d="M328.339 296.18C339.192 296.18 347.99 291.19 347.99 285.036C347.99 278.881 339.192 273.892 328.339 273.892C317.487 273.892 308.689 278.881 308.689 285.036C308.689 291.19 317.487 296.18 328.339 296.18Z" fill="url(#paint2_linear_664_1366)" stroke="black" stroke-width="0.69" stroke-linecap="round" stroke-linejoin="round"/>
<path d="M328.339 296.18C339.192 296.18 347.99 291.19 347.99 285.036C347.99 278.881 339.192 273.892 328.339 273.892C317.487 273.892 308.689 278.881 308.689 285.036C308.689 291.19 317.487 296.18 328.339 296.18Z" fill="url(#paint3_linear_664_1366)"/>
<path d="M341.047 334.604L341.086 334.69L341.047 334.597L340.763 333.997V333.964L339.695 331.65C338.673 328.564 334.03 326.243 328.485 326.243C323.13 326.243 318.64 328.392 317.38 331.3L316.14 334.044L316.061 334.208L315.883 334.597C315.664 335.14 315.55 335.72 315.547 336.305C315.547 340.479 321.343 343.869 328.485 343.869C335.626 343.869 341.416 340.479 341.416 336.305C341.402 335.72 341.276 335.143 341.047 334.604Z" fill="url(#paint4_linear_664_1366)" stroke="black" stroke-width="0.69" stroke-linecap="round" stroke-linejoin="round"/>
<path d="M315.797 334.696L315.844 334.584L316.015 334.202L315.797 334.696Z" fill="#FFDB7C" stroke="black" stroke-width="0.69" stroke-linecap="round" stroke-linejoin="round"/>
<path d="M339.206 331.531C339.206 334.466 334.386 336.84 328.445 336.84C322.503 336.84 317.677 334.466 317.677 331.531C317.673 331.485 317.673 331.439 317.677 331.393C317.698 330.986 317.806 330.588 317.993 330.226C319.18 327.924 323.407 326.223 328.438 326.223C333.667 326.223 338.033 328.063 338.989 330.509C339.103 330.786 339.167 331.081 339.18 331.38C339.193 331.429 339.202 331.48 339.206 331.531Z" fill="url(#paint5_linear_664_1366)" stroke="black" stroke-width="0.69" stroke-linecap="round" stroke-linejoin="round"/>
<path d="M323.532 311.307V329.263C323.532 330.852 325.728 332.138 328.438 332.138C331.148 332.138 333.351 330.819 333.351 329.263V311.307H323.532Z" fill="url(#paint6_linear_664_1366)" stroke="black" stroke-width="0.69" stroke-linecap="round" stroke-linejoin="round"/>
<path d="M336.134 319.062C336.134 316.576 332.685 314.558 328.438 314.558C324.192 314.558 320.75 316.576 320.75 319.062V321.521C320.75 324.007 324.192 326.025 328.438 326.025C332.685 326.025 336.134 324.007 336.134 321.521V319.062Z" fill="url(#paint7_linear_664_1366)" stroke="black" stroke-width="0.69" stroke-linecap="round" stroke-linejoin="round"/>
<path d="M350.654 289.256C350.654 289.151 350.713 289.045 350.733 288.94C350.753 288.834 350.733 288.781 350.786 288.702C350.865 288.32 350.924 287.931 350.977 287.535C350.977 287.403 351.017 287.278 351.03 287.146C351.083 286.698 351.122 286.249 351.135 285.781C351.135 285.55 351.135 285.293 351.135 285.042C351.135 281.317 348.946 277.96 345.299 275.455C341.171 272.612 335.184 270.839 328.412 270.839C319.259 270.839 311.524 274.057 307.904 278.824C306.5 280.591 305.723 282.773 305.695 285.029V285.174C305.695 285.372 305.695 285.577 305.695 285.768C305.741 286.923 305.898 288.071 306.163 289.197C304.57 289.576 303.088 290.325 301.838 291.383C300.588 292.441 299.603 293.778 298.965 295.287C298.327 296.795 298.052 298.432 298.163 300.066C298.274 301.7 298.768 303.285 299.605 304.693C300.442 306.101 301.598 307.293 302.98 308.172C304.362 309.05 305.931 309.592 307.561 309.752C309.191 309.913 310.836 309.688 312.363 309.095C313.89 308.503 315.256 307.559 316.351 306.342C316.549 306.896 316.72 307.456 316.865 308.023C317.168 309.211 317.369 310.422 317.465 311.643L317.901 317.202C318.442 318.523 319.435 319.607 320.703 320.262C320.98 320.427 321.277 320.592 321.587 320.737C322.197 321.025 322.83 321.264 323.479 321.449C323.987 321.611 324.504 321.739 325.029 321.831L325.24 321.871H325.306L325.537 321.91H325.636L326.071 321.963L326.407 322.009H326.671C326.875 322.009 327.08 322.049 327.284 322.062H327.462H327.706H328.366H328.445C328.735 322.062 329.018 322.062 329.302 322.062H329.46H329.671L330.093 322.023H330.35L330.7 321.976L331.122 321.924H331.234L331.465 321.884H331.518C331.589 321.875 331.659 321.861 331.729 321.844C332.254 321.747 332.774 321.619 333.285 321.462C334.257 321.185 335.189 320.786 336.061 320.275C336.246 320.17 336.417 320.057 336.582 319.945L336.668 319.879C336.806 319.787 336.938 319.688 337.07 319.589L337.129 319.536C337.261 319.424 337.393 319.319 337.512 319.2C337.754 318.97 337.974 318.718 338.171 318.448L338.296 318.27L338.435 318.066C338.501 317.96 338.56 317.848 338.62 317.736L338.659 317.657C338.725 317.519 338.784 317.374 338.837 317.229L339.266 311.67C339.401 309.919 339.758 308.193 340.327 306.533C341.439 307.708 342.808 308.609 344.326 309.165C345.845 309.721 347.472 309.916 349.079 309.736C350.687 309.556 352.23 309.005 353.588 308.127C354.946 307.249 356.082 306.067 356.906 304.675C357.729 303.283 358.218 301.719 358.335 300.106C358.451 298.493 358.191 296.875 357.575 295.38C356.959 293.884 356.005 292.552 354.787 291.488C353.568 290.424 352.12 289.658 350.555 289.25L350.654 289.256ZM346.856 285.036C346.856 290.397 338.422 294.927 328.438 294.927C325.075 294.948 321.732 294.406 318.547 293.325C313.878 291.689 310.588 288.959 310.087 285.873C310.039 285.597 310.015 285.317 310.014 285.036C310.014 282.332 312.17 279.833 315.593 278.026C315.955 277.835 316.331 277.65 316.727 277.472L316.859 277.413C317.287 277.228 317.729 277.044 318.178 276.879H318.237C318.718 276.701 319.206 276.536 319.714 276.391C321.95 275.725 324.256 275.323 326.585 275.191C327.198 275.151 327.818 275.138 328.438 275.138C336.239 275.138 343.097 277.908 345.721 281.666C346.439 282.645 346.835 283.822 346.856 285.036ZM308.669 305.695C307.073 305.707 305.531 305.115 304.353 304.038C303.175 302.961 302.447 301.478 302.315 299.888C302.183 298.297 302.657 296.715 303.642 295.459C304.627 294.203 306.051 293.365 307.627 293.114C308.625 295.079 309.919 296.878 311.465 298.448C312.419 299.417 313.278 300.475 314.03 301.607L314.366 302.135C313.845 303.202 313.035 304.102 312.028 304.731C311.02 305.361 309.857 305.695 308.669 305.695ZM348.016 305.695C346.862 305.696 345.73 305.381 344.742 304.785C343.755 304.189 342.948 303.334 342.411 302.313C343.264 300.915 344.273 299.619 345.418 298.448C346.13 297.709 346.791 296.923 347.396 296.094L347.456 296.015C347.64 295.758 347.825 295.494 348.003 295.224C348.069 295.125 348.135 295.026 348.194 294.927C348.37 294.65 348.542 294.367 348.709 294.076C348.754 294.004 348.796 293.929 348.834 293.852C348.966 293.621 349.091 293.391 349.21 293.147C350.728 293.476 352.073 294.352 352.988 295.607C353.903 296.863 354.325 298.411 354.173 299.957C354.022 301.503 353.308 302.94 352.167 303.994C351.025 305.049 349.537 305.647 347.983 305.676L348.016 305.695Z" fill="url(#paint8_linear_664_1366)" stroke="black" stroke-width="0.69" stroke-linecap="round" stroke-linejoin="round"/>
<path d="M343.717 423.744V434.341L377.954 414.558V377.222C377.954 370.166 373.694 366.573 367.595 367.476C368.139 368.973 368.405 370.558 368.379 372.151V409.507L343.717 423.744Z" fill="white" stroke="black" stroke-width="0.69" stroke-linecap="round" stroke-linejoin="round"/>
<path d="M343.717 396.985V423.744L368.379 409.507V372.125C368.405 370.532 368.139 368.947 367.595 367.45C365.206 367.855 362.915 368.707 360.842 369.962C355.926 372.975 351.789 377.105 348.768 382.016C345.636 386.876 343.717 392.264 343.717 396.985Z" fill="#FFDB7C" stroke="black" stroke-width="0.69" stroke-linecap="round" stroke-linejoin="round"/>
<path d="M377.954 414.578L368.379 409.507" stroke="black" stroke-width="0.69" stroke-linecap="round" stroke-linejoin="round"/>
<path d="M411.868 289.144C411.868 289.243 411.868 289.342 411.868 289.441C411.821 291.221 410.344 291.815 408.538 290.759L349.487 256.668C347.673 255.619 346.19 253.298 346.157 251.485V251.452C346.157 244.554 351.28 241.811 357.934 244.745C358.244 235.21 366.216 232.032 376.002 237.683C384.416 242.536 391.485 252.362 393.509 261.31C394.816 261.44 396.05 261.969 397.044 262.827C399.358 264.633 401.073 267.673 401.172 270.08C401.198 270.525 401.149 270.971 401.027 271.399C407.067 275.25 411.868 283.024 411.868 289.144Z" fill="white" stroke="black" stroke-width="0.69" stroke-linecap="round" stroke-linejoin="round"/>
<path d="M183.479 414.927V428.729L194.972 435.851V422.049L183.479 414.927Z" fill="#64B2FF" stroke="black" stroke-width="0.69" stroke-linecap="round" stroke-linejoin="round"/>
<path d="M193.251 433.233C193.415 433.233 193.548 433.026 193.548 432.771C193.548 432.516 193.415 432.31 193.251 432.31C193.087 432.31 192.955 432.516 192.955 432.771C192.955 433.026 193.087 433.233 193.251 433.233Z" fill="black"/>
<path d="M193.251 423.889C193.415 423.889 193.548 423.682 193.548 423.427C193.548 423.172 193.415 422.966 193.251 422.966C193.087 422.966 192.955 423.172 192.955 423.427C192.955 423.682 193.087 423.889 193.251 423.889Z" fill="black"/>
<path d="M185.193 428.3C185.43 428.3 185.622 428.002 185.622 427.634C185.622 427.267 185.43 426.969 185.193 426.969C184.957 426.969 184.765 427.267 184.765 427.634C184.765 428.002 184.957 428.3 185.193 428.3Z" fill="black"/>
<path d="M185.193 418.957C185.43 418.957 185.622 418.658 185.622 418.291C185.622 417.923 185.43 417.625 185.193 417.625C184.957 417.625 184.765 417.923 184.765 418.291C184.765 418.658 184.957 418.957 185.193 418.957Z" fill="black"/>
<path d="M193.251 433.418C193.488 433.418 193.68 433.119 193.68 432.751C193.68 432.384 193.488 432.085 193.251 432.085C193.015 432.085 192.823 432.384 192.823 432.751C192.823 433.119 193.015 433.418 193.251 433.418Z" fill="black"/>
<path d="M193.251 424.074C193.488 424.074 193.68 423.776 193.68 423.408C193.68 423.04 193.488 422.742 193.251 422.742C193.015 422.742 192.823 423.04 192.823 423.408C192.823 423.776 193.015 424.074 193.251 424.074Z" fill="black"/>
<path d="M309.104 399.214V413.022L320.604 420.137V406.342L309.104 399.214Z" fill="#64B2FF" stroke="black" stroke-width="0.69" stroke-linecap="round" stroke-linejoin="round"/>
<path d="M318.877 417.519C319.041 417.519 319.173 417.312 319.173 417.058C319.173 416.803 319.041 416.596 318.877 416.596C318.713 416.596 318.58 416.803 318.58 417.058C318.58 417.312 318.713 417.519 318.877 417.519Z" fill="black"/>
<path d="M318.877 408.175C319.041 408.175 319.173 407.968 319.173 407.714C319.173 407.459 319.041 407.252 318.877 407.252C318.713 407.252 318.58 407.459 318.58 407.714C318.58 407.968 318.713 408.175 318.877 408.175Z" fill="black"/>
<path d="M310.819 412.593C311.056 412.593 311.247 412.295 311.247 411.927C311.247 411.559 311.056 411.261 310.819 411.261C310.582 411.261 310.39 411.559 310.39 411.927C310.39 412.295 310.582 412.593 310.819 412.593Z" fill="black"/>
<path d="M310.819 403.249C311.056 403.249 311.247 402.951 311.247 402.583C311.247 402.215 311.056 401.917 310.819 401.917C310.582 401.917 310.39 402.215 310.39 402.583C310.39 402.951 310.582 403.249 310.819 403.249Z" fill="black"/>
<path d="M318.877 417.71C319.114 417.71 319.305 417.412 319.305 417.044C319.305 416.676 319.114 416.378 318.877 416.378C318.64 416.378 318.448 416.676 318.448 417.044C318.448 417.412 318.64 417.71 318.877 417.71Z" fill="black"/>
<path d="M318.877 408.36C319.114 408.36 319.305 408.062 319.305 407.694C319.305 407.326 319.114 407.028 318.877 407.028C318.64 407.028 318.448 407.326 318.448 407.694C318.448 408.062 318.64 408.36 318.877 408.36Z" fill="black"/>
<path d="M160.254 371.848V385.65L171.748 392.771V378.97L160.254 371.848Z" fill="#FFDB7C" stroke="black" stroke-width="0.69" stroke-linecap="round" stroke-linejoin="round"/>
<path d="M170.027 390.153C170.191 390.153 170.323 389.947 170.323 389.692C170.323 389.437 170.191 389.23 170.027 389.23C169.863 389.23 169.73 389.437 169.73 389.692C169.73 389.947 169.863 390.153 170.027 390.153Z" fill="black"/>
<path d="M170.027 380.809C170.191 380.809 170.323 380.603 170.323 380.348C170.323 380.093 170.191 379.886 170.027 379.886C169.863 379.886 169.73 380.093 169.73 380.348C169.73 380.603 169.863 380.809 170.027 380.809Z" fill="black"/>
<path d="M161.969 385.016C162.132 385.016 162.265 384.81 162.265 384.555C162.265 384.3 162.132 384.093 161.969 384.093C161.805 384.093 161.672 384.3 161.672 384.555C161.672 384.81 161.805 385.016 161.969 385.016Z" fill="black"/>
<path d="M161.969 375.672C162.132 375.672 162.265 375.466 162.265 375.211C162.265 374.956 162.132 374.749 161.969 374.749C161.805 374.749 161.672 374.956 161.672 375.211C161.672 375.466 161.805 375.672 161.969 375.672Z" fill="black"/>
<path d="M148.273 374.07V387.878L165.998 398.811V385.016L148.273 374.07Z" fill="white" stroke="black" stroke-width="0.69" stroke-linecap="round" stroke-linejoin="round"/>
<path d="M164.277 396.193C164.441 396.193 164.573 395.987 164.573 395.732C164.573 395.477 164.441 395.27 164.277 395.27C164.113 395.27 163.98 395.477 163.98 395.732C163.98 395.987 164.113 396.193 164.277 396.193Z" fill="black"/>
<path d="M164.277 386.85C164.441 386.85 164.573 386.643 164.573 386.388C164.573 386.133 164.441 385.927 164.277 385.927C164.113 385.927 163.98 386.133 163.98 386.388C163.98 386.643 164.113 386.85 164.277 386.85Z" fill="black"/>
<path d="M149.987 387.45C150.224 387.45 150.416 387.152 150.416 386.784C150.416 386.416 150.224 386.118 149.987 386.118C149.75 386.118 149.559 386.416 149.559 386.784C149.559 387.152 149.75 387.45 149.987 387.45Z" fill="black"/>
<path d="M149.987 378.099C150.224 378.099 150.416 377.801 150.416 377.433C150.416 377.065 150.224 376.767 149.987 376.767C149.75 376.767 149.559 377.065 149.559 377.433C149.559 377.801 149.75 378.099 149.987 378.099Z" fill="black"/>
<path d="M164.277 396.378C164.513 396.378 164.705 396.08 164.705 395.712C164.705 395.344 164.513 395.046 164.277 395.046C164.04 395.046 163.848 395.344 163.848 395.712C163.848 396.08 164.04 396.378 164.277 396.378Z" fill="black"/>
<path d="M164.277 387.034C164.513 387.034 164.705 386.736 164.705 386.368C164.705 386 164.513 385.702 164.277 385.702C164.04 385.702 163.848 386 163.848 386.368C163.848 386.736 164.04 387.034 164.277 387.034Z" fill="black"/>
<path d="M296.984 384.924V398.732L314.716 409.665V395.864L296.984 384.924Z" fill="white" stroke="black" stroke-width="0.69" stroke-linecap="round" stroke-linejoin="round"/>
<path d="M312.995 407.047C313.159 407.047 313.291 406.841 313.291 406.586C313.291 406.331 313.159 406.124 312.995 406.124C312.831 406.124 312.698 406.331 312.698 406.586C312.698 406.841 312.831 407.047 312.995 407.047Z" fill="black"/>
<path d="M312.995 397.704C313.159 397.704 313.291 397.497 313.291 397.242C313.291 396.987 313.159 396.781 312.995 396.781C312.831 396.781 312.698 396.987 312.698 397.242C312.698 397.497 312.831 397.704 312.995 397.704Z" fill="black"/>
<path d="M298.698 398.297C298.935 398.297 299.127 397.999 299.127 397.631C299.127 397.263 298.935 396.965 298.698 396.965C298.462 396.965 298.27 397.263 298.27 397.631C298.27 397.999 298.462 398.297 298.698 398.297Z" fill="black"/>
<path d="M298.698 388.953C298.935 388.953 299.127 388.655 299.127 388.287C299.127 387.919 298.935 387.621 298.698 387.621C298.462 387.621 298.27 387.919 298.27 388.287C298.27 388.655 298.462 388.953 298.698 388.953Z" fill="black"/>
<path d="M312.995 407.232C313.232 407.232 313.423 406.934 313.423 406.566C313.423 406.198 313.232 405.9 312.995 405.9C312.758 405.9 312.566 406.198 312.566 406.566C312.566 406.934 312.758 407.232 312.995 407.232Z" fill="black"/>
<path d="M312.995 397.888C313.232 397.888 313.423 397.59 313.423 397.222C313.423 396.854 313.232 396.556 312.995 396.556C312.758 396.556 312.566 396.854 312.566 397.222C312.566 397.59 312.758 397.888 312.995 397.888Z" fill="black"/>
<path opacity="0.2" d="M201.982 359.721L168.873 341.917C168.687 341.817 168.531 341.671 168.42 341.492C168.309 341.313 168.247 341.108 168.241 340.897C168.234 340.687 168.283 340.478 168.382 340.293C168.482 340.107 168.628 339.951 168.807 339.84L200.795 320.057C201.154 319.837 201.565 319.715 201.986 319.702C202.407 319.69 202.824 319.787 203.196 319.985L236.311 337.789C236.497 337.889 236.652 338.036 236.763 338.215C236.873 338.395 236.934 338.6 236.94 338.81C236.946 339.021 236.897 339.229 236.797 339.415C236.697 339.6 236.55 339.756 236.371 339.866L204.376 359.649C204.019 359.872 203.609 359.996 203.189 360.009C202.768 360.022 202.352 359.922 201.982 359.721Z" fill="black"/>
<path d="M199.839 345.748L163.426 326.17C163.221 326.061 163.049 325.899 162.926 325.701C162.804 325.504 162.736 325.278 162.73 325.045C162.723 324.813 162.778 324.583 162.888 324.379C162.999 324.175 163.162 324.003 163.36 323.882L198.533 302.121C198.927 301.878 199.378 301.742 199.841 301.728C200.304 301.714 200.763 301.823 201.171 302.042L237.59 321.647C237.794 321.757 237.965 321.918 238.086 322.115C238.207 322.312 238.274 322.537 238.281 322.768C238.288 323 238.233 323.228 238.124 323.432C238.014 323.636 237.853 323.807 237.656 323.928L202.47 345.689C202.075 345.928 201.624 346.06 201.162 346.07C200.701 346.081 200.244 345.97 199.839 345.748Z" fill="white" stroke="black" stroke-width="0.69" stroke-linecap="round" stroke-linejoin="round"/>
<path d="M199.839 333.688L163.426 314.096C163.223 313.986 163.052 313.825 162.931 313.628C162.809 313.431 162.742 313.206 162.735 312.975C162.729 312.743 162.783 312.515 162.893 312.311C163.002 312.107 163.163 311.936 163.36 311.815L198.533 290.054C198.927 289.81 199.379 289.675 199.842 289.661C200.305 289.647 200.763 289.755 201.171 289.975L237.591 309.573C237.795 309.682 237.968 309.844 238.09 310.042C238.212 310.239 238.28 310.465 238.287 310.698C238.294 310.93 238.239 311.16 238.128 311.364C238.017 311.568 237.855 311.74 237.656 311.861L202.47 333.622C202.076 333.862 201.625 333.995 201.163 334.006C200.702 334.018 200.245 333.908 199.839 333.688Z" fill="white" stroke="black" stroke-width="0.69" stroke-linecap="round" stroke-linejoin="round"/>
<path d="M199.839 321.614L163.426 302.016C163.223 301.906 163.052 301.744 162.931 301.547C162.809 301.35 162.742 301.125 162.735 300.894C162.729 300.663 162.783 300.434 162.893 300.23C163.002 300.027 163.163 299.856 163.36 299.734L198.533 277.973C198.927 277.73 199.379 277.594 199.842 277.58C200.305 277.566 200.763 277.675 201.171 277.894L237.591 297.492C237.795 297.602 237.968 297.763 238.09 297.961C238.212 298.159 238.28 298.385 238.287 298.617C238.294 298.849 238.239 299.079 238.128 299.283C238.017 299.488 237.855 299.659 237.656 299.78L202.47 321.541C202.076 321.782 201.626 321.916 201.164 321.929C200.702 321.942 200.245 321.833 199.839 321.614Z" fill="white" stroke="black" stroke-width="0.69" stroke-linecap="round" stroke-linejoin="round"/>
<path d="M199.839 309.54L163.426 289.942C163.223 289.832 163.052 289.67 162.931 289.473C162.809 289.276 162.742 289.051 162.735 288.82C162.729 288.589 162.783 288.36 162.893 288.156C163.002 287.953 163.163 287.782 163.36 287.66L198.533 265.899C198.927 265.656 199.379 265.52 199.842 265.506C200.305 265.492 200.763 265.601 201.171 265.82L237.591 285.418C237.794 285.528 237.965 285.69 238.086 285.887C238.207 286.084 238.274 286.309 238.281 286.54C238.288 286.771 238.234 287 238.124 287.203C238.014 287.407 237.853 287.578 237.656 287.7L202.47 309.46C202.077 309.703 201.627 309.838 201.165 309.852C200.703 309.866 200.246 309.758 199.839 309.54Z" fill="white" stroke="black" stroke-width="0.69" stroke-linecap="round" stroke-linejoin="round"/>
<path d="M201.611 295.587C207.451 294.302 211.408 289.725 210.448 285.365C209.489 281.004 203.977 278.511 198.136 279.796C192.296 281.081 188.34 285.658 189.299 290.019C190.259 294.379 195.771 296.872 201.611 295.587Z" fill="#FFDB7C" stroke="black" stroke-width="0.69" stroke-linecap="round" stroke-linejoin="round"/>
<path d="M195.948 291.676C197.481 292.436 199.233 292.63 200.894 292.224C204.244 291.478 206.506 288.847 205.945 286.348C205.793 285.773 205.516 285.239 205.134 284.783C204.753 284.328 204.275 283.961 203.736 283.71" fill="#FFDB7C"/>
<path d="M195.948 291.676C197.481 292.436 199.233 292.63 200.894 292.224C204.244 291.478 206.506 288.847 205.945 286.348C205.793 285.773 205.516 285.239 205.134 284.783C204.753 284.328 204.275 283.961 203.736 283.71" stroke="black" stroke-width="0.69" stroke-linecap="round" stroke-linejoin="round"/>
<path d="M196.847 288.864C196.998 288.473 196.74 288.01 196.271 287.829C195.802 287.648 195.3 287.818 195.149 288.209C194.999 288.6 195.257 289.063 195.726 289.244C196.194 289.425 196.697 289.255 196.847 288.864Z" fill="black"/>
<path d="M200.723 284.717C200.874 284.326 200.616 283.863 200.147 283.682C199.678 283.501 199.176 283.671 199.025 284.062C198.874 284.453 199.132 284.916 199.601 285.097C200.07 285.278 200.572 285.108 200.723 284.717Z" fill="black"/>
<path d="M336.819 291.155L337.663 294.301C337.849 294.992 338.199 295.628 338.684 296.155C339.168 296.682 339.773 297.084 340.446 297.327L342.253 297.987L340.446 298.646C339.773 298.891 339.168 299.294 338.684 299.822C338.199 300.35 337.849 300.988 337.663 301.68L336.819 304.818L335.982 301.68C335.796 300.988 335.446 300.35 334.962 299.822C334.477 299.294 333.873 298.891 333.199 298.646L331.392 297.987L333.199 297.327C333.872 297.084 334.477 296.682 334.962 296.155C335.446 295.628 335.796 294.992 335.982 294.301L336.819 291.155Z" fill="white" stroke="black" stroke-width="0.69" stroke-linecap="round" stroke-linejoin="round"/>
<path d="M349.988 273.212L351.577 279.147C351.931 280.456 352.595 281.659 353.513 282.656C354.432 283.652 355.577 284.412 356.853 284.871L360.262 286.104L356.853 287.337C355.576 287.794 354.429 288.553 353.511 289.55C352.592 290.547 351.929 291.752 351.577 293.061L349.988 298.996L348.405 293.061C348.054 291.752 347.391 290.547 346.472 289.55C345.553 288.553 344.407 287.794 343.13 287.337L339.714 286.104L343.13 284.871C344.405 284.412 345.551 283.652 346.469 282.656C347.388 281.659 348.052 280.456 348.405 279.147L349.988 273.212Z" fill="white" stroke="black" stroke-width="0.69" stroke-linecap="round" stroke-linejoin="round"/>
<path opacity="0.2" d="M268.932 446.177L241.811 429.105V356.958L236.535 360.011V371.835L229.579 376.306V365.412C229.577 364.987 229.473 364.568 229.275 364.192L224.303 367.067V437.499C224.303 437.998 224.447 438.486 224.719 438.904C224.922 439.235 225.2 439.515 225.53 439.722L254.373 458.027C254.793 458.299 255.283 458.443 255.784 458.442C256.356 458.444 256.913 458.259 257.371 457.917C257.829 457.574 258.163 457.092 258.323 456.542C258.483 455.993 258.46 455.407 258.258 454.872C258.056 454.337 257.685 453.882 257.201 453.576L229.625 436.088H229.579V426.896L236.535 422.432V430.562C236.535 431.009 236.648 431.448 236.863 431.839C237.079 432.23 237.391 432.56 237.768 432.798L266.123 450.641C266.544 450.905 267.031 451.045 267.528 451.044C268.099 451.042 268.654 450.856 269.11 450.512C269.566 450.168 269.898 449.686 270.056 449.137C270.214 448.589 270.191 448.004 269.988 447.47C269.785 446.936 269.415 446.483 268.932 446.177ZM236.535 416.161L229.579 420.631V412.231L236.535 407.733V416.161ZM236.535 401.489L229.579 405.959V397.559L236.535 393.088V401.489ZM236.535 386.817L229.579 391.287V382.57L236.535 378.099V386.817Z" fill="black"/>
<path d="M272.058 448.149L243.182 352.217C243.09 351.907 242.934 351.62 242.724 351.375C242.514 351.13 242.254 350.931 241.962 350.793L239.265 349.276C239.109 349.176 238.941 349.096 238.764 349.039L238.612 348.999C238.436 348.954 238.254 348.932 238.072 348.933C237.505 348.934 236.957 349.142 236.534 349.519C236.11 349.896 235.838 350.414 235.77 350.977C235.737 351.292 235.764 351.609 235.85 351.914L240.268 366.579L234.689 369.711L231.471 358.937C231.381 358.636 231.231 358.358 231.029 358.119C230.827 357.879 230.578 357.684 230.297 357.545L227.66 356.081L227.211 355.831C227.089 355.771 226.961 355.724 226.829 355.692C226.653 355.653 226.474 355.633 226.295 355.633C226.071 355.633 225.849 355.666 225.635 355.732C225.205 355.858 224.822 356.106 224.531 356.447C224.241 356.788 224.056 357.206 224 357.651C223.96 357.974 223.987 358.301 224.079 358.613L252.83 454.13C252.975 454.619 253.279 455.045 253.693 455.343H253.726L254.089 455.548L256.773 457.064L256.826 457.097C256.968 457.18 257.118 457.248 257.274 457.302L257.439 457.348C257.622 457.394 257.81 457.418 257.999 457.42C258.223 457.42 258.445 457.387 258.659 457.321C259.244 457.142 259.735 456.738 260.024 456.198C260.313 455.659 260.377 455.026 260.202 454.44L249.651 419.398L255.151 416.24L264.646 447.786C264.789 448.275 265.094 448.7 265.51 448.993L265.965 449.25L268.603 450.767C268.743 450.849 268.891 450.918 269.045 450.971C269.284 451.055 269.536 451.097 269.79 451.097C270.013 451.094 270.235 451.061 270.449 450.998C270.747 450.925 271.026 450.794 271.272 450.612C271.518 450.429 271.725 450.2 271.88 449.936C272.03 449.666 272.123 449.368 272.154 449.061C272.185 448.754 272.152 448.443 272.058 448.149ZM252.935 408.848L247.435 412.013L245.457 405.333L250.95 402.168L252.935 408.848ZM248.695 394.749L243.195 397.915L241.184 391.248L246.684 388.083L248.695 394.749ZM244.448 380.651L238.955 383.81L236.944 377.13L242.437 373.965L244.448 380.651Z" fill="#FFDB7C" stroke="black" stroke-width="0.69" stroke-linecap="round" stroke-linejoin="round"/>
<path d="M257.999 457.453C257.81 457.452 257.622 457.428 257.439 457.381L257.274 457.335C256.923 457.217 256.604 457.016 256.346 456.75C256.088 456.484 255.897 456.16 255.79 455.805L227.04 360.288C226.944 359.975 226.917 359.644 226.961 359.319C227.018 358.876 227.202 358.459 227.491 358.119C227.78 357.778 228.162 357.529 228.589 357.4C228.804 357.338 229.026 357.305 229.249 357.301C229.429 357.303 229.608 357.325 229.783 357.367C230.177 357.461 230.54 357.657 230.834 357.935C231.129 358.212 231.347 358.562 231.464 358.95L235.566 372.58L243.156 368.208L238.744 353.549C238.654 353.246 238.625 352.928 238.659 352.613C238.708 352.159 238.889 351.73 239.18 351.379C239.471 351.027 239.858 350.768 240.294 350.635C240.509 350.573 240.73 350.54 240.953 350.536C241.133 350.538 241.313 350.56 241.488 350.602L241.639 350.641H241.672C242.025 350.758 242.344 350.958 242.604 351.224C242.863 351.491 243.055 351.815 243.163 352.171L272.038 448.109C272.213 448.697 272.148 449.33 271.858 449.87C271.567 450.41 271.075 450.813 270.489 450.991C270.275 451.055 270.053 451.088 269.829 451.09C269.576 451.091 269.324 451.048 269.084 450.965C268.735 450.844 268.419 450.643 268.162 450.377C267.905 450.111 267.715 449.788 267.607 449.435L257.254 415.027L249.658 419.392L260.208 454.433C260.383 455.02 260.319 455.652 260.03 456.192C259.741 456.731 259.251 457.135 258.665 457.315C258.452 457.394 258.227 457.441 257.999 457.453ZM248.299 414.881L255.896 410.51L253.021 400.961L245.431 405.333L248.299 414.881ZM244.059 400.783L251.649 396.411L248.781 386.863L241.184 391.248L244.059 400.783ZM239.813 386.678L247.409 382.306L244.534 372.784L236.944 377.156L239.813 386.678Z" fill="#FFDB7C" stroke="black" stroke-width="0.69" stroke-linecap="round" stroke-linejoin="round"/>
<path d="M243.163 368.208L240.208 366.553" stroke="black" stroke-width="0.69" stroke-linecap="round" stroke-linejoin="round"/>
<path d="M247.409 382.306L244.448 380.651" stroke="black" stroke-width="0.69" stroke-linecap="round" stroke-linejoin="round"/>
<path d="M251.649 396.411L248.695 394.75" stroke="black" stroke-width="0.69" stroke-linecap="round" stroke-linejoin="round"/>
<path d="M255.896 410.509L252.935 408.848" stroke="black" stroke-width="0.69" stroke-linecap="round" stroke-linejoin="round"/>
<path d="M160.254 371.848V385.65L171.748 392.771V378.97L160.254 371.848Z" fill="#FFDB7C" stroke="black" stroke-width="0.69" stroke-linecap="round" stroke-linejoin="round"/>
<path d="M170.027 390.153C170.191 390.153 170.323 389.947 170.323 389.692C170.323 389.437 170.191 389.23 170.027 389.23C169.863 389.23 169.73 389.437 169.73 389.692C169.73 389.947 169.863 390.153 170.027 390.153Z" fill="black"/>
<path d="M170.027 380.809C170.191 380.809 170.323 380.603 170.323 380.348C170.323 380.093 170.191 379.886 170.027 379.886C169.863 379.886 169.73 380.093 169.73 380.348C169.73 380.603 169.863 380.809 170.027 380.809Z" fill="black"/>
<path d="M161.969 385.221C162.205 385.221 162.397 384.923 162.397 384.555C162.397 384.187 162.205 383.889 161.969 383.889C161.732 383.889 161.54 384.187 161.54 384.555C161.54 384.923 161.732 385.221 161.969 385.221Z" fill="black"/>
<path d="M161.969 375.877C162.205 375.877 162.397 375.579 162.397 375.211C162.397 374.843 162.205 374.545 161.969 374.545C161.732 374.545 161.54 374.843 161.54 375.211C161.54 375.579 161.732 375.877 161.969 375.877Z" fill="black"/>
<path d="M170.027 390.338C170.263 390.338 170.455 390.04 170.455 389.672C170.455 389.304 170.263 389.006 170.027 389.006C169.79 389.006 169.598 389.304 169.598 389.672C169.598 390.04 169.79 390.338 170.027 390.338Z" fill="black"/>
<path d="M170.027 380.994C170.263 380.994 170.455 380.696 170.455 380.328C170.455 379.96 170.263 379.662 170.027 379.662C169.79 379.662 169.598 379.96 169.598 380.328C169.598 380.696 169.79 380.994 170.027 380.994Z" fill="black"/>
<defs>
<linearGradient id="paint0_linear_664_1366" x1="295.467" y1="220.875" x2="266.611" y2="221.613" gradientUnits="userSpaceOnUse">
<stop stop-color="#A1ABB3"/>
<stop offset="0.13" stop-color="#ADB5BB"/>
<stop offset="0.45" stop-color="#C5C9CC"/>
<stop offset="0.75" stop-color="#D4D5D6"/>
<stop offset="1" stop-color="#D9D9D9"/>
</linearGradient>
<linearGradient id="paint1_linear_664_1366" x1="12692.9" y1="1508.28" x2="10509" y2="3471.15" gradientUnits="userSpaceOnUse">
<stop stop-color="#A1ABB3"/>
<stop offset="0.13" stop-color="#ADB5BB"/>
<stop offset="0.45" stop-color="#C5C9CC"/>
<stop offset="0.75" stop-color="#D4D5D6"/>
<stop offset="1" stop-color="#D9D9D9"/>
</linearGradient>
<linearGradient id="paint2_linear_664_1366" x1="328.339" y1="305.741" x2="328.339" y2="271.953" gradientUnits="userSpaceOnUse">
<stop stop-color="#FF862B"/>
<stop offset="0.31" stop-color="#FF9F43"/>
<stop offset="0.93" stop-color="#FFDB7C"/>
</linearGradient>
<linearGradient id="paint3_linear_664_1366" x1="324.106" y1="301.541" x2="332.276" y2="269.717" gradientUnits="userSpaceOnUse">
<stop offset="0.13" stop-color="#FFDB7C"/>
<stop offset="0.6" stop-color="#FFF1CD"/>
<stop offset="0.91" stop-color="white"/>
</linearGradient>
<linearGradient id="paint4_linear_664_1366" x1="353.971" y1="325.821" x2="330.489" y2="334.373" gradientUnits="userSpaceOnUse">
<stop stop-color="#FF862B"/>
<stop offset="0.18" stop-color="#FF8E33"/>
<stop offset="0.48" stop-color="#FFA549"/>
<stop offset="0.84" stop-color="#FFCA6C"/>
<stop offset="0.98" stop-color="#FFDB7C"/>
</linearGradient>
<linearGradient id="paint5_linear_664_1366" x1="7655.49" y1="2885.89" x2="6497.17" y2="2908.59" gradientUnits="userSpaceOnUse">
<stop stop-color="#FF862B"/>
<stop offset="0.18" stop-color="#FF8E33"/>
<stop offset="0.48" stop-color="#FFA549"/>
<stop offset="0.84" stop-color="#FFCA6C"/>
<stop offset="0.98" stop-color="#FFDB7C"/>
</linearGradient>
<linearGradient id="paint6_linear_664_1366" x1="3540.73" y1="5011.19" x2="3230.61" y2="5016.61" gradientUnits="userSpaceOnUse">
<stop stop-color="#FF862B"/>
<stop offset="0.31" stop-color="#FF9F43"/>
<stop offset="0.93" stop-color="#FFDB7C"/>
</linearGradient>
<linearGradient id="paint7_linear_664_1366" x1="5211.05" y1="2997.43" x2="5037.06" y2="2821.8" gradientUnits="userSpaceOnUse">
<stop stop-color="#FF862B"/>
<stop offset="0.31" stop-color="#FF9F43"/>
<stop offset="0.93" stop-color="#FFDB7C"/>
</linearGradient>
<linearGradient id="paint8_linear_664_1366" x1="350.159" y1="324.667" x2="329.862" y2="298.884" gradientUnits="userSpaceOnUse">
<stop stop-color="#FF862B"/>
<stop offset="0.65" stop-color="#FFC062"/>
<stop offset="1" stop-color="#FFDB7C"/>
</linearGradient>
</defs>
</svg>
