<svg width="553" height="400" viewBox="0 0 553 400" fill="none" xmlns="http://www.w3.org/2000/svg">
<g clip-path="url(#clip0_273_2534)">
<path d="M529.586 184.859C529.586 271.955 387.823 347.696 258.349 347.696C128.875 347.696 50.4435 271.313 60.6997 184.859C74.6039 67.64 200.923 21.3949 330.397 21.3949C459.871 21.3949 529.586 97.7628 529.586 184.859Z" fill="#F4F5F7" stroke="#F4F5F7" stroke-width="0.84" stroke-miterlimit="10" stroke-linejoin="round"/>
<path d="M547.228 347.068C547.228 365.252 439.344 380 306.252 380C162.141 380 77.8786 357.871 65.2751 347.068C43.746 328.615 89.0169 264.454 222.109 264.454C355.201 264.454 547.228 311.432 547.228 347.068Z" fill="#F0F0F0"/>
<path d="M441.541 328.316C438.76 356.571 393.743 382.361 308.329 373.934C222.915 365.506 162.738 332.873 165.519 304.618C168.3 276.363 233.007 263.184 318.421 271.612C403.835 280.039 444.336 300.076 441.541 328.316Z" fill="#E0E0E0" stroke="#E0E0E0" stroke-width="0.84" stroke-miterlimit="10" stroke-linejoin="round"/>
<path d="M345.692 314.868C349.101 323.744 330.95 337.774 305.474 347.531C279.998 357.288 260.188 361.143 256.78 352.268C253.371 343.392 270.953 330.199 296.414 320.442C321.875 310.685 342.298 306.008 345.692 314.868Z" fill="#BDC1C4" stroke="#BDC1C4" stroke-width="0.55" stroke-miterlimit="10" stroke-linejoin="round"/>
<path d="M125.975 332.5C148.575 332.5 166.896 321.388 166.896 307.681C166.896 293.974 148.575 282.863 125.975 282.863C103.376 282.863 85.0551 293.974 85.0551 307.681C85.0551 321.388 103.376 332.5 125.975 332.5Z" fill="#E0E0E0" stroke="#E0E0E0" stroke-width="0.84" stroke-miterlimit="10" stroke-linejoin="round"/>
<path d="M380.078 87.0196L321.456 94.6251L321.112 96.4629L306.775 97.9422L284.902 206.674L278.263 230.312L351.253 238.844L350.087 276.587L348.338 276.288L342.94 278.545V289.885L370.764 296.998L375.713 291.693V281.04L360.194 278.35L361.928 221.93L374.801 222.961L374.95 222.064L383.786 222.602L402.788 114.154C405.345 98.1962 394.072 84.7485 380.078 87.0196Z" fill="#E0E0E0" stroke="#E0E0E0" stroke-width="0.84" stroke-miterlimit="10" stroke-linejoin="round"/>
<path d="M379.601 225.576L294.71 220.466L317.286 97.6284L375.908 90.023C389.902 87.7518 401.175 101.214 398.618 117.128L379.601 225.576Z" fill="#BDC1C4" stroke="#BDC1C4" stroke-width="0.84" stroke-miterlimit="10" stroke-linejoin="round"/>
<path d="M370.615 225.934L278.922 218.568L302.604 100.946L364.59 94.5355C378.898 93.0562 390.679 105.592 388.317 119.772L370.615 225.934Z" fill="#889094" stroke="#889094" stroke-width="0.84" stroke-miterlimit="10" stroke-linejoin="round"/>
<path d="M338.74 281.518L366.564 287.196L371.512 284.013L344.138 279.277L338.74 281.518Z" fill="#BDC1C4" stroke="#BDC1C4" stroke-width="0.84" stroke-miterlimit="10" stroke-linejoin="round"/>
<path d="M352.659 290.259L345.632 288.257L348.293 201.758L355.38 201.983L352.659 290.259Z" fill="#667177" stroke="#667177" stroke-width="0.84" stroke-miterlimit="10" stroke-linejoin="round"/>
<path d="M355.798 287.719L352.658 290.259L355.38 201.982L358.444 202.072L355.798 287.719Z" fill="#BDC1C4" stroke="#BDC1C4" stroke-width="0.84" stroke-miterlimit="10" stroke-linejoin="round"/>
<path d="M366.564 299.986L338.74 292.874V281.518L366.564 287.196V299.986Z" fill="#667177" stroke="#667177" stroke-width="0.84" stroke-miterlimit="10" stroke-linejoin="round"/>
<path d="M371.512 284.013V294.667L366.563 299.986V287.196L371.512 284.013Z" fill="#F0F0F0" stroke="#F0F0F0" stroke-width="0.84" stroke-miterlimit="10" stroke-linejoin="round"/>
<path d="M439.298 315.227L430.596 313.03V206.555H439.298V315.227Z" fill="#667177" stroke="#667177" stroke-width="0.84" stroke-miterlimit="10" stroke-linejoin="round"/>
<path d="M443.081 311.984L439.299 315.227V206.555H443.081V311.984Z" fill="#BDC1C4" stroke="#BDC1C4" stroke-width="0.84" stroke-miterlimit="10" stroke-linejoin="round"/>
<path d="M393.728 374.232L383.472 371.648V246.196H393.728V374.232Z" fill="#667177" stroke="#667177" stroke-width="0.84" stroke-miterlimit="10" stroke-linejoin="round"/>
<path d="M398.184 370.407L393.729 374.232V246.196H398.184V370.407Z" fill="#BDC1C4" stroke="#BDC1C4" stroke-width="0.84" stroke-miterlimit="10" stroke-linejoin="round"/>
<path d="M177.256 319.276L169.437 317.304V221.885H177.256V319.276Z" fill="#BDC1C4" stroke="#BDC1C4" stroke-width="0.84" stroke-miterlimit="10" stroke-linejoin="round"/>
<path d="M180.634 316.363L177.255 319.276V221.885H180.634V316.363Z" fill="#667177" stroke="#667177" stroke-width="0.84" stroke-miterlimit="10" stroke-linejoin="round"/>
<path d="M199.099 283.446L192.012 281.653V195.124H199.099V283.446Z" fill="#BDC1C4" stroke="#BDC1C4" stroke-width="0.84" stroke-miterlimit="10" stroke-linejoin="round"/>
<path d="M202.164 280.801L199.099 283.446V195.124H202.164V280.801Z" fill="#667177" stroke="#667177" stroke-width="0.84" stroke-miterlimit="10" stroke-linejoin="round"/>
<path d="M366.563 195.453L308.181 194.332L187.931 192.031L162.141 216.73L285.201 227.1L314.43 229.55L317.345 229.804L352.584 232.763L404 237.096L445.907 196.962L366.563 195.453Z" fill="#E0E0E0" stroke="#E0E0E0" stroke-width="0.84" stroke-miterlimit="10" stroke-linejoin="round"/>
<path d="M404.269 237.096L445.907 196.962V212.875L404.269 252.247V237.096Z" fill="#F0F0F0" stroke="#F0F0F0" stroke-width="0.84" stroke-miterlimit="10" stroke-linejoin="round"/>
<path d="M162.141 216.73V224.081L284.439 238.306L310.662 241.354L345.303 245.389L404.269 252.247V237.096L162.141 216.73Z" fill="#889094" stroke="#889094" stroke-width="0.84" stroke-miterlimit="10" stroke-linejoin="round"/>
<path d="M374.322 170.619C373.096 166.63 361.419 132.652 353.226 125.629C349.549 122.477 343.778 121.461 343.778 121.461C343.479 121.565 336.078 121.012 331.682 122.94C331.563 122.985 331.443 123.03 331.324 123.059C330.277 123.388 329.26 123.792 328.274 124.255C327.152 124.793 325.179 124.793 323.459 119.877C326.046 118.861 326.435 116.007 325.822 114.393C325.119 112.525 325.358 109.328 325.358 109.328C325.642 104.92 324.162 102.186 323.325 101.005C324.356 102.021 325.837 102.514 325.837 102.514C324.641 101.394 323.549 99.4065 322.996 98.3008C322.667 97.6284 322.248 96.9859 321.77 96.4031C316.463 89.9931 311.843 94.1619 311.843 94.1619C310.093 91.562 312.426 89.0219 312.426 89.0219C310.392 89.5448 310.303 94.386 310.303 94.386C307.791 92.593 305.519 94.386 304.188 94.386C303.47 94.386 302.454 94.1021 301.661 93.8481C300.032 93.2952 298.282 93.2355 296.623 93.6688C292.212 94.8641 290.433 99.0777 289.88 100.811C290.119 99.5708 290.059 97.8226 290.059 97.8226L289.671 99.6904C287.054 109.582 289.282 104.86 294.35 105.129C296.832 110.015 304.233 129.111 308.284 130.695C308.284 130.695 310.617 131.726 313.069 131.173C313.712 131.86 314.19 132.697 314.474 133.608L304.846 139.6C304.846 139.6 298.566 143.365 294.29 149.223C290.015 155.08 290 156.365 287.174 157.56C284.348 158.756 249.363 168.423 242.935 171.994C242.935 171.994 252.04 175.266 251.247 187.026C251.247 187.026 301.153 175.431 305.384 166.495L305.324 174.968L306.52 178.27L306.221 178.434C306.356 178.479 306.505 178.539 306.64 178.598L317.27 188.37L318.257 190.119L322.682 191.598L317.763 193.959C318.242 196.454 333.462 178.703 333.462 178.703C338.56 178.524 337.453 196.573 345.168 195.049L370.659 195.498C369.777 191.419 368.611 187.743 367.49 184.485C369.613 183.604 371.152 182.887 371.9 182.424C376.43 179.599 374.322 170.619 374.322 170.619Z" fill="#667177" stroke="#667177" stroke-width="0.84" stroke-miterlimit="10" stroke-linejoin="round"/>
<path d="M385.685 230.357C391.688 230.357 396.554 228.731 396.554 226.726C396.554 224.721 391.688 223.095 385.685 223.095C379.682 223.095 374.816 224.721 374.816 226.726C374.816 228.731 379.682 230.357 385.685 230.357Z" fill="#BDC1C4" stroke="#BDC1C4" stroke-width="0.85" stroke-miterlimit="10" stroke-linejoin="round"/>
<path d="M298.626 112.54C298.626 112.54 280.461 116.082 284.513 99.9593C284.513 99.9593 286.142 95.7606 286.546 93.8032C286.546 93.8032 286.621 96.5226 286.157 97.703C286.157 97.703 287.503 91.0539 293.049 89.4701C294.694 89.0218 296.443 89.0816 298.058 89.6643C298.835 89.9333 299.852 90.2321 300.57 90.2321C301.9 90.2321 304.158 88.3644 306.64 90.2321C306.64 90.2321 306.714 85.1668 308.748 84.6289C308.748 84.6289 306.43 87.2736 308.18 90.008C308.18 90.008 312.77 85.645 318.047 92.3539C318.526 92.9665 318.929 93.6389 319.258 94.3411C319.811 95.5066 320.888 97.5835 322.069 98.749C322.069 98.749 319.961 98.0168 319.034 96.4629C319.034 96.4629 321.994 99.4961 321.605 105.891C321.605 105.891 321.366 109.238 322.069 111.181C322.772 113.123 322.144 116.784 318.406 117.262L298.626 112.54Z" fill="#1B2E35" stroke="#1B2E35" stroke-width="0.84" stroke-miterlimit="10" stroke-linejoin="round"/>
<path d="M359.641 173.952H333.283L308.18 180.825V194.332L366.563 195.453C364.216 185.442 359.641 173.952 359.641 173.952Z" fill="#007DFE" stroke="#007DFE" stroke-width="0.84" stroke-miterlimit="10" stroke-linejoin="round"/>
<path d="M326.36 126.347C326.36 126.347 327.84 126.078 328.857 125.674L331.085 128.887C331.085 128.887 333.925 182.214 333.462 182.917C332.998 183.619 308.18 193.436 308.18 193.436L298.627 165.629L306.565 138.061L314.519 129.963L326.36 126.347Z" fill="white" stroke="white" stroke-width="0.84" stroke-miterlimit="10" stroke-linejoin="round"/>
<path d="M312.74 129.978L301.213 137.553C301.213 137.553 294.979 141.498 290.718 147.624C286.457 153.75 286.457 155.095 283.661 156.35C280.865 157.605 246.105 167.721 239.706 171.456C239.706 171.456 248.751 174.878 247.959 187.19C247.959 187.19 297.476 183.918 301.692 174.579C301.692 174.579 304.532 150.059 310.453 136.208L312.74 134.087V129.978Z" fill="#7CB1FF" stroke="#7CB1FF" stroke-width="0.84" stroke-miterlimit="10" stroke-linejoin="round"/>
<path d="M308.18 127.587C308.18 127.587 311.096 129.559 310.991 132.876L310.468 136.193C310.468 136.193 311.305 139.003 313.174 139.301C315.043 139.6 321.382 137.538 326.361 126.317C326.361 126.317 320.231 123.717 318.257 110.643L308.18 127.587Z" fill="#FDB374" stroke="#FDB374" stroke-width="0.84" stroke-miterlimit="10" stroke-linejoin="round"/>
<path d="M291.763 108.999C291.763 108.999 298.82 125.824 304.651 128.199C304.651 128.199 308.912 130.172 311.917 127.363C314.922 124.554 319.916 118.637 319.497 114.797L319.078 110.956C319.078 110.956 320.484 106.907 319.377 104.203C319.063 103.441 318.405 102.873 317.613 102.679C316.567 102.44 315.012 102.469 314.249 104.337C314.07 104.771 314.025 105.249 314.1 105.712L314.518 108.237C314.518 108.237 313.591 109.686 312.649 108.76C311.708 107.834 312.545 107.415 310.676 106.369C308.807 105.323 308.074 103.456 307.671 101.289C307.671 101.289 306.325 109.911 295.516 109.806C295.516 109.806 302.064 109.178 303.933 104.517C303.918 104.546 297.579 109.94 291.763 108.999Z" fill="#FDB374" stroke="#FDB374" stroke-width="0.84" stroke-miterlimit="10" stroke-linejoin="round"/>
<path d="M340.848 124.105C340.848 124.105 333.208 123.642 328.843 125.659C328.843 125.659 319.498 152.45 330.562 173.937L357.683 169.26L346.619 138.42L340.848 124.105Z" fill="#7CB1FF" stroke="#7CB1FF" stroke-width="0.84" stroke-miterlimit="10" stroke-linejoin="round"/>
<path d="M302.604 178.21C302.604 178.21 304.861 190.298 308.778 194.9C312.695 199.502 314.549 198.904 314.549 198.904L318.257 190.119L313.817 178.643L308.419 177.433L302.604 178.21Z" fill="#5F8FD9" stroke="#5F8FD9" stroke-width="0.84" stroke-miterlimit="10" stroke-linejoin="round"/>
<path d="M304.024 195.871H248.347L273.285 214.563H286.621C286.621 214.563 302.155 202.939 301.841 202.087C301.527 201.235 304.024 195.871 304.024 195.871Z" fill="#0062D1" stroke="#0062D1" stroke-width="0.84" stroke-miterlimit="10" stroke-linejoin="round"/>
<path d="M310.662 241.354L284.438 238.306C286.531 246.106 292.497 256.595 292.497 256.595C292.497 256.595 294.41 260.36 296.967 264.918C297.266 264.499 297.43 264.275 297.43 264.275L310.662 241.354Z" fill="#1C2D35" stroke="#1C2D35" stroke-width="0.84" stroke-miterlimit="10" stroke-linejoin="round"/>
<path d="M326.375 275.347C322.637 267.592 318.167 257.985 315.79 251.589L304.039 264.38L314.654 285.836C317.913 284.805 323.041 282.161 326.375 275.347Z" fill="white" stroke="black" stroke-width="0.84" stroke-miterlimit="10" stroke-linejoin="round"/>
<path d="M310.468 136.208C310.468 136.208 303.665 153.765 301.707 174.579C301.707 174.579 299.987 179.54 281.987 182.857L281.538 171.785C281.538 171.785 295.368 173.847 310.468 136.208Z" fill="#558EFF"/>
<path d="M285.605 322.608C285.605 322.608 289.582 316.706 294.785 309.325C286.173 309.788 280.731 306.172 277.92 303.483L271.551 312.702C271.551 312.687 276.963 317.513 285.605 322.608Z" fill="#007DFD" stroke="#007DFD" stroke-width="0.84" stroke-miterlimit="10" stroke-linejoin="round"/>
<path d="M294.785 309.325L286.966 320.606L273.181 310.326L274.347 308.638C274.347 308.638 287.444 316.841 294.785 309.325Z" fill="#0049E2" stroke="#0049E2" stroke-miterlimit="10" stroke-linejoin="round"/>
<path d="M310.662 241.354L299.374 260.898C299.374 260.898 302.155 248.646 296.01 239.651L310.662 241.354Z" fill="#12181B"/>
<path d="M332.67 288.092C332.67 288.092 329.829 282.504 326.376 275.332C323.056 282.16 317.913 284.79 314.639 285.806L319.02 294.652C319.005 294.667 325.045 292.575 332.67 288.092Z" fill="#FDB374" stroke="#FDB374" stroke-width="0.84" stroke-miterlimit="10" stroke-linejoin="round"/>
<path d="M294.785 309.325C300.406 301.346 307.478 291.619 312.516 285.717L293.349 281.115L277.92 303.468C280.731 306.172 286.188 309.788 294.785 309.325Z" fill="#FDB374" stroke="#FDB374" stroke-width="0.84" stroke-miterlimit="10" stroke-linejoin="round"/>
<path d="M291.674 283.55C291.674 283.55 302.424 285.687 306.341 293.471L298.133 304.633C298.133 304.633 304.308 287.674 290.673 285.014L291.674 283.55Z" fill="#FD876E" stroke="#FD876E" stroke-miterlimit="10" stroke-linejoin="round"/>
<path d="M326.614 275.84C326.614 275.84 322.577 285.074 316.552 289.691L317.479 291.559C317.479 291.559 321.8 289.706 324.117 287.674C324.117 287.674 322.757 283.251 327.137 276.901L326.614 275.84Z" fill="#FD876E" stroke="#FD876E" stroke-miterlimit="10" stroke-linejoin="round"/>
<path d="M297.416 264.275C297.416 264.275 297.252 264.514 296.953 264.918C295.024 267.652 287.773 278.335 289.133 283.132C289.133 283.132 302.858 284.252 307.044 295.04C307.044 295.04 317.106 291.484 321.756 284.118C326.406 276.752 334.389 261.227 343.001 248.795C343.838 247.6 344.601 246.464 345.318 245.389L310.677 241.354L297.416 264.275Z" fill="#3B464C" stroke="#3B464C" stroke-width="0.84" stroke-miterlimit="10" stroke-linejoin="round"/>
<path d="M345.303 245.389C345.303 245.389 334.583 260.33 327.825 273.703C327.825 273.703 320.843 291.126 307.029 295.055C307.029 295.055 304.592 285.747 289.118 283.147C289.118 283.147 314.968 289.617 326.3 258.224C328.244 252.83 325.912 246.823 320.828 244.133C318.765 243.073 316.582 242.281 314.325 241.788L345.303 245.389Z" fill="#2F393F" stroke="#2F3E46" stroke-miterlimit="10" stroke-linejoin="round"/>
<path d="M304.398 178.464C304.398 178.464 296.683 180.033 292.692 181.766C288.7 183.499 285.47 183.066 284.349 183.156C283.332 183.23 280.716 184.142 281.314 185.845C281.449 186.219 281.718 186.533 282.047 186.742C282.6 187.085 283.646 187.638 284.603 187.519C284.603 187.519 279.655 192.211 280.432 193.6C280.432 193.6 281.389 195.513 284.349 193.077C287.309 190.642 289.567 188.206 289.567 188.819C289.567 189.431 281.045 196.036 282.092 197.859C282.092 197.859 282.615 200.025 286.173 197.336C289.731 194.646 293.125 190.821 293.125 191.688C293.125 192.554 285.47 198.561 287.205 200.384C287.205 200.384 288.565 202.52 292.363 198.934C296.16 195.348 297.117 193.959 297.207 194.915C297.296 195.871 293.036 199.652 294.68 201.026C296.325 202.401 298.328 199.786 299.464 198.396C300.601 197.007 305.818 192.405 307.807 191.613C309.795 190.821 314.325 189.954 314.325 189.954L311.799 180.391L304.398 178.464Z" fill="#FDB374" stroke="#FDB374" stroke-width="0.84" stroke-miterlimit="10" stroke-linejoin="round"/>
<path d="M350.252 128.498C358.385 135.85 369.03 165.868 370.256 170.037C370.256 170.037 372.349 179.42 367.819 182.379C363.289 185.337 329.261 198.367 314.535 198.89C314.535 198.89 314.415 182.902 302.589 178.21C302.589 178.21 318.766 168.483 341.207 163.701C341.207 163.701 328.334 142.036 340.863 124.135C340.863 124.12 346.604 125.181 350.252 128.498Z" fill="#7CB1FF" stroke="#7CB1FF" stroke-width="0.84" stroke-miterlimit="10" stroke-linejoin="round"/>
<path d="M236.596 312.762C231.692 307.233 226.22 306.486 223.065 306.606C222.542 309.22 222.348 316.288 231.901 324.85C231.901 324.85 245.731 335.742 248.197 338.536C250.605 341.256 259.665 350.639 266.153 346.097C257.542 343.676 243.428 320.457 236.596 312.762Z" fill="#969D9F" stroke="#969D9F" stroke-width="0.84" stroke-miterlimit="10" stroke-linejoin="round"/>
<path d="M243.13 303.587C237.015 300.27 227.102 296.699 223.38 305.515C223.245 305.873 223.14 306.232 223.081 306.606C226.235 306.486 231.722 307.248 236.611 312.762C237.673 313.957 238.899 315.511 240.259 317.304C244.281 312.418 243.982 307.039 243.13 303.587Z" fill="#F5F5F5" stroke="#F5F5F5" stroke-width="0.84" stroke-miterlimit="10" stroke-linejoin="round"/>
<path d="M288.026 315.944C288.026 315.944 281.717 314.853 275.976 311.148C273.643 313.523 268.605 317.857 262.146 319.097C255.119 320.442 246.672 314.032 243.293 311.133C242.785 313.404 241.738 315.526 240.243 317.304C247.659 327.136 258.872 344.05 266.153 346.082C266.302 345.977 266.452 345.873 266.601 345.753C273.105 340.449 288.056 321.009 288.056 321.009C288.056 321.009 290.926 317.647 288.026 315.944Z" fill="#1B2E35" stroke="#1B2E35" stroke-width="0.84" stroke-miterlimit="10" stroke-linejoin="round"/>
<path d="M262.147 319.097C268.606 317.872 273.63 313.524 275.977 311.148C275.543 310.864 275.095 310.565 274.661 310.251C274.661 310.251 272.404 307.711 270.595 309.131C268.785 310.55 264.734 316.288 259.905 314.779C256.122 313.598 251.084 309.355 249.08 307.562C248.303 306.874 247.481 306.247 246.613 305.679C245.731 305.096 244.52 304.349 243.115 303.587C243.608 305.604 243.922 308.279 243.279 311.133C246.688 314.032 255.12 320.442 262.147 319.097Z" fill="#667177" stroke="#667177" stroke-width="0.84" stroke-miterlimit="10" stroke-linejoin="round"/>
<path d="M311.38 330.378C311.38 330.378 325.703 324.401 328.902 323.699C332.027 323.012 343.135 320.053 342.418 313.12C342.403 312.956 342.388 312.791 342.358 312.627C342.268 312.164 342.163 311.641 342.029 311.073C330.651 323.505 298.836 329.123 294.964 329.765C295.083 329.825 295.203 329.885 295.323 329.93C298.447 331.274 304.293 332.828 311.38 330.378Z" fill="#969D9F" stroke="#969D9F" stroke-width="0.84" stroke-miterlimit="10" stroke-linejoin="round"/>
<path d="M301.841 311.432C301.228 311.775 300.54 312.179 299.808 312.642C296.653 314.644 292.826 317.692 291.48 321.263C290.239 324.566 291.809 328.256 294.949 329.795C301.647 328.645 308.285 327.091 314.803 325.133C309.93 315.302 305.235 312.164 301.841 311.432Z" fill="#F5F5F5" stroke="#F5F5F5" stroke-width="0.84" stroke-miterlimit="10" stroke-linejoin="round"/>
<path d="M332.491 285.522C332.491 285.522 331.13 281.877 328.574 283.386C328.574 283.386 325.03 287.764 319.723 290.603C319.319 290.812 318.9 291.036 318.467 291.23L318.362 291.26C318.631 292.859 318.99 295.369 319.439 299.269C320.395 307.457 310.662 312.582 307.029 314.211C309.436 316.273 312.098 319.665 314.804 325.148C324.896 322.115 336.168 317.513 342.014 311.118C339.996 302.9 332.491 285.522 332.491 285.522Z" fill="#1B2E35" stroke="#1B2E35" stroke-width="0.84" stroke-miterlimit="10" stroke-linejoin="round"/>
<path d="M319.439 299.254C318.975 295.354 318.632 292.844 318.362 291.245C317.854 291.38 315.567 292.097 315.866 293.875C316.195 295.877 318.871 301.451 315.626 304.514C313.1 306.904 307.658 308.981 305.43 309.758C304.563 310.057 303.726 310.416 302.918 310.849C302.604 311.013 302.231 311.208 301.842 311.432C303.352 311.76 305.101 312.567 307.03 314.211C310.663 312.582 320.396 307.442 319.439 299.254Z" fill="#667177" stroke="#667177" stroke-width="0.84" stroke-miterlimit="10" stroke-linejoin="round"/>
<path d="M317.57 107.161C317.57 107.161 327.063 141.722 310.184 154.183C293.305 166.645 260.278 175.535 258.095 188.37" stroke="#0668D7" stroke-width="4.2" stroke-miterlimit="10" stroke-linejoin="round"/>
<path d="M295.771 117.262C295.771 117.262 286.666 128.543 295.502 147.758C295.502 147.758 301.737 155.932 286.621 167.198" stroke="#0668D7" stroke-width="4.2" stroke-miterlimit="10" stroke-linejoin="round"/>
<path d="M316.673 107.251C316.673 106.519 317.256 105.921 317.988 105.921C318.198 105.921 318.407 105.966 318.587 106.056C317.974 105.503 317.032 105.533 316.478 106.145C315.925 106.758 315.955 107.699 316.568 108.252C316.972 108.626 317.54 108.745 318.048 108.566H318.003C317.271 108.566 316.673 107.983 316.673 107.251Z" fill="#243679"/>
<path d="M319.08 107.161C319.08 106.743 318.9 106.339 318.601 106.07C317.943 105.742 317.151 106.011 316.822 106.668C316.493 107.326 316.762 108.118 317.42 108.446C317.6 108.536 317.809 108.581 318.003 108.581H318.048C318.661 108.386 319.08 107.804 319.08 107.161Z" fill="#244E88"/>
<path d="M294.35 112.809C294.35 112.809 295.576 110.374 299.134 111.345C299.314 111.39 299.433 111.569 299.403 111.749C299.389 111.853 299.314 111.928 299.224 111.958C298.88 112.077 296.862 110.882 294.799 112.929C294.799 112.914 294.29 113.243 294.35 112.809Z" fill="#1B2E35" stroke="#1B2E35" stroke-width="0.84" stroke-miterlimit="10" stroke-linejoin="round"/>
<path d="M310.782 109.119C310.782 109.119 308.524 107.58 305.878 110.135C305.743 110.254 305.728 110.463 305.833 110.613C305.893 110.688 305.997 110.732 306.102 110.703C306.461 110.628 307.657 108.626 310.438 109.418C310.438 109.418 311.051 109.462 310.782 109.119Z" fill="#1B2E35" stroke="#1B2E35" stroke-width="0.84" stroke-miterlimit="10" stroke-linejoin="round"/>
<path d="M299.404 113.586C299.404 113.586 297.595 112.496 296.22 114.199C296.145 114.304 296.175 114.453 296.264 114.528C296.309 114.587 296.384 114.602 296.459 114.587C296.698 114.543 297.162 113.183 299.21 113.796C299.225 113.796 299.643 113.84 299.404 113.586Z" fill="black" stroke="black" stroke-width="0.84" stroke-miterlimit="10" stroke-linejoin="round"/>
<path d="M298.417 114.737C298.402 115.379 297.879 115.887 297.236 115.873C296.593 115.858 296.084 115.335 296.099 114.692C296.114 114.05 296.638 113.557 297.281 113.557C297.923 113.557 298.432 114.094 298.417 114.737C298.417 114.722 298.417 114.722 298.417 114.737Z" fill="black"/>
<path d="M298.417 114.737C298.402 115.379 297.879 115.887 297.236 115.873C296.593 115.858 296.084 115.335 296.099 114.692C296.114 114.05 296.638 113.557 297.281 113.557C297.923 113.557 298.432 114.094 298.417 114.737ZM298.417 114.737C298.417 114.722 298.417 114.722 298.417 114.737Z" stroke="black" stroke-width="0.84" stroke-miterlimit="10" stroke-linejoin="round"/>
<path d="M310.229 111.315C310.229 111.315 308.42 110.224 307.044 111.928C306.97 112.032 307 112.182 307.089 112.256C307.134 112.316 307.209 112.331 307.284 112.316C307.523 112.271 307.986 110.912 310.035 111.524C310.05 111.524 310.468 111.569 310.229 111.315Z" fill="black" stroke="black" stroke-width="0.84" stroke-miterlimit="10" stroke-linejoin="round"/>
<path d="M308.091 113.586C308.727 113.586 309.242 113.071 309.242 112.436C309.242 111.801 308.727 111.285 308.091 111.285C307.455 111.285 306.94 111.801 306.94 112.436C306.94 113.071 307.455 113.586 308.091 113.586Z" fill="black" stroke="black" stroke-width="0.84" stroke-miterlimit="10" stroke-linejoin="round"/>
<path d="M302.514 113.945C302.514 113.945 302.768 119.952 303.037 120.998C303.321 122.043 306.521 120.998 306.521 120.998" stroke="black" stroke-width="0.84" stroke-miterlimit="10" stroke-linejoin="round"/>
<path d="M307.837 125.136C307.837 125.136 310.543 124.464 310.648 120.953" stroke="black" stroke-width="0.84" stroke-miterlimit="10" stroke-linejoin="round"/>
<path d="M309.391 128.722C309.391 128.722 313.308 127.422 316.508 122.178C316.508 122.178 315.207 128.199 310.632 130.814L309.391 128.722Z" fill="#FD876E" stroke="#FD876E" stroke-miterlimit="10" stroke-linejoin="round"/>
<path d="M307.657 101.319C307.657 101.319 306.536 106.803 301.004 108.88C301.004 108.88 305.758 108.073 308.18 103.306L307.657 101.319Z" fill="#FD876E"/>
<path d="M303.918 104.547C303.918 104.547 299.224 109.896 292.242 110.12L291.763 108.999C291.763 108.999 297.31 109.955 303.918 104.547Z" fill="#FD876E"/>
<path d="M315.416 102.933C315.416 102.933 313.787 103.919 314.086 105.757L314.504 108.282C314.504 108.282 313.951 102.963 317.255 102.649C317.27 102.649 316.104 102.544 315.416 102.933Z" fill="#FD876E" stroke="#FD876E" stroke-miterlimit="10" stroke-linejoin="round"/>
<path d="M303.591 178.628C303.591 178.628 309.481 180.571 312.98 190.193L307.822 191.568C307.822 191.568 309.96 185.457 302.724 178.808L303.591 178.628Z" fill="#FD876E" stroke="#FD876E" stroke-miterlimit="10" stroke-linejoin="round"/>
<path d="M284.587 187.504C284.587 187.504 286.71 184.71 288.579 183.634C288.579 183.634 284.258 186.174 282.076 185.113L282.031 186.727C282.031 186.727 283.69 187.758 284.587 187.504Z" fill="#FD876E" stroke="#FD876E" stroke-miterlimit="10" stroke-linejoin="round"/>
<path d="M319.079 110.971C319.079 110.971 320.2 108.133 319.797 105.652C319.797 105.652 319.468 102.888 317.599 102.709C317.599 102.709 321.606 102.694 321.157 110.12C321.157 110.12 320.679 113.781 321.964 114.602C321.964 114.602 321.501 116.351 319.782 116.888C319.797 116.888 319.258 111.748 319.079 110.971Z" fill="#122229"/>
<path d="M309.242 90.8746C309.242 90.8746 316.134 90.2022 320.903 99.8995C320.903 99.9144 317.255 87.3632 309.242 90.8746Z" fill="#122229"/>
<path d="M291.764 108.999L293.319 112.421C293.319 112.421 286.157 111.883 286.621 105.443C286.621 105.458 289.132 109.044 291.764 108.999Z" fill="#122229"/>
<path d="M335.645 146.309C335.645 146.309 336.527 158.591 341.207 163.686C341.207 163.686 334.314 165.225 330.338 166.481C330.338 166.481 335.989 164.553 335.765 158.576C335.54 152.6 334.823 151.569 335.645 146.309Z" fill="#558EFF"/>
<path d="M363.498 184.545C363.901 184.829 341.146 194.003 334.583 194.825L345.153 195.02C345.153 195.02 356.635 191.448 363.752 185.457L363.498 184.545Z" fill="#2E46FF" stroke="#2E46FF" stroke-miterlimit="10" stroke-linejoin="round"/>
<path opacity="0.75" d="M302.604 178.21C302.604 178.21 308.15 179.435 311.768 187.19C311.768 187.19 307.493 178.195 319.633 170.201C319.618 170.186 307.014 174.953 302.604 178.21Z" fill="#558EFF"/>
<path opacity="0.72" d="M240.243 317.304C242.396 320.068 253.759 335.234 253.759 335.234C260.845 345.454 266.153 346.082 266.153 346.082C273.344 340.778 285.11 324.775 288.056 320.995C291.001 317.214 288.026 315.944 288.026 315.944L283.989 314.883C283.989 314.883 264.209 339.851 248.631 319.276C248.631 319.276 244.534 314.076 242.934 312.493L240.243 317.304Z" fill="#12181B"/>
<path opacity="0.17" d="M242.921 312.493C242.921 312.493 233.816 301.54 225.069 302.721L223.066 306.591C223.066 306.591 231.169 305.306 240.244 317.304L242.921 312.493Z" fill="#969D9F"/>
<path opacity="0.64" d="M223.065 306.606C223.065 306.606 232.215 305.993 240.229 317.319C248.242 328.63 258.409 344.02 266.139 346.097C266.139 346.097 263.657 347.307 257.572 342.855C255.135 341.062 253.012 338.895 251.292 336.415C247.016 330.318 236.551 316.138 230.077 314.091C229.27 313.837 228.418 314.271 228.149 315.063C228.119 315.137 228.104 315.227 228.089 315.302C227.835 316.871 228.253 319.844 231.886 324.85C231.901 324.85 221.496 316.93 223.065 306.606Z" fill="#667177" stroke="#667177" stroke-width="0.84" stroke-miterlimit="10" stroke-linejoin="round"/>
<path opacity="0.72" d="M332.491 285.522C332.491 285.522 330.951 281.548 328.574 283.386C328.574 283.386 322.309 289.826 318.362 291.245L319.439 299.254C319.439 299.254 321.367 307.562 307.029 314.196C307.029 314.196 311.754 318.499 314.804 325.133C314.804 325.133 326.406 321.517 331.22 318.768C331.235 318.768 324.073 290.423 332.491 285.522Z" fill="#12181B"/>
<path opacity="0.17" d="M307.028 314.196C307.028 314.196 295.516 317.543 292.123 322.877C291.315 324.132 291.24 325.716 291.913 327.046C292.451 328.077 293.378 329.242 294.948 329.795C294.948 329.795 310.392 327.793 314.803 325.133C314.818 325.133 310.736 316.512 307.028 314.196Z" fill="#969D9F"/>
<path opacity="0.64" d="M294.964 329.795C294.964 329.795 312.665 328.092 331.234 318.768C331.234 318.768 320.126 327.42 299.883 331.304C299.883 331.304 295.801 330.169 294.964 329.795Z" fill="#667177" stroke="#667177" stroke-width="0.84" stroke-miterlimit="10" stroke-linejoin="round"/>
<path opacity="0.35" d="M310.467 136.208C310.467 136.208 303.381 155.498 301.706 174.579L302.887 178.001C302.887 178.001 305.1 176.402 307.178 175.55C307.178 175.55 304.457 167.885 310.064 148.476C311.05 145.084 313.203 142.155 316.149 140.213C318.346 138.748 321.008 136.328 322.981 132.413C322.981 132.413 318.511 139.51 313.173 139.301C313.158 139.316 311.305 139.286 310.467 136.208Z" fill="#BDD9FF" stroke="#BDD9FF" stroke-width="0.84" stroke-miterlimit="10" stroke-linejoin="round"/>
<path d="M329.949 308.637C318.497 308.428 317.749 299.045 317.749 299.045C317.749 299.045 304.653 299.762 305.385 310.221" stroke="#F5F5F5" stroke-width="4.2" stroke-miterlimit="10" stroke-linejoin="round"/>
<path d="M266.602 330.826C261.997 320.606 266.602 313.195 266.602 313.195C266.602 313.195 256.346 306.471 251.248 313.598" stroke="#F5F5F5" stroke-width="5.01" stroke-miterlimit="10" stroke-linejoin="round"/>
<path d="M314.55 300.121C312.068 300.21 307.957 299.463 305.161 294.114C304.817 293.442 305.071 292.62 305.744 292.276C306.013 292.142 306.327 292.082 306.626 292.142C307.733 292.336 309.243 292.829 311.216 293.905C316.09 296.564 316.778 298.372 317.75 299.03L317.72 299.045C316.778 299.717 315.686 300.076 314.55 300.121Z" stroke="#F5F5F5" stroke-width="4.2" stroke-miterlimit="10" stroke-linejoin="round"/>
<path d="M317.75 299.045C317.75 299.045 312.98 287.704 316.255 283.162C317.062 282.041 318.632 281.772 319.768 282.579C320.202 282.893 320.531 283.341 320.695 283.849C321.457 286.135 321.428 290.573 317.75 299.045Z" stroke="#F5F5F5" stroke-width="4.2" stroke-miterlimit="10" stroke-linejoin="round"/>
<path d="M263.672 311.282C262.207 308.892 260.682 304.379 264.45 298.671C264.928 297.954 265.885 297.76 266.603 298.223C266.887 298.417 267.111 298.686 267.216 299.015C267.619 300.21 267.978 301.989 267.993 304.544C268.038 310.834 266.618 312.523 266.513 313.852L266.483 313.837C265.317 313.27 264.345 312.388 263.672 311.282Z" stroke="#F5F5F5" stroke-width="4.2" stroke-miterlimit="10" stroke-linejoin="round"/>
<path d="M266.512 313.852C266.512 313.852 275.124 302.87 281.448 303.602C283.018 303.781 284.139 305.201 283.959 306.755C283.885 307.353 283.63 307.92 283.212 308.369C281.358 310.401 276.947 312.836 266.512 313.852Z" stroke="#F5F5F5" stroke-width="4.2" stroke-miterlimit="10" stroke-linejoin="round"/>
<path d="M283.167 211.994L207.262 206.525C205.154 206.375 203.494 204.687 203.375 202.58L200.998 161.341C200.848 158.651 202.896 156.335 205.602 156.186C205.647 156.186 205.692 156.186 205.737 156.186L275.991 154.183C278.667 154.109 280.909 156.201 281.014 158.875L283.167 211.994Z" fill="#BDD9FF" stroke="#BDD9FF" stroke-width="0.84" stroke-miterlimit="10" stroke-linejoin="round"/>
<path d="M283.227 214.832L205.827 209.543C204.197 209.423 202.777 210.649 202.657 212.277C202.642 212.487 202.642 212.696 202.687 212.905C202.852 213.966 203.734 214.773 204.81 214.862L280.297 221.795C282.629 222.019 284.976 221.362 286.86 219.957L301.243 209.184C303.261 207.69 304.457 205.329 304.472 202.819V198.695L283.227 214.832Z" fill="#BDC1C4" stroke="#BDC1C4" stroke-width="0.85" stroke-miterlimit="10" stroke-linejoin="round"/>
<path d="M283.541 211.993L205.423 206.45L205.917 210.066C206.066 211.112 206.904 211.919 207.965 212.023L280.716 218.956C282.973 219.18 285.246 218.523 287.04 217.133L300.914 206.36C302.873 204.836 304.024 202.49 304.024 199.995V195.871L283.541 211.993Z" fill="#7CB1FF" stroke="#7CB1FF" stroke-width="0.84" stroke-miterlimit="10" stroke-linejoin="round"/>
<path opacity="0.3" d="M200.998 161.356L203.375 202.595C203.375 202.595 203.973 206.54 207.263 206.54L262.64 210.514C262.64 210.514 217.459 205.569 212.959 155.991L205.738 156.201C205.738 156.201 200.744 157.022 200.998 161.356Z" fill="#7CB1FF" stroke="#7CB1FF" stroke-width="0.84" stroke-miterlimit="10" stroke-linejoin="round"/>
<path opacity="0.27" d="M205.423 206.45L283.541 211.994C283.541 211.994 252.175 210.574 241.44 215.221L207.965 212.023C207.965 212.023 206.171 211.919 205.917 210.066C205.663 208.213 205.423 206.45 205.423 206.45Z" fill="#0062D1" stroke="#0062D1" stroke-width="0.84" stroke-miterlimit="10" stroke-linejoin="round"/>
<path d="M404.463 207.974C403.626 207.556 402.669 207.377 401.742 207.466C401.667 207.72 401.578 207.974 401.503 208.243C402.265 208.198 403.013 208.348 403.686 208.691C406.287 210.021 407.02 213.787 405.315 217.119C403.611 220.451 400.127 222.064 397.526 220.749C397.332 220.645 397.137 220.525 396.958 220.406C396.823 220.705 396.689 220.989 396.554 221.257C396.808 221.467 397.092 221.661 397.391 221.81C400.381 223.334 404.373 221.467 406.332 217.657C408.29 213.846 407.438 209.498 404.463 207.974Z" fill="#0062D1" stroke="#0062D1" stroke-width="0.84" stroke-miterlimit="10" stroke-linejoin="round"/>
<path d="M396.554 221.258C396.689 220.974 396.824 220.69 396.958 220.406C398.737 216.581 400.412 211.62 401.488 208.258C401.578 207.989 401.653 207.735 401.727 207.481C402.296 205.658 402.639 204.478 402.639 204.478C385.521 210.948 370.735 203.282 370.735 203.282C370.645 206.585 375.04 223.215 376.984 225.187C378.928 227.16 389.632 228.265 393.475 225.725C394.446 225.053 395.508 223.394 396.554 221.258Z" fill="#7CB1FF" stroke="#7CB1FF" stroke-width="0.84" stroke-miterlimit="10" stroke-linejoin="round"/>
<path d="M402.923 203.835C402.968 201.43 395.777 199.323 386.866 199.144C377.956 198.964 370.675 200.772 370.63 203.178C370.63 203.432 370.69 203.671 370.824 203.88C373.739 202.76 378.718 202.072 384.355 202.192C392.398 202.356 399.021 204.074 400.232 206.181C401.907 205.524 402.894 204.717 402.923 203.835Z" fill="#BDD9FF" stroke="#BDD9FF" stroke-width="0.84" stroke-miterlimit="10" stroke-linejoin="round"/>
<path d="M384.34 202.192C382.381 202.147 380.423 202.207 378.479 202.371C375.324 202.64 372.648 203.178 370.809 203.895C372.005 206.002 378.643 207.72 386.672 207.885C387.539 207.899 388.406 207.899 389.229 207.885C393.803 207.78 397.736 207.137 400.202 206.196C399.021 204.074 392.383 202.356 384.34 202.192Z" fill="#F5F5F5" stroke="#F5F5F5" stroke-width="0.84" stroke-miterlimit="10" stroke-linejoin="round"/>
<path opacity="0.62" d="M381.05 202.371C386.686 202.49 391.635 203.208 394.491 204.448C395.687 204.956 395.522 206.555 394.252 206.839C392.801 207.167 391.097 207.72 389.243 207.87C393.818 207.765 397.75 207.122 400.217 206.181C399.021 204.074 392.383 202.356 384.339 202.192C382.381 202.147 380.422 202.207 378.479 202.371C379.316 202.356 380.168 202.356 381.05 202.371Z" fill="#BDD9FF"/>
<path opacity="0.46" d="M370.809 203.895C370.809 203.895 373.351 219.734 376.999 225.172C376.999 225.172 380.333 227.922 389.931 226.921C388.376 226.622 376.565 226.502 377.223 212.053C377.283 210.888 378.06 209.902 379.226 210.006C384.011 210.485 395.403 211.142 400.935 206.047C400.935 206.047 396.016 208.841 383.487 207.735C383.473 207.72 373.186 207.152 370.809 203.895Z" fill="#007DFE" stroke="#007DFE" stroke-width="0.84" stroke-miterlimit="10" stroke-linejoin="round"/>
<path opacity="0.38" d="M370.809 203.895C370.809 203.895 376.221 201.146 387.419 202.341C387.419 202.341 399.246 203.178 400.217 206.181C400.217 206.181 402.041 205.464 402.415 204.881C402.789 204.299 387.494 195.841 370.809 203.895Z" fill="#7CB1FF"/>
<path d="M383.472 192.031C383.472 192.031 377.477 172.263 401.966 165.479C426.455 158.696 445.009 148.177 441.197 134.251C437.384 120.325 425.08 123.956 425.08 123.956" stroke="#BDD9FF" stroke-width="5.01" stroke-miterlimit="10" stroke-linejoin="round"/>
<path d="M388.601 190.701C388.601 190.701 394.058 170.381 430.598 178.479C467.137 186.578 475.779 182.603 480.683 177.433" stroke="#BDD9FF" stroke-width="5.01" stroke-miterlimit="10" stroke-linejoin="round"/>
<path d="M355.993 210.768C355.933 209.857 355.694 208.901 355.156 208.139C355.051 207.152 354.169 205.718 351.523 205.27C349.191 204.881 337.619 203.462 332.177 203.746C331.04 203.805 329.979 204.313 329.231 205.15C327.333 207.287 323.64 211.964 322.788 216.73C322.788 216.73 322.773 216.82 322.758 216.984C322.758 217.029 322.758 217.089 322.758 217.134C322.758 217.089 322.758 217.029 322.758 216.984C322.668 217.985 322.444 221.586 323.909 222.333C324.118 222.423 324.342 222.498 324.567 222.528C328.544 223.379 346.44 224.425 346.44 224.425C346.559 224.425 346.694 224.425 346.813 224.41C347.95 224.306 349.026 223.887 349.938 223.185C350.521 222.737 351.015 222.184 351.403 221.556C352.644 219.584 354.139 216.865 355.006 215.281C355.754 213.921 356.098 212.352 355.993 210.768ZM346.215 221.063H346.305H346.215ZM346.305 221.063H346.38H346.305ZM346.44 221.048H346.38H346.44L346.619 221.018L346.44 221.048ZM326.54 219.524L326.391 219.494L326.54 219.524ZM326.301 219.479L326.166 219.45L326.301 219.479ZM326.062 219.45L325.942 219.42L326.062 219.45ZM325.837 219.405L325.718 219.375L325.837 219.405ZM325.628 219.36L325.509 219.33L325.628 219.36ZM325.434 219.315L325.254 219.27L325.434 219.315ZM325.15 219.255L325.06 219.24L325.15 219.255ZM324.97 219.21L324.896 219.196L324.97 219.21ZM324.806 219.166L324.746 219.151L324.806 219.166ZM324.641 219.121L324.582 219.106L324.641 219.121ZM324.492 219.076L324.447 219.061L324.492 219.076ZM324.342 219.031L324.312 219.016L324.342 219.031ZM322.937 217.911C323.012 218.075 323.116 218.224 323.236 218.359C323.116 218.224 323.012 218.075 322.937 217.911ZM327.153 219.614L326.884 219.584L327.153 219.614C331.324 220.137 343.584 221.153 346.111 221.063H346.215H346.111C343.584 221.138 331.324 220.122 327.153 219.614ZM326.63 219.539L326.794 219.569L326.63 219.539ZM348.637 220.271L348.742 220.182C348.817 220.107 348.907 220.017 348.981 219.928C348.907 220.017 348.817 220.107 348.742 220.182C348.712 220.197 348.667 220.227 348.637 220.271Z" fill="#BDC1C4"/>
<path d="M346.44 221.048H346.38H346.44ZM346.44 221.048L346.619 221.018L346.44 221.048ZM327.153 219.614L326.884 219.584L327.153 219.614ZM327.153 219.614C331.324 220.137 343.584 221.153 346.111 221.063H346.215H346.111C343.584 221.138 331.324 220.122 327.153 219.614ZM355.993 210.768C355.933 209.857 355.694 208.901 355.156 208.139C355.051 207.152 354.169 205.718 351.523 205.27C349.191 204.881 337.619 203.462 332.177 203.746C331.04 203.805 329.979 204.313 329.231 205.15C327.333 207.287 323.64 211.964 322.788 216.73C322.788 216.73 322.773 216.82 322.758 216.984C322.758 217.029 322.758 217.089 322.758 217.134C322.758 217.089 322.758 217.029 322.758 216.984C322.668 217.985 322.444 221.586 323.909 222.333C324.118 222.423 324.342 222.498 324.567 222.528C328.544 223.379 346.44 224.425 346.44 224.425C346.559 224.425 346.694 224.425 346.813 224.41C347.95 224.306 349.026 223.887 349.938 223.185C350.521 222.737 351.015 222.184 351.403 221.556C352.644 219.584 354.139 216.865 355.006 215.281C355.754 213.921 356.098 212.352 355.993 210.768ZM346.215 221.063H346.305H346.215ZM346.305 221.063H346.38H346.305ZM326.54 219.524L326.391 219.494L326.54 219.524ZM326.301 219.479L326.166 219.45L326.301 219.479ZM326.062 219.45L325.942 219.42L326.062 219.45ZM325.837 219.405L325.718 219.375L325.837 219.405ZM325.628 219.36L325.509 219.33L325.628 219.36ZM325.434 219.315L325.254 219.27L325.434 219.315ZM325.15 219.255L325.06 219.24L325.15 219.255ZM324.97 219.21L324.896 219.196L324.97 219.21ZM324.806 219.166L324.746 219.151L324.806 219.166ZM324.641 219.121L324.582 219.106L324.641 219.121ZM324.492 219.076L324.447 219.061L324.492 219.076ZM324.342 219.031L324.312 219.016L324.342 219.031ZM322.937 217.911C323.012 218.075 323.116 218.224 323.236 218.359C323.116 218.224 323.012 218.075 322.937 217.911ZM326.63 219.539L326.794 219.569L326.63 219.539ZM348.637 220.271L348.742 220.182C348.817 220.107 348.907 220.017 348.981 219.928C348.907 220.017 348.817 220.107 348.742 220.182C348.712 220.197 348.667 220.227 348.637 220.271Z" stroke="#BDC1C4" stroke-width="0.84" stroke-miterlimit="10" stroke-linejoin="round"/>
<path d="M357.248 206.047C357.144 205.06 356.261 203.626 353.615 203.178C351.283 202.789 339.711 201.37 334.269 201.654C333.133 201.713 332.071 202.222 331.324 203.058C329.425 205.195 325.732 209.872 324.88 214.638C324.88 214.638 324.865 214.728 324.85 214.892C324.82 215.714 325.298 216.461 326.061 216.775C326.734 217.044 327.735 217.313 329.245 217.492C333.417 218.015 345.691 219.031 348.203 218.956C348.352 218.956 348.457 218.941 348.532 218.927C349.608 218.762 350.251 218.598 350.834 218.06C351.044 217.851 351.238 217.627 351.402 217.387C352.18 216.297 357.368 207.048 357.248 206.047Z" fill="#BDD9FF" stroke="#BDD9FF" stroke-width="0.84" stroke-miterlimit="10" stroke-linejoin="round"/>
<path d="M334.388 204.866C332.983 206.435 330.575 209.483 329.738 212.83C329.559 213.518 329.977 214.22 330.665 214.399C330.71 214.414 330.74 214.414 330.785 214.429C333.536 214.862 340.219 215.819 346.109 215.804C347.216 215.804 348.232 215.161 348.726 214.175C349.159 213.308 349.623 212.352 349.787 212.098C349.787 212.098 348.905 210.44 349.787 209.797C350.31 209.423 350.849 209.08 351.402 208.766L352.209 206.794C352.448 206.196 352.164 205.524 351.581 205.285C351.521 205.255 351.462 205.24 351.402 205.225C348.89 204.642 343.104 203.507 336.9 203.716C335.928 203.731 335.016 204.149 334.388 204.866Z" fill="#F5F5F5" stroke="#F5F5F5" stroke-width="0.84" stroke-miterlimit="10" stroke-linejoin="round"/>
<path d="M329.694 207.003C330.442 207.003 331.055 207.616 331.055 208.363C331.055 209.11 330.442 209.722 329.694 209.722C328.947 209.722 328.334 209.11 328.334 208.363C328.334 207.616 328.947 207.003 329.694 207.003Z" fill="#F5F5F5" stroke="#F5F5F5" stroke-width="0.84" stroke-miterlimit="10" stroke-linejoin="round"/>
<path d="M354.513 207.242C354.139 207.242 353.84 206.943 353.825 206.555C353.825 206.181 354.124 205.882 354.513 205.882C354.887 205.882 355.186 206.181 355.201 206.555C355.201 206.943 354.887 207.242 354.513 207.242Z" fill="#F5F5F5" stroke="#F5F5F5" stroke-width="0.84" stroke-miterlimit="10" stroke-linejoin="round"/>
<path d="M350.595 212.965L352.629 208.348C352.808 207.944 353.287 207.75 353.69 207.929L354.094 208.109C354.498 208.288 354.692 208.766 354.512 209.17L352.479 213.787C352.3 214.19 351.821 214.384 351.418 214.205L351.014 214.026C350.595 213.846 350.416 213.368 350.595 212.965Z" fill="#F5F5F5" stroke="#F5F5F5" stroke-width="0.84" stroke-miterlimit="10" stroke-linejoin="round"/>
<path d="M353.496 219.494C354.737 217.522 356.232 214.803 357.099 213.219C357.846 211.829 358.19 210.26 358.085 208.691C358.026 207.78 357.786 206.824 357.248 206.062C357.353 207.048 352.18 216.312 351.402 217.403C351.238 217.642 351.044 217.866 350.834 218.075C350.969 219.181 351.373 220.227 352.03 221.123C352.613 220.675 353.107 220.122 353.496 219.494Z" fill="#7CB1FF" stroke="#7CB1FF" stroke-width="0.84" stroke-miterlimit="10" stroke-linejoin="round"/>
<path d="M350.834 218.075C350.805 218.105 350.775 218.135 350.745 218.165L350.715 218.18C350.655 218.239 350.58 218.284 350.506 218.329L350.476 218.344C350.401 218.389 350.341 218.434 350.266 218.464L350.236 218.478C350.162 218.508 350.087 218.553 350.012 218.583L349.982 218.598C349.908 218.628 349.818 218.658 349.743 218.688L349.713 218.703C349.623 218.732 349.534 218.747 349.444 218.777L349.414 218.792C349.324 218.822 349.22 218.837 349.115 218.852H349.085L348.756 218.912H348.711L348.532 218.942L348.472 218.957H348.457H348.383H348.368H348.278H348.173C348.637 219.689 349.07 220.794 348.876 222.333C350.012 222.229 351.104 221.81 352.001 221.108C351.343 220.212 350.939 219.166 350.805 218.06L350.834 218.075Z" fill="#007DFE" stroke="#007DFE" stroke-width="0.84" stroke-miterlimit="10" stroke-linejoin="round"/>
<path d="M348.203 218.971C345.677 219.046 333.417 218.03 329.246 217.507C328.244 217.402 327.257 217.193 326.301 216.879C326.196 218.09 326.315 219.3 326.659 220.465C330.636 221.317 348.532 222.363 348.532 222.363C348.652 222.363 348.787 222.363 348.906 222.348C349.1 220.794 348.682 219.688 348.203 218.971Z" fill="#7CB1FF" stroke="#7CB1FF" stroke-width="0.84" stroke-miterlimit="10" stroke-linejoin="round"/>
<path d="M326.3 216.88C326.21 216.85 326.135 216.82 326.045 216.79C325.283 216.491 324.79 215.729 324.834 214.907C324.745 215.908 324.521 219.509 325.986 220.256C326.195 220.346 326.419 220.421 326.644 220.451C326.315 219.3 326.195 218.09 326.3 216.88Z" fill="#007DFE" stroke="#007DFE" stroke-width="0.84" stroke-miterlimit="10" stroke-linejoin="round"/>
<path opacity="0.32" d="M331.324 203.073C329.425 205.21 325.732 209.887 324.88 214.653C324.88 214.653 324.865 214.743 324.85 214.907C324.82 215.729 325.298 216.476 326.061 216.79C326.734 217.059 327.735 217.328 329.245 217.507C333.417 218.03 345.691 219.046 348.203 218.971C348.352 218.971 348.457 218.956 348.532 218.941C349.608 218.777 350.251 218.613 350.834 218.075C351.044 217.866 351.238 217.641 351.402 217.402C323.923 216.506 334.269 201.654 334.269 201.654C333.148 201.713 332.071 202.221 331.324 203.073Z" fill="#7CB1FF" stroke="#7CB1FF" stroke-width="0.84" stroke-miterlimit="10" stroke-linejoin="round"/>
<path d="M277.741 121.446L272.553 118.442V113.676C272.553 112.839 271.88 112.167 271.043 112.167H199.055C198.233 112.182 197.56 112.839 197.56 113.676V131.875C197.56 132.712 198.233 133.384 199.07 133.384H271.043C271.88 133.384 272.553 132.712 272.553 131.875V126.84L277.741 123.851C278.414 123.463 278.638 122.611 278.264 121.954C278.13 121.745 277.95 121.565 277.741 121.446Z" fill="#E0E0E0" stroke="#E0E0E0" stroke-width="0.84" stroke-miterlimit="10" stroke-linejoin="round"/>
<path d="M279.983 118.144L274.795 115.155V110.374C274.795 109.537 274.122 108.865 273.285 108.865H201.312C200.475 108.865 199.802 109.537 199.802 110.374V128.573C199.802 129.41 200.475 130.082 201.312 130.082H273.285C274.122 130.082 274.795 129.41 274.795 128.573V123.538L279.983 120.549C280.656 120.161 280.88 119.309 280.491 118.637C280.371 118.442 280.192 118.263 279.983 118.144Z" fill="white" stroke="white" stroke-width="0.84" stroke-miterlimit="10" stroke-linejoin="round"/>
<path d="M211.823 174.968C211.823 174.968 107.197 166.69 110.217 226.861C113.237 287.032 457.957 227.025 497.846 273.21C537.735 319.396 482.402 341.958 482.402 341.958" stroke="#7CB1FF" stroke-width="5.87" stroke-miterlimit="10" stroke-linejoin="round"/>
<path d="M482.672 341.017L473.043 331.17L436.145 355.107L475.047 360.411L473.686 347.501L482.672 341.017Z" fill="#BDC1C4" stroke="#BDC1C4" stroke-width="0.84" stroke-miterlimit="10" stroke-linejoin="round"/>
<path d="M475.151 315.675L436.145 355.107L472.714 331.334L475.151 315.675Z" fill="#BDC1C4" stroke="#BDC1C4" stroke-width="0.84" stroke-miterlimit="10" stroke-linejoin="round"/>
<path d="M436.443 352.268L473.342 328.331L482.97 338.178L472.25 341.793L445.115 349.832L436.443 352.268Z" fill="#7CB1FF" stroke="#7CB1FF" stroke-width="0.84" stroke-miterlimit="10" stroke-linejoin="round"/>
<path d="M436.443 352.268L473.177 336.848L482.97 338.178L470.8 346.949L447.268 350.55L436.443 352.268Z" fill="#0062D1" stroke="#0062D1" stroke-width="0.84" stroke-miterlimit="10" stroke-linejoin="round"/>
<path d="M475.45 312.821L436.443 352.268L473.013 328.48L475.45 312.821Z" fill="#BDD9FF" stroke="#BDD9FF" stroke-width="0.84" stroke-miterlimit="10" stroke-linejoin="round"/>
<path d="M436.443 352.268L475.345 357.557L473.177 336.848L436.443 352.268Z" fill="#BDD9FF" stroke="#BDD9FF" stroke-width="0.84" stroke-miterlimit="10" stroke-linejoin="round"/>
<path d="M123.232 277.781L115.39 335.435L115.508 335.451L123.35 277.797L123.232 277.781Z" fill="#1B4C8F" stroke="#1B4C8F" stroke-width="4.2" stroke-miterlimit="10" stroke-linejoin="round"/>
<path d="M141.929 271.999L141.825 272.059L167.736 317.115L167.84 317.056L141.929 271.999Z" fill="#1B4C8F" stroke="#1B4C8F" stroke-width="4.2145" stroke-miterlimit="10.0344" stroke-linejoin="round"/>
<path d="M118.099 270.77L97.8319 294.559L97.923 294.636L118.19 270.847L118.099 270.77Z" fill="#1B4C8F" stroke="#1B4C8F" stroke-width="4.2" stroke-miterlimit="10" stroke-linejoin="round"/>
<path d="M132.853 269.057H132.734V287.196H132.853V269.057Z" fill="#1B4C8F" stroke="#1B4C8F" stroke-width="4.2" stroke-miterlimit="10" stroke-linejoin="round"/>
<path d="M112.848 255.355C113.76 254.966 114.762 254.787 115.749 254.817C118.006 254.906 132.015 252.247 133.735 251.843C135.454 251.44 147.833 246.091 149.627 254.398L129.982 258.403L115.001 258.313L112.848 255.355Z" fill="#0062D1" stroke="#0062D1" stroke-width="0.84" stroke-miterlimit="10" stroke-linejoin="round"/>
<path d="M17.4474 249.722C17.4474 249.722 12.5136 264.903 5.84555 263.633C5.84555 263.633 -3.52859 245.523 1.46497 234.466C1.46497 234.466 7.16122 232.882 6.7426 230.641C6.7426 230.641 2.75074 228.684 1.16596 229.027C1.16596 229.027 1.49488 214.026 16.1167 205.031C16.1167 205.031 18.8378 209.946 19.2714 208.049C19.7049 206.151 19.0471 203.193 19.0471 203.193C19.0471 203.193 25.9095 191.882 43.7757 204.762L29.5425 215.759L18.2547 230.028L16.4457 244.776L17.4474 249.722Z" fill="#7CB1FF" stroke="#7CB1FF" stroke-width="0.84" stroke-miterlimit="10" stroke-linejoin="round"/>
<path d="M17.4467 249.722C17.4467 249.722 16.9234 218.703 52.4764 209.678C52.4764 209.678 56.8121 201.729 43.9544 197.216C43.9544 197.216 38.3479 195.632 37.8545 200.025C37.8545 200.025 37.8097 202.984 38.0788 204.642C38.3479 206.301 36.8827 209.289 35.9707 206.107C35.0587 202.924 35.2531 200.787 34.4009 199.98C34.4009 199.98 23.3971 201.295 17.1776 214.608C17.1776 214.608 17.6859 215.789 19.3754 217.164C21.0648 218.538 22.9038 221.004 21.8572 222.094C20.8106 223.185 17.1926 220.66 16.0563 217.253C16.0563 217.253 7.86327 232.494 17.4467 249.722Z" fill="#0062D1" stroke="#0062D1" stroke-width="0.84" stroke-miterlimit="10" stroke-linejoin="round"/>
<path d="M123.269 257.208C100.663 229.625 82.6327 218.18 71.4794 213.443C59.3991 208.318 52.5666 209.722 52.5068 209.737L52.4769 209.618C52.5517 209.603 59.3991 208.183 71.5093 213.323C78.6259 216.342 86.1311 220.989 93.8158 227.145C103.429 234.84 113.371 244.925 123.359 257.118L123.269 257.208Z" fill="#1B4C8F" stroke="#1B4C8F" stroke-width="4.2" stroke-miterlimit="10" stroke-linejoin="round"/>
<path d="M192.895 195.528C192.895 195.528 203.988 202.207 207.397 197.888C207.397 197.888 203.51 181.811 194.569 177.687C194.569 177.687 190.249 179.734 189.292 178.15C189.292 178.15 190.697 174.833 191.848 174.205C191.848 174.205 183.67 165.196 169.93 167.452C169.93 167.452 170.872 171.919 169.602 170.978C168.331 170.037 167.165 167.885 167.165 167.885C167.165 167.885 156.953 164.598 152.857 181.975L167.419 181.153L181.921 183.888L190.862 191.956L192.895 195.528Z" fill="#7CB1FF" stroke="#7CB1FF" stroke-width="0.84" stroke-miterlimit="10" stroke-linejoin="round"/>
<path d="M192.894 195.528C192.894 195.528 176.718 176.252 150.135 189.596C150.135 189.596 143.243 187.041 148.73 177.433C148.73 177.433 151.331 173.488 153.962 175.909C153.962 175.909 155.577 177.702 156.28 178.852C156.983 180.003 159.494 181.064 158.343 178.643C157.192 176.223 155.951 174.997 156.041 174.056C156.041 174.056 163.486 169.021 174.37 173.862C174.37 173.862 174.684 174.848 174.385 176.596C174.086 178.344 174.266 180.825 175.477 180.929C176.688 181.034 177.57 177.567 176.448 174.878C176.478 174.908 189.605 179.883 192.894 195.528Z" fill="#0062D1" stroke="#0062D1" stroke-width="0.84" stroke-miterlimit="10" stroke-linejoin="round"/>
<path d="M131.926 256.341C131.567 243.566 132.285 232.105 134.079 222.273C135.514 214.414 137.637 207.571 140.388 201.938C145.083 192.345 150.031 189.581 150.091 189.551L150.151 189.655C150.106 189.685 145.172 192.45 140.493 202.012C136.172 210.843 131.208 227.428 132.045 256.326L131.926 256.341Z" fill="#1B4C8F" stroke="#1B4C8F" stroke-width="4.2" stroke-miterlimit="10" stroke-linejoin="round"/>
<path d="M143.303 154.527C143.303 154.527 147.071 157.889 149.463 161.849C149.463 161.849 141.644 167.168 143.871 169.618C143.871 169.618 145.501 171.232 149.582 168.991C149.582 168.991 151.705 172.786 147.19 180.66C147.19 180.66 140.148 179.435 139.401 183.828C139.401 183.828 140.104 186.039 144.11 186.084C144.11 186.084 142.81 193.57 137.427 198.71C137.427 198.71 121.281 193.182 118.829 179.928C118.829 179.928 123.583 177.657 123.045 174.161C123.045 174.161 120.862 171.232 115.554 173.563L117.618 160.085L123.404 155.782L133.032 153.167L139.251 152.988L143.303 154.527Z" fill="#7CB1FF" stroke="#7CB1FF" stroke-width="0.84" stroke-miterlimit="10" stroke-linejoin="round"/>
<path d="M92.9784 151.793C92.9784 151.793 84.262 165.061 105.687 172.786C105.687 172.786 108.183 163.462 113.79 164.732L110.994 154.004L103.519 148.177L98.854 149.013L96.9104 149.596L94.0399 150.896L92.9784 151.793Z" fill="#7CB1FF" stroke="#7CB1FF" stroke-width="0.84" stroke-miterlimit="10" stroke-linejoin="round"/>
<path d="M115.539 173.548C115.314 174.116 103.742 143.336 92.9779 151.793C92.9779 151.793 103.713 138.674 123.373 150.926C123.373 150.926 126.273 152.555 130.803 151.509C135.333 150.463 141.045 152.331 143.302 154.527C143.302 154.527 125.301 149.477 115.539 173.548Z" fill="#0062D1" stroke="#0062D1" stroke-width="0.84" stroke-miterlimit="10" stroke-linejoin="round"/>
<path d="M129.773 256.969C125.991 250.409 122.896 241.937 120.548 231.806C118.68 223.693 117.289 214.504 116.407 204.478C114.912 187.414 115.465 173.683 115.465 173.548H115.585C115.585 173.683 115.032 187.399 116.527 204.463C117.902 220.197 121.326 242.072 129.878 256.909L129.773 256.969Z" fill="#1B4C8F" stroke="#1B4C8F" stroke-width="4.2" stroke-miterlimit="10" stroke-linejoin="round"/>
<path d="M90.6157 195.259C90.6157 195.259 85.7119 186.279 73.6915 194.84C73.6915 194.84 63.4801 202.565 58.7855 198.86C58.7855 198.86 56.6775 196.484 59.9816 195.034C63.2857 193.585 69.8192 190.044 68.7876 187.608C67.756 185.173 61.5365 190.223 61.5365 190.223C61.5365 190.223 49.4563 199.024 43.775 194.93C38.0937 190.836 42.0407 189.282 42.0407 189.282C42.0407 189.282 52.1773 184.411 53.2837 181.647C54.39 178.882 52.3119 176.387 50.8616 178.165C49.4114 179.943 41.1885 188.968 33.2496 188.729C25.3107 188.49 28.0617 184.904 28.0617 184.904C28.0617 184.904 33.145 178.882 31.2462 178.27C29.3475 177.657 23.1728 179.659 22.7093 181.796C22.7093 181.796 12.5129 167.213 29.7362 151.18C29.7362 151.18 40.3811 159.891 40.7399 155.976C41.0988 152.062 35.9108 147.46 33.6234 147.43C33.6234 147.43 44.358 141.797 52.4016 146.055C52.4016 146.055 57.9333 152.375 57.7838 154.766C57.7838 154.766 60.4451 156.156 61.3571 152.629C62.2691 149.103 56.6177 145.173 56.6177 145.173C56.6177 145.173 54.7488 142.842 58.5613 143.111C62.3737 143.38 76.263 148.027 77.9225 151.688C79.5821 155.349 82.8413 164.971 84.0225 163.074C85.2036 161.176 84.2467 156.29 84.5607 154.676C84.8746 153.063 85.5624 153.765 86.8033 155.453C88.0442 157.142 99.3171 174.863 90.6157 195.259Z" fill="#0062D1" stroke="#0062D1" stroke-width="0.84" stroke-miterlimit="10" stroke-linejoin="round"/>
<path d="M125.063 255.997C125.048 255.938 122.97 249.797 117.722 239.292C112.863 229.595 104.222 214.1 90.5867 195.289C76.9516 176.477 58.8911 168.632 46.1231 165.36C32.2936 161.804 21.544 162.7 21.4394 162.715L21.4244 162.596C21.5291 162.581 32.2936 161.684 46.153 165.255C54.2862 167.347 61.8812 170.545 68.7287 174.773C77.2805 180.048 84.6662 186.936 90.6914 195.244C104.326 214.056 112.983 229.565 117.842 239.262C123.105 249.767 125.168 255.908 125.198 255.982L125.063 255.997Z" fill="#1B4C8F" stroke="#1B4C8F" stroke-width="4.2" stroke-miterlimit="10" stroke-linejoin="round"/>
<path d="M112.639 261.825C112.639 261.825 109.529 258.926 111.727 256.072C111.727 256.072 112.849 254.966 114.209 255.22C115.57 255.474 135.29 257.925 146.996 253.069C147.37 252.904 147.789 252.875 148.177 252.964C148.671 253.084 149.254 253.457 149.627 254.399C150.36 256.281 149.314 257.626 148.596 257.805C147.878 257.985 137.831 264.171 137.831 264.171L115.36 266.053L112.639 261.825Z" fill="#BDD9FF" stroke="#BDD9FF" stroke-width="0.84" stroke-miterlimit="10" stroke-linejoin="round"/>
<path d="M112.639 261.825C112.639 261.825 113.805 280.158 131.581 278.843C131.581 278.843 152.707 275.706 148.61 257.805C148.595 257.805 121.803 264.992 112.639 261.825Z" fill="#7CB1FF" stroke="#7CB1FF" stroke-width="0.84" stroke-miterlimit="10" stroke-linejoin="round"/>
<path opacity="0.31" d="M112.639 261.825C112.639 261.825 125.93 265.052 148.61 257.82C148.61 257.82 142.615 262.303 130.131 265.112C127.006 265.814 125.407 269.34 127.006 272.12C128.457 274.645 131.058 277.155 135.738 277.798C135.723 277.783 115.943 284.223 112.639 261.825Z" fill="#0062D1" stroke="#0062D1" stroke-width="0.84" stroke-miterlimit="10" stroke-linejoin="round"/>
<path d="M119.367 255.773C119.367 255.773 136.994 256.849 146.996 253.084C146.996 253.084 145.471 250.424 139.191 252.456C137.786 252.904 136.351 253.278 134.9 253.577C131.148 254.339 124.525 255.564 119.367 255.773Z" fill="#0038A5" stroke="#0038A5" stroke-miterlimit="10" stroke-linejoin="round"/>
<path d="M175.806 110.942C166.372 102.425 163.427 89.7988 162.724 85.9588L162.53 84.8082C165.071 83.329 164.832 81.1027 164.234 79.5786C163.92 78.8016 163.486 78.0844 162.918 77.4568C161.857 76.2615 159.001 72.7501 159.629 70.5238C159.958 69.3434 159.898 68.6561 159.719 68.2526C159.554 67.8791 159.121 67.7297 158.747 67.894C158.717 67.909 158.687 67.9239 158.657 67.9389C156.475 69.3434 154.187 71.8088 152.199 74.2742C146.532 80.8486 139.476 92.0401 141.494 105.622C141.838 108.491 142.466 111.315 143.378 114.064C145.56 120.953 148.76 125.854 150.524 128.214C152.498 131.053 153.993 132.667 153.993 132.667C154.77 133.579 155.293 136.074 159.166 127.736C163.038 119.399 174.401 116.395 176.972 115.559C179.544 114.722 175.806 110.942 175.806 110.942Z" fill="#E0E0E0" stroke="#E0E0E0" stroke-width="0.84" stroke-miterlimit="10" stroke-linejoin="round"/>
<path d="M163.427 81.6554C163.427 81.6554 165.46 97.6283 176.703 107.789C176.703 107.789 180.441 111.584 177.869 112.421C175.298 113.257 163.935 116.261 160.063 124.598C156.19 132.936 155.682 130.441 154.89 129.529C154.89 129.529 144.2 118.024 142.391 102.484C144.903 97.2547 151.242 86.5264 163.427 81.6554Z" fill="#C8DCFC" stroke="#C8DCFC" stroke-width="0.84" stroke-miterlimit="10" stroke-linejoin="round"/>
<path d="M147.654 78.8763C147.654 78.8763 153.993 68.417 159.569 64.816C159.913 64.5919 160.362 64.6965 160.571 65.0252C160.586 65.0551 160.616 65.085 160.631 65.1149C160.81 65.5183 160.87 66.2056 160.541 67.386C159.913 69.6124 162.769 73.1088 163.83 74.3191C164.383 74.9466 164.832 75.6638 165.146 76.4408C165.744 77.9649 165.983 80.1912 163.442 81.6705C151.257 86.5266 144.918 97.2698 142.406 102.499C141.554 95.2377 142.63 87.1243 147.654 78.8763Z" fill="#7CB1FF" stroke="#7CB1FF" stroke-width="0.84" stroke-miterlimit="10" stroke-linejoin="round"/>
<path opacity="0.3" d="M142.391 102.484C142.391 102.484 148.984 87.1241 163.427 81.6554L163.621 82.8209C163.621 82.8209 136.082 95.9697 152.707 126.69C152.707 126.69 144.379 117.546 142.391 102.484Z" fill="#7CB1FF" stroke="#7CB1FF" stroke-width="0.84" stroke-miterlimit="10" stroke-linejoin="round"/>
<path opacity="0.27" d="M159.434 64.9057C157.715 66.2803 139.296 81.5509 142.39 102.484C142.39 102.484 146.128 94.4308 153.005 88.1552C153.005 88.1552 146.517 80.6992 160.615 65.1149C160.466 64.816 160.137 64.6666 159.808 64.7264C159.673 64.7563 159.539 64.816 159.434 64.9057Z" fill="#0062D1" stroke="#0062D1" stroke-width="0.84" stroke-miterlimit="10" stroke-linejoin="round"/>
<path d="M536.433 220.107C536.433 220.107 521.557 226.293 507.145 221.586C507.145 221.586 501.987 220.226 502.54 222.871C503.093 225.516 506.143 236.872 500.821 244.358C495.498 251.843 497.935 251.066 499.116 251.291C499.116 251.291 514.426 254.847 528.809 248.691C532.098 243.924 538.272 233.091 536.433 220.107Z" fill="#C8DCFC" stroke="#C8DCFC" stroke-width="0.84" stroke-miterlimit="10" stroke-linejoin="round"/>
<path d="M546.705 232.404C546.705 232.404 552.64 221.721 552.999 215.087C553.014 214.683 552.715 214.339 552.311 214.324C552.281 214.324 552.237 214.324 552.207 214.324C551.773 214.369 551.145 214.653 550.278 215.52C548.648 217.163 544.193 216.431 542.623 216.103C541.801 215.923 540.964 215.908 540.126 216.013C538.512 216.252 536.464 217.148 536.434 220.092C538.273 233.077 532.098 243.909 528.809 248.691C535.522 245.837 542.025 240.846 546.705 232.404Z" fill="#7CB1FF" stroke="#7CB1FF" stroke-width="0.84" stroke-miterlimit="10" stroke-linejoin="round"/>
<path opacity="0.3" d="M536.434 220.107C536.434 220.107 538.662 235.064 528.809 248.706C528.809 248.706 516.609 254.413 499.117 251.306C499.117 251.306 530.708 250.648 534.954 220.66L536.434 220.107Z" fill="#7CB1FF" stroke="#7CB1FF" stroke-width="0.84" stroke-miterlimit="10" stroke-linejoin="round"/>
<path opacity="0.27" d="M536.434 220.107C536.434 220.107 539.633 232.449 528.809 248.706C528.809 248.706 533.234 246.733 535.537 244.985C535.522 244.985 541.861 227.234 536.434 220.107Z" fill="#0062D1" stroke="#0062D1" stroke-width="0.84" stroke-miterlimit="10" stroke-linejoin="round"/>
<path d="M468.073 82.4435C479.243 71.281 479.242 53.1829 468.073 42.0203C456.904 30.8578 438.795 30.8578 427.626 42.0203C416.457 53.1829 416.457 71.281 427.626 82.4435C438.795 93.6061 456.904 93.6061 468.073 82.4435Z" fill="#E0E0E0" stroke="#E0E0E0" stroke-width="0.84" stroke-miterlimit="10" stroke-linejoin="round"/>
<path d="M466.121 80.6348C477.291 69.4723 477.291 51.3742 466.121 40.2116C454.952 29.0491 436.843 29.049 425.674 40.2116C414.505 51.3742 414.505 69.4723 425.674 80.6348C436.843 91.7974 454.952 91.7974 466.121 80.6348Z" fill="#C1D9FF" stroke="#C1D9FF" stroke-width="0.84" stroke-miterlimit="10" stroke-linejoin="round"/>
<path d="M427.009 60.3486L423.137 51.5627C418.233 64.1289 424.467 78.2788 437.041 83.1798L431.703 71.0469C429.296 67.9092 427.682 64.2484 427.009 60.3486Z" fill="#6092E7" stroke="#6092E7" stroke-miterlimit="10" stroke-linejoin="round"/>
<path d="M433.109 39.639C430.432 41.2976 428.1 43.4492 426.231 45.9744L427.666 49.2317C428.713 45.6606 430.582 42.3883 433.109 39.639Z" fill="#6092E7" stroke="#6092E7" stroke-miterlimit="10" stroke-linejoin="round"/>
<path d="M451.066 80.5647C447.358 80.5647 443.695 79.7279 440.361 78.0992L443.261 84.6886C444.143 84.7783 445.026 84.8231 445.908 84.838C449.556 84.838 453.159 84.0312 456.448 82.4473L455.446 80.1762C453.996 80.4302 452.531 80.5647 451.066 80.5647Z" fill="#6092E7" stroke="#6092E7" stroke-miterlimit="10" stroke-linejoin="round"/>
<path d="M452.68 36.9794C451.484 36.6357 450.258 36.3817 449.032 36.2323L465.867 74.4985C466.584 73.4824 467.227 72.4066 467.78 71.3009L452.68 36.9794Z" fill="#7CB1FF" stroke="#7CB1FF" stroke-width="0.84" stroke-miterlimit="10" stroke-linejoin="round"/>
<path d="M431.718 71.0468L427.009 60.3484C427.681 64.2482 429.296 67.909 431.718 71.0468Z" fill="#7CB1FF" stroke="#7CB1FF" stroke-width="0.84" stroke-miterlimit="10" stroke-linejoin="round"/>
<path d="M440.36 78.0993C445.039 80.3705 450.317 81.1026 455.445 80.1762L436.786 37.7861C435.515 38.2942 434.275 38.9217 433.108 39.6389C430.582 42.3733 428.713 45.6605 427.651 49.2316L440.36 78.0993Z" fill="#7CB1FF" stroke="#7CB1FF" stroke-width="0.84" stroke-miterlimit="10" stroke-linejoin="round"/>
<path d="M470.322 60.423C470.322 52.3544 466.33 44.8087 459.662 40.2515L470.068 63.9194C470.232 62.7689 470.322 61.6034 470.322 60.423Z" fill="#7CB1FF" stroke="#7CB1FF" stroke-width="0.84" stroke-miterlimit="10" stroke-linejoin="round"/>
<path d="M463.863 76.9489C461.277 78.5476 458.421 79.6384 455.431 80.1763L456.433 82.4475C459.244 81.1027 461.77 79.235 463.863 76.9489Z" fill="#6092E7" stroke="#6092E7" stroke-miterlimit="10" stroke-linejoin="round"/>
<path d="M431.718 71.0468L437.056 83.1796C439.044 83.9565 441.137 84.4646 443.26 84.6887L440.36 78.0993C436.981 76.4408 434.021 74.0351 431.718 71.0468Z" fill="#6092E7" stroke="#6092E7" stroke-miterlimit="10" stroke-linejoin="round"/>
<path d="M426.65 56.1646C426.65 53.8187 426.979 51.4729 427.652 49.2316L426.217 45.9742C424.946 47.6926 423.914 49.5752 423.137 51.5625L427.009 60.3483C426.77 58.9737 426.65 57.5691 426.65 56.1646Z" fill="#6092E7" stroke="#6092E7" stroke-miterlimit="10" stroke-linejoin="round"/>
<path opacity="0.75" d="M461.112 60.737H448.838C448.434 59.1532 447.163 57.9279 445.548 57.5992V41.8505H443.47V57.7038C441.213 58.3911 439.942 60.7669 440.63 63.0231C441.317 65.2793 443.695 66.5494 445.952 65.8621C447.447 65.4138 448.568 64.1736 448.897 62.6496H461.142L461.112 60.737Z" fill="#6092E7" stroke="#6092E7" stroke-miterlimit="10" stroke-linejoin="round"/>
<path d="M446.745 40.5056H444.667V61.3047H446.745V40.5056Z" fill="#F5F5F5" stroke="#F5F5F5" stroke-width="0.84" stroke-miterlimit="10" stroke-linejoin="round"/>
<path d="M462.309 59.3921H444.667V61.3046H462.309V59.3921Z" fill="#F5F5F5" stroke="#F5F5F5" stroke-width="0.84" stroke-miterlimit="10" stroke-linejoin="round"/>
<path d="M445.908 64.6815C448.261 64.6815 450.169 62.775 450.169 60.4231C450.169 58.0712 448.261 56.1647 445.908 56.1647C443.554 56.1647 441.647 58.0712 441.647 60.4231C441.647 62.775 443.554 64.6815 445.908 64.6815Z" fill="#0062D1" stroke="#0062D1" stroke-width="0.84" stroke-miterlimit="10" stroke-linejoin="round"/>
<path opacity="0.28" d="M449.031 36.2173C447.999 36.0828 446.952 36.0231 445.906 36.0231C442.781 36.0231 439.686 36.6207 436.786 37.7862L455.444 80.1763L456.446 82.4475C460.214 80.6395 463.458 77.9052 465.865 74.4835L449.031 36.2173Z" fill="#EFFFFF" stroke="#6092E7" stroke-width="1.33" stroke-miterlimit="10" stroke-linejoin="round"/>
<path opacity="0.28" d="M470.067 63.9345L459.661 40.2666C457.523 38.8023 455.161 37.6966 452.679 36.9794L467.78 71.2859C468.931 68.9699 469.708 66.4896 470.067 63.9345Z" fill="#EFFFFF" stroke="#6092E7" stroke-width="0.87" stroke-miterlimit="10" stroke-linejoin="round"/>
<path opacity="0.28" d="M440.36 78.0993L427.652 49.2316L426.217 45.9742C424.946 47.6926 423.914 49.5752 423.137 51.5625L427.009 60.3483L431.719 71.0467L437.056 83.1795C439.045 83.9565 441.138 84.4645 443.261 84.6886L440.36 78.0993Z" fill="#EFFFFF" stroke="#6092E7" stroke-width="0.87" stroke-miterlimit="10" stroke-linejoin="round"/>
<path d="M246.059 117.083H206.574C205.916 117.083 205.378 116.545 205.378 115.887C205.378 115.23 205.916 114.692 206.574 114.692H246.059C246.716 114.692 247.255 115.23 247.255 115.887C247.255 116.545 246.716 117.083 246.059 117.083Z" fill="#E0E0E0" stroke="#E0E0E0" stroke-width="0.84" stroke-miterlimit="10" stroke-linejoin="round"/>
<path d="M231.243 123.179H206.574C205.916 123.179 205.378 122.641 205.378 121.984C205.378 121.326 205.916 120.788 206.574 120.788H231.243C231.901 120.788 232.439 121.326 232.439 121.984C232.439 122.641 231.901 123.179 231.243 123.179Z" fill="#E0E0E0" stroke="#E0E0E0" stroke-width="0.84" stroke-miterlimit="10" stroke-linejoin="round"/>
</g>
<defs>
<clipPath id="clip0_273_2534">
<rect width="553" height="400" fill="white"/>
</clipPath>
</defs>
</svg>
