<svg width="290" height="407" viewBox="0 0 290 407" fill="none" xmlns="http://www.w3.org/2000/svg">
<rect width="290" height="407" rx="24" fill="white"/>
<g clip-path="url(#clip0_2_644)">
<rect width="260" height="192" transform="translate(15 178)" fill="white"/>
<path d="M263.992 266.511C263.992 307.46 197.34 343.07 136.466 343.07C75.5924 343.07 38.7167 307.158 43.5388 266.511C50.076 211.399 109.467 189.656 170.34 189.656C231.214 189.656 263.992 225.561 263.992 266.511Z" fill="#F4F5F7" stroke="#F4F5F7" stroke-width="0.84" stroke-miterlimit="10"/>
<path d="M272.287 342.775C272.287 351.325 221.563 358.259 158.988 358.259C91.233 358.259 51.6158 347.855 45.6901 342.775C35.5679 334.099 56.8526 303.934 119.428 303.934C182.002 303.934 272.287 326.021 272.287 342.775Z" fill="#F0F0F0"/>
<path d="M222.596 333.959C221.289 347.243 200.123 359.369 159.965 355.407C119.807 351.444 91.5136 336.101 92.8211 322.817C94.1285 309.532 124.551 303.336 164.71 307.299C204.868 311.261 223.911 320.681 222.596 333.959Z" fill="#E0E0E0" stroke="#E0E0E0" stroke-width="0.84" stroke-miterlimit="10"/>
<path d="M177.532 327.636C179.134 331.809 170.601 338.406 158.623 342.993C146.645 347.581 137.331 349.393 135.728 345.22C134.126 341.047 142.392 334.844 154.363 330.257C166.334 325.669 175.936 323.47 177.532 327.636Z" fill="#BDC1C4" stroke="#BDC1C4" stroke-width="0.55" stroke-miterlimit="10"/>
<path d="M74.2288 335.926C84.8543 335.926 93.468 330.702 93.468 324.257C93.468 317.813 84.8543 312.588 74.2288 312.588C63.6033 312.588 54.9896 317.813 54.9896 324.257C54.9896 330.702 63.6033 335.926 74.2288 335.926Z" fill="#E0E0E0" stroke="#E0E0E0" stroke-width="0.84" stroke-miterlimit="10"/>
<path d="M193.699 220.51L166.137 224.086L165.975 224.95L159.234 225.646L148.95 276.767L145.829 287.881L180.146 291.893L179.598 309.638L178.776 309.497L176.238 310.558V315.89L189.32 319.234L191.646 316.74V311.731L184.35 310.467L185.165 283.94L191.218 284.425L191.288 284.003L195.442 284.256L204.376 233.268C205.578 225.765 200.278 219.442 193.699 220.51Z" fill="#E0E0E0" stroke="#E0E0E0" stroke-width="0.84" stroke-miterlimit="10"/>
<path d="M193.474 285.654L153.562 283.252L164.176 225.498L191.738 221.922C198.317 220.854 203.617 227.184 202.415 234.666L193.474 285.654Z" fill="#BDC1C4" stroke="#BDC1C4" stroke-width="0.84" stroke-miterlimit="10"/>
<path d="M189.25 285.823L146.139 282.359L157.273 227.058L186.417 224.044C193.144 223.348 198.683 229.242 197.572 235.909L189.25 285.823Z" fill="#889094" stroke="#889094" stroke-width="0.84" stroke-miterlimit="10"/>
<path d="M174.263 311.956L187.345 314.626L189.671 313.129L176.801 310.902L174.263 311.956Z" fill="#BDC1C4" stroke="#BDC1C4" stroke-width="0.84" stroke-miterlimit="10"/>
<path d="M180.807 316.066L177.503 315.124L178.755 274.456L182.086 274.561L180.807 316.066Z" fill="#667177" stroke="#667177" stroke-width="0.84" stroke-miterlimit="10"/>
<path d="M182.283 314.872L180.807 316.066L182.086 274.561L183.527 274.604L182.283 314.872Z" fill="#BDC1C4" stroke="#BDC1C4" stroke-width="0.84" stroke-miterlimit="10"/>
<path d="M187.345 320.639L174.263 317.295V311.956L187.345 314.626V320.639Z" fill="#667177" stroke="#667177" stroke-width="0.84" stroke-miterlimit="10"/>
<path d="M189.671 313.129V318.138L187.344 320.639V314.626L189.671 313.129Z" fill="#F0F0F0" stroke="#F0F0F0" stroke-width="0.84" stroke-miterlimit="10"/>
<path d="M221.542 327.805L217.451 326.772V276.711H221.542V327.805Z" fill="#667177" stroke="#667177" stroke-width="0.84" stroke-miterlimit="10"/>
<path d="M223.321 326.28L221.542 327.805V276.711H223.321V326.28Z" fill="#BDC1C4" stroke="#BDC1C4" stroke-width="0.84" stroke-miterlimit="10"/>
<path d="M200.116 355.547L195.294 354.332V295.349H200.116V355.547Z" fill="#667177" stroke="#667177" stroke-width="0.84" stroke-miterlimit="10"/>
<path d="M202.212 353.749L200.117 355.547V295.349H202.212V353.749Z" fill="#BDC1C4" stroke="#BDC1C4" stroke-width="0.84" stroke-miterlimit="10"/>
<path d="M98.3391 329.709L94.6628 328.781V283.919H98.3391V329.709Z" fill="#BDC1C4" stroke="#BDC1C4" stroke-width="0.84" stroke-miterlimit="10"/>
<path d="M99.9278 328.339L98.3392 329.709V283.919H99.9278V328.339Z" fill="#667177" stroke="#667177" stroke-width="0.84" stroke-miterlimit="10"/>
<path d="M108.609 312.862L105.277 312.019V271.337H108.609V312.862Z" fill="#BDC1C4" stroke="#BDC1C4" stroke-width="0.84" stroke-miterlimit="10"/>
<path d="M110.05 311.619L108.609 312.862V271.337H110.05V311.619Z" fill="#667177" stroke="#667177" stroke-width="0.84" stroke-miterlimit="10"/>
<path d="M187.345 271.492L159.895 270.965L103.359 269.883L91.233 281.495L149.091 286.371L162.833 287.523L164.204 287.642L180.772 289.033L204.946 291.071L224.649 272.201L187.345 271.492Z" fill="#E0E0E0" stroke="#E0E0E0" stroke-width="0.84" stroke-miterlimit="10"/>
<path d="M205.073 291.07L224.649 272.201V279.683L205.073 298.194V291.07Z" fill="#F0F0F0" stroke="#F0F0F0" stroke-width="0.84" stroke-miterlimit="10"/>
<path d="M91.233 281.495V284.952L148.733 291.639L161.062 293.073L177.349 294.969L205.073 298.194V291.07L91.233 281.495Z" fill="#889094" stroke="#889094" stroke-width="0.84" stroke-miterlimit="10"/>
<path d="M190.992 259.816C190.416 257.94 184.926 241.965 181.074 238.663C179.345 237.181 176.632 236.703 176.632 236.703C176.491 236.752 173.011 236.492 170.945 237.399C170.889 237.42 170.832 237.441 170.776 237.455C170.284 237.609 169.806 237.799 169.342 238.017C168.815 238.27 167.887 238.27 167.079 235.958C168.295 235.481 168.478 234.139 168.189 233.38C167.859 232.502 167.971 230.999 167.971 230.999C168.105 228.926 167.409 227.641 167.015 227.086C167.5 227.563 168.196 227.795 168.196 227.795C167.634 227.268 167.121 226.334 166.861 225.814C166.706 225.498 166.509 225.196 166.284 224.922C163.789 221.908 161.617 223.868 161.617 223.868C160.795 222.646 161.891 221.452 161.891 221.452C160.935 221.697 160.893 223.974 160.893 223.974C159.712 223.131 158.644 223.974 158.018 223.974C157.681 223.974 157.203 223.84 156.83 223.721C156.064 223.461 155.241 223.433 154.461 223.636C152.387 224.198 151.551 226.179 151.291 226.994C151.403 226.411 151.375 225.589 151.375 225.589L151.192 226.468C149.962 231.118 151.01 228.898 153.393 229.025C154.56 231.322 158.039 240.3 159.944 241.045C159.944 241.045 161.041 241.529 162.193 241.269C162.496 241.593 162.721 241.986 162.854 242.415L158.327 245.232C158.327 245.232 155.375 247.002 153.365 249.756C151.354 252.51 151.347 253.114 150.019 253.676C148.69 254.238 132.241 258.783 129.219 260.462C129.219 260.462 133.5 262.001 133.127 267.529C133.127 267.529 156.591 262.078 158.58 257.877L158.552 261.86L159.115 263.413L158.974 263.49C159.037 263.511 159.107 263.539 159.171 263.567L164.169 268.162L164.633 268.984L166.713 269.679L164.401 270.789C164.625 271.962 171.781 263.616 171.781 263.616C174.178 263.532 173.658 272.018 177.285 271.302L189.27 271.513C188.855 269.595 188.307 267.867 187.78 266.335C188.778 265.921 189.502 265.583 189.854 265.366C191.984 264.038 190.992 259.816 190.992 259.816Z" fill="#667177" stroke="#667177" stroke-width="0.84" stroke-miterlimit="10"/>
<path d="M196.335 287.902C199.157 287.902 201.445 287.138 201.445 286.195C201.445 285.252 199.157 284.488 196.335 284.488C193.512 284.488 191.224 285.252 191.224 286.195C191.224 287.138 193.512 287.902 196.335 287.902Z" fill="#BDC1C4" stroke="#BDC1C4" stroke-width="0.85" stroke-miterlimit="10"/>
<path d="M155.403 232.509C155.403 232.509 146.862 234.174 148.767 226.594C148.767 226.594 149.533 224.62 149.723 223.7C149.723 223.7 149.758 224.978 149.54 225.533C149.54 225.533 150.173 222.407 152.781 221.662C153.554 221.452 154.377 221.48 155.136 221.754C155.501 221.88 155.979 222.021 156.317 222.021C156.942 222.021 158.004 221.142 159.171 222.021C159.171 222.021 159.206 219.639 160.162 219.386C160.162 219.386 159.072 220.63 159.895 221.915C159.895 221.915 162.053 219.864 164.534 223.018C164.759 223.306 164.949 223.622 165.103 223.952C165.363 224.5 165.869 225.477 166.425 226.025C166.425 226.025 165.434 225.681 164.998 224.95C164.998 224.95 166.39 226.376 166.207 229.383C166.207 229.383 166.094 230.957 166.425 231.87C166.755 232.783 166.46 234.504 164.703 234.729L155.403 232.509Z" fill="#1B2E35" stroke="#1B2E35" stroke-width="0.84" stroke-miterlimit="10"/>
<path d="M184.09 261.382H171.697L159.895 264.614V270.965L187.345 271.492C186.241 266.785 184.09 261.382 184.09 261.382Z" fill="#007DFE" stroke="#007DFE" stroke-width="0.84" stroke-miterlimit="10"/>
<path d="M168.443 239C168.443 239 169.139 238.874 169.617 238.684L170.664 240.195C170.664 240.195 172 265.267 171.782 265.597C171.564 265.928 159.895 270.543 159.895 270.543L155.403 257.469L159.136 244.508L162.876 240.7L168.443 239Z" fill="white" stroke="white" stroke-width="0.84" stroke-miterlimit="10"/>
<path d="M162.039 240.707L156.619 244.269C156.619 244.269 153.688 246.124 151.685 249.004C149.682 251.884 149.682 252.517 148.367 253.107C147.053 253.697 130.709 258.453 127.701 260.209C127.701 260.209 131.954 261.818 131.581 267.607C131.581 267.607 154.862 266.068 156.844 261.677C156.844 261.677 158.18 250.149 160.964 243.637L162.039 242.639V240.707Z" fill="#7CB1FF" stroke="#7CB1FF" stroke-width="0.84" stroke-miterlimit="10"/>
<path d="M159.895 239.583C159.895 239.583 161.266 240.511 161.217 242.07L160.971 243.63C160.971 243.63 161.364 244.95 162.243 245.091C163.122 245.231 166.102 244.262 168.443 238.986C168.443 238.986 165.561 237.764 164.633 231.617L159.895 239.583Z" fill="#FDB374" stroke="#FDB374" stroke-width="0.84" stroke-miterlimit="10"/>
<path d="M152.176 230.844C152.176 230.844 155.494 238.754 158.235 239.871C158.235 239.871 160.239 240.799 161.652 239.478C163.064 238.157 165.412 235.375 165.215 233.57L165.019 231.764C165.019 231.764 165.679 229.861 165.159 228.589C165.012 228.231 164.702 227.964 164.33 227.872C163.838 227.76 163.107 227.774 162.748 228.652C162.664 228.856 162.643 229.081 162.678 229.299L162.875 230.486C162.875 230.486 162.439 231.167 161.996 230.732C161.553 230.296 161.947 230.099 161.068 229.608C160.189 229.116 159.845 228.238 159.655 227.219C159.655 227.219 159.023 231.273 153.94 231.223C153.94 231.223 157.019 230.928 157.898 228.737C157.891 228.751 154.91 231.287 152.176 230.844Z" fill="#FDB374" stroke="#FDB374" stroke-width="0.84" stroke-miterlimit="10"/>
<path d="M175.254 237.947C175.254 237.947 171.662 237.729 169.61 238.677C169.61 238.677 165.217 251.273 170.418 261.375L183.169 259.176L177.968 244.677L175.254 237.947Z" fill="#7CB1FF" stroke="#7CB1FF" stroke-width="0.84" stroke-miterlimit="10"/>
<path d="M157.273 263.385C157.273 263.385 158.334 269.068 160.176 271.232C162.018 273.395 162.889 273.114 162.889 273.114L164.633 268.984L162.545 263.588L160.007 263.019L157.273 263.385Z" fill="#5F8FD9" stroke="#5F8FD9" stroke-width="0.84" stroke-miterlimit="10"/>
<path d="M157.941 271.688H131.764L143.489 280.477H149.759C149.759 280.477 157.062 275.011 156.915 274.611C156.767 274.21 157.941 271.688 157.941 271.688Z" fill="#0062D1" stroke="#0062D1" stroke-width="0.84" stroke-miterlimit="10"/>
<path d="M161.062 293.073L148.732 291.64C149.717 295.307 152.521 300.238 152.521 300.238C152.521 300.238 153.421 302.009 154.623 304.151C154.764 303.955 154.841 303.849 154.841 303.849L161.062 293.073Z" fill="#1C2D35" stroke="#1C2D35" stroke-width="0.84" stroke-miterlimit="10"/>
<path d="M168.45 309.055C166.692 305.409 164.591 300.892 163.473 297.885L157.948 303.898L162.939 313.986C164.471 313.502 166.882 312.258 168.45 309.055Z" fill="white" stroke="black" stroke-width="0.84" stroke-miterlimit="10"/>
<path d="M160.971 243.637C160.971 243.637 157.772 251.891 156.851 261.677C156.851 261.677 156.043 264.01 147.58 265.569L147.369 260.364C147.369 260.364 153.871 261.333 160.971 243.637Z" fill="#558EFF"/>
<path d="M149.281 331.275C149.281 331.275 151.151 328.5 153.597 325.03C149.548 325.248 146.989 323.547 145.668 322.283L142.673 326.617C142.673 326.61 145.218 328.88 149.281 331.275Z" fill="#007DFD" stroke="#007DFD" stroke-width="0.84" stroke-miterlimit="10"/>
<path d="M153.597 325.03L149.921 330.334L143.44 325.501L143.988 324.707C143.988 324.707 150.146 328.564 153.597 325.03Z" fill="#0049E2" stroke="#0049E2" stroke-miterlimit="10"/>
<path d="M161.062 293.073L155.755 302.261C155.755 302.261 157.062 296.501 154.173 292.272L161.062 293.073Z" fill="#12181B"/>
<path d="M171.409 315.047C171.409 315.047 170.073 312.42 168.45 309.048C166.889 312.258 164.471 313.495 162.932 313.972L164.991 318.131C164.984 318.138 167.824 317.155 171.409 315.047Z" fill="#FDB374" stroke="#FDB374" stroke-width="0.84" stroke-miterlimit="10"/>
<path d="M153.597 325.03C156.24 321.279 159.565 316.705 161.933 313.93L152.922 311.767L145.668 322.276C146.989 323.548 149.555 325.248 153.597 325.03Z" fill="#FDB374" stroke="#FDB374" stroke-width="0.84" stroke-miterlimit="10"/>
<path d="M152.135 312.911C152.135 312.911 157.189 313.916 159.03 317.576L155.171 322.824C155.171 322.824 158.074 314.85 151.664 313.6L152.135 312.911Z" fill="#FD876E" stroke="#FD876E" stroke-miterlimit="10"/>
<path d="M168.562 309.286C168.562 309.286 166.664 313.628 163.831 315.799L164.267 316.677C164.267 316.677 166.298 315.806 167.388 314.85C167.388 314.85 166.748 312.771 168.808 309.785L168.562 309.286Z" fill="#FD876E" stroke="#FD876E" stroke-miterlimit="10"/>
<path d="M154.834 303.849C154.834 303.849 154.757 303.962 154.616 304.151C153.71 305.437 150.3 310.46 150.94 312.715C150.94 312.715 157.393 313.242 159.361 318.314C159.361 318.314 164.092 316.642 166.278 313.179C168.464 309.715 172.218 302.416 176.267 296.571C176.66 296.009 177.019 295.475 177.356 294.969L161.069 293.073L154.834 303.849Z" fill="#3B464C" stroke="#3B464C" stroke-width="0.84" stroke-miterlimit="10"/>
<path d="M177.348 294.969C177.348 294.969 172.308 301.995 169.131 308.282C169.131 308.282 165.848 316.473 159.353 318.321C159.353 318.321 158.208 313.944 150.932 312.722C150.932 312.722 163.086 315.764 168.414 301.004C169.328 298.468 168.231 295.644 165.841 294.379C164.871 293.881 163.845 293.508 162.784 293.276L177.348 294.969Z" fill="#2F393F" stroke="#2F3E46" stroke-miterlimit="10"/>
<path d="M158.117 263.504C158.117 263.504 154.489 264.242 152.613 265.056C150.736 265.871 149.217 265.668 148.69 265.71C148.212 265.745 146.982 266.173 147.263 266.974C147.327 267.15 147.453 267.297 147.608 267.396C147.868 267.557 148.36 267.817 148.81 267.761C148.81 267.761 146.483 269.967 146.849 270.62C146.849 270.62 147.298 271.52 148.69 270.374C150.082 269.229 151.143 268.084 151.143 268.372C151.143 268.66 147.137 271.765 147.629 272.622C147.629 272.622 147.875 273.641 149.548 272.377C151.221 271.112 152.816 269.314 152.816 269.721C152.816 270.129 149.217 272.953 150.033 273.81C150.033 273.81 150.672 274.814 152.458 273.128C154.243 271.442 154.693 270.789 154.735 271.239C154.778 271.688 152.774 273.465 153.547 274.112C154.321 274.758 155.263 273.529 155.797 272.875C156.331 272.222 158.784 270.058 159.719 269.686C160.654 269.314 162.784 268.906 162.784 268.906L161.596 264.41L158.117 263.504Z" fill="#FDB374" stroke="#FDB374" stroke-width="0.84" stroke-miterlimit="10"/>
<path d="M179.676 240.012C183.499 243.468 188.504 257.582 189.081 259.542C189.081 259.542 190.065 263.954 187.935 265.345C185.805 266.736 169.806 272.861 162.883 273.107C162.883 273.107 162.826 265.59 157.266 263.385C157.266 263.385 164.872 258.811 175.423 256.563C175.423 256.563 169.371 246.377 175.261 237.961C175.261 237.954 177.96 238.452 179.676 240.012Z" fill="#7CB1FF" stroke="#7CB1FF" stroke-width="0.84" stroke-miterlimit="10"/>
<path d="M126.239 326.646C123.933 324.046 121.36 323.695 119.877 323.751C119.631 324.981 119.54 328.304 124.031 332.329C124.031 332.329 130.534 337.45 131.693 338.764C132.825 340.043 137.085 344.454 140.136 342.319C136.087 341.181 129.451 330.264 126.239 326.646Z" fill="#969D9F" stroke="#969D9F" stroke-width="0.84" stroke-miterlimit="10"/>
<path d="M129.311 322.332C126.436 320.773 121.775 319.094 120.025 323.239C119.962 323.407 119.913 323.576 119.884 323.751C121.368 323.695 123.947 324.053 126.246 326.646C126.745 327.208 127.322 327.938 127.961 328.781C129.852 326.484 129.711 323.955 129.311 322.332Z" fill="#F5F5F5" stroke="#F5F5F5" stroke-width="0.84" stroke-miterlimit="10"/>
<path d="M150.419 328.142C150.419 328.142 147.453 327.629 144.754 325.887C143.657 327.004 141.288 329.041 138.251 329.624C134.948 330.257 130.976 327.243 129.387 325.88C129.148 326.948 128.656 327.945 127.953 328.781C131.44 333.404 136.712 341.356 140.135 342.312C140.206 342.262 140.276 342.213 140.346 342.157C143.404 339.663 150.433 330.524 150.433 330.524C150.433 330.524 151.783 328.943 150.419 328.142Z" fill="#1B2E35" stroke="#1B2E35" stroke-width="0.84" stroke-miterlimit="10"/>
<path d="M138.252 329.624C141.289 329.048 143.651 327.004 144.754 325.887C144.55 325.754 144.34 325.613 144.136 325.466C144.136 325.466 143.074 324.271 142.224 324.939C141.373 325.606 139.468 328.304 137.198 327.594C135.419 327.039 133.05 325.044 132.109 324.201C131.743 323.878 131.356 323.583 130.949 323.316C130.534 323.042 129.965 322.691 129.304 322.332C129.536 323.281 129.683 324.538 129.381 325.88C130.984 327.243 134.948 330.257 138.252 329.624Z" fill="#667177" stroke="#667177" stroke-width="0.84" stroke-miterlimit="10"/>
<path d="M161.399 334.928C161.399 334.928 168.133 332.118 169.638 331.788C171.107 331.465 176.33 330.074 175.992 326.814C175.985 326.737 175.978 326.66 175.964 326.583C175.922 326.365 175.873 326.119 175.809 325.852C170.46 331.697 155.502 334.338 153.681 334.64C153.737 334.668 153.794 334.697 153.85 334.718C155.319 335.35 158.067 336.08 161.399 334.928Z" fill="#969D9F" stroke="#969D9F" stroke-width="0.84" stroke-miterlimit="10"/>
<path d="M156.914 326.02C156.626 326.182 156.303 326.372 155.958 326.589C154.475 327.531 152.676 328.964 152.043 330.643C151.46 332.195 152.198 333.931 153.674 334.654C156.823 334.113 159.944 333.383 163.009 332.462C160.717 327.84 158.51 326.365 156.914 326.02Z" fill="#F5F5F5" stroke="#F5F5F5" stroke-width="0.84" stroke-miterlimit="10"/>
<path d="M171.325 313.839C171.325 313.839 170.685 312.125 169.483 312.834C169.483 312.834 167.817 314.893 165.322 316.227C165.132 316.326 164.935 316.431 164.731 316.522L164.682 316.536C164.809 317.288 164.977 318.468 165.188 320.302C165.638 324.152 161.062 326.561 159.354 327.327C160.486 328.296 161.737 329.891 163.009 332.469C167.754 331.043 173.054 328.88 175.802 325.873C174.853 322.009 171.325 313.839 171.325 313.839Z" fill="#1B2E35" stroke="#1B2E35" stroke-width="0.84" stroke-miterlimit="10"/>
<path d="M165.188 320.295C164.97 318.461 164.809 317.281 164.682 316.529C164.443 316.593 163.368 316.93 163.508 317.766C163.663 318.707 164.921 321.328 163.396 322.768C162.208 323.892 159.649 324.868 158.602 325.234C158.194 325.374 157.801 325.543 157.421 325.746C157.273 325.824 157.098 325.915 156.915 326.02C157.625 326.175 158.447 326.554 159.354 327.327C161.062 326.561 165.638 324.145 165.188 320.295Z" fill="#667177" stroke="#667177" stroke-width="0.84" stroke-miterlimit="10"/>
<path d="M164.31 229.98C164.31 229.98 168.773 246.229 160.837 252.088C152.901 257.947 137.373 262.127 136.347 268.161" stroke="#0668D7" stroke-width="4.2" stroke-miterlimit="10"/>
<path d="M154.061 234.729C154.061 234.729 149.78 240.033 153.934 249.067C153.934 249.067 156.865 252.91 149.759 258.207" stroke="#0668D7" stroke-width="4.2" stroke-miterlimit="10"/>
<path d="M163.888 230.022C163.888 229.678 164.162 229.397 164.507 229.397C164.605 229.397 164.703 229.418 164.788 229.46C164.5 229.2 164.057 229.214 163.797 229.502C163.536 229.79 163.551 230.233 163.839 230.493C164.029 230.668 164.296 230.725 164.535 230.64H164.514C164.169 230.64 163.888 230.366 163.888 230.022Z" fill="#243679"/>
<path d="M165.019 229.98C165.019 229.783 164.935 229.594 164.795 229.467C164.485 229.313 164.113 229.439 163.958 229.748C163.803 230.057 163.93 230.43 164.239 230.584C164.324 230.626 164.422 230.647 164.513 230.647H164.534C164.823 230.556 165.019 230.282 165.019 229.98Z" fill="#244E88"/>
<path d="M153.393 232.635C153.393 232.635 153.969 231.49 155.642 231.947C155.727 231.968 155.783 232.052 155.769 232.137C155.762 232.186 155.727 232.221 155.684 232.235C155.523 232.291 154.574 231.729 153.604 232.692C153.604 232.685 153.365 232.839 153.393 232.635Z" fill="#1B2E35" stroke="#1B2E35" stroke-width="0.84" stroke-miterlimit="10"/>
<path d="M161.118 230.9C161.118 230.9 160.057 230.177 158.813 231.378C158.749 231.434 158.742 231.533 158.792 231.603C158.82 231.638 158.869 231.659 158.918 231.645C159.087 231.61 159.649 230.668 160.957 231.041C160.957 231.041 161.245 231.062 161.118 230.9Z" fill="#1B2E35" stroke="#1B2E35" stroke-width="0.84" stroke-miterlimit="10"/>
<path d="M155.769 233.001C155.769 233.001 154.918 232.488 154.271 233.289C154.236 233.338 154.25 233.408 154.292 233.443C154.314 233.471 154.349 233.478 154.384 233.471C154.496 233.45 154.714 232.811 155.677 233.099C155.684 233.099 155.881 233.12 155.769 233.001Z" fill="black" stroke="black" stroke-width="0.84" stroke-miterlimit="10"/>
<path d="M155.305 233.542C155.298 233.844 155.052 234.083 154.749 234.076C154.447 234.069 154.208 233.823 154.215 233.521C154.222 233.219 154.468 232.987 154.771 232.987C155.073 232.987 155.312 233.24 155.305 233.542C155.305 233.535 155.305 233.535 155.305 233.542Z" fill="black"/>
<path d="M155.305 233.542C155.298 233.844 155.052 234.083 154.749 234.076C154.447 234.069 154.208 233.823 154.215 233.521C154.222 233.219 154.468 232.987 154.771 232.987C155.073 232.987 155.312 233.24 155.305 233.542ZM155.305 233.542C155.305 233.535 155.305 233.535 155.305 233.542Z" stroke="black" stroke-width="0.84" stroke-miterlimit="10"/>
<path d="M160.858 231.933C160.858 231.933 160.008 231.42 159.361 232.221C159.326 232.27 159.34 232.34 159.382 232.376C159.403 232.404 159.438 232.411 159.473 232.404C159.586 232.383 159.804 231.743 160.767 232.031C160.774 232.031 160.971 232.052 160.858 231.933Z" fill="black" stroke="black" stroke-width="0.84" stroke-miterlimit="10"/>
<path d="M159.853 233.001C160.152 233.001 160.394 232.759 160.394 232.46C160.394 232.161 160.152 231.919 159.853 231.919C159.554 231.919 159.312 232.161 159.312 232.46C159.312 232.759 159.554 233.001 159.853 233.001Z" fill="black" stroke="black" stroke-width="0.84" stroke-miterlimit="10"/>
<path d="M157.231 233.169C157.231 233.169 157.35 235.993 157.477 236.485C157.61 236.977 159.115 236.485 159.115 236.485" stroke="black" stroke-width="0.84" stroke-miterlimit="10"/>
<path d="M159.734 238.431C159.734 238.431 161.006 238.115 161.055 236.464" stroke="black" stroke-width="0.84" stroke-miterlimit="10"/>
<path d="M160.464 240.117C160.464 240.117 162.306 239.506 163.81 237.04C163.81 237.04 163.198 239.871 161.047 241.101L160.464 240.117Z" fill="#FD876E" stroke="#FD876E" stroke-miterlimit="10"/>
<path d="M159.649 227.233C159.649 227.233 159.122 229.811 156.521 230.788C156.521 230.788 158.756 230.408 159.895 228.167L159.649 227.233Z" fill="#FD876E"/>
<path d="M157.891 228.751C157.891 228.751 155.684 231.266 152.401 231.371L152.176 230.844C152.176 230.844 154.784 231.294 157.891 228.751Z" fill="#FD876E"/>
<path d="M163.297 227.992C163.297 227.992 162.531 228.456 162.671 229.32L162.868 230.507C162.868 230.507 162.608 228.006 164.162 227.859C164.169 227.859 163.62 227.809 163.297 227.992Z" fill="#FD876E" stroke="#FD876E" stroke-miterlimit="10"/>
<path d="M157.737 263.581C157.737 263.581 160.507 264.494 162.152 269.019L159.726 269.665C159.726 269.665 160.732 266.792 157.329 263.666L157.737 263.581Z" fill="#FD876E" stroke="#FD876E" stroke-miterlimit="10"/>
<path d="M148.803 267.754C148.803 267.754 149.801 266.44 150.68 265.935C150.68 265.935 148.648 267.129 147.622 266.63L147.601 267.389C147.601 267.389 148.381 267.873 148.803 267.754Z" fill="#FD876E" stroke="#FD876E" stroke-miterlimit="10"/>
<path d="M165.019 231.771C165.019 231.771 165.546 230.437 165.357 229.27C165.357 229.27 165.202 227.971 164.323 227.886C164.323 227.886 166.207 227.879 165.996 231.371C165.996 231.371 165.771 233.092 166.376 233.478C166.376 233.478 166.158 234.3 165.349 234.553C165.356 234.553 165.103 232.137 165.019 231.771Z" fill="#122229"/>
<path d="M160.394 222.323C160.394 222.323 163.635 222.007 165.877 226.566C165.877 226.573 164.162 220.672 160.394 222.323Z" fill="#122229"/>
<path d="M152.176 230.844L152.907 232.453C152.907 232.453 149.54 232.2 149.758 229.172C149.758 229.179 150.939 230.865 152.176 230.844Z" fill="#122229"/>
<path d="M172.808 248.386C172.808 248.386 173.223 254.161 175.423 256.556C175.423 256.556 172.182 257.28 170.313 257.87C170.313 257.87 172.97 256.964 172.864 254.153C172.759 251.343 172.421 250.859 172.808 248.386Z" fill="#558EFF"/>
<path d="M185.903 266.363C186.093 266.497 175.394 270.81 172.309 271.196L177.278 271.288C177.278 271.288 182.677 269.609 186.023 266.792L185.903 266.363Z" fill="#2E46FF" stroke="#2E46FF" stroke-miterlimit="10"/>
<path opacity="0.75" d="M157.273 263.385C157.273 263.385 159.881 263.961 161.582 267.607C161.582 267.607 159.572 263.378 165.279 259.619C165.272 259.612 159.347 261.853 157.273 263.385Z" fill="#558EFF"/>
<path opacity="0.72" d="M127.953 328.781C128.966 330.081 134.308 337.212 134.308 337.212C137.64 342.017 140.135 342.312 140.135 342.312C143.516 339.818 149.048 332.294 150.433 330.517C151.818 328.739 150.419 328.142 150.419 328.142L148.521 327.643C148.521 327.643 139.221 339.382 131.897 329.709C131.897 329.709 129.971 327.264 129.219 326.519L127.953 328.781Z" fill="#12181B"/>
<path opacity="0.17" d="M129.213 326.519C129.213 326.519 124.932 321.37 120.82 321.925L119.878 323.744C119.878 323.744 123.687 323.14 127.954 328.781L129.213 326.519Z" fill="#969D9F"/>
<path opacity="0.64" d="M119.877 323.751C119.877 323.751 124.179 323.463 127.947 328.788C131.715 334.106 136.495 341.342 140.129 342.319C140.129 342.319 138.962 342.888 136.101 340.794C134.955 339.951 133.957 338.933 133.149 337.766C131.138 334.9 126.218 328.233 123.174 327.271C122.794 327.151 122.394 327.355 122.267 327.728C122.253 327.763 122.246 327.805 122.239 327.84C122.12 328.578 122.316 329.976 124.025 332.329C124.032 332.329 119.139 328.606 119.877 323.751Z" fill="#667177" stroke="#667177" stroke-width="0.84" stroke-miterlimit="10"/>
<path opacity="0.72" d="M171.325 313.839C171.325 313.839 170.601 311.97 169.483 312.834C169.483 312.834 166.538 315.862 164.682 316.529L165.188 320.295C165.188 320.295 166.095 324.201 159.354 327.32C159.354 327.32 161.575 329.343 163.009 332.462C163.009 332.462 168.464 330.762 170.727 329.47C170.734 329.47 167.367 316.143 171.325 313.839Z" fill="#12181B"/>
<path opacity="0.17" d="M159.354 327.32C159.354 327.32 153.941 328.894 152.345 331.402C151.966 331.992 151.931 332.737 152.247 333.362C152.5 333.847 152.936 334.395 153.674 334.654C153.674 334.654 160.935 333.713 163.009 332.463C163.016 332.463 161.097 328.409 159.354 327.32Z" fill="#969D9F"/>
<path opacity="0.64" d="M153.681 334.654C153.681 334.654 162.004 333.853 170.734 329.47C170.734 329.47 165.511 333.537 155.994 335.364C155.994 335.364 154.075 334.83 153.681 334.654Z" fill="#667177" stroke="#667177" stroke-width="0.84" stroke-miterlimit="10"/>
<path opacity="0.35" d="M160.97 243.637C160.97 243.637 157.638 252.706 156.851 261.677L157.406 263.286C157.406 263.286 158.447 262.534 159.424 262.134C159.424 262.134 158.144 258.53 160.78 249.404C161.244 247.81 162.257 246.433 163.641 245.52C164.675 244.831 165.926 243.693 166.854 241.852C166.854 241.852 164.752 245.189 162.243 245.091C162.236 245.098 161.364 245.084 160.97 243.637Z" fill="#BDD9FF" stroke="#BDD9FF" stroke-width="0.84" stroke-miterlimit="10"/>
<path d="M170.13 324.707C164.746 324.608 164.394 320.197 164.394 320.197C164.394 320.197 158.236 320.534 158.581 325.451" stroke="#F5F5F5" stroke-width="4.2" stroke-miterlimit="10"/>
<path d="M140.347 335.139C138.182 330.334 140.347 326.849 140.347 326.849C140.347 326.849 135.525 323.688 133.128 327.039" stroke="#F5F5F5" stroke-width="5.01" stroke-miterlimit="10"/>
<path d="M162.89 320.702C161.723 320.744 159.79 320.393 158.475 317.878C158.314 317.562 158.433 317.176 158.749 317.014C158.876 316.951 159.024 316.923 159.164 316.951C159.684 317.042 160.394 317.274 161.322 317.78C163.614 319.03 163.937 319.88 164.394 320.189L164.38 320.196C163.937 320.513 163.424 320.681 162.89 320.702Z" stroke="#F5F5F5" stroke-width="4.2" stroke-miterlimit="10"/>
<path d="M164.394 320.197C164.394 320.197 162.152 314.864 163.691 312.729C164.071 312.202 164.809 312.075 165.343 312.455C165.547 312.602 165.702 312.813 165.779 313.052C166.137 314.127 166.123 316.213 164.394 320.197Z" stroke="#F5F5F5" stroke-width="4.2" stroke-miterlimit="10"/>
<path d="M138.969 325.95C138.28 324.826 137.563 322.705 139.334 320.021C139.559 319.684 140.009 319.592 140.347 319.81C140.48 319.902 140.586 320.028 140.635 320.183C140.825 320.745 140.993 321.581 141 322.782C141.022 325.739 140.354 326.533 140.305 327.159L140.29 327.152C139.742 326.885 139.285 326.47 138.969 325.95Z" stroke="#F5F5F5" stroke-width="4.2" stroke-miterlimit="10"/>
<path d="M140.304 327.159C140.304 327.159 144.353 321.995 147.326 322.339C148.064 322.424 148.592 323.091 148.507 323.822C148.472 324.103 148.353 324.37 148.156 324.58C147.284 325.536 145.21 326.681 140.304 327.159Z" stroke="#F5F5F5" stroke-width="4.2" stroke-miterlimit="10"/>
<path d="M148.135 279.268L112.447 276.697C111.456 276.627 110.676 275.833 110.619 274.843L109.502 255.453C109.432 254.189 110.395 253.1 111.667 253.03C111.688 253.03 111.709 253.03 111.73 253.03L144.761 252.088C146.019 252.053 147.073 253.037 147.123 254.294L148.135 279.268Z" fill="#BDD9FF" stroke="#BDD9FF" stroke-width="0.84" stroke-miterlimit="10"/>
<path d="M148.163 280.603L111.772 278.116C111.006 278.06 110.338 278.636 110.282 279.402C110.275 279.5 110.275 279.598 110.296 279.697C110.373 280.196 110.788 280.575 111.294 280.617L146.785 283.877C147.882 283.982 148.985 283.673 149.871 283.013L156.633 277.948C157.582 277.245 158.145 276.135 158.152 274.955V273.016L148.163 280.603Z" fill="#BDC1C4" stroke="#BDC1C4" stroke-width="0.85" stroke-miterlimit="10"/>
<path d="M148.311 279.268L111.583 276.662L111.815 278.362C111.885 278.854 112.279 279.233 112.778 279.282L146.982 282.542C148.044 282.647 149.112 282.338 149.956 281.685L156.479 276.62C157.4 275.903 157.941 274.8 157.941 273.627V271.688L148.311 279.268Z" fill="#7CB1FF" stroke="#7CB1FF" stroke-width="0.84" stroke-miterlimit="10"/>
<path opacity="0.3" d="M109.502 255.46L110.62 274.849C110.62 274.849 110.901 276.704 112.447 276.704L138.484 278.573C138.484 278.573 117.241 276.247 115.126 252.938L111.73 253.036C111.73 253.036 109.383 253.423 109.502 255.46Z" fill="#7CB1FF" stroke="#7CB1FF" stroke-width="0.84" stroke-miterlimit="10"/>
<path opacity="0.27" d="M111.583 276.662L148.311 279.268C148.311 279.268 133.563 278.601 128.516 280.786L112.778 279.282C112.778 279.282 111.934 279.233 111.815 278.362C111.695 277.491 111.583 276.662 111.583 276.662Z" fill="#0062D1" stroke="#0062D1" stroke-width="0.84" stroke-miterlimit="10"/>
<path d="M205.163 277.378C204.77 277.182 204.32 277.097 203.884 277.14C203.849 277.259 203.807 277.378 203.772 277.505C204.13 277.484 204.482 277.554 204.798 277.716C206.021 278.341 206.365 280.111 205.564 281.678C204.763 283.244 203.125 284.003 201.902 283.385C201.81 283.336 201.719 283.28 201.635 283.223C201.571 283.364 201.508 283.497 201.445 283.624C201.564 283.722 201.698 283.813 201.839 283.884C203.244 284.6 205.121 283.722 206.042 281.931C206.963 280.139 206.562 278.095 205.163 277.378Z" fill="#0062D1" stroke="#0062D1" stroke-width="0.84" stroke-miterlimit="10"/>
<path d="M201.445 283.624C201.509 283.49 201.572 283.357 201.635 283.223C202.472 281.425 203.259 279.093 203.765 277.512C203.807 277.385 203.842 277.266 203.878 277.147C204.145 276.29 204.306 275.735 204.306 275.735C196.258 278.776 189.306 275.173 189.306 275.173C189.264 276.725 191.33 284.544 192.244 285.471C193.158 286.399 198.191 286.919 199.997 285.724C200.454 285.408 200.953 284.628 201.445 283.624Z" fill="#7CB1FF" stroke="#7CB1FF" stroke-width="0.84" stroke-miterlimit="10"/>
<path d="M204.44 275.433C204.461 274.302 201.08 273.311 196.89 273.227C192.701 273.142 189.278 273.992 189.257 275.124C189.257 275.243 189.285 275.355 189.348 275.454C190.719 274.927 193.059 274.604 195.709 274.66C199.491 274.737 202.605 275.545 203.175 276.536C203.962 276.226 204.426 275.847 204.44 275.433Z" fill="#BDD9FF" stroke="#BDD9FF" stroke-width="0.84" stroke-miterlimit="10"/>
<path d="M195.703 274.66C194.782 274.639 193.861 274.667 192.947 274.744C191.464 274.871 190.206 275.123 189.341 275.461C189.903 276.451 193.024 277.259 196.799 277.336C197.207 277.343 197.614 277.343 198.001 277.336C200.152 277.287 202.001 276.985 203.161 276.543C202.605 275.545 199.484 274.737 195.703 274.66Z" fill="#F5F5F5" stroke="#F5F5F5" stroke-width="0.84" stroke-miterlimit="10"/>
<path opacity="0.62" d="M194.156 274.744C196.806 274.8 199.132 275.138 200.475 275.721C201.037 275.959 200.96 276.711 200.363 276.845C199.681 276.999 198.879 277.259 198.008 277.329C200.159 277.28 202.007 276.978 203.167 276.536C202.605 275.545 199.484 274.737 195.702 274.66C194.781 274.639 193.86 274.667 192.947 274.744C193.34 274.737 193.741 274.737 194.156 274.744Z" fill="#BDD9FF"/>
<path opacity="0.46" d="M189.341 275.461C189.341 275.461 190.536 282.907 192.251 285.464C192.251 285.464 193.819 286.757 198.331 286.286C197.6 286.146 192.047 286.09 192.357 279.296C192.385 278.748 192.75 278.285 193.299 278.334C195.548 278.559 200.904 278.868 203.505 276.472C203.505 276.472 201.192 277.786 195.302 277.266C195.295 277.259 190.459 276.992 189.341 275.461Z" fill="#007DFE" stroke="#007DFE" stroke-width="0.84" stroke-miterlimit="10"/>
<path opacity="0.38" d="M189.341 275.461C189.341 275.461 191.886 274.168 197.151 274.73C197.151 274.73 202.711 275.123 203.168 276.535C203.168 276.535 204.025 276.198 204.201 275.924C204.377 275.65 197.186 271.674 189.341 275.461Z" fill="#7CB1FF"/>
<path d="M195.294 269.883C195.294 269.883 192.476 260.588 203.99 257.399C215.504 254.21 224.227 249.264 222.434 242.716C220.642 236.169 214.857 237.876 214.857 237.876" stroke="#BDD9FF" stroke-width="5.01" stroke-miterlimit="10"/>
<path d="M197.706 269.257C197.706 269.257 200.271 259.703 217.451 263.511C234.631 267.319 238.694 265.45 240.999 263.019" stroke="#BDD9FF" stroke-width="5.01" stroke-miterlimit="10"/>
<path d="M182.375 278.692C182.347 278.264 182.234 277.814 181.981 277.456C181.932 276.992 181.517 276.318 180.273 276.107C179.176 275.924 173.736 275.257 171.177 275.39C170.643 275.419 170.144 275.657 169.792 276.051C168.9 277.055 167.163 279.254 166.763 281.495C166.763 281.495 166.756 281.537 166.749 281.615C166.749 281.636 166.749 281.664 166.749 281.685C166.749 281.664 166.749 281.636 166.749 281.615C166.706 282.085 166.601 283.778 167.29 284.13C167.388 284.172 167.494 284.207 167.599 284.221C169.469 284.621 177.883 285.113 177.883 285.113C177.939 285.113 178.003 285.113 178.059 285.106C178.593 285.057 179.099 284.86 179.528 284.53C179.802 284.319 180.034 284.059 180.217 283.764C180.8 282.837 181.503 281.559 181.911 280.814C182.262 280.175 182.424 279.437 182.375 278.692ZM177.778 283.533H177.82H177.778ZM177.82 283.533H177.855H177.82ZM177.883 283.526H177.855H177.883L177.967 283.512L177.883 283.526ZM168.527 282.809L168.457 282.795L168.527 282.809ZM168.415 282.788L168.351 282.774L168.415 282.788ZM168.302 282.774L168.246 282.76L168.302 282.774ZM168.197 282.753L168.14 282.739L168.197 282.753ZM168.098 282.732L168.042 282.718L168.098 282.732ZM168.007 282.711L167.922 282.69L168.007 282.711ZM167.873 282.683L167.831 282.676L167.873 282.683ZM167.789 282.661L167.754 282.654L167.789 282.661ZM167.712 282.64L167.683 282.633L167.712 282.64ZM167.634 282.619L167.606 282.612L167.634 282.619ZM167.564 282.598L167.543 282.591L167.564 282.598ZM167.494 282.577L167.48 282.57L167.494 282.577ZM166.833 282.05C166.868 282.128 166.917 282.198 166.974 282.261C166.917 282.198 166.868 282.128 166.833 282.05ZM168.815 282.851L168.689 282.837L168.815 282.851C170.776 283.097 176.54 283.575 177.728 283.533H177.778H177.728C176.54 283.568 170.776 283.09 168.815 282.851ZM168.569 282.816L168.647 282.83L168.569 282.816ZM178.916 283.16L178.966 283.118C179.001 283.083 179.043 283.041 179.078 282.999C179.043 283.041 179.001 283.083 178.966 283.118C178.951 283.125 178.93 283.139 178.916 283.16Z" fill="#BDC1C4"/>
<path d="M177.883 283.526H177.855H177.883ZM177.883 283.526L177.967 283.512L177.883 283.526ZM168.815 282.851L168.689 282.837L168.815 282.851ZM168.815 282.851C170.776 283.097 176.54 283.575 177.728 283.533H177.778H177.728C176.54 283.568 170.776 283.09 168.815 282.851ZM182.375 278.692C182.347 278.264 182.234 277.814 181.981 277.456C181.932 276.992 181.517 276.318 180.273 276.107C179.176 275.924 173.736 275.257 171.177 275.39C170.643 275.419 170.144 275.657 169.792 276.051C168.9 277.055 167.163 279.254 166.763 281.495C166.763 281.495 166.756 281.537 166.749 281.615C166.749 281.636 166.749 281.664 166.749 281.685C166.749 281.664 166.749 281.636 166.749 281.615C166.706 282.085 166.601 283.778 167.29 284.13C167.388 284.172 167.494 284.207 167.599 284.221C169.469 284.621 177.883 285.113 177.883 285.113C177.939 285.113 178.003 285.113 178.059 285.106C178.593 285.057 179.099 284.86 179.528 284.53C179.802 284.319 180.034 284.059 180.217 283.764C180.8 282.837 181.503 281.559 181.911 280.814C182.262 280.175 182.424 279.437 182.375 278.692ZM177.778 283.533H177.82H177.778ZM177.82 283.533H177.855H177.82ZM168.527 282.809L168.457 282.795L168.527 282.809ZM168.415 282.788L168.351 282.774L168.415 282.788ZM168.302 282.774L168.246 282.76L168.302 282.774ZM168.197 282.753L168.14 282.739L168.197 282.753ZM168.098 282.732L168.042 282.718L168.098 282.732ZM168.007 282.711L167.922 282.69L168.007 282.711ZM167.873 282.683L167.831 282.676L167.873 282.683ZM167.789 282.661L167.754 282.654L167.789 282.661ZM167.712 282.64L167.683 282.633L167.712 282.64ZM167.634 282.619L167.606 282.612L167.634 282.619ZM167.564 282.598L167.543 282.591L167.564 282.598ZM167.494 282.577L167.48 282.57L167.494 282.577ZM166.833 282.05C166.868 282.128 166.917 282.198 166.974 282.261C166.917 282.198 166.868 282.128 166.833 282.05ZM168.569 282.816L168.647 282.83L168.569 282.816ZM178.916 283.16L178.966 283.118C179.001 283.083 179.043 283.041 179.078 282.999C179.043 283.041 179.001 283.083 178.966 283.118C178.951 283.125 178.93 283.139 178.916 283.16Z" stroke="#BDC1C4" stroke-width="0.84" stroke-miterlimit="10"/>
<path d="M182.965 276.472C182.916 276.008 182.501 275.334 181.257 275.123C180.16 274.941 174.72 274.273 172.161 274.407C171.627 274.435 171.128 274.674 170.776 275.067C169.883 276.072 168.147 278.271 167.747 280.512C167.747 280.512 167.739 280.554 167.732 280.631C167.718 281.017 167.943 281.369 168.302 281.516C168.618 281.643 169.089 281.769 169.799 281.853C171.76 282.099 177.531 282.577 178.712 282.542C178.783 282.542 178.832 282.535 178.867 282.528C179.373 282.451 179.675 282.373 179.949 282.12C180.048 282.022 180.139 281.917 180.217 281.804C180.582 281.291 183.021 276.943 182.965 276.472Z" fill="#BDD9FF" stroke="#BDD9FF" stroke-width="0.84" stroke-miterlimit="10"/>
<path d="M172.217 275.917C171.556 276.655 170.424 278.088 170.031 279.662C169.946 279.985 170.143 280.315 170.466 280.399C170.487 280.406 170.502 280.406 170.523 280.413C171.816 280.617 174.958 281.067 177.728 281.06C178.248 281.06 178.726 280.758 178.958 280.294C179.162 279.887 179.38 279.437 179.457 279.317C179.457 279.317 179.042 278.538 179.457 278.236C179.703 278.06 179.956 277.898 180.216 277.751L180.596 276.824C180.708 276.543 180.575 276.226 180.3 276.114C180.272 276.1 180.244 276.093 180.216 276.086C179.035 275.812 176.315 275.278 173.398 275.376C172.941 275.383 172.512 275.58 172.217 275.917Z" fill="#F5F5F5" stroke="#F5F5F5" stroke-width="0.84" stroke-miterlimit="10"/>
<path d="M170.01 276.922C170.362 276.922 170.65 277.21 170.65 277.561C170.65 277.912 170.362 278.2 170.01 278.2C169.659 278.2 169.371 277.912 169.371 277.561C169.371 277.21 169.659 276.922 170.01 276.922Z" fill="#F5F5F5" stroke="#F5F5F5" stroke-width="0.84" stroke-miterlimit="10"/>
<path d="M181.679 277.034C181.503 277.034 181.363 276.894 181.356 276.711C181.356 276.536 181.496 276.395 181.679 276.395C181.855 276.395 181.995 276.536 182.002 276.711C182.002 276.894 181.855 277.034 181.679 277.034Z" fill="#F5F5F5" stroke="#F5F5F5" stroke-width="0.84" stroke-miterlimit="10"/>
<path d="M179.837 279.725L180.793 277.554C180.877 277.364 181.102 277.273 181.292 277.357L181.482 277.442C181.672 277.526 181.763 277.751 181.679 277.941L180.723 280.111C180.638 280.301 180.414 280.392 180.224 280.308L180.034 280.224C179.837 280.139 179.753 279.915 179.837 279.725Z" fill="#F5F5F5" stroke="#F5F5F5" stroke-width="0.84" stroke-miterlimit="10"/>
<path d="M181.2 282.795C181.784 281.868 182.487 280.589 182.895 279.844C183.246 279.191 183.408 278.453 183.358 277.716C183.33 277.287 183.218 276.838 182.965 276.479C183.014 276.943 180.582 281.298 180.216 281.811C180.139 281.924 180.048 282.029 179.949 282.127C180.012 282.647 180.202 283.139 180.512 283.561C180.786 283.35 181.018 283.09 181.2 282.795Z" fill="#7CB1FF" stroke="#7CB1FF" stroke-width="0.84" stroke-miterlimit="10"/>
<path d="M179.949 282.128C179.935 282.142 179.921 282.156 179.907 282.17L179.893 282.177C179.865 282.205 179.83 282.226 179.795 282.247L179.781 282.254C179.745 282.275 179.717 282.296 179.682 282.31L179.668 282.317C179.633 282.331 179.598 282.352 179.563 282.366L179.549 282.373C179.513 282.387 179.471 282.402 179.436 282.416L179.422 282.423C179.38 282.437 179.338 282.444 179.296 282.458L179.281 282.465C179.239 282.479 179.19 282.486 179.141 282.493H179.127L178.972 282.521H178.951L178.867 282.535L178.839 282.542H178.832H178.796H178.789H178.747H178.698C178.916 282.886 179.12 283.406 179.028 284.13C179.563 284.081 180.076 283.884 180.498 283.554C180.188 283.132 179.998 282.64 179.935 282.121L179.949 282.128Z" fill="#007DFE" stroke="#007DFE" stroke-width="0.84" stroke-miterlimit="10"/>
<path d="M178.712 282.549C177.524 282.584 171.76 282.106 169.799 281.86C169.328 281.811 168.864 281.713 168.414 281.565C168.365 282.134 168.421 282.703 168.583 283.251C170.453 283.652 178.867 284.144 178.867 284.144C178.923 284.144 178.986 284.144 179.043 284.137C179.134 283.406 178.937 282.886 178.712 282.549Z" fill="#7CB1FF" stroke="#7CB1FF" stroke-width="0.84" stroke-miterlimit="10"/>
<path d="M168.414 281.566C168.372 281.551 168.337 281.537 168.295 281.523C167.936 281.383 167.704 281.025 167.725 280.638C167.683 281.109 167.578 282.802 168.266 283.153C168.365 283.195 168.47 283.23 168.576 283.245C168.421 282.704 168.365 282.135 168.414 281.566Z" fill="#007DFE" stroke="#007DFE" stroke-width="0.84" stroke-miterlimit="10"/>
<path opacity="0.32" d="M170.776 275.074C169.883 276.079 168.147 278.278 167.747 280.519C167.747 280.519 167.739 280.561 167.732 280.638C167.718 281.025 167.943 281.376 168.302 281.523C168.618 281.65 169.089 281.776 169.799 281.861C171.76 282.106 177.531 282.584 178.712 282.549C178.783 282.549 178.832 282.542 178.867 282.535C179.373 282.458 179.675 282.38 179.949 282.128C180.048 282.029 180.139 281.924 180.217 281.811C167.297 281.39 172.161 274.407 172.161 274.407C171.634 274.435 171.128 274.674 170.776 275.074Z" fill="#7CB1FF" stroke="#7CB1FF" stroke-width="0.84" stroke-miterlimit="10"/>
<path d="M145.584 236.696L143.145 235.284V233.043C143.145 232.65 142.828 232.334 142.435 232.334H108.589C108.202 232.341 107.886 232.65 107.886 233.043V241.6C107.886 241.993 108.202 242.309 108.596 242.309H142.435C142.828 242.309 143.145 241.993 143.145 241.6V239.232L145.584 237.827C145.9 237.645 146.006 237.244 145.83 236.935C145.767 236.837 145.682 236.752 145.584 236.696Z" fill="#E0E0E0" stroke="#E0E0E0" stroke-width="0.84" stroke-miterlimit="10"/>
<path d="M146.638 235.144L144.198 233.738V231.49C144.198 231.097 143.882 230.781 143.488 230.781H109.649C109.256 230.781 108.939 231.097 108.939 231.49V240.047C108.939 240.44 109.256 240.757 109.649 240.757H143.488C143.882 240.757 144.198 240.44 144.198 240.047V237.68L146.638 236.275C146.954 236.092 147.059 235.691 146.877 235.375C146.82 235.284 146.736 235.2 146.638 235.144Z" fill="white" stroke="white" stroke-width="0.84" stroke-miterlimit="10"/>
<path d="M114.591 261.86C114.591 261.86 65.4003 257.968 66.8202 286.258C68.2401 314.548 230.315 286.335 249.069 308.05C267.823 329.765 241.808 340.373 241.808 340.373" stroke="#7CB1FF" stroke-width="5.87" stroke-miterlimit="10"/>
<path d="M241.934 339.93L237.407 335.301L220.059 346.555L238.349 349.049L237.71 342.979L241.934 339.93Z" fill="#BDC1C4" stroke="#BDC1C4" stroke-width="0.84" stroke-miterlimit="10"/>
<path d="M238.399 328.016L220.059 346.555L237.253 335.378L238.399 328.016Z" fill="#BDC1C4" stroke="#BDC1C4" stroke-width="0.84" stroke-miterlimit="10"/>
<path d="M220.2 345.22L237.548 333.966L242.075 338.595L237.035 340.296L224.277 344.075L220.2 345.22Z" fill="#7CB1FF" stroke="#7CB1FF" stroke-width="0.84" stroke-miterlimit="10"/>
<path d="M220.2 345.22L237.471 337.97L242.075 338.595L236.353 342.719L225.289 344.412L220.2 345.22Z" fill="#0062D1" stroke="#0062D1" stroke-width="0.84" stroke-miterlimit="10"/>
<path d="M238.539 326.674L220.2 345.22L237.393 334.036L238.539 326.674Z" fill="#BDD9FF" stroke="#BDD9FF" stroke-width="0.84" stroke-miterlimit="10"/>
<path d="M220.2 345.22L238.49 347.707L237.471 337.97L220.2 345.22Z" fill="#BDD9FF" stroke="#BDD9FF" stroke-width="0.84" stroke-miterlimit="10"/>
<path d="M72.939 310.199L69.252 337.306L69.3077 337.313L72.9947 310.206L72.939 310.199Z" fill="#1B4C8F" stroke="#1B4C8F" stroke-width="4.2" stroke-miterlimit="10"/>
<path d="M81.7297 307.481L81.681 307.509L93.8634 328.693L93.9121 328.665L81.7297 307.481Z" fill="#1B4C8F" stroke="#1B4C8F" stroke-width="4.2145" stroke-miterlimit="10.0344"/>
<path d="M70.5259 306.903L60.997 318.087L61.0398 318.124L70.5687 306.939L70.5259 306.903Z" fill="#1B4C8F" stroke="#1B4C8F" stroke-width="4.2" stroke-miterlimit="10"/>
<path d="M77.4626 306.097H77.4063V314.626H77.4626V306.097Z" fill="#1B4C8F" stroke="#1B4C8F" stroke-width="4.2" stroke-miterlimit="10"/>
<path d="M68.0573 299.655C68.4861 299.472 68.957 299.388 69.421 299.402C70.4824 299.444 77.0688 298.194 77.8772 298.004C78.6856 297.814 84.5058 295.299 85.3494 299.205L76.1128 301.088L69.0695 301.046L68.0573 299.655Z" fill="#0062D1" stroke="#0062D1" stroke-width="0.84" stroke-miterlimit="10"/>
<path d="M23.2031 297.007C23.2031 297.007 20.8834 304.144 17.7484 303.547C17.7484 303.547 13.341 295.033 15.6888 289.834C15.6888 289.834 18.3669 289.089 18.1701 288.036C18.1701 288.036 16.2933 287.115 15.5482 287.277C15.5482 287.277 15.7028 280.224 22.5775 275.995C22.5775 275.995 23.8568 278.306 24.0607 277.414C24.2645 276.521 23.9552 275.13 23.9552 275.13C23.9552 275.13 27.1817 269.812 35.5817 275.868L28.8898 281.039L23.5827 287.748L22.7321 294.681L23.2031 297.007Z" fill="#7CB1FF" stroke="#7CB1FF" stroke-width="0.84" stroke-miterlimit="10"/>
<path d="M23.2026 297.007C23.2026 297.007 22.9565 282.423 39.6722 278.179C39.6722 278.179 41.7107 274.442 35.6655 272.32C35.6655 272.32 33.0295 271.576 32.7976 273.641C32.7976 273.641 32.7765 275.032 32.903 275.812C33.0295 276.592 32.3407 277.997 31.9119 276.5C31.4831 275.004 31.5745 273.999 31.1738 273.62C31.1738 273.62 26.0002 274.238 23.076 280.498C23.076 280.498 23.315 281.053 24.1094 281.699C24.9037 282.345 25.7683 283.504 25.2762 284.017C24.7842 284.53 23.0831 283.343 22.5489 281.741C22.5489 281.741 18.6968 288.907 23.2026 297.007Z" fill="#0062D1" stroke="#0062D1" stroke-width="0.84" stroke-miterlimit="10"/>
<path d="M72.9563 300.526C62.328 287.558 53.8507 282.177 48.6068 279.95C42.9271 277.54 39.7147 278.201 39.6866 278.208L39.6725 278.151C39.7077 278.144 42.9271 277.477 48.6209 279.894C51.9668 281.313 55.4955 283.497 59.1086 286.392C63.6284 290.01 68.3029 294.752 72.9985 300.484L72.9563 300.526Z" fill="#1B4C8F" stroke="#1B4C8F" stroke-width="4.2" stroke-miterlimit="10"/>
<path d="M105.692 271.526C105.692 271.526 110.908 274.667 112.51 272.636C112.51 272.636 110.683 265.077 106.479 263.138C106.479 263.138 104.448 264.101 103.998 263.356C103.998 263.356 104.659 261.797 105.2 261.502C105.2 261.502 101.355 257.265 94.8949 258.326C94.8949 258.326 95.3378 260.427 94.7403 259.984C94.1428 259.542 93.5945 258.53 93.5945 258.53C93.5945 258.53 88.7935 256.984 86.8675 265.155L93.714 264.768L100.532 266.054L104.736 269.847L105.692 271.526Z" fill="#7CB1FF" stroke="#7CB1FF" stroke-width="0.84" stroke-miterlimit="10"/>
<path d="M105.692 271.527C105.692 271.527 98.0859 262.464 85.5878 268.738C85.5878 268.738 82.3473 267.536 84.9271 263.019C84.9271 263.019 86.1502 261.164 87.3873 262.303C87.3873 262.303 88.1465 263.146 88.4769 263.686C88.8072 264.227 89.9882 264.726 89.4469 263.588C88.9056 262.45 88.3222 261.874 88.3644 261.431C88.3644 261.431 91.865 259.064 96.9823 261.34C96.9823 261.34 97.1299 261.804 96.9893 262.626C96.8488 263.448 96.9331 264.614 97.5025 264.663C98.0719 264.712 98.4866 263.082 97.9594 261.818C97.9735 261.832 104.145 264.171 105.692 271.527Z" fill="#0062D1" stroke="#0062D1" stroke-width="0.84" stroke-miterlimit="10"/>
<path d="M77.0266 300.119C76.8579 294.112 77.1953 288.724 78.0388 284.102C78.7136 280.406 79.7118 277.189 81.0052 274.54C83.2124 270.03 85.5391 268.731 85.5672 268.717L85.5953 268.766C85.5742 268.78 83.2545 270.079 81.0544 274.575C79.0229 278.727 76.6892 286.525 77.0828 300.112L77.0266 300.119Z" fill="#1B4C8F" stroke="#1B4C8F" stroke-width="4.2" stroke-miterlimit="10"/>
<path d="M82.3759 252.25C82.3759 252.25 84.1473 253.83 85.272 255.692C85.272 255.692 81.5957 258.193 82.6431 259.345C82.6431 259.345 83.4093 260.104 85.3283 259.05C85.3283 259.05 86.3264 260.834 84.2036 264.537C84.2036 264.537 80.8928 263.961 80.5413 266.026C80.5413 266.026 80.8717 267.066 82.7555 267.087C82.7555 267.087 82.144 270.606 79.6134 273.023C79.6134 273.023 72.0218 270.424 70.869 264.192C70.869 264.192 73.1043 263.125 72.8512 261.481C72.8512 261.481 71.825 260.104 69.3296 261.2L70.2996 254.863L73.0199 252.84L77.5468 251.61L80.471 251.526L82.3759 252.25Z" fill="#7CB1FF" stroke="#7CB1FF" stroke-width="0.84" stroke-miterlimit="10"/>
<path d="M58.7148 250.964C58.7148 250.964 54.6167 257.202 64.6897 260.834C64.6897 260.834 65.8636 256.451 68.4996 257.048L67.1851 252.004L63.6705 249.264L61.4773 249.657L60.5635 249.931L59.2139 250.543L58.7148 250.964Z" fill="#7CB1FF" stroke="#7CB1FF" stroke-width="0.84" stroke-miterlimit="10"/>
<path d="M69.3218 261.193C69.2164 261.459 63.7757 246.988 58.7146 250.964C58.7146 250.964 63.7616 244.796 73.0052 250.556C73.0052 250.556 74.3689 251.322 76.4987 250.83C78.6286 250.339 81.3138 251.217 82.3752 252.25C82.3752 252.25 73.912 249.875 69.3218 261.193Z" fill="#0062D1" stroke="#0062D1" stroke-width="0.84" stroke-miterlimit="10"/>
<path d="M76.0146 300.414C74.2361 297.33 72.7811 293.347 71.6775 288.583C70.7988 284.769 70.1451 280.448 69.7304 275.735C69.0274 267.712 69.2875 261.256 69.2875 261.193H69.3438C69.3438 261.256 69.0837 267.705 69.7866 275.728C70.4333 283.125 72.043 293.41 76.0638 300.386L76.0146 300.414Z" fill="#1B4C8F" stroke="#1B4C8F" stroke-width="4.2" stroke-miterlimit="10"/>
<path d="M57.6044 271.4C57.6044 271.4 55.2988 267.178 49.6472 271.203C49.6472 271.203 44.8462 274.835 42.639 273.093C42.639 273.093 41.6478 271.976 43.2013 271.295C44.7548 270.613 47.8266 268.948 47.3416 267.803C46.8566 266.658 43.9324 269.033 43.9324 269.033C43.9324 269.033 38.2527 273.17 35.5816 271.246C32.9104 269.321 34.7661 268.59 34.7661 268.59C34.7661 268.59 39.532 266.3 40.0522 265C40.5724 263.701 39.5953 262.527 38.9134 263.363C38.2316 264.199 34.3655 268.443 30.6329 268.33C26.9004 268.218 28.1937 266.532 28.1937 266.532C28.1937 266.532 30.5837 263.701 29.691 263.413C28.7983 263.125 25.8952 264.066 25.6773 265.07C25.6773 265.07 20.8833 258.214 28.981 250.676C28.981 250.676 33.9859 254.772 34.1546 252.931C34.3233 251.091 31.8841 248.927 30.8087 248.913C30.8087 248.913 35.8557 246.264 39.6375 248.266C39.6375 248.266 42.2383 251.238 42.168 252.362C42.168 252.362 43.4192 253.015 43.848 251.357C44.2768 249.7 41.6197 247.852 41.6197 247.852C41.6197 247.852 40.7411 246.756 42.5335 246.882C44.326 247.009 50.8562 249.194 51.6365 250.915C52.4167 252.636 53.9491 257.16 54.5044 256.268C55.0598 255.376 54.6099 253.079 54.7575 252.32C54.9051 251.561 55.2285 251.891 55.8119 252.685C56.3953 253.479 61.6954 261.811 57.6044 271.4Z" fill="#0062D1" stroke="#0062D1" stroke-width="0.84" stroke-miterlimit="10"/>
<path d="M73.8003 299.957C73.7933 299.929 72.8162 297.042 70.3489 292.103C68.0644 287.544 64.0014 280.259 57.5907 271.414C51.18 262.57 42.6886 258.881 36.6856 257.343C30.1835 255.671 25.1294 256.092 25.0802 256.099L25.0732 256.043C25.1224 256.036 30.1835 255.615 36.6996 257.294C40.5236 258.277 44.0944 259.781 47.3139 261.769C51.3346 264.249 54.8071 267.487 57.6399 271.393C64.0506 280.238 68.1206 287.53 70.4051 292.089C72.8795 297.028 73.8495 299.915 73.8636 299.95L73.8003 299.957Z" fill="#1B4C8F" stroke="#1B4C8F" stroke-width="4.2" stroke-miterlimit="10"/>
<path d="M67.9588 302.697C67.9588 302.697 66.4967 301.334 67.53 299.992C67.53 299.992 68.0572 299.473 68.6969 299.592C69.3366 299.711 78.6082 300.864 84.1122 298.58C84.2879 298.503 84.4847 298.489 84.6675 298.531C84.8994 298.587 85.1736 298.763 85.3493 299.206C85.6938 300.091 85.2017 300.723 84.8643 300.807C84.5269 300.892 79.8032 303.8 79.8032 303.8L69.2381 304.685L67.9588 302.697Z" fill="#BDD9FF" stroke="#BDD9FF" stroke-width="0.84" stroke-miterlimit="10"/>
<path d="M67.9586 302.697C67.9586 302.697 68.5068 311.317 76.8647 310.699C76.8647 310.699 86.7971 309.223 84.8711 300.807C84.864 300.807 72.2675 304.186 67.9586 302.697Z" fill="#7CB1FF" stroke="#7CB1FF" stroke-width="0.84" stroke-miterlimit="10"/>
<path opacity="0.31" d="M67.9586 302.697C67.9586 302.697 74.2076 304.214 84.8711 300.814C84.8711 300.814 82.0523 302.922 76.1828 304.243C74.7137 304.573 73.9616 306.231 74.7137 307.537C75.3956 308.725 76.6187 309.905 78.8188 310.207C78.8118 310.2 69.512 313.228 67.9586 302.697Z" fill="#0062D1" stroke="#0062D1" stroke-width="0.84" stroke-miterlimit="10"/>
<path d="M71.1216 299.852C71.1216 299.852 79.4091 300.358 84.1117 298.587C84.1117 298.587 83.3947 297.337 80.4424 298.292C79.7817 298.503 79.1069 298.679 78.425 298.819C76.6607 299.178 73.5467 299.754 71.1216 299.852Z" fill="#0038A5" stroke="#0038A5" stroke-miterlimit="10"/>
<path d="M97.6576 231.757C93.2221 227.753 91.8374 221.817 91.507 220.011L91.4156 219.47C92.6106 218.775 92.4981 217.728 92.2169 217.012C92.0693 216.646 91.8655 216.309 91.5984 216.014C91.0993 215.452 89.7567 213.801 90.0519 212.754C90.2066 212.199 90.1785 211.876 90.0941 211.687C90.0168 211.511 89.8129 211.441 89.6372 211.518C89.6231 211.525 89.6091 211.532 89.595 211.539C88.5687 212.199 87.4933 213.359 86.5584 214.518C83.8943 217.609 80.5764 222.871 81.5254 229.256C81.6871 230.605 81.9823 231.933 82.4111 233.226C83.4373 236.464 84.9416 238.768 85.7711 239.878C86.6989 241.213 87.4019 241.972 87.4019 241.972C87.7674 242.4 88.0134 243.574 89.834 239.654C91.6546 235.734 96.9969 234.321 98.2059 233.928C99.415 233.535 97.6576 231.757 97.6576 231.757Z" fill="#E0E0E0" stroke="#E0E0E0" stroke-width="0.84" stroke-miterlimit="10"/>
<path d="M91.8371 217.988C91.8371 217.988 92.793 225.498 98.0791 230.275C98.0791 230.275 99.8364 232.059 98.6274 232.453C97.4183 232.846 92.076 234.258 90.2555 238.178C88.4349 242.098 88.1959 240.925 87.8233 240.497C87.8233 240.497 82.7974 235.087 81.9468 227.781C83.1277 225.322 86.1082 220.278 91.8371 217.988Z" fill="#C8DCFC" stroke="#C8DCFC" stroke-width="0.84" stroke-miterlimit="10"/>
<path d="M84.421 216.681C84.421 216.681 87.4015 211.764 90.0234 210.071C90.1851 209.965 90.3959 210.015 90.4943 210.169C90.5014 210.183 90.5154 210.197 90.5225 210.211C90.6068 210.401 90.6349 210.724 90.4803 211.279C90.1851 212.326 91.5277 213.97 92.0267 214.539C92.2868 214.834 92.4977 215.171 92.6453 215.536C92.9265 216.253 93.039 217.3 91.844 217.995C86.1151 220.278 83.1347 225.329 81.9537 227.788C81.5531 224.374 82.0592 220.559 84.421 216.681Z" fill="#7CB1FF" stroke="#7CB1FF" stroke-width="0.84" stroke-miterlimit="10"/>
<path opacity="0.3" d="M81.9468 227.781C81.9468 227.781 85.0467 220.559 91.8371 217.988L91.9284 218.536C91.9284 218.536 78.9805 224.718 86.797 239.162C86.797 239.162 82.8817 234.862 81.9468 227.781Z" fill="#7CB1FF" stroke="#7CB1FF" stroke-width="0.84" stroke-miterlimit="10"/>
<path opacity="0.27" d="M89.9603 210.113C89.1519 210.759 80.4918 217.939 81.9468 227.781C81.9468 227.781 83.7042 223.995 86.9377 221.044C86.9377 221.044 83.8869 217.539 90.5156 210.211C90.4453 210.071 90.2906 210.001 90.136 210.029C90.0727 210.043 90.0095 210.071 89.9603 210.113Z" fill="#0062D1" stroke="#0062D1" stroke-width="0.84" stroke-miterlimit="10"/>
<path d="M267.211 283.083C267.211 283.083 260.217 285.991 253.441 283.778C253.441 283.778 251.016 283.139 251.276 284.383C251.536 285.626 252.97 290.965 250.468 294.485C247.965 298.004 249.111 297.639 249.666 297.744C249.666 297.744 256.864 299.416 263.626 296.522C265.173 294.281 268.076 289.188 267.211 283.083Z" fill="#C8DCFC" stroke="#C8DCFC" stroke-width="0.84" stroke-miterlimit="10"/>
<path d="M272.04 288.864C272.04 288.864 274.831 283.842 275 280.722C275.007 280.533 274.866 280.371 274.676 280.364C274.662 280.364 274.641 280.364 274.627 280.364C274.423 280.385 274.128 280.519 273.72 280.926C272.954 281.699 270.859 281.355 270.121 281.2C269.735 281.116 269.341 281.109 268.947 281.158C268.188 281.27 267.225 281.692 267.211 283.076C268.076 289.181 265.173 294.274 263.626 296.522C266.782 295.18 269.84 292.834 272.04 288.864Z" fill="#7CB1FF" stroke="#7CB1FF" stroke-width="0.84" stroke-miterlimit="10"/>
<path opacity="0.3" d="M267.212 283.083C267.212 283.083 268.259 290.115 263.627 296.529C263.627 296.529 257.891 299.213 249.667 297.751C249.667 297.751 264.519 297.442 266.516 283.343L267.212 283.083Z" fill="#7CB1FF" stroke="#7CB1FF" stroke-width="0.84" stroke-miterlimit="10"/>
<path opacity="0.27" d="M267.211 283.083C267.211 283.083 268.715 288.886 263.626 296.529C263.626 296.529 265.707 295.602 266.789 294.78C266.782 294.78 269.763 286.434 267.211 283.083Z" fill="#0062D1" stroke="#0062D1" stroke-width="0.84" stroke-miterlimit="10"/>
<path d="M235.071 218.359C240.322 213.11 240.322 204.601 235.071 199.353C229.819 194.105 221.305 194.105 216.054 199.353C210.803 204.601 210.803 213.11 216.054 218.359C221.305 223.607 229.819 223.607 235.071 218.359Z" fill="#E0E0E0" stroke="#E0E0E0" stroke-width="0.84" stroke-miterlimit="10"/>
<path d="M234.153 217.508C239.404 212.26 239.404 203.751 234.153 198.503C228.902 193.255 220.388 193.255 215.136 198.503C209.885 203.751 209.885 212.26 215.136 217.508C220.388 222.757 228.902 222.757 234.153 217.508Z" fill="#C1D9FF" stroke="#C1D9FF" stroke-width="0.84" stroke-miterlimit="10"/>
<path d="M215.764 207.97L213.943 203.84C211.637 209.748 214.569 216.4 220.48 218.705L217.971 213C216.839 211.525 216.08 209.804 215.764 207.97Z" fill="#6092E7" stroke="#6092E7" stroke-miterlimit="10"/>
<path d="M218.632 198.234C217.374 199.013 216.277 200.025 215.398 201.212L216.073 202.744C216.565 201.065 217.444 199.526 218.632 198.234Z" fill="#6092E7" stroke="#6092E7" stroke-miterlimit="10"/>
<path d="M227.075 217.475C225.331 217.475 223.609 217.082 222.042 216.316L223.405 219.414C223.82 219.456 224.235 219.477 224.65 219.484C226.365 219.484 228.059 219.105 229.605 218.36L229.134 217.293C228.452 217.412 227.764 217.475 227.075 217.475Z" fill="#6092E7" stroke="#6092E7" stroke-miterlimit="10"/>
<path d="M227.834 196.983C227.271 196.822 226.695 196.702 226.118 196.632L234.033 214.623C234.371 214.146 234.673 213.64 234.933 213.12L227.834 196.983Z" fill="#7CB1FF" stroke="#7CB1FF" stroke-width="0.84" stroke-miterlimit="10"/>
<path d="M217.978 213L215.764 207.97C216.08 209.804 216.839 211.525 217.978 213Z" fill="#7CB1FF" stroke="#7CB1FF" stroke-width="0.84" stroke-miterlimit="10"/>
<path d="M222.041 216.316C224.241 217.384 226.722 217.728 229.133 217.293L220.361 197.362C219.763 197.601 219.18 197.896 218.632 198.233C217.444 199.519 216.565 201.065 216.066 202.744L222.041 216.316Z" fill="#7CB1FF" stroke="#7CB1FF" stroke-width="0.84" stroke-miterlimit="10"/>
<path d="M236.128 208.005C236.128 204.212 234.251 200.664 231.116 198.521L236.009 209.649C236.086 209.108 236.128 208.56 236.128 208.005Z" fill="#7CB1FF" stroke="#7CB1FF" stroke-width="0.84" stroke-miterlimit="10"/>
<path d="M233.092 215.775C231.876 216.527 230.533 217.04 229.127 217.293L229.598 218.36C230.92 217.728 232.108 216.85 233.092 215.775Z" fill="#6092E7" stroke="#6092E7" stroke-miterlimit="10"/>
<path d="M217.978 213L220.487 218.705C221.422 219.07 222.406 219.309 223.404 219.414L222.041 216.316C220.452 215.536 219.06 214.405 217.978 213Z" fill="#6092E7" stroke="#6092E7" stroke-miterlimit="10"/>
<path d="M215.595 206.003C215.595 204.9 215.75 203.797 216.066 202.744L215.391 201.212C214.794 202.02 214.309 202.905 213.943 203.839L215.764 207.97C215.651 207.324 215.595 206.664 215.595 206.003Z" fill="#6092E7" stroke="#6092E7" stroke-miterlimit="10"/>
<path opacity="0.75" d="M231.798 208.153H226.027C225.837 207.408 225.24 206.832 224.481 206.678V199.273H223.504V206.727C222.442 207.05 221.845 208.167 222.168 209.228C222.491 210.289 223.609 210.886 224.67 210.563C225.373 210.352 225.901 209.769 226.055 209.052H231.812L231.798 208.153Z" fill="#6092E7" stroke="#6092E7" stroke-miterlimit="10"/>
<path d="M225.043 198.641H224.066V208.42H225.043V198.641Z" fill="#F5F5F5" stroke="#F5F5F5" stroke-width="0.84" stroke-miterlimit="10"/>
<path d="M232.361 207.521H224.066V208.42H232.361V207.521Z" fill="#F5F5F5" stroke="#F5F5F5" stroke-width="0.84" stroke-miterlimit="10"/>
<path d="M224.649 210.008C225.756 210.008 226.653 209.111 226.653 208.005C226.653 206.9 225.756 206.003 224.649 206.003C223.543 206.003 222.646 206.9 222.646 208.005C222.646 209.111 223.543 210.008 224.649 210.008Z" fill="#0062D1" stroke="#0062D1" stroke-width="0.84" stroke-miterlimit="10"/>
<path opacity="0.28" d="M226.118 196.625C225.633 196.562 225.141 196.533 224.649 196.533C223.179 196.533 221.724 196.814 220.361 197.362L229.133 217.293L229.604 218.36C231.376 217.51 232.901 216.225 234.033 214.616L226.118 196.625Z" fill="#EFFFFF" stroke="#6092E7" stroke-width="1.33" stroke-miterlimit="10"/>
<path opacity="0.28" d="M236.008 209.656L231.116 198.529C230.111 197.84 229 197.32 227.833 196.983L234.933 213.113C235.474 212.024 235.84 210.858 236.008 209.656Z" fill="#EFFFFF" stroke="#6092E7" stroke-width="0.87" stroke-miterlimit="10"/>
<path opacity="0.28" d="M222.041 216.316L216.066 202.744L215.391 201.212C214.794 202.02 214.309 202.905 213.943 203.839L215.764 207.97L217.978 213L220.488 218.705C221.422 219.07 222.407 219.309 223.405 219.414L222.041 216.316Z" fill="#EFFFFF" stroke="#6092E7" stroke-width="0.87" stroke-miterlimit="10"/>
<path d="M130.688 234.645H112.123C111.814 234.645 111.561 234.392 111.561 234.083C111.561 233.774 111.814 233.521 112.123 233.521H130.688C130.997 233.521 131.25 233.774 131.25 234.083C131.25 234.392 130.997 234.645 130.688 234.645Z" fill="#E0E0E0" stroke="#E0E0E0" stroke-width="0.84" stroke-miterlimit="10"/>
<path d="M123.721 237.511H112.123C111.814 237.511 111.561 237.258 111.561 236.949C111.561 236.64 111.814 236.387 112.123 236.387H123.721C124.031 236.387 124.284 236.64 124.284 236.949C124.284 237.258 124.031 237.511 123.721 237.511Z" fill="#E0E0E0" stroke="#E0E0E0" stroke-width="0.84" stroke-miterlimit="10"/>
</g>
<path d="M92.04 71H89.7V59.72H82.76V71H80.42V57.66H92.04V71ZM99.1731 71.24C97.6798 71.24 96.4798 70.7533 95.5731 69.78C94.6665 68.7933 94.2131 67.5867 94.2131 66.16C94.2131 64.7333 94.6665 63.5333 95.5731 62.56C96.4798 61.5867 97.6798 61.1 99.1731 61.1C100.68 61.1 101.886 61.5867 102.793 62.56C103.7 63.5333 104.153 64.7333 104.153 66.16C104.153 67.6 103.7 68.8067 102.793 69.78C101.886 70.7533 100.68 71.24 99.1731 71.24ZM99.1731 69.38C100.04 69.38 100.72 69.0733 101.213 68.46C101.72 67.8333 101.973 67.0667 101.973 66.16C101.973 65.2667 101.72 64.5133 101.213 63.9C100.72 63.2733 100.04 62.96 99.1731 62.96C98.3198 62.96 97.6398 63.2733 97.1331 63.9C96.6398 64.5133 96.3931 65.2667 96.3931 66.16C96.3931 67.0667 96.6398 67.8333 97.1331 68.46C97.6398 69.0733 98.3198 69.38 99.1731 69.38ZM105.278 71.24V69.52C105.691 69.52 106.018 69.2533 106.258 68.72C106.511 68.1867 106.718 67.2933 106.878 66.04L107.458 61.34H114.918V71H112.818V63.18H109.318L108.978 66.28C108.791 68.0133 108.398 69.2733 107.798 70.06C107.198 70.8467 106.358 71.24 105.278 71.24ZM117.225 74.78L117.545 72.9C117.785 73.0067 118.052 73.06 118.345 73.06C119.025 73.06 119.485 72.78 119.725 72.22L120.205 71.12L116.245 61.34H118.485L121.305 68.58L124.125 61.34H126.385L121.725 72.74C121.152 74.1667 120.045 74.8933 118.405 74.92C117.965 74.92 117.572 74.8733 117.225 74.78ZM127.364 61.34H129.464V63.94C129.464 64.66 129.644 65.1667 130.004 65.46C130.377 65.7533 130.964 65.9 131.764 65.9C132.63 65.9 133.337 65.78 133.884 65.54V61.34H135.984V71H133.884V67.24C133.19 67.5867 132.264 67.76 131.104 67.76C129.784 67.76 128.83 67.5067 128.244 67C127.657 66.4933 127.364 65.7267 127.364 64.7V61.34ZM140.72 71H138.7V61.34H140.8V67.84L145.24 61.34H147.34V71H145.24V64.32L140.72 71ZM153.927 71H151.827V63.18H149.067V61.34H156.707V63.18H153.927V71ZM162.886 71.24C161.42 71.24 160.206 70.7733 159.246 69.84C158.3 68.8933 157.826 67.6667 157.826 66.16C157.826 64.7467 158.286 63.5533 159.206 62.58C160.14 61.5933 161.313 61.1 162.726 61.1C164.153 61.1 165.3 61.5933 166.166 62.58C167.046 63.5667 167.486 64.8267 167.486 66.36V66.86H160.026C160.106 67.62 160.42 68.2533 160.966 68.76C161.513 69.2667 162.226 69.52 163.106 69.52C163.6 69.52 164.093 69.4267 164.586 69.24C165.093 69.0533 165.513 68.7933 165.846 68.46L166.806 69.84C165.833 70.7733 164.526 71.24 162.886 71.24ZM165.446 65.38C165.42 64.7133 165.173 64.12 164.706 63.6C164.253 63.08 163.593 62.82 162.726 62.82C161.9 62.82 161.253 63.08 160.786 63.6C160.32 64.1067 160.06 64.7 160.006 65.38H165.446ZM183.336 71H181.236V63.18H176.796V71H174.696V61.34H183.336V71ZM190.523 71.24C189.056 71.24 187.843 70.7733 186.883 69.84C185.936 68.8933 185.463 67.6667 185.463 66.16C185.463 64.7467 185.923 63.5533 186.843 62.58C187.776 61.5933 188.95 61.1 190.363 61.1C191.79 61.1 192.936 61.5933 193.803 62.58C194.683 63.5667 195.123 64.8267 195.123 66.36V66.86H187.663C187.743 67.62 188.056 68.2533 188.603 68.76C189.15 69.2667 189.863 69.52 190.743 69.52C191.236 69.52 191.73 69.4267 192.223 69.24C192.73 69.0533 193.15 68.7933 193.483 68.46L194.443 69.84C193.47 70.7733 192.163 71.24 190.523 71.24ZM193.083 65.38C193.056 64.7133 192.81 64.12 192.343 63.6C191.89 63.08 191.23 62.82 190.363 62.82C189.536 62.82 188.89 63.08 188.423 63.6C187.956 64.1067 187.696 64.7 187.643 65.38H193.083ZM202.396 71.24C201.116 71.24 200.083 70.7133 199.296 69.66V74.68H197.196V61.34H199.296V62.66C200.069 61.62 201.103 61.1 202.396 61.1C203.663 61.1 204.689 61.5533 205.476 62.46C206.276 63.3667 206.676 64.6 206.676 66.16C206.676 67.72 206.276 68.96 205.476 69.88C204.689 70.7867 203.663 71.24 202.396 71.24ZM201.776 69.38C202.603 69.38 203.263 69.08 203.756 68.48C204.249 67.88 204.496 67.1067 204.496 66.16C204.496 65.2133 204.249 64.4467 203.756 63.86C203.263 63.26 202.603 62.96 201.776 62.96C201.296 62.96 200.823 63.0867 200.356 63.34C199.889 63.5933 199.536 63.9 199.296 64.26V68.08C199.536 68.44 199.889 68.7467 200.356 69C200.823 69.2533 201.296 69.38 201.776 69.38ZM213.218 71.24C211.752 71.24 210.538 70.7733 209.578 69.84C208.632 68.8933 208.158 67.6667 208.158 66.16C208.158 64.7467 208.618 63.5533 209.538 62.58C210.472 61.5933 211.645 61.1 213.058 61.1C214.485 61.1 215.632 61.5933 216.498 62.58C217.378 63.5667 217.818 64.8267 217.818 66.36V66.86H210.358C210.438 67.62 210.752 68.2533 211.298 68.76C211.845 69.2667 212.558 69.52 213.438 69.52C213.932 69.52 214.425 69.4267 214.918 69.24C215.425 69.0533 215.845 68.7933 216.178 68.46L217.138 69.84C216.165 70.7733 214.858 71.24 213.218 71.24ZM215.778 65.38C215.752 64.7133 215.505 64.12 215.038 63.6C214.585 63.08 213.925 62.82 213.058 62.82C212.232 62.82 211.585 63.08 211.118 63.6C210.652 64.1067 210.392 64.7 210.338 65.38H215.778ZM223.371 71.24C221.478 71.24 219.998 70.72 218.931 69.68L219.911 68.34C220.791 69.1267 221.945 69.52 223.371 69.52C224.105 69.52 224.678 69.4067 225.091 69.18C225.518 68.94 225.731 68.62 225.731 68.22C225.731 67.38 224.885 66.96 223.191 66.96H221.131V65.28H223.191C223.925 65.28 224.498 65.1733 224.911 64.96C225.338 64.7467 225.551 64.4333 225.551 64.02C225.551 63.6733 225.331 63.3867 224.891 63.16C224.451 62.9333 223.898 62.82 223.231 62.82C221.938 62.82 220.905 63.2067 220.131 63.98L219.091 62.7C220.118 61.6467 221.465 61.12 223.131 61.12C224.558 61.1067 225.678 61.34 226.491 61.82C227.318 62.2867 227.731 62.9267 227.731 63.74C227.731 64.3533 227.471 64.8733 226.951 65.3C226.445 65.7133 225.851 65.9667 225.171 66.06C225.851 66.1133 226.478 66.34 227.051 66.74C227.638 67.14 227.931 67.6867 227.931 68.38C227.931 69.22 227.518 69.9067 226.691 70.44C225.878 70.9733 224.771 71.24 223.371 71.24ZM238.048 71H235.948V69.96C235.201 70.8133 234.161 71.24 232.828 71.24C231.948 71.24 231.168 70.96 230.488 70.4C229.808 69.8267 229.468 69.04 229.468 68.04C229.468 67.0133 229.801 66.2333 230.468 65.7C231.148 65.1667 231.934 64.9 232.828 64.9C234.201 64.9 235.241 65.3133 235.948 66.14V64.7C235.948 64.14 235.741 63.7 235.328 63.38C234.914 63.06 234.368 62.9 233.688 62.9C232.608 62.9 231.654 63.3067 230.828 64.12L229.968 62.66C231.061 61.62 232.414 61.1 234.028 61.1C235.214 61.1 236.181 61.38 236.928 61.94C237.674 62.5 238.048 63.3867 238.048 64.6V71ZM233.648 69.8C234.701 69.8 235.468 69.4667 235.948 68.8V67.34C235.468 66.6733 234.701 66.34 233.648 66.34C233.048 66.34 232.554 66.5 232.168 66.82C231.781 67.14 231.588 67.56 231.588 68.08C231.588 68.6 231.781 69.02 232.168 69.34C232.554 69.6467 233.048 69.8 233.648 69.8ZM240.43 61.34H242.53V63.94C242.53 64.66 242.71 65.1667 243.07 65.46C243.443 65.7533 244.03 65.9 244.83 65.9C245.697 65.9 246.403 65.78 246.95 65.54V61.34H249.05V71H246.95V67.24C246.257 67.5867 245.33 67.76 244.17 67.76C242.85 67.76 241.897 67.5067 241.31 67C240.723 66.4933 240.43 65.7267 240.43 64.7V61.34ZM256.226 71.24C254.76 71.24 253.546 70.7733 252.586 69.84C251.64 68.8933 251.166 67.6667 251.166 66.16C251.166 64.7467 251.626 63.5533 252.546 62.58C253.48 61.5933 254.653 61.1 256.066 61.1C257.493 61.1 258.64 61.5933 259.506 62.58C260.386 63.5667 260.826 64.8267 260.826 66.36V66.86H253.366C253.446 67.62 253.76 68.2533 254.306 68.76C254.853 69.2667 255.566 69.52 256.446 69.52C256.94 69.52 257.433 69.4267 257.926 69.24C258.433 69.0533 258.853 68.7933 259.186 68.46L260.146 69.84C259.173 70.7733 257.866 71.24 256.226 71.24ZM258.786 65.38C258.76 64.7133 258.513 64.12 258.046 63.6C257.593 63.08 256.933 62.82 256.066 62.82C255.24 62.82 254.593 63.08 254.126 63.6C253.66 64.1067 253.4 64.7 253.346 65.38H258.786ZM266.759 71H264.659V63.18H261.899V61.34H269.539V63.18H266.759V71Z" fill="#3B4256"/>
<path d="M23.876 117H22.714V108.698H17.254V117H16.092V107.662H23.876V117ZM31.3928 116.146C30.7861 116.827 29.9788 117.168 28.9708 117.168C27.9628 117.168 27.1508 116.827 26.5348 116.146C25.9281 115.465 25.6248 114.62 25.6248 113.612C25.6248 112.604 25.9281 111.764 26.5348 111.092C27.1508 110.411 27.9628 110.07 28.9708 110.07C29.9788 110.07 30.7861 110.411 31.3928 111.092C32.0088 111.764 32.3168 112.604 32.3168 113.612C32.3168 114.62 32.0088 115.465 31.3928 116.146ZM27.3188 115.474C27.7295 115.978 28.2801 116.23 28.9708 116.23C29.6615 116.23 30.2075 115.978 30.6088 115.474C31.0101 114.961 31.2108 114.34 31.2108 113.612C31.2108 112.884 31.0101 112.268 30.6088 111.764C30.2075 111.26 29.6615 111.008 28.9708 111.008C28.2801 111.008 27.7295 111.265 27.3188 111.778C26.9175 112.282 26.7168 112.893 26.7168 113.612C26.7168 114.34 26.9175 114.961 27.3188 115.474ZM33.2305 117.168V116.3C33.5478 116.3 33.8092 116.09 34.0145 115.67C34.2198 115.25 34.3878 114.55 34.5185 113.57L34.9525 110.238H39.6565V117H38.6065V111.162H35.8765L35.5685 113.696C35.4192 114.937 35.1578 115.829 34.7845 116.37C34.4112 116.902 33.8932 117.168 33.2305 117.168ZM41.3751 119.646L41.5431 118.694C41.7111 118.769 41.9025 118.806 42.1171 118.806C42.3598 118.806 42.5605 118.755 42.7191 118.652C42.8778 118.549 43.0131 118.363 43.1251 118.092L43.5731 117.07L40.7451 110.238H41.8791L44.1331 115.782L46.3731 110.238H47.5211L44.1331 118.372C43.7598 119.268 43.0971 119.725 42.1451 119.744C41.8651 119.744 41.6085 119.711 41.3751 119.646ZM48.4764 110.238H49.5264V112.142C49.5264 112.749 49.6664 113.169 49.9464 113.402C50.2264 113.635 50.6604 113.752 51.2484 113.752C51.9764 113.752 52.5737 113.631 53.0404 113.388V110.238H54.0904V117H53.0404V114.242C52.4431 114.541 51.7571 114.69 50.9824 114.69C50.1051 114.69 49.4657 114.513 49.0644 114.158C48.6724 113.803 48.4764 113.239 48.4764 112.464V110.238ZM57.1986 117H56.1906V110.238H57.2406V115.404L60.7826 110.238H61.8186V117H60.7686V111.736L57.1986 117ZM66.1972 117H65.1472V111.162H63.1872V110.238H68.1712V111.162H66.1972V117ZM72.6 117.168C71.592 117.168 70.766 116.841 70.122 116.188C69.478 115.525 69.156 114.667 69.156 113.612C69.156 112.623 69.4734 111.787 70.108 111.106C70.7427 110.415 71.536 110.07 72.488 110.07C73.4867 110.07 74.2754 110.415 74.854 111.106C75.442 111.787 75.736 112.651 75.736 113.696V113.962H70.262C70.3087 114.625 70.5514 115.18 70.99 115.628C71.4287 116.076 71.998 116.3 72.698 116.3C73.538 116.3 74.2334 116.015 74.784 115.446L75.288 116.132C74.5974 116.823 73.7014 117.168 72.6 117.168ZM74.7 113.192C74.6907 112.613 74.4947 112.095 74.112 111.638C73.7294 111.171 73.1834 110.938 72.474 110.938C71.802 110.938 71.27 111.167 70.878 111.624C70.4954 112.081 70.29 112.604 70.262 113.192H74.7ZM86.6741 117H85.6241V111.162H82.0961V117H81.0461V110.238H86.6741V117ZM91.8227 117.168C90.8147 117.168 89.9887 116.841 89.3447 116.188C88.7007 115.525 88.3787 114.667 88.3787 113.612C88.3787 112.623 88.696 111.787 89.3307 111.106C89.9654 110.415 90.7587 110.07 91.7107 110.07C92.7094 110.07 93.498 110.415 94.0767 111.106C94.6647 111.787 94.9587 112.651 94.9587 113.696V113.962H89.4847C89.5314 114.625 89.774 115.18 90.2127 115.628C90.6514 116.076 91.2207 116.3 91.9207 116.3C92.7607 116.3 93.456 116.015 94.0067 115.446L94.5107 116.132C93.82 116.823 92.924 117.168 91.8227 117.168ZM93.9227 113.192C93.9134 112.613 93.7174 112.095 93.3347 111.638C92.952 111.171 92.406 110.938 91.6967 110.938C91.0247 110.938 90.4927 111.167 90.1007 111.624C89.718 112.081 89.5127 112.604 89.4847 113.192H93.9227ZM99.9914 117.168C99.0394 117.168 98.2787 116.771 97.7094 115.978V119.576H96.6594V110.238H97.7094V111.246C97.9614 110.891 98.288 110.607 98.6894 110.392C99.0907 110.177 99.5247 110.07 99.9914 110.07C100.887 110.07 101.611 110.392 102.161 111.036C102.721 111.671 103.001 112.529 103.001 113.612C103.001 114.695 102.721 115.558 102.161 116.202C101.611 116.846 100.887 117.168 99.9914 117.168ZM99.7254 116.23C100.388 116.23 100.915 115.987 101.307 115.502C101.699 115.007 101.895 114.377 101.895 113.612C101.895 112.847 101.699 112.221 101.307 111.736C100.915 111.251 100.388 111.008 99.7254 111.008C99.324 111.008 98.932 111.115 98.5494 111.33C98.176 111.535 97.896 111.787 97.7094 112.086V115.138C97.896 115.446 98.176 115.707 98.5494 115.922C98.932 116.127 99.324 116.23 99.7254 116.23ZM107.723 117.168C106.715 117.168 105.889 116.841 105.245 116.188C104.601 115.525 104.279 114.667 104.279 113.612C104.279 112.623 104.596 111.787 105.231 111.106C105.866 110.415 106.659 110.07 107.611 110.07C108.61 110.07 109.398 110.415 109.977 111.106C110.565 111.787 110.859 112.651 110.859 113.696V113.962H105.385C105.432 114.625 105.674 115.18 106.113 115.628C106.552 116.076 107.121 116.3 107.821 116.3C108.661 116.3 109.356 116.015 109.907 115.446L110.411 116.132C109.72 116.823 108.824 117.168 107.723 117.168ZM109.823 113.192C109.814 112.613 109.618 112.095 109.235 111.638C108.852 111.171 108.306 110.938 107.597 110.938C106.925 110.938 106.393 111.167 106.001 111.624C105.618 112.081 105.413 112.604 105.385 113.192H109.823ZM114.954 117.168C113.656 117.168 112.639 116.799 111.902 116.062L112.42 115.39C113.054 115.997 113.899 116.3 114.954 116.3C115.56 116.3 116.041 116.193 116.396 115.978C116.76 115.763 116.942 115.479 116.942 115.124C116.942 114.377 116.232 114.004 114.814 114.004H113.302V113.15H114.814C115.402 113.15 115.882 113.057 116.256 112.87C116.629 112.674 116.816 112.389 116.816 112.016C116.816 111.699 116.629 111.442 116.256 111.246C115.882 111.041 115.411 110.938 114.842 110.938C113.899 110.938 113.143 111.227 112.574 111.806L112.028 111.162C112.728 110.443 113.652 110.084 114.8 110.084C115.724 110.075 116.47 110.233 117.04 110.56C117.618 110.877 117.908 111.321 117.908 111.89C117.908 112.357 117.716 112.735 117.334 113.024C116.96 113.313 116.545 113.486 116.088 113.542C116.564 113.579 117.007 113.738 117.418 114.018C117.838 114.298 118.048 114.69 118.048 115.194C118.048 115.773 117.768 116.249 117.208 116.622C116.657 116.986 115.906 117.168 114.954 117.168ZM125.029 117H123.979V116.23C123.41 116.855 122.663 117.168 121.739 117.168C121.114 117.168 120.563 116.967 120.087 116.566C119.611 116.165 119.373 115.619 119.373 114.928C119.373 114.219 119.607 113.673 120.073 113.29C120.549 112.898 121.105 112.702 121.739 112.702C122.701 112.702 123.447 113.01 123.979 113.626V112.408C123.979 111.96 123.821 111.61 123.503 111.358C123.186 111.106 122.775 110.98 122.271 110.98C121.478 110.98 120.787 111.293 120.199 111.918L119.709 111.19C120.428 110.443 121.329 110.07 122.411 110.07C123.186 110.07 123.816 110.257 124.301 110.63C124.787 111.003 125.029 111.577 125.029 112.352V117ZM122.117 116.412C122.957 116.412 123.578 116.132 123.979 115.572V114.298C123.578 113.738 122.957 113.458 122.117 113.458C121.632 113.458 121.231 113.598 120.913 113.878C120.605 114.149 120.451 114.503 120.451 114.942C120.451 115.371 120.605 115.726 120.913 116.006C121.231 116.277 121.632 116.412 122.117 116.412ZM126.994 110.238H128.044V112.142C128.044 112.749 128.184 113.169 128.464 113.402C128.744 113.635 129.178 113.752 129.766 113.752C130.494 113.752 131.091 113.631 131.558 113.388V110.238H132.608V117H131.558V114.242C130.961 114.541 130.275 114.69 129.5 114.69C128.623 114.69 127.983 114.513 127.582 114.158C127.19 113.803 126.994 113.239 126.994 112.464V110.238ZM137.76 117.168C136.752 117.168 135.926 116.841 135.282 116.188C134.638 115.525 134.316 114.667 134.316 113.612C134.316 112.623 134.634 111.787 135.268 111.106C135.903 110.415 136.696 110.07 137.648 110.07C138.647 110.07 139.436 110.415 140.014 111.106C140.602 111.787 140.896 112.651 140.896 113.696V113.962H135.422C135.469 114.625 135.712 115.18 136.15 115.628C136.589 116.076 137.158 116.3 137.858 116.3C138.698 116.3 139.394 116.015 139.944 115.446L140.448 116.132C139.758 116.823 138.862 117.168 137.76 117.168ZM139.86 113.192C139.851 112.613 139.655 112.095 139.272 111.638C138.89 111.171 138.344 110.938 137.634 110.938C136.962 110.938 136.43 111.167 136.038 111.624C135.656 112.081 135.45 112.604 135.422 113.192H139.86ZM144.879 117H143.829V111.162H141.869V110.238H146.853V111.162H144.879V117ZM148.81 116.664C148.81 117.075 148.702 117.467 148.488 117.84C148.273 118.223 147.998 118.535 147.662 118.778L147.144 118.344C147.377 118.195 147.578 117.994 147.746 117.742C147.923 117.499 148.026 117.266 148.054 117.042C148.016 117.061 147.951 117.07 147.858 117.07C147.662 117.07 147.498 117.005 147.368 116.874C147.246 116.734 147.186 116.561 147.186 116.356C147.186 116.151 147.256 115.973 147.396 115.824C147.545 115.675 147.722 115.6 147.928 115.6C148.17 115.6 148.376 115.698 148.544 115.894C148.721 116.081 148.81 116.337 148.81 116.664ZM153.434 118.722V116.132C153.779 116.067 154.05 115.861 154.246 115.516C154.442 115.161 154.6 114.513 154.722 113.57L155.156 110.238H159.86V116.076H160.644V118.722H159.594V117H154.484V118.722H153.434ZM156.08 111.162L155.772 113.696C155.613 114.881 155.286 115.675 154.792 116.076H158.81V111.162H156.08ZM167.357 117H166.307V116.23C165.738 116.855 164.991 117.168 164.067 117.168C163.442 117.168 162.891 116.967 162.415 116.566C161.939 116.165 161.701 115.619 161.701 114.928C161.701 114.219 161.935 113.673 162.401 113.29C162.877 112.898 163.433 112.702 164.067 112.702C165.029 112.702 165.775 113.01 166.307 113.626V112.408C166.307 111.96 166.149 111.61 165.831 111.358C165.514 111.106 165.103 110.98 164.599 110.98C163.806 110.98 163.115 111.293 162.527 111.918L162.037 111.19C162.756 110.443 163.657 110.07 164.739 110.07C165.514 110.07 166.144 110.257 166.629 110.63C167.115 111.003 167.357 111.577 167.357 112.352V117ZM164.445 116.412C165.285 116.412 165.906 116.132 166.307 115.572V114.298C165.906 113.738 165.285 113.458 164.445 113.458C163.96 113.458 163.559 113.598 163.241 113.878C162.933 114.149 162.779 114.503 162.779 114.942C162.779 115.371 162.933 115.726 163.241 116.006C163.559 116.277 163.96 116.412 164.445 116.412ZM169.952 117H168.608L171.618 113.304L168.622 110.238H169.952L172.864 113.22V110.238H173.914V113.206L176.826 110.238H178.156L175.146 113.304L178.17 117H176.826L174.39 113.962L173.914 114.438V117H172.864V114.438L172.388 113.962L169.952 117ZM182.426 117.168C181.418 117.168 180.592 116.841 179.948 116.188C179.304 115.525 178.982 114.667 178.982 113.612C178.982 112.623 179.3 111.787 179.934 111.106C180.569 110.415 181.362 110.07 182.314 110.07C183.313 110.07 184.102 110.415 184.68 111.106C185.268 111.787 185.562 112.651 185.562 113.696V113.962H180.088C180.135 114.625 180.378 115.18 180.816 115.628C181.255 116.076 181.824 116.3 182.524 116.3C183.364 116.3 184.06 116.015 184.61 115.446L185.114 116.132C184.424 116.823 183.528 117.168 182.426 117.168ZM184.526 113.192C184.517 112.613 184.321 112.095 183.938 111.638C183.556 111.171 183.01 110.938 182.3 110.938C181.628 110.938 181.096 111.167 180.704 111.624C180.322 112.081 180.116 112.604 180.088 113.192H184.526ZM17.1 139H16.05V132.238H17.1V135.052H20.628V132.238H21.678V139H20.628V135.976H17.1V139ZM26.8266 139.168C25.8186 139.168 24.9926 138.841 24.3486 138.188C23.7046 137.525 23.3826 136.667 23.3826 135.612C23.3826 134.623 23.6999 133.787 24.3346 133.106C24.9693 132.415 25.7626 132.07 26.7146 132.07C27.7133 132.07 28.5019 132.415 29.0806 133.106C29.6686 133.787 29.9626 134.651 29.9626 135.696V135.962H24.4886C24.5353 136.625 24.7779 137.18 25.2166 137.628C25.6553 138.076 26.2246 138.3 26.9246 138.3C27.7646 138.3 28.4599 138.015 29.0106 137.446L29.5146 138.132C28.8239 138.823 27.9279 139.168 26.8266 139.168ZM28.9266 135.192C28.9173 134.613 28.7213 134.095 28.3386 133.638C27.9559 133.171 27.4099 132.938 26.7006 132.938C26.0286 132.938 25.4966 133.167 25.1046 133.624C24.7219 134.081 24.5166 134.604 24.4886 135.192H28.9266ZM40.9007 139H39.8507V133.162H36.3227V139H35.2727V132.238H40.9007V139ZM48.3733 138.146C47.7666 138.827 46.9593 139.168 45.9513 139.168C44.9433 139.168 44.1313 138.827 43.5153 138.146C42.9086 137.465 42.6053 136.62 42.6053 135.612C42.6053 134.604 42.9086 133.764 43.5153 133.092C44.1313 132.411 44.9433 132.07 45.9513 132.07C46.9593 132.07 47.7666 132.411 48.3733 133.092C48.9893 133.764 49.2973 134.604 49.2973 135.612C49.2973 136.62 48.9893 137.465 48.3733 138.146ZM44.2993 137.474C44.7099 137.978 45.2606 138.23 45.9513 138.23C46.6419 138.23 47.1879 137.978 47.5893 137.474C47.9906 136.961 48.1913 136.34 48.1913 135.612C48.1913 134.884 47.9906 134.268 47.5893 133.764C47.1879 133.26 46.6419 133.008 45.9513 133.008C45.2606 133.008 44.7099 133.265 44.2993 133.778C43.8979 134.282 43.6973 134.893 43.6973 135.612C43.6973 136.34 43.8979 136.961 44.2993 137.474ZM53.991 139.168C52.9923 139.168 52.1803 138.832 51.555 138.16C50.9297 137.479 50.617 136.629 50.617 135.612C50.617 134.595 50.9297 133.75 51.555 133.078C52.1803 132.406 52.9923 132.07 53.991 132.07C55.0363 132.07 55.8623 132.462 56.469 133.246L55.769 133.89C55.3397 133.302 54.7657 133.008 54.047 133.008C53.3377 133.008 52.7683 133.251 52.339 133.736C51.919 134.221 51.709 134.847 51.709 135.612C51.709 136.377 51.919 137.007 52.339 137.502C52.7683 137.987 53.3377 138.23 54.047 138.23C54.7563 138.23 55.3303 137.936 55.769 137.348L56.469 137.992C55.8623 138.776 55.0363 139.168 53.991 139.168ZM60.9926 139.168C59.9846 139.168 59.1586 138.841 58.5146 138.188C57.8706 137.525 57.5486 136.667 57.5486 135.612C57.5486 134.623 57.866 133.787 58.5006 133.106C59.1353 132.415 59.9286 132.07 60.8806 132.07C61.8793 132.07 62.668 132.415 63.2466 133.106C63.8346 133.787 64.1286 134.651 64.1286 135.696V135.962H58.6546C58.7013 136.625 58.944 137.18 59.3826 137.628C59.8213 138.076 60.3906 138.3 61.0906 138.3C61.9306 138.3 62.626 138.015 63.1766 137.446L63.6806 138.132C62.99 138.823 62.094 139.168 60.9926 139.168ZM63.0926 135.192C63.0833 134.613 62.8873 134.095 62.5046 133.638C62.122 133.171 61.576 132.938 60.8666 132.938C60.1946 132.938 59.6626 133.167 59.2706 133.624C58.888 134.081 58.6826 134.604 58.6546 135.192H63.0926ZM73.6413 132.238H74.6913V138.076H75.5593V140.722H74.5093V139H65.8293V132.238H66.8793V138.076H69.7353V132.238H70.7853V138.076H73.6413V132.238ZM82.2772 139H81.2272V138.23C80.6579 138.855 79.9112 139.168 78.9872 139.168C78.3619 139.168 77.8112 138.967 77.3352 138.566C76.8592 138.165 76.6212 137.619 76.6212 136.928C76.6212 136.219 76.8546 135.673 77.3212 135.29C77.7972 134.898 78.3526 134.702 78.9872 134.702C79.9486 134.702 80.6952 135.01 81.2272 135.626V134.408C81.2272 133.96 81.0686 133.61 80.7512 133.358C80.4339 133.106 80.0232 132.98 79.5192 132.98C78.7259 132.98 78.0352 133.293 77.4472 133.918L76.9572 133.19C77.6759 132.443 78.5766 132.07 79.6592 132.07C80.4339 132.07 81.0639 132.257 81.5492 132.63C82.0346 133.003 82.2772 133.577 82.2772 134.352V139ZM79.3652 138.412C80.2052 138.412 80.8259 138.132 81.2272 137.572V136.298C80.8259 135.738 80.2052 135.458 79.3652 135.458C78.8799 135.458 78.4786 135.598 78.1612 135.878C77.8532 136.149 77.6992 136.503 77.6992 136.942C77.6992 137.371 77.8532 137.726 78.1612 138.006C78.4786 138.277 78.8799 138.412 79.3652 138.412ZM85.39 139H84.158L85.964 136.34C85.4507 136.275 85.0307 136.06 84.704 135.696C84.3867 135.332 84.228 134.87 84.228 134.31C84.228 133.713 84.4194 133.218 84.802 132.826C85.1847 132.434 85.7074 132.238 86.37 132.238H89.94V139H88.89V136.382H87.042L85.39 139ZM86.482 135.458H88.89V133.162H86.482C86.118 133.162 85.8287 133.269 85.614 133.484C85.4087 133.689 85.306 133.965 85.306 134.31C85.306 134.655 85.4087 134.935 85.614 135.15C85.8194 135.355 86.1087 135.458 86.482 135.458ZM94.8497 139.168V138.3C95.167 138.3 95.4283 138.09 95.6337 137.67C95.839 137.25 96.007 136.55 96.1377 135.57L96.5717 132.238H101.276V139H100.226V133.162H97.4957L97.1877 135.696C97.0383 136.937 96.777 137.829 96.4037 138.37C96.0303 138.902 95.5123 139.168 94.8497 139.168ZM106.424 139.168C105.416 139.168 104.59 138.841 103.946 138.188C103.302 137.525 102.98 136.667 102.98 135.612C102.98 134.623 103.298 133.787 103.932 133.106C104.567 132.415 105.36 132.07 106.312 132.07C107.311 132.07 108.1 132.415 108.678 133.106C109.266 133.787 109.56 134.651 109.56 135.696V135.962H104.086C104.133 136.625 104.376 137.18 104.814 137.628C105.253 138.076 105.822 138.3 106.522 138.3C107.362 138.3 108.058 138.015 108.608 137.446L109.112 138.132C108.422 138.823 107.526 139.168 106.424 139.168ZM108.524 135.192C108.515 134.613 108.319 134.095 107.936 133.638C107.554 133.171 107.008 132.938 106.298 132.938C105.626 132.938 105.094 133.167 104.702 133.624C104.32 134.081 104.114 134.604 104.086 135.192H108.524ZM117.211 139H115.867L113.431 135.962L112.311 137.068V139H111.261V132.238H112.311V135.836L115.867 132.238H117.197L114.201 135.304L117.211 139ZM123.814 140.722V139H118.452V132.238H119.502V138.076H123.03V132.238H124.08V138.076H124.864V140.722H123.814ZM127.308 139H126.3V132.238H127.35V137.404L130.892 132.238H131.928V139H130.878V133.736L127.308 139ZM135.033 139H134.025V132.238H135.075V137.404L138.617 132.238H139.653V139H138.603V133.736L135.033 139ZM142.743 136.382H141.875L141.651 129.662H142.967L142.743 136.382ZM142.841 138.916C142.692 139.065 142.515 139.14 142.309 139.14C142.104 139.14 141.922 139.065 141.763 138.916C141.614 138.757 141.539 138.575 141.539 138.37C141.539 138.155 141.614 137.973 141.763 137.824C141.913 137.675 142.095 137.6 142.309 137.6C142.524 137.6 142.706 137.675 142.855 137.824C143.005 137.973 143.079 138.155 143.079 138.37C143.079 138.575 143 138.757 142.841 138.916Z" fill="#3B4256"/>
<rect x="15" y="40" width="50" height="50" rx="8" fill="#E4EEFF"/>
<path d="M36.6756 71.064C35.6516 71.88 34.4116 72.288 32.9556 72.288C31.4996 72.288 30.2516 71.88 29.2116 71.064C28.1876 70.232 27.4516 69.208 27.0036 67.992C26.5556 66.776 26.3316 65.448 26.3316 64.008C26.3316 62.568 26.5556 61.24 27.0036 60.024C27.4516 58.808 28.1876 57.792 29.2116 56.976C30.2516 56.16 31.4996 55.752 32.9556 55.752C34.4116 55.752 35.6516 56.16 36.6756 56.976C37.6996 57.792 38.4356 58.808 38.8836 60.024C39.3476 61.24 39.5796 62.568 39.5796 64.008C39.5796 65.448 39.3476 66.776 38.8836 67.992C38.4356 69.208 37.6996 70.232 36.6756 71.064ZM30.5556 67.824C31.0676 68.784 31.8676 69.264 32.9556 69.264C34.0436 69.264 34.8356 68.784 35.3316 67.824C35.8436 66.864 36.0996 65.592 36.0996 64.008C36.0996 62.424 35.8436 61.16 35.3316 60.216C34.8356 59.256 34.0436 58.776 32.9556 58.776C31.8676 58.776 31.0676 59.256 30.5556 60.216C30.0436 61.16 29.7876 62.424 29.7876 64.008C29.7876 65.592 30.0436 66.864 30.5556 67.824ZM47.1904 72.288C45.7824 72.288 44.5344 72.056 43.4464 71.592C42.3584 71.112 41.5024 70.488 40.8784 69.72L42.6544 67.44C43.1984 68 43.8704 68.448 44.6704 68.784C45.4704 69.104 46.2704 69.264 47.0704 69.264C48.0304 69.264 48.7744 69.08 49.3024 68.712C49.8304 68.328 50.0944 67.832 50.0944 67.224C50.0944 66.584 49.8384 66.12 49.3264 65.832C48.8144 65.528 47.9984 65.376 46.8784 65.376C45.8704 65.376 45.2064 65.392 44.8864 65.424V62.352C45.0784 62.368 45.7424 62.376 46.8784 62.376C48.8464 62.376 49.8304 61.808 49.8304 60.672C49.8304 60.064 49.5504 59.6 48.9904 59.28C48.4464 58.944 47.7344 58.776 46.8544 58.776C45.3024 58.776 43.9504 59.328 42.7984 60.432L41.0944 58.296C42.5984 56.6 44.6384 55.752 47.2144 55.752C49.0864 55.752 50.5584 56.144 51.6304 56.928C52.7184 57.712 53.2624 58.768 53.2624 60.096C53.2624 61.056 52.9184 61.864 52.2304 62.52C51.5424 63.16 50.7184 63.568 49.7584 63.744C50.7024 63.84 51.5584 64.232 52.3264 64.92C53.1104 65.592 53.5024 66.48 53.5024 67.584C53.5024 68.976 52.9264 70.112 51.7744 70.992C50.6224 71.856 49.0944 72.288 47.1904 72.288Z" fill="#0072EF"/>
<defs>
<clipPath id="clip0_2_644">
<rect width="260" height="192" fill="white" transform="translate(15 178)"/>
</clipPath>
</defs>
</svg>
