<svg width="310" height="357" viewBox="0 0 310 357" fill="none" xmlns="http://www.w3.org/2000/svg">
<mask id="mask0_269_1790" style="mask-type:alpha" maskUnits="userSpaceOnUse" x="0" y="0" width="310" height="357">
<rect width="310" height="357" fill="#077DFF"/>
</mask>
<g mask="url(#mask0_269_1790)">
<path fill-rule="evenodd" clip-rule="evenodd" d="M294.997 311.496L228.844 426.502H101.07L39.392 314.833L104.283 202.185H232.057L294.997 311.496Z" fill="#E30613"/>
<path fill-rule="evenodd" clip-rule="evenodd" d="M193.043 136.369L126.833 251.318H-0.941355L-62.6194 139.705L2.27164 27H130.046L193.043 136.369Z" fill="#312783"/>
<path fill-rule="evenodd" clip-rule="evenodd" d="M2.38638 27L65.4988 136.311L-0.94136 251.375L-62.6194 139.705L2.38638 27Z" fill="#0072EF"/>
<path fill-rule="evenodd" clip-rule="evenodd" d="M2.38513 27L65.4975 136.311H193.042L129.93 27H2.38513Z" fill="#1A3B9A"/>
<path fill-rule="evenodd" clip-rule="evenodd" d="M65.4998 136.31L-0.940369 251.374H126.834L193.044 136.31H65.4998Z" fill="#312783"/>
<path fill-rule="evenodd" clip-rule="evenodd" d="M104.283 202.185L167.395 311.496L101.185 426.56L39.392 314.66L104.34 202.185H104.283Z" fill="#0072EF"/>
<path fill-rule="evenodd" clip-rule="evenodd" d="M167.283 311.554L101.073 426.618H228.847L295 311.554H167.283Z" fill="#312783"/>
<path fill-rule="evenodd" clip-rule="evenodd" d="M104.286 202.185L167.399 311.496H295L231.888 202.185H104.286Z" fill="#1A3B9A"/>
<path fill-rule="evenodd" clip-rule="evenodd" d="M-36.1109 311.554L-102.322 426.618H25.3377L91.5483 311.554H-36.1109Z" fill="#312783"/>
<path fill-rule="evenodd" clip-rule="evenodd" d="M-99.1064 202.185L-35.994 311.496H91.6078L56.9533 251.375H-0.937952L-28.0763 202.242L-99.1064 202.185Z" fill="#1A3B9A"/>
</g>
</svg>
