<svg width="960" height="525" viewBox="0 0 960 525" fill="none" xmlns="http://www.w3.org/2000/svg">
<rect width="960" height="525" rx="24" fill="#EBF3FA"/>
<path d="M682.287 295.646V382.158L757.207 425.403V338.914L682.287 295.646Z" fill="#64B2FF" stroke="black" stroke-width="0.83" stroke-linecap="round" stroke-linejoin="round"/>
<path d="M757.207 338.914V425.403L832.128 382.158V295.646L757.207 338.914Z" fill="#F25F74" stroke="black" stroke-width="0.83" stroke-linecap="round" stroke-linejoin="round"/>
<path d="M682.287 295.645L757.207 338.914L832.128 295.645L757.207 252.401L682.287 295.645Z" fill="white" stroke="black" stroke-width="0.83" stroke-linecap="round" stroke-linejoin="round"/>
<path d="M760.847 261.849V264.223C760.847 265.544 759.217 266.597 757.207 266.597C755.197 266.597 753.567 265.529 753.567 264.223V261.849H760.847Z" fill="white" stroke="black" stroke-width="0.83" stroke-linecap="round" stroke-linejoin="round"/>
<path d="M757.207 264.239C759.217 264.239 760.847 263.169 760.847 261.849C760.847 260.529 759.217 259.459 757.207 259.459C755.197 259.459 753.567 260.529 753.567 261.849C753.567 263.169 755.197 264.239 757.207 264.239Z" fill="white" stroke="black" stroke-width="0.83" stroke-linecap="round" stroke-linejoin="round"/>
<path d="M760.847 327.068V329.442C760.847 330.756 759.217 331.816 757.207 331.816C755.197 331.816 753.567 330.74 753.567 329.442V327.068H760.847Z" fill="white" stroke="black" stroke-width="0.83" stroke-linecap="round" stroke-linejoin="round"/>
<path d="M757.207 329.458C759.217 329.458 760.847 328.388 760.847 327.068C760.847 325.748 759.217 324.678 757.207 324.678C755.197 324.678 753.567 325.748 753.567 327.068C753.567 328.388 755.197 329.458 757.207 329.458Z" fill="white" stroke="black" stroke-width="0.83" stroke-linecap="round" stroke-linejoin="round"/>
<path d="M703.692 294.451V296.825C703.692 298.146 702.062 299.199 700.044 299.199C698.026 299.199 696.404 298.13 696.404 296.825V294.451H703.692Z" fill="white" stroke="black" stroke-width="0.83" stroke-linecap="round" stroke-linejoin="round"/>
<path d="M700.044 296.84C702.054 296.84 703.684 295.771 703.684 294.451C703.684 293.131 702.054 292.061 700.044 292.061C698.034 292.061 696.404 293.131 696.404 294.451C696.404 295.771 698.034 296.84 700.044 296.84Z" fill="white" stroke="black" stroke-width="0.83" stroke-linecap="round" stroke-linejoin="round"/>
<path d="M818.011 294.451V296.825C818.011 298.146 816.381 299.199 814.371 299.199C812.361 299.199 810.723 298.13 810.723 296.825V294.451H818.011Z" fill="white" stroke="black" stroke-width="0.83" stroke-linecap="round" stroke-linejoin="round"/>
<path d="M814.371 296.84C816.381 296.84 818.011 295.771 818.011 294.451C818.011 293.131 816.381 292.061 814.371 292.061C812.361 292.061 810.731 293.131 810.731 294.451C810.731 295.771 812.361 296.84 814.371 296.84Z" fill="white" stroke="black" stroke-width="0.83" stroke-linecap="round" stroke-linejoin="round"/>
<path d="M532.455 295.646V382.158L607.375 425.403V338.914L532.455 295.646Z" fill="#64B2FF" stroke="black" stroke-width="0.83" stroke-linecap="round" stroke-linejoin="round"/>
<path d="M607.375 338.914V425.403L682.287 382.158V295.646L607.375 338.914Z" fill="#F25F74" stroke="black" stroke-width="0.83" stroke-linecap="round" stroke-linejoin="round"/>
<path d="M532.455 295.645L607.375 338.914L682.287 295.645L607.375 252.401L532.455 295.645Z" fill="white" stroke="black" stroke-width="0.83" stroke-linecap="round" stroke-linejoin="round"/>
<path d="M611.015 261.849V264.223C611.015 265.544 609.385 266.597 607.375 266.597C605.365 266.597 603.727 265.529 603.727 264.223V261.849H611.015Z" fill="white" stroke="black" stroke-width="0.83" stroke-linecap="round" stroke-linejoin="round"/>
<path d="M607.375 264.239C609.385 264.239 611.015 263.169 611.015 261.849C611.015 260.529 609.385 259.459 607.375 259.459C605.365 259.459 603.735 260.529 603.735 261.849C603.735 263.169 605.365 264.239 607.375 264.239Z" fill="white" stroke="black" stroke-width="0.83" stroke-linecap="round" stroke-linejoin="round"/>
<path d="M611.015 327.068V329.442C611.015 330.756 609.385 331.816 607.375 331.816C605.365 331.816 603.727 330.74 603.727 329.442V327.068H611.015Z" fill="white" stroke="black" stroke-width="0.83" stroke-linecap="round" stroke-linejoin="round"/>
<path d="M607.375 329.458C609.385 329.458 611.015 328.388 611.015 327.068C611.015 325.748 609.385 324.678 607.375 324.678C605.365 324.678 603.735 325.748 603.735 327.068C603.735 328.388 605.365 329.458 607.375 329.458Z" fill="white" stroke="black" stroke-width="0.83" stroke-linecap="round" stroke-linejoin="round"/>
<path d="M553.828 294.451V296.825C553.828 298.146 552.197 299.199 550.188 299.199C548.178 299.199 546.548 298.13 546.548 296.825V294.451H553.828Z" fill="white" stroke="black" stroke-width="0.83" stroke-linecap="round" stroke-linejoin="round"/>
<path d="M550.211 296.84C552.222 296.84 553.851 295.771 553.851 294.451C553.851 293.131 552.222 292.061 550.211 292.061C548.201 292.061 546.571 293.131 546.571 294.451C546.571 295.771 548.201 296.84 550.211 296.84Z" fill="white" stroke="black" stroke-width="0.83" stroke-linecap="round" stroke-linejoin="round"/>
<path d="M668.17 294.451V296.825C668.17 298.146 666.54 299.199 664.53 299.199C662.52 299.199 660.89 298.13 660.89 296.825V294.451H668.17Z" fill="white" stroke="black" stroke-width="0.83" stroke-linecap="round" stroke-linejoin="round"/>
<path d="M664.53 296.84C666.541 296.84 668.17 295.771 668.17 294.451C668.17 293.131 666.541 292.061 664.53 292.061C662.52 292.061 660.89 293.131 660.89 294.451C660.89 295.771 662.52 296.84 664.53 296.84Z" fill="white" stroke="black" stroke-width="0.83" stroke-linecap="round" stroke-linejoin="round"/>
<path d="M607.375 165.888V252.401L682.287 295.645V209.156L607.375 165.888Z" fill="#FFDB7C" stroke="black" stroke-width="0.83" stroke-linecap="round" stroke-linejoin="round"/>
<path d="M682.287 209.156V295.645L757.207 252.401V165.888L682.287 209.156Z" fill="#64B2FF" stroke="black" stroke-width="0.83" stroke-linecap="round" stroke-linejoin="round"/>
<path d="M607.375 165.889L682.287 209.157L757.207 165.889L682.287 122.644L607.375 165.889Z" fill="white" stroke="black" stroke-width="0.83" stroke-linecap="round" stroke-linejoin="round"/>
<path d="M685.974 132.092V134.466C685.974 135.787 684.344 136.84 682.327 136.84C680.309 136.84 678.687 135.771 678.687 134.466V132.092H685.974Z" fill="white" stroke="black" stroke-width="0.83" stroke-linecap="round" stroke-linejoin="round"/>
<path d="M682.287 134.482C684.297 134.482 685.927 133.412 685.927 132.092C685.927 130.772 684.297 129.702 682.287 129.702C680.277 129.702 678.647 130.772 678.647 132.092C678.647 133.412 680.277 134.482 682.287 134.482Z" fill="white" stroke="black" stroke-width="0.83" stroke-linecap="round" stroke-linejoin="round"/>
<path d="M685.974 197.319V199.693C685.974 201.006 684.344 202.067 682.327 202.067C680.309 202.067 678.687 200.99 678.687 199.693V197.319H685.974Z" fill="white" stroke="black" stroke-width="0.83" stroke-linecap="round" stroke-linejoin="round"/>
<path d="M682.287 199.709C684.297 199.709 685.927 198.639 685.927 197.319C685.927 195.999 684.297 194.929 682.287 194.929C680.277 194.929 678.647 195.999 678.647 197.319C678.647 198.639 680.277 199.709 682.287 199.709Z" fill="white" stroke="black" stroke-width="0.83" stroke-linecap="round" stroke-linejoin="round"/>
<path d="M628.772 164.693V167.067C628.772 168.389 627.141 169.441 625.132 169.441C623.122 169.441 621.484 168.373 621.484 167.067V164.693H628.772Z" fill="white" stroke="black" stroke-width="0.83" stroke-linecap="round" stroke-linejoin="round"/>
<path d="M625.132 167.083C627.142 167.083 628.772 166.013 628.772 164.693C628.772 163.374 627.142 162.304 625.132 162.304C623.121 162.304 621.492 163.374 621.492 164.693C621.492 166.013 623.121 167.083 625.132 167.083Z" fill="white" stroke="black" stroke-width="0.83" stroke-linecap="round" stroke-linejoin="round"/>
<path d="M743.09 164.693V167.067C743.09 168.389 741.46 169.441 739.45 169.441C737.441 169.441 735.803 168.373 735.803 167.067V164.693H743.09Z" fill="white" stroke="black" stroke-width="0.83" stroke-linecap="round" stroke-linejoin="round"/>
<path d="M739.451 167.083C741.461 167.083 743.09 166.013 743.09 164.693C743.09 163.374 741.461 162.304 739.451 162.304C737.44 162.304 735.811 163.374 735.811 164.693C735.811 166.013 737.44 167.083 739.451 167.083Z" fill="white" stroke="black" stroke-width="0.83" stroke-linecap="round" stroke-linejoin="round"/>
<path d="M516.059 219.768C516.059 219.871 516.059 219.974 516.059 220.077C516.106 221.928 517.641 222.545 519.525 221.453L580.89 186.027C582.773 184.935 584.348 182.521 584.356 180.63C584.356 173.461 579.03 170.612 572.114 173.659C571.798 163.689 563.513 160.42 553.337 166.26C544.633 171.309 537.25 181.516 535.137 190.791C533.78 190.929 532.498 191.481 531.465 192.373C529.092 194.248 527.272 197.406 527.169 199.922C527.146 200.394 527.196 200.867 527.319 201.323C521.052 205.303 516.059 213.382 516.059 219.768Z" fill="white" stroke="black" stroke-width="0.83" stroke-linecap="round" stroke-linejoin="round"/>
<path d="M791.17 139.055C791.174 139.116 791.174 139.177 791.17 139.237C791.17 140.337 790.228 140.701 789.112 140.029L752.641 119.028C752.079 118.693 751.601 118.233 751.244 117.684C750.887 117.136 750.662 116.512 750.584 115.862C750.584 111.597 753.749 109.912 757.856 111.716C758.054 105.829 762.976 103.866 769.021 107.356C774.367 110.649 778.238 115.875 779.83 121.947C780.635 122.031 781.394 122.36 782.006 122.889C782.708 123.429 783.295 124.103 783.734 124.872C784.173 125.641 784.454 126.489 784.562 127.368C784.573 127.648 784.544 127.927 784.475 128.199C788.202 130.501 791.17 135.297 791.17 139.055Z" fill="white" stroke="black" stroke-width="0.83" stroke-linecap="round" stroke-linejoin="round"/>
<path opacity="0.2" d="M640.332 158.482L679.106 180.852C680.08 181.415 681.186 181.712 682.311 181.712C683.436 181.712 684.541 181.415 685.516 180.852L724.289 158.482C724.774 158.2 725.176 157.796 725.455 157.31C725.734 156.824 725.882 156.273 725.882 155.712C725.882 155.152 725.734 154.601 725.455 154.115C725.176 153.629 724.774 153.225 724.289 152.943L685.516 130.573C684.541 130.01 683.436 129.713 682.311 129.713C681.186 129.713 680.08 130.01 679.106 130.573L640.332 152.943C639.848 153.225 639.446 153.629 639.167 154.115C638.887 154.601 638.74 155.152 638.74 155.712C638.74 156.273 638.887 156.824 639.167 157.31C639.446 157.796 639.848 158.2 640.332 158.482Z" fill="black"/>
<path d="M700.155 178.992L711.185 166.26V185.362L700.155 178.992Z" fill="#FFDB7C" stroke="black" stroke-width="0.83" stroke-linecap="round" stroke-linejoin="round"/>
<path d="M722.224 178.992L711.185 166.26V185.362L722.224 178.992Z" fill="#FFDB7C" stroke="black" stroke-width="0.83" stroke-linecap="round" stroke-linejoin="round"/>
<path d="M644.961 130.28V153.433C644.964 154.125 645.148 154.804 645.496 155.403C645.843 156.001 646.341 156.498 646.94 156.844L678.426 175.044C679.627 175.744 680.992 176.113 682.382 176.113C683.772 176.113 685.137 175.744 686.339 175.044L717.824 156.844C718.422 156.497 718.918 156 719.264 155.401C719.61 154.803 719.793 154.124 719.795 153.433V130.28C719.795 129.042 719.303 127.854 718.427 126.979C717.552 126.103 716.364 125.611 715.126 125.611H649.638C648.399 125.611 647.211 126.103 646.334 126.978C645.457 127.854 644.964 129.041 644.961 130.28Z" fill="#64B2FF" stroke="black" stroke-width="0.83" stroke-linecap="round" stroke-linejoin="round"/>
<path style="mix-blend-mode:multiply" d="M719.771 130.28V153.434C719.769 154.125 719.586 154.803 719.24 155.401C718.895 156 718.398 156.497 717.801 156.844L688.704 173.627C688.062 173.997 687.334 174.19 686.593 174.189C685.852 174.188 685.124 173.992 684.483 173.621C683.842 173.25 683.309 172.716 682.939 172.074C682.569 171.433 682.374 170.705 682.374 169.964V125.604H715.102C715.716 125.604 716.324 125.725 716.891 125.96C717.458 126.195 717.973 126.539 718.406 126.974C718.84 127.408 719.184 127.924 719.418 128.491C719.652 129.058 719.772 129.666 719.771 130.28Z" fill="url(#paint0_linear_664_1833)"/>
<path d="M733.278 122.984L686.307 95.8741C685.104 95.1796 683.739 94.814 682.35 94.814C680.961 94.814 679.597 95.1796 678.394 95.8741L631.462 122.984H628.803V126.798C628.8 127.49 628.98 128.171 629.326 128.77C629.673 129.37 630.172 129.866 630.774 130.209L678.426 157.722C679.629 158.417 680.993 158.782 682.382 158.782C683.771 158.782 685.136 158.417 686.339 157.722L733.983 130.209C734.584 129.866 735.084 129.37 735.43 128.77C735.776 128.171 735.957 127.49 735.953 126.798V122.984H733.278Z" fill="white" stroke="black" stroke-width="0.83" stroke-linecap="round" stroke-linejoin="round"/>
<path d="M630.773 126.395L678.426 153.908C679.628 154.603 680.993 154.968 682.382 154.968C683.771 154.968 685.136 154.603 686.339 153.908L733.959 126.395C734.555 126.046 735.049 125.547 735.392 124.948C735.736 124.349 735.917 123.671 735.917 122.98C735.917 122.29 735.736 121.611 735.392 121.012C735.049 120.413 734.555 119.915 733.959 119.566L686.307 92.0601C685.104 91.3656 683.739 91 682.35 91C680.961 91 679.597 91.3656 678.394 92.0601L630.773 119.566C630.178 119.915 629.683 120.413 629.34 121.012C628.996 121.611 628.816 122.29 628.816 122.98C628.816 123.671 628.996 124.349 629.34 124.948C629.683 125.547 630.178 126.046 630.773 126.395Z" fill="#64B2FF" stroke="black" stroke-width="0.83" stroke-linecap="round" stroke-linejoin="round"/>
<path d="M735.937 122.984V126.798C735.942 127.489 735.763 128.17 735.419 128.769C735.074 129.369 734.575 129.866 733.975 130.208L686.307 157.722C685.824 158.003 685.312 158.232 684.78 158.402C684.504 158.484 684.213 158.499 683.93 158.448C683.647 158.398 683.38 158.282 683.15 158.11C682.919 157.938 682.732 157.714 682.603 157.458C682.474 157.201 682.406 156.917 682.406 156.63C682.401 156.207 682.544 155.795 682.809 155.466C683.075 155.137 683.447 154.91 683.862 154.826C684.732 154.662 685.569 154.354 686.339 153.916L733.967 126.394C734.569 126.052 735.069 125.556 735.415 124.957C735.761 124.357 735.942 123.676 735.937 122.984Z" fill="url(#paint1_linear_664_1833)"/>
<path d="M630.773 126.395L678.426 153.908C679.628 154.603 680.993 154.968 682.382 154.968C683.771 154.968 685.136 154.603 686.339 153.908L733.959 126.395C734.555 126.046 735.049 125.547 735.392 124.948C735.736 124.349 735.917 123.671 735.917 122.98C735.917 122.29 735.736 121.611 735.392 121.012C735.049 120.413 734.555 119.915 733.959 119.566L686.307 92.0601C685.104 91.3656 683.739 91 682.35 91C680.961 91 679.597 91.3656 678.394 92.0601L630.773 119.566C630.178 119.915 629.683 120.413 629.34 121.012C628.996 121.611 628.816 122.29 628.816 122.98C628.816 123.671 628.996 124.349 629.34 124.948C629.683 125.547 630.178 126.046 630.773 126.395Z" fill="#64B2FF" stroke="black" stroke-width="0.83" stroke-linecap="round" stroke-linejoin="round"/>
<path d="M735.929 122.984V126.798C735.927 127.489 735.744 128.167 735.399 128.766C735.053 129.364 734.557 129.862 733.959 130.208L686.307 157.722C685.104 158.416 683.739 158.782 682.35 158.782C680.961 158.782 679.597 158.416 678.394 157.722L630.774 130.208C630.172 129.866 629.673 129.369 629.326 128.77C628.98 128.171 628.8 127.49 628.803 126.798V122.984C628.8 123.675 628.981 124.354 629.327 124.952C629.674 125.55 630.173 126.045 630.774 126.386L678.426 153.916C679.628 154.61 680.993 154.976 682.382 154.976C683.771 154.976 685.136 154.61 686.339 153.916L733.959 126.394C734.56 126.051 735.059 125.555 735.405 124.955C735.751 124.356 735.932 123.676 735.929 122.984Z" stroke="black" stroke-width="0.83" stroke-linecap="round" stroke-linejoin="round"/>
<path d="M711.185 169.291C710.766 169.291 710.363 169.124 710.066 168.828C709.769 168.531 709.603 168.128 709.603 167.709V142.553C709.605 141.912 709.438 141.282 709.118 140.726C708.799 140.17 708.338 139.708 707.783 139.388L681.709 124.353C681.365 124.134 681.118 123.791 681.021 123.394C680.924 122.998 680.984 122.579 681.188 122.226C681.393 121.872 681.726 121.611 682.118 121.498C682.51 121.384 682.93 121.426 683.292 121.615L709.365 136.65C710.394 137.249 711.247 138.107 711.842 139.139C712.436 140.17 712.75 141.339 712.752 142.529V167.693C712.754 167.901 712.715 168.107 712.638 168.3C712.56 168.492 712.445 168.668 712.3 168.816C712.154 168.965 711.981 169.083 711.79 169.165C711.599 169.246 711.393 169.289 711.185 169.291Z" fill="white" stroke="black" stroke-width="0.83" stroke-linecap="round" stroke-linejoin="round"/>
<path d="M711.185 170.098C712.715 170.098 713.955 169.011 713.955 167.669C713.955 166.327 712.715 165.24 711.185 165.24C709.656 165.24 708.416 166.327 708.416 167.669C708.416 169.011 709.656 170.098 711.185 170.098Z" fill="white" stroke="black" stroke-width="0.83" stroke-linecap="round" stroke-linejoin="round"/>
<path opacity="0.2" d="M779.427 289.442C779.427 295.867 769.536 301.074 757.334 301.074C745.132 301.074 735.233 295.867 735.233 289.442C735.225 289.345 735.225 289.247 735.233 289.149C735.276 288.26 735.497 287.388 735.882 286.585C738.311 281.545 746.96 277.818 757.318 277.818C768.056 277.818 777.014 281.846 779 287.203C779.232 287.816 779.365 288.462 779.395 289.118C779.427 289.244 779.427 289.347 779.427 289.442Z" fill="black"/>
<path d="M757.207 239.416C770.23 239.416 780.788 233.429 780.788 226.043C780.788 218.657 770.23 212.67 757.207 212.67C744.184 212.67 733.626 218.657 733.626 226.043C733.626 233.429 744.184 239.416 757.207 239.416Z" fill="#FF7B22" stroke="black" stroke-width="0.83" stroke-linecap="round" stroke-linejoin="round"/>
<path d="M757.207 239.416C770.23 239.416 780.788 233.429 780.788 226.043C780.788 218.657 770.23 212.67 757.207 212.67C744.184 212.67 733.626 218.657 733.626 226.043C733.626 233.429 744.184 239.416 757.207 239.416Z" fill="url(#paint2_linear_664_1833)" stroke="black" stroke-width="0.83" stroke-linecap="round" stroke-linejoin="round"/>
<path d="M757.207 239.416C770.23 239.416 780.788 233.429 780.788 226.043C780.788 218.657 770.23 212.67 757.207 212.67C744.184 212.67 733.626 218.657 733.626 226.043C733.626 233.429 744.184 239.416 757.207 239.416Z" fill="url(#paint3_linear_664_1833)"/>
<path d="M772.456 285.525L772.503 285.628L772.456 285.517L772.115 284.797V284.757L770.834 281.98C769.607 278.277 764.036 275.491 757.381 275.491C750.956 275.491 745.567 278.071 744.056 281.56L742.568 284.852L742.473 285.05L742.26 285.517C741.996 286.168 741.86 286.864 741.856 287.566C741.856 292.575 748.812 296.643 757.381 296.643C765.951 296.643 772.899 292.575 772.899 287.566C772.882 286.864 772.732 286.171 772.456 285.525Z" fill="url(#paint4_linear_664_1833)" stroke="black" stroke-width="0.83" stroke-linecap="round" stroke-linejoin="round"/>
<path d="M742.157 285.635L742.212 285.501L742.418 285.042L742.157 285.635Z" fill="#FFDB7C" stroke="black" stroke-width="0.83" stroke-linecap="round" stroke-linejoin="round"/>
<path d="M770.248 281.837C770.248 285.359 764.463 288.207 757.334 288.207C750.204 288.207 744.412 285.359 744.412 281.837C744.408 281.782 744.408 281.726 744.412 281.671C744.437 281.182 744.567 280.705 744.792 280.27C746.216 277.509 751.288 275.467 757.326 275.467C763.601 275.467 768.839 277.675 769.987 280.611C770.123 280.943 770.201 281.296 770.216 281.655C770.232 281.715 770.242 281.776 770.248 281.837Z" fill="url(#paint5_linear_664_1833)" stroke="black" stroke-width="0.83" stroke-linecap="round" stroke-linejoin="round"/>
<path d="M751.439 257.568V279.115C751.439 281.022 754.074 282.566 757.326 282.566C760.578 282.566 763.221 280.983 763.221 279.115V257.568H751.439Z" fill="url(#paint6_linear_664_1833)" stroke="black" stroke-width="0.83" stroke-linecap="round" stroke-linejoin="round"/>
<path d="M766.56 266.874C766.56 263.891 762.422 261.469 757.326 261.469C752.23 261.469 748.099 263.891 748.099 266.874V269.825C748.099 272.809 752.23 275.23 757.326 275.23C762.422 275.23 766.56 272.809 766.56 269.825V266.874Z" fill="url(#paint7_linear_664_1833)" stroke="black" stroke-width="0.83" stroke-linecap="round" stroke-linejoin="round"/>
<path d="M783.985 231.107C783.985 230.981 784.056 230.854 784.08 230.728C784.103 230.601 784.08 230.538 784.143 230.443C784.238 229.984 784.309 229.517 784.372 229.042C784.372 228.884 784.42 228.733 784.436 228.575C784.499 228.037 784.547 227.499 784.562 226.937C784.562 226.66 784.562 226.352 784.562 226.051C784.562 221.58 781.935 217.552 777.559 214.545C772.606 211.135 765.421 209.006 757.294 209.006C746.311 209.006 737.029 212.868 732.685 218.589C731.001 220.709 730.068 223.328 730.034 226.035V226.209C730.034 226.447 730.034 226.692 730.034 226.921C730.089 228.308 730.277 229.686 730.596 231.036C728.684 231.492 726.906 232.391 725.406 233.66C723.905 234.929 722.724 236.534 721.958 238.344C721.192 240.154 720.863 242.119 720.996 244.079C721.129 246.04 721.722 247.942 722.726 249.632C723.73 251.322 725.117 252.751 726.776 253.806C728.434 254.861 730.317 255.51 732.273 255.703C734.229 255.895 736.203 255.625 738.035 254.914C739.868 254.203 741.507 253.071 742.821 251.61C743.059 252.275 743.264 252.947 743.439 253.628C743.802 255.053 744.043 256.506 744.159 257.972L744.681 264.643C745.33 266.227 746.522 267.529 748.044 268.314C748.376 268.512 748.732 268.71 749.104 268.884C749.837 269.23 750.596 269.516 751.375 269.739C751.984 269.933 752.605 270.087 753.235 270.198L753.488 270.245H753.567L753.844 270.292H753.963L754.485 270.356L754.889 270.411H755.205C755.45 270.411 755.696 270.459 755.941 270.474H756.155H756.448H757.239H757.334C757.682 270.474 758.022 270.474 758.362 270.474H758.552H758.806L759.312 270.427H759.621L760.04 270.372L760.546 270.308H760.681L760.958 270.261H761.021C761.106 270.25 761.191 270.234 761.274 270.213C761.905 270.096 762.529 269.943 763.142 269.754C764.308 269.422 765.427 268.943 766.473 268.33C766.695 268.203 766.901 268.069 767.098 267.934L767.201 267.855C767.367 267.745 767.526 267.626 767.684 267.507L767.755 267.444C767.913 267.309 768.072 267.183 768.214 267.04C768.504 266.764 768.769 266.462 769.005 266.138L769.156 265.925L769.322 265.679C769.401 265.553 769.472 265.418 769.543 265.284L769.591 265.189C769.67 265.022 769.741 264.848 769.805 264.674L770.319 258.004C770.481 255.903 770.909 253.832 771.593 251.839C772.926 253.249 774.569 254.331 776.392 254.998C778.214 255.665 780.167 255.899 782.095 255.683C784.024 255.467 785.876 254.806 787.506 253.752C789.136 252.699 790.498 251.281 791.487 249.61C792.475 247.94 793.062 246.063 793.202 244.128C793.341 242.192 793.029 240.25 792.29 238.455C791.551 236.661 790.406 235.062 788.944 233.786C787.482 232.509 785.744 231.59 783.866 231.099L783.985 231.107ZM779.427 226.043C779.427 232.476 769.306 237.913 757.326 237.913C753.29 237.938 749.278 237.288 745.456 235.99C739.854 234.027 735.905 230.751 735.304 227.048C735.247 226.716 735.218 226.38 735.217 226.043C735.217 222.799 737.804 219.8 741.911 217.632C742.347 217.402 742.798 217.18 743.272 216.967L743.431 216.896C743.945 216.674 744.475 216.452 745.013 216.255H745.084C745.662 216.041 746.248 215.843 746.857 215.669C749.54 214.87 752.307 214.387 755.102 214.229C755.838 214.181 756.582 214.166 757.326 214.166C766.687 214.166 774.916 217.489 778.066 221.999C778.927 223.174 779.402 224.587 779.427 226.043ZM733.603 250.834C731.687 250.848 729.837 250.138 728.423 248.845C727.01 247.553 726.136 245.774 725.978 243.865C725.82 241.956 726.389 240.058 727.571 238.551C728.753 237.043 730.461 236.038 732.352 235.736C733.55 238.094 735.103 240.253 736.958 242.138C738.102 243.301 739.133 244.57 740.036 245.928L740.44 246.561C739.814 247.842 738.842 248.922 737.633 249.677C736.425 250.433 735.028 250.834 733.603 250.834ZM780.82 250.834C779.435 250.835 778.076 250.457 776.891 249.742C775.706 249.026 774.738 248 774.093 246.775C775.117 245.098 776.328 243.542 777.702 242.138C778.556 241.251 779.349 240.307 780.076 239.313L780.147 239.218C780.368 238.91 780.59 238.593 780.804 238.269C780.883 238.15 780.962 238.031 781.033 237.913C781.244 237.58 781.45 237.24 781.65 236.892C781.705 236.805 781.755 236.715 781.801 236.623C781.959 236.346 782.109 236.069 782.252 235.776C784.074 236.171 785.687 237.222 786.785 238.729C787.883 240.235 788.39 242.093 788.208 243.948C788.026 245.804 787.169 247.528 785.8 248.793C784.431 250.058 782.644 250.776 780.78 250.811L780.82 250.834Z" fill="url(#paint8_linear_664_1833)" stroke="black" stroke-width="0.83" stroke-linecap="round" stroke-linejoin="round"/>
<path d="M775.66 392.493V405.209L816.745 381.47V336.667C816.745 328.2 811.633 323.887 804.313 324.971C804.967 326.768 805.287 328.67 805.255 330.582V375.409L775.66 392.493Z" fill="white" stroke="black" stroke-width="0.83" stroke-linecap="round" stroke-linejoin="round"/>
<path d="M775.66 360.382V392.493L805.255 375.408V330.55C805.286 328.638 804.967 326.736 804.313 324.939C801.447 325.425 798.698 326.448 796.21 327.954C790.311 331.57 785.347 336.525 781.722 342.419C777.963 348.251 775.66 354.716 775.66 360.382Z" fill="#FFDB7C" stroke="black" stroke-width="0.83" stroke-linecap="round" stroke-linejoin="round"/>
<path d="M816.745 381.494L805.255 375.409" stroke="black" stroke-width="0.83" stroke-linecap="round" stroke-linejoin="round"/>
<path d="M857.441 230.973C857.441 231.091 857.441 231.21 857.441 231.329C857.386 233.465 855.613 234.177 853.445 232.911L782.584 192.001C780.408 190.743 778.628 187.958 778.588 185.781V185.742C778.588 177.465 784.737 174.173 792.721 177.694C793.093 166.252 802.66 162.438 814.402 169.22C824.499 175.044 832.982 186.834 835.411 197.572C836.979 197.727 838.46 198.363 839.653 199.392C842.43 201.56 844.488 205.208 844.606 208.096C844.638 208.63 844.579 209.165 844.432 209.679C851.681 214.3 857.441 223.629 857.441 230.973Z" fill="white" stroke="black" stroke-width="0.83" stroke-linecap="round" stroke-linejoin="round"/>
<path d="M583.375 381.913V398.475L597.167 407.021V390.459L583.375 381.913Z" fill="#64B2FF" stroke="black" stroke-width="0.83" stroke-linecap="round" stroke-linejoin="round"/>
<path d="M595.102 403.879C595.298 403.879 595.458 403.631 595.458 403.325C595.458 403.019 595.298 402.771 595.102 402.771C594.905 402.771 594.746 403.019 594.746 403.325C594.746 403.631 594.905 403.879 595.102 403.879Z" fill="black"/>
<path d="M595.102 392.667C595.298 392.667 595.458 392.419 595.458 392.113C595.458 391.807 595.298 391.559 595.102 391.559C594.905 391.559 594.746 391.807 594.746 392.113C594.746 392.419 594.905 392.667 595.102 392.667Z" fill="black"/>
<path d="M585.432 397.961C585.716 397.961 585.946 397.603 585.946 397.161C585.946 396.72 585.716 396.362 585.432 396.362C585.148 396.362 584.918 396.72 584.918 397.161C584.918 397.603 585.148 397.961 585.432 397.961Z" fill="black"/>
<path d="M585.432 386.748C585.716 386.748 585.946 386.39 585.946 385.949C585.946 385.507 585.716 385.149 585.432 385.149C585.148 385.149 584.918 385.507 584.918 385.949C584.918 386.39 585.148 386.748 585.432 386.748Z" fill="black"/>
<path d="M595.102 404.101C595.386 404.101 595.616 403.744 595.616 403.302C595.616 402.861 595.386 402.503 595.102 402.503C594.818 402.503 594.587 402.861 594.587 403.302C594.587 403.744 594.818 404.101 595.102 404.101Z" fill="black"/>
<path d="M595.102 392.888C595.386 392.888 595.616 392.531 595.616 392.089C595.616 391.648 595.386 391.29 595.102 391.29C594.818 391.29 594.587 391.648 594.587 392.089C594.587 392.531 594.818 392.888 595.102 392.888Z" fill="black"/>
<path d="M734.125 363.057V379.626L747.925 388.165V371.611L734.125 363.057Z" fill="#64B2FF" stroke="black" stroke-width="0.83" stroke-linecap="round" stroke-linejoin="round"/>
<path d="M745.852 385.023C746.049 385.023 746.208 384.775 746.208 384.469C746.208 384.163 746.049 383.915 745.852 383.915C745.655 383.915 745.496 384.163 745.496 384.469C745.496 384.775 745.655 385.023 745.852 385.023Z" fill="black"/>
<path d="M745.852 373.81C746.049 373.81 746.208 373.562 746.208 373.256C746.208 372.95 746.049 372.702 745.852 372.702C745.655 372.702 745.496 372.95 745.496 373.256C745.496 373.562 745.655 373.81 745.852 373.81Z" fill="black"/>
<path d="M736.182 379.112C736.467 379.112 736.697 378.754 736.697 378.313C736.697 377.871 736.467 377.514 736.182 377.514C735.898 377.514 735.668 377.871 735.668 378.313C735.668 378.754 735.898 379.112 736.182 379.112Z" fill="black"/>
<path d="M736.182 367.899C736.467 367.899 736.697 367.541 736.697 367.1C736.697 366.659 736.467 366.301 736.182 366.301C735.898 366.301 735.668 366.659 735.668 367.1C735.668 367.541 735.898 367.899 736.182 367.899Z" fill="black"/>
<path d="M745.852 385.252C746.136 385.252 746.367 384.894 746.367 384.453C746.367 384.012 746.136 383.654 745.852 383.654C745.568 383.654 745.338 384.012 745.338 384.453C745.338 384.894 745.568 385.252 745.852 385.252Z" fill="black"/>
<path d="M745.852 374.032C746.136 374.032 746.367 373.674 746.367 373.232C746.367 372.791 746.136 372.433 745.852 372.433C745.568 372.433 745.338 372.791 745.338 373.232C745.338 373.674 745.568 374.032 745.852 374.032Z" fill="black"/>
<path d="M555.505 330.217V346.779L569.297 355.325V338.763L555.505 330.217Z" fill="#FFDB7C" stroke="black" stroke-width="0.83" stroke-linecap="round" stroke-linejoin="round"/>
<path d="M567.232 352.184C567.429 352.184 567.588 351.936 567.588 351.63C567.588 351.324 567.429 351.076 567.232 351.076C567.035 351.076 566.876 351.324 566.876 351.63C566.876 351.936 567.035 352.184 567.232 352.184Z" fill="black"/>
<path d="M567.232 340.971C567.429 340.971 567.588 340.723 567.588 340.417C567.588 340.111 567.429 339.863 567.232 339.863C567.035 339.863 566.876 340.111 566.876 340.417C566.876 340.723 567.035 340.971 567.232 340.971Z" fill="black"/>
<path d="M557.563 346.02C557.759 346.02 557.919 345.772 557.919 345.466C557.919 345.16 557.759 344.912 557.563 344.912C557.366 344.912 557.206 345.16 557.206 345.466C557.206 345.772 557.366 346.02 557.563 346.02Z" fill="black"/>
<path d="M557.563 334.807C557.759 334.807 557.919 334.559 557.919 334.253C557.919 333.947 557.759 333.699 557.563 333.699C557.366 333.699 557.206 333.947 557.206 334.253C557.206 334.559 557.366 334.807 557.563 334.807Z" fill="black"/>
<path d="M541.127 332.884V349.454L562.397 362.574V346.02L541.127 332.884Z" fill="white" stroke="black" stroke-width="0.83" stroke-linecap="round" stroke-linejoin="round"/>
<path d="M560.332 359.432C560.529 359.432 560.688 359.184 560.688 358.878C560.688 358.572 560.529 358.324 560.332 358.324C560.135 358.324 559.976 358.572 559.976 358.878C559.976 359.184 560.135 359.432 560.332 359.432Z" fill="black"/>
<path d="M560.332 348.22C560.529 348.22 560.688 347.972 560.688 347.666C560.688 347.36 560.529 347.112 560.332 347.112C560.135 347.112 559.976 347.36 559.976 347.666C559.976 347.972 560.135 348.22 560.332 348.22Z" fill="black"/>
<path d="M543.185 348.94C543.469 348.94 543.699 348.582 543.699 348.141C543.699 347.699 543.469 347.341 543.185 347.341C542.901 347.341 542.67 347.699 542.67 348.141C542.67 348.582 542.901 348.94 543.185 348.94Z" fill="black"/>
<path d="M543.185 337.719C543.469 337.719 543.699 337.361 543.699 336.92C543.699 336.478 543.469 336.121 543.185 336.121C542.901 336.121 542.67 336.478 542.67 336.92C542.67 337.361 542.901 337.719 543.185 337.719Z" fill="black"/>
<path d="M560.332 359.654C560.616 359.654 560.846 359.296 560.846 358.855C560.846 358.413 560.616 358.056 560.332 358.056C560.048 358.056 559.818 358.413 559.818 358.855C559.818 359.296 560.048 359.654 560.332 359.654Z" fill="black"/>
<path d="M560.332 348.441C560.616 348.441 560.846 348.083 560.846 347.642C560.846 347.201 560.616 346.843 560.332 346.843C560.048 346.843 559.818 347.201 559.818 347.642C559.818 348.083 560.048 348.441 560.332 348.441Z" fill="black"/>
<path d="M719.581 345.909V362.479L740.859 375.599V359.037L719.581 345.909Z" fill="white" stroke="black" stroke-width="0.83" stroke-linecap="round" stroke-linejoin="round"/>
<path d="M738.794 372.457C738.99 372.457 739.15 372.209 739.15 371.903C739.15 371.597 738.99 371.349 738.794 371.349C738.597 371.349 738.438 371.597 738.438 371.903C738.438 372.209 738.597 372.457 738.794 372.457Z" fill="black"/>
<path d="M738.794 361.245C738.99 361.245 739.15 360.997 739.15 360.691C739.15 360.385 738.99 360.137 738.794 360.137C738.597 360.137 738.438 360.385 738.438 360.691C738.438 360.997 738.597 361.245 738.794 361.245Z" fill="black"/>
<path d="M721.638 361.957C721.922 361.957 722.153 361.599 722.153 361.158C722.153 360.716 721.922 360.358 721.638 360.358C721.354 360.358 721.124 360.716 721.124 361.158C721.124 361.599 721.354 361.957 721.638 361.957Z" fill="black"/>
<path d="M721.638 350.744C721.922 350.744 722.153 350.386 722.153 349.945C722.153 349.503 721.922 349.146 721.638 349.146C721.354 349.146 721.124 349.503 721.124 349.945C721.124 350.386 721.354 350.744 721.638 350.744Z" fill="black"/>
<path d="M738.794 372.679C739.078 372.679 739.308 372.321 739.308 371.879C739.308 371.438 739.078 371.08 738.794 371.08C738.51 371.08 738.279 371.438 738.279 371.879C738.279 372.321 738.51 372.679 738.794 372.679Z" fill="black"/>
<path d="M738.794 361.466C739.078 361.466 739.308 361.108 739.308 360.666C739.308 360.225 739.078 359.867 738.794 359.867C738.51 359.867 738.279 360.225 738.279 360.666C738.279 361.108 738.51 361.466 738.794 361.466Z" fill="black"/>
<path opacity="0.2" d="M605.579 315.666L565.847 294.3C565.625 294.181 565.437 294.005 565.304 293.79C565.171 293.576 565.097 293.33 565.089 293.077C565.081 292.824 565.139 292.574 565.258 292.351C565.378 292.129 565.554 291.941 565.768 291.808L604.154 268.069C604.585 267.805 605.078 267.658 605.583 267.643C606.088 267.628 606.588 267.744 607.035 267.982L646.774 289.347C646.996 289.467 647.183 289.644 647.315 289.859C647.447 290.074 647.521 290.32 647.528 290.573C647.535 290.825 647.476 291.075 647.356 291.298C647.236 291.52 647.06 291.707 646.845 291.84L608.451 315.579C608.023 315.846 607.531 315.996 607.027 316.011C606.522 316.026 606.022 315.907 605.579 315.666Z" fill="black"/>
<path d="M603.007 298.898L559.311 275.404C559.065 275.273 558.859 275.079 558.712 274.842C558.565 274.604 558.484 274.333 558.476 274.054C558.468 273.776 558.533 273.5 558.666 273.255C558.799 273.009 558.994 272.804 559.232 272.658L601.44 246.545C601.913 246.253 602.454 246.09 603.01 246.074C603.566 246.057 604.116 246.187 604.605 246.45L648.309 269.976C648.553 270.108 648.758 270.302 648.903 270.538C649.049 270.774 649.129 271.045 649.137 271.322C649.145 271.599 649.08 271.874 648.949 272.118C648.817 272.362 648.624 272.568 648.388 272.714L606.164 298.827C605.69 299.114 605.149 299.272 604.595 299.284C604.041 299.297 603.493 299.163 603.007 298.898Z" fill="white" stroke="black" stroke-width="0.83" stroke-linecap="round" stroke-linejoin="round"/>
<path d="M603.007 284.425L559.311 260.915C559.067 260.783 558.862 260.589 558.717 260.353C558.571 260.117 558.491 259.846 558.483 259.569C558.474 259.292 558.54 259.017 558.671 258.773C558.803 258.529 558.996 258.323 559.232 258.177L601.44 232.064C601.913 231.772 602.454 231.609 603.01 231.593C603.566 231.576 604.116 231.706 604.605 231.97L648.309 255.487C648.554 255.618 648.761 255.813 648.908 256.05C649.055 256.287 649.136 256.558 649.144 256.837C649.152 257.116 649.087 257.391 648.954 257.637C648.821 257.882 648.626 258.087 648.388 258.233L606.164 284.346C605.691 284.634 605.15 284.793 604.596 284.807C604.042 284.821 603.494 284.689 603.007 284.425Z" fill="white" stroke="black" stroke-width="0.83" stroke-linecap="round" stroke-linejoin="round"/>
<path d="M603.007 269.937L559.311 246.419C559.067 246.287 558.862 246.093 558.717 245.857C558.571 245.621 558.491 245.35 558.483 245.073C558.474 244.796 558.54 244.521 558.671 244.277C558.803 244.033 558.996 243.827 559.232 243.681L601.44 217.568C601.913 217.276 602.454 217.113 603.01 217.097C603.566 217.08 604.116 217.21 604.605 217.473L648.309 240.991C648.554 241.122 648.761 241.316 648.908 241.553C649.055 241.791 649.136 242.062 649.144 242.341C649.152 242.619 649.087 242.895 648.954 243.14C648.821 243.386 648.626 243.591 648.388 243.737L606.164 269.85C605.691 270.139 605.151 270.3 604.597 270.315C604.043 270.33 603.495 270.2 603.007 269.937Z" fill="white" stroke="black" stroke-width="0.83" stroke-linecap="round" stroke-linejoin="round"/>
<path d="M603.007 255.448L559.311 231.93C559.067 231.798 558.862 231.604 558.717 231.368C558.571 231.132 558.491 230.862 558.483 230.584C558.474 230.307 558.54 230.032 558.671 229.788C558.803 229.544 558.996 229.338 559.232 229.193L601.44 203.08C601.913 202.787 602.454 202.625 603.01 202.608C603.566 202.591 604.116 202.721 604.605 202.985L648.309 226.502C648.553 226.634 648.758 226.828 648.903 227.064C649.049 227.301 649.129 227.571 649.137 227.848C649.145 228.126 649.08 228.4 648.949 228.644C648.817 228.889 648.624 229.094 648.388 229.24L606.164 255.353C605.692 255.644 605.152 255.806 604.598 255.822C604.044 255.839 603.495 255.71 603.007 255.448Z" fill="white" stroke="black" stroke-width="0.83" stroke-linecap="round" stroke-linejoin="round"/>
<path d="M605.133 238.704C612.142 237.162 616.89 231.67 615.738 226.437C614.587 221.205 607.972 218.213 600.964 219.755C593.955 221.297 589.208 226.789 590.359 232.022C591.51 237.255 598.125 240.247 605.133 238.704Z" fill="#FFDB7C" stroke="black" stroke-width="0.83" stroke-linecap="round" stroke-linejoin="round"/>
<path d="M598.338 234.012C600.177 234.923 602.279 235.156 604.273 234.668C608.293 233.774 611.007 230.617 610.334 227.618C610.151 226.928 609.819 226.287 609.361 225.74C608.903 225.193 608.33 224.754 607.683 224.453" fill="#FFDB7C"/>
<path d="M598.338 234.012C600.177 234.923 602.279 235.156 604.273 234.668C608.293 233.774 611.007 230.617 610.334 227.618C610.151 226.928 609.819 226.287 609.361 225.74C608.903 225.193 608.33 224.754 607.683 224.453" stroke="black" stroke-width="0.83" stroke-linecap="round" stroke-linejoin="round"/>
<path d="M599.417 230.637C599.598 230.168 599.288 229.612 598.725 229.395C598.163 229.178 597.56 229.382 597.379 229.851C597.198 230.32 597.508 230.876 598.071 231.093C598.633 231.31 599.236 231.106 599.417 230.637Z" fill="black"/>
<path d="M604.067 225.66C604.248 225.191 603.939 224.635 603.376 224.418C602.813 224.201 602.211 224.405 602.03 224.874C601.849 225.343 602.158 225.899 602.721 226.116C603.284 226.333 603.887 226.129 604.067 225.66Z" fill="black"/>
<path d="M767.383 233.386L768.396 237.161C768.619 237.99 769.039 238.754 769.621 239.386C770.202 240.018 770.928 240.501 771.735 240.793L773.904 241.584L771.735 242.375C770.927 242.669 770.202 243.153 769.621 243.787C769.039 244.42 768.619 245.185 768.396 246.015L767.383 249.782L766.378 246.015C766.155 245.185 765.735 244.42 765.154 243.787C764.573 243.153 763.847 242.669 763.039 242.375L760.871 241.584L763.039 240.793C763.847 240.501 764.573 240.018 765.154 239.386C765.735 238.754 766.155 237.99 766.378 237.161L767.383 233.386Z" fill="white" stroke="black" stroke-width="0.83" stroke-linecap="round" stroke-linejoin="round"/>
<path d="M783.186 211.855L785.093 218.977C785.517 220.547 786.314 221.991 787.416 223.187C788.518 224.383 789.893 225.295 791.423 225.845L795.514 227.325L791.423 228.805C789.891 229.353 788.515 230.264 787.413 231.46C786.31 232.656 785.514 234.102 785.093 235.673L783.186 242.795L781.287 235.673C780.865 234.102 780.069 232.656 778.966 231.46C777.864 230.264 776.488 229.353 774.956 228.805L770.857 227.325L774.956 225.845C776.486 225.295 777.861 224.383 778.963 223.187C780.065 221.991 780.862 220.547 781.287 218.977L783.186 211.855Z" fill="white" stroke="black" stroke-width="0.83" stroke-linecap="round" stroke-linejoin="round"/>
<path opacity="0.2" d="M685.919 419.413L653.373 398.926V312.35L647.043 316.014V330.202L638.694 335.567V322.495C638.693 321.984 638.568 321.482 638.33 321.031L632.364 324.481V408.999C632.363 409.598 632.536 410.183 632.863 410.685C633.107 411.083 633.44 411.418 633.836 411.666L668.447 433.633C668.951 433.959 669.54 434.132 670.141 434.131C670.827 434.133 671.496 433.912 672.045 433.5C672.595 433.089 672.996 432.51 673.188 431.851C673.38 431.192 673.353 430.488 673.11 429.846C672.867 429.204 672.422 428.658 671.842 428.291L638.75 407.306H638.694V396.275L647.043 390.918V400.675C647.042 401.211 647.177 401.738 647.436 402.207C647.695 402.676 648.069 403.072 648.522 403.357L682.548 424.77C683.053 425.086 683.638 425.254 684.234 425.253C684.919 425.251 685.585 425.027 686.132 424.615C686.679 424.202 687.078 423.623 687.268 422.965C687.458 422.307 687.429 421.605 687.186 420.964C686.942 420.324 686.498 419.779 685.919 419.413ZM647.043 383.393L638.694 388.758V378.677L647.043 373.28V383.393ZM647.043 365.787L638.694 371.152V361.07L647.043 355.705V365.787ZM647.043 348.18L638.694 353.545V343.084L647.043 337.719V348.18Z" fill="black"/>
<path d="M689.67 421.779L655.019 306.66C654.909 306.289 654.721 305.944 654.469 305.65C654.217 305.356 653.905 305.117 653.555 304.951L650.319 303.131C650.131 303.011 649.929 302.915 649.717 302.846L649.535 302.799C649.323 302.745 649.105 302.718 648.886 302.72C648.206 302.721 647.549 302.971 647.04 303.423C646.532 303.875 646.206 304.497 646.125 305.173C646.085 305.55 646.117 305.931 646.22 306.296L651.521 323.895L644.827 327.654L640.965 314.724C640.858 314.364 640.677 314.03 640.435 313.742C640.193 313.455 639.894 313.221 639.557 313.054L636.392 311.297L635.854 310.997C635.707 310.925 635.553 310.869 635.395 310.831C635.184 310.783 634.969 310.76 634.754 310.759C634.485 310.759 634.219 310.799 633.962 310.878C633.447 311.029 632.986 311.328 632.638 311.737C632.289 312.146 632.068 312.648 632 313.181C631.952 313.568 631.984 313.962 632.095 314.336L666.596 428.956C666.771 429.542 667.135 430.054 667.632 430.412H667.672L668.107 430.657L671.328 432.477L671.391 432.517C671.562 432.616 671.742 432.698 671.929 432.762L672.127 432.817C672.347 432.873 672.573 432.902 672.799 432.904C673.068 432.904 673.334 432.864 673.591 432.786C674.293 432.57 674.882 432.086 675.228 431.438C675.575 430.79 675.652 430.032 675.442 429.328L662.782 387.278L669.381 383.488L680.776 421.343C680.947 421.93 681.312 422.441 681.812 422.792L682.358 423.1L685.523 424.92C685.692 425.019 685.869 425.101 686.054 425.165C686.341 425.266 686.643 425.317 686.948 425.316C687.216 425.313 687.482 425.273 687.739 425.197C688.096 425.11 688.432 424.953 688.727 424.734C689.022 424.515 689.27 424.24 689.456 423.923C689.636 423.599 689.748 423.242 689.785 422.873C689.822 422.504 689.783 422.132 689.67 421.779ZM666.722 374.617L660.123 378.415L657.749 370.4L664.34 366.601L666.722 374.617ZM661.634 357.699L655.035 361.497L652.621 353.497L659.221 349.699L661.634 357.699ZM656.538 340.781L649.947 344.572L647.533 336.556L654.125 332.758L656.538 340.781Z" fill="#FFDB7C" stroke="black" stroke-width="0.83" stroke-linecap="round" stroke-linejoin="round"/>
<path d="M672.799 432.944C672.572 432.942 672.347 432.913 672.127 432.857L671.929 432.801C671.507 432.66 671.125 432.419 670.816 432.1C670.506 431.781 670.277 431.392 670.149 430.966L635.648 316.346C635.533 315.969 635.501 315.573 635.553 315.183C635.622 314.651 635.843 314.151 636.19 313.742C636.537 313.334 636.994 313.034 637.507 312.88C637.765 312.805 638.031 312.765 638.299 312.761C638.515 312.764 638.73 312.79 638.94 312.84C639.412 312.953 639.848 313.188 640.202 313.521C640.555 313.854 640.816 314.274 640.958 314.74L645.879 331.096L654.987 325.849L649.693 308.259C649.585 307.895 649.55 307.513 649.591 307.135C649.65 306.591 649.867 306.076 650.216 305.654C650.565 305.232 651.03 304.922 651.553 304.761C651.81 304.687 652.076 304.647 652.344 304.643C652.56 304.645 652.775 304.671 652.985 304.722L653.167 304.769H653.207C653.63 304.91 654.013 305.15 654.325 305.469C654.636 305.789 654.866 306.178 654.995 306.605L689.646 421.731C689.856 422.436 689.778 423.196 689.429 423.843C689.081 424.491 688.49 424.975 687.787 425.189C687.53 425.265 687.263 425.305 686.995 425.308C686.691 425.309 686.389 425.258 686.101 425.157C685.682 425.013 685.302 424.772 684.994 424.452C684.686 424.133 684.458 423.746 684.329 423.322L671.905 382.032L662.789 387.27L675.45 429.32C675.66 430.024 675.583 430.782 675.236 431.43C674.89 432.078 674.301 432.562 673.599 432.778C673.342 432.873 673.073 432.929 672.799 432.944ZM661.159 381.858L670.275 376.611L666.825 365.153L657.717 370.4L661.159 381.858ZM656.071 364.94L665.179 359.693L661.737 348.235L652.621 353.497L656.071 364.94ZM650.975 348.014L660.091 342.767L656.641 331.341L647.533 336.587L650.975 348.014Z" fill="#FFDB7C" stroke="black" stroke-width="0.83" stroke-linecap="round" stroke-linejoin="round"/>
<path d="M654.995 325.849L651.45 323.863" stroke="black" stroke-width="0.83" stroke-linecap="round" stroke-linejoin="round"/>
<path d="M660.091 342.767L656.538 340.781" stroke="black" stroke-width="0.83" stroke-linecap="round" stroke-linejoin="round"/>
<path d="M665.179 359.693L661.634 357.699" stroke="black" stroke-width="0.83" stroke-linecap="round" stroke-linejoin="round"/>
<path d="M670.275 376.611L666.722 374.617" stroke="black" stroke-width="0.83" stroke-linecap="round" stroke-linejoin="round"/>
<path d="M555.505 330.217V346.779L569.297 355.325V338.763L555.505 330.217Z" fill="#FFDB7C" stroke="black" stroke-width="0.83" stroke-linecap="round" stroke-linejoin="round"/>
<path d="M567.232 352.184C567.429 352.184 567.588 351.936 567.588 351.63C567.588 351.324 567.429 351.076 567.232 351.076C567.035 351.076 566.876 351.324 566.876 351.63C566.876 351.936 567.035 352.184 567.232 352.184Z" fill="black"/>
<path d="M567.232 340.971C567.429 340.971 567.588 340.723 567.588 340.417C567.588 340.111 567.429 339.863 567.232 339.863C567.035 339.863 566.876 340.111 566.876 340.417C566.876 340.723 567.035 340.971 567.232 340.971Z" fill="black"/>
<path d="M557.563 346.265C557.847 346.265 558.077 345.907 558.077 345.466C558.077 345.024 557.847 344.667 557.563 344.667C557.278 344.667 557.048 345.024 557.048 345.466C557.048 345.907 557.278 346.265 557.563 346.265Z" fill="black"/>
<path d="M557.563 335.052C557.847 335.052 558.077 334.695 558.077 334.253C558.077 333.812 557.847 333.454 557.563 333.454C557.278 333.454 557.048 333.812 557.048 334.253C557.048 334.695 557.278 335.052 557.563 335.052Z" fill="black"/>
<path d="M567.232 352.406C567.516 352.406 567.747 352.048 567.747 351.606C567.747 351.165 567.516 350.807 567.232 350.807C566.948 350.807 566.718 351.165 566.718 351.606C566.718 352.048 566.948 352.406 567.232 352.406Z" fill="black"/>
<path d="M567.232 341.193C567.516 341.193 567.747 340.835 567.747 340.393C567.747 339.952 567.516 339.594 567.232 339.594C566.948 339.594 566.718 339.952 566.718 340.393C566.718 340.835 566.948 341.193 567.232 341.193Z" fill="black"/>
<path d="M132.6 180H126.75V151.8H109.4V180H103.55V146.65H132.6V180ZM152.533 180.6C149.333 180.6 146.749 179.283 144.783 176.65V189.2H139.533V155.85H144.783V159.15C146.716 156.55 149.299 155.25 152.533 155.25C155.699 155.25 158.266 156.383 160.233 158.65C162.233 160.917 163.233 164 163.233 167.9C163.233 171.8 162.233 174.9 160.233 177.2C158.266 179.467 155.699 180.6 152.533 180.6ZM150.983 175.95C153.049 175.95 154.699 175.2 155.933 173.7C157.166 172.2 157.783 170.267 157.783 167.9C157.783 165.533 157.166 163.617 155.933 162.15C154.699 160.65 153.049 159.9 150.983 159.9C149.783 159.9 148.599 160.217 147.433 160.85C146.266 161.483 145.383 162.25 144.783 163.15V172.7C145.383 173.6 146.266 174.367 147.433 175C148.599 175.633 149.783 175.95 150.983 175.95ZM179.339 180.6C175.606 180.6 172.606 179.383 170.339 176.95C168.072 174.483 166.939 171.467 166.939 167.9C166.939 164.333 168.072 161.333 170.339 158.9C172.606 156.467 175.606 155.25 179.339 155.25C183.106 155.25 186.122 156.467 188.389 158.9C190.656 161.333 191.789 164.333 191.789 167.9C191.789 171.5 190.656 174.517 188.389 176.95C186.122 179.383 183.106 180.6 179.339 180.6ZM179.339 175.95C181.506 175.95 183.206 175.183 184.439 173.65C185.706 172.083 186.339 170.167 186.339 167.9C186.339 165.667 185.706 163.783 184.439 162.25C183.206 160.683 181.506 159.9 179.339 159.9C177.206 159.9 175.506 160.683 174.239 162.25C173.006 163.783 172.389 165.667 172.389 167.9C172.389 170.167 173.006 172.083 174.239 173.65C175.506 175.183 177.206 175.95 179.339 175.95ZM215.401 155.85V160.45H202.351V180H197.101V155.85H215.401ZM232.709 180.6C229.509 180.6 226.925 179.283 224.959 176.65V189.2H219.709V155.85H224.959V159.15C226.892 156.55 229.475 155.25 232.709 155.25C235.875 155.25 238.442 156.383 240.409 158.65C242.409 160.917 243.409 164 243.409 167.9C243.409 171.8 242.409 174.9 240.409 177.2C238.442 179.467 235.875 180.6 232.709 180.6ZM231.159 175.95C233.225 175.95 234.875 175.2 236.109 173.7C237.342 172.2 237.959 170.267 237.959 167.9C237.959 165.533 237.342 163.617 236.109 162.15C234.875 160.65 233.225 159.9 231.159 159.9C229.959 159.9 228.775 160.217 227.609 160.85C226.442 161.483 225.559 162.25 224.959 163.15V172.7C225.559 173.6 226.442 174.367 227.609 175C228.775 175.633 229.959 175.95 231.159 175.95ZM268.615 180H263.365V177.4C261.498 179.533 258.898 180.6 255.565 180.6C253.365 180.6 251.415 179.9 249.715 178.5C248.015 177.067 247.165 175.1 247.165 172.6C247.165 170.033 247.998 168.083 249.665 166.75C251.365 165.417 253.332 164.75 255.565 164.75C258.998 164.75 261.598 165.783 263.365 167.85V164.25C263.365 162.85 262.848 161.75 261.815 160.95C260.782 160.15 259.415 159.75 257.715 159.75C255.015 159.75 252.632 160.767 250.565 162.8L248.415 159.15C251.148 156.55 254.532 155.25 258.565 155.25C261.532 155.25 263.948 155.95 265.815 157.35C267.682 158.75 268.615 160.967 268.615 164V180ZM257.615 177C260.248 177 262.165 176.167 263.365 174.5V170.85C262.165 169.183 260.248 168.35 257.615 168.35C256.115 168.35 254.882 168.75 253.915 169.55C252.948 170.35 252.465 171.4 252.465 172.7C252.465 174 252.948 175.05 253.915 175.85C254.882 176.617 256.115 177 257.615 177ZM302.471 180H297.221V163.2L290.021 180H287.921L280.671 163.2V180H275.421V155.85H282.271L288.971 171.45L295.571 155.85H302.471V180ZM336.309 180H331.059V163.2L323.859 180H321.759L314.509 163.2V180H309.259V155.85H316.109L322.809 171.45L329.409 155.85H336.309V180ZM343.097 155.85H348.347V164.6H356.897C359.464 164.6 361.431 165.333 362.797 166.8C364.197 168.267 364.897 170.1 364.897 172.3C364.897 174.467 364.181 176.3 362.747 177.8C361.347 179.267 359.397 180 356.897 180H343.097V155.85ZM356.247 169.2H348.347V175.4H356.247C357.281 175.4 358.081 175.117 358.647 174.55C359.247 173.983 359.547 173.233 359.547 172.3C359.547 171.367 359.247 170.617 358.647 170.05C358.081 169.483 357.281 169.2 356.247 169.2ZM373.797 180H368.547V155.85H373.797V180ZM101.4 239.15V228.4C102.733 228.267 103.767 227.933 104.5 227.4C105.233 226.867 105.9 225.767 106.5 224.1C107.133 222.433 107.633 220 108 216.8L109.95 199.65H132.6V227.85H135.7V239.15H129.85V233H107.25V239.15H101.4ZM113.8 217.2C113.233 222.133 111.767 225.683 109.4 227.85H126.75V204.8H115.2L113.8 217.2ZM169.221 233H163.371V204.8H146.021V233H140.171V199.65H169.221V233ZM204.104 228.75C200.904 231.983 196.821 233.6 191.854 233.6C186.887 233.6 182.804 231.983 179.604 228.75C176.404 225.483 174.804 221.35 174.804 216.35C174.804 211.35 176.404 207.233 179.604 204C182.804 200.733 186.887 199.1 191.854 199.1C196.821 199.1 200.904 200.733 204.104 204C207.304 207.233 208.904 211.35 208.904 216.35C208.904 221.35 207.304 225.483 204.104 228.75ZM191.854 228.4C195.154 228.4 197.821 227.267 199.854 225C201.887 222.7 202.904 219.817 202.904 216.35C202.904 212.85 201.887 209.967 199.854 207.7C197.821 205.433 195.154 204.3 191.854 204.3C188.521 204.3 185.837 205.433 183.804 207.7C181.804 209.967 180.804 212.85 180.804 216.35C180.804 219.85 181.804 222.733 183.804 225C185.837 227.267 188.521 228.4 191.854 228.4Z" fill="black"/>
<path d="M113.948 298H112.122V284.954H103.542V298H101.716V283.326H113.948V298ZM125.76 296.658C124.807 297.729 123.538 298.264 121.954 298.264C120.37 298.264 119.094 297.729 118.126 296.658C117.173 295.587 116.696 294.26 116.696 292.676C116.696 291.092 117.173 289.772 118.126 288.716C119.094 287.645 120.37 287.11 121.954 287.11C123.538 287.11 124.807 287.645 125.76 288.716C126.728 289.772 127.212 291.092 127.212 292.676C127.212 294.26 126.728 295.587 125.76 296.658ZM119.358 295.602C120.003 296.394 120.869 296.79 121.954 296.79C123.039 296.79 123.897 296.394 124.528 295.602C125.159 294.795 125.474 293.82 125.474 292.676C125.474 291.532 125.159 290.564 124.528 289.772C123.897 288.98 123.039 288.584 121.954 288.584C120.869 288.584 120.003 288.987 119.358 289.794C118.727 290.586 118.412 291.547 118.412 292.676C118.412 293.82 118.727 294.795 119.358 295.602ZM128.648 298.264V296.9C129.147 296.9 129.557 296.57 129.88 295.91C130.203 295.25 130.467 294.15 130.672 292.61L131.354 287.374H138.746V298H137.096V288.826H132.806L132.322 292.808C132.087 294.759 131.677 296.159 131.09 297.01C130.503 297.846 129.689 298.264 128.648 298.264ZM141.447 302.158L141.711 300.662C141.975 300.779 142.275 300.838 142.613 300.838C142.994 300.838 143.309 300.757 143.559 300.596C143.808 300.435 144.021 300.141 144.197 299.716L144.901 298.11L140.457 287.374H142.239L145.781 296.086L149.301 287.374H151.105L145.781 300.156C145.194 301.564 144.153 302.283 142.657 302.312C142.217 302.312 141.813 302.261 141.447 302.158ZM152.606 287.374H154.256V290.366C154.256 291.319 154.476 291.979 154.916 292.346C155.356 292.713 156.038 292.896 156.962 292.896C158.106 292.896 159.044 292.705 159.778 292.324V287.374H161.428V298H159.778V293.666C158.839 294.135 157.761 294.37 156.544 294.37C155.165 294.37 154.16 294.091 153.53 293.534C152.914 292.977 152.606 292.089 152.606 290.872V287.374ZM173.022 298H171.372V296.79C170.477 297.773 169.304 298.264 167.852 298.264C166.869 298.264 166.004 297.949 165.256 297.318C164.508 296.687 164.134 295.829 164.134 294.744C164.134 293.629 164.501 292.771 165.234 292.17C165.982 291.554 166.855 291.246 167.852 291.246C169.363 291.246 170.536 291.73 171.372 292.698V290.784C171.372 290.08 171.123 289.53 170.624 289.134C170.125 288.738 169.48 288.54 168.688 288.54C167.441 288.54 166.356 289.031 165.432 290.014L164.662 288.87C165.791 287.697 167.207 287.11 168.908 287.11C170.125 287.11 171.115 287.403 171.878 287.99C172.641 288.577 173.022 289.479 173.022 290.696V298ZM168.446 297.076C169.766 297.076 170.741 296.636 171.372 295.756V293.754C170.741 292.874 169.766 292.434 168.446 292.434C167.683 292.434 167.053 292.654 166.554 293.094C166.07 293.519 165.828 294.077 165.828 294.766C165.828 295.441 166.07 295.998 166.554 296.438C167.053 296.863 167.683 297.076 168.446 297.076ZM177.914 298H176.33V287.374H177.98V295.492L183.546 287.374H185.174V298H183.524V289.728L177.914 298ZM184.602 284.228C183.648 285.519 182.365 286.164 180.752 286.164C179.153 286.164 177.862 285.519 176.88 284.228L177.694 283.524C178.456 284.58 179.476 285.108 180.752 285.108C182.042 285.108 183.054 284.58 183.788 283.524L184.602 284.228ZM200.102 298H194.14V287.374H199.992C200.916 287.374 201.642 287.623 202.17 288.122C202.713 288.621 202.984 289.281 202.984 290.102C202.984 290.703 202.816 291.224 202.478 291.664C202.156 292.089 201.752 292.375 201.268 292.522C201.811 292.654 202.266 292.969 202.632 293.468C203.014 293.967 203.204 294.517 203.204 295.118C203.204 295.983 202.926 296.68 202.368 297.208C201.826 297.736 201.07 298 200.102 298ZM199.772 296.548C200.3 296.548 200.718 296.401 201.026 296.108C201.334 295.815 201.488 295.419 201.488 294.92C201.488 294.465 201.334 294.077 201.026 293.754C200.718 293.431 200.3 293.27 199.772 293.27H195.79V296.548H199.772ZM199.706 291.818C200.205 291.818 200.594 291.686 200.872 291.422C201.151 291.143 201.29 290.784 201.29 290.344C201.29 289.875 201.151 289.508 200.872 289.244C200.594 288.965 200.205 288.826 199.706 288.826H195.79V291.818H199.706ZM214.77 296.658C213.817 297.729 212.548 298.264 210.964 298.264C209.38 298.264 208.104 297.729 207.136 296.658C206.183 295.587 205.706 294.26 205.706 292.676C205.706 291.092 206.183 289.772 207.136 288.716C208.104 287.645 209.38 287.11 210.964 287.11C212.548 287.11 213.817 287.645 214.77 288.716C215.738 289.772 216.222 291.092 216.222 292.676C216.222 294.26 215.738 295.587 214.77 296.658ZM208.368 295.602C209.013 296.394 209.879 296.79 210.964 296.79C212.049 296.79 212.907 296.394 213.538 295.602C214.169 294.795 214.484 293.82 214.484 292.676C214.484 291.532 214.169 290.564 213.538 289.772C212.907 288.98 212.049 288.584 210.964 288.584C209.879 288.584 209.013 288.987 208.368 289.794C207.737 290.586 207.422 291.547 207.422 292.676C207.422 293.82 207.737 294.795 208.368 295.602ZM223.598 298.264C222.028 298.264 220.752 297.736 219.77 296.68C218.787 295.609 218.296 294.275 218.296 292.676C218.296 291.077 218.787 289.75 219.77 288.694C220.752 287.638 222.028 287.11 223.598 287.11C225.24 287.11 226.538 287.726 227.492 288.958L226.392 289.97C225.717 289.046 224.815 288.584 223.686 288.584C222.571 288.584 221.676 288.965 221.002 289.728C220.342 290.491 220.012 291.473 220.012 292.676C220.012 293.879 220.342 294.869 221.002 295.646C221.676 296.409 222.571 296.79 223.686 296.79C224.8 296.79 225.702 296.328 226.392 295.404L227.492 296.416C226.538 297.648 225.24 298.264 223.598 298.264ZM233.39 298H231.74V288.826H228.66V287.374H236.492V288.826H233.39V298ZM243.892 298.264C242.396 298.264 241.201 297.641 240.306 296.394V302.048H238.656V287.374H240.306V288.958C240.702 288.401 241.215 287.953 241.846 287.616C242.477 287.279 243.159 287.11 243.892 287.11C245.3 287.11 246.437 287.616 247.302 288.628C248.182 289.625 248.622 290.975 248.622 292.676C248.622 294.377 248.182 295.734 247.302 296.746C246.437 297.758 245.3 298.264 243.892 298.264ZM243.474 296.79C244.515 296.79 245.344 296.409 245.96 295.646C246.576 294.869 246.884 293.879 246.884 292.676C246.884 291.473 246.576 290.491 245.96 289.728C245.344 288.965 244.515 288.584 243.474 288.584C242.843 288.584 242.227 288.753 241.626 289.09C241.039 289.413 240.599 289.809 240.306 290.278V295.074C240.599 295.558 241.039 295.969 241.626 296.306C242.227 296.629 242.843 296.79 243.474 296.79ZM256.042 298.264C254.458 298.264 253.16 297.751 252.148 296.724C251.136 295.683 250.63 294.333 250.63 292.676C250.63 291.121 251.128 289.809 252.126 288.738C253.123 287.653 254.37 287.11 255.866 287.11C257.435 287.11 258.674 287.653 259.584 288.738C260.508 289.809 260.97 291.165 260.97 292.808V293.226H252.368C252.441 294.267 252.822 295.14 253.512 295.844C254.201 296.548 255.096 296.9 256.196 296.9C257.516 296.9 258.608 296.453 259.474 295.558L260.266 296.636C259.18 297.721 257.772 298.264 256.042 298.264ZM259.342 292.016C259.327 291.107 259.019 290.293 258.418 289.574C257.816 288.841 256.958 288.474 255.844 288.474C254.788 288.474 253.952 288.833 253.336 289.552C252.734 290.271 252.412 291.092 252.368 292.016H259.342ZM265.688 295.602C266.334 296.394 267.199 296.79 268.284 296.79C269.37 296.79 270.228 296.394 270.858 295.602C271.489 294.795 271.804 293.813 271.804 292.654C271.804 291.525 271.489 290.564 270.858 289.772C270.228 288.98 269.37 288.584 268.284 288.584C267.199 288.584 266.334 288.98 265.688 289.772C265.058 290.564 264.742 291.525 264.742 292.654C264.742 293.813 265.058 294.795 265.688 295.602ZM268.284 298.264C266.686 298.264 265.41 297.699 264.456 296.57C263.503 295.441 263.026 293.981 263.026 292.192C263.026 289.669 263.481 287.807 264.39 286.604C265.3 285.387 266.7 284.653 268.592 284.404C269.722 284.228 270.499 284.059 270.924 283.898C271.364 283.737 271.584 283.546 271.584 283.326H273.19C273.19 283.737 273.066 284.096 272.816 284.404C272.567 284.697 272.208 284.932 271.738 285.108C271.284 285.284 270.851 285.423 270.44 285.526C270.044 285.614 269.568 285.695 269.01 285.768C267.544 285.973 266.48 286.377 265.82 286.978C265.175 287.579 264.75 288.379 264.544 289.376C265.512 287.865 266.847 287.11 268.548 287.11C270.015 287.11 271.21 287.645 272.134 288.716C273.058 289.787 273.52 291.099 273.52 292.654C273.52 294.238 273.044 295.573 272.09 296.658C271.137 297.729 269.868 298.264 268.284 298.264ZM284.787 296.658C283.834 297.729 282.565 298.264 280.981 298.264C279.397 298.264 278.121 297.729 277.153 296.658C276.2 295.587 275.723 294.26 275.723 292.676C275.723 291.092 276.2 289.772 277.153 288.716C278.121 287.645 279.397 287.11 280.981 287.11C282.565 287.11 283.834 287.645 284.787 288.716C285.755 289.772 286.239 291.092 286.239 292.676C286.239 294.26 285.755 295.587 284.787 296.658ZM278.385 295.602C279.031 296.394 279.896 296.79 280.981 296.79C282.067 296.79 282.925 296.394 283.555 295.602C284.186 294.795 284.501 293.82 284.501 292.676C284.501 291.532 284.186 290.564 283.555 289.772C282.925 288.98 282.067 288.584 280.981 288.584C279.896 288.584 279.031 288.987 278.385 289.794C277.755 290.586 277.439 291.547 277.439 292.676C277.439 293.82 277.755 294.795 278.385 295.602ZM294.891 298H288.929V287.374H294.781C295.705 287.374 296.431 287.623 296.959 288.122C297.502 288.621 297.773 289.281 297.773 290.102C297.773 290.703 297.605 291.224 297.267 291.664C296.945 292.089 296.541 292.375 296.057 292.522C296.6 292.654 297.055 292.969 297.421 293.468C297.803 293.967 297.993 294.517 297.993 295.118C297.993 295.983 297.715 296.68 297.157 297.208C296.615 297.736 295.859 298 294.891 298ZM294.561 296.548C295.089 296.548 295.507 296.401 295.815 296.108C296.123 295.815 296.277 295.419 296.277 294.92C296.277 294.465 296.123 294.077 295.815 293.754C295.507 293.431 295.089 293.27 294.561 293.27H290.579V296.548H294.561ZM294.495 291.818C294.994 291.818 295.383 291.686 295.661 291.422C295.94 291.143 296.079 290.784 296.079 290.344C296.079 289.875 295.94 289.508 295.661 289.244C295.383 288.965 294.994 288.826 294.495 288.826H290.579V291.818H294.495ZM309.405 298H307.755V296.79C306.86 297.773 305.687 298.264 304.235 298.264C303.252 298.264 302.387 297.949 301.639 297.318C300.891 296.687 300.517 295.829 300.517 294.744C300.517 293.629 300.884 292.771 301.617 292.17C302.365 291.554 303.238 291.246 304.235 291.246C305.746 291.246 306.919 291.73 307.755 292.698V290.784C307.755 290.08 307.506 289.53 307.007 289.134C306.508 288.738 305.863 288.54 305.071 288.54C303.824 288.54 302.739 289.031 301.815 290.014L301.045 288.87C302.174 287.697 303.59 287.11 305.291 287.11C306.508 287.11 307.498 287.403 308.261 287.99C309.024 288.577 309.405 289.479 309.405 290.696V298ZM304.829 297.076C306.149 297.076 307.124 296.636 307.755 295.756V293.754C307.124 292.874 306.149 292.434 304.829 292.434C304.066 292.434 303.436 292.654 302.937 293.094C302.453 293.519 302.211 294.077 302.211 294.766C302.211 295.441 302.453 295.998 302.937 296.438C303.436 296.863 304.066 297.076 304.829 297.076ZM314.363 298H312.713V287.374H314.363V291.796H319.907V287.374H321.557V298H319.907V293.248H314.363V298ZM326.501 298H324.851V287.374H326.501V291.796H332.045V287.374H333.695V298H332.045V293.248H326.501V298ZM336.99 287.374H338.64V291.488H342.622C343.678 291.488 344.499 291.803 345.086 292.434C345.673 293.05 345.966 293.82 345.966 294.744C345.966 295.668 345.665 296.445 345.064 297.076C344.477 297.692 343.663 298 342.622 298H336.99V287.374ZM342.446 292.94H338.64V296.548H342.446C343.033 296.548 343.48 296.387 343.788 296.064C344.111 295.727 344.272 295.287 344.272 294.744C344.272 294.201 344.111 293.769 343.788 293.446C343.48 293.109 343.033 292.94 342.446 292.94ZM349.354 298H347.704V287.374H349.354V298ZM357.448 298.264C355.864 298.264 354.566 297.751 353.554 296.724C352.542 295.683 352.036 294.333 352.036 292.676C352.036 291.121 352.535 289.809 353.532 288.738C354.529 287.653 355.776 287.11 357.272 287.11C358.841 287.11 360.081 287.653 360.99 288.738C361.914 289.809 362.376 291.165 362.376 292.808V293.226H353.774C353.847 294.267 354.229 295.14 354.918 295.844C355.607 296.548 356.502 296.9 357.602 296.9C358.922 296.9 360.015 296.453 360.88 295.558L361.672 296.636C360.587 297.721 359.179 298.264 357.448 298.264ZM360.748 292.016C360.733 291.107 360.425 290.293 359.824 289.574C359.223 288.841 358.365 288.474 357.25 288.474C356.194 288.474 355.358 288.833 354.742 289.552C354.141 290.271 353.818 291.092 353.774 292.016H360.748ZM105.412 325.264C103.373 325.264 101.775 324.685 100.616 323.526L101.43 322.47C102.427 323.423 103.755 323.9 105.412 323.9C106.365 323.9 107.121 323.731 107.678 323.394C108.25 323.057 108.536 322.609 108.536 322.052C108.536 320.879 107.421 320.292 105.192 320.292H102.816V318.95H105.192C106.116 318.95 106.871 318.803 107.458 318.51C108.045 318.202 108.338 317.755 108.338 317.168C108.338 316.669 108.045 316.266 107.458 315.958C106.871 315.635 106.131 315.474 105.236 315.474C103.755 315.474 102.567 315.929 101.672 316.838L100.814 315.826C101.914 314.697 103.366 314.132 105.17 314.132C106.622 314.117 107.795 314.367 108.69 314.88C109.599 315.379 110.054 316.075 110.054 316.97C110.054 317.703 109.753 318.297 109.152 318.752C108.565 319.207 107.913 319.478 107.194 319.566C107.942 319.625 108.639 319.874 109.284 320.314C109.944 320.754 110.274 321.37 110.274 322.162C110.274 323.071 109.834 323.819 108.954 324.406C108.089 324.978 106.908 325.264 105.412 325.264ZM114.601 325H112.951V314.374H114.601V318.796H120.145V314.374H121.795V325H120.145V320.248H114.601V325ZM133.383 325H131.733V323.79C130.839 324.773 129.665 325.264 128.213 325.264C127.231 325.264 126.365 324.949 125.617 324.318C124.869 323.687 124.495 322.829 124.495 321.744C124.495 320.629 124.862 319.771 125.595 319.17C126.343 318.554 127.216 318.246 128.213 318.246C129.724 318.246 130.897 318.73 131.733 319.698V317.784C131.733 317.08 131.484 316.53 130.985 316.134C130.487 315.738 129.841 315.54 129.049 315.54C127.803 315.54 126.717 316.031 125.793 317.014L125.023 315.87C126.153 314.697 127.568 314.11 129.269 314.11C130.487 314.11 131.477 314.403 132.239 314.99C133.002 315.577 133.383 316.479 133.383 317.696V325ZM128.807 324.076C130.127 324.076 131.103 323.636 131.733 322.756V320.754C131.103 319.874 130.127 319.434 128.807 319.434C128.045 319.434 127.414 319.654 126.915 320.094C126.431 320.519 126.189 321.077 126.189 321.766C126.189 322.441 126.431 322.998 126.915 323.438C127.414 323.863 128.045 324.076 128.807 324.076ZM138.341 325H136.691V314.374H138.341V318.796H143.885V314.374H145.535V325H143.885V320.248H138.341V325ZM150.414 325H148.83V314.374H150.48V322.492L156.046 314.374H157.674V325H156.024V316.728L150.414 325ZM162.552 325H160.616L163.454 320.82C162.648 320.717 161.988 320.38 161.474 319.808C160.976 319.236 160.726 318.51 160.726 317.63C160.726 316.691 161.027 315.914 161.628 315.298C162.23 314.682 163.051 314.374 164.092 314.374H169.702V325H168.052V320.886H165.148L162.552 325ZM164.268 319.434H168.052V315.826H164.268C163.696 315.826 163.242 315.995 162.904 316.332C162.582 316.655 162.42 317.087 162.42 317.63C162.42 318.173 162.582 318.613 162.904 318.95C163.227 319.273 163.682 319.434 164.268 319.434ZM180.255 325H178.671V314.374H180.321V322.492L185.887 314.374H187.515V325H185.865V316.728L180.255 325ZM198.132 325H196.482V314.374H198.132V318.796H203.676V314.374H205.326V325H203.676V320.248H198.132V325ZM216.915 325H215.265V323.79C214.37 324.773 213.197 325.264 211.745 325.264C210.762 325.264 209.897 324.949 209.149 324.318C208.401 323.687 208.027 322.829 208.027 321.744C208.027 320.629 208.393 319.771 209.127 319.17C209.875 318.554 210.747 318.246 211.745 318.246C213.255 318.246 214.429 318.73 215.265 319.698V317.784C215.265 317.08 215.015 316.53 214.517 316.134C214.018 315.738 213.373 315.54 212.581 315.54C211.334 315.54 210.249 316.031 209.325 317.014L208.555 315.87C209.684 314.697 211.099 314.11 212.801 314.11C214.018 314.11 215.008 314.403 215.771 314.99C216.533 315.577 216.915 316.479 216.915 317.696V325ZM212.339 324.076C213.659 324.076 214.634 323.636 215.265 322.756V320.754C214.634 319.874 213.659 319.434 212.339 319.434C211.576 319.434 210.945 319.654 210.447 320.094C209.963 320.519 209.721 321.077 209.721 321.766C209.721 322.441 209.963 322.998 210.447 323.438C210.945 323.863 211.576 324.076 212.339 324.076ZM226.184 325H220.222V314.374H226.074C226.998 314.374 227.724 314.623 228.252 315.122C228.795 315.621 229.066 316.281 229.066 317.102C229.066 317.703 228.898 318.224 228.56 318.664C228.238 319.089 227.834 319.375 227.35 319.522C227.893 319.654 228.348 319.969 228.714 320.468C229.096 320.967 229.286 321.517 229.286 322.118C229.286 322.983 229.008 323.68 228.45 324.208C227.908 324.736 227.152 325 226.184 325ZM225.854 323.548C226.382 323.548 226.8 323.401 227.108 323.108C227.416 322.815 227.57 322.419 227.57 321.92C227.57 321.465 227.416 321.077 227.108 320.754C226.8 320.431 226.382 320.27 225.854 320.27H221.872V323.548H225.854ZM225.788 318.818C226.287 318.818 226.676 318.686 226.954 318.422C227.233 318.143 227.372 317.784 227.372 317.344C227.372 316.875 227.233 316.508 226.954 316.244C226.676 315.965 226.287 315.826 225.788 315.826H221.872V318.818H225.788ZM232.404 314.374H234.054V318.488H238.036C239.092 318.488 239.913 318.803 240.5 319.434C241.087 320.05 241.38 320.82 241.38 321.744C241.38 322.668 241.079 323.445 240.478 324.076C239.891 324.692 239.077 325 238.036 325H232.404V314.374ZM237.86 319.94H234.054V323.548H237.86C238.447 323.548 238.894 323.387 239.202 323.064C239.525 322.727 239.686 322.287 239.686 321.744C239.686 321.201 239.525 320.769 239.202 320.446C238.894 320.109 238.447 319.94 237.86 319.94ZM244.768 325H243.118V314.374H244.768V325ZM257.416 325H255.304L251.476 320.226L249.716 321.964V325H248.066V314.374H249.716V320.028L255.304 314.374H257.394L252.686 319.192L257.416 325ZM260.951 325H259.367V314.374H261.017V322.492L266.583 314.374H268.211V325H266.561V316.728L260.951 325ZM103.3 352H101.65V341.374H103.3V345.796H108.844V341.374H110.494V352H108.844V347.248H103.3V352ZM122.083 352H120.433V350.79C119.538 351.773 118.365 352.264 116.913 352.264C115.93 352.264 115.065 351.949 114.317 351.318C113.569 350.687 113.195 349.829 113.195 348.744C113.195 347.629 113.561 346.771 114.295 346.17C115.043 345.554 115.915 345.246 116.913 345.246C118.423 345.246 119.597 345.73 120.433 346.698V344.784C120.433 344.08 120.183 343.53 119.685 343.134C119.186 342.738 118.541 342.54 117.749 342.54C116.502 342.54 115.417 343.031 114.493 344.014L113.723 342.87C114.852 341.697 116.267 341.11 117.969 341.11C119.186 341.11 120.176 341.403 120.939 341.99C121.701 342.577 122.083 343.479 122.083 344.696V352ZM117.507 351.076C118.827 351.076 119.802 350.636 120.433 349.756V347.754C119.802 346.874 118.827 346.434 117.507 346.434C116.744 346.434 116.113 346.654 115.615 347.094C115.131 347.519 114.889 348.077 114.889 348.766C114.889 349.441 115.131 349.998 115.615 350.438C116.113 350.863 116.744 351.076 117.507 351.076ZM139.906 352H138.256V342.826H132.712V352H131.062V341.374H139.906V352ZM148.437 352.264C146.941 352.264 145.745 351.641 144.851 350.394V356.048H143.201V341.374H144.851V342.958C145.247 342.401 145.76 341.953 146.391 341.616C147.021 341.279 147.703 341.11 148.437 341.11C149.845 341.11 150.981 341.616 151.847 342.628C152.727 343.625 153.167 344.975 153.167 346.676C153.167 348.377 152.727 349.734 151.847 350.746C150.981 351.758 149.845 352.264 148.437 352.264ZM148.019 350.79C149.06 350.79 149.889 350.409 150.505 349.646C151.121 348.869 151.429 347.879 151.429 346.676C151.429 345.473 151.121 344.491 150.505 343.728C149.889 342.965 149.06 342.584 148.019 342.584C147.388 342.584 146.772 342.753 146.171 343.09C145.584 343.413 145.144 343.809 144.851 344.278V349.074C145.144 349.558 145.584 349.969 146.171 350.306C146.772 350.629 147.388 350.79 148.019 350.79ZM164.239 350.658C163.285 351.729 162.017 352.264 160.433 352.264C158.849 352.264 157.573 351.729 156.605 350.658C155.651 349.587 155.175 348.26 155.175 346.676C155.175 345.092 155.651 343.772 156.605 342.716C157.573 341.645 158.849 341.11 160.433 341.11C162.017 341.11 163.285 341.645 164.239 342.716C165.207 343.772 165.691 345.092 165.691 346.676C165.691 348.26 165.207 349.587 164.239 350.658ZM157.837 349.602C158.482 350.394 159.347 350.79 160.433 350.79C161.518 350.79 162.376 350.394 163.007 349.602C163.637 348.795 163.953 347.82 163.953 346.676C163.953 345.532 163.637 344.564 163.007 343.772C162.376 342.98 161.518 342.584 160.433 342.584C159.347 342.584 158.482 342.987 157.837 343.794C157.206 344.586 156.891 345.547 156.891 346.676C156.891 347.82 157.206 348.795 157.837 349.602ZM175.816 341.374V342.826H170.03V352H168.38V341.374H175.816ZM183.199 352.264C181.703 352.264 180.507 351.641 179.613 350.394V356.048H177.963V341.374H179.613V342.958C180.009 342.401 180.522 341.953 181.153 341.616C181.783 341.279 182.465 341.11 183.199 341.11C184.607 341.11 185.743 341.616 186.609 342.628C187.489 343.625 187.928 344.975 187.928 346.676C187.928 348.377 187.489 349.734 186.609 350.746C185.743 351.758 184.607 352.264 183.199 352.264ZM182.78 350.79C183.822 350.79 184.651 350.409 185.267 349.646C185.883 348.869 186.191 347.879 186.191 346.676C186.191 345.473 185.883 344.491 185.267 343.728C184.651 342.965 183.822 342.584 182.78 342.584C182.15 342.584 181.534 342.753 180.933 343.09C180.346 343.413 179.906 343.809 179.613 344.278V349.074C179.906 349.558 180.346 349.969 180.933 350.306C181.534 350.629 182.15 350.79 182.78 350.79ZM198.846 352H197.196V350.79C196.302 351.773 195.128 352.264 193.676 352.264C192.694 352.264 191.828 351.949 191.08 351.318C190.332 350.687 189.958 349.829 189.958 348.744C189.958 347.629 190.325 346.771 191.058 346.17C191.806 345.554 192.679 345.246 193.676 345.246C195.187 345.246 196.36 345.73 197.196 346.698V344.784C197.196 344.08 196.947 343.53 196.448 343.134C195.95 342.738 195.304 342.54 194.512 342.54C193.266 342.54 192.18 343.031 191.256 344.014L190.486 342.87C191.616 341.697 193.031 341.11 194.732 341.11C195.95 341.11 196.94 341.403 197.702 341.99C198.465 342.577 198.846 343.479 198.846 344.696V352ZM194.27 351.076C195.59 351.076 196.566 350.636 197.196 349.756V347.754C196.566 346.874 195.59 346.434 194.27 346.434C193.508 346.434 192.877 346.654 192.378 347.094C191.894 347.519 191.652 348.077 191.652 348.766C191.652 349.441 191.894 349.998 192.378 350.438C192.877 350.863 193.508 351.076 194.27 351.076ZM213 352H211.35V343.662L207.896 352H207.28L203.804 343.662V352H202.154V341.374H204.332L207.588 349.25L210.8 341.374H213V352ZM227.137 352H225.487V343.662L222.033 352H221.417L217.941 343.662V352H216.291V341.374H218.469L221.725 349.25L224.937 341.374H227.137V352ZM238.721 352H237.071V350.79C236.177 351.773 235.003 352.264 233.551 352.264C232.569 352.264 231.703 351.949 230.955 351.318C230.207 350.687 229.833 349.829 229.833 348.744C229.833 347.629 230.2 346.771 230.933 346.17C231.681 345.554 232.554 345.246 233.551 345.246C235.062 345.246 236.235 345.73 237.071 346.698V344.784C237.071 344.08 236.822 343.53 236.323 343.134C235.825 342.738 235.179 342.54 234.387 342.54C233.141 342.54 232.055 343.031 231.131 344.014L230.361 342.87C231.491 341.697 232.906 341.11 234.607 341.11C235.825 341.11 236.815 341.403 237.577 341.99C238.34 342.577 238.721 343.479 238.721 344.696V352ZM234.145 351.076C235.465 351.076 236.441 350.636 237.071 349.756V347.754C236.441 346.874 235.465 346.434 234.145 346.434C233.383 346.434 232.752 346.654 232.253 347.094C231.769 347.519 231.527 348.077 231.527 348.766C231.527 349.441 231.769 349.998 232.253 350.438C232.752 350.863 233.383 351.076 234.145 351.076ZM250.829 352H248.915L245.725 347.644L242.535 352H240.643L244.713 346.544L240.863 341.374H242.777L245.725 345.422L248.673 341.374H250.587L246.737 346.544L250.829 352ZM257.454 354.706V350.526C258.099 350.482 258.613 350.328 258.994 350.064C259.375 349.8 259.72 349.243 260.028 348.392C260.351 347.541 260.615 346.309 260.82 344.696L261.722 337.326H270.698V350.372H272.04V354.706H270.214V352H259.28V354.706H257.454ZM262.624 344.828C262.287 347.659 261.539 349.507 260.38 350.372H268.872V338.954H263.35L262.624 344.828ZM286.596 352H284.77V338.954H276.19V352H274.364V337.326H286.596V352ZM296.715 352.264C294.559 352.264 292.806 351.545 291.457 350.108C290.107 348.671 289.433 346.859 289.433 344.674C289.433 342.489 290.107 340.677 291.457 339.24C292.806 337.803 294.559 337.084 296.715 337.084C298.856 337.084 300.601 337.803 301.951 339.24C303.315 340.677 303.997 342.489 303.997 344.674C303.997 346.859 303.315 348.671 301.951 350.108C300.601 351.545 298.856 352.264 296.715 352.264ZM296.715 350.636C298.328 350.636 299.626 350.079 300.609 348.964C301.606 347.835 302.105 346.405 302.105 344.674C302.105 342.929 301.606 341.499 300.609 340.384C299.626 339.269 298.328 338.712 296.715 338.712C295.087 338.712 293.781 339.269 292.799 340.384C291.816 341.499 291.325 342.929 291.325 344.674C291.325 346.405 291.816 347.835 292.799 348.964C293.781 350.079 295.087 350.636 296.715 350.636ZM100.396 381.706V377.636C100.939 377.533 101.364 377.211 101.672 376.668C101.98 376.111 102.229 375.091 102.42 373.61L103.102 368.374H110.494V377.548H111.726V381.706H110.076V379H102.046V381.706H100.396ZM104.554 369.826L104.07 373.808C103.821 375.671 103.307 376.917 102.53 377.548H108.844V369.826H104.554ZM112.728 379.264V377.9C113.227 377.9 113.637 377.57 113.96 376.91C114.283 376.25 114.547 375.15 114.752 373.61L115.434 368.374H122.826V379H121.176V369.826H116.886L116.402 373.808C116.167 375.759 115.757 377.159 115.17 378.01C114.583 378.846 113.769 379.264 112.728 379.264ZM127.705 379H125.769L128.607 374.82C127.8 374.717 127.14 374.38 126.627 373.808C126.128 373.236 125.879 372.51 125.879 371.63C125.879 370.691 126.179 369.914 126.781 369.298C127.382 368.682 128.203 368.374 129.245 368.374H134.855V379H133.205V374.886H130.301L127.705 379ZM129.421 373.434H133.205V369.826H129.421C128.849 369.826 128.394 369.995 128.057 370.332C127.734 370.655 127.573 371.087 127.573 371.63C127.573 372.173 127.734 372.613 128.057 372.95C128.379 373.273 128.834 373.434 129.421 373.434ZM149.06 379.264C147.564 379.264 146.368 378.641 145.474 377.394V383.048H143.824V368.374H145.474V369.958C145.87 369.401 146.383 368.953 147.014 368.616C147.644 368.279 148.326 368.11 149.06 368.11C150.468 368.11 151.604 368.616 152.47 369.628C153.35 370.625 153.79 371.975 153.79 373.676C153.79 375.377 153.35 376.734 152.47 377.746C151.604 378.758 150.468 379.264 149.06 379.264ZM148.642 377.79C149.683 377.79 150.512 377.409 151.128 376.646C151.744 375.869 152.052 374.879 152.052 373.676C152.052 372.473 151.744 371.491 151.128 370.728C150.512 369.965 149.683 369.584 148.642 369.584C148.011 369.584 147.395 369.753 146.794 370.09C146.207 370.413 145.767 370.809 145.474 371.278V376.074C145.767 376.558 146.207 376.969 146.794 377.306C147.395 377.629 148.011 377.79 148.642 377.79ZM164.708 379H163.058V377.79C162.163 378.773 160.99 379.264 159.538 379.264C158.555 379.264 157.69 378.949 156.942 378.318C156.194 377.687 155.82 376.829 155.82 375.744C155.82 374.629 156.186 373.771 156.92 373.17C157.668 372.554 158.54 372.246 159.538 372.246C161.048 372.246 162.222 372.73 163.058 373.698V371.784C163.058 371.08 162.808 370.53 162.31 370.134C161.811 369.738 161.166 369.54 160.374 369.54C159.127 369.54 158.042 370.031 157.118 371.014L156.348 369.87C157.477 368.697 158.892 368.11 160.594 368.11C161.811 368.11 162.801 368.403 163.564 368.99C164.326 369.577 164.708 370.479 164.708 371.696V379ZM160.132 378.076C161.452 378.076 162.427 377.636 163.058 376.756V374.754C162.427 373.874 161.452 373.434 160.132 373.434C159.369 373.434 158.738 373.654 158.24 374.094C157.756 374.519 157.514 375.077 157.514 375.766C157.514 376.441 157.756 376.998 158.24 377.438C158.738 377.863 159.369 378.076 160.132 378.076ZM171.777 379.264C169.739 379.264 168.14 378.685 166.981 377.526L167.795 376.47C168.793 377.423 170.12 377.9 171.777 377.9C172.731 377.9 173.486 377.731 174.043 377.394C174.615 377.057 174.901 376.609 174.901 376.052C174.901 374.879 173.787 374.292 171.557 374.292H169.181V372.95H171.557C172.481 372.95 173.237 372.803 173.823 372.51C174.41 372.202 174.703 371.755 174.703 371.168C174.703 370.669 174.41 370.266 173.823 369.958C173.237 369.635 172.496 369.474 171.601 369.474C170.12 369.474 168.932 369.929 168.037 370.838L167.179 369.826C168.279 368.697 169.731 368.132 171.535 368.132C172.987 368.117 174.161 368.367 175.055 368.88C175.965 369.379 176.419 370.075 176.419 370.97C176.419 371.703 176.119 372.297 175.517 372.752C174.931 373.207 174.278 373.478 173.559 373.566C174.307 373.625 175.004 373.874 175.649 374.314C176.309 374.754 176.639 375.37 176.639 376.162C176.639 377.071 176.199 377.819 175.319 378.406C174.454 378.978 173.273 379.264 171.777 379.264ZM185.278 379H179.316V368.374H185.168C186.092 368.374 186.818 368.623 187.346 369.122C187.889 369.621 188.16 370.281 188.16 371.102C188.16 371.703 187.991 372.224 187.654 372.664C187.331 373.089 186.928 373.375 186.444 373.522C186.987 373.654 187.441 373.969 187.808 374.468C188.189 374.967 188.38 375.517 188.38 376.118C188.38 376.983 188.101 377.68 187.544 378.208C187.001 378.736 186.246 379 185.278 379ZM184.948 377.548C185.476 377.548 185.894 377.401 186.202 377.108C186.51 376.815 186.664 376.419 186.664 375.92C186.664 375.465 186.51 375.077 186.202 374.754C185.894 374.431 185.476 374.27 184.948 374.27H180.966V377.548H184.948ZM184.882 372.818C185.381 372.818 185.769 372.686 186.048 372.422C186.327 372.143 186.466 371.784 186.466 371.344C186.466 370.875 186.327 370.508 186.048 370.244C185.769 369.965 185.381 369.826 184.882 369.826H180.966V372.818H184.882ZM193.082 379H191.498V368.374H193.148V376.492L198.714 368.374H200.342V379H198.692V370.728L193.082 379ZM207.222 379H205.572V369.826H202.492V368.374H210.324V369.826H207.222V379ZM214.072 379H212.488V368.374H214.138V376.492L219.704 368.374H221.332V379H219.682V370.728L214.072 379ZM226.211 379H224.275L227.113 374.82C226.306 374.717 225.646 374.38 225.133 373.808C224.634 373.236 224.385 372.51 224.385 371.63C224.385 370.691 224.685 369.914 225.287 369.298C225.888 368.682 226.709 368.374 227.751 368.374H233.361V379H231.711V374.886H228.807L226.211 379ZM227.927 373.434H231.711V369.826H227.927C227.355 369.826 226.9 369.995 226.563 370.332C226.24 370.655 226.079 371.087 226.079 371.63C226.079 372.173 226.24 372.613 226.563 372.95C226.885 373.273 227.34 373.434 227.927 373.434ZM247.016 379.264C245.446 379.264 244.17 378.736 243.188 377.68C242.205 376.609 241.714 375.275 241.714 373.676C241.714 372.077 242.205 370.75 243.188 369.694C244.17 368.638 245.446 368.11 247.016 368.11C248.658 368.11 249.956 368.726 250.91 369.958L249.81 370.97C249.135 370.046 248.233 369.584 247.104 369.584C245.989 369.584 245.094 369.965 244.42 370.728C243.76 371.491 243.43 372.473 243.43 373.676C243.43 374.879 243.76 375.869 244.42 376.646C245.094 377.409 245.989 377.79 247.104 377.79C248.218 377.79 249.12 377.328 249.81 376.404L250.91 377.416C249.956 378.648 248.658 379.264 247.016 379.264ZM259.184 379H253.222V368.374H259.074C259.998 368.374 260.724 368.623 261.252 369.122C261.795 369.621 262.066 370.281 262.066 371.102C262.066 371.703 261.898 372.224 261.56 372.664C261.238 373.089 260.834 373.375 260.35 373.522C260.893 373.654 261.348 373.969 261.714 374.468C262.096 374.967 262.286 375.517 262.286 376.118C262.286 376.983 262.008 377.68 261.45 378.208C260.908 378.736 260.152 379 259.184 379ZM258.854 377.548C259.382 377.548 259.8 377.401 260.108 377.108C260.416 376.815 260.57 376.419 260.57 375.92C260.57 375.465 260.416 375.077 260.108 374.754C259.8 374.431 259.382 374.27 258.854 374.27H254.872V377.548H258.854ZM258.788 372.818C259.287 372.818 259.676 372.686 259.954 372.422C260.233 372.143 260.372 371.784 260.372 371.344C260.372 370.875 260.233 370.508 259.954 370.244C259.676 369.965 259.287 369.826 258.788 369.826H254.872V372.818H258.788ZM273.852 377.658C272.899 378.729 271.63 379.264 270.046 379.264C268.462 379.264 267.186 378.729 266.218 377.658C265.265 376.587 264.788 375.26 264.788 373.676C264.788 372.092 265.265 370.772 266.218 369.716C267.186 368.645 268.462 368.11 270.046 368.11C271.63 368.11 272.899 368.645 273.852 369.716C274.82 370.772 275.304 372.092 275.304 373.676C275.304 375.26 274.82 376.587 273.852 377.658ZM267.45 376.602C268.095 377.394 268.961 377.79 270.046 377.79C271.131 377.79 271.989 377.394 272.62 376.602C273.251 375.795 273.566 374.82 273.566 373.676C273.566 372.532 273.251 371.564 272.62 370.772C271.989 369.98 271.131 369.584 270.046 369.584C268.961 369.584 268.095 369.987 267.45 370.794C266.819 371.586 266.504 372.547 266.504 373.676C266.504 374.82 266.819 375.795 267.45 376.602ZM282.79 379.264C281.206 379.264 279.908 378.751 278.896 377.724C277.884 376.683 277.378 375.333 277.378 373.676C277.378 372.121 277.876 370.809 278.874 369.738C279.871 368.653 281.118 368.11 282.614 368.11C284.183 368.11 285.422 368.653 286.332 369.738C287.256 370.809 287.718 372.165 287.718 373.808V374.226H279.116C279.189 375.267 279.57 376.14 280.26 376.844C280.949 377.548 281.844 377.9 282.944 377.9C284.264 377.9 285.356 377.453 286.222 376.558L287.014 377.636C285.928 378.721 284.52 379.264 282.79 379.264ZM286.09 373.016C286.075 372.107 285.767 371.293 285.166 370.574C284.564 369.841 283.706 369.474 282.592 369.474C281.536 369.474 280.7 369.833 280.084 370.552C279.482 371.271 279.16 372.092 279.116 373.016H286.09ZM291.974 379H290.39V368.374H292.04V376.492L297.606 368.374H299.234V379H297.584V370.728L291.974 379ZM298.662 365.228C297.709 366.519 296.426 367.164 294.812 367.164C293.214 367.164 291.923 366.519 290.94 365.228L291.754 364.524C292.517 365.58 293.536 366.108 294.812 366.108C296.103 366.108 297.115 365.58 297.848 364.524L298.662 365.228ZM317.551 379H315.439L311.611 374.226L309.851 375.964V379H308.201V368.374H309.851V374.028L315.439 368.374H317.529L312.821 373.192L317.551 379ZM327.796 379H326.146V377.79C325.251 378.773 324.078 379.264 322.626 379.264C321.643 379.264 320.778 378.949 320.03 378.318C319.282 377.687 318.908 376.829 318.908 375.744C318.908 374.629 319.274 373.771 320.008 373.17C320.756 372.554 321.628 372.246 322.626 372.246C324.136 372.246 325.31 372.73 326.146 373.698V371.784C326.146 371.08 325.896 370.53 325.398 370.134C324.899 369.738 324.254 369.54 323.462 369.54C322.215 369.54 321.13 370.031 320.206 371.014L319.436 369.87C320.565 368.697 321.98 368.11 323.682 368.11C324.899 368.11 325.889 368.403 326.652 368.99C327.414 369.577 327.796 370.479 327.796 371.696V379ZM323.22 378.076C324.54 378.076 325.515 377.636 326.146 376.756V374.754C325.515 373.874 324.54 373.434 323.22 373.434C322.457 373.434 321.826 373.654 321.328 374.094C320.844 374.519 320.602 375.077 320.602 375.766C320.602 376.441 320.844 376.998 321.328 377.438C321.826 377.863 322.457 378.076 323.22 378.076ZM336.339 379.264C334.843 379.264 333.648 378.641 332.753 377.394V383.048H331.103V368.374H332.753V369.958C333.149 369.401 333.662 368.953 334.293 368.616C334.924 368.279 335.606 368.11 336.339 368.11C337.747 368.11 338.884 368.616 339.749 369.628C340.629 370.625 341.069 371.975 341.069 373.676C341.069 375.377 340.629 376.734 339.749 377.746C338.884 378.758 337.747 379.264 336.339 379.264ZM335.921 377.79C336.962 377.79 337.791 377.409 338.407 376.646C339.023 375.869 339.331 374.879 339.331 373.676C339.331 372.473 339.023 371.491 338.407 370.728C337.791 369.965 336.962 369.584 335.921 369.584C335.29 369.584 334.674 369.753 334.073 370.09C333.486 370.413 333.046 370.809 332.753 371.278V376.074C333.046 376.558 333.486 376.969 334.073 377.306C334.674 377.629 335.29 377.79 335.921 377.79ZM343.693 368.374H345.343V372.488H349.325C350.381 372.488 351.202 372.803 351.789 373.434C352.376 374.05 352.669 374.82 352.669 375.744C352.669 376.668 352.368 377.445 351.767 378.076C351.18 378.692 350.366 379 349.325 379H343.693V368.374ZM349.149 373.94H345.343V377.548H349.149C349.736 377.548 350.183 377.387 350.491 377.064C350.814 376.727 350.975 376.287 350.975 375.744C350.975 375.201 350.814 374.769 350.491 374.446C350.183 374.109 349.736 373.94 349.149 373.94ZM359.983 379.264C358.399 379.264 357.101 378.751 356.089 377.724C355.077 376.683 354.571 375.333 354.571 373.676C354.571 372.121 355.07 370.809 356.067 369.738C357.064 368.653 358.311 368.11 359.807 368.11C361.376 368.11 362.616 368.653 363.525 369.738C364.449 370.809 364.911 372.165 364.911 373.808V374.226H356.309C356.382 375.267 356.764 376.14 357.453 376.844C358.142 377.548 359.037 377.9 360.137 377.9C361.457 377.9 362.55 377.453 363.415 376.558L364.207 377.636C363.122 378.721 361.714 379.264 359.983 379.264ZM363.283 373.016C363.268 372.107 362.96 371.293 362.359 370.574C361.758 369.841 360.9 369.474 359.785 369.474C358.729 369.474 357.893 369.833 357.277 370.552C356.676 371.271 356.353 372.092 356.309 373.016H363.283ZM372.82 379.264C371.324 379.264 370.128 378.641 369.234 377.394V383.048H367.584V368.374H369.234V369.958C369.63 369.401 370.143 368.953 370.774 368.616C371.404 368.279 372.086 368.11 372.82 368.11C374.228 368.11 375.364 368.616 376.23 369.628C377.11 370.625 377.55 371.975 377.55 373.676C377.55 375.377 377.11 376.734 376.23 377.746C375.364 378.758 374.228 379.264 372.82 379.264ZM372.402 377.79C373.443 377.79 374.272 377.409 374.888 376.646C375.504 375.869 375.812 374.879 375.812 373.676C375.812 372.473 375.504 371.491 374.888 370.728C374.272 369.965 373.443 369.584 372.402 369.584C371.771 369.584 371.155 369.753 370.554 370.09C369.967 370.413 369.527 370.809 369.234 371.278V376.074C369.527 376.558 369.967 376.969 370.554 377.306C371.155 377.629 371.771 377.79 372.402 377.79ZM380.173 368.374H381.823V372.488H385.805C386.861 372.488 387.683 372.803 388.269 373.434C388.856 374.05 389.149 374.82 389.149 375.744C389.149 376.668 388.849 377.445 388.247 378.076C387.661 378.692 386.847 379 385.805 379H380.173V368.374ZM385.629 373.94H381.823V377.548H385.629C386.216 377.548 386.663 377.387 386.971 377.064C387.294 376.727 387.455 376.287 387.455 375.744C387.455 375.201 387.294 374.769 386.971 374.446C386.663 374.109 386.216 373.94 385.629 373.94ZM392.537 379H390.887V368.374H392.537V379Z" fill="black"/>
<defs>
<linearGradient id="paint0_linear_664_1833" x1="717.761" y1="149.05" x2="683.134" y2="149.936" gradientUnits="userSpaceOnUse">
<stop stop-color="#A1ABB3"/>
<stop offset="0.13" stop-color="#ADB5BB"/>
<stop offset="0.45" stop-color="#C5C9CC"/>
<stop offset="0.75" stop-color="#D4D5D6"/>
<stop offset="1" stop-color="#D9D9D9"/>
</linearGradient>
<linearGradient id="paint1_linear_664_1833" x1="15594.7" y1="1693.94" x2="12974" y2="4049.38" gradientUnits="userSpaceOnUse">
<stop stop-color="#A1ABB3"/>
<stop offset="0.13" stop-color="#ADB5BB"/>
<stop offset="0.45" stop-color="#C5C9CC"/>
<stop offset="0.75" stop-color="#D4D5D6"/>
<stop offset="1" stop-color="#D9D9D9"/>
</linearGradient>
<linearGradient id="paint2_linear_664_1833" x1="757.207" y1="250.89" x2="757.207" y2="210.344" gradientUnits="userSpaceOnUse">
<stop stop-color="#FF862B"/>
<stop offset="0.31" stop-color="#FF9F43"/>
<stop offset="0.93" stop-color="#FFDB7C"/>
</linearGradient>
<linearGradient id="paint3_linear_664_1833" x1="752.127" y1="245.849" x2="761.931" y2="207.661" gradientUnits="userSpaceOnUse">
<stop offset="0.13" stop-color="#FFDB7C"/>
<stop offset="0.6" stop-color="#FFF1CD"/>
<stop offset="0.91" stop-color="white"/>
</linearGradient>
<linearGradient id="paint4_linear_664_1833" x1="787.965" y1="274.985" x2="759.787" y2="285.248" gradientUnits="userSpaceOnUse">
<stop stop-color="#FF862B"/>
<stop offset="0.18" stop-color="#FF8E33"/>
<stop offset="0.48" stop-color="#FFA549"/>
<stop offset="0.84" stop-color="#FFCA6C"/>
<stop offset="0.98" stop-color="#FFDB7C"/>
</linearGradient>
<linearGradient id="paint5_linear_664_1833" x1="9549.79" y1="3347.06" x2="8159.8" y2="3374.31" gradientUnits="userSpaceOnUse">
<stop stop-color="#FF862B"/>
<stop offset="0.18" stop-color="#FF8E33"/>
<stop offset="0.48" stop-color="#FFA549"/>
<stop offset="0.84" stop-color="#FFCA6C"/>
<stop offset="0.98" stop-color="#FFDB7C"/>
</linearGradient>
<linearGradient id="paint6_linear_664_1833" x1="4612.07" y1="5897.42" x2="4239.94" y2="5903.93" gradientUnits="userSpaceOnUse">
<stop stop-color="#FF862B"/>
<stop offset="0.31" stop-color="#FF9F43"/>
<stop offset="0.93" stop-color="#FFDB7C"/>
</linearGradient>
<linearGradient id="paint7_linear_664_1833" x1="6616.47" y1="3480.92" x2="6407.68" y2="3270.16" gradientUnits="userSpaceOnUse">
<stop stop-color="#FF862B"/>
<stop offset="0.31" stop-color="#FF9F43"/>
<stop offset="0.93" stop-color="#FFDB7C"/>
</linearGradient>
<linearGradient id="paint8_linear_664_1833" x1="783.391" y1="273.6" x2="759.035" y2="242.66" gradientUnits="userSpaceOnUse">
<stop stop-color="#FF862B"/>
<stop offset="0.65" stop-color="#FFC062"/>
<stop offset="1" stop-color="#FFDB7C"/>
</linearGradient>
</defs>
</svg>
