<svg width="670" height="273" viewBox="0 0 670 273" fill="none" xmlns="http://www.w3.org/2000/svg">
<path d="M568.072 177.33L612.253 272.861L617.228 272.848L579.03 171.13L568.072 177.33Z" fill="#DCA86E"/>
<path d="M522.372 179.375L478.191 272.861L473.203 272.848L511.414 177.25L522.372 179.375Z" fill="#DCA86E"/>
<path d="M410.105 252.392L387.651 272.055L361.178 253.414C361.178 253.414 370.186 250.388 385.635 254.503L401.446 241.215L410.105 252.392Z" fill="url(#paint0_linear_305_16410)"/>
<path d="M540.106 143.963C540.106 143.963 490.48 169.409 472.934 177.021C455.402 184.633 395.745 244.389 395.745 244.389C395.745 244.389 403.382 259.95 407.201 257.22C440.881 233.132 471.912 211.573 491.852 204.054C531.34 189.166 542.338 185.925 552.462 174.197C552.462 174.197 546.533 160.102 540.106 143.963Z" fill="#1A3B9A"/>
<path d="M462.77 242.358L456.302 271.503L423.94 272.149C423.94 272.149 429.412 264.375 444.309 258.551L449.19 238.471L462.77 242.358Z" fill="url(#paint1_linear_305_16410)"/>
<path d="M541.303 137.493C541.303 137.493 495.132 142.47 478.299 151.548C461.465 160.613 448.074 243.757 448.074 243.757C448.074 243.757 461.143 250.858 462.77 246.447C475.825 210.887 490.305 183.033 490.305 183.033C506.897 180.007 545.309 198.701 573.087 171.345C573.087 171.332 549.074 153.041 541.303 137.493Z" fill="#005EC6"/>
<path d="M620.858 81.3556C620.858 81.3556 617.523 86.8833 615.426 93.7963L596.441 92.0478C596.441 92.0478 606.243 77.1863 605.49 68.1752L620.858 81.3556Z" fill="#FEC4AD"/>
<path d="M616.771 50.664C615.695 50.3816 611.635 49.2653 610.814 49.5881C609.672 50.0588 611.003 51.5517 610.196 52.4528C608.905 53.9322 606.297 53.9591 604.63 54.8602C602.599 55.9496 601.053 57.3753 600.125 59.0026C598.579 61.7194 604.213 67.7851 605.087 72.331C606.929 81.8397 618.949 83.2519 628.71 80.3334C632.206 79.2978 635.419 76.1506 637.315 73.111C639.547 69.5335 638.296 63.5485 636.414 59.9844C635.285 57.846 633.066 56.0034 631.117 54.6585C629.355 53.448 628.871 48.3911 626.747 48.0414C626.774 48.0414 619.204 51.2961 616.771 50.664Z" fill="#FEC4AD"/>
<path d="M644.037 76.191C644.064 76.2045 643.715 74.5905 646.458 71.9948C655.573 63.4141 645.826 46.6293 635.89 43.7107C630.807 42.2179 627.567 43.7914 625.739 38.7479C625.873 39.1111 623.681 40.0391 623.466 40.2139C622.27 41.2226 621.705 41.9354 621.665 43.6031C621.503 50.9331 628.065 57.7653 633.026 62.3919C635.258 64.4631 629.759 63.0375 627.554 63.4544C626.115 63.7369 622.364 67.6776 621.57 68.2828C623.654 70.8785 625.51 68.5383 628.32 69.7891C630.915 70.9457 629.275 74.2543 626.854 74.6443C623.103 75.2496 621.584 72.7749 621.584 72.7749C619.863 73.7029 619.594 79.2709 618.25 80.7235C620.105 81.7456 630.969 83.6554 633.51 83.6285C638.955 83.5613 642.29 80.5486 644.037 76.191Z" fill="url(#paint2_linear_305_16410)"/>
<path d="M620.239 84.3145C624.219 128.738 573.087 171.332 573.087 171.332C573.087 171.332 539.703 172.583 541.303 137.493C541.303 137.493 543.898 131.118 564.576 112.37C578.385 99.8486 588.092 81.1674 597.799 81.5439C624.34 82.5661 620.239 84.3145 620.239 84.3145Z" fill="#0072EF"/>
<path d="M496.221 173.78C496.221 173.78 527.011 185.265 568.059 169.691C609.107 154.117 620.293 81.3959 620.293 81.3959L624.986 83.7764C624.986 83.7764 620.414 164.015 566.378 181.459C525.061 194.788 496.221 178.917 496.221 178.917V173.78Z" fill="url(#paint3_linear_305_16410)"/>
<path d="M615.305 128.697C615.305 128.697 620.226 145.738 620.495 154.238C620.764 162.738 617.134 191.573 617.134 191.573L624.959 192.569C624.959 192.569 631.91 158.192 632.071 146.975C632.233 135.758 625.766 117.575 625.766 117.575L615.305 128.697Z" fill="#F8D2A1"/>
<path d="M614.821 129.41C620.495 154.224 618.142 187.498 618.142 187.498L626.626 188.036C635.93 168.562 635.056 125.429 630.135 107.273C627.244 96.6073 625.537 85.8612 618.33 84.1935C613.826 83.1579 604.549 86.453 603.298 90.9182C600.609 100.602 612.024 117.239 614.821 129.41Z" fill="#0072EF"/>
<path d="M613.638 195.864C611.769 199.428 610.922 202.051 612.024 202.952C612.791 203.57 614.014 200.114 615.493 198.876C615.924 200.316 615.991 203.019 615.063 205.292C614.014 207.861 614.109 210.066 616.058 210.255C618.008 210.443 621.194 210.322 621.893 208.695C622.606 207.081 624.206 200.316 625.08 198.069C625.954 195.823 624.797 193.241 625.134 191.95C625.47 190.659 619.366 188.507 619.366 188.507C619.029 189.018 617.147 191.587 617.147 191.587C617.147 191.587 615.561 193.483 615.023 193.833C614.458 194.156 613.638 195.864 613.638 195.864Z" fill="#F8D2A1"/>
<path d="M0 272.391H670" stroke="#A6AEBA" stroke-width="0.5" stroke-miterlimit="10"/>
<path d="M243.559 66.494C243.559 66.494 245.63 61.437 249.381 56.918C253.132 52.4125 258.739 44.8943 258.739 44.8943C258.739 44.8943 256.01 50.2337 252.299 56.2725C248.588 62.3247 243.559 66.494 243.559 66.494Z" fill="#50CC85"/>
<path d="M247.445 57.6981C247.445 57.6981 251.6 54.4299 254.1 47.5169C256.601 40.6039 258.873 35.3318 258.873 35.3318C258.873 35.3318 253.482 43.0517 251.156 48.3911C248.83 53.744 247.445 57.6981 247.445 57.6981Z" fill="#50CC85"/>
<path d="M243.828 65.5122C243.828 65.5122 246.006 57.604 246.437 51.2828C246.867 44.9616 246.813 41.0074 246.813 41.0074C246.813 41.0074 244.07 52.4663 243.237 57.335C242.416 62.2037 243.828 65.5122 243.828 65.5122Z" fill="#50CC85"/>
<path d="M241.973 70.771C241.973 70.771 242.672 62.6206 240.373 55.3311C238.087 48.0415 237.953 43.4149 237.953 43.4149C237.953 43.4149 236.85 51.0407 238.154 57.6175C239.472 64.2077 241.973 70.771 241.973 70.771Z" fill="#50CC85"/>
<path d="M242.645 68.9687C242.645 68.9687 248.426 64.0328 251.357 62.8627C254.289 61.706 258.349 58.3168 258.349 58.3168C258.349 58.3168 253.321 64.759 250.51 66.0233C247.714 67.301 242.645 68.9687 242.645 68.9687Z" fill="#50CC85"/>
<path d="M240.655 75.8816C240.655 75.8816 241.22 71.4299 238.625 65.1221C236.043 58.8143 235.438 55.6941 235.438 55.6941C235.438 55.6941 235.291 64.2479 236.985 67.4623C238.692 70.6902 240.655 75.8816 240.655 75.8816Z" fill="#50CC85"/>
<path d="M241.193 72.6405C241.193 72.6405 244.514 70.4213 247.727 69.9775C250.941 69.5337 251.788 69.0898 251.788 69.0898C251.788 69.0898 250.161 72.0487 246.208 72.5463C242.255 73.0574 241.193 72.6405 241.193 72.6405Z" fill="#50CC85"/>
<path d="M239.015 80.1316C239.727 77.3342 240.655 73.0035 241.61 70.1253C243.721 63.7503 248.722 55.5327 248.722 55.5327C245.67 62.3112 243.425 66.1308 241.892 71.9813C241.287 74.2946 240.225 77.5225 239.66 79.6206C239.566 80.1855 239.109 80.6696 239.015 80.1316Z" fill="#50CC85"/>
<path d="M240.494 68.7804C240.494 68.7804 240.171 62.9838 237.953 57.1467C235.734 51.3097 232.709 41.8279 232.709 41.8279C232.709 41.8279 233.61 48.1491 235.237 55.4925C236.877 62.8493 240.494 68.7804 240.494 68.7804Z" fill="#77E6A6"/>
<path d="M239.633 58.5858C239.633 58.5858 236.581 53.865 236.46 46.0509C236.339 38.2368 235.882 32.1577 235.882 32.1577C235.882 32.1577 238.638 41.7875 239.109 47.9608C239.593 54.134 239.633 58.5858 239.633 58.5858Z" fill="#77E6A6"/>
<path d="M240.548 67.691C240.548 67.691 241.099 58.9892 242.847 52.4932C244.608 45.9971 246.02 42.0295 246.02 42.0295C246.02 42.0295 244.81 54.4971 243.963 59.6751C243.116 64.8532 240.548 67.691 240.548 67.691Z" fill="#77E6A6"/>
<path d="M240.601 73.6221C240.601 73.6221 242.726 65.1893 247.539 58.6529C252.366 52.1165 254.087 47.5168 254.087 47.5168C254.087 47.5168 252.554 55.573 248.964 61.7329C245.388 67.8792 240.601 73.6221 240.601 73.6221Z" fill="#77E6A6"/>
<path d="M240.548 71.5779C240.548 71.5779 236.447 64.6111 233.906 62.4323C231.365 60.2535 228.447 55.4386 228.447 55.4386C228.447 55.4386 231.27 63.6427 233.65 65.9022C236.03 68.1483 240.548 71.5779 240.548 71.5779Z" fill="#77E6A6"/>
<path d="M240.171 79.2171C240.171 79.2171 241.153 74.5502 245.926 69.1032C250.699 63.6562 252.379 60.7377 252.379 60.7377C252.379 60.7377 249.569 69.3991 246.759 72.0352C243.936 74.6713 240.171 79.2171 240.171 79.2171Z" fill="#77E6A6"/>
<path d="M240.736 75.7741C240.736 75.7741 238.168 72.3983 235.089 70.8247C232.023 69.2646 231.311 68.5249 231.311 68.5249C231.311 68.5249 231.916 72.0621 235.721 73.9315C239.539 75.8144 240.736 75.7741 240.736 75.7741Z" fill="#77E6A6"/>
<path d="M240.346 84.0455C240.588 80.979 241.153 76.3121 241.193 73.0842C241.287 65.9426 239.095 55.9497 239.095 55.9497C239.822 63.831 240.749 68.4307 240.265 74.8461C240.077 77.388 240.023 80.9925 239.862 83.2923C239.768 83.9244 240.064 84.57 240.346 84.0455Z" fill="#50CC85"/>
<path d="M236.097 69.9774C236.097 69.9774 234.027 64.9204 230.275 60.4014C226.524 55.8959 220.918 48.3777 220.918 48.3777C220.918 48.3777 223.647 53.7171 227.358 59.7559C231.055 65.8081 236.097 69.9774 236.097 69.9774Z" fill="#50CC85"/>
<path d="M232.212 61.1815C232.212 61.1815 228.057 57.9133 225.556 51.0003C223.055 44.0873 220.783 38.8152 220.783 38.8152C220.783 38.8152 226.175 46.5351 228.501 51.8745C230.813 57.2274 232.212 61.1815 232.212 61.1815Z" fill="#50CC85"/>
<path d="M235.815 68.9957C235.815 68.9957 233.637 61.0874 233.206 54.7662C232.776 48.445 232.83 44.4908 232.83 44.4908C232.83 44.4908 235.573 55.9497 236.406 60.8184C237.227 65.6871 235.815 68.9957 235.815 68.9957Z" fill="#50CC85"/>
<path d="M237.67 74.2543C237.67 74.2543 236.971 66.104 239.257 58.8145C241.543 51.5249 241.677 46.8983 241.677 46.8983C241.677 46.8983 242.779 54.5241 241.475 61.1009C240.171 67.6911 237.67 74.2543 237.67 74.2543Z" fill="#50CC85"/>
<path d="M236.998 72.4522C236.998 72.4522 231.217 67.5163 228.286 66.3462C225.355 65.1895 221.294 61.8003 221.294 61.8003C221.294 61.8003 226.323 68.2425 229.133 69.5068C231.929 70.7845 236.998 72.4522 236.998 72.4522Z" fill="#50CC85"/>
<path d="M239.001 79.365C239.001 79.365 238.437 74.9133 241.032 68.6055C243.613 62.2978 244.218 59.1775 244.218 59.1775C244.218 59.1775 244.366 67.7313 242.672 70.9457C240.951 74.1735 239.001 79.365 239.001 79.365Z" fill="#50CC85"/>
<path d="M238.464 76.1239C238.464 76.1239 235.143 73.9047 231.929 73.4609C228.729 73.0171 227.869 72.5732 227.869 72.5732C227.869 72.5732 229.496 75.5321 233.449 76.0297C237.388 76.5408 238.464 76.1239 238.464 76.1239Z" fill="#50CC85"/>
<path d="M240.628 83.615C239.916 80.8176 238.988 76.4869 238.033 73.6087C235.936 67.2337 230.921 59.0161 230.921 59.0161C233.973 65.7946 236.218 69.6142 237.751 75.4647C238.356 77.778 239.418 81.0059 239.983 83.104C240.077 83.6688 240.534 84.153 240.628 83.615Z" fill="#50CC85"/>
<path d="M247.983 103.144H232.292L227.438 75.5051H253.388L247.983 103.144Z" fill="#D2DCEB"/>
<path d="M427.194 110.742L453.062 272.539L458.05 272.525L437.573 110.702L427.194 110.742Z" fill="#DCA86E"/>
<path d="M248.857 110.81L215.163 272.781L208.454 272.794L234.874 110.85L248.857 110.81Z" fill="#DCA86E"/>
<path d="M474.184 101.288H195.829V113.755H474.184V101.288Z" fill="#DCA86E"/>
<path d="M487.522 101.288H182.478V109.559H487.522V101.288Z" fill="#F3BA7A"/>
<path d="M402.212 96.9165H391.389L380.566 27.827H388.794L402.212 96.9165Z" fill="#A6AEBA"/>
<path d="M399.107 96.9165H356.848L346.025 27.827H388.283L399.107 96.9165Z" fill="#D2DCEB"/>
<path d="M402.212 95.3564H356.284V100.508H402.212V95.3564Z" fill="#D2DCEB"/>
<path d="M460.121 95.3564H402.212V100.508H460.121V95.3564Z" fill="#A6AEBA"/>
<path d="M375.9 65.7274C377.124 71.013 376.263 76.729 373.978 78.4908C371.692 80.2527 368.855 77.388 367.631 72.1024C366.408 66.8168 367.268 61.1008 369.554 59.3389C371.84 57.577 374.677 60.4418 375.9 65.7274Z" fill="#A6AEBA"/>
<path d="M310.167 100.265H304.17C301.696 100.265 299.585 98.4632 299.209 96.0154L296.816 80.589H317.521L315.128 96.0154C314.752 98.4632 312.654 100.265 310.167 100.265Z" fill="#A6AEBA"/>
<path d="M315.72 96.9838C315.504 96.9838 315.289 96.9704 315.061 96.9569L314.778 96.93L314.55 96.7552C314.402 96.6476 310.906 93.9039 310.906 89.9767C310.906 85.9688 313.568 82.7006 316.849 82.7006C318.825 82.7006 320.587 83.4537 321.676 84.7449C322.456 85.6729 323.276 87.3675 322.778 90.1381C321.985 94.5226 319.43 96.9838 315.72 96.9838ZM315.504 95.0875C319.283 95.2085 320.479 92.3034 320.923 89.8153C321.219 88.161 320.99 86.8699 320.224 85.9688C319.498 85.0945 318.261 84.5969 316.849 84.5969C314.617 84.5969 312.789 87.0178 312.789 89.9901C312.802 92.4917 314.832 94.4957 315.504 95.0875Z" fill="#A6AEBA"/>
<path d="M294.759 101.624H321.004L325.185 96.9838H290.577L294.759 101.624Z" fill="#D2DCEB"/>
<path d="M155.682 0.766846H30.1038V272.498H155.682V0.766846Z" fill="#B6BFCC"/>
<path d="M141.228 12.6427H44.5574V41.1285H141.228V12.6427Z" fill="#D2DCEB"/>
<path d="M104.456 30.3421H81.3299C80.7383 30.3421 80.2543 29.8579 80.2543 29.2661V24.505C80.2543 23.9133 80.7383 23.4291 81.3299 23.4291H104.456C105.047 23.4291 105.531 23.9133 105.531 24.505V29.2661C105.531 29.8579 105.047 30.3421 104.456 30.3421Z" fill="white"/>
<path d="M141.228 48.8888H44.5574V77.3746H141.228V48.8888Z" fill="#D2DCEB"/>
<path d="M104.456 66.5881H81.3299C80.7383 66.5881 80.2543 66.104 80.2543 65.5122V60.7511C80.2543 60.1593 80.7383 59.6752 81.3299 59.6752H104.456C105.047 59.6752 105.531 60.1593 105.531 60.7511V65.5122C105.531 66.1174 105.047 66.5881 104.456 66.5881Z" fill="white"/>
<path d="M141.228 85.1483H44.5574V113.634H141.228V85.1483Z" fill="#D2DCEB"/>
<path d="M104.456 102.848H81.3299C80.7383 102.848 80.2543 102.363 80.2543 101.772V97.0106C80.2543 96.4189 80.7383 95.9347 81.3299 95.9347H104.456C105.047 95.9347 105.531 96.4189 105.531 97.0106V101.772C105.531 102.377 105.047 102.848 104.456 102.848Z" fill="white"/>
<path d="M141.228 121.825H44.5574V261.483H141.228V121.825Z" fill="#D2DCEB"/>
<path d="M104.456 139.524H81.3299C80.7383 139.524 80.2543 139.04 80.2543 138.448V133.687C80.2543 133.095 80.7383 132.611 81.3299 132.611H104.456C105.047 132.611 105.531 133.095 105.531 133.687V138.448C105.531 139.04 105.047 139.524 104.456 139.524Z" fill="white"/>
<defs>
<linearGradient id="paint0_linear_305_16410" x1="371.133" y1="239.834" x2="402.449" y2="262.817" gradientUnits="userSpaceOnUse">
<stop stop-color="#343A44"/>
<stop offset="0.3009" stop-color="#232D3E"/>
<stop offset="0.6391" stop-color="#182439"/>
<stop offset="1" stop-color="#142138"/>
</linearGradient>
<linearGradient id="paint1_linear_305_16410" x1="423.93" y1="255.303" x2="462.77" y2="255.303" gradientUnits="userSpaceOnUse">
<stop stop-color="#343A44"/>
<stop offset="0.3009" stop-color="#232D3E"/>
<stop offset="0.6391" stop-color="#182439"/>
<stop offset="1" stop-color="#142138"/>
</linearGradient>
<linearGradient id="paint2_linear_305_16410" x1="643.26" y1="78.8525" x2="615.571" y2="47.1266" gradientUnits="userSpaceOnUse">
<stop stop-color="#343A44"/>
<stop offset="0.3009" stop-color="#232D3E"/>
<stop offset="0.6391" stop-color="#182439"/>
<stop offset="1" stop-color="#142138"/>
</linearGradient>
<linearGradient id="paint3_linear_305_16410" x1="496.221" y1="134.108" x2="624.992" y2="134.108" gradientUnits="userSpaceOnUse">
<stop stop-color="#343A44"/>
<stop offset="0.3009" stop-color="#232D3E"/>
<stop offset="0.6391" stop-color="#182439"/>
<stop offset="1" stop-color="#142138"/>
</linearGradient>
</defs>
</svg>
