<svg xmlns="http://www.w3.org/2000/svg" viewBox="0 0 297.31 69.44"><defs><style>.cls-1,.cls-4{fill:#0072ef;}.cls-2{fill:#e30613;}.cls-10,.cls-2,.cls-3,.cls-4,.cls-5,.cls-6,.cls-7,.cls-8,.cls-9{fill-rule:evenodd;}.cls-3{fill:#312783;}.cls-5{fill:#1a3b9a;}.cls-6{fill:#ff5d00;}.cls-7{fill:#812b29;}.cls-8{fill:#f5f9fc;}.cls-9{fill:#d9d9d9;}.cls-10{fill:#a6a5a9;}</style></defs><g id="Layer_2" data-name="Layer 2"><g id="Layer_1-2" data-name="Layer 1"><path class="cls-1" d="M106.29,30h-3.16V14.64h3.14L110.73,21l4.45-6.37h3.12V30h-3.12V19.49l-3.54,4.94h-1.76l-3.6-4.94Z"/><path class="cls-1" d="M120.8,24.52a5.54,5.54,0,0,1,.43-2.23,5.42,5.42,0,0,1,1.29-1.86,6.58,6.58,0,0,1,8.74,0,5.93,5.93,0,0,1,1.27,1.89,5.82,5.82,0,0,1,0,4.44,5.93,5.93,0,0,1-1.27,1.89,6.64,6.64,0,0,1-8.74,0,5.44,5.44,0,0,1-1.29-1.89A5.55,5.55,0,0,1,120.8,24.52Zm3.06,0a3.15,3.15,0,0,0,.2,1.18,3.07,3.07,0,0,0,.65,1,3.13,3.13,0,0,0,2.18.88,2.95,2.95,0,0,0,2.82-1.89,3,3,0,0,0,.21-1.18,3.19,3.19,0,0,0-.2-1.18,3,3,0,0,0-.66-1,3.12,3.12,0,0,0-2.17-.87,2.94,2.94,0,0,0-2.83,1.87A2.82,2.82,0,0,0,123.86,24.52Z"/><path class="cls-1" d="M140.62,30.3a6.25,6.25,0,0,1-4.33-1.58,5.49,5.49,0,0,1-1.35-1.91,5.41,5.41,0,0,1-.41-2.29,5.7,5.7,0,0,1,.38-2.2,5.64,5.64,0,0,1,1.2-1.88A5.41,5.41,0,0,1,138,19.16a5.35,5.35,0,0,1,2.24-.39,4.74,4.74,0,0,1,2.1.4,4.8,4.8,0,0,1,1.7,1.29,6.16,6.16,0,0,1,1.43,4.11v.81h-7.86a2.59,2.59,0,0,0,1.22,1.69,4.63,4.63,0,0,0,2.45.59,7,7,0,0,0,3.51-1v2.48A6.78,6.78,0,0,1,140.62,30.3Zm-3-12.79a1.48,1.48,0,0,1-.62-.11,1.86,1.86,0,0,1-.52-.36,1.43,1.43,0,0,1-.36-.52,1.36,1.36,0,0,1-.12-.63,1.35,1.35,0,0,1,.12-.62,1.4,1.4,0,0,1,.36-.51,1.63,1.63,0,0,1,1.14-.47,1.58,1.58,0,0,1,1.15.46,1.43,1.43,0,0,1,.36.52,1.67,1.67,0,0,1,.12.62,1.63,1.63,0,0,1-.12.62,1.47,1.47,0,0,1-.36.53,1.64,1.64,0,0,1-.52.35A1.36,1.36,0,0,1,137.65,17.51Zm0,5.89h4.81a2.27,2.27,0,0,0-.67-1.57,2.23,2.23,0,0,0-.76-.48,2.21,2.21,0,0,0-.88-.15,2.48,2.48,0,0,0-1.71.61,2.39,2.39,0,0,0-.79,1.59Zm6-6.35a1.58,1.58,0,0,1-.53.35,1.43,1.43,0,0,1-.62.11,1.7,1.7,0,0,1-.63-.1,1.47,1.47,0,0,1-.53-.36,1.58,1.58,0,0,1-.35-.53,1.5,1.5,0,0,1-.11-.63,1.48,1.48,0,0,1,.11-.62,1.64,1.64,0,0,1,.35-.52,1.62,1.62,0,0,1,.54-.35,1.48,1.48,0,0,1,.62-.11,1.43,1.43,0,0,1,.62.11,1.58,1.58,0,0,1,.53.35,1.47,1.47,0,0,1,.36.52,1.63,1.63,0,0,1,.12.62,1.68,1.68,0,0,1-.12.63,1.77,1.77,0,0,1-.36.53Z"/><path class="cls-1" d="M152.74,24.52a5.53,5.53,0,0,1,.42-2.23,5.71,5.71,0,0,1,1.29-1.86,6.58,6.58,0,0,1,8.74,0,5.79,5.79,0,0,1,0,8.22,6.64,6.64,0,0,1-8.74,0,5.73,5.73,0,0,1-1.29-1.89A5.54,5.54,0,0,1,152.74,24.52Zm3,0A3,3,0,0,0,156,25.7a2.95,2.95,0,0,0,2.82,1.89,3.11,3.11,0,0,0,2.18-.88,3.07,3.07,0,0,0,.65-1,3.41,3.41,0,0,0,.21-1.18,3,3,0,0,0-.21-1.18,3.1,3.1,0,0,0-5-1,3,3,0,0,0-.86,2.18Z"/><path class="cls-1" d="M173.43,19.75a4.83,4.83,0,0,1,1.88.31,4.62,4.62,0,0,1,1.61,1A4.75,4.75,0,0,1,178,22.73a4.84,4.84,0,0,1,.31,1.92,5.24,5.24,0,0,1-.39,2.21,5.31,5.31,0,0,1-1.25,1.85,5.52,5.52,0,0,1-1.88,1.21,5.59,5.59,0,0,1-2.21.37,5.34,5.34,0,0,1-2.46-.43,5.47,5.47,0,0,1-2-1.5,8.15,8.15,0,0,1-1.56-5.21,10.07,10.07,0,0,1,.62-3.72,5.68,5.68,0,0,1,2-2.49,11,11,0,0,1,3.2-1.62A28.87,28.87,0,0,1,177,14.24v2.88l-1.16.2-1.15.19-1,.22a13.38,13.38,0,0,0-1.87.55,4.63,4.63,0,0,0-1.42.92,3.46,3.46,0,0,0-1,2.42,4.92,4.92,0,0,1,4.09-1.87Zm-.9,7.93a2.59,2.59,0,0,0,1.06-.19,2.51,2.51,0,0,0,.88-.6,2.72,2.72,0,0,0,.59-.94,2.64,2.64,0,0,0,.17-1.08,2.46,2.46,0,0,0-.16-1,2.57,2.57,0,0,0-.56-.85,2.68,2.68,0,0,0-.87-.53,2.62,2.62,0,0,0-1-.16,3.62,3.62,0,0,0-1.76.47,3.51,3.51,0,0,0-1.31,1.2,4.28,4.28,0,0,0,.8,2.73,2.62,2.62,0,0,0,1,.74A2.68,2.68,0,0,0,172.53,27.68Z"/><path class="cls-1" d="M187.27,18.77a4.59,4.59,0,0,1,2,.41A4.76,4.76,0,0,1,191,20.43a5.9,5.9,0,0,1,1.47,4.11A6,6,0,0,1,191,28.65a4.83,4.83,0,0,1-1.66,1.24,4.72,4.72,0,0,1-2,.4,4.18,4.18,0,0,1-2-.38,4.23,4.23,0,0,1-1.6-1.24V34.4h-3.1V19.05h3.1v1.34a4.2,4.2,0,0,1,1.6-1.26A4.15,4.15,0,0,1,187.27,18.77Zm-.88,2.7a2.82,2.82,0,0,0-1.6.46,3.17,3.17,0,0,0-1.12,1.18V26a3.07,3.07,0,0,0,1.12,1.17,2.91,2.91,0,0,0,1.6.45,2.71,2.71,0,0,0,1.16-.2,2.89,2.89,0,0,0,1-.68,3.24,3.24,0,0,0,.83-2.18,3.28,3.28,0,0,0-.83-2.19,2.74,2.74,0,0,0-2.13-.87Z"/><path class="cls-1" d="M205.15,27.61a1.23,1.23,0,0,0,.63-.13v2.26a2.6,2.6,0,0,1-1.67.46,2.43,2.43,0,0,1-2.48-1.4A5,5,0,0,1,199.9,30a5.1,5.1,0,0,1-2,.34,4.18,4.18,0,0,1-2.93-1,3.43,3.43,0,0,1-1.12-2.65,3.15,3.15,0,0,1,.3-1.51,3.08,3.08,0,0,1,1-1.17,5,5,0,0,1,3-.93,6.77,6.77,0,0,1,3.16.68v-.32c0-1.38-1-2.07-2.9-2.07a6.43,6.43,0,0,0-3.31.92V19.64a8.52,8.52,0,0,1,4.06-.87,5.78,5.78,0,0,1,3.78,1.14,3.9,3.9,0,0,1,1.11,1.4,3.79,3.79,0,0,1,.34,1.76v3.71C204.38,27.34,204.63,27.61,205.15,27.61Zm-3.85-.83v-1.1a4.07,4.07,0,0,0-2.28-.63,2.87,2.87,0,0,0-1.57.37,1.19,1.19,0,0,0-.44.45,1.13,1.13,0,0,0-.14.6,1.12,1.12,0,0,0,.12.6,1.21,1.21,0,0,0,.4.47,2.49,2.49,0,0,0,1.43.36,3,3,0,0,0,1.38-.25A3,3,0,0,0,201.3,26.78Z"/><path class="cls-1" d="M211.78,30.3a9.77,9.77,0,0,1-4.26-.84V27a8.15,8.15,0,0,0,3.82.88,4.72,4.72,0,0,0,1.94-.33,1.08,1.08,0,0,0,.5-.37,1.09,1.09,0,0,0,.2-.58c0-.71-.65-1.07-1.94-1.07h-2.15V23.25H212c1.06,0,1.58-.32,1.58-1s-.74-1.05-2.24-1.05a7.93,7.93,0,0,0-3.55.75V19.55a10.2,10.2,0,0,1,4.23-.79,6.18,6.18,0,0,1,3.36.86,2.47,2.47,0,0,1,1,.89,2.56,2.56,0,0,1,.39,1.26,2.22,2.22,0,0,1-.37,1.46,2.25,2.25,0,0,1-1.21.89,3,3,0,0,1,1.46,1,2.47,2.47,0,0,1,.56,1.65,3,3,0,0,1-.42,1.49,2.92,2.92,0,0,1-1.1,1.08A7,7,0,0,1,211.78,30.3Z"/><path class="cls-1" d="M218.9,24.52a5.36,5.36,0,0,1,.42-2.23,5.42,5.42,0,0,1,1.29-1.86,6.58,6.58,0,0,1,8.74,0,5.79,5.79,0,0,1,0,8.22,6.64,6.64,0,0,1-8.74,0,5.44,5.44,0,0,1-1.29-1.89A5.38,5.38,0,0,1,218.9,24.52Zm3,0a3.15,3.15,0,0,0,.2,1.18,3,3,0,0,0,.66,1,3,3,0,0,0,5-1,3.09,3.09,0,0,0-.65-3.36,3.14,3.14,0,0,0-4.34,0,3,3,0,0,0-.66,1A3.19,3.19,0,0,0,222,24.52Z"/><path class="cls-1" d="M239.81,30h-6.46v-11h6.19a3.88,3.88,0,0,1,2.59.78,2.42,2.42,0,0,1,.7.91,2.53,2.53,0,0,1,.23,1.12,2.43,2.43,0,0,1-1.34,2.33,2.81,2.81,0,0,1,1.54,1A2.76,2.76,0,0,1,243.8,27a2.59,2.59,0,0,1-1.05,2.2A4.74,4.74,0,0,1,239.81,30Zm-3.41-8.83v2.24h2.15c1,0,1.47-.37,1.47-1.12s-.48-1.12-1.47-1.12Zm0,4.19v2.46H239c1.07,0,1.6-.41,1.6-1.23s-.53-1.23-1.6-1.23Z"/><path class="cls-1" d="M256.63,27.61a1.29,1.29,0,0,0,.64-.13v2.26a2.62,2.62,0,0,1-1.67.46,2.42,2.42,0,0,1-2.48-1.4,5,5,0,0,1-3.78,1.49,4.16,4.16,0,0,1-2.92-1,3.35,3.35,0,0,1-1.12-2.65,3.14,3.14,0,0,1,.29-1.51,3.17,3.17,0,0,1,1-1.17,5,5,0,0,1,3.05-.93,6.81,6.81,0,0,1,3.17.68v-.32c0-1.38-1-2.07-2.9-2.07a6.46,6.46,0,0,0-3.32.92V19.64a8.52,8.52,0,0,1,4.06-.87,5.74,5.74,0,0,1,3.78,1.14,3.7,3.7,0,0,1,1.11,1.4,3.79,3.79,0,0,1,.34,1.76v3.71C255.86,27.34,256.12,27.61,256.63,27.61Zm-3.84-.83v-1.1a4.1,4.1,0,0,0-2.29-.63,2.87,2.87,0,0,0-1.57.37,1.16,1.16,0,0,0-.43.45,1.05,1.05,0,0,0-.15.6,1.17,1.17,0,0,0,.53,1.07,2.43,2.43,0,0,0,1.42.36,3,3,0,0,0,1.38-.25A3.05,3.05,0,0,0,252.79,26.78Z"/><path class="cls-1" d="M262.52,30h-3.1v-11h3.1v4.06H267V19.05h3.1V30H267V25.7h-4.5Z"/><path class="cls-1" d="M276.05,30h-2.9v-11h3.05v6.46l5-6.46h2.9V30H281V23.55Z"/><path class="cls-1" d="M292.45,30.3a6.27,6.27,0,0,1-4.33-1.58,5.34,5.34,0,0,1-1.34-1.91,5.26,5.26,0,0,1-.41-2.29,5.52,5.52,0,0,1,.38-2.2,5.64,5.64,0,0,1,1.2-1.88,5.39,5.39,0,0,1,4.12-1.67,4.71,4.71,0,0,1,2.1.4,4.8,4.8,0,0,1,1.7,1.29,6.11,6.11,0,0,1,1.43,4.11v.81h-7.86a2.59,2.59,0,0,0,1.22,1.69,4.66,4.66,0,0,0,2.45.59,7,7,0,0,0,3.51-1v2.48A6.76,6.76,0,0,1,292.45,30.3Zm-3-6.9h4.81a2.27,2.27,0,0,0-.67-1.57A2.24,2.24,0,0,0,292,21.2a2.52,2.52,0,0,0-1.72.61,2.38,2.38,0,0,0-.78,1.59Z"/><path class="cls-1" d="M105.83,51.22h-.66v-.64a3.32,3.32,0,0,1-2.33-.8,2.45,2.45,0,0,1-.59-.86,2.37,2.37,0,0,1-.19-1,2.55,2.55,0,0,1,.19-1,2.73,2.73,0,0,1,.59-.87,3.21,3.21,0,0,1,2.33-.81v-.57h.66v.57a3.23,3.23,0,0,1,2.32.8,2.73,2.73,0,0,1,.59.87,2.55,2.55,0,0,1,.21,1,2.64,2.64,0,0,1-.21,1,2.69,2.69,0,0,1-.59.86,3.29,3.29,0,0,1-2.32.81ZM105.17,50V45.79a2.47,2.47,0,0,0-1,.12,2.71,2.71,0,0,0-.86.49,2.13,2.13,0,0,0,0,3,2.38,2.38,0,0,0,.86.49,2.5,2.5,0,0,0,1,.13Zm.66-4.19V50a3.67,3.67,0,0,0,1.13-.19,1.87,1.87,0,0,0,1.17-1.14,2.19,2.19,0,0,0,.14-.77,2.22,2.22,0,0,0-.15-.8,2.18,2.18,0,0,0-.45-.68,2.63,2.63,0,0,0-.86-.49A2.52,2.52,0,0,0,105.83,45.79Z"/><path class="cls-1" d="M112.67,51.14a2.4,2.4,0,0,1-1.69-.63,2.1,2.1,0,0,1-.68-1.63,2.3,2.3,0,0,1,.6-1.62,2.19,2.19,0,0,1,.72-.49,2.15,2.15,0,0,1,.86-.16,2.07,2.07,0,0,1,.92.21,1.79,1.79,0,0,1,.64.55,2.67,2.67,0,0,1,.35.72,2.85,2.85,0,0,1,.11.76V49H111a1.62,1.62,0,0,0,.16.62,1.6,1.6,0,0,0,.4.49,1.94,1.94,0,0,0,1.28.42,2.59,2.59,0,0,0,1.39-.4v.57A2.43,2.43,0,0,1,112.67,51.14ZM111,48.5h2.88a1.51,1.51,0,0,0-.37-.9,1.32,1.32,0,0,0-.46-.32,1.09,1.09,0,0,0-.56-.09,1.39,1.39,0,0,0-.57.09,1.54,1.54,0,0,0-.49.3,1.4,1.4,0,0,0-.43.92Z"/><path class="cls-1" d="M116,52.31h-.61V50.47H116a5.43,5.43,0,0,0,.74-3.15v-.6h3.21v3.75h.81v1.84h-.63V51H116Zm.65-1.84h2.59V47.28h-2v.26A5.53,5.53,0,0,1,116.68,50.47Z"/><path class="cls-1" d="M124.1,51.14a2.4,2.4,0,0,1-1.69-.63,2.1,2.1,0,0,1-.68-1.63,2.3,2.3,0,0,1,.6-1.62,2.19,2.19,0,0,1,.72-.49,2.15,2.15,0,0,1,.86-.16,2.07,2.07,0,0,1,.92.21,1.79,1.79,0,0,1,.64.55,2.67,2.67,0,0,1,.35.72,2.85,2.85,0,0,1,.11.76V49h-3.55a1.62,1.62,0,0,0,.16.62,1.6,1.6,0,0,0,.4.49,1.94,1.94,0,0,0,1.28.42,2.59,2.59,0,0,0,1.39-.4v.57A2.43,2.43,0,0,1,124.1,51.14Zm-1.7-2.64h2.88a1.45,1.45,0,0,0-.37-.9,1.5,1.5,0,0,0-.46-.33,1.2,1.2,0,0,0-.56-.08,1.39,1.39,0,0,0-.57.09,1.5,1.5,0,0,0-.48.3,1.36,1.36,0,0,0-.44.92Z"/><path class="cls-1" d="M128.05,50.34v2.48h-.64v-6.1h.64v.68a2.16,2.16,0,0,1,.74-.6,2,2,0,0,1,.93-.19,2,2,0,0,1,1.57.66,2.42,2.42,0,0,1,.61,1.6,2.46,2.46,0,0,1-.61,1.61,2,2,0,0,1-1.57.66,2,2,0,0,1-.93-.19A2.07,2.07,0,0,1,128.05,50.34Zm0-2.18v1.42a1.62,1.62,0,0,0,.61.71,1.73,1.73,0,0,0,.91.27,1.47,1.47,0,0,0,.65-.12,1.65,1.65,0,0,0,.54-.36,1.58,1.58,0,0,0,.36-.56,2,2,0,0,0,0-1.3,1.64,1.64,0,0,0-.36-.55,1.68,1.68,0,0,0-.54-.37,1.74,1.74,0,0,0-1.54.16,1.67,1.67,0,0,0-.62.7Z"/><path class="cls-1" d="M134.64,51.14a1.84,1.84,0,0,1-1.17-.38,1.19,1.19,0,0,1-.36-.47,1.43,1.43,0,0,1-.12-.58,1.29,1.29,0,0,1,.13-.58,1.24,1.24,0,0,1,.38-.47,2,2,0,0,1,1.26-.38,3,3,0,0,1,1.56.42v-.43c0-.72-.47-1.08-1.42-1.08a2.45,2.45,0,0,0-1.41.44V47a2.85,2.85,0,0,1,1.54-.39,2.21,2.21,0,0,1,1.41.41,1.58,1.58,0,0,1,.4.53,1.36,1.36,0,0,1,.12.66V50a.68.68,0,0,0,.11.39.38.38,0,0,0,.14.11.45.45,0,0,0,.16,0,.58.58,0,0,0,.26-.05V51a.8.8,0,0,1-.43.1.86.86,0,0,1-.54-.18.74.74,0,0,1-.27-.51,2.2,2.2,0,0,1-1.75.76Zm.18-.58a1.84,1.84,0,0,0,.85-.21,1.92,1.92,0,0,0,.65-.52v-.59a2.51,2.51,0,0,0-1.4-.43A1.63,1.63,0,0,0,134,49a.81.81,0,0,0-.25.27.74.74,0,0,0-.09.36.67.67,0,0,0,.08.37.75.75,0,0,0,.25.28A1.43,1.43,0,0,0,134.82,50.56Z"/><path class="cls-1" d="M138.37,51v-.59h.17c.37,0,.63-.24.76-.71a7,7,0,0,0,.22-1.65l0-1.37h3.23V51h-.65V47.28h-2l0,.83c0,.32,0,.55,0,.7a4.7,4.7,0,0,1-.26,1.28,1.59,1.59,0,0,1-.5.7,1.1,1.1,0,0,1-.8.25Z"/><path class="cls-1" d="M146.75,51h-2.18V46.72h.64v1.44h1.51a1.8,1.8,0,0,1,1.2.39,1.32,1.32,0,0,1,.34.47,1.25,1.25,0,0,1,.1.57,1.37,1.37,0,0,1-.09.57,1.47,1.47,0,0,1-.33.48A1.68,1.68,0,0,1,146.75,51Zm-1.54-2.3v1.74h1.42a1.25,1.25,0,0,0,.8-.23.85.85,0,0,0,.22-.28,1.11,1.11,0,0,0,0-.72.89.89,0,0,0-.22-.29,1.25,1.25,0,0,0-.8-.22Z"/><path class="cls-1" d="M150.48,51h-.64V46.72h.64v1.81h2.66V46.72h.64V51h-.64V49.11h-2.66Z"/><path class="cls-1" d="M157.53,51h-2V46.72h.64v1.44h1.29a1.8,1.8,0,0,1,1.2.39A1.45,1.45,0,0,1,159,49a1.25,1.25,0,0,1,.1.57,1.37,1.37,0,0,1-.43,1A1.64,1.64,0,0,1,157.53,51Zm-1.32-2.3v1.74h1.2a1.2,1.2,0,0,0,.8-.23.85.85,0,0,0,.22-.28,1.11,1.11,0,0,0,0-.72.89.89,0,0,0-.22-.29,1.25,1.25,0,0,0-.8-.22ZM160.5,51h-.64V46.72h.64Z"/><path class="cls-1" d="M162.89,51h-.6V46.72h.64v3.36l2.76-3.36h.6V51h-.64V47.67ZM164.3,46a1.47,1.47,0,0,1-1.06-.37,1.29,1.29,0,0,1-.31-.45,1.39,1.39,0,0,1-.1-.53h.57a.87.87,0,0,0,.06.32.75.75,0,0,0,.18.28.92.92,0,0,0,.3.18.83.83,0,0,0,.35.05.8.8,0,0,0,.34-.05,1,1,0,0,0,.29-.18,1,1,0,0,0,.19-.27,1,1,0,0,0,.06-.33h.56a1.22,1.22,0,0,1-.1.53,1.25,1.25,0,0,1-.31.45A1.42,1.42,0,0,1,164.3,46Z"/><path class="cls-1" d="M171.35,51h-.64V46.72h3.87V51h-.64V47.28h-2.59Z"/><path class="cls-1" d="M176.71,47.28a2.44,2.44,0,0,1,3.36,0,2.29,2.29,0,0,1,0,3.2,2.47,2.47,0,0,1-3.36,0,2.29,2.29,0,0,1,0-3.2Zm3.35,1.6a1.59,1.59,0,0,0-.11-.65,1.92,1.92,0,0,0-.36-.56,1.74,1.74,0,0,0-2.4,0,1.79,1.79,0,0,0-.47,1.2,1.76,1.76,0,0,0,.47,1.2,1.71,1.71,0,0,0,2.4,0,1.57,1.57,0,0,0,.35-.55,1.41,1.41,0,0,0,.12-.64Z"/><path class="cls-1" d="M182.83,50.34v2.48h-.64v-6.1h.64v.68a2.16,2.16,0,0,1,.74-.6,2,2,0,0,1,.93-.19,2,2,0,0,1,1.57.66,2.41,2.41,0,0,1,.6,1.6,2.45,2.45,0,0,1-.6,1.61,2,2,0,0,1-1.57.66,2,2,0,0,1-.93-.19A2.07,2.07,0,0,1,182.83,50.34Zm0-2.18v1.42a1.62,1.62,0,0,0,.61.71,1.73,1.73,0,0,0,.91.27,1.47,1.47,0,0,0,.65-.12,1.65,1.65,0,0,0,.54-.36,1.71,1.71,0,0,0,.47-1.21,1.62,1.62,0,0,0-.11-.65,1.8,1.8,0,0,0-.36-.55,1.68,1.68,0,0,0-.54-.37,1.76,1.76,0,0,0-1.55.16A1.74,1.74,0,0,0,182.83,48.16Z"/><path class="cls-1" d="M189.67,51H189V47.28h-1.56v-.56h3.77v.56h-1.56Z"/><path class="cls-1" d="M193.77,51.14a1.84,1.84,0,0,1-1.17-.38,1.19,1.19,0,0,1-.36-.47,1.28,1.28,0,0,1-.11-.58,1.17,1.17,0,0,1,.12-.58,1.34,1.34,0,0,1,.38-.47,2,2,0,0,1,1.27-.38,3,3,0,0,1,1.55.42v-.43c0-.72-.47-1.08-1.42-1.08a2.45,2.45,0,0,0-1.41.44V47a2.85,2.85,0,0,1,1.54-.39,2.21,2.21,0,0,1,1.41.41,1.61,1.61,0,0,1,.41.53,1.36,1.36,0,0,1,.11.66V50a.69.69,0,0,0,.12.39.35.35,0,0,0,.13.11.45.45,0,0,0,.16,0,.58.58,0,0,0,.26-.05V51a.8.8,0,0,1-.43.1.86.86,0,0,1-.54-.18.74.74,0,0,1-.27-.51,2.2,2.2,0,0,1-1.75.76Zm.18-.58a1.78,1.78,0,0,0,.85-.21,1.92,1.92,0,0,0,.65-.52v-.59a2.49,2.49,0,0,0-1.4-.43,1.64,1.64,0,0,0-.94.23.81.81,0,0,0-.25.27.74.74,0,0,0-.09.36.67.67,0,0,0,.08.37.75.75,0,0,0,.25.28A1.43,1.43,0,0,0,194,50.56Z"/><path class="cls-1" d="M197.5,51v-.59h.17c.37,0,.63-.24.76-.71a7,7,0,0,0,.22-1.65l0-1.37h3.22V51h-.65V47.28h-2l0,.83c0,.32,0,.55,0,.7a4.7,4.7,0,0,1-.26,1.28,1.65,1.65,0,0,1-.49.7,1.14,1.14,0,0,1-.81.25Z"/><polygon class="cls-2" points="80 49.45 68.47 69.44 46.2 69.44 35.45 50.03 46.76 30.45 69.03 30.45 80 49.45 80 49.45"/><polygon class="cls-3" points="62.23 19.01 50.69 38.99 28.42 38.99 17.67 19.59 28.98 0 51.25 0 62.23 19.01 62.23 19.01"/><path class="cls-4" d="M29,0,40,19,28.42,39,17.67,19.59,29,0Z"/><path class="cls-5" d="M29,0,40,19H62.23l-11-19Z"/><path class="cls-3" d="M40,19,28.42,39H50.69L62.23,19Z"/><path class="cls-6" d="M46.76,30.45l11,19-11.54,20L35.45,50,46.77,30.45Z"/><path class="cls-7" d="M57.74,49.46l-11.54,20H68.47L80,49.46Z"/><path class="cls-2" d="M46.76,30.45l11,19H80l-11-19Z"/><path class="cls-8" d="M11.31,30.45l11,19-11.54,20L0,50,11.31,30.45Z"/><path class="cls-9" d="M22.29,49.46l-11.54,20H33l11.54-20Z"/><path class="cls-10" d="M11.31,30.45l11,19H44.55L38.51,39H28.42l-4.73-8.54Z"/></g></g></svg>