<?xml version="1.0" encoding="UTF-8" standalone="no"?>
<svg
   xmlns:dc="http://purl.org/dc/elements/1.1/"
   xmlns:cc="http://creativecommons.org/ns#"
   xmlns:rdf="http://www.w3.org/1999/02/22-rdf-syntax-ns#"
   xmlns:svg="http://www.w3.org/2000/svg"
   xmlns="http://www.w3.org/2000/svg"
   id="svg8"
   version="1.1"
   viewBox="0 0 5.9531249 4.2333334"
   height="16"
   width="22.5">
  <defs
     id="defs2" />
  <metadata
     id="metadata5">
    <rdf:RDF>
      <cc:Work
         rdf:about="">
        <dc:format>image/svg+xml</dc:format>
        <dc:type
           rdf:resource="http://purl.org/dc/dcmitype/StillImage" />
        <dc:title></dc:title>
      </cc:Work>
    </rdf:RDF>
  </metadata>
  <g
     transform="translate(0,-292.76665)"
     id="layer1">
    <path
       style="fill:#ffffff;stroke-width:0.26458332;fill-opacity:1"
       class="st0"
       d="m 5.704216,296.2708 v -2.13349 c 0,-0.0271 0,-0.054 -0.02701,-0.054 0,0 0,0 0,-0.027 0,-0.0271 -0.02701,-0.0271 -0.05402,-0.0271 l -2.727637,-1.24229 c -0.02701,-0.027 -0.08101,-0.027 -0.108026,0 l -2.700632,1.24235 c -0.05402,0.027 -0.08101,0.054 -0.08101,0.10804 0,0.054 0.02701,0.10802 0.08101,0.13503 l 0.918215,0.40508 v 1.75541 c 0,0.054 0.02701,0.10804 0.08101,0.10804 0.567133,0.29706 1.161273,0.4591 1.755411,0.4591 0.594139,0 1.215285,-0.16204 1.83643,-0.4591 0.05402,-0.027 0.08101,-0.0811 0.08101,-0.10804 v -1.75541 l 0.729171,-0.32407 v 1.91745 c -0.135032,0.054 -0.243057,0.18904 -0.243057,0.35108 0,0.21605 0.162038,0.37809 0.378088,0.37809 0.216051,0 0.324075,-0.16204 0.324075,-0.37809 0,-0.16204 -0.08101,-0.29707 -0.243056,-0.35108 z m -1.24229,0.081 c -1.10726,0.51312 -2.187512,0.51312 -3.186745,0 v -1.53936 l 1.53936,0.70216 c 0.02701,0 0.02701,0 0.05402,0 0.02701,0 0.02701,0 0.05402,0 l 1.53936,-0.70216 z m -1.620379,-1.10726 -2.40356299,-1.08026 2.40356299,-1.08025 2.403562,1.08025 z m 2.727638,1.48535 c -0.05402,0 -0.108026,-0.054 -0.108026,-0.10803 0,-0.054 0.05402,-0.10802 0.108026,-0.10802 0.05402,0 0.108025,0.054 0.108025,0.10802 0,0.054 -0.02701,0.10803 -0.108025,0.10803 z"
       id="path4743" />
  </g>
  <style
     type="text/css"
     id="style4741">
	.st0{fill:#434B52;}
</style>
</svg>
