<?xml version="1.0" encoding="utf-8"?>
<!-- Generator: Adobe Illustrator 24.0.2, SVG Export Plug-In . SVG Version: 6.00 Build 0)  -->
<svg version="1.1" id="Слой_1" xmlns="http://www.w3.org/2000/svg" xmlns:xlink="http://www.w3.org/1999/xlink" x="0px" y="0px"
	 viewBox="0 0 1920 1280" style="enable-background:new 0 0 1920 1280;" xml:space="preserve">
<style type="text/css">
	.st0{fill:#EBF3FA;}
	.st1{fill:#FFFFFF;}
	.st2{fill:none;}
	.st3{display:none;}
	.st4{display:inline;fill:#FF7133;}
	.st5{fill:none;stroke:#33211F;stroke-linecap:round;stroke-linejoin:round;stroke-miterlimit:10;}
	.st6{fill:#C99BCE;}
	.st7{fill:#F3E0FC;}
	.st8{fill:#489BFD;}
	.st9{fill:#FF7133;}
	.st10{fill:#33211F;}
	.st11{fill:#FFB4AF;}
	.st12{fill:#FFC3C2;}
	.st13{fill:#FAB234;}
	.st14{fill:#E85D8F;}
	.st15{fill:#472E2E;}
	.st16{fill:#64B2FF;}
	.st17{display:inline;fill:#472E2E;}
	.st18{display:inline;fill:#FAB234;}
	.st19{display:inline;fill:#E85D8F;}
	.st20{fill:#DFC8ED;}
	.st21{enable-background:new    ;}
	.st22{fill:#FCA89E;}
	.st23{fill:#28337D;}
	.st24{fill:#E88315;}
	.st25{fill:#374291;}
	.st26{fill:#F79826;}
	.st27{fill:#E4C4FF;}
	.st28{fill:#F45540;}
	.st29{fill:url(#SVGID_1_);}
	.st30{fill:#4A5BAF;}
	.st31{fill:#222568;}
	.st32{fill:url(#SVGID_2_);}
	.st33{fill:url(#SVGID_3_);}
	.st34{fill:url(#SVGID_4_);}
	.st35{fill:#4858A3;}
	.st36{fill:#FBF3FF;}
	.st37{opacity:0.25;fill:#374291;}
	.st38{fill:#C7AFD8;}
	.st39{fill:#AC93C1;}
	.st40{fill:#492E2E;}
	.st41{fill:#604040;}
	.st42{fill:#DB4574;}
	.st43{fill:#FC4759;}
	.st44{opacity:0.25;}
	.st45{fill:#AEDEFF;}
	.st46{fill:#80C6FF;}
	.st47{opacity:0.2;fill:#FFFFFF;}
	.st48{fill:none;stroke:#33211F;stroke-linecap:round;stroke-linejoin:round;}
	.st49{fill:none;stroke:#33211F;stroke-linecap:round;stroke-linejoin:round;stroke-dasharray:5.0890007,8.1424017;}
	.st50{fill:none;stroke:#33211F;stroke-linecap:round;stroke-linejoin:round;stroke-dasharray:5.0888066,8.1420908;}
	.st51{fill:none;stroke:#33211F;stroke-linecap:round;stroke-linejoin:round;stroke-dasharray:5.0144157,8.0230656;}
	.st52{fill:#777C99;}
	.st53{fill:#FF6A4D;}
	.st54{fill:#FF8271;}
	.st55{fill:#217C59;}
	.st56{fill:none;stroke:#33211F;stroke-linecap:round;stroke-linejoin:round;stroke-dasharray:5.0546751,8.0874796;}
	.st57{fill:none;stroke:#33211F;stroke-linecap:round;stroke-linejoin:round;stroke-dasharray:5.1156378,8.1850204;}
	.st58{fill:none;stroke:#33211F;stroke-linecap:round;stroke-linejoin:round;stroke-dasharray:4.9875603,7.9800959;}
	.st59{fill:#CC3A6E;}
	.st60{fill:#D6CEC9;}
	.st61{fill:#FFAD97;}
	.st62{fill:#D2ABD8;}
	.st63{fill:#E3D1ED;}
	.st64{fill:#181C54;}
	.st65{fill:#563D3D;}
	.st66{fill:none;stroke:#33211F;stroke-linecap:round;stroke-linejoin:round;stroke-dasharray:4.9990287,7.998446;}
	.st67{fill:#281D4F;}
	.st68{fill:#1C2059;}
	.st69{fill:none;stroke:#33211F;stroke-linecap:round;stroke-linejoin:round;stroke-dasharray:5.001184,8.001894;}
	.st70{fill:none;stroke:#FAB234;stroke-miterlimit:10;}
	.st71{fill:none;stroke:#33211F;stroke-linecap:round;stroke-linejoin:round;stroke-dasharray:4.9552102,7.9283361;}
	.st72{fill:#E0E0E0;}
	.st73{fill:#489AFB;}
	.st74{fill:#FFFFFF;stroke:#33211F;stroke-linecap:round;stroke-linejoin:round;stroke-miterlimit:10;}
	.st75{fill:#5C6BB7;}
	.st76{fill:#4C60A8;}
	.st77{fill:#2B3A82;}
	.st78{fill:none;stroke:#33211F;stroke-linecap:round;stroke-linejoin:round;stroke-dasharray:5.0009623,8.0015402;}
	.st79{fill:none;stroke:#33211F;stroke-linecap:round;stroke-linejoin:round;stroke-dasharray:5.0732231,8.117157;}
	.st80{fill:none;stroke:#33211F;stroke-linecap:round;stroke-linejoin:round;stroke-dasharray:4.9707241,7.9531584;}
	.st81{fill:#FF1010;}
	.st82{fill:#FF2439;}
	.st83{fill:#1A3B9A;}
	.st84{fill:none;stroke:#33211F;stroke-linecap:round;stroke-linejoin:round;stroke-dasharray:5.0123124,8.0196991;}
	.st85{fill:none;stroke:#33211F;stroke-linecap:round;stroke-linejoin:round;stroke-dasharray:4.9868436,7.9789495;}
	.st86{fill:none;stroke:#33211F;stroke-linecap:round;stroke-linejoin:round;stroke-dasharray:5.053226,8.0851612;}
	.st87{fill:url(#SVGID_5_);}
	.st88{fill:url(#SVGID_6_);}
	.st89{fill:#0072EF;}
	.st90{fill:none;stroke:#33211F;stroke-linecap:round;stroke-linejoin:round;stroke-dasharray:4.9575386,7.9320617;}
	.st91{fill:none;stroke:#33211F;stroke-linecap:round;stroke-linejoin:round;stroke-dasharray:5.0624657,8.0999451;}
	.st92{fill:none;stroke:#33211F;stroke-linecap:round;stroke-linejoin:round;stroke-dasharray:5.0674834,8.1079741;}
	.st93{fill:url(#SVGID_7_);}
	.st94{fill:url(#SVGID_8_);}
	.st95{fill:url(#SVGID_9_);}
	.st96{fill:url(#SVGID_10_);}
	.st97{fill:url(#SVGID_11_);}
	.st98{fill:url(#SVGID_12_);}
</style>
<path class="st0" d="M1695.756958,0.0044575c-1.1000977,13.1801758-3.1801758,26.2001953-5.5400391,38.4199219
	c-6.4799805,33.5800743-18.5800781,66.0703125-35.75,95.6499023
	c-25.9301758,44.6401367-68.2299805,79.3901367-113.630127,103.0400391
	c-98.630127,51.3803711-217.0600586,39.6699219-315.1599121,89.3803711
	c-77.3400879,39.199707-138.9501953,108.909668-171.8100586,188.699707
	c-25.3000488,61.4101563-31.1098633,128.3901367-50.3400879,191.6000977
	c-19.619873,64.4799805-54.5898438,124.9501953-102.1899414,172.8500977
	c-78.0200195,78.5200195-180.630127,102.6298828-284.7199707,125.1499023
	c-85.6000977,18.5297852-164.3100891,56.0601196-223.2998352,122.0498657
	c-40.6704102,45.4902344-79.2299805,99.1201172-110.3803711,153.1601563H0.0069304v-1280H1695.756958z"/>
<path class="st1" d="M1517.0767822,0.0044575c-1.1098633,8.9799805-2.5898438,17.7900391-4.2099609,26.2202148
	c-6.4299316,33.5898438-18.4799805,66.0996094-35.6098633,95.699707
	c-25.8601074,44.6699219-68.1201172,79.4799805-113.4902344,103.2001953
	c-98.5498047,51.5200195-217,39.9799805-315.0297852,89.8300781
	c-77.2802734,39.3198242-138.7900391,109.1098633-171.5302734,188.949707
	c-25.2099609,61.4501953-30.9299316,128.4399414-50.0698242,191.6699219
	c-19.5200195,64.5102539-54.4101563,125.0302734-101.9399414,173
	c-77.9001465,78.6303711-180.4799805,102.8901367-284.5400696,125.5600586
	c-12.3598633,2.7001953-24.5898438,5.7900391-36.6201172,9.3100586
	c-71.2700195,20.8203735-136.1098633,56.5401001-186.5,113.0601196c-40.6000977,45.550293-81.9799805,109.4101563-113.0498047,163.5
	H-0.0033235v-1280H1517.0767822z"/>
<path class="st0" d="M1920.0045166,761.1813354c0,0,0,518.8197632,0,518.8197632c-35.755249,0-71.510376,0-107.2655029,0
	c-84.234375,0-168.4688721,0-252.7032471,0c-98.3171387-0.0001221-196.6342773-0.0001221-294.951416-0.0002441
	c-78.0032959,0-156.0065918-0.0001221-234.0098877-0.0002441c-23.0802612-0.0001221-69.2303467-0.0025635-69.2303467-0.0025635
	c16.0239868-5.8765869,29.7926025-15.7171631,43.6436157-25.4377441
	c55.9823608-39.2880859,86.1480103-88.3175049,113.192688-149.9992676
	c23.8868408-54.4797363,53.1289063-101.6080322,100.866333-138.0727539
	c50.1618652-38.3167114,109.5826416-63.357666,169.8615723-80.8889771
	c164.7315674-47.9099121,343.5587158-40.8712158,501.7662354-110.6978149
	C1900.8945313,770.6114502,1910.5145264,766.0411987,1920.0045166,761.1813354z"/>
<path class="st0" d="M951.8067627,0.0044575c-24.1599121,22.7402344-51.4699707,41.4301758-79.6899414,58.8901367
	c-0.6000977,0.3701172-1.1999512,0.7397461-1.8100586,1.1098633
	c-57.7700195,35.5800743-119.1699219,66.2602539-165.1499023,116.1401367
	c-58.7700195,63.75-92.130127,150.6000977-95.0400391,236.8398438
	c-2.2399902,66.3798828,15.7199707,131.1601563,19.7900391,197.1098633
	c4.1098633,66.6000977,0.1599121,140.1000977-35.6801758,199.050293
	c-57.0498047,93.8398438-183.179718,120.4296875-284.6899719,123.8500977
	c-97.4897461,3.2797852-220.5498047-11.0302734-309.5297852,41.2597656c-0.0102539,0-0.0102539,0-0.0102539,0V0.2246724
	l0.0102539-0.2202148H951.8067627z"/>
<g>
	<path class="st5" d="M1426.1292725,540.2561035c5.9169922-7.3659668,11.5900879-15.7737427,14.5083008-24.8301392
		c1.9180908-5.9524841,2.760498-13.5357971-0.2366943-19.2634277c-1.6237793-3.1029663-4.4139404-5.5776978-7.6885986-6.819397
		c-13.7174072-5.2012939-29.4447021,10.0300598-43.2154541,10.9102478"/>
	<path class="st5" d="M1361.2149658,498.8352966c-10.3411865-0.9755859-21.3154297-11.1953735-27.6739502-18.6328735
		c-13.7575684-16.0921936-24.6053467-29.5795288-46.4283447-33.3301086
		c-28.8410645-4.9567261-70.4953613-3.0470276-76.321167,33.3092041
		c-2.4616699,15.3620911,10.9641113,23.8228149,20.4425049,32.7277222c3.4776611,3.2671509,7.1427002,8.678833,8.0666504,13.3432007
		c0.5499268,2.7755127-0.4016113,5.9003906,0.5699463,8.1694336"/>
	<path class="st5" d="M1549.5723877,704.7565308c-1.3540039,3.5335693-3.2966309,6.8632813-5.6789551,9.75177
		c-16.7646484,20.3257446-47.7237549,4.2739868-62.8768311-9.9580078
		c-5.4008789-5.0727539-9.9194336-10.8255005-12.873291-17.6559448c-3.0196533-6.982605-4.7753906-14.4886475-8.3907471-21.2174683
		c-3.4746094-6.4669189-8.847168-11.1096191-15.7979736-13.5348511c-7.0712891-2.4672241-14.6121826-2.6723022-21.9368896-3.8979492
		c-4.9509277-0.8284912-9.9031982-2.0983887-14.2530518-4.6037598c-3.5888672-2.0671387-6.7702637-5.050354-8.6427002-8.781311
		c-2.2692871-4.5220947-0.9298096-9.5643311,0.4241943-14.1629639c1.1899414-4.0414429,2.4456787-8.1602783,4.8087158-11.6960449"/>
	<g>
		<polygon class="st0" points="1463.8916016,589.9262085 1368.2554932,645.1419067 1368.2554932,577.4163818 
			1463.8916016,522.2011108 		"/>
		<polygon class="st6" points="1368.2554932,577.4163818 1362.3175049,573.9510498 1362.3175049,641.6762085 
			1368.2554932,645.1419067 		"/>
		<polygon class="st7" points="1463.8916016,522.2011108 1457.9534912,518.7354126 1362.3175049,573.9510498 
			1368.2554932,577.4163818 		"/>
		<g>
			<path class="st8" d="M1453.2994385,542.1212769l-77.2113037,44.5778198
				c-0.9871826,0.5700684-1.7947998-0.0405273-1.7947998-1.3567505l0,0c0-1.3161621,0.8076172-2.8595581,1.7947998-3.4292603
				l77.2113037-44.578125c0.9871826-0.5697632,1.7947998,0.0408325,1.7947998,1.3569946l0,0
				C1455.0942383,540.0081787,1454.2866211,541.5512695,1453.2994385,542.1212769z"/>
			<path class="st8" d="M1428.4692383,566.4959717l-52.3811035,30.2422485
				c-0.9871826,0.5697021-1.7947998-0.0405884-1.7947998-1.3570557l0,0c0-1.3161621,0.8076172-2.8592529,1.7947998-3.4293213
				l52.3811035-30.2422485c0.9873047-0.5697021,1.7947998,0.0405884,1.7947998,1.3570557l0,0
				C1430.2640381,564.3828125,1429.456543,565.9259033,1428.4692383,566.4959717z"/>
			<polygon class="st9" points="1385.4703369,630.0930176 1379.1337891,633.7512207 1379.1337891,610.3308716 
				1385.4703369,606.6724243 			"/>
			<polygon class="st8" points="1398.2878418,622.692688 1391.9510498,626.3511963 1391.9510498,597.3397827 
				1398.2878418,593.6813354 			"/>
			<polygon class="st9" points="1411.1051025,615.2926636 1404.7686768,618.9511719 1404.7686768,601.4663086 
				1411.1051025,597.8078003 			"/>
			<polygon class="st9" points="1424.0292969,607.8308105 1417.692749,611.4893188 1417.692749,580.0394287 
				1424.0292969,576.3809204 			"/>
			<polygon class="st9" points="1436.8469238,600.4308472 1430.510376,604.0892944 1430.510376,580.6687012 
				1436.8469238,577.0101929 			"/>
			<polygon class="st9" points="1449.6641846,593.0308228 1443.3276367,596.6889038 1443.3276367,579.2456665 
				1449.6641846,575.5874634 			"/>
		</g>
	</g>
	<g>
		<path class="st10" d="M1104.0372314,555.2011719c0,0,2.4892578-7.8997192-4.4155273-11.6975098
			c-6.9047852-3.7973633-4.8846436-8.7526245-4.8846436-8.7526245s-2.4990234,0.0671997-4.3031006,4.3286743
			c-0.7419434,1.7529907,0.5921631,4.5030518,0.5921631,4.5030518s-2.375-2.5263062-6.4190674-3.3970947
			c-4.0437012-0.8707275-6.2939453,0.7333984-6.2939453,0.7333984s2.7425537,1.1740112,4.4350586,2.8428345
			c1.6921387,1.6691895,0.043335,3.4718628-0.2174072,4.5408936c-0.9200439,3.7710571,0.6627197,5.8093872,0.6627197,5.8093872
			s-1.9005127,1.4514771-5.7021484-0.571228c-3.8016357-2.0222778-3.0603027-6.4989624-3.0603027-6.4989624
			s-3.369873,4.1325684-1.4326172,8.0983887c1.5087891,3.0894775,5.8085938,4.012207,5.8085938,4.012207
			s-3.5889893,3.2478027-2.4195557,6.3739014c1.8886719,5.0488892,6.2271729,4.592041,6.2271729,4.592041
			s-4.4711914,4.9360962-0.3071289,8.0388184c5.5061035,4.1028442,9.3834229-1.0098267,9.3834229-1.0098267
			L1104.0372314,555.2011719z"/>
		<path class="st11" d="M1112.1866455,589.4116821c0,0,3.0576172-7.1523438,15.9654541-8.1256104
			c6.3956299-0.4824219,15.8280029-7.4161377,26.1766357-12.2208252
			c7.9814453-3.7055054,17.5585938-6.8660889,26.4102783-10.1027832c6.1153564-2.2362671,19.0689697-3.6437988,20.0240479-4.1300659
			c2.9193115-1.4854126-11.0308838,18.9227295-11.5177002,23.6265869
			c-0.4862061,4.7042847-29.7875977-0.8775635-38.9865723,9.246521
			c-9.1988525,10.1240845-19.027832,20.9283447-19.027832,20.9283447S1111.0947266,595.5907593,1112.1866455,589.4116821z"/>
		<path class="st11" d="M1131.230957,696.0654907c0,0-10.2044678,53.6448364-16.331665,64.977417
			c-2.8874512,5.3406982-8.8845215,11.3832397-16.5175781,18.4900513
			c-7.0552979,6.5687256-26.5977783,30.6653442-31.2093506,38.4702148
			c-2.0227051,3.4229736-5.2236328,11.7081909-8.802002,29.3951416
			c-13.1289063,6.9677734-11.5239258-16.1921387-11.3295898-27.1750488
			c0.0791016-4.4763184,8.4118652-9.4881592,8.911377-10.6617432c3.2269287-7.585022,17.3703613-38.7871704,28.8050537-48.5186157
			c8.3272705-7.086853,6.9511719-55.300415,7.8886719-63.9645996
			C1093.5838623,688.4145508,1131.230957,696.0654907,1131.230957,696.0654907z"/>
		<path class="st12" d="M1108.9086914,707.4435425c0,0-7.7602539,27.526062-15.1384277,42.8538208
			c-7.3787842,15.328186-7.5531006,20.963562-12.2574463,24.854187c-3.7496338,3.1014404-14.2834473,5.4393311-30.572998,10.9501343
			c-16.2890625,5.5108643-29.8626099,11.5908203-33.5740967,14.1107178
			c-2.8721924,3.8709717-8.493042,16.7362671-12.2080078,23.6818848c-3.1251831,5.5571899-9.5936279,8.4553223-11.6342163,5.6346436
			c-2.21875-3.0670166,1.9380493-18.2808228,2.6557617-22.4631348c1.0731812-6.2573853,11.1270752-13.8466797,11.1270752-13.8466797
			s9.7251587-10.8862915,20.9389038-19.940979c15.1525879-12.2352295,32.8262939-17.5652466,32.8262939-17.5652466
			s4.4886475-21.144043,13.1184082-47.5028076c6.6488037-20.3069458,4.3861084-22.1776733,9.1256104-26.1724243
			C1088.0551758,678.0424805,1108.9086914,707.4435425,1108.9086914,707.4435425z"/>
		<path class="st13" d="M1132.2370605,674.3632813c0,0,5.6719971,11.1403809,1.8201904,33.9484863
			c-5.7647705,34.1351929-17.3725586,56.414978-17.3725586,56.414978s-18.2399902,12.3207397-36.0068359,3.8925781
			c-18.9766846-9.0014648-19.9499512-24.3287964-19.9499512-24.3287964s5.1130371-34.0761108,15.0393066-54.25354
			c9.9262695-20.1779785,28.6477051-20.6455078,28.6477051-20.6455078L1132.2370605,674.3632813z"/>
		<path class="st11" d="M1097.9656982,574.2051392c0,0-1.9443359,17.3598022-2.2038574,21.22229
			c-0.2595215,3.8620605-1.2735596,6.7775879-6.5686035,10.187439c-5.2952881,3.4103394-8.5153809,6.8120728-8.5153809,6.8120728
			s9.932251,8.2719727,26.4974365,6.8125c16.5646973-1.4598999,21.4306641-9.2452393,20.9440918-15.3273315
			c-0.4866943-6.0825195-3.2657471-12.8099365-7.2987061-12.8945923c-4.0327148-0.0842896-6.8121338-3.7033691-6.8121338-3.7033691
			L1097.9656982,574.2051392z"/>
		<path class="st14" d="M1120.1099854,594.5018311c2.0292969,2.883606,8.0421143,14.132019,1.37854,15.9790039
			c-10.3989258,2.8823853-15.7519531-5.5958862-28.3959961-8.0581055
			c-1.4594727,0.9733887-14.092041,10.3262329-15.9658203,13.8969116
			c-2.5527344,4.8641968,5.9013672,21.5549316,9.0100098,29.7852173c2.3919678,6.3317871-5.4057617,22.4196777-7.1689453,28.2584229
			c-1.7628174,5.8388672-7.048584,11.5377197-7.048584,11.5377197s7.048584,6.6903687,14.1817627,3.8190308
			c3.1916504-1.2846069,7.8466797-9.1716919,7.8466797-9.1716919s1.9979248,16.6796875,12.5478516,19.3417358
			c20.6556396,5.211792,32.2235107-11.5563354,32.2235107-11.5563354s-8.1052246-27.8378906-8.2277832-34.6082153
			c-0.1816406-10.0483398,0.454834-15.0193481,6.7321777-25.1804199c4.0130615-6.4956055-1.0609131-13.40802-3.4230957-19.9112549
			c-4.0644531-11.1901245-5.6098633-15.1831665-11.0330811-19.222168c-5.1552734-3.8390503-10.5805664,0-10.5805664,0
			S1117.657959,591.0175171,1120.1099854,594.5018311z"/>
		<path class="st12" d="M1097.1647949,558.3915405c4.6940918-5.317627,17.5338135-9.2809448,25.0162354,3.310791
			c7.8474121,13.2034302-1.4726563,33.503479-8.9228516,31.854248c-4.1721191-0.9230347-12.7176514-3.4289551-16.4788818-10.4537354
			C1092.5458984,575.1945801,1093.5175781,562.5219727,1097.1647949,558.3915405z"/>
		<path class="st15" d="M1128.8913574,558.9071655c0,0,4.0454102-0.2246094,4.6086426,2.9538574
			c0.5632324,3.178833-0.3280029,3.4034424,1.5202637,4.6591797c2.824585,1.918457,3.635376,3.847168,3.0334473,6.4956055
			c-0.6019287,2.6483765-3.6323242,3.9568481-3.6323242,3.9568481s0.3509521-3.5812378-1.4331055-4.1695557
			c-3.1317139-1.0319824-4.8391113,1.1246948-7.0073242-1.2404175c-1.796875-1.960144-2.2711182-5.2483521-6.0229492-3.4528198
			c-2.7420654,1.3123169-7.9287109-1.1553955-9.0709229-2.7548828c-1.276123,5.0340576-3.1154785,6.8895874-5.4825439,7.5395508
			c-2.3674316,0.6495972-5.3768311,0.7797241-5.6185303,4.2197876c-0.1879883,2.6735229,0.9378662,4.2640381-0.3127441,6.9848022
			c-1.2501221,2.7206421-5.4422607,3.7202759-5.4422607,3.7202759s-1.6176758-7.507019-4.7902832-14.0536499
			c-3.1724854-6.5470581,0.5262451-11.9787598,5.7724609-15.7680664
			c-0.512207-5.9634399,8.5424805-11.0245972,14.4851074-10.7630005c6.897583,0.3032837,9.3188477,2.4450073,12.0977783,6.5623779
			C1124.3751221,557.9147339,1126.711792,558.5864258,1128.8913574,558.9071655z"/>
		<path class="st14" d="M1049.9903564,811.0192871c0.0395508-0.0229492,0.0782471-0.0459595,0.1177979-0.0680542
			c0.3723145-0.210144,0.5985107-0.298645,0.5985107-0.298645l-0.0029297,0.0148926
			c2.3455811-1.065979,5.2484131-1.105957,5.2484131-1.105957s-9.1925049,11.4116821-7.425415,21.7221069
			c1.9724121,11.506958,4.2681885,15.2460938,9.8436279,16.1146851c0,0-0.7971191,4.0219727-1.239502,11.9000854
			c-0.2365723,4.2086792-4.1375732,4.7424927-9.5817871-1.5905151c-2.8763428-3.3460693-5.7178955-9.4026489-5.0130615-15.0061646
			c0.7401123-5.8898315,2.326416-11.4517212,2.0872803-16.0292358c-0.0373535-0.7108154-0.0604248-1.3289185-0.0854492-1.9597778
			l-0.0054932,0.0042725c-2.9138184,2.5365601-4.5788574,4.359314-6.6954346,6.1914673
			c-1.4736328,0.3305054-2.1308594-0.7669678-2.1257324-2.1414185c1.7886963-2.5620728,4.3078613-4.0410767,7.1174316-9.2584229
			C1045.8114014,813.9701538,1048.6955566,811.7836914,1049.9903564,811.0192871z"/>
		<path class="st14" d="M1000.2581787,797.1862793c0,0-4.4644165,5.3521729-6.8060913,7.9349976
			c-2.3421631,2.5825806-4.1738892,5.0183105-4.1738892,5.0183105s0.3842163,3.5838623,3.1112671,1.9095459
			C999.1598511,804.6278687,1000.2581787,797.1862793,1000.2581787,797.1862793z"/>
		<path class="st14" d="M1005.1577148,823.8942871c0,0-1.8486938,3.7467041-6.3518066,10.7484741
			c-1.9486694,3.0305176-5.6022949,5.8040161-8.539978,3.5928345c-7.5037231-5.6490479-5.1117554-11.9468384-3.7144165-15.9385986
			c1.7667236-5.0458984,9.1265869-15.7884521,12.1693115-21.9139404c2.7943726-8.0639648,8.5855103-7.1639404,8.5855103-7.1639404
			s-6.8899536,7.197937-10.0437012,14.9611816c-4.2172241,10.3818359-3.3554077,14.3884888-0.2603149,17.6848145
			C1000.3895874,829.4732056,1005.1577148,823.8942871,1005.1577148,823.8942871z"/>
	</g>
	<path class="st12" d="M1322.7836914,602.0140381c0,0,3.8905029,11.0369263,5.9804688,17.508728
		c2.0894775,6.4717407,8.3583984,20.6335449,13.9304199,32.0108032
		c5.5720215,11.3768311,11.1777344,31.3883667,11.4924316,32.9512939
		c0.3148193,1.5632935-11.4924316,2.1256714-11.4924316,2.1256714s-13.3880615-27.9276123-14.9752197-36.2374268
		c-1.7460938-9.1409912-4.6540527-23.0467529-8.5866699-30.8503418
		C1315.1999512,611.7195435,1322.7836914,602.0140381,1322.7836914,602.0140381z"/>
	<g>
		<path class="st8" d="M1322.3193359,491.8691711l-5.3404541-3.0602112
			c-0.0084229-0.0059509-0.0178223-0.0085144-0.0258789-0.0148926l-0.0791016-0.0450745l-0.0157471,0.0148926
			c-0.4824219-0.302887-1.1068115-0.319458-1.8078613,0.0850525l-182.1590576,105.1691895
			c-1.5015869,0.8668823-2.7186279,3.1929321-2.7186279,5.1947632v189.6635742c0,0.9281616,0.28125,1.5922241,0.7122803,1.9852905
			l-0.0128174,0.0246582l0.0510254,0.0293579c0.0595703,0.0497437,0.1276855,0.0726929,0.192627,0.1114502l5.612915,3.2401123
			l3.4375-6.4006958l-1.3833008-0.3364868l176.2674561-101.7678833c1.5015869-0.8668823,2.7186279-3.1924438,2.7186279-5.1947021
			V494.1168823l1.8278809,1.5066833L1322.3193359,491.8691711z"/>
		<path class="st16" d="M1323.3657227,683.7664185c0,2.0022583-1.2175293,4.3278198-2.7191162,5.1947632l-182.1585693,105.1696167
			c-1.5015869,0.8669434-2.7191162-0.0531616-2.7191162-2.055481v-189.663147c0-2.0022583,1.2175293-4.3278198,2.7191162-5.1947021
			l182.1585693-105.1696472c1.5015869-0.8669128,2.7191162,0.0535889,2.7191162,2.0554504V683.7664185z"/>
		<polygon class="st1" points="1318.03479,682.1644287 1141.0998535,784.317688 1141.0998535,615.5548096 1318.03479,513.4015503 		
			"/>
		<polygon class="st14" points="1318.4975586,507.1850281 1311.3303223,511.3230591 1311.3303223,501.7669373 
			1318.4975586,497.6292419 		"/>
		<polygon class="st13" points="1307.3240967,513.6359253 1300.1568604,517.7740479 1300.1568604,508.2177734 
			1307.3240967,504.0801697 		"/>
		<g class="st3">
			<polygon class="st17" points="1190.2216797,618.3410034 1190.2216797,626.1676025 1311.0333252,556.4169312 
				1311.0333252,548.5903931 			"/>
			<polygon class="st17" points="1190.2216797,634.9696045 1190.2216797,642.7962036 1311.0333252,573.0455322 
				1311.0333252,565.2189331 			"/>
			<polygon class="st17" points="1190.2216797,651.857666 1190.2216797,659.6838379 1311.0333252,589.9331665 
				1311.0333252,582.1069946 			"/>
			<polygon class="st17" points="1255.708252,632.1574097 1148.4458008,694.0853271 1148.4458008,701.9122925 
				1255.708252,639.9840088 			"/>
			<polygon class="st17" points="1255.708252,648.786438 1148.4458008,710.7142334 1148.4458008,718.5404663 
				1255.708252,656.6126099 			"/>
			<polygon class="st17" points="1255.708252,665.6740723 1148.4458008,727.6018677 1148.4458008,735.4285278 
				1255.708252,673.5002441 			"/>
			<polygon class="st17" points="1255.708252,682.9866943 1148.4458008,744.914917 1148.4458008,752.7411499 
				1255.708252,690.8128662 			"/>
			<polygon class="st18" points="1148.4458008,642.4550171 1148.4458008,683.5392456 1180.7390137,664.8441772 
				1180.7390137,623.760376 			"/>
			<polygon class="st18" points="1264.9291992,626.9055786 1264.9291992,685.5598145 1311.0333252,658.8696899 
				1311.0333252,600.2155151 			"/>
		</g>
		<g class="st3">
			<path class="st19" d="M1176.15979,631.3231812v-2.7912598l0.8537598-0.5942993
				c0.4381104-0.3237915,0.7515869-0.7103882,0.7515869-1.3999634v-16.0266113l-1.4743652,0.7478027v-2.9283447l6.2310791-3.5974121
				v2.7913208l-0.8537598,0.5980835c-0.4382324,0.3156738-0.751709,0.7061768-0.751709,1.5330811v15.3703003l4.295166-2.4799194
				c0.5444336-0.3161011,0.5942383-0.7896118,0.5942383-1.4459229v-2.4093628l2.6376953-1.2837524v6.8251343L1176.15979,631.3231812
				z"/>
			<path class="st19" d="M1190.0863037,623.2852173v-2.791748l0.8581543-0.5980835
				c0.4381104-0.3241577,0.7476807-0.7061157,0.7476807-1.3956909v-16.0266724l-1.4747314,0.7478027v-2.9329834
				l11.8433838-6.8375854v5.7243652l-2.6381836,1.7614746v-1.3790283c0-0.6564941-0.0498047-1.0388184-0.7473145-0.6359863
				l-3.8280029,2.2102661v5.8945313l5.9714355-3.4476929v3.5140381l-5.9714355,3.4481812v6.4428101l4.1623535-2.4050903
				c0.6728516-0.3862915,0.7226563-0.8265381,0.7226563-1.5160522v-1.7241211l2.6379395-1.2796021v6.1315308
				L1190.0863037,623.2852173z"/>
			<path class="st19" d="M1212.7307129,603.8023682c0-2.1766968-1.4748535-1.9440308-3.2839355-1.5535278
				c-2.5629883,0.5482788-4.9411621,0.5397339-4.9411621-3.8718262c0-4.2040405,2.4317627-8.1588135,6.0003662-10.2189331
				c1.7053223-0.9804688,3.3106689-1.4624634,4.8603516-1.3918457v5.171814l-2.6356201,1.7614746v-1.9937744
				c0-0.6563721-0.0789795-0.8890381-0.5445557-0.8269043c-0.4920654,0.0791016-1.1650391,0.3946533-1.6801758,0.6937866
				c-1.5288086,0.8805542-2.7148438,2.3970337-2.7148438,4.5319824c0,2.135437,1.5,1.8572388,3.4398193,1.5288696
				c2.3513184-0.3573608,4.8352051-0.3781738,4.8352051,4.0670776c0,4.548584-2.6918945,8.5863037-6.2600098,10.6468506
				c-2.0648193,1.1923218-3.670166,1.6700439-5.2197266,1.5994263v-5.4418945l2.6356201-1.7657471v2.1022339
				c0,0.6520996,0.0748291,0.8847656,0.5444336,0.8264771c0.487915-0.0829468,1.1608887-0.3653564,1.8588867-0.7686157
				C1211.3345947,607.914917,1212.7307129,606.3861084,1212.7307129,603.8023682z"/>
			<path class="st19" d="M1226.217041,596.0131836c0-2.1724243-1.4748535-1.9397583-3.2839355-1.5493164
				c-2.5612793,0.5484009-4.939209,0.539917-4.939209-3.8717651c0-4.2036133,2.4320068-8.1583862,6.0004883-10.2189331
				c1.7053223-0.9848022,3.3085938-1.4624634,4.8603516-1.3956909v5.1760864l-2.6376953,1.7610474v-1.9979858
				c0-0.6563721-0.0792236-0.8848267-0.5423584-0.8265381c-0.4921875,0.0786743-1.1651611,0.3985596-1.6802979,0.6933594
				c-1.5245361,0.8809814-2.7169189,2.3970337-2.7169189,4.5324707c0,2.1349487,1.5019531,1.8567505,3.4395752,1.5288086
				c2.3536377-0.3572998,4.8358154-0.3739014,4.8358154,4.0709229c0,4.5443115-2.6922607,8.5824585-6.2565918,10.6425171
				c-2.072876,1.1966553-3.671875,1.670105-5.2236328,1.6036987v-5.446106l2.6378174-1.7653198v2.1018066
				c0,0.6563721,0.0748291,0.8890381,0.5424805,0.8269653c0.4898682-0.0791626,1.1628418-0.3615723,1.8608398-0.7686768
				C1224.8209229,600.1256714,1226.217041,598.5973511,1226.217041,596.0131836z"/>
			<path class="st19" d="M1238.9035645,595.5482178c-4.6047363,2.6586304-7.4981689,0.3279419-7.4981689-7.5275269
				c0-8.8232422,4.1623535-14.3272705,7.7806396-16.4210815c3.8531494-2.2225342,7.3175049-1.0552979,7.3175049,7.7015991
				C1246.50354,587.1940918,1243.4295654,592.9351196,1238.9035645,595.5482178z M1239.0822754,591.9631348
				c3.2856445-1.8942261,4.2163086-6.5717163,4.2163086-10.7051392c0-3.5187988-0.697998-8.0754395-4.2661133-6.0153198
				c-3.3111572,1.9111938-4.3970947,6.6384277-4.3970947,10.7382813
				C1234.635376,589.9110718,1235.3601074,594.1150513,1239.0822754,591.9631348z"/>
			<path class="st19" d="M1248.354248,586.8534546l0.9302979-0.6436157
				c0.4403076-0.2866821,0.6730957-0.6605835,0.6730957-1.3501587v-16.0266724l-1.4748535,0.7478027v-2.9329834l4.6549072-2.6832886
				l7.3173828,11.5899048l0.052002-0.0250854v-12.7861938l-1.7054443,0.8805542v-2.9329224l6.3062744-3.6387329v2.7913818
				l-0.9285889,0.6397705c-0.3883057,0.2577515-0.6231689,0.6980591-0.6231689,1.428833v18.9511719l-3.0240479,1.7491455
				l-7.4733887-11.7438965l-0.0499268,0.0250244v13.0273438l1.6802979-0.8643188v2.9287109l-6.3348389,3.6599731V586.8534546z"/>
			<path class="st19" d="M1276.2094727,555.8431396l-3.0217285,3.8135376l-1.140625-1.9984131l4.7064209-6.6049194
				l2.5361328-1.4663086v19.0924072l2.6879883-1.3752441v2.9244995l-8.9980469,5.1968994v-2.8250122l2.4820557-1.640686
				c0.4926758-0.3156128,0.7478027-0.7061157,0.7478027-1.5700684V555.8431396z"/>
		</g>
		<g>
			<polygon class="st20" points="1152.8156738,636.3962402 1152.8156738,649.6191406 1169.5698242,639.8400879 
				1169.5698242,626.6171875 			"/>
			<g>
				<path class="st20" d="M1167.5698242,648.2230225v8.5910645l-12.7541504,7.4445801v-8.5913086L1167.5698242,648.2230225
					 M1169.5698242,644.7398682l-16.7541504,9.7790527v13.2229004l16.7541504-9.7792969V644.7398682L1169.5698242,644.7398682z"/>
			</g>
			<g>
				<path class="st20" d="M1167.5698242,666.3453369v8.5913086l-12.7541504,7.4443359v-8.5913086L1167.5698242,666.3453369
					 M1169.5698242,662.8621826l-16.7541504,9.7790527v13.2229004l16.7541504-9.7790527V662.8621826L1169.5698242,662.8621826z"/>
			</g>
			<g>
				<path class="st20" d="M1167.5698242,684.4678955v8.5913086l-12.7541504,7.4443359v-8.5915527L1167.5698242,684.4678955
					 M1169.5698242,680.9847412l-16.7541504,9.7788086v13.2231445l16.7541504-9.7790527V680.9847412L1169.5698242,680.9847412z"/>
			</g>
			<g>
				<path class="st20" d="M1167.5698242,702.5904541v8.5913086l-12.7541504,7.4443359v-8.5915527L1167.5698242,702.5904541
					 M1169.5698242,699.1072998l-16.7541504,9.7788086v13.2231445l16.7541504-9.7790527V699.1072998L1169.5698242,699.1072998z"/>
			</g>
		</g>
		<g>
			<g>
				<path class="st22" d="M1234.2132568,638.7895508c0.2854004,0.0585327,0.5797119,0.088562,0.8831787,0.0877075
					c2.3515625-0.0042725,5.3884277-0.5599976,8.5759277-1.6943359l0.005249,1.8475952l2.1793213-2.7088623
					c1.1925049-0.5165405,2.3897705-1.1121826,3.5632324-1.7896729c3.3579102-1.9387207,6.5273438-4.5429077,8.8770752-7.8433228
					l0.1807861,3.9004517l0.0192871,0.4185791c-0.0836182,0.4831543-1.6743164,9.6638184-11.1447754,15.1315918
					c-0.352417,0.2034912-0.7147217,0.4005737-1.0891113,0.5918579c-9.7103271,4.9484253-11.8608398-1.1593018-12.1256104-2.0891724
					c-0.0212402-0.0745239-0.0299072-0.1137695-0.0303955-0.1157837L1234.2132568,638.7895508z"/>
			</g>
			<g>
				<path class="st22" d="M1247.8084717,606.6456909c5.1121826-2.9515381,9.9460449-4.7263184,9.87854-2.4110107
					c-0.1033936,3.5584106-4.9040527,7.7879028-9.9532471,10.703064
					c-5.8474121,3.3760376-12.0285645,4.9905396-11.6436768,1.7659302
					C1236.3588867,614.4577026,1242.248291,609.855896,1247.8084717,606.6456909z"/>
			</g>
			<g>
				<path class="st9" d="M1209.8170166,638.5783691c3.2319336-5.2113647,7.1070557-10.8092651,7.071167-23.4471436
					c-0.0167236-5.9309082,1.4593506-13.7903442,3.4979248-21.1173706l6.0379639-3.4860229
					c-0.2602539,0.4923706-0.5142822,0.9884033-0.7629395,1.4917603c-4.864624,9.8215332-3.9606934,20.3951416-0.3081055,28.4638062
					c-0.0198975,0.2523804-0.0023193,0.4912109,0.0560303,0.7137451c0.5093994,1.9564209,1.4511719,7.256958,3.3146973,11.5480957
					C1217.1888428,637.9406128,1208.6652832,640.4457397,1209.8170166,638.5783691z"/>
			</g>
			<g>
				<path class="st16" d="M1298.5528564,548.8842163c4.1547852-2.3986816,7.5351563-0.7086792,7.5479736,3.7996216
					l0.2181396,76.9179688c0.0126953,4.4938354-3.347168,10.0753784-7.5018311,12.4741211l-110.1330566,63.5852661
					c-4.1676025,2.406189-7.5480957,0.7161255-7.560791-3.77771l-0.2180176-76.9179688
					c-0.0128174-4.5082397,3.3470459-10.0897827,7.5146484-12.4959717l31.9663086-18.4557495
					c-2.0385742,7.3270874-3.5147705,15.1865845-3.4979248,21.1174316
					c0.0358887,12.6378784-3.8393555,18.2358398-7.071167,23.4471436
					c-1.1517334,1.8673706,7.3717041-0.6376343,18.9067383-5.8330688c1.3140869,3.0267944,3.0865479,5.5512085,5.4893799,6.0442505
					l-0.105835,5.7366333l-5.9552002,3.5715332c-16.0787354,9.2830811-29.0793457,31.8009644-29.0269775,50.2766724
					l0.0036621,1.2565308l93.1922607-53.8046265l-0.00354-1.2565918
					c-0.0523682-18.475708-13.1379395-25.9327393-29.2166748-16.6496582l-4.6229248,2.6690674l-0.1807861-3.9004517
					c0.2283936-0.3206177,0.4493408-0.6473999,0.6618652-0.9812622c2.8067627-4.4067993,4.7143555-9.4816895,6.0078125-14.1899414
					c9.0361328-6.7053223,15.6591797-12.6841431,16.0349121-13.6673584c1.2918701-3.3514404-7.4558105-3.1419678-7.1784668-18.93573
					c0.1199951-6.9367065-0.6654053-11.3764038-2.2369385-14.4610596L1298.5528564,548.8842163z"/>
			</g>
			<g>
				<path class="st23" d="M1263.1009521,627.9200439c16.0787354-9.2830811,29.1643066-1.8260498,29.2166748,16.6496582
					l0.00354,1.2565918l-93.1923828,53.8046265l-0.00354-1.2565918
					c-0.0523682-18.475708,12.9482422-40.9935303,29.0269775-50.2766113l5.9855957-3.4557495
					c0.2647705,0.9298096,2.4152832,7.0375977,12.1256104,2.0891724c0.3743896-0.1913452,0.7366943-0.3883667,1.0891113-0.5918579
					c9.470459-5.4677734,11.0610352-14.6484375,11.1447754-15.1316528l-0.0194092-0.4185181L1263.1009521,627.9200439z"/>
			</g>
			<g>
				<path class="st22" d="M1225.3530273,620.4833984c-3.6525879-8.0686035-4.5565186-18.6422729,0.3081055-28.4636841
					c0.2486572-0.503479,0.5028076-0.9995117,0.7629395-1.4919434l37.9604492-21.9164429
					c5.8653564,4.3180542,6.7128906,14.0005493,3.2182617,26.8381958
					c-0.6517334-2.984375-10.8581543,1.1228027-21.0751953,7.0216064
					C1236.1077881,608.4869995,1225.6777344,616.3642578,1225.3530273,620.4833984z"/>
			</g>
			<g>
				<path class="st9" d="M1267.6027832,595.4494629c3.4945068-12.8375854,2.6469727-22.5200806-3.2183838-26.8380737
					l7.2019043-4.15802c1.5715332,3.0845947,2.3569336,7.524292,2.2369385,14.4609985
					c-0.2773438,15.7937622,8.4703369,15.5841675,7.1784668,18.9356689
					c-0.3757324,0.9832764-6.9987793,6.9620972-16.03479,13.6674194c2.3360596-8.5036621,2.6514893-15.4449463,2.6682129-15.8103027
					C1267.6317139,595.6159058,1267.6204834,595.5300903,1267.6027832,595.4494629z"/>
			</g>
			<g>
				<polygon class="st20" points="1301.2695313,660.1847534 1183.9649658,727.9107666 1183.9649658,731.3674316 
					1301.2695313,663.6412964 				"/>
				<polygon class="st20" points="1301.2695313,669.5861206 1217.7282715,717.9478149 1217.7282715,721.40448 
					1301.2695313,673.0426636 				"/>
				<polygon class="st20" points="1227.0467529,694.0477905 1183.9649658,718.897583 1183.9649658,722.354248 
					1227.0467529,697.5043335 				"/>
				<polygon class="st16" points="1265.5559082,671.7384644 1238.7416992,687.15802 1238.7416992,690.6146851 
					1265.5559082,675.1950073 				"/>
				<polygon class="st16" points="1210.7791748,721.9293213 1183.9649658,737.348938 1183.9649658,740.805542 
					1210.7791748,725.3858643 				"/>
			</g>
			<g>
				<path class="st9" d="M1267.6027832,595.4495239c0.0177002,0.0805664,0.0289307,0.1664429,0.0323486,0.2576294
					c-0.0166016,0.3653564-0.3321533,7.3065796-2.6682129,15.8103027c-1.293457,4.708252-3.2010498,9.7830811-6.0079346,14.1898804
					c-0.2124023,0.3339233-0.4333496,0.6607666-0.6617432,0.9813232c-2.3497314,3.300415-5.519165,5.9046021-8.8770752,7.8432617
					c-1.1734619,0.6775513-2.3708496,1.2731323-3.5632324,1.7897339l10.4283447-12.9645996l-12.6552734-1.0877686
					l0.0423584,14.9136353c-3.1876221,1.1343384-6.2243652,1.6900635-8.5760498,1.6943359
					c-0.3033447,0.0008545-0.5976563-0.0291748-0.8830566-0.0877075c-2.402832-0.493042-4.175293-3.0174561-5.489502-6.0442505
					c-1.8634033-4.2911987-2.8051758-9.5916138-3.3146973-11.5480957c-0.0583496-0.2225342-0.0759277-0.4613647-0.0560303-0.7138062
					c0.324707-4.1191406,10.7547607-11.9963989,21.1745605-18.0122681
					C1256.7446289,596.5723267,1266.9510498,592.4651489,1267.6027832,595.4495239z M1247.7337646,614.9378052
					c5.0491943-2.9151611,9.8498535-7.1447144,9.9532471-10.703186c0.0675049-2.3152466-4.7663574-0.5404663-9.87854,2.4110107
					c-5.5601807,3.2102051-11.449585,7.8120117-11.7183838,10.0579834
					C1235.7050781,619.9282837,1241.8863525,618.3137817,1247.7337646,614.9378052"/>
			</g>
			<g>
				<polygon class="st1" points="1243.630127,622.2692871 1256.2854004,623.3571167 1245.8569336,636.3216553 
					1243.6776123,639.0305176 1243.6723633,637.1829224 				"/>
			</g>
		</g>
	</g>
	<path class="st12" d="M1146.142334,615.4586182c-2.1898193-4.5715332-4.4333496-0.5886841-12.6394043,3.057251
		c-0.4772949,0.211731-3.1223145,1.1123657-3.4560547,1.4624023c0.1257324-1.7282715,0.1257324-4.7855835,0.1257324-4.7855835
		s-2.6616211,2.9518433-4.1210938,5.6278076c-1.4598389,2.6765747-3.649292,6.4471436-4.5119629,9.4057007
		c-0.005127,0.0164795,0.0054932,0.0250244,0.001709,0.041687c-0.28125,0.5181274-0.5606689,1.026001-0.8422852,1.6223755
		c-2.4093018,5.1092529-23.7042236,21.288269-23.7042236,21.288269s-0.0516357-15.4205322-1.1414795-23.4487305
		c-1.0898438-8.0287476-5.3223877-19.9789429-10.8131104-21.09552c0,0-4.3623047,2.8198242-7.0386963,5.9825439
		c-4.9599609,5.8621826-1.4217529,15.4489746,0.9663086,23.8426514c2.3885498,8.3931885,5.7145996,34.7612915,8.9993896,35.4912109
		c1.3666992,0.303772,4.1916504,0.7418823,6.7857666,0.0212402c3.6395264-1.0110474,8.2930908-3.2426147,13.4165039-7.2910156
		c8.7746582-6.9337158,14.8903809-21.053772,18.4329834-24.3513184c3.5429688-3.2971802,8.8156738-7.0333252,14.4575195-11.423645
		C1146.7016602,626.515564,1148.3317871,620.0302124,1146.142334,615.4586182z"/>
	<g>
		<path class="st24" d="M1444.9967041,872.5758057c1.9610596,0.7261353,2.5008545,5.0697021,0,12.0395508
			c-2.5003662,6.9699097-3.3157959,14.4574585-8.5650635,13.0239258c-5.2492676-1.43396-3.5299072-9.5549316-1.1566162-15.9450684
			C1437.6486816,875.303772,1441.572876,871.3081665,1444.9967041,872.5758057z"/>
		<path class="st24" d="M1456.708374,817.7921753c2.4416504,0.1876221,3.2145996,3.0125732,3.3060303,9.2201538
			c0.0910645,6.2076416,1.277832,15.784668-2.2473145,16.5005493c-2.604126,0.5287476-3.9602051-0.7158813-5.1470947-3.1724854
			c-2.0443115-4.2312622-1.5517578-11.8673096,0-16.3406982
			C1454.1717529,819.5269165,1454.855835,817.6501465,1456.708374,817.7921753z"/>
		<g>
			<path class="st12" d="M1443.491333,823.0869141c0.9414063-0.3134766,8.2557373,0.7146606,13.217041-0.1824951
				c2.7338867-0.4942627,5.7515869-2.1481323,8.6917725-2.8398438c8.2770996-1.947876,11.6448975,1.94104,12.3144531,9.0615234
				c0.6524658,6.9404907,4.3609619,13.4968262,6.3083496,21.7735596c1.947876,8.2766113,1.2174072,9.9653931-2.1906738,13.1455078
				c-3.4082031,3.1801758-12.6594238-5.7753296-13.9057617-9.7280273
				c-2.006958-6.3649902-4.5524902-14.1345825-6.5428467-15.7109985
				c-3.9180908-3.1027222-14.6063232-0.7304688-14.6063232-0.7304688L1443.491333,823.0869141z"/>
			<path class="st25" d="M1463.7042236,820.5597534c-1.6948242,0.6069336-2.8076172,5.5095215-1.2250977,9.4042969
				c2.6765137,6.5883179,4.098877,8.902771,5.5596924,14.5629272c1.4608154,5.659729-0.1123047,9.7901611-0.1123047,9.7901611
				s2.2366943,13.0455933,10.9846191,13.5011597c2.8181152,0.1467896,4.2440186-0.6724854,5.4350586-1.6282959
				c1.8151855-1.4569702,1.9367676-4.2823486,2.5982666-6.5938721c1.0953369-3.8280029-4.0159912-15.0699463-5.9335938-19.8555298
				c-1.9172363-4.7855225-4.5550537-6.9099731-3.925415-8.7620239c0.6291504-1.852478,1.4603271-5.3355103,0.1824951-8.8045044
				c-1.2783203-3.4689941-3.4689941-3.4689941-6.0251465-3.4689941S1463.7042236,820.5597534,1463.7042236,820.5597534z"/>
			<path class="st23" d="M1471.2427979,818.7050781c-2.651001,1.0430298-3.1040039,5.2338867-1.8258057,9.0682983
				c1.2779541,3.8339233,3.4090576,4.2601929,4.1385498,7.5462646c0.2518311,1.1357422,0.8511963,15.8233032,2.2409668,22.7749023
				c1.2216797,6.1105957,2.1477051,8.0009155,4.6966553,8.8717651c4.2886963,1.4650269,7.7900391-4.2601929,6.6031494-13.1455688
				c-0.4649658-3.4817505-7.5505371-17.3853149-8.0634766-20.3268433c-0.5130615-2.9411011,0.4168701-6.366272-0.6087646-9.8590698
				C1477.2823486,819.7468262,1474.1639404,817.5560913,1471.2427979,818.7050781z"/>
		</g>
		<g>
			<path class="st12" d="M1431.0926514,872.5758057c0.9924316-0.0199585,7.6712646,3.1342163,12.6756592,3.7510376
				c2.7572021,0.340271,6.1296387-0.3428955,9.1427002-0.130188c8.4820557,0.5980835,10.5430908,5.3117676,9.0673828,12.3101196
				c-1.4382324,6.8209229,0.1561279,14.1826172-0.4423828,22.6643066s-1.7972412,9.8773804-5.9962158,11.9017944
				c-4.1988525,2.024353-10.3729248-9.2745972-10.3890381-13.4191284c-0.0263672-6.6734619-0.149292-14.8487549-1.581543-16.9450684
				c-2.8199463-4.1265869-13.7304688-5.0352173-13.7304688-5.0352173L1431.0926514,872.5758057z"/>
			<path class="st25" d="M1451.1447754,876.1655884c-1.7984619,0.0765991-4.3171387,4.4268799-3.9632568,8.6161499
				c0.5993652,7.0859985,1.2701416,9.718689,0.9838867,15.5569458c-0.2862549,5.8384399-3.0146484,9.3150635-3.0146484,9.3150635
				s-1.7390137,13.1213379,6.4790039,16.1542969c2.647583,0.9775391,4.2525635,0.6185303,5.6737061,0.0595703
				c2.1656494-0.8520508,3.1209717-3.5140991,4.4393311-5.5244141c2.1826172-3.3303223,0.640625-15.5830078,0.230957-20.7220459
				s-2.2974854-7.9508057-1.1464844-9.5328369c1.151123-1.581543,2.9793701-4.6608887,2.7893066-8.3527832
				c-0.1901855-3.6918945-2.2822266-4.3427124-4.7230225-5.1019897
				C1456.4527588,875.8746338,1451.1447754,876.1655884,1451.1447754,876.1655884z"/>
			<path class="st23" d="M1458.8935547,876.6335449c-2.8411865,0.2088623-4.5179443,4.0759888-4.4362793,8.1166992
				s1.9898682,5.0803223,1.7104492,8.4353027c-0.0965576,1.1591797-3.8867188,15.3618164-4.6239014,22.4124756
				c-0.6483154,6.1982422-0.3254395,8.2779541,1.8499756,9.8667603c3.6599121,2.6722412,8.7037354-1.7546997,10.2095947-10.5916138
				c0.5899658-3.4625854-2.0469971-18.8435669-1.6633301-21.8046265c0.3837891-2.9606323,2.2890625-5.9549561,2.3469238-9.5949097
				C1464.3515625,879.421875,1462.024292,876.4038086,1458.8935547,876.6335449z"/>
		</g>
		<path class="st23" d="M1361.0505371,708.2467041c0,0,3.1351318-6.7572021,1.3765869-14.6246338
			c-1.7585449-7.8678589-11.6848145-27.442627-11.6848145-27.442627s-3.4174805-0.9269409-8.2817383,0
			c-4.8637695,0.9264526-8.2196045,6.9396362-8.2196045,6.9396362s3.1124268,13.6679688,5.3032227,20.5029907
			c2.19104,6.8345947,12.848999,16.2113037,16.0666504,17.3023682
			C1358.8283691,712.0151367,1361.0505371,708.2467041,1361.0505371,708.2467041z"/>
		<path class="st12" d="M1316.9084473,664.2018433c-5.2416992,3.0814819-8.4707031,6.555542-8.1265869,18.4840698
			c0.3470459,12.0344849,3.505127,13.9588623,5.9318848,14.9712524c1.3391113,0.5585938,4.6252441,1.095459,4.6252441,1.095459
			s1.4526367,11.6856079,3.3839111,14.3825684c1.1824951,1.6508789,6.5223389,1.8320923,12.196167-0.5066528
			c5.6732178-2.3395996,5.5987549-4.3818359,5.5987549-4.3818359s-3.0482178-8.6084595-2.6777344-15.223999
			c0.4593506-8.2026367,2.6777344-12.7712402,0.9736328-20.5612183
			C1336.9586182,663.9810791,1326.0893555,658.803772,1316.9084473,664.2018433z"/>
		<path class="st26" d="M1348.5511475,806.6489258c1.2595215,0.5283203,15.6569824,4.758728,25.9261475,16.9859009
			c12.3110352,14.6590576,15.7012939,19.6028442,22.274292,21.5166626
			c5.9616699,1.7359619,20.7518311,1.3650513,34.7089844,1.0072632c16.8690186-0.4321899,26.3065186-2.645874,26.3065186-2.645874
			s-3.9602051-0.7158813-4.7821045-12.5343018c-0.8520508-12.255188,3.7233887-13.1864014,3.7233887-13.1864014
			s-12.8308105-1.4675293-25.6323242-1.0953369c-13.1383057,0.3824463-24.1004639,0.3654175-24.1004639,0.3654175
			s-15.4400635-25.4735718-17.1619873-31.3383789c-1.7218018-5.864624-4.425293-10.3707886-15.1755371-20.1893921
			c-10.7501221-9.8181763-27.4375,20.1893921-27.4375,20.1893921L1348.5511475,806.6489258z"/>
		<path class="st13" d="M1327.7241211,777.461792c0,0,2.8424072,20.0592651,5.9943848,29.9574585
			c3.1520996,9.8982544,8.6405029,21.1915894,14.8143311,33.3814087
			c6.1740723,12.1897583,12.0881348,23.0679932,17.3632813,28.9480591
			c5.2755127,5.8804932,26.6888428,12.9677734,37.1846924,17.1794434
			c14.5463867,5.8366699,33.3508301,10.7111206,33.3508301,10.7111206s-3.4407959-2.2520142,0.9429932-15.2150269
			c3.5708008-10.5579834,7.6220703-9.8484497,7.6220703-9.8484497s-16.5915527-8.0175781-26.3363037-12.9124756
			c-13.527832-6.7958984-23.8560791-11.6848755-32.3764648-14.5118408
			c-3.8948975-13.7266846-11.2319336-32.5587158-13.6064453-44.9522095
			c1.53479-9.163147-0.2922363-23.6754761-11.9544678-33.2848511
			C1349.060791,757.3051147,1327.7241211,777.461792,1327.7241211,777.461792z"/>
		<path class="st25" d="M1323.9628906,702.5112915c0,0-11.1547852,5.7643433-13.3621826,9.6768799
			c-0.1147461,7.5229492,0.3442383,9.357666,0.5736084,20.8242188c0.1580811,7.9163818,6.6540527,9.4864502,10.090332,12.6972046
			c3.4362793,3.2108154,4.8885498,15.6970215,6.4594727,31.7521973c0.9801025,10.0164795,4.1087646,22.8034058,4.1087646,22.8034058
			s11.5631104-3.199707,19.6397705-7.668335c15.9569092-8.8287964,31.6837158-18.8831177,31.6837158-18.8831177
			s-10.9169922-11.5108032-13.0290527-15.734436c-4.8161621-9.631897-4.4205322-25.2630005-4.8463135-30.4709473
			c-0.8260498-10.0960083-0.7133789-30.689209-12.8269043-31.3978271
			C1340.3400879,695.4018555,1329.1682129,699.4153442,1323.9628906,702.5112915z"/>
		<path class="st12" d="M1298.6599121,720.5061646c0,0-18.3591309,11.5023193-21.6787109,13.8486328
			c-6.880127-6.1240845-8.2996826-8.897583-13.9069824-15.5212402c-6.644043-7.8482666-9.0916748-8.9921265-9.4625244-13.8733521
			c-0.2783203-3.6618042,0.4013672-7.0170898-2.019043-6.5432129c-2.5050049,0.4904175-1.2233887,5.3746948-2.9954834,8.7198486
			c-0.4956055,0.9349976-4.4797363,0.0714722-10.1219482-1.9941406c-3.7055664-1.3565674-6.5877686-3.8655396-10.05896-1.8257446
			c-3.4715576,2.0401001-1.1226807,7.8035278,2.9210205,10.3023071c1.9521484,1.2062988,7.3425293,2.6730957,11.4415283,3.3911133
			c3.3255615,0.5823975,6.9108887,0.960083,8.0333252,2.6777954c2.2978516,3.5162354,5.5487061,9.8994751,11.8063965,20.5701904
			c2.0976563,3.5770264,6.7041016,9.9466553,8.3988037,10.5894165c3.5297852,1.3386841,4.50354,2.6777954,9.6157227,1.3386841
			c6.7767334-1.7746582,14.1860352-6.7397461,25.0128174-14.1801147
			C1310.9291992,734.3757324,1298.6599121,720.5061646,1298.6599121,720.5061646z"/>
		<path class="st23" d="M1322.3442383,707.7264404c-3.4561768-1.9431152-8.770752-0.4368896-12.8643799,2.3460083
			c-4.0933838,2.7828369-24.465332,17.2550659-24.465332,17.2550659s-1.6866455,4.4104614,2.0749512,11.4700928
			c3.057251,5.7371216,8.2337646,7.789978,8.2337646,7.789978s16.7425537-5.7902832,24.6243896-12.9022217
			c2.6739502-2.4127808,6.8903809-7.2034302,7.7764893-10.8328247
			C1329.4498291,715.7848511,1326.7053223,710.1779175,1322.3442383,707.7264404z"/>
		<path class="st14" d="M1316.4178467,659.803833c-2.3081055,0.6555176-6.2076416-0.1595459-9.1286621,2.9627686
			c-2.9215088,3.1223145-1.4608154,4.947937-3.286499,6.7738037c-1.8258057,1.8256836-4.0168457,2.8104858-4.0168457,2.8104858
			s2.1464844,3.4285278,5.4775391,4.1274414c3.3308105,0.6989136,7.6679688,0,7.6679688,0s-0.9630127,6.4870605,2.7994385,10.102417
			c3.4082031,3.2745972,9.1269531,1.9337769,10.7115479,7.5466919c0.8515625,3.0180664-1.2174072,6.0859375-6.869873,7.6572876
			c-4.8979492,1.3616333-2.989624,6.7052612-3.7196045,10.4048462c-0.5802002,2.9379883-5.5992432,2.1906738-5.5992432,2.1906738
			s1.236084,2.970459,5.2340088,3.3601074c4.9904785,0.4870605,3.7445068-2.5778198,6.2073975-4.210022
			c2.4630127-1.6322021,4.5036621,0.8023071,4.381958,7.3748779c-0.09021,4.8710327,1.7145996,11.4414673,9.1286621,11.9281006
			c6.1607666,0.404541,5.1121826-4.1381226,5.1121826-4.1381226s-5.3555908,2.3123779-4.50354-3.0431519
			c0.7652588-4.80896,4.5393066-2.7415771,8.1086426-8.3366699c1.8721924-2.9351196,1.4313965-6.6372681,1.4313965-6.6372681
			s5.1879883,4.9932251,8.8394775,2.8522339c3.6842041-2.1600952,5.7081299-1.9984131,7.9116211,0.3152466
			c2.4344482,2.5560913-1.3391113,6.4508667-1.3391113,6.4508667s5.3479004-1.0064087,6.925293-4.9544067
			c1.4735107-3.6871948,0.3564453-8.1911621-4.4908447-9.4081421c-2.5041504-0.6287231-5.720459-0.9736938-6.0858154-3.8947754
			c-0.3649902-2.9215698,3.6071777-7.3170776,3.1647949-11.5631714c-0.6087646-5.8425903-5.4853516-8.2668457-8.6420898-9.2507935
			c-6.2075195-1.9346313-0.8519287-11.9293823-10.7110596-22.0310059
			C1332.875,650.7398071,1317.6348877,655.0561523,1316.4178467,659.803833z"/>
		<path class="st12" d="M1324.800415,620.6138306c0,0-2.8554688-3.4243164-4.3027344-6.4718018
			c-1.4471436-3.0473633-1.9116211-5.1368408-3.5366211-3.7437134c-1.6253662,1.3931274-0.7142334,2.670105,0.2318115,5.5457153
			c0.8099365,2.4608154,2.329834,7.0651245,3.71875,9.118042c1.3892822,2.0528564,3.2155762,8.0762939,3.2155762,8.0762939
			S1325.9102783,623.864624,1324.800415,620.6138306z"/>
	</g>
	<g>
		<path class="st28" d="M1391.6342773,488.3147888l-2.9880371-1.6764832
			c-0.2717285-0.1784973-0.553833-0.3381042-0.8482666-0.4756775l-0.0186768-0.0105591l-0.0010986,0.0005493
			c-1.8424072-0.8535156-4.074707-0.8895569-6.083252,0.27005l-86.4375,49.9238281
			c-8.6179199,4.975647-13.9265137,14.1707764-13.9265137,24.1217041v9.6355591c0,2.2363892,1.0617676,4.1043091,2.6262207,5.28302
			v0.0005493l0.0067139,0.0038452c0.4060059,0.3051758,0.8480225,0.5588379,1.3118896,0.7653809l2.8504639,1.6628418
			l3.1439209-1.9771118l4.4051514-2.543396v19.0974731l3.4482422,1.9588623l3.0385742-11.9702148l-1.4783936,0.4423828
			l9.3148193-17.7980957l67.7089844-39.1106567c8.618042-4.975647,13.9267578-14.1709595,13.9267578-24.1218872v-9.6352234
			c0-0.8743896-0.1722412-1.6871338-0.4633789-2.4298096L1391.6342773,488.3147888z"/>
		<path class="st9" d="M1385.1427002,488.3817139l-86.4370117,49.923645
			c-8.618042,4.975647-13.927124,14.1706543-13.927124,24.1220703v9.6351929c0,5.1008911,5.5219727,8.2888794,9.9398193,5.7383423
			l4.4051514-2.5432129v19.0974731l14.3232422-27.3670654l67.7086182-39.1105957
			c8.618042-4.9758301,13.9268799-14.1708374,13.9268799-24.1221008v-9.6351929
			C1395.0822754,489.0192261,1389.5605469,485.8312378,1385.1427002,488.3817139z"/>
		<g>
			<g>
				<path class="st1" d="M1303.7365723,547.0579224c1.2097168-0.6984253,2.1679688-0.9377441,2.8730469-0.7186279
					c0.725708,0.2091675,1.0908203,0.8207397,1.0936279,1.8337402c0.001709,0.5708618-0.1341553,1.1430664-0.4057617,1.7155762
					c-0.2717285,0.5743408-0.6052246,1.0717773-1.0004883,1.4943237c0.5352783-0.0803833,0.9683838,0.0307617,1.2962646,0.3388062
					c0.3294678,0.3053589,0.4952393,0.8070068,0.4971924,1.5010376c0.0029297,1.0601807-0.3919678,2.1903076-1.1831055,3.3895264
					c-0.7818604,1.1702271-1.8564453,2.1500854-3.2253418,2.9404907c-1.5078125,0.8704834-2.7626953,1.2246704-3.7662354,1.0616455
					l-0.0068359-2.394043c0.4567871,0.1029053,1.003418,0.0797119,1.6395264-0.0643921
					c0.6347656-0.1431274,1.2453613-0.3849487,1.8305664-0.7227783c0.7932129-0.4579468,1.4094238-0.9680786,1.8502197-1.5310669
					c0.4406738-0.5613403,0.6602783-1.1164551,0.6588135-1.6637573c-0.0014648-0.4784546-0.199585-0.7325439-0.5914307-0.7622681
					c-0.3918457-0.0314941-0.9364014,0.1539307-1.6303711,0.5546265l-1.30896,0.7557373l-0.0058594-2.0678101l1.5628662-0.9023438
					c1.119873-0.6465454,1.6784668-1.4082642,1.6760254-2.2854004c-0.0012207-0.3986816-0.1755371-0.6084595-0.5231934-0.6309814
					c-0.3475342-0.022583-0.8242188,0.1417847-1.4282227,0.4905396c-1.2001953,0.6929321-2.3096924,1.6311646-3.3299561,2.8120728
					l-0.0064697-2.272644C1301.2629395,548.7819214,1302.4071045,547.8255005,1303.7365723,547.0579224z"/>
			</g>
			<g>
				<path class="st1" d="M1315.2060547,540.6065674l4.4959717,9.4574585l-2.2758789,1.3139648l-1.0330811-2.1773071
					l-4.4033203,2.5422974l-1.0187988,3.3619385l-2.2459717,1.2966309l4.4276123-14.609436L1315.2060547,540.6065674z
					 M1312.65271,549.3235474l3.0501709-1.7610474l-1.5289307-3.27771L1312.65271,549.3235474"/>
			</g>
			<g>
				<polygon class="st1" points="1330.0219727,532.121582 1330.0559082,544.0861206 1327.9283447,545.3145142 
					1327.9134521,540.0662231 1323.213623,542.7796631 1323.2285156,548.0279541 1321.085083,549.2654419 1321.0511475,537.3009033 
					1323.1945801,536.0634155 1323.2072754,540.5415039 1327.9071045,537.8280029 1327.8944092,533.3499756 				"/>
			</g>
			<g>
				<path class="st1" d="M1336.1051025,528.6095581l4.8197021-2.7827148l0.0339355,11.9645386l-2.1417236,1.2365723
					l-0.0137939-4.8369141l-1.8151855,1.0480347l-3.0507813,6.6062012l-2.4682617,1.4249878l3.2424316-6.9909668
					c-0.6851807,0.1560059-1.2194824,0.0505981-1.6027832-0.3162231s-0.5761719-0.9489136-0.5783691-1.7462769
					c-0.0030518-1.0475464,0.3162842-2.0831909,0.9595947-3.1044312
					C1334.1235352,530.0839233,1334.994751,529.2505493,1336.1051025,528.6095581z M1338.7973633,532.1213379l-0.0081787-2.9049683
					l-2.5581055,1.4769287c-0.4858398,0.2804565-0.8654785,0.6286011-1.1376953,1.0415649
					c-0.2720947,0.414917-0.4067383,0.8483887-0.4053955,1.3051147c0.0013428,0.4675903,0.1379395,0.7480469,0.411499,0.8406372
					s0.6540527-0.0018921,1.1397705-0.2823486L1338.7973633,532.1213379"/>
			</g>
			<g>
				<polygon class="st1" points="1351.2630615,519.8580933 1351.2692871,522.0617676 1347.9666748,523.9685059 
					1347.9943848,533.7293701 1345.8526611,534.9658813 1345.8249512,525.2050171 1342.538208,527.1026611 
					1342.5319824,524.8989868 				"/>
			</g>
			<g>
				<polygon class="st1" points="1361.8835449,513.7263184 1361.9174805,525.690918 1359.789917,526.9192505 
					1359.7677002,519.0739746 1354.6878662,529.8649292 1352.8883057,530.9038696 1352.8543701,518.9393311 
					1354.9960938,517.7027588 1355.0181885,525.4954834 1360.0397949,514.7907715 				"/>
			</g>
			<g>
				<polygon class="st1" points="1371.8353271,507.9806519 1371.8415527,510.1843567 1366.3374023,513.3622437 
					1366.3438721,515.6710205 1370.7772217,513.1113892 1370.7833252,515.2807007 1366.3500977,517.840271 
					1366.3587646,520.9175415 1372.0269775,517.6449585 1372.0333252,519.8505249 1364.2232666,524.3596802 
					1364.1893311,512.3950806 				"/>
			</g>
			<g>
				<polygon class="st1" points="1380.9686279,502.70755 1381.0025635,514.6721191 1378.9049072,515.8831787 
					1378.878418,506.5500183 1376.6804199,509.1023865 1376.673584,506.6939087 1379.1091309,503.7811279 				"/>
			</g>
		</g>
	</g>
	<g>
		<path class="st23" d="M1353.3243408,627.9108887c1.3999023,1.8335571,3.3186035,7.086853,6.411377,11.211731
			c1.8093262,2.4127197,3.6756592,2.3811035,6.4866943,3.4569092c13.3372803,5.1035767,8.9069824,6.9822998,10.4871826,7.6710815
			c-0.7380371,0.9607544-7.3018799,8.9967041-8.5629883,10.637207c-1.1635742,1.5134277-2.630249,1.9538574-4.4162598,1.2350464
			c-2.7457275-1.1047974-5.5424805-2.1153564-8.1904297-3.4230347c-6.7880859-3.3525391-9.8839111-7.9418335-13.9371338-13.5888672
			c-1.0753174-1.49823-1.0505371-3.0250854,0.0661621-4.4828491
			C1346.8657227,633.8435669,1352.791748,628.5217285,1353.3243408,627.9108887z"/>
		<path class="st25" d="M1375.458374,661.5799561c-0.8118896,2.9817505-0.7327881,3.6405029-1.9061279,2.8639526
			c-0.7064209-0.4675293-1.3679199-1.0119019-2.0048828-1.5726929c-0.449707-0.395752-0.3817139-0.7520752,0.1431885-1.0684814
			c0.7640381-0.4602661,1.5401611-0.9005737,2.2999268-1.3428955c-0.1529541-1.2871094,0.7012939-2.5271606,1.961792-2.8954468
			c0.2573242-0.0752563,0.0235596,0.1624146,3.0418701-3.7662964c-6.1379395-2.3662109-10.4758301-4.008728-17.9650879-6.8922119
			c-2.0023193-0.770874-3.6387939-2.0338135-4.9023438-3.7704468c-4.3637695-5.9987793-8.7270508-11.9978638-13.0854492-18.0005493
			c-0.5911865-0.814209-0.4560547-1.7567749,0.3146973-2.3153076c0.5895996-0.4274292,1.1984863-0.3024902,1.8251953-0.0595093
			c1.7086182,0.6625366,18.4616699,7.1369019,20.1655273,7.78125c2.2393799,0.8468018,4.0528564,2.2237549,5.4628906,4.1635742
			c4.2860107,5.8970947,8.5900879,11.781311,12.8850098,17.671936c0.5893555,0.8082275,0.6481934,1.4295044,0.2137451,2.0557251
			c-0.4776611,0.6879883-1.196167,0.8931885-2.09375,0.4511108c-0.6483154-0.3193359-1.0028076-0.1883545-1.3972168,0.3867798
			c-1.7823486,2.6003418-2.6838379,3.0490112-2.689209,4.1599121
			C1377.7243652,660.2877808,1376.4140625,661.446167,1375.458374,661.5799561z"/>
	</g>
	<path class="st5" d="M1538.9782715,672.3004761c2.8494873,1.4516602,5.4289551,3.5050049,7.2236328,5.6448975
		c3.2279053,3.8486938,4.9238281,8.3242798,5.3862305,12.9512939"/>
	<polygon class="st9" points="1019.3134766,584.8582153 1012.1356201,590.4119873 1001.9237061,579.8498535 
		990.4268799,586.6756592 981.4925537,580.020813 978.1234131,584.543396 990.072998,593.4447632 1000.9678955,586.9755859 
		1011.5917358,597.9634399 1022.3928833,589.6062622 	"/>
	<polygon class="st27" points="1230.524292,793.8040161 1223.8984375,800.2871704 1227.0404053,809.2034912 
		1219.0986328,815.9451294 1225.3737793,824.4100342 1216.7288818,832.4303589 1221.5458984,840.9373779 1214.4898682,850.013855 
		1211.0545654,847.3433838 1216.3300781,840.5568848 1211.2471924,831.5800171 1219.5571289,823.8704834 1213.1768799,815.2637329 
		1221.940918,807.8244629 1218.8726807,799.1174316 1225.0140381,793.1079712 1221.8031006,787.8117676 1225.524292,785.555603 	"/>
	<polygon class="st16" points="1517.1784668,768.5258179 1518.2492676,777.7337036 1527.2232666,780.7070313 
		1527.6928711,791.1138306 1538.2277832,791.333252 1539.2783203,803.0786743 1548.9539795,804.4768677 1551.8121338,815.6124878 
		1547.5976563,816.6942749 1545.4603271,808.3684692 1535.2503662,806.8929443 1534.2406006,795.6025391 1523.5292969,795.3793945 
		1523.0112305,783.8953857 1514.2479248,780.9919434 1513.255127,772.4570313 1507.1015625,771.7542114 1507.5953369,767.430542 	
		"/>
	<polygon class="st13" points="961.1161499,505.3612061 968.2642212,504.4961548 970.9268188,515.843811 981.5341797,515.867981 
		984.9152222,524.0340576 989.0489502,522.3225708 984.5274048,511.4006042 974.4749756,511.3777466 971.704895,499.5727844 
		960.9486694,500.8747864 	"/>
	<polygon class="st9" points="1272.8748779,842.0999146 1278.064209,844.2095947 1275.5922852,852.9345093 1282.7993164,856.954895 
		1282.0170898,863.7865601 1285.4753418,864.1825562 1286.5219727,855.0455322 1279.6918945,851.2355347 1282.2633057,842.1589355 
		1274.4543457,838.9845581 	"/>
	<polygon class="st13" points="1529.208374,567.8670044 1530.1193848,560.7246704 1541.7735596,560.9208984 
		1544.3936768,550.6422119 1553.1390381,549.3630981 1552.4914551,544.9361572 1540.7949219,546.6464844 1538.3120117,556.3874512 
		1526.1881104,556.1834106 1524.8173828,566.9311523 	"/>
	<polygon class="st16" points="1617.0313721,552.1206665 1621.2133789,560.6824341 1605.3510742,559.1901855 	"/>
	<polygon class="st27" points="1167.927002,503.8108521 1180.8041992,499.9606628 1175.807373,520.3890991 	"/>
	<polygon class="st9" points="1599.6425781,751.0263672 1601.3831787,764.3536377 1582.0172119,756.1531982 	"/>
	<polygon class="st16" points="1016.1609497,707.3081055 1012.1478271,694.4807739 1032.6379395,699.2182007 	"/>
	<g>
		<path class="st11" d="M1602.5732422,644.857605c0,0,2.901123-15.6502686,12.1850586-18.4091797
			c9.5437012-2.8361206,28.6044922-11.006958,34.7675781-10.2752686c3.0935059,0.3668213,3.9312744-1.5084229,8.1635742,0.5691528
			c2.7625732,1.355835,2.0657959,5.3222656,5.0402832,10.4456177c3.5714111,6.1512451,3.8972168,24.5793457,3.8972168,24.5793457
			l-15.333252,4.3582764L1602.5732422,644.857605z"/>
		<path class="st12" d="M1755.8807373,577.6049194c0,0-2.3118896-3.4454346-4.0780029-6.2150269
			c-1.4541016-2.2797241-6.9185791-9.984375-10.1689453-14.8907471c0.4898682,0.078186,1.0018311,0.0819092,1.5537109-0.0887451
			c6.2734375-1.9397583,13.7304688-9.0565796,17.3182373-10.4207153c3.5871582-1.3642578,10.1192627-5.2112427,14.3166504-1.2584839
			c-2.2219238,0.8346558-4.5183105,1.5661011-6.4818115,2.3851318c-5.5899658,2.3322754-10.1992188,5.4014893-9.2243652,7.9486084
			c0.9755859,2.5471191,10.8009033,13.9046021,10.8009033,13.9046021L1755.8807373,577.6049194z"/>
		<path class="st10" d="M1673.9385986,657.0261841l8.7237549-15.0314331c0,0,3.8293457-5.2650757,16.3172607-9.3477783
			c9.411499-3.0770874,15.3406982-0.8551025,23.1542969-0.0498657c3.9686279,0.4089966,13.6234131-5.7321777,27.6342773-11.0695801
			c14.0112305-5.3378296,31.2695313-7.5626831,31.2695313-7.5626831s-4.772583-7.6588745-19.6162109-28.4927979
			c-5.2513428-7.3701172-8.6474609-12.3601074-11.1931152-16.430603c7.2097168-0.6240845,11.2661133-2.1223145,13.2954102-7.751709
			c4.9005127,5.1654053,16.0512695,16.3231812,20.1888428,21.0078735
			c9.0808105,10.2816772,17.3093262,19.1853027,23.835083,27.9563599c4.1239014,5.5431519,5.5197754,9.8612671,5.1994629,16.4567261
			c-0.1728516,3.559021-4.6202393,9.0259399-12.4069824,14.0195923c-3.7574463,2.4102173-17.661499,9.7349854-35.7073975,16.7325439
			c-20.3419189,7.8880615-42.0509033,14.0219727-54.2587891,16.69104
			c-12.208374,2.6694946-48.3934326,3.4776001-48.3934326,3.4776001L1673.9385986,657.0261841z"/>
		<path class="st12" d="M1758.3216553,623.0056763c0,0-2.3121338-3.4456787-4.0780029-6.2149658
			c-1.4539795-2.2803345-6.9185791-9.9849243-10.1688232-14.8907471c0.4901123,0.0778809,1.0020752,0.081665,1.5537109-0.0892944
			c6.2738037-1.9395142,13.7304688-9.0560913,17.3182373-10.4207764c3.5871582-1.3642578,10.1192627-5.2112427,14.3168945-1.2581787
			c-2.22229,0.8343506-4.5189209,1.56604-6.4821777,2.385376c-5.5899658,2.3317871-10.1992188,5.4009399-9.223999,7.9483643
			c0.9749756,2.5471191,10.800415,13.904541,10.800415,13.904541L1758.3216553,623.0056763z"/>
		<g>
			<path class="st13" d="M1742.3450928,599.2030029c-1.4046631-2.3217163-2.8310547-3.6477051-3.3051758-5.057251
				c0.6580811,1.0053711,4.7398682,0.9061279,9.3577881-2.0496826c4.675293-2.9924316,11.125-6.9956055,14.0749512-8.50177
				c2.9499512-1.5056152,11.3773193-2.5493774,19.2468262-1.5343628c3.7507324,0.4836426,6.2716064,0.2061768,8.088501-0.5737915
				c-0.3005371,0.6624146-0.6590576,1.2892456-1.0343018,1.8447876c-2.0600586,3.0499268-7.4058838,5.2591553-11.5100098,6.8007813
				c-4.1976318-3.953064-10.7297363-0.1060791-14.3168945,1.2581787
				c-3.5877686,1.3646851-11.0444336,8.4812622-17.3182373,10.4207764
				c-0.5516357,0.1709595-1.0635986,0.1671753-1.5537109,0.0892944
				C1743.3771973,600.8469238,1742.7766113,599.9161987,1742.3450928,599.2030029z"/>
			
				<linearGradient id="SVGID_1_" gradientUnits="userSpaceOnUse" x1="4654.8183594" y1="-257.7918091" x2="4706.5913086" y2="-257.7918091" gradientTransform="matrix(-0.7575459 0.6527818 0.6527818 0.7575459 5478.7412109 -2274.1142578)">
				<stop  offset="0" style="stop-color:#EA3AFE"/>
				<stop  offset="0.994819" style="stop-color:#FB67FD"/>
			</linearGradient>
			<path class="st29" d="M1781.7194824,582.0599365c-7.8695068-1.0150146-16.296875,0.0287476-19.2468262,1.5343628
				c-2.9499512,1.5061646-9.3996582,5.5093384-14.0749512,8.50177c-4.6179199,2.9558105-8.699707,3.0550537-9.3577881,2.0496826
				c-0.3498535-1.0404053-0.1962891-2.1251831,0.9447021-3.6948242c2.6867676-3.6974487,7.7102051-3.8806152,10.9705811-5.3084717
				c3.2600098-1.4275513,5.4771729-4.3380737,12.8458252-8.6150513c7.3684082-4.2766113,13.8518066-5.4091187,21.3215332-3.5554199
				c6.1500244,1.5263062,6.0848389,5.4268799,4.6854248,8.5141602
				C1787.9910889,582.2661133,1785.4702148,582.5435791,1781.7194824,582.0599365z"/>
			<path class="st26" d="M1781.7194824,582.0599365c-7.8695068-1.0150146-14.3503418,1.7357788-17.5640869,2.536438
				c-4.0029297,0.9972534-11.0823975,4.5072632-15.7576904,7.4996948c-4.6179199,2.9558105-8.699707,3.0550537-9.3577881,2.0496826
				c-0.3498535-1.0404053-0.1962891-2.1251831,0.9447021-3.6948242c2.6867676-3.6974487,7.7102051-3.8806152,10.9705811-5.3084717
				c3.2600098-1.4275513,5.4771729-4.3380737,12.8458252-8.6150513c7.3684082-4.2766113,13.8518066-5.4091187,21.3215332-3.5554199
				c6.1500244,1.5263062,6.0848389,5.4268799,4.6854248,8.5141602
				C1787.9910889,582.2661133,1785.4702148,582.5435791,1781.7194824,582.0599365z"/>
		</g>
		<path class="st15" d="M1662.5,669.130249c5.1035156-15.7972412,6.5130615-20.8114014,6.5130615-20.8114014
			s10.2045898-4.9937744,28.965332-5.2698975c7.6657715-0.1132202,19.7808838,6.4368286,23.0991211,8.7666016
			c7.6676025,5.383606,17.7547607,2.5314331,35.1270752,2.6811523c17.3719482,0.1500854,29.9820557,4.4279785,29.9820557,4.4279785
			s-7.4743652-6.6334839-18.5356445-22.1116943c-6.1872559-8.6582031-12.2681885-17.2177734-15.3924561-22.9702759
			c8.4106445-1.0662842,13.4344482-7.3930054,13.4553223-7.4681396
			c5.3065186,4.7657471,16.3745117,15.9249268,25.4868164,24.3949585
			c12.4147949,11.5401611,17.993042,18.1747437,23.2965088,27.3359985c1.956665,3.3798828,1.8905029,8.0143433,0.161377,12.8148804
			c-1.1219482,3.114502-3.6651611,5.6383667-7.6113281,8.6307983c-10.02771,7.6046143-44.6787109,14.40625-68.1341553,14.9282227
			c-23.4558105,0.5222168-56.1707764-1.8580933-56.1707764-1.8580933S1657.3963623,684.9274292,1662.5,669.130249z"/>
		<g>
			<polygon class="st30" points="1627.034668,635.2848511 1632.0317383,613.4311523 1658.4016113,616.5784912 
				1654.5623779,635.5111084 			"/>
			<polygon class="st25" points="1628.0148926,638.6107788 1633.0113525,616.7570801 1659.3818359,619.90448 
				1655.5426025,638.8371582 			"/>
			<polygon class="st31" points="1633.0113525,616.7570801 1632.0317383,613.4311523 1658.4016113,616.5784912 
				1659.3818359,619.90448 			"/>
			<polygon class="st1" points="1633.2097168,614.3013916 1633.9150391,616.0432739 1659.1154785,619.0003662 
				1658.618042,617.3126221 			"/>
		</g>
		<g>
			<polygon class="st30" points="1630.9630127,638.5023804 1640.3314209,618.1358643 1665.4973145,626.6195679 
				1657.8601074,644.3637695 			"/>
			<polygon class="st25" points="1631.2409668,641.9584351 1640.6091309,621.5921021 1665.7750244,630.0758057 
				1658.1378174,647.8200684 			"/>
			<polygon class="st31" points="1640.6091309,621.5921021 1640.3314209,618.1358643 1665.4973145,626.6195679 
				1665.7750244,630.0758057 			"/>
			<polygon class="st1" points="1641.3061523,619.2293701 1641.6395264,621.0785522 1665.699585,629.1362915 
				1665.5587158,627.3824463 			"/>
		</g>
		<path class="st13" d="M1597.9855957,663.062561l-8.1854248,10.7310181c0,0,6.2050781,6.8879395,14.8079834,8.802063
			c8.6025391,1.9137573,9.0236816,9.4035645,9.0236816,9.4035645s11.4626465,5.5393677,17.390625,3.7590332
			c3.619751-1.0872803,9.567749-5.1102905,14.1190186-6.3108521c8.6047363-2.2698975,11.0413818-0.6538696,19.324585,0.0964355
			c6.5518799,0.5930786,18.2762451,3.0775146,18.2762451,3.0775146s-6.5404053-16.6447144-2.65979-33.4603271
			c2.9946289-12.9759521,14.6383057-24.623291,14.6383057-24.623291s-12.1832275,3.6893921-22.7225342,5.6201172
			c-8.0548096,1.4759521-20.2108154-0.2650757-24.55896-1.2406006c-19.4907227-4.3740845-21.2182617-5.9832764-32.69104-3.0618286
			C1603.2755127,638.7763672,1597.9855957,663.062561,1597.9855957,663.062561z"/>
		<path class="st12" d="M1567.0117188,639.4076538c-2.032959,5.9744873-2.2180176,10.8938599,6.1343994,20.039917
			c8.4268799,9.227356,12.2138672,8.6009521,14.8079834,7.7526855c1.4313965-0.4683838,4.3790283-2.272583,4.3790283-2.272583
			s9.0595703,8.2042847,12.4055176,9.0161133c2.0482178,0.4969482,6.369873-2.9786377,9.2463379-8.6620483
			c2.8760986-5.6831055,1.4337158-7.2387695,1.4337158-7.2387695s-8.2301025-4.703186-12.4208984-10.1561279
			c-5.1964111-6.7611084-6.5471191-11.8560791-13.1655273-16.8266602
			C1582.6278076,625.6489868,1570.5733643,628.9424438,1567.0117188,639.4076538z"/>
		<path class="st12" d="M1594.3795166,675.2626953c-9.3884277,1.1953125-24.0048828,11.5280151-32.9320068,14.0113525
			c-11.1429443,0.4190674-37.9005127-2.1435547-49.9676514-4.5900879
			c-5.4326172-1.1015015-7.4367676-2.7538452-10.3815918-7.4752808c-0.7711182-1.2365112-0.2489014-7.3181152-3.3444824-3.4851074
			c-2.175415,2.6933594,0.5622559,9.4555664,0.5622559,9.4555664s-4.637207,0.2919312-8.1237793-0.2084351
			c-3.5396729-0.5081787-9.0344238-0.7531738-10.4523926,1.3573608c-0.9857178,1.4666748-0.0010986,3.7776489,2.2398682,6.013855
			c2.588501,2.5825195,7.1600342,5.0465698,17.2767334,5.708252c4.2670898,0.2793579,9.0297852-0.7811279,14.2498779,0.5791016
			c16.3504639,4.2585449,29.7561035,9.9310303,46.8428955,9.7559814c0.0070801,0.0128784,0.012085,0.02771,0.019165,0.0405884
			c0.3833008,0.0004883,0.7825928-0.0426025,1.1674805-0.0479736c0.6287842-0.0164185,1.2235107,0.0211792,1.862915-0.0115967
			c-0.0101318-0.0214844-0.017334-0.0421753-0.0274658-0.0636597c2.9190674-0.117981,5.8878174-0.3678589,9.0283203-0.9846191
			c19.2414551-3.7770386,43.0622559-10.5079346,43.0622559-10.5079346c5.2473145-2.4494629,7.993042-5.7478638,5.8249512-8.4738159
			C1614.7808838,678.1575928,1602.1490479,674.2732544,1594.3795166,675.2626953z"/>
		<path class="st9" d="M1563.9450684,648.8095093c3.0722656,3.2490234,9.3880615,2.0292358,11.385498,4.7478638
			s4.0325928,4.8876343,7.8044434,5.5366211c8.8074951,1.5150757,9.8339844,8.9002075,9.0174561,11.1790161
			c-1.5217285,4.2474365-5.8037109,5.6916504-5.8037109,5.6916504s4.8157959,2.0683594,8.0307617-0.7019653
			c3.2148438-2.7702637,4.1595459-4.7936401,4.1595459-4.7936401s0.4908447,7.5629883,4.6082764,9.1559448
			c4.1171875,1.5925903,10.1390381-2.9082031,12.9073486-2.659668c5.9904785,0.5379639,7.1240234,5.2606201,7.1240234,5.2606201
			s1.2504883-5.3634644,0.104248-8.8983154c-1.0943604-3.3748169-5.2784424-5.1235352-5.2784424-5.1235352
			s5.817749,0.2379761,7.9556885-2.1923828c3.1412354-3.5703125,2.7109375-5.2722168,2.7109375-5.2722168
			s-5.2580566,4.0059814-9.4570313,1.3937378c-1.1689453-0.727356-0.7976074-3.5700073,1.9675293-4.5302124
			c7.5391846-2.6185913,5.6358643-4.9656372,8.1201172-5.3519897c2.0047607-0.3112183,4.9306641,2.3146973,4.9306641,2.3146973
			s-0.2805176-3.4516602-2.9102783-5.7826538c-3.6560059-3.2401123-11.7519531-0.4092407-11.7519531-0.4092407
			s5.0805664-2.0857544,4.6109619-5.8730469c-0.4057617-3.2770386-2.7905273-3.8247681-3.3569336-6.1004639
			c-1.4729004-5.9199219,9.0980225-5.0760498,9.0980225-5.0760498s-4.3500977-5.0482788-12.2939453-1.7602539
			c-2.4716797,1.0228882-4.0419922,4.4494019-6.8527832,4.9963379
			c-9.2929688,1.8068848-12.5059814-10.9614258-21.0664063-13.8243408
			c-9.5301514-3.1870728-15.5560303,4.5963135-15.5560303,4.5963135s-5.2294922,0.4246216-8.7498779,3.9125366
			C1558.7115479,635.8745117,1559.175415,643.7651978,1563.9450684,648.8095093z"/>
		<g>
			<path class="st13" d="M1739.9040527,553.8027954c-1.4046631-2.3223267-2.8306885-3.6480103-3.3048096-5.0575562
				c0.6577148,1.0056763,4.7391357,0.9061279,9.3571777-2.0496826c4.675293-2.9924927,11.1252441-6.9959106,14.0751953-8.5014648
				c2.9499512-1.5056152,11.3769531-2.5496216,19.2471924-1.534668c3.7503662,0.4839478,6.270874,0.2062378,8.0881348-0.5740356
				c-0.3001709,0.6626587-0.6590576,1.2891846-1.0343018,1.8453369c-2.0600586,3.0493164-7.4061279,5.2588501-11.5102539,6.8004761
				c-4.1973877-3.9527588-10.7294922-0.1057739-14.3166504,1.2584839
				c-3.5877686,1.3641357-11.0447998,8.480957-17.3182373,10.4207153c-0.5518799,0.1706543-1.0638428,0.1669312-1.5537109,0.0887451
				C1740.9365234,555.4464111,1740.3353271,554.515625,1739.9040527,553.8027954z"/>
			
				<linearGradient id="SVGID_2_" gradientUnits="userSpaceOnUse" x1="4627.03125" y1="-293.7783508" x2="4678.8037109" y2="-293.7783508" gradientTransform="matrix(-0.7575459 0.6527818 0.6527818 0.7575459 5478.7412109 -2274.1142578)">
				<stop  offset="0" style="stop-color:#EA3AFE"/>
				<stop  offset="0.994819" style="stop-color:#FB67FD"/>
			</linearGradient>
			<path class="st32" d="M1779.2788086,536.6594238c-7.8702393-1.0149536-16.2972412,0.0290527-19.2471924,1.534668
				c-2.9499512,1.5055542-9.3999023,5.5089722-14.0751953,8.5014648c-4.618042,2.9558105-8.6994629,3.0553589-9.3571777,2.0496826
				c-0.3504639-1.0404053-0.1966553-2.1248779,0.944458-3.6951294c2.6867676-3.6967773,7.7098389-3.8803711,10.970459-5.3078613
				c3.260376-1.4277954,5.4771729-4.3386841,12.8455811-8.6152954c7.3686523-4.2769775,13.8518066-5.4091797,21.3215332-3.555481
				c6.1503906,1.5266113,6.0854492,5.4269409,4.6856689,8.513916
				C1785.5496826,536.8656616,1783.0291748,537.1433716,1779.2788086,536.6594238z"/>
			<path class="st26" d="M1779.2788086,536.6594238c-7.8702393-1.0149536-14.3505859,1.7354736-17.5646973,2.536438
				c-4.0026855,0.9975586-11.0823975,4.5072021-15.7576904,7.4996948c-4.618042,2.9558105-8.6994629,3.0553589-9.3571777,2.0496826
				c-0.3504639-1.0404053-0.1966553-2.1248779,0.944458-3.6951294c2.6867676-3.6967773,7.7098389-3.8803711,10.970459-5.3078613
				c3.260376-1.4277954,5.4771729-4.3386841,12.8455811-8.6152954c7.3686523-4.2769775,13.8518066-5.4091797,21.3215332-3.555481
				c6.1503906,1.5266113,6.0854492,5.4269409,4.6856689,8.513916
				C1785.5496826,536.8656616,1783.0291748,537.1433716,1779.2788086,536.6594238z"/>
		</g>
		<path class="st26" d="M1666.7205811,658.4732666c0,0-1.0042725,9.053894-1.4744873,15.5115967
			c-0.4700928,6.4581909-2.3791504,9.7249146-2.3791504,9.7249146s-1.4263916-4.5632324-0.8040771-10.5129395
			C1663.1456299,662.842041,1666.7205811,658.4732666,1666.7205811,658.4732666z"/>
		<path class="st26" d="M1659.375,664.8030396c0,0-2.0281982,5.8657227-4.3312988,9.8279419
			c-2.3037109,3.9620972-5.114502,6.0545654-5.114502,6.0545654s1.583374-4.1657104,3.647583-7.756897
			C1655.6407471,669.3370361,1659.375,664.8030396,1659.375,664.8030396z"/>
		<path class="st31" d="M1570.9980469,658.8341675c3.7474365,2.8837891,9.5335693,5.6989746,14.0119629,5.5539551
			c5.0064697-0.9683228,7.637085-6.7733765,3.793335-11.2339478s-11.0206299-7.3051147-16.0303955-6.354126
			C1567.7631836,647.7516479,1567.1317139,654.3934937,1570.9980469,658.8341675z"/>
		<path class="st25" d="M1570.9980469,658.8341675c3.4106445,3.9171143,9.6607666,6.3952637,14.0119629,5.5539551
			c4.3758545-0.8462524,5.2050781-4.6660156,1.8453369-8.5648804c-3.3596191-3.8989258-9.6328125-6.3857422-14.0118408-5.5541382
			C1568.4648438,651.1005249,1567.6184082,654.9523926,1570.9980469,658.8341675z"/>
		<path class="st30" d="M1572.4599609,659.8468628c2.4884033,2.8579102,7.0482178,4.6661987,10.2229004,4.0519409
			c3.192627-0.6173706,3.7972412-3.4042358,1.3463135-6.2485352c-2.4511719-2.8446045-7.0279541-4.6589355-10.2225342-4.0521851
			C1570.6114502,654.2047729,1569.9942627,657.0152588,1572.4599609,659.8468628z"/>
		<g>
			<path class="st25" d="M1570.5831299,629.1785278c-1.1230469,5.0958252-1.5244141,7.5547485-3.9892578,8.2382813
				c-0.9204102,0.2553711-1.6015625-0.0059814-2.0551758-0.3140259c0.3775635,7.2542725,7.489624,15.194458,7.489624,15.194458
				l6.6730957-0.8297729c0,0-6.1037598-7.7021484-7.3946533-11.1504517
				c-1.2912598-3.447937-0.3475342-8.1934204,2.4822998-13.1360474c3.3057861-5.7741699,7.7772217-6.7017212,7.7772217-6.7017212
				s-0.9058838-0.4779053-2.3636475-0.7058105C1574.0150146,622.1245728,1571.3126221,625.8701172,1570.5831299,629.1785278z"/>
			<path class="st30" d="M1576.3846436,619.7468872c-4.2954102,0.6370239-10.6939697,7.6464844-11.786499,15.3539429
				c-0.0926514,0.656189-0.0948486,1.3268433-0.0594482,2.0019531c0.4536133,0.3080444,1.1347656,0.569397,2.0551758,0.3140259
				c2.4648438-0.6835327,2.8662109-3.1424561,3.9892578-8.2382813c0.7294922-3.3084106,3.4318848-7.0539551,8.6195068-9.4050903
				C1578.411499,619.6499634,1577.5048828,619.5805664,1576.3846436,619.7468872z"/>
		</g>
	</g>
	<path class="st5" d="M1590.0554199,658.8730469c8.4248047,2.6828003,19.9744873,7.9006348,22.387207,17.3297729
		c3.2659912,12.7635498-3.3150635,25.5247192-14.2138672,32.2821045
		c-12.7719727,7.9188843-29.6849365,6.0646973-43.711792,3.2484131
		c-15.3778076-3.0875854-28.6561279-10.4824219-31.4486084-27.151001
		c-0.9832764-5.8688965-0.3221436-13.6315918,7.065918-14.3168945c2.8748779-0.2666626,5.9943848,0.583374,8.8439941,2.0350342"/>
</g>
</svg>
