<svg xmlns="http://www.w3.org/2000/svg" viewBox="0 0 40 40"><defs><style>.cls-1{fill:#eee;}.cls-2{fill:#999;}</style></defs><title>Ресурс 1</title><g id="Слой_2" data-name="Слой 2"><g id="Слой_1-2" data-name="Слой 1"><path class="cls-1" d="M40,20a20,20,0,0,1-5.65,13.93l-.1.11a20,20,0,0,1-28.49,0l-.11-.12A20,20,0,1,1,40,20Z"/><circle class="cls-2" cx="20" cy="13.27" r="7.5"/><path class="cls-2" d="M33.31,31.36c-.24.28-.49.56-.75.83l-.09.09a17.5,17.5,0,0,1-24.93,0l-.09-.1a8.36,8.36,0,0,1-.75-.84,15,15,0,0,1,26.61,0Z"/></g></g></svg>