<?xml version="1.0" encoding="UTF-8" standalone="no"?>
<svg
   xmlns:dc="http://purl.org/dc/elements/1.1/"
   xmlns:cc="http://creativecommons.org/ns#"
   xmlns:rdf="http://www.w3.org/1999/02/22-rdf-syntax-ns#"
   xmlns:svg="http://www.w3.org/2000/svg"
   xmlns="http://www.w3.org/2000/svg"
   id="svg6"
   version="1.1"
   viewBox="0 0 73 73"
   height="73"
   width="73">
  <metadata
     id="metadata12">
    <rdf:RDF>
      <cc:Work
         rdf:about="">
        <dc:format>image/svg+xml</dc:format>
        <dc:type
           rdf:resource="http://purl.org/dc/dcmitype/StillImage" />
        <dc:title>Group</dc:title>
      </cc:Work>
    </rdf:RDF>
  </metadata>
  <defs
     id="defs10" />
  <title
     id="title2">Group</title>
  <path
     style="fill:#f05159;stroke-width:1"
     id="path4"
     d="M 1.4698585,0.04297115 C 0.67293521,0.04297115 0,0.71352106 0,1.5119851 c 0,0.7964654 0.67293521,1.4670153 1.4698585,1.4670153 0.7979232,0 1.4698585,-0.6705499 1.4698585,-1.4680146 0,-0.79746474 -0.6719353,-1.46901397 -1.4698585,-1.46901397 M 10.243014,2.9380279 c 0.797923,0 1.469858,-0.6715492 1.469858,-1.4690139 C 11.712872,0.67154923 11.040937,0 10.243014,0 9.4460905,0 8.7741552,0.67154923 8.7741552,1.469014 c 0,0.7974647 0.6299394,1.4690139 1.4698588,1.4690139 m 8.731159,0 c 0.796923,0 1.468859,-0.6715492 1.468859,-1.4690139 C 20.444032,0.67154923 19.772096,0 18.974173,0 18.17725,0 17.505315,0.67154923 17.505315,1.469014 c 0,0.7974647 0.671935,1.4690139 1.469858,1.4690139 M 1.4698585,61.294857 C 0.67293521,61.294857 0,61.966406 0,62.763871 c 0,0.796465 0.67293521,1.468015 1.4698585,1.468015 0.7979232,0 1.4698585,-0.67155 1.4698585,-1.469014 0,-0.796466 -0.6719353,-1.469014 -1.4698585,-1.469014 m 8.7731555,9.99e-4 c -0.7969235,0 -1.4688588,0.671549 -1.4688588,1.469014 0,0.796465 0.6719353,1.468015 1.4698588,1.468015 0.796923,0 1.468858,-0.67155 1.468858,-1.469014 -0.042,-0.796466 -0.671935,-1.469014 -1.469858,-1.469014 m 8.732159,9.99e-4 c -0.797923,0 -1.469858,0.671549 -1.469858,1.469014 0,0.796465 0.671935,1.468015 1.469858,1.468015 0.796923,0 1.468859,-0.67155 1.468859,-1.469014 0,-0.796466 -0.62994,-1.469014 -1.469859,-1.469014 M 27.748328,2.9380279 c 0.796924,0 1.469859,-0.6715492 1.469859,-1.4690139 C 29.218187,0.67154923 28.545252,0 27.748328,0 26.950405,0 26.27847,0.67154923 26.27847,1.469014 c 0,0.7974647 0.671935,1.4690139 1.469858,1.4690139 m 8.773156,0 c 0.796923,0 1.469858,-0.6715492 1.469858,-1.4690139 C 37.991342,0.67154923 37.319407,0 36.521484,0 c -0.797923,0 -1.469859,0.67154923 -1.469859,1.469014 0,0.7974647 0.62994,1.4690139 1.469859,1.4690139 m 8.731159,0 c 0.797923,0 1.469859,-0.6715492 1.469859,-1.4690139 C 46.722502,0.67154923 46.050566,0 45.252643,0 44.45472,0 43.782785,0.67154923 43.782785,1.469014 c 0,0.7974647 0.671935,1.4690139 1.469858,1.4690139 m 8.773155,0 c 0.797924,0 1.469859,-0.6715492 1.469859,-1.4690139 C 55.495657,0.67154923 54.823722,0 54.025798,0 53.227875,0 52.55594,0.67154923 52.55594,1.469014 c 0,0.7974647 0.671935,1.4690139 1.469858,1.4690139 m 8.773156,0 c 0.797923,0 1.469858,-0.6715492 1.469858,-1.4690139 C 64.268812,0.67154923 63.596877,0 62.798954,0 62.00203,0 61.329095,0.67154923 61.329095,1.469014 c 0,0.7974647 0.672935,1.4690139 1.469859,1.4690139 M 1.4698585,70.062972 C 0.67293521,70.062972 0,70.734521 0,71.531986 0,72.328451 0.67293521,73 1.4698585,73 2.2677817,73 2.939717,72.328451 2.939717,71.530986 c 0,-0.796465 -0.6719353,-1.469014 -1.4698585,-1.469014 m 8.7731555,0.001 c -0.7969235,0 -1.4688588,0.671549 -1.4688588,1.469014 0,0.796465 0.6719353,1.468014 1.4698588,1.468014 0.796923,0 1.468858,-0.671549 1.468858,-1.469014 -0.042,-0.796465 -0.671935,-1.469014 -1.469858,-1.469014 m 8.732159,0.001 c -0.797923,0 -1.469858,0.671549 -1.469858,1.469014 0,0.796465 0.671935,1.468014 1.469858,1.468014 0.796923,0 1.468859,-0.671549 1.468859,-1.469014 0,-0.796465 -0.62994,-1.469014 -1.469859,-1.469014 m 8.774155,0.001 c -0.797923,0 -1.469858,0.671549 -1.469858,1.469014 0,0.796465 0.671935,1.468014 1.469858,1.468014 0.796924,0 1.469859,-0.671549 1.469859,-1.469014 -0.01077,-0.806815 -0.662579,-1.458255 -1.469859,-1.469014 m 8.773156,0.001 c -0.797923,0 -1.469859,0.671549 -1.469859,1.469014 0,0.796465 0.671936,1.468014 1.469859,1.468014 0.796923,0 1.469858,-0.671549 1.469858,-1.469014 -0.043,-0.796465 -0.671935,-1.469014 -1.469858,-1.469014 m 8.731159,0.001 c -0.797923,0 -1.469858,0.671549 -1.469858,1.469014 0,0.796465 0.671935,1.468014 1.469858,1.468014 0.797923,0 1.469859,-0.671549 1.469859,-1.469014 0,-0.796465 -0.62994,-1.469014 -1.469859,-1.469014 m 8.773155,0.001 c -0.797923,0 -1.469858,0.671549 -1.469858,1.469014 0,0.796465 0.671935,1.468014 1.469858,1.468014 0.797924,0 1.469859,-0.671549 1.469859,-1.469014 0,-0.796465 -0.671935,-1.469014 -1.469859,-1.469014 m 8.773156,0.001 c -0.796924,0 -1.469859,0.671549 -1.469859,1.469014 0,0.796465 0.672935,1.468014 1.469859,1.468014 0.797923,0 1.469858,-0.671549 1.469858,-1.469014 0,-0.796465 -0.671935,-1.469014 -1.469858,-1.469014 m -8.773156,-8.767115 c -0.797923,0 -1.469858,0.671549 -1.469858,1.469014 0,0.796465 0.671935,1.468015 1.469858,1.468015 0.797924,0 1.469859,-0.67155 1.469859,-1.469014 0,-0.796466 -0.671935,-1.469014 -1.469859,-1.469014 m 8.773156,9.99e-4 c -0.796924,0 -1.469859,0.671549 -1.469859,1.469014 0,0.796465 0.672935,1.468015 1.469859,1.468015 0.797923,0 1.469858,-0.67155 1.469858,-1.469014 0,-0.796466 -0.671935,-1.469014 -1.469858,-1.469014 m 0,-8.725144 c -0.796924,0 -1.469859,0.67055 -1.469859,1.468015 0,0.797465 0.672935,1.469014 1.469859,1.469014 0.797923,0 1.469858,-0.671549 1.469858,-1.469014 0,-0.839437 -0.671935,-1.469014 -1.469858,-1.469014 M 71.530113,2.9380279 c 0.797923,0 1.469859,-0.6715492 1.469859,-1.4690139 C 72.999972,0.67154923 72.328036,0 71.530113,0 70.73319,0 70.061255,0.67154923 70.061255,1.469014 c 0,0.7974647 0.671935,1.4690139 1.469858,1.4690139 M 1.4698585,26.305343 C 0.67293521,26.305343 0,26.976892 0,27.774357 c 0,0.796465 0.67293521,1.468015 1.4698585,1.468015 0.7979232,0 1.4698585,-0.67155 1.4698585,-1.469014 0,-0.796466 -0.6719353,-1.468015 -1.4698585,-1.468015 m 35.0516255,7.635875 c -1.417792,-0.0095 -2.569703,1.141303 -2.560754,2.558282 -0.01006,1.417367 1.141565,2.569232 2.559754,2.560282 1.418575,0.01006 2.571268,-1.141518 2.561753,-2.559282 -0.0055,-1.411177 -1.148765,-2.553804 -2.560753,-2.559282 m 35.008629,-7.635875 c -0.796923,0 -1.468858,0.671549 -1.468858,1.469014 0,0.796465 0.671935,1.468015 1.469858,1.468015 0.796923,0 1.468859,-0.67155 1.468859,-1.469014 0.005,-0.813229 -0.656166,-1.4736 -1.469859,-1.468015 M 1.4698585,8.7691139 C 0.67293521,8.7691139 0,9.4406631 0,10.238128 c 0,0.796465 0.67293521,1.468014 1.4698585,1.468014 0.7979232,0 1.4698585,-0.671549 1.4698585,-1.469013 0,-0.7964659 -0.6719353,-1.4690144 -1.4698585,-1.4690144 m 8.7731555,2.9380274 c 0.797923,0 1.469858,-0.671549 1.469858,-1.469013 0,-0.7964659 -0.671935,-1.4690144 -1.469858,-1.4690144 -0.7969235,0 -1.4688588,0.6725485 -1.4688588,1.4690144 0,0.797464 0.6299394,1.469013 1.4698588,1.469013 m 8.731159,0 c 0.796923,0 1.468859,-0.671549 1.468859,-1.469013 0,-0.7964659 -0.671936,-1.4690144 -1.469859,-1.4690144 -0.796923,0 -1.468858,0.6725485 -1.468858,1.4690144 0,0.797464 0.671935,1.469013 1.469858,1.469013 m 35.050625,0 c 0.797924,0 1.469859,-0.671549 1.469859,-1.469013 0,-0.7964659 -0.671935,-1.4690144 -1.469859,-1.4690144 -0.797923,0 -1.469858,0.6725485 -1.469858,1.4690144 0,0.797464 0.671935,1.469013 1.469858,1.469013 m 8.773156,0 c 0.797923,0 1.469858,-0.671549 1.469858,-1.469013 0,-0.7964659 -0.671935,-1.4690144 -1.469858,-1.4690144 -0.80728,0.010763 -1.459094,0.6621985 -1.469859,1.4690144 0,0.797464 0.672935,1.469013 1.469859,1.469013 m 8.731159,-2.9370281 c -0.796923,0 -1.468858,0.6715492 -1.468858,1.4690141 0,0.796465 0.671935,1.468014 1.469858,1.468014 0.796923,0 1.468859,-0.671549 1.468859,-1.469013 0,-0.7964659 -0.62994,-1.4690144 -1.469859,-1.4690144 M 1.4698585,17.537228 C 0.67293521,17.537228 0,18.208778 0,19.006242 c 0,0.796466 0.67293521,1.468015 1.4698585,1.468015 0.7979232,0 1.4698585,-0.671549 1.4698585,-1.469014 0,-0.796465 -0.6719353,-1.468015 -1.4698585,-1.468015 m 8.7731555,2.937029 c 0.797923,0 1.469858,-0.671549 1.469858,-1.469014 0,-0.796465 -0.671935,-1.468015 -1.469858,-1.468015 -0.7969235,0 -1.4688588,0.67155 -1.4688588,1.469014 0,0.796466 0.6299394,1.468015 1.4698588,1.468015 m 52.55494,0 c 0.797923,0 1.469858,-0.671549 1.469858,-1.469014 0,-0.796465 -0.671935,-1.468015 -1.469858,-1.468015 -0.796924,0 -1.469859,0.67155 -1.469859,1.469014 0,0.796466 0.672935,1.468015 1.469859,1.468015 m 8.731159,-2.937029 c -0.796923,0 -1.468858,0.67155 -1.468858,1.469014 0,0.796466 0.671935,1.468015 1.469858,1.468015 0.796923,0 1.468859,-0.671549 1.468859,-1.469014 0.005,-0.813229 -0.656166,-1.4736 -1.469859,-1.468015 m 0,17.494258 c -0.796923,0 -1.468858,0.671549 -1.468858,1.469014 0,0.796465 0.671935,1.469014 1.469858,1.469014 0.796923,0 1.468859,-0.672549 1.468859,-1.469014 0,-0.797465 -0.62994,-1.469014 -1.469859,-1.469014 m 0,26.263371 c -0.796923,0 -1.468858,0.671549 -1.468858,1.469014 0,0.796465 0.671935,1.468015 1.469858,1.468015 0.796923,0 1.468859,-0.67155 1.468859,-1.469014 0,-0.796466 -0.62994,-1.469014 -1.469859,-1.469014 m 0,8.769114 c -0.796923,0 -1.468858,0.671549 -1.468858,1.469014 0,0.796465 0.671935,1.468014 1.469858,1.468014 0.796923,0 1.468859,-0.671549 1.468859,-1.469014 0,-0.796465 -0.62994,-1.469014 -1.469859,-1.469014 m 0,-26.261372 c -0.796923,0 -1.468858,0.67055 -1.468858,1.468014 0,0.797465 0.671935,1.469014 1.469858,1.469014 0.796923,0 1.468859,-0.671549 1.468859,-1.469014 0,-0.797464 -0.62994,-1.469014 -1.469859,-1.469014 m 0,8.769114 c -0.796923,0 -1.468858,0.67055 -1.468858,1.468015 0,0.797465 0.671935,1.469014 1.469858,1.469014 0.796923,0 1.468859,-0.671549 1.468859,-1.469014 0,-0.839437 -0.62994,-1.469014 -1.469859,-1.469014 M 1.4698585,52.568714 C 0.67293521,52.568714 0,53.239264 0,54.036729 c 0,0.797465 0.67293521,1.469014 1.4698585,1.469014 0.7979232,0 1.4698585,-0.671549 1.4698585,-1.469014 0,-0.839437 -0.6719353,-1.469014 -1.4698585,-1.469014 m 0,-8.767115 C 0.67293521,43.8006 0,44.47115 0,45.268614 c 0,0.797465 0.67293521,1.469014 1.4698585,1.469014 0.7979232,0 1.4698585,-0.671549 1.4698585,-1.469014 0,-0.797464 -0.6719353,-1.469014 -1.4698585,-1.469014 m 0,-8.768114 C 0.67293521,35.031486 0,35.703035 0,36.5005 c 0,0.796465 0.67293521,1.469014 1.4698585,1.469014 0.7979232,0 1.4698585,-0.672549 1.4698585,-1.469014 0,-0.797465 -0.6719353,-1.469014 -1.4698585,-1.469014 m 8.7731555,17.537228 c -0.7969235,0 -1.4688588,0.67055 -1.4688588,1.468015 0,0.797465 0.6719353,1.469014 1.4698588,1.469014 0.796923,0 1.468858,-0.671549 1.468858,-1.469014 -0.042,-0.839437 -0.671935,-1.469014 -1.469858,-1.469014 m 26.27847,8.307424 c -1.049899,0 -1.889818,0.839436 -1.889818,1.888732 0,1.048296 0.839919,1.886734 1.889818,1.886734 1.049899,0 1.888818,-0.839437 1.888818,-1.887733 0,-1.049296 -0.839919,-1.887733 -1.889818,-1.887733 m 8.732159,0 c -1.049899,0 -1.889818,0.839436 -1.889818,1.888732 0,1.048296 0.839919,1.886734 1.889818,1.886734 1.049899,0 1.889818,-0.839437 1.889818,-1.887733 0.041,-1.049296 -0.839919,-1.887733 -1.889818,-1.887733 m -17.504315,0 c -1.049899,0 -1.889818,0.839436 -1.889818,1.888732 0,1.048296 0.839919,1.886734 1.889818,1.886734 1.049899,0 1.888819,-0.839437 1.888819,-1.887733 0,-1.049296 -0.83992,-1.887733 -1.889818,-1.887733 m 8.774155,-48.750278 c 1.049899,0 1.888818,-0.839436 1.888818,-1.887732 0,-1.0492962 -0.839919,-1.8877334 -1.889818,-1.8877334 -1.048899,0 -1.887818,0.8394366 -1.887818,1.8887324 -0.042,1.048296 0.839919,1.886733 1.888818,1.886733 m 8.731159,0 c 1.049899,0 1.889818,-0.839436 1.889818,-1.887732 0,-1.0492962 -0.839919,-1.8877334 -1.889818,-1.8877334 -1.049899,0 -1.889818,0.8394366 -1.889818,1.8887324 0,1.048296 0.839919,1.886733 1.889818,1.886733 m 8.773155,8.769114 c 1.049899,0 1.889818,-0.839436 1.889818,-1.888732 0,-1.049296 -0.839919,-1.887733 -1.889818,-1.887733 -1.049898,0 -1.888818,0.839437 -1.888818,1.888732 0,1.048297 0.839919,1.887733 1.889818,1.887733 m 8.772156,4.949678 c -1.049899,0 -1.888818,0.839437 -1.888818,1.888732 0,1.049296 0.839919,1.887733 1.889818,1.887733 1.048899,0 1.887818,-0.839436 1.887818,-1.888732 0,-1.048296 -0.839919,-1.887733 -1.888818,-1.887733 m 0,8.769114 c -1.049899,0 -1.888818,0.839436 -1.888818,1.887733 0,1.049295 0.839919,1.887733 1.889818,1.887733 1.048899,0 1.887818,-0.839437 1.887818,-1.888733 0.0045,-1.044245 -0.843975,-1.891742 -1.888818,-1.886733 m 0,8.768114 c -1.049899,0 -1.888818,0.839437 -1.888818,1.887733 0,1.049296 0.839919,1.887733 1.889818,1.887733 1.048899,0 1.887818,-0.839436 1.887818,-1.888732 0.0045,-1.044245 -0.843975,-1.891742 -1.888818,-1.886734 M 10.243014,25.843653 c -1.0498991,0 -1.8888183,0.839437 -1.8888183,1.888732 0,1.049296 0.8399191,1.887733 1.8898183,1.887733 1.048899,0 1.888818,-0.839436 1.888818,-1.888732 0,-1.048296 -0.839919,-1.887733 -1.889818,-1.887733 m 0,8.769114 c -1.0498991,0 -1.8888183,0.839436 -1.8888183,1.887733 0,1.049295 0.8399191,1.887733 1.8898183,1.887733 1.048899,0 1.888818,-0.839437 1.888818,-1.888733 0,-1.048296 -0.839919,-1.886733 -1.889818,-1.886733 m 0,8.768114 c -1.0498991,0 -1.8888183,0.839437 -1.8888183,1.887733 0,1.049296 0.8399191,1.887733 1.8898183,1.887733 1.048899,0 1.888818,-0.839436 1.888818,-1.888732 0,-1.048296 -0.839919,-1.886734 -1.889818,-1.886734 m 43.782784,8.725144 c -1.049898,0 -1.888818,0.839436 -1.888818,1.888732 0,1.049296 0.839919,1.888732 1.889818,1.888732 1.048899,0 1.887819,-0.839436 1.887819,-1.888732 0,-1.049296 -0.83992,-1.888732 -1.888819,-1.888732 M 18.975173,20.893975 c 1.049899,0 1.888818,-0.839436 1.888818,-1.888732 0,-1.049296 -0.839919,-1.887733 -1.889818,-1.887733 -1.048899,0 -1.888818,0.839437 -1.888818,1.888732 0,1.048297 0.839919,1.887733 1.889818,1.887733 m 0,31.21205 c -1.049899,0 -1.889818,0.839436 -1.889818,1.888732 0,1.049296 0.839919,1.888732 1.889818,1.888732 1.049899,0 1.888818,-0.839436 1.888818,-1.888732 0.042,-1.049296 -0.839919,-1.888732 -1.889818,-1.888732 m 8.774155,-39.981164 c 1.049899,0 1.888819,-0.839436 1.888819,-1.887732 0,-1.0492962 -0.83992,-1.8877334 -1.889818,-1.8877334 -1.0489,0 -1.887819,0.8394366 -1.887819,1.8887324 -0.0045,1.044245 0.843975,1.891742 1.888818,1.886733 m 8.773156,30.79433 c -1.298822,-0.0022 -2.352436,1.050347 -2.350774,2.348424 -0.0028,1.298465 1.05056,2.352085 2.349774,2.350422 1.299604,0.0028 2.353991,-1.050564 2.351773,-2.349423 0,-1.301126 -1.091894,-2.349423 -2.350773,-2.349423 m 8.731159,0 c -1.298822,-0.0022 -2.352435,1.050347 -2.350774,2.348424 -0.0028,1.298857 1.051169,2.352639 2.350774,2.350422 1.299213,0.0022 2.35299,-1.050956 2.350774,-2.349423 0.0022,-1.298466 -1.051561,-2.351637 -2.350774,-2.349423 m -17.504315,0 c -1.298822,-0.0022 -2.352435,1.050347 -2.350773,2.348424 -0.0028,1.298465 1.05056,2.352085 2.349774,2.350422 1.299603,0.0028 2.353991,-1.050564 2.351773,-2.349423 0.0022,-1.298466 -1.051561,-2.351637 -2.350774,-2.349423 m 8.773156,-12.838382 c 1.298432,0.0017 2.351434,-1.050738 2.349774,-2.348424 0.0022,-1.298076 -1.050951,-2.351084 -2.349774,-2.349423 -1.298822,-0.0022 -2.352436,1.050347 -2.350774,2.348424 -0.0028,1.298465 1.05056,2.352085 2.349774,2.350422 m 8.732159,-4.657873 c -1.299605,-0.0022 -2.353544,1.051565 -2.350774,2.350422 -0.0017,1.298077 1.051952,2.350637 2.350774,2.348424 1.298822,0.0022 2.352436,-1.050347 2.350774,-2.348424 0.0022,-1.298466 -1.051561,-2.351638 -2.350774,-2.349423 m -17.504315,-9.99e-4 c -1.299604,-0.0022 -2.353544,1.051565 -2.350773,2.350422 -0.0017,1.297686 1.051342,2.350084 2.349774,2.348424 1.299211,0.0028 2.353437,-1.049957 2.351773,-2.348424 0.0022,-1.298466 -1.051561,-2.351638 -2.350774,-2.349423 m 17.504315,8.726143 c -1.298822,-0.0022 -2.352435,1.050347 -2.350774,2.348423 -0.0028,1.298858 1.051169,2.352639 2.350774,2.350423 1.299213,0.0022 2.35299,-1.050957 2.350774,-2.349423 0.0022,-1.298467 -1.051561,-2.351638 -2.350774,-2.349423 m -17.504315,0 c -1.298822,-0.0022 -2.352435,1.050347 -2.350773,2.348423 -0.0028,1.298466 1.05056,2.352086 2.349774,2.350423 1.299603,0.0028 2.353991,-1.050565 2.351773,-2.349423 0.0022,-1.298467 -1.051561,-2.351638 -2.350774,-2.349423 m 17.504315,17.745089 c -1.174887,0 -2.099798,0.966351 -2.099798,2.098591 0,1.174212 0.966907,2.098591 2.099798,2.098591 1.174887,0 2.099798,-0.965352 2.099798,-2.098591 0.041,-1.13224 -0.924911,-2.098591 -2.099798,-2.098591 m -8.731159,0 c -1.175887,0 -2.099798,0.966351 -2.099798,2.098591 0,1.174212 0.965907,2.098591 2.099798,2.098591 1.157928,-0.0038 2.095505,-0.941327 2.098798,-2.098591 0,-1.13224 -0.923911,-2.098591 -2.099798,-2.098591 m -8.772156,0 c -1.175886,0 -2.099797,0.966351 -2.099797,2.098591 0,1.174212 0.965907,2.098591 2.099797,2.098591 1.157929,-0.0038 2.095506,-0.941327 2.098798,-2.098591 0,-1.13224 -0.923911,-2.098591 -2.099797,-2.098591 M 45.252643,21.103834 c 1.174887,0 2.099798,-0.965352 2.099798,-2.098591 0,-1.13224 -0.965907,-2.097592 -2.099798,-2.097592 -1.174887,0 -2.099798,0.965352 -2.099798,2.098591 0,1.13224 0.966907,2.097592 2.099798,2.097592 m 8.773155,4.52996 c -1.157928,0.0038 -2.095505,0.941327 -2.098797,2.098591 0,1.13224 0.965907,2.097592 2.099797,2.097592 1.157765,-0.0038 2.095055,-0.941489 2.097798,-2.098591 -0.0033,-1.156939 -0.941193,-2.093848 -2.098798,-2.096593 m 0,8.768115 c -1.157766,0.0033 -2.095502,0.94049 -2.098797,2.097592 0,1.13224 0.965907,2.097592 2.099797,2.097592 1.157765,-0.0038 2.095055,-0.941489 2.097798,-2.098592 -0.0033,-1.156938 -0.941193,-2.093847 -2.098798,-2.096592 m 0,8.726142 c -1.157766,0.0033 -2.095502,0.940491 -2.098797,2.097593 0,1.174211 0.965907,2.097592 2.099797,2.097592 1.157765,-0.0038 2.095055,-0.94149 2.097798,-2.098592 -0.0033,-1.156938 -0.941193,-2.093847 -2.098798,-2.096593 M 18.975173,25.633794 c -1.175887,0 -2.099798,0.965352 -2.099798,2.098591 0,1.13224 0.965907,2.097592 2.099798,2.097592 1.157929,-0.0038 2.095505,-0.941327 2.098798,-2.098591 -0.0038,-1.157099 -0.94203,-2.093851 -2.099798,-2.096593 m 0.001,8.768115 c -1.175887,0 -2.099798,0.964352 -2.099798,2.097592 0,1.13224 0.965907,2.097592 2.099798,2.097592 1.157929,-0.0038 2.095505,-0.941327 2.098798,-2.098592 -0.0038,-1.157099 -0.94203,-2.09385 -2.099798,-2.096592 m 0.001,8.726142 c -1.175887,0 -2.099798,0.964353 -2.099798,2.097593 0,1.174211 0.965907,2.097592 2.099798,2.097592 1.157929,-0.0038 2.095505,-0.941328 2.098798,-2.098592 0.042,-1.13224 -0.923911,-2.096593 -2.099798,-2.096593 M 36.521484,21.103834 c 1.157928,-0.0038 2.095505,-0.941327 2.098798,-2.098591 0,-1.13224 -0.965907,-2.097592 -2.099798,-2.097592 -1.157765,0.0038 -2.095054,0.941489 -2.097798,2.098591 0,1.13224 0.922911,2.097592 2.098798,2.097592 m -8.773156,0 c 1.157929,-0.0038 2.095506,-0.941327 2.098798,-2.098591 0,-1.13224 -0.965907,-2.097592 -2.099797,-2.097592 -1.157765,0.0038 -2.095055,0.941489 -2.097799,2.098591 0,1.13224 0.922912,2.097592 2.098798,2.097592" />
</svg>
