<svg width="172" height="40" viewBox="0 0 172 40" fill="none" xmlns="http://www.w3.org/2000/svg">
<g clip-path="url(#clip0_271_2199)">
<path d="M63.2938 30.4401H62.6245V29.8126C61.5933 29.7952 60.8094 29.5367 60.2727 29.037C59.742 28.5432 59.4767 27.9303 59.4767 27.1983C59.4767 26.4779 59.742 25.862 60.2727 25.3508C60.8033 24.8395 61.5873 24.5752 62.6245 24.5577V24H63.2938V24.5577C64.331 24.5752 65.115 24.8366 65.6456 25.342C66.1823 25.8475 66.4507 26.4633 66.4507 27.1895C66.4507 27.91 66.1823 28.5229 65.6456 29.0283C65.115 29.5338 64.331 29.7952 63.2938 29.8126V30.4401ZM62.6245 29.2288V25.1416C61.7983 25.1474 61.1802 25.3479 60.7702 25.7429C60.3661 26.1322 60.1641 26.6144 60.1641 27.1895C60.1641 27.7589 60.3661 28.2382 60.7702 28.6275C61.1802 29.0225 61.7983 29.2229 62.6245 29.2288ZM63.2938 25.1416V29.2288C63.728 29.2229 64.1079 29.1619 64.4335 29.0458C64.7652 28.9296 65.0245 28.7756 65.2114 28.5839C65.3984 28.3863 65.5371 28.1714 65.6275 27.939C65.718 27.7066 65.7632 27.4568 65.7632 27.1895C65.7632 26.6144 65.5612 26.1322 65.1572 25.7429C64.7471 25.3479 64.126 25.1474 63.2938 25.1416Z" fill="#0072EF"/>
<path d="M69.9522 30.3617C69.2708 30.3617 68.6979 30.1554 68.2336 29.7429C67.7753 29.3362 67.5461 28.8076 67.5461 28.1569C67.5461 27.5294 67.7512 27.0036 68.1612 26.5795C68.5773 26.1554 69.111 25.9434 69.7622 25.9434C70.112 25.9434 70.4226 26.0131 70.6939 26.1525C70.9653 26.2861 71.1794 26.4633 71.3361 26.6841C71.4929 26.9049 71.6105 27.1402 71.6889 27.39C71.7673 27.634 71.8065 27.8809 71.8065 28.1307V28.305H68.2155C68.2517 28.7582 68.4386 29.1213 68.7763 29.3943C69.12 29.6616 69.5542 29.7952 70.0788 29.7952C70.5854 29.7952 71.0527 29.6645 71.4809 29.4031V29.9608C71.1251 30.228 70.6155 30.3617 69.9522 30.3617ZM68.2245 27.7909H71.1462C71.1281 27.4655 71.0015 27.1721 70.7663 26.9107C70.5432 26.6434 70.1994 26.5098 69.7351 26.5098C69.3009 26.5098 68.9451 26.6376 68.6678 26.8932C68.3964 27.1547 68.2487 27.4539 68.2245 27.7909Z" fill="#0072EF"/>
<path d="M73.0845 31.5033H72.4604V29.7081H73.0121C73.4946 29.0922 73.7418 28.0697 73.7539 26.6405L73.7629 26.0479H77.0102V29.7081H77.8243V31.5033H77.1911V30.2571H73.0845V31.5033ZM73.7358 29.7081H76.3589V26.597H74.3689V26.8497C74.3689 28.1046 74.1579 29.0574 73.7358 29.7081Z" fill="#0072EF"/>
<path d="M80.9851 30.3617C80.3036 30.3617 79.7308 30.1554 79.2664 29.7429C78.8081 29.3362 78.579 28.8076 78.579 28.1569C78.579 27.5294 78.784 27.0036 79.1941 26.5795C79.6102 26.1554 80.1438 25.9434 80.7951 25.9434C81.1449 25.9434 81.4554 26.0131 81.7268 26.1525C81.9981 26.2861 82.2122 26.4633 82.369 26.6841C82.5258 26.9049 82.6434 27.1402 82.7218 27.39C82.8002 27.634 82.8394 27.8809 82.8394 28.1307V28.305H79.2484C79.2845 28.7582 79.4715 29.1213 79.8092 29.3943C80.1529 29.6616 80.5871 29.7952 81.1117 29.7952C81.6182 29.7952 82.0856 29.6645 82.5137 29.4031V29.9608C82.1579 30.228 81.6484 30.3617 80.9851 30.3617ZM79.2574 27.7909H82.179C82.161 27.4655 82.0343 27.1721 81.7991 26.9107C81.576 26.6434 81.2323 26.5098 80.768 26.5098C80.3338 26.5098 79.978 26.6376 79.7006 26.8932C79.4293 27.1547 79.2815 27.4539 79.2574 27.7909Z" fill="#0072EF"/>
<path d="M84.7144 29.5861V32H84.0631V26.0479H84.7144V26.719C85.1244 26.2019 85.6882 25.9434 86.4058 25.9434C87.0511 25.9434 87.5787 26.1583 87.9888 26.5882C88.3988 27.0182 88.6039 27.5381 88.6039 28.1481C88.6039 28.764 88.3988 29.2869 87.9888 29.7168C87.5787 30.1467 87.0511 30.3617 86.4058 30.3617C85.6882 30.3617 85.1244 30.1031 84.7144 29.5861ZM84.7144 27.4597V28.8453C84.841 29.1242 85.046 29.3537 85.3294 29.5338C85.6129 29.7081 85.9204 29.7952 86.2521 29.7952C86.7405 29.7952 87.1415 29.6383 87.4551 29.3246C87.7747 28.9993 87.9345 28.6071 87.9345 28.1481C87.9345 27.6892 87.7747 27.2999 87.4551 26.9804C87.1415 26.6667 86.7405 26.5098 86.2521 26.5098C85.9264 26.5098 85.6219 26.5999 85.3385 26.78C85.0551 26.9542 84.847 27.1808 84.7144 27.4597Z" fill="#0072EF"/>
<path d="M91.288 29.7952C91.5895 29.7952 91.876 29.7284 92.1473 29.5948C92.4187 29.4611 92.6388 29.2927 92.8076 29.0893V28.5054C92.3614 28.2266 91.888 28.0871 91.3875 28.0871C90.9895 28.0871 90.6729 28.1627 90.4377 28.3137C90.2086 28.4648 90.094 28.671 90.094 28.9325C90.094 29.2055 90.2056 29.4176 90.4287 29.5686C90.6518 29.7197 90.9382 29.7952 91.288 29.7952ZM91.1071 30.3617C90.6428 30.3617 90.2478 30.2397 89.9222 29.9956C89.6026 29.74 89.4428 29.3972 89.4428 28.9673C89.4428 28.5432 89.6116 28.2033 89.9493 27.9477C90.287 27.6979 90.7151 27.573 91.2337 27.573C91.8006 27.573 92.3252 27.7095 92.8076 27.9826V27.5643C92.8076 26.8613 92.3282 26.5098 91.3694 26.5098C90.8568 26.5098 90.3805 26.6521 89.9402 26.9368V26.3268C90.3684 26.0712 90.89 25.9434 91.5051 25.9434C92.1021 25.9434 92.5755 26.0799 92.9252 26.3529C93.281 26.6202 93.4589 27.0036 93.4589 27.5033V29.2375C93.4589 29.4001 93.4951 29.528 93.5674 29.6209C93.6458 29.7139 93.7483 29.7604 93.875 29.7604C93.9715 29.7604 94.0559 29.7429 94.1282 29.7081V30.1961C94.0318 30.26 93.887 30.2919 93.6941 30.2919C93.477 30.2919 93.2931 30.2367 93.1423 30.1264C92.9976 30.0102 92.9071 29.8417 92.8709 29.6209C92.4307 30.1147 91.8428 30.3617 91.1071 30.3617Z" fill="#0072EF"/>
<path d="M94.6054 30.2571V29.6819C94.6355 29.6877 94.6928 29.6906 94.7773 29.6906C95.1572 29.6906 95.4165 29.4582 95.5552 28.9935C95.6697 28.6216 95.7421 28.0871 95.7722 27.39L95.8084 26.0479H99.0738V30.2571H98.4225V26.597H96.4325L96.4054 27.4074C96.3934 27.7211 96.3813 27.9477 96.3692 28.0871C96.315 28.6565 96.2275 29.0748 96.1069 29.342C95.9984 29.6209 95.8325 29.8504 95.6094 30.0305C95.3863 30.2048 95.1149 30.2832 94.7953 30.2658C94.6989 30.2658 94.6355 30.2629 94.6054 30.2571Z" fill="#0072EF"/>
<path d="M102.815 30.2571H100.608V26.0479H101.259V27.4597H102.788C103.294 27.4597 103.698 27.5875 104 27.8431C104.301 28.093 104.452 28.4299 104.452 28.854C104.452 29.2781 104.308 29.618 104.018 29.8736C103.729 30.1293 103.328 30.2571 102.815 30.2571ZM101.259 28.0087V29.7081H102.697C103.041 29.7081 103.31 29.6354 103.502 29.4902C103.695 29.3391 103.792 29.13 103.792 28.8627C103.792 28.5897 103.695 28.3805 103.502 28.2353C103.31 28.0842 103.041 28.0087 102.697 28.0087H101.259Z" fill="#0072EF"/>
<path d="M106.321 30.2571H105.669V26.0479H106.321V27.817H109.007V26.0479H109.658V30.2571H109.007V28.3834H106.321V30.2571Z" fill="#0072EF"/>
<path d="M116.192 30.2571H115.541V26.0479H116.192V30.2571ZM113.18 30.2571H111.199V26.0479H111.85V27.4597H113.153C113.66 27.4597 114.064 27.5875 114.365 27.8431C114.667 28.093 114.817 28.4299 114.817 28.854C114.817 29.2781 114.673 29.618 114.383 29.8736C114.094 30.1293 113.693 30.2571 113.18 30.2571ZM111.85 28.0087V29.7081H113.063C113.406 29.7081 113.675 29.6354 113.868 29.4902C114.061 29.3391 114.157 29.13 114.157 28.8627C114.157 28.5897 114.061 28.3805 113.868 28.2353C113.675 28.0842 113.406 28.0087 113.063 28.0087H111.85Z" fill="#0072EF"/>
<path d="M118.333 30.2571H117.727V26.0479H118.378V29.3333L121.173 26.0479H121.779V30.2571H121.128V26.9804L118.333 30.2571ZM119.762 25.3333C119.322 25.3333 118.966 25.2142 118.695 24.976C118.424 24.732 118.285 24.4096 118.279 24.0087H118.858C118.858 24.2527 118.939 24.4503 119.102 24.6013C119.265 24.7524 119.482 24.8279 119.753 24.8279C120.019 24.8279 120.233 24.7524 120.395 24.6013C120.558 24.4503 120.643 24.2527 120.649 24.0087H121.219C121.212 24.4038 121.074 24.7233 120.802 24.9673C120.531 25.2113 120.184 25.3333 119.762 25.3333Z" fill="#0072EF"/>
<path d="M126.355 30.2571H125.704V26.0479H129.629V30.2571H128.978V26.597H126.355V30.2571Z" fill="#0072EF"/>
<path d="M131.506 26.597C131.946 26.1612 132.513 25.9434 133.207 25.9434C133.9 25.9434 134.467 26.1612 134.907 26.597C135.348 27.0211 135.568 27.541 135.568 28.1569C135.568 28.7727 135.348 29.2927 134.907 29.7168C134.461 30.1467 133.894 30.3617 133.207 30.3617C132.519 30.3617 131.953 30.1467 131.506 29.7168C131.066 29.2927 130.846 28.7727 130.846 28.1569C130.846 27.541 131.066 27.0211 131.506 26.597ZM134.898 28.1569C134.898 27.6921 134.738 27.2999 134.419 26.9804C134.099 26.6667 133.695 26.5098 133.207 26.5098C132.718 26.5098 132.314 26.6667 131.995 26.9804C131.675 27.2999 131.515 27.6921 131.515 28.1569C131.515 28.6158 131.675 29.0051 131.995 29.3246C132.314 29.6383 132.718 29.7952 133.207 29.7952C133.695 29.7952 134.099 29.6383 134.419 29.3246C134.738 29.0051 134.898 28.6158 134.898 28.1569Z" fill="#0072EF"/>
<path d="M137.432 29.5861V32H136.781V26.0479H137.432V26.719C137.842 26.2019 138.406 25.9434 139.123 25.9434C139.769 25.9434 140.296 26.1583 140.706 26.5882C141.116 27.0182 141.321 27.5381 141.321 28.1481C141.321 28.764 141.116 29.2869 140.706 29.7168C140.296 30.1467 139.769 30.3617 139.123 30.3617C138.406 30.3617 137.842 30.1031 137.432 29.5861ZM137.432 27.4597V28.8453C137.558 29.1242 137.763 29.3537 138.047 29.5338C138.33 29.7081 138.638 29.7952 138.97 29.7952C139.458 29.7952 139.859 29.6383 140.173 29.3246C140.492 28.9993 140.652 28.6071 140.652 28.1481C140.652 27.6892 140.492 27.2999 140.173 26.9804C139.859 26.6667 139.458 26.5098 138.97 26.5098C138.644 26.5098 138.339 26.5999 138.056 26.78C137.773 26.9542 137.564 27.1808 137.432 27.4597Z" fill="#0072EF"/>
<path d="M144.081 30.2571H143.43V26.597H141.847V26.0479H145.664V26.597H144.081V30.2571Z" fill="#0072EF"/>
<path d="M148.139 29.7952C148.441 29.7952 148.727 29.7284 148.999 29.5948C149.27 29.4611 149.49 29.2927 149.659 29.0893V28.5054C149.213 28.2266 148.739 28.0871 148.239 28.0871C147.841 28.0871 147.524 28.1627 147.289 28.3137C147.06 28.4648 146.945 28.671 146.945 28.9325C146.945 29.2055 147.057 29.4176 147.28 29.5686C147.503 29.7197 147.79 29.7952 148.139 29.7952ZM147.959 30.3617C147.494 30.3617 147.099 30.2397 146.774 29.9956C146.454 29.74 146.294 29.3972 146.294 28.9673C146.294 28.5432 146.463 28.2033 146.801 27.9477C147.138 27.6979 147.567 27.573 148.085 27.573C148.652 27.573 149.177 27.7095 149.659 27.9826V27.5643C149.659 26.8613 149.18 26.5098 148.221 26.5098C147.708 26.5098 147.232 26.6521 146.792 26.9368V26.3268C147.22 26.0712 147.741 25.9434 148.357 25.9434C148.954 25.9434 149.427 26.0799 149.777 26.3529C150.132 26.6202 150.31 27.0036 150.31 27.5033V29.2375C150.31 29.4001 150.347 29.528 150.419 29.6209C150.497 29.7139 150.6 29.7604 150.726 29.7604C150.823 29.7604 150.907 29.7429 150.98 29.7081V30.1961C150.883 30.26 150.739 30.2919 150.546 30.2919C150.328 30.2919 150.145 30.2367 149.994 30.1264C149.849 30.0102 149.759 29.8417 149.722 29.6209C149.282 30.1147 148.694 30.3617 147.959 30.3617Z" fill="#0072EF"/>
<path d="M151.457 30.2571V29.6819C151.487 29.6877 151.544 29.6906 151.629 29.6906C152.009 29.6906 152.268 29.4582 152.407 28.9935C152.521 28.6216 152.594 28.0871 152.624 27.39L152.66 26.0479H155.925V30.2571H155.274V26.597H153.284L153.257 27.4074C153.245 27.7211 153.233 27.9477 153.221 28.0871C153.166 28.6565 153.079 29.0748 152.958 29.342C152.85 29.6209 152.684 29.8504 152.461 30.0305C152.238 30.2048 151.966 30.2832 151.647 30.2658C151.55 30.2658 151.487 30.2629 151.457 30.2571Z" fill="#0072EF"/>
<path d="M61.491 17.2812H59.6628V8.43325H61.4794L64.0596 12.0968L66.634 8.42749H68.439V17.2812H66.634V11.227L64.5861 14.0727H63.5679L61.4852 11.227L61.491 17.2812Z" fill="#0072EF"/>
<path d="M69.8852 14.1244C69.8782 13.6837 69.9629 13.2463 70.134 12.8398C70.3043 12.4344 70.5586 12.0693 70.8803 11.7684C71.577 11.1521 72.4765 10.8118 73.4084 10.8118C74.3403 10.8118 75.2399 11.1521 75.9366 11.7684C76.2498 12.0806 76.4993 12.4503 76.6713 12.8571C77.0107 13.6761 77.0107 14.5957 76.6713 15.4147C76.4993 15.8215 76.2498 16.1912 75.9366 16.5034C75.2365 17.1127 74.3383 17.4485 73.4084 17.4485C72.4786 17.4485 71.5804 17.1127 70.8803 16.5034C70.5568 16.1973 70.3024 15.8262 70.134 15.4147C69.9623 15.0064 69.8776 14.567 69.8852 14.1244ZM71.6555 14.1244C71.6501 14.3562 71.6894 14.587 71.7712 14.8041C71.8575 15.0188 71.9853 15.2145 72.1473 15.3801C72.4855 15.7059 72.9379 15.8877 73.4084 15.8871C73.7599 15.895 74.1052 15.7946 74.3972 15.5998C74.6892 15.4049 74.9137 15.125 75.0399 14.7983C75.1259 14.5822 75.1672 14.351 75.1614 14.1186C75.1662 13.8868 75.1269 13.6562 75.0457 13.4389C74.9586 13.2233 74.8287 13.0274 74.6638 12.8629C74.3264 12.5401 73.8763 12.3604 73.4084 12.3617C73.0572 12.3509 72.7112 12.4486 72.4181 12.6415C72.1249 12.8344 71.8989 13.113 71.7712 13.4389C71.6834 13.6564 71.644 13.8903 71.6555 14.1244Z" fill="#0072EF"/>
<path d="M81.3516 17.4539C80.4306 17.4794 79.5346 17.1539 78.8466 16.5438C78.5099 16.2372 78.2435 15.8619 78.0656 15.4436C77.8914 15.0262 77.8104 14.5761 77.8284 14.1245C77.817 13.6917 77.8918 13.261 78.0482 12.8572C78.2049 12.4538 78.4409 12.0856 78.7424 11.7742C79.0501 11.4538 79.4229 11.2024 79.8358 11.0369C80.2467 10.8704 80.6886 10.7938 81.1317 10.8122C81.549 10.7959 81.9646 10.8747 82.3466 11.0427C82.7263 11.2137 83.0624 11.4677 83.3301 11.7857C83.886 12.4484 84.1801 13.2902 84.1574 14.1533V14.6198H79.6102C79.6537 14.8219 79.7389 15.0128 79.8604 15.1804C79.9819 15.348 80.1371 15.4886 80.316 15.5933C80.7478 15.8349 81.2385 15.9526 81.7334 15.9332C82.4495 15.9234 83.1502 15.7246 83.764 15.3572V16.7857C83.0548 17.2649 82.2074 17.4996 81.3516 17.4539ZM79.616 10.0864C79.4933 10.0912 79.3709 10.0696 79.2573 10.0231C79.1459 9.97156 79.0441 9.90142 78.9565 9.8157C78.8655 9.73258 78.7943 9.63023 78.7482 9.51616C78.6964 9.40243 78.6726 9.27801 78.6788 9.15326C78.6733 9.03042 78.697 8.90802 78.7482 8.79612C78.7946 8.68383 78.8657 8.58341 78.9565 8.50234C79.1322 8.32958 79.369 8.23237 79.616 8.2316C79.7391 8.22887 79.8615 8.25094 79.9758 8.29647C80.0901 8.342 80.1941 8.41007 80.2813 8.49658C80.3723 8.57969 80.4435 8.68204 80.4896 8.79612C80.5353 8.90968 80.5589 9.0309 80.559 9.15326C80.5595 9.27567 80.5359 9.397 80.4896 9.5104C80.4435 9.62618 80.3724 9.73042 80.2813 9.8157C80.195 9.90154 80.0928 9.96999 79.9805 10.0173C79.8715 10.0663 79.7528 10.0899 79.6334 10.0864H79.616ZM79.616 13.4793H82.3987C82.3926 13.1391 82.2535 12.8147 82.0111 12.5749C81.8849 12.454 81.7353 12.3599 81.5714 12.2984C81.4094 12.2354 81.2361 12.206 81.0623 12.212C80.6998 12.2004 80.3463 12.326 80.073 12.5634C79.8082 12.7989 79.6446 13.1269 79.616 13.4793ZM83.0871 9.82146C82.9997 9.90864 82.8954 9.97723 82.7805 10.0231C82.6672 10.0705 82.5446 10.0921 82.4218 10.0864C82.2978 10.0903 82.1741 10.0708 82.0574 10.0288C81.9411 9.983 81.8364 9.91219 81.7507 9.82146C81.6632 9.73439 81.5943 9.63053 81.5483 9.51616C81.5011 9.40116 81.4794 9.27737 81.4846 9.15326C81.4799 9.03104 81.5016 8.90924 81.5483 8.79612C81.5958 8.68424 81.6645 8.58253 81.7507 8.49658C81.8403 8.40925 81.9465 8.34069 82.0632 8.29496C82.1768 8.24847 82.2991 8.22686 82.4218 8.2316C82.5446 8.22592 82.6672 8.24757 82.7805 8.29496C82.8954 8.34081 82.9997 8.4094 83.0871 8.49658C83.1776 8.58019 83.2486 8.68241 83.2954 8.79612C83.3417 8.90952 83.3653 9.03084 83.3648 9.15326C83.3653 9.27754 83.3417 9.40076 83.2954 9.51616C83.2452 9.6297 83.1746 9.73316 83.0871 9.82146Z" fill="#0072EF"/>
<path d="M88.3633 14.1244C88.3543 13.6841 88.437 13.2467 88.6063 12.8398C88.7808 12.4367 89.0345 12.0724 89.3526 11.7684C90.0493 11.1521 90.9488 10.8118 91.8807 10.8118C92.8126 10.8118 93.7121 11.1521 94.4088 11.7684C94.7226 12.0784 94.9717 12.4472 95.1417 12.8536C95.3116 13.2599 95.3991 13.6957 95.3991 14.1359C95.3991 14.5761 95.3116 15.0119 95.1417 15.4182C94.9717 15.8246 94.7226 16.1934 94.4088 16.5034C93.7088 17.1127 92.8105 17.4485 91.8807 17.4485C90.9509 17.4485 90.0526 17.1127 89.3526 16.5034C89.0328 16.1942 88.779 15.8239 88.6063 15.4147C88.4364 15.006 88.3536 14.5666 88.3633 14.1244ZM90.0989 14.1244C90.1022 14.3588 90.1534 14.59 90.2493 14.8041C90.3755 15.1308 90.6 15.4107 90.892 15.6055C91.184 15.8004 91.5293 15.9007 91.8807 15.8928C92.3515 15.8947 92.8043 15.7127 93.1419 15.3859C93.3038 15.2202 93.4316 15.0245 93.5179 14.8099C93.5984 14.5922 93.6395 14.3621 93.6394 14.1301C93.6452 13.8977 93.6039 13.6666 93.5179 13.4504C93.4029 13.1853 93.225 12.9519 92.9995 12.7703C92.774 12.5886 92.5077 12.4641 92.2233 12.4075C91.9388 12.3509 91.6449 12.3637 91.3666 12.4451C91.0883 12.5264 90.8339 12.6737 90.6253 12.8744C90.462 13.0397 90.3338 13.2361 90.2483 13.4519C90.1628 13.6676 90.1218 13.8983 90.1278 14.1301L90.0989 14.1244Z" fill="#0072EF"/>
<path d="M100.333 11.3766C100.704 11.3636 101.073 11.4243 101.42 11.5552C101.768 11.681 102.085 11.8772 102.352 12.1312C102.626 12.4044 102.839 12.7322 102.977 13.0932C103.111 13.446 103.172 13.8222 103.156 14.1992C103.174 14.6348 103.097 15.0691 102.93 15.4722C102.768 15.8745 102.521 16.2377 102.207 16.5379C101.896 16.8417 101.526 17.0789 101.12 17.2349C100.712 17.3911 100.277 17.4636 99.8411 17.448C99.3537 17.4786 98.866 17.3937 98.4179 17.2003C97.9704 17.0051 97.5744 16.7094 97.2609 16.3363C96.6238 15.4683 96.3052 14.4089 96.3584 13.3351C96.3413 12.6047 96.463 11.8777 96.7171 11.1923C96.957 10.6138 97.3586 10.116 97.8741 9.75794C98.4358 9.34812 99.0612 9.03287 99.7254 8.82476C100.598 8.54472 101.492 8.33664 102.398 8.20264V9.86162L101.727 9.97683L101.062 10.0863L100.483 10.213C100.115 10.2923 99.7538 10.3982 99.4014 10.5298C99.0972 10.6547 98.8187 10.8344 98.5799 11.0598C98.2111 11.431 98.0034 11.9316 98.0014 12.4538C98.2814 12.0999 98.6421 11.8176 99.0536 11.6303C99.4651 11.4429 99.9155 11.356 100.368 11.3766H100.333ZM99.8121 15.9446C100.022 15.9513 100.231 15.914 100.425 15.8351C100.618 15.7575 100.792 15.6396 100.934 15.4895C101.084 15.3343 101.201 15.15 101.276 14.948C101.352 14.7498 101.385 14.5378 101.374 14.3259C101.384 14.1296 101.352 13.9334 101.282 13.7499C101.207 13.5668 101.097 13.4003 100.958 13.2602C100.811 13.1274 100.64 13.0237 100.454 12.9549C100.269 12.887 100.073 12.8557 99.8758 12.8628C99.5188 12.8651 99.1683 12.9583 98.8576 13.1335C98.5496 13.2954 98.2886 13.5334 98.0997 13.8248C98.0694 14.3862 98.2327 14.941 98.5625 15.3973C98.7182 15.5836 98.9166 15.7298 99.1411 15.8236C99.353 15.913 99.5822 15.9543 99.8121 15.9446Z" fill="#0072EF"/>
<path d="M108.339 10.8124C108.738 10.8036 109.134 10.8843 109.497 11.0485C109.881 11.21 110.223 11.4562 110.497 11.7686C111.074 12.4205 111.379 13.2677 111.348 14.1361C111.373 15.0036 111.069 15.8487 110.497 16.5036C110.233 16.8081 109.905 17.0518 109.537 17.2179C109.173 17.3778 108.778 17.4564 108.38 17.4483C107.982 17.4714 107.585 17.3962 107.223 17.2294C106.861 17.0694 106.543 16.8243 106.297 16.5151V19.8158H104.504V10.9737H106.297V11.7456C106.541 11.4317 106.859 11.1824 107.223 11.0197C107.573 10.8627 107.956 10.7916 108.339 10.8124ZM107.83 12.3677C107.502 12.3612 107.179 12.4536 106.905 12.6327C106.633 12.7992 106.41 13.0335 106.257 13.3124V14.9771C106.408 15.2555 106.632 15.4882 106.905 15.6511C107.181 15.8253 107.503 15.9153 107.83 15.9103C108.06 15.9213 108.289 15.882 108.501 15.7951C108.72 15.7066 108.917 15.5731 109.08 15.4034C109.391 15.0587 109.562 14.6111 109.56 14.1476C109.561 13.6826 109.391 13.2335 109.08 12.8861C108.923 12.7186 108.732 12.587 108.519 12.5005C108.306 12.414 108.077 12.3745 107.848 12.385L107.83 12.3677Z" fill="#0072EF"/>
<path d="M118.683 15.9044C118.809 15.9121 118.935 15.8863 119.048 15.8296V17.1314C118.766 17.3271 118.425 17.4206 118.082 17.3964C117.788 17.4294 117.491 17.3692 117.233 17.2244C116.976 17.0796 116.771 16.8576 116.647 16.5899C116.366 16.8885 116.025 17.1241 115.646 17.2812C115.278 17.423 114.884 17.4896 114.489 17.477C113.871 17.5081 113.264 17.302 112.794 16.901C112.582 16.7084 112.413 16.4722 112.302 16.2087C112.19 15.9451 112.137 15.6605 112.146 15.3745C112.131 15.0747 112.19 14.7759 112.32 14.5047C112.452 14.2349 112.651 14.003 112.898 13.8307C113.404 13.4712 114.012 13.2833 114.634 13.295C115.266 13.2767 115.893 13.4111 116.462 13.6867V13.5024C116.462 12.7074 115.883 12.31 114.784 12.31C114.109 12.3104 113.448 12.4936 112.869 12.8399V11.3134C113.599 10.9561 114.406 10.7839 115.218 10.8123C116.002 10.7688 116.776 11.0013 117.405 11.469C117.679 11.6847 117.899 11.9607 118.047 12.2754C118.193 12.5928 118.261 12.9405 118.244 13.2892V15.4263C118.238 15.7489 118.383 15.9044 118.683 15.9044ZM116.456 15.4263V14.7927C116.062 14.5444 115.603 14.4181 115.137 14.4298C114.82 14.4129 114.505 14.4869 114.229 14.6429C114.122 14.705 114.034 14.7946 113.974 14.9021C113.916 15.0077 113.888 15.1273 113.893 15.2478C113.884 15.3672 113.908 15.4868 113.963 15.5934C114.015 15.702 114.095 15.7953 114.194 15.8641C114.443 16.0148 114.731 16.0871 115.021 16.0715C115.295 16.087 115.569 16.0376 115.82 15.9275C116.069 15.8128 116.287 15.6411 116.456 15.4263Z" fill="#0072EF"/>
<path d="M122.519 17.454C121.672 17.4788 120.829 17.3134 120.055 16.9701V15.553C120.739 15.8985 121.498 16.0725 122.265 16.0599C122.648 16.0758 123.03 16.011 123.387 15.8698C123.502 15.8286 123.603 15.7545 123.676 15.6567C123.746 15.5587 123.786 15.4427 123.792 15.3226C123.792 14.9136 123.416 14.7063 122.67 14.7063H121.426V13.3929H122.646C123.26 13.3929 123.561 13.2086 123.561 12.8169C123.561 12.4251 123.132 12.212 122.265 12.212C121.556 12.1961 120.853 12.3439 120.211 12.644V11.2616C120.985 10.9383 121.819 10.7832 122.658 10.8065C123.34 10.7835 124.015 10.9554 124.602 11.3019C124.838 11.4165 125.039 11.5939 125.18 11.8146C125.318 12.0327 125.396 12.283 125.406 12.5404C125.435 12.837 125.36 13.1344 125.192 13.3814C125.024 13.6271 124.777 13.808 124.492 13.894C124.825 13.9971 125.12 14.1979 125.337 14.4701C125.557 14.7372 125.672 15.0751 125.661 15.4205C125.656 15.7229 125.573 16.0188 125.418 16.2788C125.265 16.5392 125.045 16.7541 124.781 16.901C124.098 17.3019 123.311 17.4942 122.519 17.454Z" fill="#0072EF"/>
<path d="M126.638 14.1244C126.626 13.6838 126.709 13.2458 126.881 12.8398C127.052 12.4344 127.306 12.0693 127.628 11.7684C128.324 11.1521 129.224 10.8118 130.156 10.8118C131.088 10.8118 131.987 11.1521 132.684 11.7684C132.998 12.0784 133.247 12.4472 133.417 12.8536C133.587 13.2599 133.674 13.6957 133.674 14.1359C133.674 14.5761 133.587 15.0119 133.417 15.4182C133.247 15.8246 132.998 16.1934 132.684 16.5034C131.984 17.1127 131.086 17.4485 130.156 17.4485C129.226 17.4485 128.328 17.1127 127.628 16.5034C127.304 16.1973 127.05 15.8262 126.881 15.4147C126.709 15.0068 126.626 14.5668 126.638 14.1244ZM128.374 14.1244C128.368 14.3562 128.408 14.587 128.49 14.8041C128.577 15.0197 128.707 15.2157 128.871 15.3801C129.073 15.5948 129.327 15.7547 129.608 15.8445C129.889 15.9344 130.189 15.9513 130.479 15.8936C130.768 15.8359 131.038 15.7056 131.263 15.5149C131.488 15.3243 131.661 15.0796 131.764 14.8041C131.9 14.4805 131.937 14.1241 131.87 13.7798C131.803 13.4355 131.635 13.1185 131.388 12.8686C131.05 12.5468 130.6 12.3672 130.133 12.3672C129.665 12.3672 129.215 12.5468 128.877 12.8686C128.712 13.0331 128.582 13.229 128.495 13.4447C128.432 13.6653 128.41 13.8958 128.432 14.1244H128.374Z" fill="#0072EF"/>
<path d="M138.735 17.2811H134.998V10.9447H138.579C139.116 10.9107 139.648 11.0701 140.077 11.394C140.253 11.5339 140.391 11.7137 140.482 11.9182C140.576 12.1203 140.621 12.341 140.615 12.5634C140.633 12.8382 140.569 13.1121 140.431 13.3509C140.293 13.5896 140.088 13.7826 139.84 13.9055C140.194 13.9928 140.507 14.1956 140.731 14.4816C140.962 14.7894 141.073 15.17 141.043 15.553C141.054 15.7976 141.005 16.0412 140.899 16.2622C140.793 16.4833 140.634 16.6749 140.436 16.8203C139.935 17.1561 139.338 17.3181 138.735 17.2811ZM136.762 12.1947V13.485H138.006C138.585 13.485 138.857 13.2719 138.857 12.8399C138.857 12.4078 138.579 12.1947 138.006 12.1947H136.762ZM136.762 14.6083V16.0253H138.267C138.886 16.0253 139.192 15.7892 139.192 15.3168C139.192 14.8445 138.886 14.6083 138.267 14.6083H136.762Z" fill="#0072EF"/>
<path d="M148.466 15.9044C148.594 15.9115 148.721 15.8857 148.836 15.8295V17.1314C148.553 17.3262 148.213 17.4196 147.87 17.3963C147.576 17.4302 147.279 17.3704 147.021 17.2255C146.763 17.0806 146.558 16.8581 146.435 16.5899C146.151 16.8774 145.81 17.1023 145.433 17.2502C145.057 17.398 144.653 17.4655 144.248 17.4482C143.632 17.479 143.027 17.2727 142.559 16.8721C142.344 16.6816 142.174 16.4457 142.062 16.1817C141.95 15.9176 141.898 15.632 141.911 15.3456C141.894 15.0463 141.951 14.7474 142.079 14.4758C142.213 14.2073 142.412 13.9758 142.657 13.8019C143.171 13.4363 143.791 13.2482 144.422 13.2662C145.056 13.2478 145.685 13.3822 146.256 13.6579V13.4735C146.256 12.6786 145.677 12.2811 144.578 12.2811C143.901 12.2814 143.238 12.4646 142.657 12.8111V11.3134C143.387 10.956 144.194 10.7839 145.006 10.8122C145.79 10.7668 146.565 10.9994 147.193 11.4689C147.47 11.6815 147.69 11.9584 147.835 12.2754C147.981 12.5928 148.049 12.9405 148.032 13.2892V15.4263C148.02 15.7489 148.171 15.9044 148.466 15.9044ZM146.244 15.4263V14.7927C145.848 14.5442 145.387 14.4179 144.919 14.4297C144.602 14.4129 144.287 14.4868 144.011 14.6429C143.906 14.7051 143.82 14.7947 143.762 14.9021C143.699 15.006 143.669 15.1265 143.676 15.2477C143.666 15.3684 143.69 15.4893 143.744 15.5978C143.798 15.7062 143.88 15.7982 143.982 15.8641C144.228 16.0157 144.515 16.0881 144.804 16.0715C145.078 16.0869 145.351 16.0376 145.602 15.9274C145.852 15.8126 146.072 15.641 146.244 15.4263Z" fill="#0072EF"/>
<path d="M151.873 17.2812H150.08V10.9448H151.873V13.2835H154.465V10.9736H156.258V17.2812H154.465V14.8043H151.862L151.873 17.2812Z" fill="#0072EF"/>
<path d="M159.701 17.2812H158.023V10.9448H159.787V14.666L162.68 10.9448H164.358V17.2812H162.564V13.5658L159.701 17.2812Z" fill="#0072EF"/>
<path d="M169.188 17.454C168.268 17.4783 167.372 17.1529 166.683 16.5439C166.347 16.2385 166.082 15.8628 165.908 15.4436C165.731 15.0271 165.65 14.5763 165.671 14.1245C165.657 13.6916 165.732 13.2603 165.891 12.8572C166.048 12.4538 166.284 12.0856 166.585 11.7743C166.891 11.4544 167.262 11.2031 167.673 11.0372C168.084 10.8713 168.525 10.7946 168.969 10.8123C169.386 10.7954 169.802 10.8742 170.184 11.0427C170.563 11.2138 170.899 11.4678 171.167 11.7858C171.725 12.4471 172.02 13.2898 171.994 14.1533V14.6199H167.447C167.491 14.822 167.576 15.0129 167.697 15.1805C167.819 15.348 167.974 15.4887 168.153 15.5934C168.585 15.8342 169.075 15.9517 169.57 15.9333C170.286 15.9234 170.987 15.7246 171.601 15.3572V16.7858C170.892 17.2658 170.044 17.5005 169.188 17.454ZM167.453 13.4793H170.236C170.229 13.1392 170.09 12.8147 169.848 12.575C169.602 12.3376 169.271 12.2071 168.928 12.2121C168.564 12.2013 168.209 12.3266 167.933 12.5634C167.67 12.7996 167.508 13.1276 167.482 13.4793H167.453Z" fill="#0072EF"/>
<path fill-rule="evenodd" clip-rule="evenodd" d="M46.2816 28.485L39.6113 40H26.7276L20.5085 28.8191L27.0516 17.5403H39.9353L46.2816 28.485Z" fill="#E30613"/>
<path fill-rule="evenodd" clip-rule="evenodd" d="M36.0013 10.9505L29.3252 22.4597H16.4415L10.2224 11.2846L16.7655 0H29.6491L36.0013 10.9505Z" fill="#312783"/>
<path fill-rule="evenodd" clip-rule="evenodd" d="M16.7771 0L23.1408 10.9447L16.4415 22.4654L10.2224 11.2846L16.7771 0Z" fill="#0072EF"/>
<path fill-rule="evenodd" clip-rule="evenodd" d="M16.777 0L23.1407 10.9447H36.0012L29.6375 0H16.777Z" fill="#1A3B9A"/>
<path fill-rule="evenodd" clip-rule="evenodd" d="M23.1409 10.9448L16.4417 22.4656H29.3253L36.0014 10.9448H23.1409Z" fill="#312783"/>
<path fill-rule="evenodd" clip-rule="evenodd" d="M27.0516 17.5403L33.4153 28.485L26.7392 40.0057L20.5085 28.8018L27.0574 17.5403H27.0516Z" fill="#FF5D00"/>
<path fill-rule="evenodd" clip-rule="evenodd" d="M33.4038 28.4907L26.7277 40.0115H39.6113L46.2817 28.4907H33.4038Z" fill="#812B29"/>
<path fill-rule="evenodd" clip-rule="evenodd" d="M27.0516 17.5403L33.4154 28.485H46.2817L39.9179 17.5403H27.0516Z" fill="#E30613"/>
<path fill-rule="evenodd" clip-rule="evenodd" d="M6.54307 17.5403L12.9068 28.485L6.23067 40.0057L0 28.8018L6.54307 17.5403Z" fill="#F5F9FC"/>
<path fill-rule="evenodd" clip-rule="evenodd" d="M12.8952 28.4907L6.21912 40.0115H19.0912L25.7673 28.4907H12.8952Z" fill="#D9D9D9"/>
<path fill-rule="evenodd" clip-rule="evenodd" d="M6.54309 17.5403L12.9068 28.485H25.7731L22.2789 22.4654H16.4416L13.7052 17.546L6.54309 17.5403Z" fill="#A6A5A9"/>
</g>
<defs>
<clipPath id="clip0_271_2199">
<rect width="172" height="40" fill="white"/>
</clipPath>
</defs>
</svg>
