<?xml version="1.0"?>
<svg xmlns="http://www.w3.org/2000/svg" id="Capa_1" enable-background="new 0 0 512 512" height="512px" viewBox="0 0 512 512" width="512px"><g><path d="m467.949 77.441h-29.924v-42.195c-.001-19.434-15.812-35.246-35.246-35.246h-293.558c-19.434 0-35.245 15.812-35.245 35.246v42.195h-29.925c-24.29 0-44.051 19.759-44.051 44.047v266.859c0 24.288 19.761 44.047 44.051 44.047h159.099l-18.694 49.606h-19.623c-8.284 0-15 6.716-15 15s6.716 15 15 15h182.335c8.284 0 15-6.716 15-15s-6.716-15-15-15h-19.623l-18.694-49.606h159.099c24.29 0 44.051-19.759 44.051-44.047v-266.859c-.001-24.288-19.762-44.047-44.052-44.047zm0 30c7.748 0 14.051 6.301 14.051 14.047v191.919h-43.976v-205.966zm-363.973-25h304.049v230.966h-304.049zm304.048-47.195v17.195h-236.833v-22.441h231.588c2.892 0 5.245 2.354 5.245 5.246zm-298.803-5.246h31.97v22.441h-37.215v-17.195c0-2.892 2.353-5.246 5.245-5.246zm-65.17 77.441h29.924v205.966h-43.975v-191.919c0-7.746 6.303-14.047 14.051-14.047zm251.434 374.559h-78.97l18.694-49.606h41.581zm172.464-79.606h-423.898c-7.748 0-14.051-6.301-14.051-14.047v-44.94h452v44.94c0 7.746-6.303 14.047-14.051 14.047z" data-original="#000000" class="active-path" data-old_color="#000000" fill="#1a3b9a"/><path d="m268.792 357.063h-25.583c-8.284 0-15 6.716-15 15s6.716 15 15 15h25.583c8.284 0 15-6.716 15-15s-6.716-15-15-15z" data-original="#000000" class="active-path" data-old_color="#000000" fill="#1a3b9a"/><path d="m138.509 182.435h107.909c8.284 0 15-6.716 15-15v-50c0-8.284-6.716-15-15-15h-107.909c-8.284 0-15 6.716-15 15v50c0 8.284 6.716 15 15 15zm15-50h77.909v20h-77.909z" data-original="#000000" class="active-path" data-old_color="#000000" fill="#1a3b9a"/><path d="m296.592 132.435h76.369c8.284 0 15-6.716 15-15s-6.716-15-15-15h-76.369c-8.284 0-15 6.716-15 15s6.716 15 15 15z" data-original="#000000" class="active-path" data-old_color="#000000" fill="#1a3b9a"/><path d="m296.592 182.429h76.369c8.284 0 15-6.716 15-15s-6.716-15-15-15h-76.369c-8.284 0-15 6.716-15 15s6.716 15 15 15z" data-original="#000000" class="active-path" data-old_color="#000000" fill="#1a3b9a"/><path d="m138.509 232.429h234.452c8.284 0 15-6.716 15-15s-6.716-15-15-15h-234.452c-8.284 0-15 6.716-15 15s6.716 15 15 15z" data-original="#000000" class="active-path" data-old_color="#000000" fill="#1a3b9a"/><path d="m373.226 252.429h-234.452c-8.284 0-15 6.716-15 15s6.716 15 15 15h234.451c8.284 0 15-6.716 15-15s-6.715-15-14.999-15z" data-original="#000000" class="active-path" data-old_color="#000000" fill="#1a3b9a"/></g> </svg>
