<?xml version="1.0" encoding="UTF-8" standalone="no"?>
<svg
   xmlns:dc="http://purl.org/dc/elements/1.1/"
   xmlns:cc="http://creativecommons.org/ns#"
   xmlns:rdf="http://www.w3.org/1999/02/22-rdf-syntax-ns#"
   xmlns:svg="http://www.w3.org/2000/svg"
   xmlns="http://www.w3.org/2000/svg"
   id="svg8"
   version="1.1"
   viewBox="0 0 14.552083 14.552084"
   height="55"
   width="55">
  <defs
     id="defs2" />
  <metadata
     id="metadata5">
    <rdf:RDF>
      <cc:Work
         rdf:about="">
        <dc:format>image/svg+xml</dc:format>
        <dc:type
           rdf:resource="http://purl.org/dc/dcmitype/StillImage" />
        <dc:title></dc:title>
      </cc:Work>
    </rdf:RDF>
  </metadata>
  <g
     transform="translate(0,-282.4479)"
     id="layer1">
    <g
       style="stroke-width:0.96164018"
       transform="matrix(1.03989,0,0,1.03989,-169.90972,175.69156)"
       id="g1209">
      <circle
         style="opacity:1;fill:none;fill-opacity:1;stroke:#434b52;stroke-width:0.25443396;stroke-linecap:round;stroke-linejoin:round;stroke-miterlimit:4;stroke-dasharray:none;stroke-opacity:1"
         id="path882"
         cx="156.39508"
         cy="85.486885"
         r="6.8697171" />
      <g
         style="stroke-width:0.96164018"
         id="g960">
        <rect
           ry="0.41903815"
           y="82.285896"
           x="153.76544"
           height="6.4019718"
           width="5.2592773"
           id="rect884"
           style="opacity:1;fill:none;fill-opacity:1;stroke:#434b52;stroke-width:0.25443396;stroke-linecap:round;stroke-linejoin:round;stroke-miterlimit:4;stroke-dasharray:none;stroke-opacity:1" />
        <path
           id="path886"
           d="m 154.9702,83.745197 0.30815,0.336149 0.63689,-0.576254 v 0"
           style="fill:none;stroke:#434b52;stroke-width:0.25443396;stroke-linecap:round;stroke-linejoin:round;stroke-miterlimit:4;stroke-dasharray:none;stroke-opacity:1" />
        <path
           id="path886-3"
           d="m 154.9702,85.531385 0.30815,0.336149 0.63689,-0.576254 v 0"
           style="fill:none;stroke:#434b52;stroke-width:0.25443396;stroke-linecap:round;stroke-linejoin:round;stroke-miterlimit:4;stroke-dasharray:none;stroke-opacity:1" />
        <path
           id="path886-6"
           d="m 154.9702,87.317569 0.30815,0.336149 0.63689,-0.576254 v 0"
           style="fill:none;stroke:#434b52;stroke-width:0.25443396;stroke-linecap:round;stroke-linejoin:round;stroke-miterlimit:4;stroke-dasharray:none;stroke-opacity:1" />
        <path
           id="path909"
           d="m 156.79617,83.502857 c 1.25205,0 1.2993,0 1.2993,0"
           style="fill:none;stroke:#434b52;stroke-width:0.25443396;stroke-linecap:round;stroke-linejoin:miter;stroke-miterlimit:4;stroke-dasharray:none;stroke-opacity:1" />
        <path
           id="path909-7"
           d="m 156.79617,84.211566 c 1.25205,0 1.2993,0 1.2993,0"
           style="fill:none;stroke:#434b52;stroke-width:0.25443396;stroke-linecap:round;stroke-linejoin:miter;stroke-miterlimit:4;stroke-dasharray:none;stroke-opacity:1" />
        <path
           id="path909-5"
           d="m 156.79617,85.254365 c 1.25205,0 1.2993,0 1.2993,0"
           style="fill:none;stroke:#434b52;stroke-width:0.25443396;stroke-linecap:round;stroke-linejoin:miter;stroke-miterlimit:4;stroke-dasharray:none;stroke-opacity:1" />
        <path
           id="path909-3"
           d="m 156.79617,85.963059 c 1.25205,0 1.2993,0 1.2993,0"
           style="fill:none;stroke:#434b52;stroke-width:0.25443396;stroke-linecap:round;stroke-linejoin:miter;stroke-miterlimit:4;stroke-dasharray:none;stroke-opacity:1" />
        <path
           id="path909-56"
           d="m 156.79617,87.022558 c 1.25205,0 1.2993,0 1.2993,0"
           style="fill:none;stroke:#434b52;stroke-width:0.25443396;stroke-linecap:round;stroke-linejoin:miter;stroke-miterlimit:4;stroke-dasharray:none;stroke-opacity:1" />
        <path
           id="path909-2"
           d="m 156.79617,87.731263 c 1.25205,0 1.2993,0 1.2993,0"
           style="fill:none;stroke:#434b52;stroke-width:0.25443396;stroke-linecap:round;stroke-linejoin:miter;stroke-miterlimit:4;stroke-dasharray:none;stroke-opacity:1" />
      </g>
    </g>
    <g
       style="stroke-width:0.96164018"
       transform="matrix(1.03989,0,0,1.03989,-155.77309,182.26176)"
       id="g1217">
      <circle
         style="opacity:1;fill:none;fill-opacity:1;stroke:#434b52;stroke-width:0.25443396;stroke-linecap:round;stroke-linejoin:round;stroke-miterlimit:4;stroke-dasharray:none;stroke-opacity:1"
         id="path882-9"
         cx="173.69627"
         cy="85.711304"
         r="6.8697171" />
      <g
         style="stroke-width:0.96164018"
         id="g1176"
         transform="translate(1.0692278e-6,0.13107799)">
        <circle
           r="1.7670386"
           cy="84.104912"
           cx="173.69627"
           id="path882-1-2"
           style="opacity:1;fill:none;fill-opacity:1;stroke:#434b52;stroke-width:0.25443399;stroke-linecap:round;stroke-linejoin:round;stroke-miterlimit:4;stroke-dasharray:none;stroke-opacity:1" />
        <path
           id="path998"
           d="m 170.38387,88.749974 c 0,0 0.65736,-2.129644 3.33037,-2.157314 2.67302,-0.02767 3.29445,2.045134 3.29445,2.045134"
           style="fill:none;stroke:#434b52;stroke-width:0.25443396;stroke-linecap:round;stroke-linejoin:miter;stroke-miterlimit:4;stroke-dasharray:none;stroke-opacity:1" />
        <rect
           transform="matrix(0.66879844,-0.74344377,0.66879844,0.74344377,0,0)"
           ry="0.096791305"
           y="188.15265"
           x="70.816032"
           height="0.74525642"
           width="0.74525642"
           id="rect1008"
           style="opacity:1;fill:none;fill-opacity:1;stroke:#434b52;stroke-width:0.25514576;stroke-linecap:round;stroke-linejoin:round;stroke-miterlimit:4;stroke-dasharray:none;stroke-opacity:1" />
        <path
           id="path1046"
           d="m 173.69794,87.766791 0.34695,0.334717 -0.12844,0.711321 -0.39391,0.0077 -0.17155,-0.707197 z"
           style="fill:none;fill-opacity:1;stroke:#434b52;stroke-width:0.25443396px;stroke-linecap:butt;stroke-linejoin:miter;stroke-opacity:1" />
      </g>
    </g>
    <g
       style="stroke-width:0.96164018"
       transform="matrix(1.03989,0,0,1.03989,-192.1987,200.39708)"
       id="g1230">
      <circle
         style="opacity:1;fill:none;fill-opacity:1;stroke:#434b52;stroke-width:0.25443396;stroke-linecap:round;stroke-linejoin:round;stroke-miterlimit:4;stroke-dasharray:none;stroke-opacity:1"
         id="path882-1"
         cx="191.82292"
         cy="85.900299"
         r="6.8697171" />
      <g
         style="stroke-width:0.96164018"
         id="g1170"
         transform="translate(-0.03956308,0.13900221)">
        <path
           id="path1050"
           d="m 188.44552,88.876867 c 0.16162,0.02363 6.83391,0 6.83391,0"
           style="fill:none;stroke:#444b52;stroke-width:0.25443396;stroke-linecap:round;stroke-linejoin:miter;stroke-miterlimit:4;stroke-dasharray:none;stroke-opacity:1" />
        <path
           id="path1052"
           d="m 189.00604,88.195681 5.71289,0.0167"
           style="fill:none;stroke:#444b52;stroke-width:0.25443396;stroke-linecap:round;stroke-linejoin:miter;stroke-miterlimit:4;stroke-dasharray:none;stroke-opacity:1" />
        <path
           id="path1069"
           d="m 188.83691,84.77599 v -0.695001 l 3.0125,-1.445766 3.03865,1.457436 v 0.672611 z"
           style="fill:none;stroke:#444b52;stroke-width:0.25443396px;stroke-linecap:round;stroke-linejoin:round;stroke-opacity:1" />
        <path
           id="path1052-3"
           d="m 189.59434,84.872999 -0.0167,3.235891"
           style="fill:none;stroke:#444b52;stroke-width:0.25443399;stroke-linecap:butt;stroke-linejoin:miter;stroke-miterlimit:4;stroke-dasharray:none;stroke-opacity:1" />
        <path
           id="path1052-3-6"
           d="m 190.3548,84.867586 -0.0167,3.234796"
           style="fill:none;stroke:#444b52;stroke-width:0.25443402;stroke-linecap:butt;stroke-linejoin:miter;stroke-miterlimit:4;stroke-dasharray:none;stroke-opacity:1" />
        <path
           id="path1052-3-6-0"
           d="m 191.48282,84.860057 -0.0167,3.254165"
           style="fill:none;stroke:#444b52;stroke-width:0.25443405;stroke-linecap:butt;stroke-linejoin:miter;stroke-miterlimit:4;stroke-dasharray:none;stroke-opacity:1" />
        <path
           id="path1052-3-6-0-6"
           d="m 192.23879,84.868983 -0.005,3.212639"
           style="fill:none;stroke:#444b52;stroke-width:0.25443405;stroke-linecap:butt;stroke-linejoin:miter;stroke-miterlimit:4;stroke-dasharray:none;stroke-opacity:1" />
        <path
           id="path1052-3-6-0-6-2"
           d="m 193.37276,84.860121 -0.005,3.248397"
           style="fill:none;stroke:#444b52;stroke-width:0.25443405;stroke-linecap:butt;stroke-linejoin:miter;stroke-miterlimit:4;stroke-dasharray:none;stroke-opacity:1" />
        <path
           id="path1052-3-6-0-6-2-6"
           d="m 194.12871,84.823061 -0.005,3.282507"
           style="fill:none;stroke:#444b52;stroke-width:0.25443405;stroke-linecap:butt;stroke-linejoin:miter;stroke-miterlimit:4;stroke-dasharray:none;stroke-opacity:1" />
      </g>
    </g>
    <g
       style="stroke-width:0.96164018"
       transform="matrix(1.03989,0,0,1.03989,-171.50478,196.65313)"
       id="g1195">
      <path
         id="path828"
         d="m 141.56814,82.892774 h -3.30729 c -0.0794,0 -0.13229,0.05292 -0.13229,0.132287 v 1.24355 h -1.64042 c -0.0794,0 -0.13229,0.0529 -0.13229,0.13229 v 3.94229 c 0,0.0794 0.0529,0.13229 0.13229,0.13229 h 1.77271 3.30729 c 0.0794,0 0.13229,-0.0529 0.13229,-0.13229 v -5.31813 c 0,-0.05291 -0.0529,-0.132287 -0.13229,-0.132287 z m -3.43958,4.180417 h -0.84667 v -0.42333 h 0.84667 z m 0,-1.40229 h -0.84667 v -0.42334 h 0.84667 z m -1.50813,-1.11125 h 1.50813 v 0.42333 h -0.97896 c -0.0794,0 -0.13229,0.0529 -0.13229,0.13229 v 0.68792 c 0,0.0794 0.0529,0.13229 0.13229,0.13229 h 0.97896 v 0.42333 h -0.97896 c -0.0794,0 -0.13229,0.0529 -0.13229,0.1323 v 0.68791 c 0,0.0794 0.0529,0.13229 0.13229,0.13229 h 0.97896 v 0.89959 h -1.50813 c 0,0 0,-3.65125 0,-3.65125 z m 2.8575,3.65125 v -0.55563 c 0,-0.18521 0.1323,-0.3175 0.3175,-0.3175 h 0.21167 c 0.15875,0 0.3175,0.15875 0.3175,0.3175 v 0.55563 z m 1.95792,0 h -0.84667 v -0.55563 c 0,-0.3175 -0.26458,-0.58208 -0.58208,-0.58208 h -0.21167 c -0.3175,0 -0.58208,0.26458 -0.58208,0.58208 v 0.55563 h -0.84667 v -1.03188 -0.68791 -0.68792 -0.68792 -0.68791 -1.24355 h 3.04271 v 5.02709 z m -2.64583,-4.47146 c 0,-0.0794 0.0529,-0.13229 0.13229,-0.13229 h 0.21167 c 0.0794,0 0.13229,0.0529 0.13229,0.13229 0,0.0794 -0.0529,0.13229 -0.13229,0.13229 h -0.21167 c -0.0794,0 -0.13229,-0.0794 -0.13229,-0.13229 z m 0.87312,0 c 0,-0.0794 0.0529,-0.13229 0.13229,-0.13229 h 0.21167 c 0.0794,0 0.13229,0.0529 0.13229,0.13229 0,0.0794 -0.0529,0.13229 -0.13229,0.13229 h -0.21167 c -0.0794,0 -0.13229,-0.0794 -0.13229,-0.13229 z m 0.87313,0 c 0,-0.0794 0.0529,-0.13229 0.13229,-0.13229 h 0.21167 c 0.0794,0 0.13229,0.0529 0.13229,0.13229 0,0.0794 -0.0529,0.13229 -0.13229,0.13229 h -0.21167 c -0.0529,0 -0.13229,-0.0794 -0.13229,-0.13229 z m -1.74625,0.68792 c 0,-0.0794 0.0529,-0.1323 0.13229,-0.1323 h 0.21167 c 0.0794,0 0.13229,0.0529 0.13229,0.1323 0,0.0794 -0.0529,0.13229 -0.13229,0.13229 h -0.21167 c -0.0794,0 -0.13229,-0.0529 -0.13229,-0.13229 z m 0.87312,0 c 0,-0.0794 0.0529,-0.1323 0.13229,-0.1323 h 0.21167 c 0.0794,0 0.13229,0.0529 0.13229,0.1323 0,0.0794 -0.0529,0.13229 -0.13229,0.13229 h -0.21167 c -0.0794,0 -0.13229,-0.0529 -0.13229,-0.13229 z m 0.87313,0 c 0,-0.0794 0.0529,-0.1323 0.13229,-0.1323 h 0.21167 c 0.0794,0 0.13229,0.0529 0.13229,0.1323 0,0.0794 -0.0529,0.13229 -0.13229,0.13229 h -0.21167 c -0.0529,0 -0.13229,-0.0529 -0.13229,-0.13229 z m -1.74625,0.68791 c 0,-0.0794 0.0529,-0.13229 0.13229,-0.13229 h 0.21167 c 0.0794,0 0.13229,0.0529 0.13229,0.13229 0,0.0794 -0.0529,0.13229 -0.13229,0.13229 h -0.21167 c -0.0794,0 -0.13229,-0.0529 -0.13229,-0.13229 z m 0.87312,0 c 0,-0.0794 0.0529,-0.13229 0.13229,-0.13229 h 0.21167 c 0.0794,0 0.13229,0.0529 0.13229,0.13229 0,0.0794 -0.0529,0.13229 -0.13229,0.13229 h -0.21167 c -0.0794,0 -0.13229,-0.0529 -0.13229,-0.13229 z m 0.87313,0 c 0,-0.0794 0.0529,-0.13229 0.13229,-0.13229 h 0.21167 c 0.0794,0 0.13229,0.0529 0.13229,0.13229 0,0.0794 -0.0529,0.13229 -0.13229,0.13229 h -0.21167 c -0.0529,0 -0.13229,-0.0529 -0.13229,-0.13229 z m -1.74625,0.68792 c 0,-0.0794 0.0529,-0.13229 0.13229,-0.13229 h 0.21167 c 0.0794,0 0.13229,0.0529 0.13229,0.13229 0,0.0794 -0.0529,0.13229 -0.13229,0.13229 h -0.21167 c -0.0794,0 -0.13229,-0.0529 -0.13229,-0.13229 z m 0.87312,0 c 0,-0.0794 0.0529,-0.13229 0.13229,-0.13229 h 0.21167 c 0.0794,0 0.13229,0.0529 0.13229,0.13229 0,0.0794 -0.0529,0.13229 -0.13229,0.13229 h -0.21167 c -0.0794,0 -0.13229,-0.0529 -0.13229,-0.13229 z m 0.87313,0 c 0,-0.0794 0.0529,-0.13229 0.13229,-0.13229 h 0.21167 c 0.0794,0 0.13229,0.0529 0.13229,0.13229 0,0.0794 -0.0529,0.13229 -0.13229,0.13229 h -0.21167 c -0.0529,0 -0.13229,-0.0529 -0.13229,-0.13229 z m -1.74625,0.68792 c 0,-0.0794 0.0529,-0.1323 0.13229,-0.1323 h 0.21167 c 0.0794,0 0.13229,0.0529 0.13229,0.1323 0,0.0794 -0.0529,0.13229 -0.13229,0.13229 h -0.21167 c -0.0794,0 -0.13229,-0.0529 -0.13229,-0.13229 z m 0.87312,0 c 0,-0.0794 0.0529,-0.1323 0.13229,-0.1323 h 0.21167 c 0.0794,0 0.13229,0.0529 0.13229,0.1323 0,0.0794 -0.0529,0.13229 -0.13229,0.13229 h -0.21167 c -0.0794,0 -0.13229,-0.0529 -0.13229,-0.13229 z m 0.87313,0 c 0,-0.0794 0.0529,-0.1323 0.13229,-0.1323 h 0.21167 c 0.0794,0 0.13229,0.0529 0.13229,0.1323 0,0.0794 -0.0529,0.13229 -0.13229,0.13229 h -0.21167 c -0.0529,0 -0.13229,-0.0529 -0.13229,-0.13229 z"
         class="st0"
         style="fill:#434b52;stroke-width:0.25443396" />
      <circle
         style="opacity:1;fill:none;fill-opacity:1;stroke:#434b52;stroke-width:0.25443396;stroke-linecap:round;stroke-linejoin:round;stroke-miterlimit:4;stroke-dasharray:none;stroke-opacity:1"
         id="path882-1-1"
         cx="139.02814"
         cy="85.68412"
         r="6.8697171" />
    </g>
  </g>
  <style
     type="text/css"
     id="style826">
	.st0{fill:#434B52;}
</style>
  <style
     type="text/css"
     id="style839">
	.st0{fill:#444B52;}
</style>
</svg>
