<?xml version="1.0" encoding="UTF-8" standalone="no"?>
<svg
   xmlns:dc="http://purl.org/dc/elements/1.1/"
   xmlns:cc="http://creativecommons.org/ns#"
   xmlns:rdf="http://www.w3.org/1999/02/22-rdf-syntax-ns#"
   xmlns:svg="http://www.w3.org/2000/svg"
   xmlns="http://www.w3.org/2000/svg"
   id="svg8"
   version="1.1"
   viewBox="0 0 7.6729165 4.2333334"
   height="16"
   width="29">
  <defs
     id="defs2" />
  <metadata
     id="metadata5">
    <rdf:RDF>
      <cc:Work
         rdf:about="">
        <dc:format>image/svg+xml</dc:format>
        <dc:type
           rdf:resource="http://purl.org/dc/dcmitype/StillImage" />
        <dc:title></dc:title>
      </cc:Work>
    </rdf:RDF>
  </metadata>
  <g
     transform="translate(0,-292.76665)"
     id="layer1">
    <g
       style="fill:#ffffff;fill-opacity:1;stroke-width:15.32637215"
       transform="matrix(0.01726327,0,0,0.01726327,0,291.11266)"
       id="g4631">
      <path
         style="fill:#ffffff;fill-opacity:1;stroke-width:15.32637215"
         d="m 343.746,154.841 c -12.696,0 -24.804,2.558 -35.842,7.18 L 281.51,110.81 h 36.89 c 4.002,0 7.258,3.256 7.258,7.258 0,4.002 -3.256,7.258 -7.258,7.258 h -7.871 c -4.143,0 -7.5,3.358 -7.5,7.5 0,4.142 3.357,7.5 7.5,7.5 h 7.871 c 12.273,0 22.258,-9.985 22.258,-22.258 0,-12.273 -9.984,-22.258 -22.258,-22.258 h -49.192 c -2.615,0 -5.042,1.363 -6.404,3.596 -1.361,2.233 -1.461,5.015 -0.263,7.34 l 13.125,25.467 H 167.423 l -10.92,-21.403 h 17.269 c 4.143,0 7.5,-3.358 7.5,-7.5 0,-4.142 -3.357,-7.5 -7.5,-7.5 h -49.193 c -4.143,0 -7.5,3.358 -7.5,7.5 0,4.142 3.357,7.5 7.5,7.5 h 15.084 l 14.576,28.568 -17.132,26.543 C 123.994,158.856 109.006,154.841 93.096,154.841 41.763,154.841 0,196.603 0,247.936 c 0,51.333 41.763,93.096 93.096,93.096 48.808,0 88.961,-37.757 92.793,-85.596 h 22.007 l -8.549,27.818 h -4.922 c -4.143,0 -7.5,3.358 -7.5,7.5 0,4.142 3.357,7.5 7.5,7.5 h 27 c 4.143,0 7.5,-3.358 7.5,-7.5 0,-4.142 -3.357,-7.5 -7.5,-7.5 h -6.386 l 9.869,-32.114 62.406,-96.327 7.269,14.103 c -26.357,16.458 -43.933,45.723 -43.933,79.02 0,51.333 41.763,93.096 93.097,93.096 51.333,0 93.096,-41.763 93.096,-93.096 -0.001,-51.333 -41.764,-93.095 -93.097,-93.095 z m -181.625,-0.015 43.678,85.61 h -19.911 c -2.162,-26.985 -15.882,-50.758 -36.193,-66.359 z m 8.703,85.61 h -63.96 l 34.661,-53.699 c 16.209,12.855 27.22,31.987 29.299,53.699 z M 93.096,326.032 C 50.033,326.032 15,290.999 15,247.936 15,204.874 50.033,169.84 93.096,169.84 c 12.914,0 25.095,3.17 35.837,8.743 l -42.139,65.285 c -1.489,2.307 -1.598,5.244 -0.284,7.655 1.313,2.411 3.84,3.912 6.586,3.912 h 77.728 c -3.788,39.557 -37.196,70.597 -77.728,70.597 z m 125.723,-93.083 -43.743,-85.737 h 99.289 z m 124.927,93.083 c -43.063,0 -78.097,-35.034 -78.097,-78.096 0,-27.498 14.298,-51.704 35.838,-65.623 l 35.592,69.059 c 1.332,2.583 3.954,4.065 6.673,4.065 1.157,0 2.331,-0.269 3.43,-0.835 3.683,-1.897 5.129,-6.42 3.231,-10.103 L 314.81,175.42 c 8.956,-3.586 18.714,-5.581 28.936,-5.581 43.063,0 78.096,35.034 78.096,78.096 0,43.064 -35.033,78.097 -78.096,78.097 z"
         id="path4576" />
      <g
         style="fill:#ffffff;fill-opacity:1;stroke-width:15.32637215"
         id="g4578">
</g>
      <g
         style="fill:#ffffff;fill-opacity:1;stroke-width:15.32637215"
         id="g4580">
</g>
      <g
         style="fill:#ffffff;fill-opacity:1;stroke-width:15.32637215"
         id="g4582">
</g>
      <g
         style="fill:#ffffff;fill-opacity:1;stroke-width:15.32637215"
         id="g4584">
</g>
      <g
         style="fill:#ffffff;fill-opacity:1;stroke-width:15.32637215"
         id="g4586">
</g>
      <g
         style="fill:#ffffff;fill-opacity:1;stroke-width:15.32637215"
         id="g4588">
</g>
      <g
         style="fill:#ffffff;fill-opacity:1;stroke-width:15.32637215"
         id="g4590">
</g>
      <g
         style="fill:#ffffff;fill-opacity:1;stroke-width:15.32637215"
         id="g4592">
</g>
      <g
         style="fill:#ffffff;fill-opacity:1;stroke-width:15.32637215"
         id="g4594">
</g>
      <g
         style="fill:#ffffff;fill-opacity:1;stroke-width:15.32637215"
         id="g4596">
</g>
      <g
         style="fill:#ffffff;fill-opacity:1;stroke-width:15.32637215"
         id="g4598">
</g>
      <g
         style="fill:#ffffff;fill-opacity:1;stroke-width:15.32637215"
         id="g4600">
</g>
      <g
         style="fill:#ffffff;fill-opacity:1;stroke-width:15.32637215"
         id="g4602">
</g>
      <g
         style="fill:#ffffff;fill-opacity:1;stroke-width:15.32637215"
         id="g4604">
</g>
      <g
         style="fill:#ffffff;fill-opacity:1;stroke-width:15.32637215"
         id="g4606">
</g>
    </g>
  </g>
  <style
     type="text/css"
     id="style4741">
	.st0{fill:#434B52;}
</style>
</svg>
