<?xml version="1.0" encoding="utf-8"?>
<!-- Generator: Adobe Illustrator 21.0.0, SVG Export Plug-In . SVG Version: 6.00 Build 0)  -->
<svg version="1.1" id="Слой_1" xmlns="http://www.w3.org/2000/svg" xmlns:xlink="http://www.w3.org/1999/xlink" x="0px" y="0px"
	 viewBox="0 0 19 17.5" style="enable-background:new 0 0 19 17.5;" xml:space="preserve">
<style type="text/css">
	.st0{fill:#444B52;}
</style>
<path class="st0" d="M1.5,6.7H3v8H2c-0.3,0-0.5,0.2-0.5,0.5s0.2,0.5,0.5,0.5h15c0.3,0,0.5-0.2,0.5-0.5s-0.2-0.5-0.5-0.5h-1V6.6h1.5
	c0.3,0,0.5-0.2,0.5-0.5V4.3c0-0.2-0.1-0.3-0.3-0.4L9.7,0C9.6,0,9.4,0,9.3,0l-8,3.8C1.1,3.9,1,4.1,1,4.3v1.9C1,6.5,1.2,6.7,1.5,6.7z
	 M5,14.7H4V6.6h1V14.7z M8,14.7H6V6.6h2V14.7z M10,14.7H9V6.6h1V14.7z M13,14.7h-2V6.6h2V14.7z M15,14.7h-1V6.6h1V14.7z M2,4.6
	L9.5,1L17,4.6v1.1H2V4.6z M19,17c0,0.3-0.2,0.5-0.5,0.5h-18C0.2,17.5,0,17.3,0,17s0.2-0.5,0.5-0.5h18C18.8,16.5,19,16.8,19,17z"/>
</svg>
