<?xml version="1.0" encoding="utf-8"?>
<!-- Generator: Adobe Illustrator 21.0.0, SVG Export Plug-In . SVG Version: 6.00 Build 0)  -->
<svg version="1.1" id="Слой_1" xmlns="http://www.w3.org/2000/svg" xmlns:xlink="http://www.w3.org/1999/xlink" x="0px" y="0px"
	 viewBox="0 0 20.2 21.1" style="enable-background:new 0 0 20.2 21.1;" xml:space="preserve">
<style type="text/css">
	.st0{fill:#434B52;}
</style>
<path class="st0" d="M19.7,0H7.2C6.9,0,6.7,0.2,6.7,0.5v4.7H0.5C0.2,5.2,0,5.4,0,5.7v14.9c0,0.3,0.2,0.5,0.5,0.5h6.7h12.5
	c0.3,0,0.5-0.2,0.5-0.5V0.5C20.2,0.3,20,0,19.7,0z M6.7,15.8H3.5v-1.6h3.2V15.8z M6.7,10.5H3.5V8.9h3.2V10.5z M1,6.3h5.7v1.6H3
	c-0.3,0-0.5,0.2-0.5,0.5V11c0,0.3,0.2,0.5,0.5,0.5h3.7v1.6H3c-0.3,0-0.5,0.2-0.5,0.5v2.6c0,0.3,0.2,0.5,0.5,0.5h3.7v3.4H1
	C1,20.1,1,6.3,1,6.3z M11.8,20.1V18c0-0.7,0.5-1.2,1.2-1.2h0.8c0.6,0,1.2,0.6,1.2,1.2v2.1H11.8z M19.2,20.1H16V18
	c0-1.2-1-2.2-2.2-2.2H13c-1.2,0-2.2,1-2.2,2.2v2.1H7.6v-3.9v-2.6V11V8.4V5.8V1.1h11.5v19H19.2z M9.2,3.2c0-0.3,0.2-0.5,0.5-0.5h0.8
	c0.3,0,0.5,0.2,0.5,0.5s-0.2,0.5-0.5,0.5H9.7C9.4,3.7,9.2,3.4,9.2,3.2z M12.5,3.2c0-0.3,0.2-0.5,0.5-0.5h0.8c0.3,0,0.5,0.2,0.5,0.5
	s-0.2,0.5-0.5,0.5H13C12.7,3.7,12.5,3.4,12.5,3.2z M15.8,3.2c0-0.3,0.2-0.5,0.5-0.5h0.8c0.3,0,0.5,0.2,0.5,0.5s-0.2,0.5-0.5,0.5
	h-0.8C16.1,3.7,15.8,3.4,15.8,3.2z M9.2,5.8c0-0.3,0.2-0.5,0.5-0.5h0.8c0.3,0,0.5,0.2,0.5,0.5s-0.2,0.5-0.5,0.5H9.7
	C9.4,6.3,9.2,6.1,9.2,5.8z M12.5,5.8c0-0.3,0.2-0.5,0.5-0.5h0.8c0.3,0,0.5,0.2,0.5,0.5s-0.2,0.5-0.5,0.5H13
	C12.7,6.3,12.5,6.1,12.5,5.8z M15.8,5.8c0-0.3,0.2-0.5,0.5-0.5h0.8c0.3,0,0.5,0.2,0.5,0.5s-0.2,0.5-0.5,0.5h-0.8
	C16.1,6.3,15.8,6.1,15.8,5.8z M9.2,8.4c0-0.3,0.2-0.5,0.5-0.5h0.8c0.3,0,0.5,0.2,0.5,0.5s-0.2,0.5-0.5,0.5H9.7
	C9.4,8.9,9.2,8.7,9.2,8.4z M12.5,8.4c0-0.3,0.2-0.5,0.5-0.5h0.8c0.3,0,0.5,0.2,0.5,0.5s-0.2,0.5-0.5,0.5H13
	C12.7,8.9,12.5,8.7,12.5,8.4z M15.8,8.4c0-0.3,0.2-0.5,0.5-0.5h0.8c0.3,0,0.5,0.2,0.5,0.5s-0.2,0.5-0.5,0.5h-0.8
	C16.1,8.9,15.8,8.7,15.8,8.4z M9.2,11c0-0.3,0.2-0.5,0.5-0.5h0.8c0.3,0,0.5,0.2,0.5,0.5s-0.2,0.5-0.5,0.5H9.7
	C9.4,11.5,9.2,11.3,9.2,11z M12.5,11c0-0.3,0.2-0.5,0.5-0.5h0.8c0.3,0,0.5,0.2,0.5,0.5s-0.2,0.5-0.5,0.5H13
	C12.7,11.5,12.5,11.3,12.5,11z M15.8,11c0-0.3,0.2-0.5,0.5-0.5h0.8c0.3,0,0.5,0.2,0.5,0.5s-0.2,0.5-0.5,0.5h-0.8
	C16.1,11.5,15.8,11.3,15.8,11z M9.2,13.6c0-0.3,0.2-0.5,0.5-0.5h0.8c0.3,0,0.5,0.2,0.5,0.5s-0.2,0.5-0.5,0.5H9.7
	C9.4,14.1,9.2,13.9,9.2,13.6z M12.5,13.6c0-0.3,0.2-0.5,0.5-0.5h0.8c0.3,0,0.5,0.2,0.5,0.5s-0.2,0.5-0.5,0.5H13
	C12.7,14.1,12.5,13.9,12.5,13.6z M15.8,13.6c0-0.3,0.2-0.5,0.5-0.5h0.8c0.3,0,0.5,0.2,0.5,0.5s-0.2,0.5-0.5,0.5h-0.8
	C16.1,14.1,15.8,13.9,15.8,13.6z"/>
</svg>
