<?xml version="1.0" encoding="UTF-8" standalone="no"?>
<svg
   xmlns:dc="http://purl.org/dc/elements/1.1/"
   xmlns:cc="http://creativecommons.org/ns#"
   xmlns:rdf="http://www.w3.org/1999/02/22-rdf-syntax-ns#"
   xmlns:svg="http://www.w3.org/2000/svg"
   xmlns="http://www.w3.org/2000/svg"
   id="svg8"
   version="1.1"
   viewBox="0 0 3.7570832 4.2333334"
   height="16"
   width="14.2">
  <defs
     id="defs2" />
  <metadata
     id="metadata5">
    <rdf:RDF>
      <cc:Work
         rdf:about="">
        <dc:format>image/svg+xml</dc:format>
        <dc:type
           rdf:resource="http://purl.org/dc/dcmitype/StillImage" />
        <dc:title></dc:title>
      </cc:Work>
    </rdf:RDF>
  </metadata>
  <g
     transform="translate(0,-292.76665)"
     id="layer1">
    <g
       transform="matrix(0.00826828,0,0,0.00826828,-0.23812218,292.76665)"
       id="g4739"
       style="fill:#ffffff;stroke-width:31.99980354;fill-opacity:1">
      <g
         style="stroke-width:31.99980354;fill:#ffffff;fill-opacity:1"
         id="g4637">
	<g
   style="stroke-width:31.99980354;fill:#ffffff;fill-opacity:1"
   id="g4635">
		<path
   style="stroke-width:31.99980354;fill:#ffffff;fill-opacity:1"
   d="m 335.99,160.828 c -1.177,-3.62 -4.308,-6.257 -8.074,-6.804 l -43.503,-6.31 -19.465,-39.414 c -1.686,-3.412 -5.161,-5.572 -8.966,-5.572 h -0.002 c -3.807,0.001 -7.282,2.163 -8.966,5.577 l -19.443,39.424 -43.5,6.333 c -3.767,0.548 -6.895,3.188 -8.07,6.808 -1.175,3.62 -0.193,7.594 2.533,10.25 l 31.486,30.675 -7.419,43.327 c -0.643,3.752 0.901,7.543 3.981,9.78 1.742,1.265 3.804,1.908 5.876,1.908 1.592,0 3.191,-0.38 4.655,-1.15 l 38.903,-20.466 38.914,20.445 c 3.369,1.771 7.452,1.475 10.531,-0.764 3.079,-2.238 4.62,-6.03 3.976,-9.781 l -7.442,-43.323 31.47,-30.691 c 2.723,-2.658 3.702,-6.632 2.525,-10.252 z m -51.724,30.296 c -2.356,2.298 -3.431,5.608 -2.874,8.852 l 4.902,28.535 -25.631,-13.466 c -2.913,-1.531 -6.394,-1.53 -9.307,0.002 l -25.624,13.48 4.887,-28.538 c 0.556,-3.244 -0.521,-6.554 -2.878,-8.851 l -20.738,-20.204 28.651,-4.171 c 3.257,-0.474 6.072,-2.521 7.528,-5.472 l 12.806,-25.966 12.821,25.96 c 1.458,2.951 4.274,4.996 7.531,5.468 l 28.653,4.156 z"
   id="path4633" />

	</g>

</g>
      <g
         style="stroke-width:31.99980354;fill:#ffffff;fill-opacity:1"
         id="g4643">
	<g
   style="stroke-width:31.99980354;fill:#ffffff;fill-opacity:1"
   id="g4641">
		<path
   style="stroke-width:31.99980354;fill:#ffffff;fill-opacity:1"
   d="m 480.738,439.367 -82.656,-143.77 c 24.961,-31.158 39.916,-70.661 39.916,-113.597 0,-100.355 -81.645,-182 -182,-182 -100.355,0 -182,81.645 -182,182 0,42.936 14.954,82.439 39.916,113.597 l -82.656,143.77 c -1.898,3.302 -1.756,7.396 0.367,10.559 2.123,3.162 5.862,4.844 9.633,4.337 l 64.513,-8.663 24.754,60.201 c 1.45,3.525 4.778,5.92 8.582,6.174 0.224,0.015 0.447,0.022 0.669,0.022 3.555,0 6.864,-1.893 8.658,-5 L 231.877,362.47 c 0.013,-0.022 0.022,-0.045 0.035,-0.068 7.884,1.047 15.922,1.597 24.088,1.597 8.166,0 16.204,-0.55 24.088,-1.597 0.013,0.022 0.022,0.045 0.035,0.068 l 83.443,144.527 c 1.794,3.107 5.104,5 8.658,5 0.222,0 0.445,-0.007 0.669,-0.022 3.804,-0.254 7.132,-2.649 8.582,-6.174 l 24.755,-60.201 64.513,8.663 c 3.779,0.507 7.51,-1.175 9.633,-4.337 2.117,-3.163 2.26,-7.257 0.362,-10.559 z m -339.454,40.012 -18.02,-43.822 16.171,-26.389 c 2.886,-4.709 1.408,-10.866 -3.301,-13.751 -4.709,-2.885 -10.866,-1.408 -13.751,3.301 l -16.341,26.666 -47.33,6.355 69.276,-120.496 c 22.692,22.477 51.248,39.04 83.144,47.156 z M 255.997,344 c -89.327,0 -162,-72.673 -162,-162 0,-89.327 72.673,-162 162,-162 89.327,0 162,72.673 162,162 0,89.327 -72.673,162 -162,162 z m 149.956,81.384 -16.341,-26.666 c -2.885,-4.709 -9.042,-6.188 -13.751,-3.301 -4.709,2.886 -6.187,9.042 -3.301,13.751 l 16.171,26.389 -18.02,43.822 -69.848,-120.98 c 31.896,-8.116 60.453,-24.679 83.144,-47.156 l 69.276,120.496 z"
   id="path4639" />

	</g>

</g>
      <g
         style="stroke-width:31.99980354;fill:#ffffff;fill-opacity:1"
         id="g4649">
	<g
   style="stroke-width:31.99980354;fill:#ffffff;fill-opacity:1"
   id="g4647">
		<path
   style="stroke-width:31.99980354;fill:#ffffff;fill-opacity:1"
   d="m 255.997,52 c -22.316,0 -44.333,5.752 -63.672,16.636 -4.813,2.708 -6.519,8.806 -3.811,13.619 2.708,4.813 8.806,6.521 13.619,3.811 C 218.484,76.864 237.11,72 255.997,72 c 60.654,0 110,49.346 110,110 0,16.574 -3.591,32.499 -10.673,47.332 -2.379,4.984 -0.268,10.953 4.716,13.333 1.391,0.664 2.857,0.978 4.302,0.978 3.732,0 7.315,-2.101 9.031,-5.694 8.376,-17.545 12.624,-36.369 12.624,-55.949 0,-71.682 -58.317,-130 -130,-130 z"
   id="path4645" />

	</g>

</g>
      <g
         style="stroke-width:31.99980354;fill:#ffffff;fill-opacity:1"
         id="g4655">
	<g
   style="stroke-width:31.99980354;fill:#ffffff;fill-opacity:1"
   id="g4653">
		<path
   style="stroke-width:31.99980354;fill:#ffffff;fill-opacity:1"
   d="m 349.05,258.422 c -3.963,-3.846 -10.294,-3.751 -14.14,0.212 l -0.222,0.228 c -3.858,3.951 -3.783,10.283 0.168,14.141 1.945,1.899 4.466,2.845 6.985,2.845 2.599,0 5.197,-1.007 7.156,-3.014 l 0.264,-0.271 c 3.847,-3.963 3.752,-10.294 -0.211,-14.141 z"
   id="path4651" />

	</g>

</g>
      <g
         style="stroke-width:31.99980354;fill:#ffffff;fill-opacity:1"
         id="g4661">
	<g
   style="stroke-width:31.99980354;fill:#ffffff;fill-opacity:1"
   id="g4659">
		<path
   style="stroke-width:31.99980354;fill:#ffffff;fill-opacity:1"
   d="m 322.586,282.345 c -2.665,-4.837 -8.747,-6.598 -13.584,-3.932 -16.131,8.889 -34.46,13.587 -53.005,13.587 -60.654,0 -110,-49.346 -110,-110 0,-15.889 3.311,-31.213 9.84,-45.546 2.29,-5.026 0.071,-10.956 -4.955,-13.246 -5.026,-2.289 -10.956,-0.071 -13.246,4.955 -7.724,16.954 -11.64,35.067 -11.64,53.837 0,71.682 58.318,130 130,130 21.911,0 43.578,-5.557 62.658,-16.071 4.837,-2.666 6.598,-8.747 3.932,-13.584 z"
   id="path4657" />

	</g>

</g>
      <g
         style="stroke-width:31.99980354;fill:#ffffff;fill-opacity:1"
         id="g4667">
	<g
   style="stroke-width:31.99980354;fill:#ffffff;fill-opacity:1"
   id="g4665">
		<path
   style="stroke-width:31.99980354;fill:#ffffff;fill-opacity:1"
   d="M 174.999,92.899 C 170.958,89.134 164.63,89.36 160.866,93.4 l -0.222,0.239 c -3.75,4.054 -3.505,10.381 0.549,14.131 1.923,1.78 4.358,2.66 6.788,2.66 2.69,0 5.372,-1.079 7.343,-3.209 l 0.176,-0.189 c 3.764,-4.041 3.54,-10.369 -0.501,-14.133 z"
   id="path4663" />

	</g>

</g>
      <g
         style="stroke-width:31.99980354;fill:#ffffff;fill-opacity:1"
         id="g4669">
</g>
      <g
         style="stroke-width:31.99980354;fill:#ffffff;fill-opacity:1"
         id="g4671">
</g>
      <g
         style="stroke-width:31.99980354;fill:#ffffff;fill-opacity:1"
         id="g4673">
</g>
      <g
         style="stroke-width:31.99980354;fill:#ffffff;fill-opacity:1"
         id="g4675">
</g>
      <g
         style="stroke-width:31.99980354;fill:#ffffff;fill-opacity:1"
         id="g4677">
</g>
      <g
         style="stroke-width:31.99980354;fill:#ffffff;fill-opacity:1"
         id="g4679">
</g>
      <g
         style="stroke-width:31.99980354;fill:#ffffff;fill-opacity:1"
         id="g4681">
</g>
      <g
         style="stroke-width:31.99980354;fill:#ffffff;fill-opacity:1"
         id="g4683">
</g>
      <g
         style="stroke-width:31.99980354;fill:#ffffff;fill-opacity:1"
         id="g4685">
</g>
      <g
         style="stroke-width:31.99980354;fill:#ffffff;fill-opacity:1"
         id="g4687">
</g>
      <g
         style="stroke-width:31.99980354;fill:#ffffff;fill-opacity:1"
         id="g4689">
</g>
      <g
         style="stroke-width:31.99980354;fill:#ffffff;fill-opacity:1"
         id="g4691">
</g>
      <g
         style="stroke-width:31.99980354;fill:#ffffff;fill-opacity:1"
         id="g4693">
</g>
      <g
         style="stroke-width:31.99980354;fill:#ffffff;fill-opacity:1"
         id="g4695">
</g>
      <g
         style="stroke-width:31.99980354;fill:#ffffff;fill-opacity:1"
         id="g4697">
</g>
    </g>
  </g>
  <style
     type="text/css"
     id="style4741">
	.st0{fill:#434B52;}
</style>
</svg>
